G04 #@! TF.FileFunction,Soldermask,Top*
%FSLAX46Y46*%
G04 Gerber Fmt 4.6, Leading zero omitted, Abs format (unit mm)*
G04 Created by KiCad (PCBNEW 4.0.6) date 05/11/17 15:04:23*
%MOMM*%
%LPD*%
G01*
G04 APERTURE LIST*
%ADD10C,0.100000*%
%ADD11R,2.000000X2.000000*%
%ADD12O,2.000000X2.000000*%
%ADD13C,1.924000*%
%ADD14C,2.000000*%
%ADD15R,2.100000X2.100000*%
%ADD16O,2.100000X2.100000*%
%ADD17C,1.900000*%
%ADD18C,9.000000*%
G04 APERTURE END LIST*
D10*
D11*
X126492000Y-101854000D03*
D12*
X159512000Y-94234000D03*
X129032000Y-101854000D03*
X156972000Y-94234000D03*
X131572000Y-101854000D03*
X154432000Y-94234000D03*
X134112000Y-101854000D03*
X151892000Y-94234000D03*
X136652000Y-101854000D03*
X149352000Y-94234000D03*
X139192000Y-101854000D03*
X146812000Y-94234000D03*
X141732000Y-101854000D03*
X144272000Y-94234000D03*
X144272000Y-101854000D03*
X141732000Y-94234000D03*
X146812000Y-101854000D03*
X139192000Y-94234000D03*
X149352000Y-101854000D03*
X136652000Y-94234000D03*
X151892000Y-101854000D03*
X134112000Y-94234000D03*
X154432000Y-101854000D03*
X131572000Y-94234000D03*
X156972000Y-101854000D03*
X129032000Y-94234000D03*
X159512000Y-101854000D03*
X126492000Y-94234000D03*
D13*
X130048000Y-119634000D03*
X132588000Y-119634000D03*
X135128000Y-119634000D03*
X137668000Y-119634000D03*
X140208000Y-119634000D03*
X142748000Y-119634000D03*
X145288000Y-119634000D03*
X147828000Y-119634000D03*
D11*
X168656000Y-101854000D03*
D12*
X201676000Y-94234000D03*
X171196000Y-101854000D03*
X199136000Y-94234000D03*
X173736000Y-101854000D03*
X196596000Y-94234000D03*
X176276000Y-101854000D03*
X194056000Y-94234000D03*
X178816000Y-101854000D03*
X191516000Y-94234000D03*
X181356000Y-101854000D03*
X188976000Y-94234000D03*
X183896000Y-101854000D03*
X186436000Y-94234000D03*
X186436000Y-101854000D03*
X183896000Y-94234000D03*
X188976000Y-101854000D03*
X181356000Y-94234000D03*
X191516000Y-101854000D03*
X178816000Y-94234000D03*
X194056000Y-101854000D03*
X176276000Y-94234000D03*
X196596000Y-101854000D03*
X173736000Y-94234000D03*
X199136000Y-101854000D03*
X171196000Y-94234000D03*
X201676000Y-101854000D03*
X168656000Y-94234000D03*
D13*
X182087596Y-112419520D03*
X181102000Y-109728000D03*
X179547596Y-112419520D03*
X178277596Y-109879520D03*
X177007596Y-112419520D03*
X175737596Y-109879520D03*
X174467596Y-112419520D03*
X173197596Y-109879520D03*
X171927596Y-112419520D03*
X170657596Y-109879520D03*
X169387596Y-112419520D03*
X168117596Y-109879520D03*
X166317596Y-113899520D03*
X183887596Y-113899520D03*
D11*
X84328000Y-101854000D03*
D12*
X117348000Y-94234000D03*
X86868000Y-101854000D03*
X114808000Y-94234000D03*
X89408000Y-101854000D03*
X112268000Y-94234000D03*
X91948000Y-101854000D03*
X109728000Y-94234000D03*
X94488000Y-101854000D03*
X107188000Y-94234000D03*
X97028000Y-101854000D03*
X104648000Y-94234000D03*
X99568000Y-101854000D03*
X102108000Y-94234000D03*
X102108000Y-101854000D03*
X99568000Y-94234000D03*
X104648000Y-101854000D03*
X97028000Y-94234000D03*
X107188000Y-101854000D03*
X94488000Y-94234000D03*
X109728000Y-101854000D03*
X91948000Y-94234000D03*
X112268000Y-101854000D03*
X89408000Y-94234000D03*
X114808000Y-101854000D03*
X86868000Y-94234000D03*
X117348000Y-101854000D03*
X84328000Y-94234000D03*
D13*
X98298000Y-112268000D03*
X97312404Y-109576480D03*
X95758000Y-112268000D03*
X94488000Y-109728000D03*
X93218000Y-112268000D03*
X91948000Y-109728000D03*
X90678000Y-112268000D03*
X89408000Y-109728000D03*
X88138000Y-112268000D03*
X86868000Y-109728000D03*
X85598000Y-112268000D03*
X84328000Y-109728000D03*
X82528000Y-113748000D03*
X100098000Y-113748000D03*
X169448404Y-83922480D03*
X170434000Y-86614000D03*
X171988404Y-83922480D03*
X173258404Y-86462480D03*
X174528404Y-83922480D03*
X175798404Y-86462480D03*
X177068404Y-83922480D03*
X178338404Y-86462480D03*
X179608404Y-83922480D03*
X180878404Y-86462480D03*
X182148404Y-83922480D03*
X183418404Y-86462480D03*
X185218404Y-82442480D03*
X167648404Y-82442480D03*
D14*
X121158000Y-136144000D03*
X121158000Y-141144000D03*
D15*
X132842000Y-126492000D03*
D16*
X132842000Y-129032000D03*
X132842000Y-131572000D03*
X132842000Y-134112000D03*
X132842000Y-136652000D03*
X132842000Y-139192000D03*
D15*
X157988000Y-145034000D03*
D16*
X155448000Y-145034000D03*
X157988000Y-142494000D03*
X155448000Y-142494000D03*
X157988000Y-139954000D03*
X155448000Y-139954000D03*
X157988000Y-137414000D03*
X155448000Y-137414000D03*
X157988000Y-134874000D03*
X155448000Y-134874000D03*
X157988000Y-132334000D03*
X155448000Y-132334000D03*
X157988000Y-129794000D03*
X155448000Y-129794000D03*
X157988000Y-127254000D03*
X155448000Y-127254000D03*
X157988000Y-124714000D03*
X155448000Y-124714000D03*
X157988000Y-122174000D03*
X155448000Y-122174000D03*
X157988000Y-119634000D03*
X155448000Y-119634000D03*
X157988000Y-117094000D03*
X155448000Y-117094000D03*
D14*
X103886000Y-125476000D03*
D12*
X103886000Y-112776000D03*
D14*
X115824000Y-125476000D03*
D12*
X115824000Y-112776000D03*
D14*
X109982000Y-125476000D03*
D12*
X109982000Y-112776000D03*
D15*
X150876000Y-110490000D03*
D16*
X153416000Y-110490000D03*
X155956000Y-110490000D03*
X158496000Y-110490000D03*
X161036000Y-110490000D03*
D13*
X183134000Y-138430000D03*
X185674000Y-138430000D03*
X188214000Y-138430000D03*
X190754000Y-138430000D03*
X193294000Y-138430000D03*
X195834000Y-138430000D03*
X198374000Y-138430000D03*
X200914000Y-138430000D03*
X204216000Y-129667000D03*
X204216000Y-126167000D03*
D11*
X112776000Y-137668000D03*
D12*
X79756000Y-145288000D03*
X110236000Y-137668000D03*
X82296000Y-145288000D03*
X107696000Y-137668000D03*
X84836000Y-145288000D03*
X105156000Y-137668000D03*
X87376000Y-145288000D03*
X102616000Y-137668000D03*
X89916000Y-145288000D03*
X100076000Y-137668000D03*
X92456000Y-145288000D03*
X97536000Y-137668000D03*
X94996000Y-145288000D03*
X94996000Y-137668000D03*
X97536000Y-145288000D03*
X92456000Y-137668000D03*
X100076000Y-145288000D03*
X89916000Y-137668000D03*
X102616000Y-145288000D03*
X87376000Y-137668000D03*
X105156000Y-145288000D03*
X84836000Y-137668000D03*
X107696000Y-145288000D03*
X82296000Y-137668000D03*
X110236000Y-145288000D03*
X79756000Y-137668000D03*
X112776000Y-145288000D03*
D17*
X93726000Y-132842000D03*
X88846000Y-132842000D03*
D14*
X93980000Y-122428000D03*
X93980000Y-127428000D03*
X88900000Y-122428000D03*
X88900000Y-127428000D03*
D18*
X107950000Y-86360000D03*
X78740000Y-152400000D03*
X198120000Y-152400000D03*
X198120000Y-86360000D03*
D15*
X193421000Y-144526000D03*
D16*
X190881000Y-144526000D03*
X188341000Y-144526000D03*
X185801000Y-144526000D03*
X183261000Y-144526000D03*
X180721000Y-144526000D03*
D13*
X83342404Y-83922480D03*
X84328000Y-86614000D03*
X85882404Y-83922480D03*
X87152404Y-86462480D03*
X88422404Y-83922480D03*
X89692404Y-86462480D03*
X90962404Y-83922480D03*
X92232404Y-86462480D03*
X93502404Y-83922480D03*
X94772404Y-86462480D03*
X96042404Y-83922480D03*
X97312404Y-86462480D03*
X99112404Y-82442480D03*
X81542404Y-82442480D03*
X140177596Y-112419520D03*
X139192000Y-109728000D03*
X137637596Y-112419520D03*
X136367596Y-109879520D03*
X135097596Y-112419520D03*
X133827596Y-109879520D03*
X132557596Y-112419520D03*
X131287596Y-109879520D03*
X130017596Y-112419520D03*
X128747596Y-109879520D03*
X127477596Y-112419520D03*
X126207596Y-109879520D03*
X124407596Y-113899520D03*
X141977596Y-113899520D03*
X125760404Y-83922480D03*
X126746000Y-86614000D03*
X128300404Y-83922480D03*
X129570404Y-86462480D03*
X130840404Y-83922480D03*
X132110404Y-86462480D03*
X133380404Y-83922480D03*
X134650404Y-86462480D03*
X135920404Y-83922480D03*
X137190404Y-86462480D03*
X138460404Y-83922480D03*
X139730404Y-86462480D03*
X141530404Y-82442480D03*
X123960404Y-82442480D03*
D15*
X157480000Y-150495000D03*
D16*
X157480000Y-153035000D03*
M02*
