G04 #@! TF.FileFunction,Copper,L2,Bot,Mixed*
%FSLAX46Y46*%
G04 Gerber Fmt 4.6, Leading zero omitted, Abs format (unit mm)*
G04 Created by KiCad (PCBNEW 4.0.6) date 05/11/17 15:04:23*
%MOMM*%
%LPD*%
G01*
G04 APERTURE LIST*
%ADD10C,0.100000*%
%ADD11R,1.600000X1.600000*%
%ADD12O,1.600000X1.600000*%
%ADD13C,1.524000*%
%ADD14C,1.600000*%
%ADD15R,1.700000X1.700000*%
%ADD16O,1.700000X1.700000*%
%ADD17C,1.500000*%
%ADD18C,8.600000*%
%ADD19C,0.685800*%
%ADD20C,1.778000*%
%ADD21C,1.016000*%
%ADD22C,0.254000*%
%ADD23C,0.889000*%
%ADD24C,0.508000*%
G04 APERTURE END LIST*
D10*
D11*
X126492000Y-101854000D03*
D12*
X159512000Y-94234000D03*
X129032000Y-101854000D03*
X156972000Y-94234000D03*
X131572000Y-101854000D03*
X154432000Y-94234000D03*
X134112000Y-101854000D03*
X151892000Y-94234000D03*
X136652000Y-101854000D03*
X149352000Y-94234000D03*
X139192000Y-101854000D03*
X146812000Y-94234000D03*
X141732000Y-101854000D03*
X144272000Y-94234000D03*
X144272000Y-101854000D03*
X141732000Y-94234000D03*
X146812000Y-101854000D03*
X139192000Y-94234000D03*
X149352000Y-101854000D03*
X136652000Y-94234000D03*
X151892000Y-101854000D03*
X134112000Y-94234000D03*
X154432000Y-101854000D03*
X131572000Y-94234000D03*
X156972000Y-101854000D03*
X129032000Y-94234000D03*
X159512000Y-101854000D03*
X126492000Y-94234000D03*
D13*
X130048000Y-119634000D03*
X132588000Y-119634000D03*
X135128000Y-119634000D03*
X137668000Y-119634000D03*
X140208000Y-119634000D03*
X142748000Y-119634000D03*
X145288000Y-119634000D03*
X147828000Y-119634000D03*
D11*
X168656000Y-101854000D03*
D12*
X201676000Y-94234000D03*
X171196000Y-101854000D03*
X199136000Y-94234000D03*
X173736000Y-101854000D03*
X196596000Y-94234000D03*
X176276000Y-101854000D03*
X194056000Y-94234000D03*
X178816000Y-101854000D03*
X191516000Y-94234000D03*
X181356000Y-101854000D03*
X188976000Y-94234000D03*
X183896000Y-101854000D03*
X186436000Y-94234000D03*
X186436000Y-101854000D03*
X183896000Y-94234000D03*
X188976000Y-101854000D03*
X181356000Y-94234000D03*
X191516000Y-101854000D03*
X178816000Y-94234000D03*
X194056000Y-101854000D03*
X176276000Y-94234000D03*
X196596000Y-101854000D03*
X173736000Y-94234000D03*
X199136000Y-101854000D03*
X171196000Y-94234000D03*
X201676000Y-101854000D03*
X168656000Y-94234000D03*
D13*
X182087596Y-112419520D03*
X181102000Y-109728000D03*
X179547596Y-112419520D03*
X178277596Y-109879520D03*
X177007596Y-112419520D03*
X175737596Y-109879520D03*
X174467596Y-112419520D03*
X173197596Y-109879520D03*
X171927596Y-112419520D03*
X170657596Y-109879520D03*
X169387596Y-112419520D03*
X168117596Y-109879520D03*
X166317596Y-113899520D03*
X183887596Y-113899520D03*
D11*
X84328000Y-101854000D03*
D12*
X117348000Y-94234000D03*
X86868000Y-101854000D03*
X114808000Y-94234000D03*
X89408000Y-101854000D03*
X112268000Y-94234000D03*
X91948000Y-101854000D03*
X109728000Y-94234000D03*
X94488000Y-101854000D03*
X107188000Y-94234000D03*
X97028000Y-101854000D03*
X104648000Y-94234000D03*
X99568000Y-101854000D03*
X102108000Y-94234000D03*
X102108000Y-101854000D03*
X99568000Y-94234000D03*
X104648000Y-101854000D03*
X97028000Y-94234000D03*
X107188000Y-101854000D03*
X94488000Y-94234000D03*
X109728000Y-101854000D03*
X91948000Y-94234000D03*
X112268000Y-101854000D03*
X89408000Y-94234000D03*
X114808000Y-101854000D03*
X86868000Y-94234000D03*
X117348000Y-101854000D03*
X84328000Y-94234000D03*
D13*
X98298000Y-112268000D03*
X97312404Y-109576480D03*
X95758000Y-112268000D03*
X94488000Y-109728000D03*
X93218000Y-112268000D03*
X91948000Y-109728000D03*
X90678000Y-112268000D03*
X89408000Y-109728000D03*
X88138000Y-112268000D03*
X86868000Y-109728000D03*
X85598000Y-112268000D03*
X84328000Y-109728000D03*
X82528000Y-113748000D03*
X100098000Y-113748000D03*
X169448404Y-83922480D03*
X170434000Y-86614000D03*
X171988404Y-83922480D03*
X173258404Y-86462480D03*
X174528404Y-83922480D03*
X175798404Y-86462480D03*
X177068404Y-83922480D03*
X178338404Y-86462480D03*
X179608404Y-83922480D03*
X180878404Y-86462480D03*
X182148404Y-83922480D03*
X183418404Y-86462480D03*
X185218404Y-82442480D03*
X167648404Y-82442480D03*
D14*
X121158000Y-136144000D03*
X121158000Y-141144000D03*
D15*
X132842000Y-126492000D03*
D16*
X132842000Y-129032000D03*
X132842000Y-131572000D03*
X132842000Y-134112000D03*
X132842000Y-136652000D03*
X132842000Y-139192000D03*
D15*
X157988000Y-145034000D03*
D16*
X155448000Y-145034000D03*
X157988000Y-142494000D03*
X155448000Y-142494000D03*
X157988000Y-139954000D03*
X155448000Y-139954000D03*
X157988000Y-137414000D03*
X155448000Y-137414000D03*
X157988000Y-134874000D03*
X155448000Y-134874000D03*
X157988000Y-132334000D03*
X155448000Y-132334000D03*
X157988000Y-129794000D03*
X155448000Y-129794000D03*
X157988000Y-127254000D03*
X155448000Y-127254000D03*
X157988000Y-124714000D03*
X155448000Y-124714000D03*
X157988000Y-122174000D03*
X155448000Y-122174000D03*
X157988000Y-119634000D03*
X155448000Y-119634000D03*
X157988000Y-117094000D03*
X155448000Y-117094000D03*
D14*
X103886000Y-125476000D03*
D12*
X103886000Y-112776000D03*
D14*
X115824000Y-125476000D03*
D12*
X115824000Y-112776000D03*
D14*
X109982000Y-125476000D03*
D12*
X109982000Y-112776000D03*
D15*
X150876000Y-110490000D03*
D16*
X153416000Y-110490000D03*
X155956000Y-110490000D03*
X158496000Y-110490000D03*
X161036000Y-110490000D03*
D13*
X183134000Y-138430000D03*
X185674000Y-138430000D03*
X188214000Y-138430000D03*
X190754000Y-138430000D03*
X193294000Y-138430000D03*
X195834000Y-138430000D03*
X198374000Y-138430000D03*
X200914000Y-138430000D03*
X204216000Y-129667000D03*
X204216000Y-126167000D03*
D11*
X112776000Y-137668000D03*
D12*
X79756000Y-145288000D03*
X110236000Y-137668000D03*
X82296000Y-145288000D03*
X107696000Y-137668000D03*
X84836000Y-145288000D03*
X105156000Y-137668000D03*
X87376000Y-145288000D03*
X102616000Y-137668000D03*
X89916000Y-145288000D03*
X100076000Y-137668000D03*
X92456000Y-145288000D03*
X97536000Y-137668000D03*
X94996000Y-145288000D03*
X94996000Y-137668000D03*
X97536000Y-145288000D03*
X92456000Y-137668000D03*
X100076000Y-145288000D03*
X89916000Y-137668000D03*
X102616000Y-145288000D03*
X87376000Y-137668000D03*
X105156000Y-145288000D03*
X84836000Y-137668000D03*
X107696000Y-145288000D03*
X82296000Y-137668000D03*
X110236000Y-145288000D03*
X79756000Y-137668000D03*
X112776000Y-145288000D03*
D17*
X93726000Y-132842000D03*
X88846000Y-132842000D03*
D14*
X93980000Y-122428000D03*
X93980000Y-127428000D03*
X88900000Y-122428000D03*
X88900000Y-127428000D03*
D18*
X107950000Y-86360000D03*
X78740000Y-152400000D03*
X198120000Y-152400000D03*
X198120000Y-86360000D03*
D15*
X193421000Y-144526000D03*
D16*
X190881000Y-144526000D03*
X188341000Y-144526000D03*
X185801000Y-144526000D03*
X183261000Y-144526000D03*
X180721000Y-144526000D03*
D13*
X83342404Y-83922480D03*
X84328000Y-86614000D03*
X85882404Y-83922480D03*
X87152404Y-86462480D03*
X88422404Y-83922480D03*
X89692404Y-86462480D03*
X90962404Y-83922480D03*
X92232404Y-86462480D03*
X93502404Y-83922480D03*
X94772404Y-86462480D03*
X96042404Y-83922480D03*
X97312404Y-86462480D03*
X99112404Y-82442480D03*
X81542404Y-82442480D03*
X140177596Y-112419520D03*
X139192000Y-109728000D03*
X137637596Y-112419520D03*
X136367596Y-109879520D03*
X135097596Y-112419520D03*
X133827596Y-109879520D03*
X132557596Y-112419520D03*
X131287596Y-109879520D03*
X130017596Y-112419520D03*
X128747596Y-109879520D03*
X127477596Y-112419520D03*
X126207596Y-109879520D03*
X124407596Y-113899520D03*
X141977596Y-113899520D03*
X125760404Y-83922480D03*
X126746000Y-86614000D03*
X128300404Y-83922480D03*
X129570404Y-86462480D03*
X130840404Y-83922480D03*
X132110404Y-86462480D03*
X133380404Y-83922480D03*
X134650404Y-86462480D03*
X135920404Y-83922480D03*
X137190404Y-86462480D03*
X138460404Y-83922480D03*
X139730404Y-86462480D03*
X141530404Y-82442480D03*
X123960404Y-82442480D03*
D15*
X157480000Y-150495000D03*
D16*
X157480000Y-153035000D03*
D19*
X77216000Y-110998000D03*
X133858000Y-78994000D03*
X91948000Y-78994000D03*
X123952000Y-111276519D03*
X146812000Y-112776000D03*
D20*
X165109024Y-103622967D03*
X108839000Y-98806000D03*
X75437998Y-82677000D03*
X152908000Y-150368000D03*
D19*
X146059834Y-116013918D03*
X129286000Y-81026000D03*
X81534000Y-117094000D03*
X93726000Y-116586000D03*
X100583984Y-135128000D03*
X139700000Y-115100090D03*
X127000000Y-115062000D03*
X90932000Y-115062000D03*
X132080000Y-80010000D03*
X90170000Y-80010000D03*
X78232000Y-115062000D03*
X148590000Y-114554002D03*
D20*
X145288000Y-97028000D03*
X142748000Y-123952000D03*
D19*
X194055998Y-99314000D03*
X180906599Y-99352090D03*
X113792000Y-99314000D03*
X152400000Y-99314000D03*
X162052008Y-99352090D03*
X114045998Y-125476000D03*
X177292000Y-100330000D03*
X109982000Y-104394000D03*
X108458000Y-125476000D03*
X127508000Y-117235040D03*
X117094000Y-127000000D03*
X148844000Y-108203994D03*
D21*
X155448000Y-112712490D03*
D19*
X115570000Y-141478000D03*
X104394000Y-136144000D03*
X144930119Y-127103881D03*
X137681313Y-121138030D03*
X137160000Y-122174000D03*
X112522000Y-106426000D03*
X136144000Y-122936000D03*
X135128000Y-123990100D03*
X112522000Y-107950000D03*
X149352000Y-104013000D03*
X174625000Y-127254000D03*
X166497000Y-97155000D03*
X181864000Y-129794000D03*
X166624000Y-101854000D03*
X182372000Y-131572000D03*
X164592000Y-109220000D03*
X182372000Y-132842000D03*
X163576000Y-110998000D03*
X190500000Y-111506000D03*
X187706000Y-115824000D03*
X186436000Y-119126000D03*
X178819882Y-124456118D03*
X169926004Y-104140000D03*
X145878742Y-117193904D03*
X116078000Y-130302000D03*
X96266000Y-141224000D03*
X93218000Y-151384000D03*
X149098000Y-151384000D03*
X106934000Y-142240000D03*
X148138487Y-143566487D03*
X131826000Y-143510000D03*
X147066000Y-145034000D03*
X105664000Y-143256000D03*
X131064000Y-144716490D03*
D22*
X133858000Y-79320076D02*
X133858000Y-78994000D01*
X138460404Y-83922480D02*
X133858000Y-79320076D01*
X96012000Y-83058000D02*
X91948000Y-78994000D01*
X96012000Y-83820000D02*
X96012000Y-83058000D01*
X77216000Y-110998000D02*
X83820000Y-110998000D01*
X83820000Y-110998000D02*
X120625481Y-110998000D01*
X85598000Y-112268000D02*
X84328000Y-110998000D01*
X84328000Y-110998000D02*
X83820000Y-110998000D01*
X120625481Y-110998000D02*
X120904000Y-111276519D01*
X123952000Y-111276519D02*
X120904000Y-111276519D01*
X145312519Y-111276519D02*
X123952000Y-111276519D01*
X145312519Y-111276519D02*
X146812000Y-112776000D01*
D23*
X165109024Y-106670976D02*
X165109024Y-104880202D01*
X161290000Y-110490000D02*
X165109024Y-106670976D01*
X165109024Y-104880202D02*
X165109024Y-103622967D01*
X112268000Y-95377000D02*
X108839000Y-98806000D01*
X112268000Y-94234000D02*
X112268000Y-95377000D01*
X77469997Y-80645001D02*
X75437998Y-82677000D01*
X88422404Y-83922480D02*
X85144925Y-80645001D01*
X85144925Y-80645001D02*
X77469997Y-80645001D01*
X152908000Y-144819000D02*
X152908000Y-150368000D01*
X134581000Y-126492000D02*
X152908000Y-144819000D01*
X132842000Y-126492000D02*
X134581000Y-126492000D01*
D22*
X146059834Y-116013918D02*
X145574901Y-116013918D01*
X145574901Y-116013918D02*
X145510819Y-116078000D01*
X145510819Y-116078000D02*
X136144000Y-116078000D01*
X94234000Y-116078000D02*
X136144000Y-116078000D01*
X132557596Y-112419520D02*
X136144000Y-116005924D01*
X136144000Y-116005924D02*
X136144000Y-116078000D01*
X93726000Y-116586000D02*
X94234000Y-116078000D01*
X130483924Y-81026000D02*
X129286000Y-81026000D01*
X133380404Y-83922480D02*
X130483924Y-81026000D01*
X81534000Y-117094000D02*
X93218000Y-117094000D01*
X93218000Y-117094000D02*
X93726000Y-116586000D01*
X100583984Y-123443984D02*
X93726000Y-116586000D01*
X100583984Y-135128000D02*
X100583984Y-123443984D01*
X148590000Y-114554002D02*
X145110702Y-114554002D01*
X145110702Y-114554002D02*
X144368183Y-115296521D01*
X140381364Y-115296521D02*
X140184933Y-115100090D01*
X144368183Y-115296521D02*
X140381364Y-115296521D01*
X140184933Y-115100090D02*
X139700000Y-115100090D01*
X90932000Y-115062000D02*
X127000000Y-115062000D01*
X90932000Y-115062000D02*
X83281562Y-115062000D01*
X83281562Y-115062000D02*
X82938663Y-115404899D01*
X82938663Y-115404899D02*
X78574899Y-115404899D01*
X78574899Y-115404899D02*
X78232000Y-115062000D01*
X135920404Y-83922480D02*
X132080000Y-80082076D01*
X132080000Y-80082076D02*
X132080000Y-80010000D01*
X93502404Y-83922480D02*
X90170000Y-80590076D01*
X90170000Y-80590076D02*
X90170000Y-80010000D01*
D23*
X149098000Y-97028000D02*
X145288000Y-97028000D01*
X151892000Y-94234000D02*
X149098000Y-97028000D01*
X140208000Y-119634000D02*
X140208000Y-121412000D01*
X140208000Y-121412000D02*
X142748000Y-123952000D01*
D22*
X195795999Y-101054001D02*
X194055998Y-99314000D01*
X196596000Y-101854000D02*
X195795999Y-101054001D01*
X180906599Y-99352090D02*
X162052008Y-99352090D01*
X152400000Y-99314000D02*
X113792000Y-99314000D01*
X114045998Y-144018002D02*
X114045998Y-125476000D01*
X112776000Y-145288000D02*
X114045998Y-144018002D01*
X115824000Y-125476000D02*
X114045998Y-125476000D01*
X177292000Y-100330000D02*
X155448000Y-100330000D01*
X155448000Y-100330000D02*
X113284000Y-100330000D01*
X156972000Y-101854000D02*
X155448000Y-100330000D01*
X113284000Y-100330000D02*
X111252000Y-100330000D01*
X114808000Y-101854000D02*
X113284000Y-100330000D01*
X111252000Y-100330000D02*
X110998000Y-100584000D01*
X110998000Y-100584000D02*
X110998000Y-102362000D01*
X108458000Y-125476000D02*
X108458000Y-125984000D01*
X108712000Y-143764000D02*
X110236000Y-145288000D01*
X108712000Y-139190330D02*
X108712000Y-143764000D01*
X108966000Y-138936330D02*
X108712000Y-139190330D01*
X108966000Y-126492000D02*
X108966000Y-138936330D01*
X108458000Y-125984000D02*
X108966000Y-126492000D01*
X108458000Y-125476000D02*
X109982000Y-125476000D01*
X109982000Y-103378000D02*
X110998000Y-102362000D01*
X109982000Y-104394000D02*
X109982000Y-103378000D01*
X127508000Y-117235040D02*
X117743040Y-127000000D01*
X117743040Y-127000000D02*
X117094000Y-127000000D01*
X156210000Y-108204000D02*
X156210000Y-108203994D01*
X156210000Y-108203994D02*
X148844000Y-108203994D01*
X158496000Y-110490000D02*
X156210000Y-108204000D01*
D24*
X190754000Y-138430000D02*
X188976000Y-136652000D01*
X155892490Y-112712490D02*
X155448000Y-112712490D01*
X188976000Y-136652000D02*
X179832000Y-136652000D01*
X179832000Y-136652000D02*
X155892490Y-112712490D01*
D22*
X155707782Y-110490000D02*
X148024283Y-118173499D01*
X148024283Y-118173499D02*
X129302107Y-118173499D01*
X129302107Y-118173499D02*
X117728999Y-129746607D01*
X117728999Y-129746607D02*
X117728999Y-139319001D01*
X117728999Y-139319001D02*
X115570000Y-141478000D01*
D23*
X156210000Y-110490000D02*
X155707782Y-110490000D01*
D24*
X192278000Y-134874000D02*
X195834000Y-138430000D01*
X180594000Y-134874000D02*
X192278000Y-134874000D01*
X156210000Y-110490000D02*
X180594000Y-134874000D01*
D22*
X137668000Y-119634000D02*
X137195562Y-119634000D01*
X137195562Y-119634000D02*
X133893562Y-122936000D01*
X133604000Y-122936000D02*
X130556000Y-125984000D01*
X133893562Y-122936000D02*
X133604000Y-122936000D01*
X130556000Y-125984000D02*
X130556000Y-139192000D01*
X79756000Y-146304000D02*
X79756000Y-145288000D01*
X130556000Y-139192000D02*
X119888000Y-149860000D01*
X119888000Y-149860000D02*
X83312000Y-149860000D01*
X83312000Y-149860000D02*
X79756000Y-146304000D01*
X129793989Y-124968011D02*
X129793989Y-138430011D01*
X135128000Y-119634000D02*
X129793989Y-124968011D01*
X119380011Y-148843989D02*
X85851989Y-148843989D01*
X85851989Y-148843989D02*
X82296000Y-145288000D01*
X129793989Y-138430011D02*
X119380011Y-148843989D01*
X87629978Y-148081978D02*
X84836000Y-145288000D01*
X128778000Y-137922000D02*
X118618022Y-148081978D01*
X128778000Y-123444000D02*
X128778000Y-137922000D01*
X118618022Y-148081978D02*
X87629978Y-148081978D01*
X132588000Y-119634000D02*
X128778000Y-123444000D01*
X125984000Y-139192000D02*
X117856033Y-147319967D01*
X89407967Y-147319967D02*
X87376000Y-145288000D01*
X117856033Y-147319967D02*
X89407967Y-147319967D01*
X130048000Y-119634000D02*
X125984000Y-123698000D01*
X125984000Y-123698000D02*
X125984000Y-139192000D01*
X79756000Y-138176000D02*
X81788000Y-136144000D01*
X81788000Y-136144000D02*
X104394000Y-136144000D01*
X155448000Y-127254000D02*
X145080238Y-127254000D01*
X145080238Y-127254000D02*
X144930119Y-127103881D01*
X147828000Y-119634000D02*
X155448000Y-119634000D01*
X157988000Y-137414000D02*
X156718000Y-136144000D01*
X152687283Y-136144000D02*
X137681313Y-121138030D01*
X156718000Y-136144000D02*
X152687283Y-136144000D01*
X153670000Y-138684000D02*
X137160000Y-122174000D01*
X156718000Y-138684000D02*
X153670000Y-138684000D01*
X157988000Y-139954000D02*
X156718000Y-138684000D01*
X112522000Y-106426000D02*
X106680000Y-106426000D01*
X154432000Y-141224000D02*
X136144000Y-122936000D01*
X156718000Y-141224000D02*
X154432000Y-141224000D01*
X157988000Y-142494000D02*
X156718000Y-141224000D01*
X102108000Y-101854000D02*
X106680000Y-106426000D01*
X135636000Y-124460000D02*
X135597900Y-124460000D01*
X135597900Y-124460000D02*
X135128000Y-123990100D01*
X154940000Y-143764000D02*
X135636000Y-124460000D01*
X96520000Y-96774000D02*
X100838000Y-101092000D01*
X86868000Y-96774000D02*
X96520000Y-96774000D01*
X84328000Y-94234000D02*
X86868000Y-96774000D01*
X100838000Y-101092000D02*
X100838000Y-106680000D01*
X102108000Y-107950000D02*
X100838000Y-106680000D01*
X157988000Y-145034000D02*
X157988000Y-144031600D01*
X157988000Y-144031600D02*
X157720400Y-143764000D01*
X157720400Y-143764000D02*
X154940000Y-143764000D01*
X112522000Y-107950000D02*
X102108000Y-107950000D01*
X153840882Y-104013000D02*
X149836933Y-104013000D01*
X159727001Y-109899119D02*
X153840882Y-104013000D01*
X149836933Y-104013000D02*
X149352000Y-104013000D01*
X174625000Y-127254000D02*
X159727001Y-112356001D01*
X159727001Y-112356001D02*
X159727001Y-109899119D01*
X166633034Y-102347967D02*
X166633034Y-111769034D01*
X167894000Y-115824000D02*
X181864000Y-129794000D01*
X166624000Y-101854000D02*
X166624000Y-102338933D01*
X166624000Y-102338933D02*
X166633034Y-102347967D01*
X166633034Y-111769034D02*
X167894000Y-113030000D01*
X167894000Y-113030000D02*
X167894000Y-115824000D01*
X149606000Y-91440000D02*
X146812000Y-94234000D01*
X149606000Y-91440000D02*
X160782000Y-91440000D01*
X160782000Y-91440000D02*
X166497000Y-97155000D01*
X182372000Y-131572000D02*
X181610000Y-131572000D01*
X181610000Y-131572000D02*
X164592000Y-114554000D01*
X164592000Y-114554000D02*
X164592000Y-109220000D01*
X182372000Y-132842000D02*
X181610000Y-132842000D01*
X181610000Y-132842000D02*
X163576000Y-114808000D01*
X163576000Y-114808000D02*
X163576000Y-110998000D01*
X191516000Y-94234000D02*
X190246000Y-95504000D01*
X190246000Y-95504000D02*
X190246000Y-111252000D01*
X190246000Y-111252000D02*
X190500000Y-111506000D01*
X187706000Y-95504000D02*
X187706000Y-115824000D01*
X188976000Y-94234000D02*
X187706000Y-95504000D01*
X186436000Y-101854000D02*
X186436000Y-119126000D01*
X170688000Y-116324236D02*
X178819882Y-124456118D01*
X169418000Y-110490000D02*
X170688000Y-111760000D01*
X169418000Y-104648004D02*
X169418000Y-110490000D01*
X169926004Y-104140000D02*
X169418000Y-104648004D01*
X170688000Y-111760000D02*
X170688000Y-116324236D01*
X145820314Y-117252332D02*
X145878742Y-117193904D01*
X116078000Y-130302000D02*
X129127668Y-117252332D01*
X129127668Y-117252332D02*
X145820314Y-117252332D01*
X96266000Y-144018000D02*
X96266000Y-141224000D01*
X94996000Y-145288000D02*
X96266000Y-144018000D01*
X149098000Y-151384000D02*
X148755101Y-151726899D01*
X148755101Y-151726899D02*
X93560899Y-151726899D01*
X93560899Y-151726899D02*
X93218000Y-151384000D01*
X105156000Y-140462000D02*
X106934000Y-142240000D01*
X105156000Y-137668000D02*
X105156000Y-140462000D01*
X148082000Y-143510000D02*
X148138487Y-143566487D01*
X131826000Y-143510000D02*
X148082000Y-143510000D01*
X102616000Y-137668000D02*
X102616000Y-140208000D01*
X147066000Y-145034000D02*
X131381510Y-145034000D01*
X131381510Y-145034000D02*
X131064000Y-144716490D01*
X102616000Y-140208000D02*
X105664000Y-143256000D01*
X94488000Y-109728000D02*
X94488000Y-101854000D01*
X97028000Y-101854000D02*
X97028000Y-109292076D01*
X97028000Y-109292076D02*
X97312404Y-109576480D01*
X87152404Y-86462480D02*
X87152404Y-89438404D01*
X87152404Y-89438404D02*
X91948000Y-94234000D01*
X84328000Y-86614000D02*
X84328000Y-89154000D01*
X84328000Y-89154000D02*
X89408000Y-94234000D01*
X136652000Y-101854000D02*
X136652000Y-109595116D01*
X136652000Y-109595116D02*
X136367596Y-109879520D01*
X139192000Y-101854000D02*
X139192000Y-109728000D01*
X134366000Y-94234000D02*
X129540000Y-89408000D01*
X129570404Y-89377596D02*
X129540000Y-89408000D01*
X129570404Y-86462480D02*
X129570404Y-89377596D01*
X126746000Y-86614000D02*
X126746000Y-89154000D01*
X126746000Y-89154000D02*
X131826000Y-94234000D01*
X179547596Y-112419520D02*
X180188480Y-112419520D01*
X180188480Y-112419520D02*
X183896000Y-108712000D01*
X183896000Y-108712000D02*
X183896000Y-101854000D01*
X178277596Y-109879520D02*
X178277596Y-102392404D01*
X178277596Y-102392404D02*
X178816000Y-101854000D01*
X181356000Y-101854000D02*
X181356000Y-109474000D01*
X181356000Y-109474000D02*
X181102000Y-109728000D01*
X173228000Y-86614000D02*
X173228000Y-91186000D01*
X173228000Y-91186000D02*
X176276000Y-94234000D01*
X170434000Y-86614000D02*
X170434000Y-90932000D01*
X170434000Y-90932000D02*
X173736000Y-94234000D01*
X84328000Y-109728000D02*
X84328000Y-101854000D01*
X86868000Y-101854000D02*
X86868000Y-109728000D01*
X89408000Y-109728000D02*
X89408000Y-101854000D01*
X91948000Y-101854000D02*
X91948000Y-109728000D01*
X97312404Y-86462480D02*
X97312404Y-89438404D01*
X97312404Y-89438404D02*
X102108000Y-94234000D01*
X94772404Y-86462480D02*
X94772404Y-89438404D01*
X94772404Y-89438404D02*
X99568000Y-94234000D01*
X92232404Y-86462480D02*
X92232404Y-89438404D01*
X92232404Y-89438404D02*
X97028000Y-94234000D01*
X94488000Y-94234000D02*
X94488000Y-93726000D01*
X94488000Y-93726000D02*
X89662000Y-88900000D01*
X89662000Y-88900000D02*
X89662000Y-86492884D01*
X126492000Y-101854000D02*
X126492000Y-109595116D01*
X126492000Y-109595116D02*
X126207596Y-109879520D01*
X128747596Y-109879520D02*
X128747596Y-102138404D01*
X128747596Y-102138404D02*
X129032000Y-101854000D01*
X131572000Y-101854000D02*
X131572000Y-109595116D01*
X131572000Y-109595116D02*
X131287596Y-109879520D01*
X133827596Y-109879520D02*
X133827596Y-102138404D01*
X133827596Y-102138404D02*
X134112000Y-101854000D01*
X144526000Y-94234000D02*
X139700000Y-89408000D01*
X139730404Y-89377596D02*
X139700000Y-89408000D01*
X139730404Y-86462480D02*
X139730404Y-89377596D01*
X141986000Y-94234000D02*
X137160000Y-89408000D01*
X137190404Y-87540110D02*
X137160000Y-87570514D01*
X137190404Y-86462480D02*
X137190404Y-87540110D01*
X137160000Y-87570514D02*
X137160000Y-89408000D01*
X139446000Y-94234000D02*
X134620000Y-89408000D01*
X134650404Y-89377596D02*
X134620000Y-89408000D01*
X134650404Y-86462480D02*
X134650404Y-89377596D01*
X132110404Y-89631596D02*
X132080000Y-89662000D01*
X132110404Y-86462480D02*
X132110404Y-89631596D01*
X132080000Y-89662000D02*
X136652000Y-94234000D01*
X168117596Y-109879520D02*
X168117596Y-104424404D01*
X168117596Y-104424404D02*
X168656000Y-103886000D01*
X168656000Y-103886000D02*
X168656000Y-101854000D01*
X171196000Y-109341116D02*
X170657596Y-109879520D01*
X171196000Y-101854000D02*
X171196000Y-109341116D01*
X173197596Y-109879520D02*
X173197596Y-102392404D01*
X173197596Y-102392404D02*
X173736000Y-101854000D01*
X176276000Y-101854000D02*
X176276000Y-109341116D01*
X176276000Y-109341116D02*
X175737596Y-109879520D01*
X183388000Y-86614000D02*
X183388000Y-91186000D01*
X183388000Y-91186000D02*
X186436000Y-94234000D01*
X180848000Y-86614000D02*
X180848000Y-91186000D01*
X180848000Y-91186000D02*
X183896000Y-94234000D01*
X178308000Y-86614000D02*
X178308000Y-91186000D01*
X178308000Y-91186000D02*
X181356000Y-94234000D01*
X175768000Y-86614000D02*
X175768000Y-91186000D01*
X175768000Y-91186000D02*
X178816000Y-94234000D01*
G36*
X133029460Y-78439341D02*
X132880270Y-78798630D01*
X132879931Y-79187663D01*
X133028493Y-79547212D01*
X133277801Y-79796955D01*
X133319185Y-79858891D01*
X135985831Y-82525537D01*
X135643743Y-82525238D01*
X135613351Y-82537796D01*
X133057924Y-79982370D01*
X133058069Y-79816337D01*
X132909507Y-79456788D01*
X132634659Y-79181460D01*
X132275370Y-79032270D01*
X131886337Y-79031931D01*
X131526788Y-79180493D01*
X131251460Y-79455341D01*
X131102270Y-79814630D01*
X131101931Y-80203663D01*
X131250493Y-80563212D01*
X131525341Y-80838540D01*
X131884630Y-80987730D01*
X131908044Y-80987750D01*
X133445830Y-82525537D01*
X133103743Y-82525238D01*
X133073351Y-82537796D01*
X131022739Y-80487185D01*
X130910694Y-80412319D01*
X130775529Y-80322004D01*
X130483924Y-80264000D01*
X129907083Y-80264000D01*
X129840659Y-80197460D01*
X129481370Y-80048270D01*
X129092337Y-80047931D01*
X128732788Y-80196493D01*
X128457460Y-80471341D01*
X128308270Y-80830630D01*
X128307931Y-81219663D01*
X128456493Y-81579212D01*
X128731341Y-81854540D01*
X129090630Y-82003730D01*
X129479663Y-82004069D01*
X129839212Y-81855507D01*
X129906837Y-81788000D01*
X130168294Y-81788000D01*
X130905830Y-82525537D01*
X130563743Y-82525238D01*
X130050101Y-82737470D01*
X129656775Y-83130110D01*
X129570455Y-83337992D01*
X129485414Y-83132177D01*
X129092774Y-82738851D01*
X128579504Y-82525723D01*
X128023743Y-82525238D01*
X127510101Y-82737470D01*
X127116775Y-83130110D01*
X127030455Y-83337992D01*
X126945414Y-83132177D01*
X126552774Y-82738851D01*
X126039504Y-82525723D01*
X125483743Y-82525238D01*
X125357287Y-82577489D01*
X125357646Y-82165819D01*
X125145414Y-81652177D01*
X124752774Y-81258851D01*
X124239504Y-81045723D01*
X123683743Y-81045238D01*
X123170101Y-81257470D01*
X122776775Y-81650110D01*
X122563647Y-82163380D01*
X122563162Y-82719141D01*
X122775394Y-83232783D01*
X123168034Y-83626109D01*
X123681304Y-83839237D01*
X124237065Y-83839722D01*
X124363521Y-83787471D01*
X124363162Y-84199141D01*
X124575394Y-84712783D01*
X124968034Y-85106109D01*
X125481304Y-85319237D01*
X126037065Y-85319722D01*
X126550707Y-85107490D01*
X126944033Y-84714850D01*
X127030353Y-84506968D01*
X127115394Y-84712783D01*
X127508034Y-85106109D01*
X128021304Y-85319237D01*
X128577065Y-85319722D01*
X129090707Y-85107490D01*
X129484033Y-84714850D01*
X129570353Y-84506968D01*
X129655394Y-84712783D01*
X130048034Y-85106109D01*
X130561304Y-85319237D01*
X131117065Y-85319722D01*
X131630707Y-85107490D01*
X132024033Y-84714850D01*
X132110353Y-84506968D01*
X132195394Y-84712783D01*
X132588034Y-85106109D01*
X133101304Y-85319237D01*
X133657065Y-85319722D01*
X134170707Y-85107490D01*
X134564033Y-84714850D01*
X134650353Y-84506968D01*
X134735394Y-84712783D01*
X135128034Y-85106109D01*
X135641304Y-85319237D01*
X136197065Y-85319722D01*
X136710707Y-85107490D01*
X137104033Y-84714850D01*
X137190353Y-84506968D01*
X137275394Y-84712783D01*
X137668034Y-85106109D01*
X138181304Y-85319237D01*
X138737065Y-85319722D01*
X139250707Y-85107490D01*
X139644033Y-84714850D01*
X139857161Y-84201580D01*
X139857646Y-83645819D01*
X139645414Y-83132177D01*
X139252774Y-82738851D01*
X139205307Y-82719141D01*
X140133162Y-82719141D01*
X140345394Y-83232783D01*
X140738034Y-83626109D01*
X141251304Y-83839237D01*
X141807065Y-83839722D01*
X142320707Y-83627490D01*
X142714033Y-83234850D01*
X142927161Y-82721580D01*
X142927163Y-82719141D01*
X166251162Y-82719141D01*
X166463394Y-83232783D01*
X166856034Y-83626109D01*
X167369304Y-83839237D01*
X167925065Y-83839722D01*
X168051521Y-83787471D01*
X168051162Y-84199141D01*
X168263394Y-84712783D01*
X168656034Y-85106109D01*
X169169304Y-85319237D01*
X169725065Y-85319722D01*
X170238707Y-85107490D01*
X170632033Y-84714850D01*
X170718353Y-84506968D01*
X170803394Y-84712783D01*
X171196034Y-85106109D01*
X171709304Y-85319237D01*
X172265065Y-85319722D01*
X172778707Y-85107490D01*
X173172033Y-84714850D01*
X173258353Y-84506968D01*
X173343394Y-84712783D01*
X173736034Y-85106109D01*
X174249304Y-85319237D01*
X174805065Y-85319722D01*
X175318707Y-85107490D01*
X175712033Y-84714850D01*
X175798353Y-84506968D01*
X175883394Y-84712783D01*
X176276034Y-85106109D01*
X176789304Y-85319237D01*
X177345065Y-85319722D01*
X177858707Y-85107490D01*
X178252033Y-84714850D01*
X178338353Y-84506968D01*
X178423394Y-84712783D01*
X178816034Y-85106109D01*
X179329304Y-85319237D01*
X179885065Y-85319722D01*
X180398707Y-85107490D01*
X180792033Y-84714850D01*
X180878353Y-84506968D01*
X180963394Y-84712783D01*
X181356034Y-85106109D01*
X181869304Y-85319237D01*
X182425065Y-85319722D01*
X182938707Y-85107490D01*
X183332033Y-84714850D01*
X183545161Y-84201580D01*
X183545646Y-83645819D01*
X183333414Y-83132177D01*
X182940774Y-82738851D01*
X182893307Y-82719141D01*
X183821162Y-82719141D01*
X184033394Y-83232783D01*
X184426034Y-83626109D01*
X184939304Y-83839237D01*
X185495065Y-83839722D01*
X186008707Y-83627490D01*
X186402033Y-83234850D01*
X186615161Y-82721580D01*
X186615646Y-82165819D01*
X186403414Y-81652177D01*
X186010774Y-81258851D01*
X185497504Y-81045723D01*
X184941743Y-81045238D01*
X184428101Y-81257470D01*
X184034775Y-81650110D01*
X183821647Y-82163380D01*
X183821162Y-82719141D01*
X182893307Y-82719141D01*
X182427504Y-82525723D01*
X181871743Y-82525238D01*
X181358101Y-82737470D01*
X180964775Y-83130110D01*
X180878455Y-83337992D01*
X180793414Y-83132177D01*
X180400774Y-82738851D01*
X179887504Y-82525723D01*
X179331743Y-82525238D01*
X178818101Y-82737470D01*
X178424775Y-83130110D01*
X178338455Y-83337992D01*
X178253414Y-83132177D01*
X177860774Y-82738851D01*
X177347504Y-82525723D01*
X176791743Y-82525238D01*
X176278101Y-82737470D01*
X175884775Y-83130110D01*
X175798455Y-83337992D01*
X175713414Y-83132177D01*
X175320774Y-82738851D01*
X174807504Y-82525723D01*
X174251743Y-82525238D01*
X173738101Y-82737470D01*
X173344775Y-83130110D01*
X173258455Y-83337992D01*
X173173414Y-83132177D01*
X172780774Y-82738851D01*
X172267504Y-82525723D01*
X171711743Y-82525238D01*
X171198101Y-82737470D01*
X170804775Y-83130110D01*
X170718455Y-83337992D01*
X170633414Y-83132177D01*
X170240774Y-82738851D01*
X169727504Y-82525723D01*
X169171743Y-82525238D01*
X169045287Y-82577489D01*
X169045646Y-82165819D01*
X168833414Y-81652177D01*
X168440774Y-81258851D01*
X167927504Y-81045723D01*
X167371743Y-81045238D01*
X166858101Y-81257470D01*
X166464775Y-81650110D01*
X166251647Y-82163380D01*
X166251162Y-82719141D01*
X142927163Y-82719141D01*
X142927646Y-82165819D01*
X142715414Y-81652177D01*
X142322774Y-81258851D01*
X141809504Y-81045723D01*
X141253743Y-81045238D01*
X140740101Y-81257470D01*
X140346775Y-81650110D01*
X140133647Y-82163380D01*
X140133162Y-82719141D01*
X139205307Y-82719141D01*
X138739504Y-82525723D01*
X138183743Y-82525238D01*
X138153350Y-82537796D01*
X134826691Y-79211137D01*
X134835730Y-79189370D01*
X134836069Y-78800337D01*
X134687507Y-78440788D01*
X134427174Y-78180000D01*
X205670069Y-78180000D01*
X206920995Y-78428824D01*
X207922196Y-79097804D01*
X208591175Y-80099005D01*
X208840000Y-81349931D01*
X208840000Y-154870069D01*
X208591175Y-156120995D01*
X207922196Y-157122196D01*
X206920995Y-157791176D01*
X205670069Y-158040000D01*
X104833582Y-158040000D01*
X76754955Y-157883858D01*
X76289005Y-157791175D01*
X75287804Y-157122196D01*
X74618824Y-156120995D01*
X74370000Y-154870069D01*
X74370000Y-154746798D01*
X74553871Y-155191801D01*
X75940897Y-156581250D01*
X77754061Y-157334141D01*
X79717325Y-157335854D01*
X81531801Y-156586129D01*
X82921250Y-155199103D01*
X83674141Y-153385939D01*
X83675854Y-151422675D01*
X83345022Y-150622000D01*
X92597163Y-150622000D01*
X92389460Y-150829341D01*
X92240270Y-151188630D01*
X92239931Y-151577663D01*
X92388493Y-151937212D01*
X92663341Y-152212540D01*
X93022630Y-152361730D01*
X93165968Y-152361855D01*
X93166289Y-152362069D01*
X93269294Y-152430895D01*
X93560899Y-152488899D01*
X148755101Y-152488899D01*
X149046706Y-152430895D01*
X149149896Y-152361945D01*
X149291663Y-152362069D01*
X149651212Y-152213507D01*
X149926540Y-151938659D01*
X150075730Y-151579370D01*
X150076069Y-151190337D01*
X149927507Y-150830788D01*
X149652659Y-150555460D01*
X149293370Y-150406270D01*
X148904337Y-150405931D01*
X148544788Y-150554493D01*
X148269460Y-150829341D01*
X148213171Y-150964899D01*
X94102920Y-150964899D01*
X94047507Y-150830788D01*
X93839083Y-150622000D01*
X119888000Y-150622000D01*
X120179605Y-150563996D01*
X120426815Y-150398815D01*
X125915477Y-144910153D01*
X130085931Y-144910153D01*
X130234493Y-145269702D01*
X130509341Y-145545030D01*
X130868630Y-145694220D01*
X131024593Y-145694356D01*
X131089905Y-145737996D01*
X131381510Y-145796000D01*
X146444917Y-145796000D01*
X146511341Y-145862540D01*
X146870630Y-146011730D01*
X147259663Y-146012069D01*
X147619212Y-145863507D01*
X147894540Y-145588659D01*
X148043730Y-145229370D01*
X148044069Y-144840337D01*
X147917283Y-144533490D01*
X147943117Y-144544217D01*
X148332150Y-144544556D01*
X148691699Y-144395994D01*
X148967027Y-144121146D01*
X149116217Y-143761857D01*
X149116556Y-143372824D01*
X148967994Y-143013275D01*
X148693146Y-142737947D01*
X148333857Y-142588757D01*
X147944824Y-142588418D01*
X147585275Y-142736980D01*
X147574236Y-142748000D01*
X132447083Y-142748000D01*
X132380659Y-142681460D01*
X132021370Y-142532270D01*
X131632337Y-142531931D01*
X131272788Y-142680493D01*
X130997460Y-142955341D01*
X130848270Y-143314630D01*
X130847931Y-143703663D01*
X130863466Y-143741260D01*
X130510788Y-143886983D01*
X130235460Y-144161831D01*
X130086270Y-144521120D01*
X130085931Y-144910153D01*
X125915477Y-144910153D01*
X131094815Y-139730816D01*
X131259996Y-139483605D01*
X131279014Y-139387996D01*
X131318000Y-139192000D01*
X131318000Y-134112000D01*
X131327907Y-134112000D01*
X131440946Y-134680285D01*
X131762853Y-135162054D01*
X132092026Y-135382000D01*
X131762853Y-135601946D01*
X131440946Y-136083715D01*
X131327907Y-136652000D01*
X131440946Y-137220285D01*
X131762853Y-137702054D01*
X132092026Y-137922000D01*
X131762853Y-138141946D01*
X131440946Y-138623715D01*
X131327907Y-139192000D01*
X131440946Y-139760285D01*
X131762853Y-140242054D01*
X132244622Y-140563961D01*
X132812907Y-140677000D01*
X132871093Y-140677000D01*
X133439378Y-140563961D01*
X133921147Y-140242054D01*
X134243054Y-139760285D01*
X134356093Y-139192000D01*
X134243054Y-138623715D01*
X133921147Y-138141946D01*
X133591974Y-137922000D01*
X133921147Y-137702054D01*
X134243054Y-137220285D01*
X134356093Y-136652000D01*
X134243054Y-136083715D01*
X133921147Y-135601946D01*
X133591974Y-135382000D01*
X133921147Y-135162054D01*
X134243054Y-134680285D01*
X134356093Y-134112000D01*
X134243054Y-133543715D01*
X133921147Y-133061946D01*
X133576094Y-132831390D01*
X133870694Y-132643020D01*
X134202251Y-132167829D01*
X134225133Y-132112524D01*
X134129685Y-131889500D01*
X133159500Y-131889500D01*
X133159500Y-131909500D01*
X132524500Y-131909500D01*
X132524500Y-131889500D01*
X131554315Y-131889500D01*
X131458867Y-132112524D01*
X131481749Y-132167829D01*
X131813306Y-132643020D01*
X132107906Y-132831390D01*
X131762853Y-133061946D01*
X131440946Y-133543715D01*
X131327907Y-134112000D01*
X131318000Y-134112000D01*
X131318000Y-126299630D01*
X131344560Y-126273070D01*
X131344560Y-127342000D01*
X131388838Y-127577317D01*
X131527910Y-127793441D01*
X131740110Y-127938431D01*
X131807541Y-127952086D01*
X131762853Y-127981946D01*
X131440946Y-128463715D01*
X131327907Y-129032000D01*
X131440946Y-129600285D01*
X131762853Y-130082054D01*
X132107906Y-130312610D01*
X131813306Y-130500980D01*
X131481749Y-130976171D01*
X131458867Y-131031476D01*
X131554315Y-131254500D01*
X132524500Y-131254500D01*
X132524500Y-131234500D01*
X133159500Y-131234500D01*
X133159500Y-131254500D01*
X134129685Y-131254500D01*
X134225133Y-131031476D01*
X134202251Y-130976171D01*
X133870694Y-130500980D01*
X133576094Y-130312610D01*
X133921147Y-130082054D01*
X134243054Y-129600285D01*
X134356093Y-129032000D01*
X134243054Y-128463715D01*
X133921147Y-127981946D01*
X133879548Y-127954150D01*
X133927317Y-127945162D01*
X134143441Y-127806090D01*
X134234775Y-127672419D01*
X151828500Y-145266144D01*
X151828500Y-149292234D01*
X151616769Y-149503596D01*
X151384265Y-150063528D01*
X151383736Y-150669812D01*
X151615262Y-151230149D01*
X152043596Y-151659231D01*
X152603528Y-151891735D01*
X153209812Y-151892264D01*
X153770149Y-151660738D01*
X154199231Y-151232404D01*
X154307671Y-150971250D01*
X155995000Y-150971250D01*
X155995000Y-151471309D01*
X156091673Y-151704698D01*
X156270301Y-151883327D01*
X156435858Y-151951903D01*
X156429946Y-151955853D01*
X156108039Y-152437622D01*
X155995000Y-153005907D01*
X155995000Y-153064093D01*
X156108039Y-153632378D01*
X156429946Y-154114147D01*
X156911715Y-154436054D01*
X157480000Y-154549093D01*
X158048285Y-154436054D01*
X158530054Y-154114147D01*
X158851961Y-153632378D01*
X158902694Y-153377325D01*
X193184146Y-153377325D01*
X193933871Y-155191801D01*
X195320897Y-156581250D01*
X197134061Y-157334141D01*
X199097325Y-157335854D01*
X200911801Y-156586129D01*
X202301250Y-155199103D01*
X203054141Y-153385939D01*
X203055854Y-151422675D01*
X202306129Y-149608199D01*
X200919103Y-148218750D01*
X199105939Y-147465859D01*
X197142675Y-147464146D01*
X195328199Y-148213871D01*
X193938750Y-149600897D01*
X193185859Y-151414061D01*
X193184146Y-153377325D01*
X158902694Y-153377325D01*
X158965000Y-153064093D01*
X158965000Y-153005907D01*
X158851961Y-152437622D01*
X158530054Y-151955853D01*
X158524142Y-151951903D01*
X158689699Y-151883327D01*
X158868327Y-151704698D01*
X158965000Y-151471309D01*
X158965000Y-150971250D01*
X158806250Y-150812500D01*
X157797500Y-150812500D01*
X157797500Y-150832500D01*
X157162500Y-150832500D01*
X157162500Y-150812500D01*
X156153750Y-150812500D01*
X155995000Y-150971250D01*
X154307671Y-150971250D01*
X154431735Y-150672472D01*
X154432264Y-150066188D01*
X154206044Y-149518691D01*
X155995000Y-149518691D01*
X155995000Y-150018750D01*
X156153750Y-150177500D01*
X157162500Y-150177500D01*
X157162500Y-149168750D01*
X157797500Y-149168750D01*
X157797500Y-150177500D01*
X158806250Y-150177500D01*
X158965000Y-150018750D01*
X158965000Y-149518691D01*
X158868327Y-149285302D01*
X158689699Y-149106673D01*
X158456310Y-149010000D01*
X157956250Y-149010000D01*
X157797500Y-149168750D01*
X157162500Y-149168750D01*
X157003750Y-149010000D01*
X156503690Y-149010000D01*
X156270301Y-149106673D01*
X156091673Y-149285302D01*
X155995000Y-149518691D01*
X154206044Y-149518691D01*
X154200738Y-149505851D01*
X153987500Y-149292241D01*
X153987500Y-145303430D01*
X154046946Y-145602285D01*
X154368853Y-146084054D01*
X154850622Y-146405961D01*
X155418907Y-146519000D01*
X155477093Y-146519000D01*
X156045378Y-146405961D01*
X156527147Y-146084054D01*
X156527971Y-146082821D01*
X156534838Y-146119317D01*
X156673910Y-146335441D01*
X156886110Y-146480431D01*
X157138000Y-146531440D01*
X158838000Y-146531440D01*
X159073317Y-146487162D01*
X159289441Y-146348090D01*
X159434431Y-146135890D01*
X159485440Y-145884000D01*
X159485440Y-144496907D01*
X179236000Y-144496907D01*
X179236000Y-144555093D01*
X179349039Y-145123378D01*
X179670946Y-145605147D01*
X180152715Y-145927054D01*
X180721000Y-146040093D01*
X181289285Y-145927054D01*
X181771054Y-145605147D01*
X181991000Y-145275974D01*
X182210946Y-145605147D01*
X182692715Y-145927054D01*
X183261000Y-146040093D01*
X183829285Y-145927054D01*
X184311054Y-145605147D01*
X184531000Y-145275974D01*
X184750946Y-145605147D01*
X185232715Y-145927054D01*
X185801000Y-146040093D01*
X186369285Y-145927054D01*
X186851054Y-145605147D01*
X187071000Y-145275974D01*
X187290946Y-145605147D01*
X187772715Y-145927054D01*
X188341000Y-146040093D01*
X188909285Y-145927054D01*
X189391054Y-145605147D01*
X189611000Y-145275974D01*
X189830946Y-145605147D01*
X190312715Y-145927054D01*
X190881000Y-146040093D01*
X191449285Y-145927054D01*
X191931054Y-145605147D01*
X191960403Y-145561223D01*
X192032673Y-145735698D01*
X192211301Y-145914327D01*
X192444690Y-146011000D01*
X192944750Y-146011000D01*
X193103500Y-145852250D01*
X193103500Y-144843500D01*
X193738500Y-144843500D01*
X193738500Y-145852250D01*
X193897250Y-146011000D01*
X194397310Y-146011000D01*
X194630699Y-145914327D01*
X194809327Y-145735698D01*
X194906000Y-145502309D01*
X194906000Y-145002250D01*
X194747250Y-144843500D01*
X193738500Y-144843500D01*
X193103500Y-144843500D01*
X193083500Y-144843500D01*
X193083500Y-144208500D01*
X193103500Y-144208500D01*
X193103500Y-143199750D01*
X193738500Y-143199750D01*
X193738500Y-144208500D01*
X194747250Y-144208500D01*
X194906000Y-144049750D01*
X194906000Y-143549691D01*
X194809327Y-143316302D01*
X194630699Y-143137673D01*
X194397310Y-143041000D01*
X193897250Y-143041000D01*
X193738500Y-143199750D01*
X193103500Y-143199750D01*
X192944750Y-143041000D01*
X192444690Y-143041000D01*
X192211301Y-143137673D01*
X192032673Y-143316302D01*
X191960403Y-143490777D01*
X191931054Y-143446853D01*
X191449285Y-143124946D01*
X190881000Y-143011907D01*
X190312715Y-143124946D01*
X189830946Y-143446853D01*
X189611000Y-143776026D01*
X189391054Y-143446853D01*
X188909285Y-143124946D01*
X188341000Y-143011907D01*
X187772715Y-143124946D01*
X187290946Y-143446853D01*
X187071000Y-143776026D01*
X186851054Y-143446853D01*
X186369285Y-143124946D01*
X185801000Y-143011907D01*
X185232715Y-143124946D01*
X184750946Y-143446853D01*
X184531000Y-143776026D01*
X184311054Y-143446853D01*
X183829285Y-143124946D01*
X183261000Y-143011907D01*
X182692715Y-143124946D01*
X182210946Y-143446853D01*
X181991000Y-143776026D01*
X181771054Y-143446853D01*
X181289285Y-143124946D01*
X180721000Y-143011907D01*
X180152715Y-143124946D01*
X179670946Y-143446853D01*
X179349039Y-143928622D01*
X179236000Y-144496907D01*
X159485440Y-144496907D01*
X159485440Y-144184000D01*
X159441162Y-143948683D01*
X159302090Y-143732559D01*
X159089890Y-143587569D01*
X159022459Y-143573914D01*
X159067147Y-143544054D01*
X159389054Y-143062285D01*
X159502093Y-142494000D01*
X159389054Y-141925715D01*
X159067147Y-141443946D01*
X158737974Y-141224000D01*
X159067147Y-141004054D01*
X159389054Y-140522285D01*
X159502093Y-139954000D01*
X159389054Y-139385715D01*
X159067147Y-138903946D01*
X158737974Y-138684000D01*
X159067147Y-138464054D01*
X159389054Y-137982285D01*
X159502093Y-137414000D01*
X159389054Y-136845715D01*
X159067147Y-136363946D01*
X158737974Y-136144000D01*
X159067147Y-135924054D01*
X159389054Y-135442285D01*
X159502093Y-134874000D01*
X159389054Y-134305715D01*
X159067147Y-133823946D01*
X158737974Y-133604000D01*
X159067147Y-133384054D01*
X159389054Y-132902285D01*
X159502093Y-132334000D01*
X159389054Y-131765715D01*
X159067147Y-131283946D01*
X158737974Y-131064000D01*
X159067147Y-130844054D01*
X159389054Y-130362285D01*
X159502093Y-129794000D01*
X159389054Y-129225715D01*
X159067147Y-128743946D01*
X158737974Y-128524000D01*
X159067147Y-128304054D01*
X159389054Y-127822285D01*
X159502093Y-127254000D01*
X159389054Y-126685715D01*
X159067147Y-126203946D01*
X158737974Y-125984000D01*
X159067147Y-125764054D01*
X159389054Y-125282285D01*
X159502093Y-124714000D01*
X159389054Y-124145715D01*
X159067147Y-123663946D01*
X158737974Y-123444000D01*
X159067147Y-123224054D01*
X159389054Y-122742285D01*
X159502093Y-122174000D01*
X159389054Y-121605715D01*
X159067147Y-121123946D01*
X158737974Y-120904000D01*
X159067147Y-120684054D01*
X159389054Y-120202285D01*
X159502093Y-119634000D01*
X159389054Y-119065715D01*
X159067147Y-118583946D01*
X158737974Y-118364000D01*
X159067147Y-118144054D01*
X159389054Y-117662285D01*
X159421572Y-117498808D01*
X179203382Y-137280618D01*
X179491794Y-137473329D01*
X179832000Y-137541000D01*
X182047170Y-137541000D01*
X181950371Y-137637630D01*
X181737243Y-138150900D01*
X181736758Y-138706661D01*
X181948990Y-139220303D01*
X182341630Y-139613629D01*
X182854900Y-139826757D01*
X183410661Y-139827242D01*
X183924303Y-139615010D01*
X184317629Y-139222370D01*
X184403949Y-139014488D01*
X184488990Y-139220303D01*
X184881630Y-139613629D01*
X185394900Y-139826757D01*
X185950661Y-139827242D01*
X186464303Y-139615010D01*
X186857629Y-139222370D01*
X186943949Y-139014488D01*
X187028990Y-139220303D01*
X187421630Y-139613629D01*
X187934900Y-139826757D01*
X188490661Y-139827242D01*
X189004303Y-139615010D01*
X189397629Y-139222370D01*
X189483949Y-139014488D01*
X189568990Y-139220303D01*
X189961630Y-139613629D01*
X190474900Y-139826757D01*
X191030661Y-139827242D01*
X191544303Y-139615010D01*
X191937629Y-139222370D01*
X192023949Y-139014488D01*
X192108990Y-139220303D01*
X192501630Y-139613629D01*
X193014900Y-139826757D01*
X193570661Y-139827242D01*
X194084303Y-139615010D01*
X194477629Y-139222370D01*
X194563949Y-139014488D01*
X194648990Y-139220303D01*
X195041630Y-139613629D01*
X195554900Y-139826757D01*
X196110661Y-139827242D01*
X196624303Y-139615010D01*
X197017629Y-139222370D01*
X197103949Y-139014488D01*
X197188990Y-139220303D01*
X197581630Y-139613629D01*
X198094900Y-139826757D01*
X198650661Y-139827242D01*
X199164303Y-139615010D01*
X199258661Y-139520816D01*
X200272197Y-139520816D01*
X200354704Y-139739968D01*
X200898581Y-139854286D01*
X201444805Y-139751769D01*
X201473296Y-139739968D01*
X201555803Y-139520816D01*
X200914000Y-138879013D01*
X200272197Y-139520816D01*
X199258661Y-139520816D01*
X199557629Y-139222370D01*
X199647599Y-139005698D01*
X199823184Y-139071803D01*
X200464987Y-138430000D01*
X201363013Y-138430000D01*
X202004816Y-139071803D01*
X202223968Y-138989296D01*
X202338286Y-138445419D01*
X202235769Y-137899195D01*
X202223968Y-137870704D01*
X202004816Y-137788197D01*
X201363013Y-138430000D01*
X200464987Y-138430000D01*
X199823184Y-137788197D01*
X199647671Y-137854275D01*
X199559010Y-137639697D01*
X199259022Y-137339184D01*
X200272197Y-137339184D01*
X200914000Y-137980987D01*
X201555803Y-137339184D01*
X201473296Y-137120032D01*
X200929419Y-137005714D01*
X200383195Y-137108231D01*
X200354704Y-137120032D01*
X200272197Y-137339184D01*
X199259022Y-137339184D01*
X199166370Y-137246371D01*
X198653100Y-137033243D01*
X198097339Y-137032758D01*
X197583697Y-137244990D01*
X197190371Y-137637630D01*
X197104051Y-137845512D01*
X197019010Y-137639697D01*
X196626370Y-137246371D01*
X196113100Y-137033243D01*
X195694113Y-137032877D01*
X192906618Y-134245382D01*
X192764273Y-134150270D01*
X192618206Y-134052671D01*
X192278000Y-133985000D01*
X180962236Y-133985000D01*
X175095089Y-128117853D01*
X175178212Y-128083507D01*
X175453540Y-127808659D01*
X175466886Y-127776517D01*
X181071184Y-133380815D01*
X181252609Y-133502039D01*
X181318395Y-133545996D01*
X181610000Y-133604000D01*
X181750917Y-133604000D01*
X181817341Y-133670540D01*
X182176630Y-133819730D01*
X182565663Y-133820069D01*
X182925212Y-133671507D01*
X183200540Y-133396659D01*
X183349730Y-133037370D01*
X183350069Y-132648337D01*
X183201507Y-132288788D01*
X183119960Y-132207099D01*
X183200540Y-132126659D01*
X183349730Y-131767370D01*
X183350069Y-131378337D01*
X183201507Y-131018788D01*
X182926659Y-130743460D01*
X182567370Y-130594270D01*
X182446605Y-130594165D01*
X182692540Y-130348659D01*
X182841730Y-129989370D01*
X182841769Y-129943661D01*
X202818758Y-129943661D01*
X203030990Y-130457303D01*
X203423630Y-130850629D01*
X203936900Y-131063757D01*
X204492661Y-131064242D01*
X205006303Y-130852010D01*
X205399629Y-130459370D01*
X205612757Y-129946100D01*
X205613242Y-129390339D01*
X205401010Y-128876697D01*
X205008370Y-128483371D01*
X204495100Y-128270243D01*
X203939339Y-128269758D01*
X203425697Y-128481990D01*
X203032371Y-128874630D01*
X202819243Y-129387900D01*
X202818758Y-129943661D01*
X182841769Y-129943661D01*
X182842069Y-129600337D01*
X182693507Y-129240788D01*
X182418659Y-128965460D01*
X182059370Y-128816270D01*
X181963818Y-128816187D01*
X179591292Y-126443661D01*
X202818758Y-126443661D01*
X203030990Y-126957303D01*
X203423630Y-127350629D01*
X203936900Y-127563757D01*
X204492661Y-127564242D01*
X205006303Y-127352010D01*
X205399629Y-126959370D01*
X205612757Y-126446100D01*
X205613242Y-125890339D01*
X205401010Y-125376697D01*
X205008370Y-124983371D01*
X204495100Y-124770243D01*
X203939339Y-124769758D01*
X203425697Y-124981990D01*
X203032371Y-125374630D01*
X202819243Y-125887900D01*
X202818758Y-126443661D01*
X179591292Y-126443661D01*
X178550921Y-125403290D01*
X178624512Y-125433848D01*
X179013545Y-125434187D01*
X179373094Y-125285625D01*
X179648422Y-125010777D01*
X179797612Y-124651488D01*
X179797951Y-124262455D01*
X179649389Y-123902906D01*
X179374541Y-123627578D01*
X179015252Y-123478388D01*
X178919700Y-123478305D01*
X171450000Y-116008606D01*
X171450000Y-113733854D01*
X171648496Y-113816277D01*
X172204257Y-113816762D01*
X172717899Y-113604530D01*
X173111225Y-113211890D01*
X173197545Y-113004008D01*
X173282586Y-113209823D01*
X173675226Y-113603149D01*
X174188496Y-113816277D01*
X174744257Y-113816762D01*
X175257899Y-113604530D01*
X175651225Y-113211890D01*
X175737545Y-113004008D01*
X175822586Y-113209823D01*
X176215226Y-113603149D01*
X176728496Y-113816277D01*
X177284257Y-113816762D01*
X177797899Y-113604530D01*
X178191225Y-113211890D01*
X178277545Y-113004008D01*
X178362586Y-113209823D01*
X178755226Y-113603149D01*
X179268496Y-113816277D01*
X179824257Y-113816762D01*
X180337899Y-113604530D01*
X180731225Y-113211890D01*
X180817545Y-113004008D01*
X180902586Y-113209823D01*
X181295226Y-113603149D01*
X181808496Y-113816277D01*
X182364257Y-113816762D01*
X182490713Y-113764511D01*
X182490354Y-114176181D01*
X182702586Y-114689823D01*
X183095226Y-115083149D01*
X183608496Y-115296277D01*
X184164257Y-115296762D01*
X184677899Y-115084530D01*
X185071225Y-114691890D01*
X185284353Y-114178620D01*
X185284838Y-113622859D01*
X185072606Y-113109217D01*
X184679966Y-112715891D01*
X184166696Y-112502763D01*
X183610935Y-112502278D01*
X183484479Y-112554529D01*
X183484838Y-112142859D01*
X183272606Y-111629217D01*
X182879966Y-111235891D01*
X182575969Y-111109661D01*
X184434815Y-109250815D01*
X184599996Y-109003605D01*
X184613517Y-108935630D01*
X184658000Y-108712000D01*
X184658000Y-103065659D01*
X184910698Y-102896811D01*
X185166000Y-102514725D01*
X185421302Y-102896811D01*
X185674000Y-103065659D01*
X185674000Y-118504917D01*
X185607460Y-118571341D01*
X185458270Y-118930630D01*
X185457931Y-119319663D01*
X185606493Y-119679212D01*
X185881341Y-119954540D01*
X186240630Y-120103730D01*
X186629663Y-120104069D01*
X186989212Y-119955507D01*
X187264540Y-119680659D01*
X187413730Y-119321370D01*
X187414069Y-118932337D01*
X187265507Y-118572788D01*
X187198000Y-118505163D01*
X187198000Y-116671915D01*
X187510630Y-116801730D01*
X187899663Y-116802069D01*
X188259212Y-116653507D01*
X188534540Y-116378659D01*
X188683730Y-116019370D01*
X188684069Y-115630337D01*
X188535507Y-115270788D01*
X188468000Y-115203163D01*
X188468000Y-103175547D01*
X188658500Y-103090126D01*
X188658500Y-102171500D01*
X188638500Y-102171500D01*
X188638500Y-101536500D01*
X188658500Y-101536500D01*
X188658500Y-100617874D01*
X188468000Y-100532453D01*
X188468000Y-95819630D01*
X188654473Y-95633157D01*
X188976000Y-95697113D01*
X189484000Y-95596065D01*
X189484000Y-100532453D01*
X189293500Y-100617874D01*
X189293500Y-101536500D01*
X189313500Y-101536500D01*
X189313500Y-102171500D01*
X189293500Y-102171500D01*
X189293500Y-103090126D01*
X189484000Y-103175547D01*
X189484000Y-111252000D01*
X189522154Y-111443812D01*
X189521931Y-111699663D01*
X189670493Y-112059212D01*
X189945341Y-112334540D01*
X190304630Y-112483730D01*
X190693663Y-112484069D01*
X191053212Y-112335507D01*
X191328540Y-112060659D01*
X191477730Y-111701370D01*
X191478069Y-111312337D01*
X191329507Y-110952788D01*
X191054659Y-110677460D01*
X191008000Y-110658085D01*
X191008000Y-103216065D01*
X191516000Y-103317113D01*
X192065151Y-103207880D01*
X192530698Y-102896811D01*
X192786000Y-102514725D01*
X193041302Y-102896811D01*
X193506849Y-103207880D01*
X194056000Y-103317113D01*
X194605151Y-103207880D01*
X195070698Y-102896811D01*
X195326000Y-102514725D01*
X195581302Y-102896811D01*
X196046849Y-103207880D01*
X196596000Y-103317113D01*
X197145151Y-103207880D01*
X197610698Y-102896811D01*
X197866000Y-102514725D01*
X198121302Y-102896811D01*
X198586849Y-103207880D01*
X199136000Y-103317113D01*
X199685151Y-103207880D01*
X200150698Y-102896811D01*
X200406000Y-102514725D01*
X200661302Y-102896811D01*
X201126849Y-103207880D01*
X201676000Y-103317113D01*
X202225151Y-103207880D01*
X202690698Y-102896811D01*
X203001767Y-102431264D01*
X203111000Y-101882113D01*
X203111000Y-101825887D01*
X203001767Y-101276736D01*
X202690698Y-100811189D01*
X202225151Y-100500120D01*
X201676000Y-100390887D01*
X201126849Y-100500120D01*
X200661302Y-100811189D01*
X200406000Y-101193275D01*
X200150698Y-100811189D01*
X199685151Y-100500120D01*
X199136000Y-100390887D01*
X198586849Y-100500120D01*
X198121302Y-100811189D01*
X197866000Y-101193275D01*
X197610698Y-100811189D01*
X197145151Y-100500120D01*
X196596000Y-100390887D01*
X196274471Y-100454843D01*
X195033985Y-99214357D01*
X195034067Y-99120337D01*
X194885505Y-98760788D01*
X194610657Y-98485460D01*
X194251368Y-98336270D01*
X193862335Y-98335931D01*
X193502786Y-98484493D01*
X193227458Y-98759341D01*
X193078268Y-99118630D01*
X193077929Y-99507663D01*
X193226491Y-99867212D01*
X193501339Y-100142540D01*
X193860628Y-100291730D01*
X193956181Y-100291813D01*
X194055379Y-100391011D01*
X193506849Y-100500120D01*
X193041302Y-100811189D01*
X192786000Y-101193275D01*
X192530698Y-100811189D01*
X192065151Y-100500120D01*
X191516000Y-100390887D01*
X191008000Y-100491935D01*
X191008000Y-95819630D01*
X191194473Y-95633157D01*
X191516000Y-95697113D01*
X192065151Y-95587880D01*
X192530698Y-95276811D01*
X192796542Y-94878947D01*
X193028657Y-95235929D01*
X193490280Y-95552809D01*
X193523489Y-95566538D01*
X193738500Y-95470126D01*
X193738500Y-94551500D01*
X193718500Y-94551500D01*
X193718500Y-93916500D01*
X193738500Y-93916500D01*
X193738500Y-92997874D01*
X194373500Y-92997874D01*
X194373500Y-93916500D01*
X194393500Y-93916500D01*
X194393500Y-94551500D01*
X194373500Y-94551500D01*
X194373500Y-95470126D01*
X194588511Y-95566538D01*
X194621720Y-95552809D01*
X195083343Y-95235929D01*
X195315458Y-94878947D01*
X195581302Y-95276811D01*
X196046849Y-95587880D01*
X196596000Y-95697113D01*
X197145151Y-95587880D01*
X197610698Y-95276811D01*
X197866000Y-94894725D01*
X198121302Y-95276811D01*
X198586849Y-95587880D01*
X199136000Y-95697113D01*
X199685151Y-95587880D01*
X200150698Y-95276811D01*
X200416542Y-94878947D01*
X200648657Y-95235929D01*
X201110280Y-95552809D01*
X201143489Y-95566538D01*
X201358500Y-95470126D01*
X201358500Y-94551500D01*
X201993500Y-94551500D01*
X201993500Y-95470126D01*
X202208511Y-95566538D01*
X202241720Y-95552809D01*
X202703343Y-95235929D01*
X203008563Y-94766515D01*
X202916711Y-94551500D01*
X201993500Y-94551500D01*
X201358500Y-94551500D01*
X201338500Y-94551500D01*
X201338500Y-93916500D01*
X201358500Y-93916500D01*
X201358500Y-92997874D01*
X201993500Y-92997874D01*
X201993500Y-93916500D01*
X202916711Y-93916500D01*
X203008563Y-93701485D01*
X202703343Y-93232071D01*
X202241720Y-92915191D01*
X202208511Y-92901462D01*
X201993500Y-92997874D01*
X201358500Y-92997874D01*
X201143489Y-92901462D01*
X201110280Y-92915191D01*
X200648657Y-93232071D01*
X200416542Y-93589053D01*
X200150698Y-93191189D01*
X199685151Y-92880120D01*
X199136000Y-92770887D01*
X198586849Y-92880120D01*
X198121302Y-93191189D01*
X197866000Y-93573275D01*
X197610698Y-93191189D01*
X197145151Y-92880120D01*
X196596000Y-92770887D01*
X196046849Y-92880120D01*
X195581302Y-93191189D01*
X195315458Y-93589053D01*
X195083343Y-93232071D01*
X194621720Y-92915191D01*
X194588511Y-92901462D01*
X194373500Y-92997874D01*
X193738500Y-92997874D01*
X193523489Y-92901462D01*
X193490280Y-92915191D01*
X193028657Y-93232071D01*
X192796542Y-93589053D01*
X192530698Y-93191189D01*
X192065151Y-92880120D01*
X191516000Y-92770887D01*
X190966849Y-92880120D01*
X190501302Y-93191189D01*
X190246000Y-93573275D01*
X189990698Y-93191189D01*
X189525151Y-92880120D01*
X188976000Y-92770887D01*
X188426849Y-92880120D01*
X187961302Y-93191189D01*
X187706000Y-93573275D01*
X187450698Y-93191189D01*
X186985151Y-92880120D01*
X186436000Y-92770887D01*
X186114473Y-92834843D01*
X184150000Y-90870370D01*
X184150000Y-87671747D01*
X184208707Y-87647490D01*
X184519413Y-87337325D01*
X193184146Y-87337325D01*
X193933871Y-89151801D01*
X195320897Y-90541250D01*
X197134061Y-91294141D01*
X199097325Y-91295854D01*
X200911801Y-90546129D01*
X202301250Y-89159103D01*
X203054141Y-87345939D01*
X203055854Y-85382675D01*
X202306129Y-83568199D01*
X200919103Y-82178750D01*
X199105939Y-81425859D01*
X197142675Y-81424146D01*
X195328199Y-82173871D01*
X193938750Y-83560897D01*
X193185859Y-85374061D01*
X193184146Y-87337325D01*
X184519413Y-87337325D01*
X184602033Y-87254850D01*
X184815161Y-86741580D01*
X184815646Y-86185819D01*
X184603414Y-85672177D01*
X184210774Y-85278851D01*
X183697504Y-85065723D01*
X183141743Y-85065238D01*
X182628101Y-85277470D01*
X182234775Y-85670110D01*
X182148455Y-85877992D01*
X182063414Y-85672177D01*
X181670774Y-85278851D01*
X181157504Y-85065723D01*
X180601743Y-85065238D01*
X180088101Y-85277470D01*
X179694775Y-85670110D01*
X179608455Y-85877992D01*
X179523414Y-85672177D01*
X179130774Y-85278851D01*
X178617504Y-85065723D01*
X178061743Y-85065238D01*
X177548101Y-85277470D01*
X177154775Y-85670110D01*
X177068455Y-85877992D01*
X176983414Y-85672177D01*
X176590774Y-85278851D01*
X176077504Y-85065723D01*
X175521743Y-85065238D01*
X175008101Y-85277470D01*
X174614775Y-85670110D01*
X174528455Y-85877992D01*
X174443414Y-85672177D01*
X174050774Y-85278851D01*
X173537504Y-85065723D01*
X172981743Y-85065238D01*
X172468101Y-85277470D01*
X172074775Y-85670110D01*
X171861647Y-86183380D01*
X171861162Y-86739141D01*
X172073394Y-87252783D01*
X172466000Y-87646075D01*
X172466000Y-91186000D01*
X172524004Y-91477605D01*
X172629838Y-91635996D01*
X172689185Y-91724815D01*
X173735380Y-92771010D01*
X173414473Y-92834843D01*
X171196000Y-90616370D01*
X171196000Y-87810705D01*
X171224303Y-87799010D01*
X171617629Y-87406370D01*
X171830757Y-86893100D01*
X171831242Y-86337339D01*
X171619010Y-85823697D01*
X171226370Y-85430371D01*
X170713100Y-85217243D01*
X170157339Y-85216758D01*
X169643697Y-85428990D01*
X169250371Y-85821630D01*
X169037243Y-86334900D01*
X169036758Y-86890661D01*
X169248990Y-87404303D01*
X169641630Y-87797629D01*
X169672000Y-87810240D01*
X169672000Y-90932000D01*
X169730004Y-91223605D01*
X169874595Y-91440000D01*
X169895185Y-91470815D01*
X171195380Y-92771010D01*
X170646849Y-92880120D01*
X170181302Y-93191189D01*
X169926000Y-93573275D01*
X169670698Y-93191189D01*
X169205151Y-92880120D01*
X168656000Y-92770887D01*
X168106849Y-92880120D01*
X167641302Y-93191189D01*
X167330233Y-93656736D01*
X167221000Y-94205887D01*
X167221000Y-94262113D01*
X167330233Y-94811264D01*
X167641302Y-95276811D01*
X168106849Y-95587880D01*
X168656000Y-95697113D01*
X169205151Y-95587880D01*
X169670698Y-95276811D01*
X169926000Y-94894725D01*
X170181302Y-95276811D01*
X170646849Y-95587880D01*
X171196000Y-95697113D01*
X171745151Y-95587880D01*
X172210698Y-95276811D01*
X172466000Y-94894725D01*
X172721302Y-95276811D01*
X173186849Y-95587880D01*
X173736000Y-95697113D01*
X174285151Y-95587880D01*
X174750698Y-95276811D01*
X175006000Y-94894725D01*
X175261302Y-95276811D01*
X175726849Y-95587880D01*
X176276000Y-95697113D01*
X176825151Y-95587880D01*
X177290698Y-95276811D01*
X177546000Y-94894725D01*
X177801302Y-95276811D01*
X178266849Y-95587880D01*
X178816000Y-95697113D01*
X179365151Y-95587880D01*
X179830698Y-95276811D01*
X180086000Y-94894725D01*
X180341302Y-95276811D01*
X180806849Y-95587880D01*
X181356000Y-95697113D01*
X181905151Y-95587880D01*
X182370698Y-95276811D01*
X182626000Y-94894725D01*
X182881302Y-95276811D01*
X183346849Y-95587880D01*
X183896000Y-95697113D01*
X184445151Y-95587880D01*
X184910698Y-95276811D01*
X185166000Y-94894725D01*
X185421302Y-95276811D01*
X185886849Y-95587880D01*
X186436000Y-95697113D01*
X186944000Y-95596065D01*
X186944000Y-100491935D01*
X186436000Y-100390887D01*
X185886849Y-100500120D01*
X185421302Y-100811189D01*
X185166000Y-101193275D01*
X184910698Y-100811189D01*
X184445151Y-100500120D01*
X183896000Y-100390887D01*
X183346849Y-100500120D01*
X182881302Y-100811189D01*
X182626000Y-101193275D01*
X182370698Y-100811189D01*
X181905151Y-100500120D01*
X181356000Y-100390887D01*
X180806849Y-100500120D01*
X180341302Y-100811189D01*
X180086000Y-101193275D01*
X179830698Y-100811189D01*
X179365151Y-100500120D01*
X178816000Y-100390887D01*
X178269753Y-100499542D01*
X178270069Y-100136337D01*
X178260877Y-100114090D01*
X180285516Y-100114090D01*
X180351940Y-100180630D01*
X180711229Y-100329820D01*
X181100262Y-100330159D01*
X181459811Y-100181597D01*
X181735139Y-99906749D01*
X181884329Y-99547460D01*
X181884668Y-99158427D01*
X181736106Y-98798878D01*
X181461258Y-98523550D01*
X181101969Y-98374360D01*
X180712936Y-98374021D01*
X180353387Y-98522583D01*
X180285762Y-98590090D01*
X162673091Y-98590090D01*
X162606667Y-98523550D01*
X162247378Y-98374360D01*
X161858345Y-98374021D01*
X161498796Y-98522583D01*
X161223468Y-98797431D01*
X161074278Y-99156720D01*
X161073939Y-99545753D01*
X161083131Y-99568000D01*
X153353385Y-99568000D01*
X153377730Y-99509370D01*
X153378069Y-99120337D01*
X153229507Y-98760788D01*
X152954659Y-98485460D01*
X152595370Y-98336270D01*
X152206337Y-98335931D01*
X151846788Y-98484493D01*
X151779163Y-98552000D01*
X114413083Y-98552000D01*
X114346659Y-98485460D01*
X113987370Y-98336270D01*
X113598337Y-98335931D01*
X113238788Y-98484493D01*
X112963460Y-98759341D01*
X112814270Y-99118630D01*
X112813931Y-99507663D01*
X112838862Y-99568000D01*
X111252000Y-99568000D01*
X110960395Y-99626004D01*
X110713184Y-99791185D01*
X110459185Y-100045185D01*
X110294004Y-100292395D01*
X110253616Y-100495439D01*
X109728000Y-100390887D01*
X109178849Y-100500120D01*
X108713302Y-100811189D01*
X108458000Y-101193275D01*
X108202698Y-100811189D01*
X107737151Y-100500120D01*
X107188000Y-100390887D01*
X106638849Y-100500120D01*
X106173302Y-100811189D01*
X105907458Y-101209053D01*
X105675343Y-100852071D01*
X105213720Y-100535191D01*
X105180511Y-100521462D01*
X104965500Y-100617874D01*
X104965500Y-101536500D01*
X104985500Y-101536500D01*
X104985500Y-102171500D01*
X104965500Y-102171500D01*
X104965500Y-103090126D01*
X105180511Y-103186538D01*
X105213720Y-103172809D01*
X105675343Y-102855929D01*
X105907458Y-102498947D01*
X106173302Y-102896811D01*
X106638849Y-103207880D01*
X107188000Y-103317113D01*
X107737151Y-103207880D01*
X108202698Y-102896811D01*
X108458000Y-102514725D01*
X108713302Y-102896811D01*
X109178849Y-103207880D01*
X109250985Y-103222229D01*
X109220000Y-103378000D01*
X109220000Y-103772917D01*
X109153460Y-103839341D01*
X109004270Y-104198630D01*
X109003931Y-104587663D01*
X109152493Y-104947212D01*
X109427341Y-105222540D01*
X109786630Y-105371730D01*
X110175663Y-105372069D01*
X110535212Y-105223507D01*
X110810540Y-104948659D01*
X110959730Y-104589370D01*
X110960069Y-104200337D01*
X110811507Y-103840788D01*
X110744000Y-103773163D01*
X110744000Y-103693630D01*
X111425656Y-103011974D01*
X111718849Y-103207880D01*
X112268000Y-103317113D01*
X112817151Y-103207880D01*
X113282698Y-102896811D01*
X113538000Y-102514725D01*
X113793302Y-102896811D01*
X114258849Y-103207880D01*
X114808000Y-103317113D01*
X115357151Y-103207880D01*
X115822698Y-102896811D01*
X116078000Y-102514725D01*
X116333302Y-102896811D01*
X116798849Y-103207880D01*
X117348000Y-103317113D01*
X117897151Y-103207880D01*
X118362698Y-102896811D01*
X118673767Y-102431264D01*
X118783000Y-101882113D01*
X118783000Y-101825887D01*
X118673767Y-101276736D01*
X118550330Y-101092000D01*
X125044560Y-101092000D01*
X125044560Y-102654000D01*
X125088838Y-102889317D01*
X125227910Y-103105441D01*
X125440110Y-103250431D01*
X125692000Y-103301440D01*
X125730000Y-103301440D01*
X125730000Y-108565302D01*
X125417293Y-108694510D01*
X125023967Y-109087150D01*
X124810839Y-109600420D01*
X124810354Y-110156181D01*
X124958416Y-110514519D01*
X124573083Y-110514519D01*
X124506659Y-110447979D01*
X124147370Y-110298789D01*
X123758337Y-110298450D01*
X123398788Y-110447012D01*
X123331163Y-110514519D01*
X121219630Y-110514519D01*
X121164296Y-110459185D01*
X121103160Y-110418335D01*
X120917086Y-110294004D01*
X120625481Y-110236000D01*
X98551197Y-110236000D01*
X98709161Y-109855580D01*
X98709646Y-109299819D01*
X98497414Y-108786177D01*
X98104774Y-108392851D01*
X97790000Y-108262146D01*
X97790000Y-103065659D01*
X98042698Y-102896811D01*
X98298000Y-102514725D01*
X98553302Y-102896811D01*
X99018849Y-103207880D01*
X99568000Y-103317113D01*
X100076000Y-103216065D01*
X100076000Y-106680000D01*
X100134004Y-106971605D01*
X100239838Y-107129996D01*
X100299185Y-107218815D01*
X101569184Y-108488815D01*
X101704331Y-108579117D01*
X101816395Y-108653996D01*
X102108000Y-108712000D01*
X111900917Y-108712000D01*
X111967341Y-108778540D01*
X112326630Y-108927730D01*
X112715663Y-108928069D01*
X113075212Y-108779507D01*
X113350540Y-108504659D01*
X113499730Y-108145370D01*
X113500069Y-107756337D01*
X113351507Y-107396788D01*
X113142960Y-107187877D01*
X113350540Y-106980659D01*
X113499730Y-106621370D01*
X113500069Y-106232337D01*
X113351507Y-105872788D01*
X113076659Y-105597460D01*
X112717370Y-105448270D01*
X112328337Y-105447931D01*
X111968788Y-105596493D01*
X111901163Y-105664000D01*
X106995631Y-105664000D01*
X104330500Y-102998870D01*
X104330500Y-102171500D01*
X104310500Y-102171500D01*
X104310500Y-101536500D01*
X104330500Y-101536500D01*
X104330500Y-100617874D01*
X104115489Y-100521462D01*
X104082280Y-100535191D01*
X103620657Y-100852071D01*
X103388542Y-101209053D01*
X103122698Y-100811189D01*
X102657151Y-100500120D01*
X102108000Y-100390887D01*
X101558849Y-100500120D01*
X101408489Y-100600588D01*
X101376815Y-100553185D01*
X99931442Y-99107812D01*
X107314736Y-99107812D01*
X107546262Y-99668149D01*
X107974596Y-100097231D01*
X108534528Y-100329735D01*
X109140812Y-100330264D01*
X109701149Y-100098738D01*
X110130231Y-99670404D01*
X110362735Y-99110472D01*
X110362998Y-98808646D01*
X113031322Y-96140322D01*
X113265328Y-95790107D01*
X113347500Y-95377000D01*
X113347500Y-95179828D01*
X113538000Y-94894725D01*
X113793302Y-95276811D01*
X114258849Y-95587880D01*
X114808000Y-95697113D01*
X115357151Y-95587880D01*
X115822698Y-95276811D01*
X116078000Y-94894725D01*
X116333302Y-95276811D01*
X116798849Y-95587880D01*
X117348000Y-95697113D01*
X117897151Y-95587880D01*
X118362698Y-95276811D01*
X118673767Y-94811264D01*
X118783000Y-94262113D01*
X118783000Y-94205887D01*
X125057000Y-94205887D01*
X125057000Y-94262113D01*
X125166233Y-94811264D01*
X125477302Y-95276811D01*
X125942849Y-95587880D01*
X126492000Y-95697113D01*
X127041151Y-95587880D01*
X127506698Y-95276811D01*
X127762000Y-94894725D01*
X128017302Y-95276811D01*
X128482849Y-95587880D01*
X129032000Y-95697113D01*
X129581151Y-95587880D01*
X130046698Y-95276811D01*
X130302000Y-94894725D01*
X130557302Y-95276811D01*
X131022849Y-95587880D01*
X131572000Y-95697113D01*
X132121151Y-95587880D01*
X132586698Y-95276811D01*
X132842000Y-94894725D01*
X133097302Y-95276811D01*
X133562849Y-95587880D01*
X134112000Y-95697113D01*
X134661151Y-95587880D01*
X135126698Y-95276811D01*
X135382000Y-94894725D01*
X135637302Y-95276811D01*
X136102849Y-95587880D01*
X136652000Y-95697113D01*
X137201151Y-95587880D01*
X137666698Y-95276811D01*
X137922000Y-94894725D01*
X138177302Y-95276811D01*
X138642849Y-95587880D01*
X139192000Y-95697113D01*
X139741151Y-95587880D01*
X140206698Y-95276811D01*
X140462000Y-94894725D01*
X140717302Y-95276811D01*
X141182849Y-95587880D01*
X141732000Y-95697113D01*
X142281151Y-95587880D01*
X142746698Y-95276811D01*
X143002000Y-94894725D01*
X143257302Y-95276811D01*
X143722849Y-95587880D01*
X144272000Y-95697113D01*
X144821151Y-95587880D01*
X145286698Y-95276811D01*
X145542000Y-94894725D01*
X145797302Y-95276811D01*
X146262849Y-95587880D01*
X146812000Y-95697113D01*
X147361151Y-95587880D01*
X147826698Y-95276811D01*
X148082000Y-94894725D01*
X148337302Y-95276811D01*
X148802849Y-95587880D01*
X149352000Y-95697113D01*
X149901151Y-95587880D01*
X150366698Y-95276811D01*
X150632542Y-94878947D01*
X150864657Y-95235929D01*
X151326280Y-95552809D01*
X151359489Y-95566538D01*
X151574500Y-95470126D01*
X151574500Y-94551500D01*
X151554500Y-94551500D01*
X151554500Y-93916500D01*
X151574500Y-93916500D01*
X151574500Y-92997874D01*
X152209500Y-92997874D01*
X152209500Y-93916500D01*
X152229500Y-93916500D01*
X152229500Y-94551500D01*
X152209500Y-94551500D01*
X152209500Y-95470126D01*
X152424511Y-95566538D01*
X152457720Y-95552809D01*
X152919343Y-95235929D01*
X153151458Y-94878947D01*
X153417302Y-95276811D01*
X153882849Y-95587880D01*
X154432000Y-95697113D01*
X154981151Y-95587880D01*
X155446698Y-95276811D01*
X155702000Y-94894725D01*
X155957302Y-95276811D01*
X156422849Y-95587880D01*
X156972000Y-95697113D01*
X157521151Y-95587880D01*
X157986698Y-95276811D01*
X158252542Y-94878947D01*
X158484657Y-95235929D01*
X158946280Y-95552809D01*
X158979489Y-95566538D01*
X159194500Y-95470126D01*
X159194500Y-94551500D01*
X159829500Y-94551500D01*
X159829500Y-95470126D01*
X160044511Y-95566538D01*
X160077720Y-95552809D01*
X160539343Y-95235929D01*
X160844563Y-94766515D01*
X160752711Y-94551500D01*
X159829500Y-94551500D01*
X159194500Y-94551500D01*
X159174500Y-94551500D01*
X159174500Y-93916500D01*
X159194500Y-93916500D01*
X159194500Y-92997874D01*
X159829500Y-92997874D01*
X159829500Y-93916500D01*
X160752711Y-93916500D01*
X160844563Y-93701485D01*
X160539343Y-93232071D01*
X160077720Y-92915191D01*
X160044511Y-92901462D01*
X159829500Y-92997874D01*
X159194500Y-92997874D01*
X158979489Y-92901462D01*
X158946280Y-92915191D01*
X158484657Y-93232071D01*
X158252542Y-93589053D01*
X157986698Y-93191189D01*
X157521151Y-92880120D01*
X156972000Y-92770887D01*
X156422849Y-92880120D01*
X155957302Y-93191189D01*
X155702000Y-93573275D01*
X155446698Y-93191189D01*
X154981151Y-92880120D01*
X154432000Y-92770887D01*
X153882849Y-92880120D01*
X153417302Y-93191189D01*
X153151458Y-93589053D01*
X152919343Y-93232071D01*
X152457720Y-92915191D01*
X152424511Y-92901462D01*
X152209500Y-92997874D01*
X151574500Y-92997874D01*
X151359489Y-92901462D01*
X151326280Y-92915191D01*
X150864657Y-93232071D01*
X150632542Y-93589053D01*
X150366698Y-93191189D01*
X149901151Y-92880120D01*
X149352620Y-92771010D01*
X149921631Y-92202000D01*
X160466370Y-92202000D01*
X165519013Y-97254644D01*
X165518931Y-97348663D01*
X165667493Y-97708212D01*
X165942341Y-97983540D01*
X166301630Y-98132730D01*
X166690663Y-98133069D01*
X167050212Y-97984507D01*
X167325540Y-97709659D01*
X167474730Y-97350370D01*
X167475069Y-96961337D01*
X167326507Y-96601788D01*
X167051659Y-96326460D01*
X166692370Y-96177270D01*
X166596818Y-96177187D01*
X161320815Y-90901185D01*
X161310655Y-90894396D01*
X161073605Y-90736004D01*
X160782000Y-90678000D01*
X149606000Y-90678000D01*
X149314395Y-90736004D01*
X149215377Y-90802166D01*
X149067185Y-90901184D01*
X147133527Y-92834843D01*
X146812000Y-92770887D01*
X146262849Y-92880120D01*
X145797302Y-93191189D01*
X145542000Y-93573275D01*
X145286698Y-93191189D01*
X144821151Y-92880120D01*
X144272000Y-92770887D01*
X144162332Y-92792701D01*
X140492404Y-89122774D01*
X140492404Y-87659185D01*
X140520707Y-87647490D01*
X140914033Y-87254850D01*
X141127161Y-86741580D01*
X141127646Y-86185819D01*
X140915414Y-85672177D01*
X140522774Y-85278851D01*
X140009504Y-85065723D01*
X139453743Y-85065238D01*
X138940101Y-85277470D01*
X138546775Y-85670110D01*
X138460455Y-85877992D01*
X138375414Y-85672177D01*
X137982774Y-85278851D01*
X137469504Y-85065723D01*
X136913743Y-85065238D01*
X136400101Y-85277470D01*
X136006775Y-85670110D01*
X135920455Y-85877992D01*
X135835414Y-85672177D01*
X135442774Y-85278851D01*
X134929504Y-85065723D01*
X134373743Y-85065238D01*
X133860101Y-85277470D01*
X133466775Y-85670110D01*
X133380455Y-85877992D01*
X133295414Y-85672177D01*
X132902774Y-85278851D01*
X132389504Y-85065723D01*
X131833743Y-85065238D01*
X131320101Y-85277470D01*
X130926775Y-85670110D01*
X130840455Y-85877992D01*
X130755414Y-85672177D01*
X130362774Y-85278851D01*
X129849504Y-85065723D01*
X129293743Y-85065238D01*
X128780101Y-85277470D01*
X128386775Y-85670110D01*
X128173647Y-86183380D01*
X128173162Y-86739141D01*
X128385394Y-87252783D01*
X128778034Y-87646109D01*
X128808404Y-87658720D01*
X128808404Y-89255152D01*
X128778001Y-89408000D01*
X128836004Y-89699604D01*
X129001185Y-89946815D01*
X131888141Y-92833771D01*
X131572000Y-92770887D01*
X131462331Y-92792701D01*
X127508000Y-88838370D01*
X127508000Y-87810705D01*
X127536303Y-87799010D01*
X127929629Y-87406370D01*
X128142757Y-86893100D01*
X128143242Y-86337339D01*
X127931010Y-85823697D01*
X127538370Y-85430371D01*
X127025100Y-85217243D01*
X126469339Y-85216758D01*
X125955697Y-85428990D01*
X125562371Y-85821630D01*
X125349243Y-86334900D01*
X125348758Y-86890661D01*
X125560990Y-87404303D01*
X125953630Y-87797629D01*
X125984000Y-87810240D01*
X125984000Y-89154000D01*
X126042004Y-89445605D01*
X126147838Y-89603996D01*
X126207185Y-89692815D01*
X129348141Y-92833771D01*
X129032000Y-92770887D01*
X128482849Y-92880120D01*
X128017302Y-93191189D01*
X127762000Y-93573275D01*
X127506698Y-93191189D01*
X127041151Y-92880120D01*
X126492000Y-92770887D01*
X125942849Y-92880120D01*
X125477302Y-93191189D01*
X125166233Y-93656736D01*
X125057000Y-94205887D01*
X118783000Y-94205887D01*
X118673767Y-93656736D01*
X118362698Y-93191189D01*
X117897151Y-92880120D01*
X117348000Y-92770887D01*
X116798849Y-92880120D01*
X116333302Y-93191189D01*
X116078000Y-93573275D01*
X115822698Y-93191189D01*
X115357151Y-92880120D01*
X114808000Y-92770887D01*
X114258849Y-92880120D01*
X113793302Y-93191189D01*
X113538000Y-93573275D01*
X113282698Y-93191189D01*
X112817151Y-92880120D01*
X112268000Y-92770887D01*
X111718849Y-92880120D01*
X111253302Y-93191189D01*
X110987458Y-93589053D01*
X110755343Y-93232071D01*
X110293720Y-92915191D01*
X110260511Y-92901462D01*
X110045500Y-92997874D01*
X110045500Y-93916500D01*
X110065500Y-93916500D01*
X110065500Y-94551500D01*
X110045500Y-94551500D01*
X110045500Y-95470126D01*
X110260511Y-95566538D01*
X110293720Y-95552809D01*
X110755343Y-95235929D01*
X110987458Y-94878947D01*
X111088375Y-95029981D01*
X108836359Y-97281997D01*
X108537188Y-97281736D01*
X107976851Y-97513262D01*
X107547769Y-97941596D01*
X107315265Y-98501528D01*
X107314736Y-99107812D01*
X99931442Y-99107812D01*
X97058815Y-96235185D01*
X96971632Y-96176931D01*
X96811605Y-96070004D01*
X96520000Y-96012000D01*
X87183631Y-96012000D01*
X86868620Y-95696990D01*
X87417151Y-95587880D01*
X87882698Y-95276811D01*
X88138000Y-94894725D01*
X88393302Y-95276811D01*
X88858849Y-95587880D01*
X89408000Y-95697113D01*
X89957151Y-95587880D01*
X90422698Y-95276811D01*
X90678000Y-94894725D01*
X90933302Y-95276811D01*
X91398849Y-95587880D01*
X91948000Y-95697113D01*
X92497151Y-95587880D01*
X92962698Y-95276811D01*
X93218000Y-94894725D01*
X93473302Y-95276811D01*
X93938849Y-95587880D01*
X94488000Y-95697113D01*
X95037151Y-95587880D01*
X95502698Y-95276811D01*
X95758000Y-94894725D01*
X96013302Y-95276811D01*
X96478849Y-95587880D01*
X97028000Y-95697113D01*
X97577151Y-95587880D01*
X98042698Y-95276811D01*
X98298000Y-94894725D01*
X98553302Y-95276811D01*
X99018849Y-95587880D01*
X99568000Y-95697113D01*
X100117151Y-95587880D01*
X100582698Y-95276811D01*
X100838000Y-94894725D01*
X101093302Y-95276811D01*
X101558849Y-95587880D01*
X102108000Y-95697113D01*
X102657151Y-95587880D01*
X103122698Y-95276811D01*
X103378000Y-94894725D01*
X103633302Y-95276811D01*
X104098849Y-95587880D01*
X104648000Y-95697113D01*
X105197151Y-95587880D01*
X105662698Y-95276811D01*
X105918000Y-94894725D01*
X106173302Y-95276811D01*
X106638849Y-95587880D01*
X107188000Y-95697113D01*
X107737151Y-95587880D01*
X108202698Y-95276811D01*
X108468542Y-94878947D01*
X108700657Y-95235929D01*
X109162280Y-95552809D01*
X109195489Y-95566538D01*
X109410500Y-95470126D01*
X109410500Y-94551500D01*
X109390500Y-94551500D01*
X109390500Y-93916500D01*
X109410500Y-93916500D01*
X109410500Y-92997874D01*
X109195489Y-92901462D01*
X109162280Y-92915191D01*
X108700657Y-93232071D01*
X108468542Y-93589053D01*
X108202698Y-93191189D01*
X107737151Y-92880120D01*
X107188000Y-92770887D01*
X106638849Y-92880120D01*
X106173302Y-93191189D01*
X105918000Y-93573275D01*
X105662698Y-93191189D01*
X105197151Y-92880120D01*
X104648000Y-92770887D01*
X104098849Y-92880120D01*
X103633302Y-93191189D01*
X103378000Y-93573275D01*
X103122698Y-93191189D01*
X102657151Y-92880120D01*
X102108000Y-92770887D01*
X101786473Y-92834843D01*
X98074404Y-89122774D01*
X98074404Y-87659185D01*
X98102707Y-87647490D01*
X98413413Y-87337325D01*
X103014146Y-87337325D01*
X103763871Y-89151801D01*
X105150897Y-90541250D01*
X106964061Y-91294141D01*
X108927325Y-91295854D01*
X110741801Y-90546129D01*
X112131250Y-89159103D01*
X112884141Y-87345939D01*
X112885854Y-85382675D01*
X112136129Y-83568199D01*
X110749103Y-82178750D01*
X108935939Y-81425859D01*
X106972675Y-81424146D01*
X105158199Y-82173871D01*
X103768750Y-83560897D01*
X103015859Y-85374061D01*
X103014146Y-87337325D01*
X98413413Y-87337325D01*
X98496033Y-87254850D01*
X98709161Y-86741580D01*
X98709646Y-86185819D01*
X98497414Y-85672177D01*
X98104774Y-85278851D01*
X97591504Y-85065723D01*
X97035743Y-85065238D01*
X96522101Y-85277470D01*
X96128775Y-85670110D01*
X96042455Y-85877992D01*
X95957414Y-85672177D01*
X95564774Y-85278851D01*
X95051504Y-85065723D01*
X94495743Y-85065238D01*
X93982101Y-85277470D01*
X93588775Y-85670110D01*
X93502455Y-85877992D01*
X93417414Y-85672177D01*
X93024774Y-85278851D01*
X92511504Y-85065723D01*
X91955743Y-85065238D01*
X91442101Y-85277470D01*
X91048775Y-85670110D01*
X90962455Y-85877992D01*
X90877414Y-85672177D01*
X90484774Y-85278851D01*
X89971504Y-85065723D01*
X89415743Y-85065238D01*
X88902101Y-85277470D01*
X88508775Y-85670110D01*
X88422455Y-85877992D01*
X88337414Y-85672177D01*
X87944774Y-85278851D01*
X87431504Y-85065723D01*
X86875743Y-85065238D01*
X86362101Y-85277470D01*
X85968775Y-85670110D01*
X85755647Y-86183380D01*
X85755162Y-86739141D01*
X85967394Y-87252783D01*
X86360034Y-87646109D01*
X86390404Y-87658720D01*
X86390404Y-89438404D01*
X86448408Y-89730009D01*
X86572684Y-89916000D01*
X86613589Y-89977219D01*
X89407380Y-92771010D01*
X89086473Y-92834843D01*
X85090000Y-88838370D01*
X85090000Y-87810705D01*
X85118303Y-87799010D01*
X85511629Y-87406370D01*
X85724757Y-86893100D01*
X85725242Y-86337339D01*
X85513010Y-85823697D01*
X85120370Y-85430371D01*
X84607100Y-85217243D01*
X84051339Y-85216758D01*
X83537697Y-85428990D01*
X83144371Y-85821630D01*
X82931243Y-86334900D01*
X82930758Y-86890661D01*
X83142990Y-87404303D01*
X83535630Y-87797629D01*
X83566000Y-87810240D01*
X83566000Y-89154000D01*
X83624004Y-89445605D01*
X83729838Y-89603996D01*
X83789185Y-89692815D01*
X86867380Y-92771010D01*
X86318849Y-92880120D01*
X85853302Y-93191189D01*
X85598000Y-93573275D01*
X85342698Y-93191189D01*
X84877151Y-92880120D01*
X84328000Y-92770887D01*
X83778849Y-92880120D01*
X83313302Y-93191189D01*
X83002233Y-93656736D01*
X82893000Y-94205887D01*
X82893000Y-94262113D01*
X83002233Y-94811264D01*
X83313302Y-95276811D01*
X83778849Y-95587880D01*
X84328000Y-95697113D01*
X84649527Y-95633157D01*
X86329184Y-97312815D01*
X86529415Y-97446605D01*
X86576395Y-97477996D01*
X86868000Y-97536000D01*
X96204370Y-97536000D01*
X99143663Y-100475293D01*
X99018849Y-100500120D01*
X98553302Y-100811189D01*
X98298000Y-101193275D01*
X98042698Y-100811189D01*
X97577151Y-100500120D01*
X97028000Y-100390887D01*
X96478849Y-100500120D01*
X96013302Y-100811189D01*
X95758000Y-101193275D01*
X95502698Y-100811189D01*
X95037151Y-100500120D01*
X94488000Y-100390887D01*
X93938849Y-100500120D01*
X93473302Y-100811189D01*
X93218000Y-101193275D01*
X92962698Y-100811189D01*
X92497151Y-100500120D01*
X91948000Y-100390887D01*
X91398849Y-100500120D01*
X90933302Y-100811189D01*
X90678000Y-101193275D01*
X90422698Y-100811189D01*
X89957151Y-100500120D01*
X89408000Y-100390887D01*
X88858849Y-100500120D01*
X88393302Y-100811189D01*
X88138000Y-101193275D01*
X87882698Y-100811189D01*
X87417151Y-100500120D01*
X86868000Y-100390887D01*
X86318849Y-100500120D01*
X85853302Y-100811189D01*
X85756899Y-100955465D01*
X85731162Y-100818683D01*
X85592090Y-100602559D01*
X85379890Y-100457569D01*
X85128000Y-100406560D01*
X83528000Y-100406560D01*
X83292683Y-100450838D01*
X83076559Y-100589910D01*
X82931569Y-100802110D01*
X82880560Y-101054000D01*
X82880560Y-102654000D01*
X82924838Y-102889317D01*
X83063910Y-103105441D01*
X83276110Y-103250431D01*
X83528000Y-103301440D01*
X83566000Y-103301440D01*
X83566000Y-108531295D01*
X83537697Y-108542990D01*
X83144371Y-108935630D01*
X82931243Y-109448900D01*
X82930758Y-110004661D01*
X83026345Y-110236000D01*
X77837083Y-110236000D01*
X77770659Y-110169460D01*
X77411370Y-110020270D01*
X77022337Y-110019931D01*
X76662788Y-110168493D01*
X76387460Y-110443341D01*
X76238270Y-110802630D01*
X76237931Y-111191663D01*
X76386493Y-111551212D01*
X76661341Y-111826540D01*
X77020630Y-111975730D01*
X77409663Y-111976069D01*
X77769212Y-111827507D01*
X77836837Y-111760000D01*
X84012370Y-111760000D01*
X84212987Y-111960617D01*
X84201243Y-111988900D01*
X84200758Y-112544661D01*
X84412990Y-113058303D01*
X84805630Y-113451629D01*
X85318900Y-113664757D01*
X85874661Y-113665242D01*
X86388303Y-113453010D01*
X86781629Y-113060370D01*
X86867949Y-112852488D01*
X86952990Y-113058303D01*
X87345630Y-113451629D01*
X87858900Y-113664757D01*
X88414661Y-113665242D01*
X88928303Y-113453010D01*
X89321629Y-113060370D01*
X89407949Y-112852488D01*
X89492990Y-113058303D01*
X89885630Y-113451629D01*
X90398900Y-113664757D01*
X90954661Y-113665242D01*
X91468303Y-113453010D01*
X91861629Y-113060370D01*
X91947949Y-112852488D01*
X92032990Y-113058303D01*
X92425630Y-113451629D01*
X92938900Y-113664757D01*
X93494661Y-113665242D01*
X94008303Y-113453010D01*
X94401629Y-113060370D01*
X94487949Y-112852488D01*
X94572990Y-113058303D01*
X94965630Y-113451629D01*
X95478900Y-113664757D01*
X96034661Y-113665242D01*
X96548303Y-113453010D01*
X96941629Y-113060370D01*
X97027949Y-112852488D01*
X97112990Y-113058303D01*
X97505630Y-113451629D01*
X98018900Y-113664757D01*
X98574661Y-113665242D01*
X98701117Y-113612991D01*
X98700758Y-114024661D01*
X98814525Y-114300000D01*
X91553083Y-114300000D01*
X91486659Y-114233460D01*
X91127370Y-114084270D01*
X90738337Y-114083931D01*
X90378788Y-114232493D01*
X90311163Y-114300000D01*
X83811439Y-114300000D01*
X83924757Y-114027100D01*
X83925242Y-113471339D01*
X83713010Y-112957697D01*
X83320370Y-112564371D01*
X82807100Y-112351243D01*
X82251339Y-112350758D01*
X81737697Y-112562990D01*
X81344371Y-112955630D01*
X81131243Y-113468900D01*
X81130758Y-114024661D01*
X81342990Y-114538303D01*
X81447404Y-114642899D01*
X79116920Y-114642899D01*
X79061507Y-114508788D01*
X78786659Y-114233460D01*
X78427370Y-114084270D01*
X78038337Y-114083931D01*
X77678788Y-114232493D01*
X77403460Y-114507341D01*
X77254270Y-114866630D01*
X77253931Y-115255663D01*
X77402493Y-115615212D01*
X77677341Y-115890540D01*
X78036630Y-116039730D01*
X78179968Y-116039855D01*
X78237294Y-116078159D01*
X78283294Y-116108895D01*
X78574899Y-116166899D01*
X81216985Y-116166899D01*
X80980788Y-116264493D01*
X80705460Y-116539341D01*
X80556270Y-116898630D01*
X80555931Y-117287663D01*
X80704493Y-117647212D01*
X80979341Y-117922540D01*
X81338630Y-118071730D01*
X81727663Y-118072069D01*
X82087212Y-117923507D01*
X82154837Y-117856000D01*
X93218000Y-117856000D01*
X93509605Y-117797996D01*
X93719871Y-117657501D01*
X99821984Y-123759614D01*
X99821984Y-134506917D01*
X99755444Y-134573341D01*
X99606254Y-134932630D01*
X99605915Y-135321663D01*
X99630846Y-135382000D01*
X81788000Y-135382000D01*
X81496395Y-135440004D01*
X81249186Y-135605184D01*
X80446082Y-136408288D01*
X80305151Y-136314120D01*
X79756000Y-136204887D01*
X79206849Y-136314120D01*
X78741302Y-136625189D01*
X78430233Y-137090736D01*
X78321000Y-137639887D01*
X78321000Y-137696113D01*
X78430233Y-138245264D01*
X78741302Y-138710811D01*
X79206849Y-139021880D01*
X79756000Y-139131113D01*
X80305151Y-139021880D01*
X80770698Y-138710811D01*
X81026000Y-138328725D01*
X81281302Y-138710811D01*
X81746849Y-139021880D01*
X82296000Y-139131113D01*
X82845151Y-139021880D01*
X83310698Y-138710811D01*
X83566000Y-138328725D01*
X83821302Y-138710811D01*
X84286849Y-139021880D01*
X84836000Y-139131113D01*
X85385151Y-139021880D01*
X85850698Y-138710811D01*
X86106000Y-138328725D01*
X86361302Y-138710811D01*
X86826849Y-139021880D01*
X87376000Y-139131113D01*
X87925151Y-139021880D01*
X88390698Y-138710811D01*
X88646000Y-138328725D01*
X88901302Y-138710811D01*
X89366849Y-139021880D01*
X89916000Y-139131113D01*
X90465151Y-139021880D01*
X90930698Y-138710811D01*
X91186000Y-138328725D01*
X91441302Y-138710811D01*
X91906849Y-139021880D01*
X92456000Y-139131113D01*
X93005151Y-139021880D01*
X93470698Y-138710811D01*
X93726000Y-138328725D01*
X93981302Y-138710811D01*
X94446849Y-139021880D01*
X94996000Y-139131113D01*
X95545151Y-139021880D01*
X96010698Y-138710811D01*
X96276542Y-138312947D01*
X96508657Y-138669929D01*
X96970280Y-138986809D01*
X97003489Y-139000538D01*
X97218500Y-138904126D01*
X97218500Y-137985500D01*
X97198500Y-137985500D01*
X97198500Y-137350500D01*
X97218500Y-137350500D01*
X97218500Y-137330500D01*
X97853500Y-137330500D01*
X97853500Y-137350500D01*
X97873500Y-137350500D01*
X97873500Y-137985500D01*
X97853500Y-137985500D01*
X97853500Y-138904126D01*
X98068511Y-139000538D01*
X98101720Y-138986809D01*
X98563343Y-138669929D01*
X98795458Y-138312947D01*
X99061302Y-138710811D01*
X99526849Y-139021880D01*
X100076000Y-139131113D01*
X100625151Y-139021880D01*
X101090698Y-138710811D01*
X101346000Y-138328725D01*
X101601302Y-138710811D01*
X101854000Y-138879659D01*
X101854000Y-140208000D01*
X101912004Y-140499605D01*
X102026385Y-140670788D01*
X102077185Y-140746815D01*
X104686013Y-143355643D01*
X104685931Y-143449663D01*
X104834493Y-143809212D01*
X104900812Y-143875647D01*
X104606849Y-143934120D01*
X104141302Y-144245189D01*
X103886000Y-144627275D01*
X103630698Y-144245189D01*
X103165151Y-143934120D01*
X102616000Y-143824887D01*
X102066849Y-143934120D01*
X101601302Y-144245189D01*
X101346000Y-144627275D01*
X101090698Y-144245189D01*
X100625151Y-143934120D01*
X100076000Y-143824887D01*
X99526849Y-143934120D01*
X99061302Y-144245189D01*
X98806000Y-144627275D01*
X98550698Y-144245189D01*
X98085151Y-143934120D01*
X97536000Y-143824887D01*
X97028000Y-143925935D01*
X97028000Y-141845083D01*
X97094540Y-141778659D01*
X97243730Y-141419370D01*
X97244069Y-141030337D01*
X97095507Y-140670788D01*
X96820659Y-140395460D01*
X96461370Y-140246270D01*
X96072337Y-140245931D01*
X95712788Y-140394493D01*
X95437460Y-140669341D01*
X95288270Y-141028630D01*
X95287931Y-141417663D01*
X95436493Y-141777212D01*
X95504000Y-141844837D01*
X95504000Y-143702369D01*
X95317527Y-143888843D01*
X94996000Y-143824887D01*
X94446849Y-143934120D01*
X93981302Y-144245189D01*
X93715458Y-144643053D01*
X93483343Y-144286071D01*
X93021720Y-143969191D01*
X92988511Y-143955462D01*
X92773500Y-144051874D01*
X92773500Y-144970500D01*
X92793500Y-144970500D01*
X92793500Y-145605500D01*
X92773500Y-145605500D01*
X92773500Y-145625500D01*
X92138500Y-145625500D01*
X92138500Y-145605500D01*
X92118500Y-145605500D01*
X92118500Y-144970500D01*
X92138500Y-144970500D01*
X92138500Y-144051874D01*
X91923489Y-143955462D01*
X91890280Y-143969191D01*
X91428657Y-144286071D01*
X91196542Y-144643053D01*
X90930698Y-144245189D01*
X90465151Y-143934120D01*
X89916000Y-143824887D01*
X89366849Y-143934120D01*
X88901302Y-144245189D01*
X88646000Y-144627275D01*
X88390698Y-144245189D01*
X87925151Y-143934120D01*
X87376000Y-143824887D01*
X86826849Y-143934120D01*
X86361302Y-144245189D01*
X86106000Y-144627275D01*
X85850698Y-144245189D01*
X85385151Y-143934120D01*
X84836000Y-143824887D01*
X84286849Y-143934120D01*
X83821302Y-144245189D01*
X83566000Y-144627275D01*
X83310698Y-144245189D01*
X82845151Y-143934120D01*
X82296000Y-143824887D01*
X81746849Y-143934120D01*
X81281302Y-144245189D01*
X81026000Y-144627275D01*
X80770698Y-144245189D01*
X80305151Y-143934120D01*
X79756000Y-143824887D01*
X79206849Y-143934120D01*
X78741302Y-144245189D01*
X78430233Y-144710736D01*
X78321000Y-145259887D01*
X78321000Y-145316113D01*
X78430233Y-145865264D01*
X78741302Y-146330811D01*
X79038885Y-146529650D01*
X79052004Y-146595605D01*
X79175982Y-146781151D01*
X79217185Y-146842815D01*
X79921385Y-147547015D01*
X79725939Y-147465859D01*
X77762675Y-147464146D01*
X75948199Y-148213871D01*
X74558750Y-149600897D01*
X74370000Y-150055458D01*
X74370000Y-133116285D01*
X87460760Y-133116285D01*
X87671169Y-133625515D01*
X88060436Y-134015461D01*
X88569298Y-134226759D01*
X89120285Y-134227240D01*
X89629515Y-134016831D01*
X90019461Y-133627564D01*
X90230759Y-133118702D01*
X90230761Y-133116285D01*
X92340760Y-133116285D01*
X92551169Y-133625515D01*
X92940436Y-134015461D01*
X93449298Y-134226759D01*
X94000285Y-134227240D01*
X94509515Y-134016831D01*
X94899461Y-133627564D01*
X95110759Y-133118702D01*
X95111240Y-132567715D01*
X94900831Y-132058485D01*
X94511564Y-131668539D01*
X94002702Y-131457241D01*
X93451715Y-131456760D01*
X92942485Y-131667169D01*
X92552539Y-132056436D01*
X92341241Y-132565298D01*
X92340760Y-133116285D01*
X90230761Y-133116285D01*
X90231240Y-132567715D01*
X90020831Y-132058485D01*
X89631564Y-131668539D01*
X89122702Y-131457241D01*
X88571715Y-131456760D01*
X88062485Y-131667169D01*
X87672539Y-132056436D01*
X87461241Y-132565298D01*
X87460760Y-133116285D01*
X74370000Y-133116285D01*
X74370000Y-127712187D01*
X87464752Y-127712187D01*
X87682757Y-128239800D01*
X88086077Y-128643824D01*
X88613309Y-128862750D01*
X89184187Y-128863248D01*
X89711800Y-128645243D01*
X90115824Y-128241923D01*
X90334750Y-127714691D01*
X90334752Y-127712187D01*
X92544752Y-127712187D01*
X92762757Y-128239800D01*
X93166077Y-128643824D01*
X93693309Y-128862750D01*
X94264187Y-128863248D01*
X94791800Y-128645243D01*
X95195824Y-128241923D01*
X95414750Y-127714691D01*
X95415248Y-127143813D01*
X95197243Y-126616200D01*
X94793923Y-126212176D01*
X94266691Y-125993250D01*
X93695813Y-125992752D01*
X93168200Y-126210757D01*
X92764176Y-126614077D01*
X92545250Y-127141309D01*
X92544752Y-127712187D01*
X90334752Y-127712187D01*
X90335248Y-127143813D01*
X90117243Y-126616200D01*
X89713923Y-126212176D01*
X89186691Y-125993250D01*
X88615813Y-125992752D01*
X88088200Y-126210757D01*
X87684176Y-126614077D01*
X87465250Y-127141309D01*
X87464752Y-127712187D01*
X74370000Y-127712187D01*
X74370000Y-122712187D01*
X87464752Y-122712187D01*
X87682757Y-123239800D01*
X88086077Y-123643824D01*
X88613309Y-123862750D01*
X89184187Y-123863248D01*
X89711800Y-123645243D01*
X90115824Y-123241923D01*
X90334750Y-122714691D01*
X90334752Y-122712187D01*
X92544752Y-122712187D01*
X92762757Y-123239800D01*
X93166077Y-123643824D01*
X93693309Y-123862750D01*
X94264187Y-123863248D01*
X94791800Y-123645243D01*
X95195824Y-123241923D01*
X95414750Y-122714691D01*
X95415248Y-122143813D01*
X95197243Y-121616200D01*
X94793923Y-121212176D01*
X94266691Y-120993250D01*
X93695813Y-120992752D01*
X93168200Y-121210757D01*
X92764176Y-121614077D01*
X92545250Y-122141309D01*
X92544752Y-122712187D01*
X90334752Y-122712187D01*
X90335248Y-122143813D01*
X90117243Y-121616200D01*
X89713923Y-121212176D01*
X89186691Y-120993250D01*
X88615813Y-120992752D01*
X88088200Y-121210757D01*
X87684176Y-121614077D01*
X87465250Y-122141309D01*
X87464752Y-122712187D01*
X74370000Y-122712187D01*
X74370000Y-83764281D01*
X74573594Y-83968231D01*
X75133526Y-84200735D01*
X75739810Y-84201264D01*
X76300147Y-83969738D01*
X76729229Y-83541404D01*
X76961733Y-82981472D01*
X76961996Y-82679645D01*
X77917140Y-81724501D01*
X80327885Y-81724501D01*
X80145647Y-82163380D01*
X80145162Y-82719141D01*
X80357394Y-83232783D01*
X80750034Y-83626109D01*
X81263304Y-83839237D01*
X81819065Y-83839722D01*
X81945521Y-83787471D01*
X81945162Y-84199141D01*
X82157394Y-84712783D01*
X82550034Y-85106109D01*
X83063304Y-85319237D01*
X83619065Y-85319722D01*
X84132707Y-85107490D01*
X84526033Y-84714850D01*
X84612353Y-84506968D01*
X84697394Y-84712783D01*
X85090034Y-85106109D01*
X85603304Y-85319237D01*
X86159065Y-85319722D01*
X86672707Y-85107490D01*
X87066033Y-84714850D01*
X87152353Y-84506968D01*
X87237394Y-84712783D01*
X87630034Y-85106109D01*
X88143304Y-85319237D01*
X88699065Y-85319722D01*
X89212707Y-85107490D01*
X89606033Y-84714850D01*
X89692353Y-84506968D01*
X89777394Y-84712783D01*
X90170034Y-85106109D01*
X90683304Y-85319237D01*
X91239065Y-85319722D01*
X91752707Y-85107490D01*
X92146033Y-84714850D01*
X92232353Y-84506968D01*
X92317394Y-84712783D01*
X92710034Y-85106109D01*
X93223304Y-85319237D01*
X93779065Y-85319722D01*
X94292707Y-85107490D01*
X94686033Y-84714850D01*
X94772353Y-84506968D01*
X94857394Y-84712783D01*
X95250034Y-85106109D01*
X95763304Y-85319237D01*
X96319065Y-85319722D01*
X96832707Y-85107490D01*
X97226033Y-84714850D01*
X97439161Y-84201580D01*
X97439646Y-83645819D01*
X97227414Y-83132177D01*
X96834774Y-82738851D01*
X96787307Y-82719141D01*
X97715162Y-82719141D01*
X97927394Y-83232783D01*
X98320034Y-83626109D01*
X98833304Y-83839237D01*
X99389065Y-83839722D01*
X99902707Y-83627490D01*
X100296033Y-83234850D01*
X100509161Y-82721580D01*
X100509646Y-82165819D01*
X100297414Y-81652177D01*
X99904774Y-81258851D01*
X99391504Y-81045723D01*
X98835743Y-81045238D01*
X98322101Y-81257470D01*
X97928775Y-81650110D01*
X97715647Y-82163380D01*
X97715162Y-82719141D01*
X96787307Y-82719141D01*
X96644915Y-82660015D01*
X96550815Y-82519185D01*
X92925987Y-78894357D01*
X92926069Y-78800337D01*
X92777507Y-78440788D01*
X92517174Y-78180000D01*
X133289254Y-78180000D01*
X133029460Y-78439341D01*
X133029460Y-78439341D01*
G37*
X133029460Y-78439341D02*
X132880270Y-78798630D01*
X132879931Y-79187663D01*
X133028493Y-79547212D01*
X133277801Y-79796955D01*
X133319185Y-79858891D01*
X135985831Y-82525537D01*
X135643743Y-82525238D01*
X135613351Y-82537796D01*
X133057924Y-79982370D01*
X133058069Y-79816337D01*
X132909507Y-79456788D01*
X132634659Y-79181460D01*
X132275370Y-79032270D01*
X131886337Y-79031931D01*
X131526788Y-79180493D01*
X131251460Y-79455341D01*
X131102270Y-79814630D01*
X131101931Y-80203663D01*
X131250493Y-80563212D01*
X131525341Y-80838540D01*
X131884630Y-80987730D01*
X131908044Y-80987750D01*
X133445830Y-82525537D01*
X133103743Y-82525238D01*
X133073351Y-82537796D01*
X131022739Y-80487185D01*
X130910694Y-80412319D01*
X130775529Y-80322004D01*
X130483924Y-80264000D01*
X129907083Y-80264000D01*
X129840659Y-80197460D01*
X129481370Y-80048270D01*
X129092337Y-80047931D01*
X128732788Y-80196493D01*
X128457460Y-80471341D01*
X128308270Y-80830630D01*
X128307931Y-81219663D01*
X128456493Y-81579212D01*
X128731341Y-81854540D01*
X129090630Y-82003730D01*
X129479663Y-82004069D01*
X129839212Y-81855507D01*
X129906837Y-81788000D01*
X130168294Y-81788000D01*
X130905830Y-82525537D01*
X130563743Y-82525238D01*
X130050101Y-82737470D01*
X129656775Y-83130110D01*
X129570455Y-83337992D01*
X129485414Y-83132177D01*
X129092774Y-82738851D01*
X128579504Y-82525723D01*
X128023743Y-82525238D01*
X127510101Y-82737470D01*
X127116775Y-83130110D01*
X127030455Y-83337992D01*
X126945414Y-83132177D01*
X126552774Y-82738851D01*
X126039504Y-82525723D01*
X125483743Y-82525238D01*
X125357287Y-82577489D01*
X125357646Y-82165819D01*
X125145414Y-81652177D01*
X124752774Y-81258851D01*
X124239504Y-81045723D01*
X123683743Y-81045238D01*
X123170101Y-81257470D01*
X122776775Y-81650110D01*
X122563647Y-82163380D01*
X122563162Y-82719141D01*
X122775394Y-83232783D01*
X123168034Y-83626109D01*
X123681304Y-83839237D01*
X124237065Y-83839722D01*
X124363521Y-83787471D01*
X124363162Y-84199141D01*
X124575394Y-84712783D01*
X124968034Y-85106109D01*
X125481304Y-85319237D01*
X126037065Y-85319722D01*
X126550707Y-85107490D01*
X126944033Y-84714850D01*
X127030353Y-84506968D01*
X127115394Y-84712783D01*
X127508034Y-85106109D01*
X128021304Y-85319237D01*
X128577065Y-85319722D01*
X129090707Y-85107490D01*
X129484033Y-84714850D01*
X129570353Y-84506968D01*
X129655394Y-84712783D01*
X130048034Y-85106109D01*
X130561304Y-85319237D01*
X131117065Y-85319722D01*
X131630707Y-85107490D01*
X132024033Y-84714850D01*
X132110353Y-84506968D01*
X132195394Y-84712783D01*
X132588034Y-85106109D01*
X133101304Y-85319237D01*
X133657065Y-85319722D01*
X134170707Y-85107490D01*
X134564033Y-84714850D01*
X134650353Y-84506968D01*
X134735394Y-84712783D01*
X135128034Y-85106109D01*
X135641304Y-85319237D01*
X136197065Y-85319722D01*
X136710707Y-85107490D01*
X137104033Y-84714850D01*
X137190353Y-84506968D01*
X137275394Y-84712783D01*
X137668034Y-85106109D01*
X138181304Y-85319237D01*
X138737065Y-85319722D01*
X139250707Y-85107490D01*
X139644033Y-84714850D01*
X139857161Y-84201580D01*
X139857646Y-83645819D01*
X139645414Y-83132177D01*
X139252774Y-82738851D01*
X139205307Y-82719141D01*
X140133162Y-82719141D01*
X140345394Y-83232783D01*
X140738034Y-83626109D01*
X141251304Y-83839237D01*
X141807065Y-83839722D01*
X142320707Y-83627490D01*
X142714033Y-83234850D01*
X142927161Y-82721580D01*
X142927163Y-82719141D01*
X166251162Y-82719141D01*
X166463394Y-83232783D01*
X166856034Y-83626109D01*
X167369304Y-83839237D01*
X167925065Y-83839722D01*
X168051521Y-83787471D01*
X168051162Y-84199141D01*
X168263394Y-84712783D01*
X168656034Y-85106109D01*
X169169304Y-85319237D01*
X169725065Y-85319722D01*
X170238707Y-85107490D01*
X170632033Y-84714850D01*
X170718353Y-84506968D01*
X170803394Y-84712783D01*
X171196034Y-85106109D01*
X171709304Y-85319237D01*
X172265065Y-85319722D01*
X172778707Y-85107490D01*
X173172033Y-84714850D01*
X173258353Y-84506968D01*
X173343394Y-84712783D01*
X173736034Y-85106109D01*
X174249304Y-85319237D01*
X174805065Y-85319722D01*
X175318707Y-85107490D01*
X175712033Y-84714850D01*
X175798353Y-84506968D01*
X175883394Y-84712783D01*
X176276034Y-85106109D01*
X176789304Y-85319237D01*
X177345065Y-85319722D01*
X177858707Y-85107490D01*
X178252033Y-84714850D01*
X178338353Y-84506968D01*
X178423394Y-84712783D01*
X178816034Y-85106109D01*
X179329304Y-85319237D01*
X179885065Y-85319722D01*
X180398707Y-85107490D01*
X180792033Y-84714850D01*
X180878353Y-84506968D01*
X180963394Y-84712783D01*
X181356034Y-85106109D01*
X181869304Y-85319237D01*
X182425065Y-85319722D01*
X182938707Y-85107490D01*
X183332033Y-84714850D01*
X183545161Y-84201580D01*
X183545646Y-83645819D01*
X183333414Y-83132177D01*
X182940774Y-82738851D01*
X182893307Y-82719141D01*
X183821162Y-82719141D01*
X184033394Y-83232783D01*
X184426034Y-83626109D01*
X184939304Y-83839237D01*
X185495065Y-83839722D01*
X186008707Y-83627490D01*
X186402033Y-83234850D01*
X186615161Y-82721580D01*
X186615646Y-82165819D01*
X186403414Y-81652177D01*
X186010774Y-81258851D01*
X185497504Y-81045723D01*
X184941743Y-81045238D01*
X184428101Y-81257470D01*
X184034775Y-81650110D01*
X183821647Y-82163380D01*
X183821162Y-82719141D01*
X182893307Y-82719141D01*
X182427504Y-82525723D01*
X181871743Y-82525238D01*
X181358101Y-82737470D01*
X180964775Y-83130110D01*
X180878455Y-83337992D01*
X180793414Y-83132177D01*
X180400774Y-82738851D01*
X179887504Y-82525723D01*
X179331743Y-82525238D01*
X178818101Y-82737470D01*
X178424775Y-83130110D01*
X178338455Y-83337992D01*
X178253414Y-83132177D01*
X177860774Y-82738851D01*
X177347504Y-82525723D01*
X176791743Y-82525238D01*
X176278101Y-82737470D01*
X175884775Y-83130110D01*
X175798455Y-83337992D01*
X175713414Y-83132177D01*
X175320774Y-82738851D01*
X174807504Y-82525723D01*
X174251743Y-82525238D01*
X173738101Y-82737470D01*
X173344775Y-83130110D01*
X173258455Y-83337992D01*
X173173414Y-83132177D01*
X172780774Y-82738851D01*
X172267504Y-82525723D01*
X171711743Y-82525238D01*
X171198101Y-82737470D01*
X170804775Y-83130110D01*
X170718455Y-83337992D01*
X170633414Y-83132177D01*
X170240774Y-82738851D01*
X169727504Y-82525723D01*
X169171743Y-82525238D01*
X169045287Y-82577489D01*
X169045646Y-82165819D01*
X168833414Y-81652177D01*
X168440774Y-81258851D01*
X167927504Y-81045723D01*
X167371743Y-81045238D01*
X166858101Y-81257470D01*
X166464775Y-81650110D01*
X166251647Y-82163380D01*
X166251162Y-82719141D01*
X142927163Y-82719141D01*
X142927646Y-82165819D01*
X142715414Y-81652177D01*
X142322774Y-81258851D01*
X141809504Y-81045723D01*
X141253743Y-81045238D01*
X140740101Y-81257470D01*
X140346775Y-81650110D01*
X140133647Y-82163380D01*
X140133162Y-82719141D01*
X139205307Y-82719141D01*
X138739504Y-82525723D01*
X138183743Y-82525238D01*
X138153350Y-82537796D01*
X134826691Y-79211137D01*
X134835730Y-79189370D01*
X134836069Y-78800337D01*
X134687507Y-78440788D01*
X134427174Y-78180000D01*
X205670069Y-78180000D01*
X206920995Y-78428824D01*
X207922196Y-79097804D01*
X208591175Y-80099005D01*
X208840000Y-81349931D01*
X208840000Y-154870069D01*
X208591175Y-156120995D01*
X207922196Y-157122196D01*
X206920995Y-157791176D01*
X205670069Y-158040000D01*
X104833582Y-158040000D01*
X76754955Y-157883858D01*
X76289005Y-157791175D01*
X75287804Y-157122196D01*
X74618824Y-156120995D01*
X74370000Y-154870069D01*
X74370000Y-154746798D01*
X74553871Y-155191801D01*
X75940897Y-156581250D01*
X77754061Y-157334141D01*
X79717325Y-157335854D01*
X81531801Y-156586129D01*
X82921250Y-155199103D01*
X83674141Y-153385939D01*
X83675854Y-151422675D01*
X83345022Y-150622000D01*
X92597163Y-150622000D01*
X92389460Y-150829341D01*
X92240270Y-151188630D01*
X92239931Y-151577663D01*
X92388493Y-151937212D01*
X92663341Y-152212540D01*
X93022630Y-152361730D01*
X93165968Y-152361855D01*
X93166289Y-152362069D01*
X93269294Y-152430895D01*
X93560899Y-152488899D01*
X148755101Y-152488899D01*
X149046706Y-152430895D01*
X149149896Y-152361945D01*
X149291663Y-152362069D01*
X149651212Y-152213507D01*
X149926540Y-151938659D01*
X150075730Y-151579370D01*
X150076069Y-151190337D01*
X149927507Y-150830788D01*
X149652659Y-150555460D01*
X149293370Y-150406270D01*
X148904337Y-150405931D01*
X148544788Y-150554493D01*
X148269460Y-150829341D01*
X148213171Y-150964899D01*
X94102920Y-150964899D01*
X94047507Y-150830788D01*
X93839083Y-150622000D01*
X119888000Y-150622000D01*
X120179605Y-150563996D01*
X120426815Y-150398815D01*
X125915477Y-144910153D01*
X130085931Y-144910153D01*
X130234493Y-145269702D01*
X130509341Y-145545030D01*
X130868630Y-145694220D01*
X131024593Y-145694356D01*
X131089905Y-145737996D01*
X131381510Y-145796000D01*
X146444917Y-145796000D01*
X146511341Y-145862540D01*
X146870630Y-146011730D01*
X147259663Y-146012069D01*
X147619212Y-145863507D01*
X147894540Y-145588659D01*
X148043730Y-145229370D01*
X148044069Y-144840337D01*
X147917283Y-144533490D01*
X147943117Y-144544217D01*
X148332150Y-144544556D01*
X148691699Y-144395994D01*
X148967027Y-144121146D01*
X149116217Y-143761857D01*
X149116556Y-143372824D01*
X148967994Y-143013275D01*
X148693146Y-142737947D01*
X148333857Y-142588757D01*
X147944824Y-142588418D01*
X147585275Y-142736980D01*
X147574236Y-142748000D01*
X132447083Y-142748000D01*
X132380659Y-142681460D01*
X132021370Y-142532270D01*
X131632337Y-142531931D01*
X131272788Y-142680493D01*
X130997460Y-142955341D01*
X130848270Y-143314630D01*
X130847931Y-143703663D01*
X130863466Y-143741260D01*
X130510788Y-143886983D01*
X130235460Y-144161831D01*
X130086270Y-144521120D01*
X130085931Y-144910153D01*
X125915477Y-144910153D01*
X131094815Y-139730816D01*
X131259996Y-139483605D01*
X131279014Y-139387996D01*
X131318000Y-139192000D01*
X131318000Y-134112000D01*
X131327907Y-134112000D01*
X131440946Y-134680285D01*
X131762853Y-135162054D01*
X132092026Y-135382000D01*
X131762853Y-135601946D01*
X131440946Y-136083715D01*
X131327907Y-136652000D01*
X131440946Y-137220285D01*
X131762853Y-137702054D01*
X132092026Y-137922000D01*
X131762853Y-138141946D01*
X131440946Y-138623715D01*
X131327907Y-139192000D01*
X131440946Y-139760285D01*
X131762853Y-140242054D01*
X132244622Y-140563961D01*
X132812907Y-140677000D01*
X132871093Y-140677000D01*
X133439378Y-140563961D01*
X133921147Y-140242054D01*
X134243054Y-139760285D01*
X134356093Y-139192000D01*
X134243054Y-138623715D01*
X133921147Y-138141946D01*
X133591974Y-137922000D01*
X133921147Y-137702054D01*
X134243054Y-137220285D01*
X134356093Y-136652000D01*
X134243054Y-136083715D01*
X133921147Y-135601946D01*
X133591974Y-135382000D01*
X133921147Y-135162054D01*
X134243054Y-134680285D01*
X134356093Y-134112000D01*
X134243054Y-133543715D01*
X133921147Y-133061946D01*
X133576094Y-132831390D01*
X133870694Y-132643020D01*
X134202251Y-132167829D01*
X134225133Y-132112524D01*
X134129685Y-131889500D01*
X133159500Y-131889500D01*
X133159500Y-131909500D01*
X132524500Y-131909500D01*
X132524500Y-131889500D01*
X131554315Y-131889500D01*
X131458867Y-132112524D01*
X131481749Y-132167829D01*
X131813306Y-132643020D01*
X132107906Y-132831390D01*
X131762853Y-133061946D01*
X131440946Y-133543715D01*
X131327907Y-134112000D01*
X131318000Y-134112000D01*
X131318000Y-126299630D01*
X131344560Y-126273070D01*
X131344560Y-127342000D01*
X131388838Y-127577317D01*
X131527910Y-127793441D01*
X131740110Y-127938431D01*
X131807541Y-127952086D01*
X131762853Y-127981946D01*
X131440946Y-128463715D01*
X131327907Y-129032000D01*
X131440946Y-129600285D01*
X131762853Y-130082054D01*
X132107906Y-130312610D01*
X131813306Y-130500980D01*
X131481749Y-130976171D01*
X131458867Y-131031476D01*
X131554315Y-131254500D01*
X132524500Y-131254500D01*
X132524500Y-131234500D01*
X133159500Y-131234500D01*
X133159500Y-131254500D01*
X134129685Y-131254500D01*
X134225133Y-131031476D01*
X134202251Y-130976171D01*
X133870694Y-130500980D01*
X133576094Y-130312610D01*
X133921147Y-130082054D01*
X134243054Y-129600285D01*
X134356093Y-129032000D01*
X134243054Y-128463715D01*
X133921147Y-127981946D01*
X133879548Y-127954150D01*
X133927317Y-127945162D01*
X134143441Y-127806090D01*
X134234775Y-127672419D01*
X151828500Y-145266144D01*
X151828500Y-149292234D01*
X151616769Y-149503596D01*
X151384265Y-150063528D01*
X151383736Y-150669812D01*
X151615262Y-151230149D01*
X152043596Y-151659231D01*
X152603528Y-151891735D01*
X153209812Y-151892264D01*
X153770149Y-151660738D01*
X154199231Y-151232404D01*
X154307671Y-150971250D01*
X155995000Y-150971250D01*
X155995000Y-151471309D01*
X156091673Y-151704698D01*
X156270301Y-151883327D01*
X156435858Y-151951903D01*
X156429946Y-151955853D01*
X156108039Y-152437622D01*
X155995000Y-153005907D01*
X155995000Y-153064093D01*
X156108039Y-153632378D01*
X156429946Y-154114147D01*
X156911715Y-154436054D01*
X157480000Y-154549093D01*
X158048285Y-154436054D01*
X158530054Y-154114147D01*
X158851961Y-153632378D01*
X158902694Y-153377325D01*
X193184146Y-153377325D01*
X193933871Y-155191801D01*
X195320897Y-156581250D01*
X197134061Y-157334141D01*
X199097325Y-157335854D01*
X200911801Y-156586129D01*
X202301250Y-155199103D01*
X203054141Y-153385939D01*
X203055854Y-151422675D01*
X202306129Y-149608199D01*
X200919103Y-148218750D01*
X199105939Y-147465859D01*
X197142675Y-147464146D01*
X195328199Y-148213871D01*
X193938750Y-149600897D01*
X193185859Y-151414061D01*
X193184146Y-153377325D01*
X158902694Y-153377325D01*
X158965000Y-153064093D01*
X158965000Y-153005907D01*
X158851961Y-152437622D01*
X158530054Y-151955853D01*
X158524142Y-151951903D01*
X158689699Y-151883327D01*
X158868327Y-151704698D01*
X158965000Y-151471309D01*
X158965000Y-150971250D01*
X158806250Y-150812500D01*
X157797500Y-150812500D01*
X157797500Y-150832500D01*
X157162500Y-150832500D01*
X157162500Y-150812500D01*
X156153750Y-150812500D01*
X155995000Y-150971250D01*
X154307671Y-150971250D01*
X154431735Y-150672472D01*
X154432264Y-150066188D01*
X154206044Y-149518691D01*
X155995000Y-149518691D01*
X155995000Y-150018750D01*
X156153750Y-150177500D01*
X157162500Y-150177500D01*
X157162500Y-149168750D01*
X157797500Y-149168750D01*
X157797500Y-150177500D01*
X158806250Y-150177500D01*
X158965000Y-150018750D01*
X158965000Y-149518691D01*
X158868327Y-149285302D01*
X158689699Y-149106673D01*
X158456310Y-149010000D01*
X157956250Y-149010000D01*
X157797500Y-149168750D01*
X157162500Y-149168750D01*
X157003750Y-149010000D01*
X156503690Y-149010000D01*
X156270301Y-149106673D01*
X156091673Y-149285302D01*
X155995000Y-149518691D01*
X154206044Y-149518691D01*
X154200738Y-149505851D01*
X153987500Y-149292241D01*
X153987500Y-145303430D01*
X154046946Y-145602285D01*
X154368853Y-146084054D01*
X154850622Y-146405961D01*
X155418907Y-146519000D01*
X155477093Y-146519000D01*
X156045378Y-146405961D01*
X156527147Y-146084054D01*
X156527971Y-146082821D01*
X156534838Y-146119317D01*
X156673910Y-146335441D01*
X156886110Y-146480431D01*
X157138000Y-146531440D01*
X158838000Y-146531440D01*
X159073317Y-146487162D01*
X159289441Y-146348090D01*
X159434431Y-146135890D01*
X159485440Y-145884000D01*
X159485440Y-144496907D01*
X179236000Y-144496907D01*
X179236000Y-144555093D01*
X179349039Y-145123378D01*
X179670946Y-145605147D01*
X180152715Y-145927054D01*
X180721000Y-146040093D01*
X181289285Y-145927054D01*
X181771054Y-145605147D01*
X181991000Y-145275974D01*
X182210946Y-145605147D01*
X182692715Y-145927054D01*
X183261000Y-146040093D01*
X183829285Y-145927054D01*
X184311054Y-145605147D01*
X184531000Y-145275974D01*
X184750946Y-145605147D01*
X185232715Y-145927054D01*
X185801000Y-146040093D01*
X186369285Y-145927054D01*
X186851054Y-145605147D01*
X187071000Y-145275974D01*
X187290946Y-145605147D01*
X187772715Y-145927054D01*
X188341000Y-146040093D01*
X188909285Y-145927054D01*
X189391054Y-145605147D01*
X189611000Y-145275974D01*
X189830946Y-145605147D01*
X190312715Y-145927054D01*
X190881000Y-146040093D01*
X191449285Y-145927054D01*
X191931054Y-145605147D01*
X191960403Y-145561223D01*
X192032673Y-145735698D01*
X192211301Y-145914327D01*
X192444690Y-146011000D01*
X192944750Y-146011000D01*
X193103500Y-145852250D01*
X193103500Y-144843500D01*
X193738500Y-144843500D01*
X193738500Y-145852250D01*
X193897250Y-146011000D01*
X194397310Y-146011000D01*
X194630699Y-145914327D01*
X194809327Y-145735698D01*
X194906000Y-145502309D01*
X194906000Y-145002250D01*
X194747250Y-144843500D01*
X193738500Y-144843500D01*
X193103500Y-144843500D01*
X193083500Y-144843500D01*
X193083500Y-144208500D01*
X193103500Y-144208500D01*
X193103500Y-143199750D01*
X193738500Y-143199750D01*
X193738500Y-144208500D01*
X194747250Y-144208500D01*
X194906000Y-144049750D01*
X194906000Y-143549691D01*
X194809327Y-143316302D01*
X194630699Y-143137673D01*
X194397310Y-143041000D01*
X193897250Y-143041000D01*
X193738500Y-143199750D01*
X193103500Y-143199750D01*
X192944750Y-143041000D01*
X192444690Y-143041000D01*
X192211301Y-143137673D01*
X192032673Y-143316302D01*
X191960403Y-143490777D01*
X191931054Y-143446853D01*
X191449285Y-143124946D01*
X190881000Y-143011907D01*
X190312715Y-143124946D01*
X189830946Y-143446853D01*
X189611000Y-143776026D01*
X189391054Y-143446853D01*
X188909285Y-143124946D01*
X188341000Y-143011907D01*
X187772715Y-143124946D01*
X187290946Y-143446853D01*
X187071000Y-143776026D01*
X186851054Y-143446853D01*
X186369285Y-143124946D01*
X185801000Y-143011907D01*
X185232715Y-143124946D01*
X184750946Y-143446853D01*
X184531000Y-143776026D01*
X184311054Y-143446853D01*
X183829285Y-143124946D01*
X183261000Y-143011907D01*
X182692715Y-143124946D01*
X182210946Y-143446853D01*
X181991000Y-143776026D01*
X181771054Y-143446853D01*
X181289285Y-143124946D01*
X180721000Y-143011907D01*
X180152715Y-143124946D01*
X179670946Y-143446853D01*
X179349039Y-143928622D01*
X179236000Y-144496907D01*
X159485440Y-144496907D01*
X159485440Y-144184000D01*
X159441162Y-143948683D01*
X159302090Y-143732559D01*
X159089890Y-143587569D01*
X159022459Y-143573914D01*
X159067147Y-143544054D01*
X159389054Y-143062285D01*
X159502093Y-142494000D01*
X159389054Y-141925715D01*
X159067147Y-141443946D01*
X158737974Y-141224000D01*
X159067147Y-141004054D01*
X159389054Y-140522285D01*
X159502093Y-139954000D01*
X159389054Y-139385715D01*
X159067147Y-138903946D01*
X158737974Y-138684000D01*
X159067147Y-138464054D01*
X159389054Y-137982285D01*
X159502093Y-137414000D01*
X159389054Y-136845715D01*
X159067147Y-136363946D01*
X158737974Y-136144000D01*
X159067147Y-135924054D01*
X159389054Y-135442285D01*
X159502093Y-134874000D01*
X159389054Y-134305715D01*
X159067147Y-133823946D01*
X158737974Y-133604000D01*
X159067147Y-133384054D01*
X159389054Y-132902285D01*
X159502093Y-132334000D01*
X159389054Y-131765715D01*
X159067147Y-131283946D01*
X158737974Y-131064000D01*
X159067147Y-130844054D01*
X159389054Y-130362285D01*
X159502093Y-129794000D01*
X159389054Y-129225715D01*
X159067147Y-128743946D01*
X158737974Y-128524000D01*
X159067147Y-128304054D01*
X159389054Y-127822285D01*
X159502093Y-127254000D01*
X159389054Y-126685715D01*
X159067147Y-126203946D01*
X158737974Y-125984000D01*
X159067147Y-125764054D01*
X159389054Y-125282285D01*
X159502093Y-124714000D01*
X159389054Y-124145715D01*
X159067147Y-123663946D01*
X158737974Y-123444000D01*
X159067147Y-123224054D01*
X159389054Y-122742285D01*
X159502093Y-122174000D01*
X159389054Y-121605715D01*
X159067147Y-121123946D01*
X158737974Y-120904000D01*
X159067147Y-120684054D01*
X159389054Y-120202285D01*
X159502093Y-119634000D01*
X159389054Y-119065715D01*
X159067147Y-118583946D01*
X158737974Y-118364000D01*
X159067147Y-118144054D01*
X159389054Y-117662285D01*
X159421572Y-117498808D01*
X179203382Y-137280618D01*
X179491794Y-137473329D01*
X179832000Y-137541000D01*
X182047170Y-137541000D01*
X181950371Y-137637630D01*
X181737243Y-138150900D01*
X181736758Y-138706661D01*
X181948990Y-139220303D01*
X182341630Y-139613629D01*
X182854900Y-139826757D01*
X183410661Y-139827242D01*
X183924303Y-139615010D01*
X184317629Y-139222370D01*
X184403949Y-139014488D01*
X184488990Y-139220303D01*
X184881630Y-139613629D01*
X185394900Y-139826757D01*
X185950661Y-139827242D01*
X186464303Y-139615010D01*
X186857629Y-139222370D01*
X186943949Y-139014488D01*
X187028990Y-139220303D01*
X187421630Y-139613629D01*
X187934900Y-139826757D01*
X188490661Y-139827242D01*
X189004303Y-139615010D01*
X189397629Y-139222370D01*
X189483949Y-139014488D01*
X189568990Y-139220303D01*
X189961630Y-139613629D01*
X190474900Y-139826757D01*
X191030661Y-139827242D01*
X191544303Y-139615010D01*
X191937629Y-139222370D01*
X192023949Y-139014488D01*
X192108990Y-139220303D01*
X192501630Y-139613629D01*
X193014900Y-139826757D01*
X193570661Y-139827242D01*
X194084303Y-139615010D01*
X194477629Y-139222370D01*
X194563949Y-139014488D01*
X194648990Y-139220303D01*
X195041630Y-139613629D01*
X195554900Y-139826757D01*
X196110661Y-139827242D01*
X196624303Y-139615010D01*
X197017629Y-139222370D01*
X197103949Y-139014488D01*
X197188990Y-139220303D01*
X197581630Y-139613629D01*
X198094900Y-139826757D01*
X198650661Y-139827242D01*
X199164303Y-139615010D01*
X199258661Y-139520816D01*
X200272197Y-139520816D01*
X200354704Y-139739968D01*
X200898581Y-139854286D01*
X201444805Y-139751769D01*
X201473296Y-139739968D01*
X201555803Y-139520816D01*
X200914000Y-138879013D01*
X200272197Y-139520816D01*
X199258661Y-139520816D01*
X199557629Y-139222370D01*
X199647599Y-139005698D01*
X199823184Y-139071803D01*
X200464987Y-138430000D01*
X201363013Y-138430000D01*
X202004816Y-139071803D01*
X202223968Y-138989296D01*
X202338286Y-138445419D01*
X202235769Y-137899195D01*
X202223968Y-137870704D01*
X202004816Y-137788197D01*
X201363013Y-138430000D01*
X200464987Y-138430000D01*
X199823184Y-137788197D01*
X199647671Y-137854275D01*
X199559010Y-137639697D01*
X199259022Y-137339184D01*
X200272197Y-137339184D01*
X200914000Y-137980987D01*
X201555803Y-137339184D01*
X201473296Y-137120032D01*
X200929419Y-137005714D01*
X200383195Y-137108231D01*
X200354704Y-137120032D01*
X200272197Y-137339184D01*
X199259022Y-137339184D01*
X199166370Y-137246371D01*
X198653100Y-137033243D01*
X198097339Y-137032758D01*
X197583697Y-137244990D01*
X197190371Y-137637630D01*
X197104051Y-137845512D01*
X197019010Y-137639697D01*
X196626370Y-137246371D01*
X196113100Y-137033243D01*
X195694113Y-137032877D01*
X192906618Y-134245382D01*
X192764273Y-134150270D01*
X192618206Y-134052671D01*
X192278000Y-133985000D01*
X180962236Y-133985000D01*
X175095089Y-128117853D01*
X175178212Y-128083507D01*
X175453540Y-127808659D01*
X175466886Y-127776517D01*
X181071184Y-133380815D01*
X181252609Y-133502039D01*
X181318395Y-133545996D01*
X181610000Y-133604000D01*
X181750917Y-133604000D01*
X181817341Y-133670540D01*
X182176630Y-133819730D01*
X182565663Y-133820069D01*
X182925212Y-133671507D01*
X183200540Y-133396659D01*
X183349730Y-133037370D01*
X183350069Y-132648337D01*
X183201507Y-132288788D01*
X183119960Y-132207099D01*
X183200540Y-132126659D01*
X183349730Y-131767370D01*
X183350069Y-131378337D01*
X183201507Y-131018788D01*
X182926659Y-130743460D01*
X182567370Y-130594270D01*
X182446605Y-130594165D01*
X182692540Y-130348659D01*
X182841730Y-129989370D01*
X182841769Y-129943661D01*
X202818758Y-129943661D01*
X203030990Y-130457303D01*
X203423630Y-130850629D01*
X203936900Y-131063757D01*
X204492661Y-131064242D01*
X205006303Y-130852010D01*
X205399629Y-130459370D01*
X205612757Y-129946100D01*
X205613242Y-129390339D01*
X205401010Y-128876697D01*
X205008370Y-128483371D01*
X204495100Y-128270243D01*
X203939339Y-128269758D01*
X203425697Y-128481990D01*
X203032371Y-128874630D01*
X202819243Y-129387900D01*
X202818758Y-129943661D01*
X182841769Y-129943661D01*
X182842069Y-129600337D01*
X182693507Y-129240788D01*
X182418659Y-128965460D01*
X182059370Y-128816270D01*
X181963818Y-128816187D01*
X179591292Y-126443661D01*
X202818758Y-126443661D01*
X203030990Y-126957303D01*
X203423630Y-127350629D01*
X203936900Y-127563757D01*
X204492661Y-127564242D01*
X205006303Y-127352010D01*
X205399629Y-126959370D01*
X205612757Y-126446100D01*
X205613242Y-125890339D01*
X205401010Y-125376697D01*
X205008370Y-124983371D01*
X204495100Y-124770243D01*
X203939339Y-124769758D01*
X203425697Y-124981990D01*
X203032371Y-125374630D01*
X202819243Y-125887900D01*
X202818758Y-126443661D01*
X179591292Y-126443661D01*
X178550921Y-125403290D01*
X178624512Y-125433848D01*
X179013545Y-125434187D01*
X179373094Y-125285625D01*
X179648422Y-125010777D01*
X179797612Y-124651488D01*
X179797951Y-124262455D01*
X179649389Y-123902906D01*
X179374541Y-123627578D01*
X179015252Y-123478388D01*
X178919700Y-123478305D01*
X171450000Y-116008606D01*
X171450000Y-113733854D01*
X171648496Y-113816277D01*
X172204257Y-113816762D01*
X172717899Y-113604530D01*
X173111225Y-113211890D01*
X173197545Y-113004008D01*
X173282586Y-113209823D01*
X173675226Y-113603149D01*
X174188496Y-113816277D01*
X174744257Y-113816762D01*
X175257899Y-113604530D01*
X175651225Y-113211890D01*
X175737545Y-113004008D01*
X175822586Y-113209823D01*
X176215226Y-113603149D01*
X176728496Y-113816277D01*
X177284257Y-113816762D01*
X177797899Y-113604530D01*
X178191225Y-113211890D01*
X178277545Y-113004008D01*
X178362586Y-113209823D01*
X178755226Y-113603149D01*
X179268496Y-113816277D01*
X179824257Y-113816762D01*
X180337899Y-113604530D01*
X180731225Y-113211890D01*
X180817545Y-113004008D01*
X180902586Y-113209823D01*
X181295226Y-113603149D01*
X181808496Y-113816277D01*
X182364257Y-113816762D01*
X182490713Y-113764511D01*
X182490354Y-114176181D01*
X182702586Y-114689823D01*
X183095226Y-115083149D01*
X183608496Y-115296277D01*
X184164257Y-115296762D01*
X184677899Y-115084530D01*
X185071225Y-114691890D01*
X185284353Y-114178620D01*
X185284838Y-113622859D01*
X185072606Y-113109217D01*
X184679966Y-112715891D01*
X184166696Y-112502763D01*
X183610935Y-112502278D01*
X183484479Y-112554529D01*
X183484838Y-112142859D01*
X183272606Y-111629217D01*
X182879966Y-111235891D01*
X182575969Y-111109661D01*
X184434815Y-109250815D01*
X184599996Y-109003605D01*
X184613517Y-108935630D01*
X184658000Y-108712000D01*
X184658000Y-103065659D01*
X184910698Y-102896811D01*
X185166000Y-102514725D01*
X185421302Y-102896811D01*
X185674000Y-103065659D01*
X185674000Y-118504917D01*
X185607460Y-118571341D01*
X185458270Y-118930630D01*
X185457931Y-119319663D01*
X185606493Y-119679212D01*
X185881341Y-119954540D01*
X186240630Y-120103730D01*
X186629663Y-120104069D01*
X186989212Y-119955507D01*
X187264540Y-119680659D01*
X187413730Y-119321370D01*
X187414069Y-118932337D01*
X187265507Y-118572788D01*
X187198000Y-118505163D01*
X187198000Y-116671915D01*
X187510630Y-116801730D01*
X187899663Y-116802069D01*
X188259212Y-116653507D01*
X188534540Y-116378659D01*
X188683730Y-116019370D01*
X188684069Y-115630337D01*
X188535507Y-115270788D01*
X188468000Y-115203163D01*
X188468000Y-103175547D01*
X188658500Y-103090126D01*
X188658500Y-102171500D01*
X188638500Y-102171500D01*
X188638500Y-101536500D01*
X188658500Y-101536500D01*
X188658500Y-100617874D01*
X188468000Y-100532453D01*
X188468000Y-95819630D01*
X188654473Y-95633157D01*
X188976000Y-95697113D01*
X189484000Y-95596065D01*
X189484000Y-100532453D01*
X189293500Y-100617874D01*
X189293500Y-101536500D01*
X189313500Y-101536500D01*
X189313500Y-102171500D01*
X189293500Y-102171500D01*
X189293500Y-103090126D01*
X189484000Y-103175547D01*
X189484000Y-111252000D01*
X189522154Y-111443812D01*
X189521931Y-111699663D01*
X189670493Y-112059212D01*
X189945341Y-112334540D01*
X190304630Y-112483730D01*
X190693663Y-112484069D01*
X191053212Y-112335507D01*
X191328540Y-112060659D01*
X191477730Y-111701370D01*
X191478069Y-111312337D01*
X191329507Y-110952788D01*
X191054659Y-110677460D01*
X191008000Y-110658085D01*
X191008000Y-103216065D01*
X191516000Y-103317113D01*
X192065151Y-103207880D01*
X192530698Y-102896811D01*
X192786000Y-102514725D01*
X193041302Y-102896811D01*
X193506849Y-103207880D01*
X194056000Y-103317113D01*
X194605151Y-103207880D01*
X195070698Y-102896811D01*
X195326000Y-102514725D01*
X195581302Y-102896811D01*
X196046849Y-103207880D01*
X196596000Y-103317113D01*
X197145151Y-103207880D01*
X197610698Y-102896811D01*
X197866000Y-102514725D01*
X198121302Y-102896811D01*
X198586849Y-103207880D01*
X199136000Y-103317113D01*
X199685151Y-103207880D01*
X200150698Y-102896811D01*
X200406000Y-102514725D01*
X200661302Y-102896811D01*
X201126849Y-103207880D01*
X201676000Y-103317113D01*
X202225151Y-103207880D01*
X202690698Y-102896811D01*
X203001767Y-102431264D01*
X203111000Y-101882113D01*
X203111000Y-101825887D01*
X203001767Y-101276736D01*
X202690698Y-100811189D01*
X202225151Y-100500120D01*
X201676000Y-100390887D01*
X201126849Y-100500120D01*
X200661302Y-100811189D01*
X200406000Y-101193275D01*
X200150698Y-100811189D01*
X199685151Y-100500120D01*
X199136000Y-100390887D01*
X198586849Y-100500120D01*
X198121302Y-100811189D01*
X197866000Y-101193275D01*
X197610698Y-100811189D01*
X197145151Y-100500120D01*
X196596000Y-100390887D01*
X196274471Y-100454843D01*
X195033985Y-99214357D01*
X195034067Y-99120337D01*
X194885505Y-98760788D01*
X194610657Y-98485460D01*
X194251368Y-98336270D01*
X193862335Y-98335931D01*
X193502786Y-98484493D01*
X193227458Y-98759341D01*
X193078268Y-99118630D01*
X193077929Y-99507663D01*
X193226491Y-99867212D01*
X193501339Y-100142540D01*
X193860628Y-100291730D01*
X193956181Y-100291813D01*
X194055379Y-100391011D01*
X193506849Y-100500120D01*
X193041302Y-100811189D01*
X192786000Y-101193275D01*
X192530698Y-100811189D01*
X192065151Y-100500120D01*
X191516000Y-100390887D01*
X191008000Y-100491935D01*
X191008000Y-95819630D01*
X191194473Y-95633157D01*
X191516000Y-95697113D01*
X192065151Y-95587880D01*
X192530698Y-95276811D01*
X192796542Y-94878947D01*
X193028657Y-95235929D01*
X193490280Y-95552809D01*
X193523489Y-95566538D01*
X193738500Y-95470126D01*
X193738500Y-94551500D01*
X193718500Y-94551500D01*
X193718500Y-93916500D01*
X193738500Y-93916500D01*
X193738500Y-92997874D01*
X194373500Y-92997874D01*
X194373500Y-93916500D01*
X194393500Y-93916500D01*
X194393500Y-94551500D01*
X194373500Y-94551500D01*
X194373500Y-95470126D01*
X194588511Y-95566538D01*
X194621720Y-95552809D01*
X195083343Y-95235929D01*
X195315458Y-94878947D01*
X195581302Y-95276811D01*
X196046849Y-95587880D01*
X196596000Y-95697113D01*
X197145151Y-95587880D01*
X197610698Y-95276811D01*
X197866000Y-94894725D01*
X198121302Y-95276811D01*
X198586849Y-95587880D01*
X199136000Y-95697113D01*
X199685151Y-95587880D01*
X200150698Y-95276811D01*
X200416542Y-94878947D01*
X200648657Y-95235929D01*
X201110280Y-95552809D01*
X201143489Y-95566538D01*
X201358500Y-95470126D01*
X201358500Y-94551500D01*
X201993500Y-94551500D01*
X201993500Y-95470126D01*
X202208511Y-95566538D01*
X202241720Y-95552809D01*
X202703343Y-95235929D01*
X203008563Y-94766515D01*
X202916711Y-94551500D01*
X201993500Y-94551500D01*
X201358500Y-94551500D01*
X201338500Y-94551500D01*
X201338500Y-93916500D01*
X201358500Y-93916500D01*
X201358500Y-92997874D01*
X201993500Y-92997874D01*
X201993500Y-93916500D01*
X202916711Y-93916500D01*
X203008563Y-93701485D01*
X202703343Y-93232071D01*
X202241720Y-92915191D01*
X202208511Y-92901462D01*
X201993500Y-92997874D01*
X201358500Y-92997874D01*
X201143489Y-92901462D01*
X201110280Y-92915191D01*
X200648657Y-93232071D01*
X200416542Y-93589053D01*
X200150698Y-93191189D01*
X199685151Y-92880120D01*
X199136000Y-92770887D01*
X198586849Y-92880120D01*
X198121302Y-93191189D01*
X197866000Y-93573275D01*
X197610698Y-93191189D01*
X197145151Y-92880120D01*
X196596000Y-92770887D01*
X196046849Y-92880120D01*
X195581302Y-93191189D01*
X195315458Y-93589053D01*
X195083343Y-93232071D01*
X194621720Y-92915191D01*
X194588511Y-92901462D01*
X194373500Y-92997874D01*
X193738500Y-92997874D01*
X193523489Y-92901462D01*
X193490280Y-92915191D01*
X193028657Y-93232071D01*
X192796542Y-93589053D01*
X192530698Y-93191189D01*
X192065151Y-92880120D01*
X191516000Y-92770887D01*
X190966849Y-92880120D01*
X190501302Y-93191189D01*
X190246000Y-93573275D01*
X189990698Y-93191189D01*
X189525151Y-92880120D01*
X188976000Y-92770887D01*
X188426849Y-92880120D01*
X187961302Y-93191189D01*
X187706000Y-93573275D01*
X187450698Y-93191189D01*
X186985151Y-92880120D01*
X186436000Y-92770887D01*
X186114473Y-92834843D01*
X184150000Y-90870370D01*
X184150000Y-87671747D01*
X184208707Y-87647490D01*
X184519413Y-87337325D01*
X193184146Y-87337325D01*
X193933871Y-89151801D01*
X195320897Y-90541250D01*
X197134061Y-91294141D01*
X199097325Y-91295854D01*
X200911801Y-90546129D01*
X202301250Y-89159103D01*
X203054141Y-87345939D01*
X203055854Y-85382675D01*
X202306129Y-83568199D01*
X200919103Y-82178750D01*
X199105939Y-81425859D01*
X197142675Y-81424146D01*
X195328199Y-82173871D01*
X193938750Y-83560897D01*
X193185859Y-85374061D01*
X193184146Y-87337325D01*
X184519413Y-87337325D01*
X184602033Y-87254850D01*
X184815161Y-86741580D01*
X184815646Y-86185819D01*
X184603414Y-85672177D01*
X184210774Y-85278851D01*
X183697504Y-85065723D01*
X183141743Y-85065238D01*
X182628101Y-85277470D01*
X182234775Y-85670110D01*
X182148455Y-85877992D01*
X182063414Y-85672177D01*
X181670774Y-85278851D01*
X181157504Y-85065723D01*
X180601743Y-85065238D01*
X180088101Y-85277470D01*
X179694775Y-85670110D01*
X179608455Y-85877992D01*
X179523414Y-85672177D01*
X179130774Y-85278851D01*
X178617504Y-85065723D01*
X178061743Y-85065238D01*
X177548101Y-85277470D01*
X177154775Y-85670110D01*
X177068455Y-85877992D01*
X176983414Y-85672177D01*
X176590774Y-85278851D01*
X176077504Y-85065723D01*
X175521743Y-85065238D01*
X175008101Y-85277470D01*
X174614775Y-85670110D01*
X174528455Y-85877992D01*
X174443414Y-85672177D01*
X174050774Y-85278851D01*
X173537504Y-85065723D01*
X172981743Y-85065238D01*
X172468101Y-85277470D01*
X172074775Y-85670110D01*
X171861647Y-86183380D01*
X171861162Y-86739141D01*
X172073394Y-87252783D01*
X172466000Y-87646075D01*
X172466000Y-91186000D01*
X172524004Y-91477605D01*
X172629838Y-91635996D01*
X172689185Y-91724815D01*
X173735380Y-92771010D01*
X173414473Y-92834843D01*
X171196000Y-90616370D01*
X171196000Y-87810705D01*
X171224303Y-87799010D01*
X171617629Y-87406370D01*
X171830757Y-86893100D01*
X171831242Y-86337339D01*
X171619010Y-85823697D01*
X171226370Y-85430371D01*
X170713100Y-85217243D01*
X170157339Y-85216758D01*
X169643697Y-85428990D01*
X169250371Y-85821630D01*
X169037243Y-86334900D01*
X169036758Y-86890661D01*
X169248990Y-87404303D01*
X169641630Y-87797629D01*
X169672000Y-87810240D01*
X169672000Y-90932000D01*
X169730004Y-91223605D01*
X169874595Y-91440000D01*
X169895185Y-91470815D01*
X171195380Y-92771010D01*
X170646849Y-92880120D01*
X170181302Y-93191189D01*
X169926000Y-93573275D01*
X169670698Y-93191189D01*
X169205151Y-92880120D01*
X168656000Y-92770887D01*
X168106849Y-92880120D01*
X167641302Y-93191189D01*
X167330233Y-93656736D01*
X167221000Y-94205887D01*
X167221000Y-94262113D01*
X167330233Y-94811264D01*
X167641302Y-95276811D01*
X168106849Y-95587880D01*
X168656000Y-95697113D01*
X169205151Y-95587880D01*
X169670698Y-95276811D01*
X169926000Y-94894725D01*
X170181302Y-95276811D01*
X170646849Y-95587880D01*
X171196000Y-95697113D01*
X171745151Y-95587880D01*
X172210698Y-95276811D01*
X172466000Y-94894725D01*
X172721302Y-95276811D01*
X173186849Y-95587880D01*
X173736000Y-95697113D01*
X174285151Y-95587880D01*
X174750698Y-95276811D01*
X175006000Y-94894725D01*
X175261302Y-95276811D01*
X175726849Y-95587880D01*
X176276000Y-95697113D01*
X176825151Y-95587880D01*
X177290698Y-95276811D01*
X177546000Y-94894725D01*
X177801302Y-95276811D01*
X178266849Y-95587880D01*
X178816000Y-95697113D01*
X179365151Y-95587880D01*
X179830698Y-95276811D01*
X180086000Y-94894725D01*
X180341302Y-95276811D01*
X180806849Y-95587880D01*
X181356000Y-95697113D01*
X181905151Y-95587880D01*
X182370698Y-95276811D01*
X182626000Y-94894725D01*
X182881302Y-95276811D01*
X183346849Y-95587880D01*
X183896000Y-95697113D01*
X184445151Y-95587880D01*
X184910698Y-95276811D01*
X185166000Y-94894725D01*
X185421302Y-95276811D01*
X185886849Y-95587880D01*
X186436000Y-95697113D01*
X186944000Y-95596065D01*
X186944000Y-100491935D01*
X186436000Y-100390887D01*
X185886849Y-100500120D01*
X185421302Y-100811189D01*
X185166000Y-101193275D01*
X184910698Y-100811189D01*
X184445151Y-100500120D01*
X183896000Y-100390887D01*
X183346849Y-100500120D01*
X182881302Y-100811189D01*
X182626000Y-101193275D01*
X182370698Y-100811189D01*
X181905151Y-100500120D01*
X181356000Y-100390887D01*
X180806849Y-100500120D01*
X180341302Y-100811189D01*
X180086000Y-101193275D01*
X179830698Y-100811189D01*
X179365151Y-100500120D01*
X178816000Y-100390887D01*
X178269753Y-100499542D01*
X178270069Y-100136337D01*
X178260877Y-100114090D01*
X180285516Y-100114090D01*
X180351940Y-100180630D01*
X180711229Y-100329820D01*
X181100262Y-100330159D01*
X181459811Y-100181597D01*
X181735139Y-99906749D01*
X181884329Y-99547460D01*
X181884668Y-99158427D01*
X181736106Y-98798878D01*
X181461258Y-98523550D01*
X181101969Y-98374360D01*
X180712936Y-98374021D01*
X180353387Y-98522583D01*
X180285762Y-98590090D01*
X162673091Y-98590090D01*
X162606667Y-98523550D01*
X162247378Y-98374360D01*
X161858345Y-98374021D01*
X161498796Y-98522583D01*
X161223468Y-98797431D01*
X161074278Y-99156720D01*
X161073939Y-99545753D01*
X161083131Y-99568000D01*
X153353385Y-99568000D01*
X153377730Y-99509370D01*
X153378069Y-99120337D01*
X153229507Y-98760788D01*
X152954659Y-98485460D01*
X152595370Y-98336270D01*
X152206337Y-98335931D01*
X151846788Y-98484493D01*
X151779163Y-98552000D01*
X114413083Y-98552000D01*
X114346659Y-98485460D01*
X113987370Y-98336270D01*
X113598337Y-98335931D01*
X113238788Y-98484493D01*
X112963460Y-98759341D01*
X112814270Y-99118630D01*
X112813931Y-99507663D01*
X112838862Y-99568000D01*
X111252000Y-99568000D01*
X110960395Y-99626004D01*
X110713184Y-99791185D01*
X110459185Y-100045185D01*
X110294004Y-100292395D01*
X110253616Y-100495439D01*
X109728000Y-100390887D01*
X109178849Y-100500120D01*
X108713302Y-100811189D01*
X108458000Y-101193275D01*
X108202698Y-100811189D01*
X107737151Y-100500120D01*
X107188000Y-100390887D01*
X106638849Y-100500120D01*
X106173302Y-100811189D01*
X105907458Y-101209053D01*
X105675343Y-100852071D01*
X105213720Y-100535191D01*
X105180511Y-100521462D01*
X104965500Y-100617874D01*
X104965500Y-101536500D01*
X104985500Y-101536500D01*
X104985500Y-102171500D01*
X104965500Y-102171500D01*
X104965500Y-103090126D01*
X105180511Y-103186538D01*
X105213720Y-103172809D01*
X105675343Y-102855929D01*
X105907458Y-102498947D01*
X106173302Y-102896811D01*
X106638849Y-103207880D01*
X107188000Y-103317113D01*
X107737151Y-103207880D01*
X108202698Y-102896811D01*
X108458000Y-102514725D01*
X108713302Y-102896811D01*
X109178849Y-103207880D01*
X109250985Y-103222229D01*
X109220000Y-103378000D01*
X109220000Y-103772917D01*
X109153460Y-103839341D01*
X109004270Y-104198630D01*
X109003931Y-104587663D01*
X109152493Y-104947212D01*
X109427341Y-105222540D01*
X109786630Y-105371730D01*
X110175663Y-105372069D01*
X110535212Y-105223507D01*
X110810540Y-104948659D01*
X110959730Y-104589370D01*
X110960069Y-104200337D01*
X110811507Y-103840788D01*
X110744000Y-103773163D01*
X110744000Y-103693630D01*
X111425656Y-103011974D01*
X111718849Y-103207880D01*
X112268000Y-103317113D01*
X112817151Y-103207880D01*
X113282698Y-102896811D01*
X113538000Y-102514725D01*
X113793302Y-102896811D01*
X114258849Y-103207880D01*
X114808000Y-103317113D01*
X115357151Y-103207880D01*
X115822698Y-102896811D01*
X116078000Y-102514725D01*
X116333302Y-102896811D01*
X116798849Y-103207880D01*
X117348000Y-103317113D01*
X117897151Y-103207880D01*
X118362698Y-102896811D01*
X118673767Y-102431264D01*
X118783000Y-101882113D01*
X118783000Y-101825887D01*
X118673767Y-101276736D01*
X118550330Y-101092000D01*
X125044560Y-101092000D01*
X125044560Y-102654000D01*
X125088838Y-102889317D01*
X125227910Y-103105441D01*
X125440110Y-103250431D01*
X125692000Y-103301440D01*
X125730000Y-103301440D01*
X125730000Y-108565302D01*
X125417293Y-108694510D01*
X125023967Y-109087150D01*
X124810839Y-109600420D01*
X124810354Y-110156181D01*
X124958416Y-110514519D01*
X124573083Y-110514519D01*
X124506659Y-110447979D01*
X124147370Y-110298789D01*
X123758337Y-110298450D01*
X123398788Y-110447012D01*
X123331163Y-110514519D01*
X121219630Y-110514519D01*
X121164296Y-110459185D01*
X121103160Y-110418335D01*
X120917086Y-110294004D01*
X120625481Y-110236000D01*
X98551197Y-110236000D01*
X98709161Y-109855580D01*
X98709646Y-109299819D01*
X98497414Y-108786177D01*
X98104774Y-108392851D01*
X97790000Y-108262146D01*
X97790000Y-103065659D01*
X98042698Y-102896811D01*
X98298000Y-102514725D01*
X98553302Y-102896811D01*
X99018849Y-103207880D01*
X99568000Y-103317113D01*
X100076000Y-103216065D01*
X100076000Y-106680000D01*
X100134004Y-106971605D01*
X100239838Y-107129996D01*
X100299185Y-107218815D01*
X101569184Y-108488815D01*
X101704331Y-108579117D01*
X101816395Y-108653996D01*
X102108000Y-108712000D01*
X111900917Y-108712000D01*
X111967341Y-108778540D01*
X112326630Y-108927730D01*
X112715663Y-108928069D01*
X113075212Y-108779507D01*
X113350540Y-108504659D01*
X113499730Y-108145370D01*
X113500069Y-107756337D01*
X113351507Y-107396788D01*
X113142960Y-107187877D01*
X113350540Y-106980659D01*
X113499730Y-106621370D01*
X113500069Y-106232337D01*
X113351507Y-105872788D01*
X113076659Y-105597460D01*
X112717370Y-105448270D01*
X112328337Y-105447931D01*
X111968788Y-105596493D01*
X111901163Y-105664000D01*
X106995631Y-105664000D01*
X104330500Y-102998870D01*
X104330500Y-102171500D01*
X104310500Y-102171500D01*
X104310500Y-101536500D01*
X104330500Y-101536500D01*
X104330500Y-100617874D01*
X104115489Y-100521462D01*
X104082280Y-100535191D01*
X103620657Y-100852071D01*
X103388542Y-101209053D01*
X103122698Y-100811189D01*
X102657151Y-100500120D01*
X102108000Y-100390887D01*
X101558849Y-100500120D01*
X101408489Y-100600588D01*
X101376815Y-100553185D01*
X99931442Y-99107812D01*
X107314736Y-99107812D01*
X107546262Y-99668149D01*
X107974596Y-100097231D01*
X108534528Y-100329735D01*
X109140812Y-100330264D01*
X109701149Y-100098738D01*
X110130231Y-99670404D01*
X110362735Y-99110472D01*
X110362998Y-98808646D01*
X113031322Y-96140322D01*
X113265328Y-95790107D01*
X113347500Y-95377000D01*
X113347500Y-95179828D01*
X113538000Y-94894725D01*
X113793302Y-95276811D01*
X114258849Y-95587880D01*
X114808000Y-95697113D01*
X115357151Y-95587880D01*
X115822698Y-95276811D01*
X116078000Y-94894725D01*
X116333302Y-95276811D01*
X116798849Y-95587880D01*
X117348000Y-95697113D01*
X117897151Y-95587880D01*
X118362698Y-95276811D01*
X118673767Y-94811264D01*
X118783000Y-94262113D01*
X118783000Y-94205887D01*
X125057000Y-94205887D01*
X125057000Y-94262113D01*
X125166233Y-94811264D01*
X125477302Y-95276811D01*
X125942849Y-95587880D01*
X126492000Y-95697113D01*
X127041151Y-95587880D01*
X127506698Y-95276811D01*
X127762000Y-94894725D01*
X128017302Y-95276811D01*
X128482849Y-95587880D01*
X129032000Y-95697113D01*
X129581151Y-95587880D01*
X130046698Y-95276811D01*
X130302000Y-94894725D01*
X130557302Y-95276811D01*
X131022849Y-95587880D01*
X131572000Y-95697113D01*
X132121151Y-95587880D01*
X132586698Y-95276811D01*
X132842000Y-94894725D01*
X133097302Y-95276811D01*
X133562849Y-95587880D01*
X134112000Y-95697113D01*
X134661151Y-95587880D01*
X135126698Y-95276811D01*
X135382000Y-94894725D01*
X135637302Y-95276811D01*
X136102849Y-95587880D01*
X136652000Y-95697113D01*
X137201151Y-95587880D01*
X137666698Y-95276811D01*
X137922000Y-94894725D01*
X138177302Y-95276811D01*
X138642849Y-95587880D01*
X139192000Y-95697113D01*
X139741151Y-95587880D01*
X140206698Y-95276811D01*
X140462000Y-94894725D01*
X140717302Y-95276811D01*
X141182849Y-95587880D01*
X141732000Y-95697113D01*
X142281151Y-95587880D01*
X142746698Y-95276811D01*
X143002000Y-94894725D01*
X143257302Y-95276811D01*
X143722849Y-95587880D01*
X144272000Y-95697113D01*
X144821151Y-95587880D01*
X145286698Y-95276811D01*
X145542000Y-94894725D01*
X145797302Y-95276811D01*
X146262849Y-95587880D01*
X146812000Y-95697113D01*
X147361151Y-95587880D01*
X147826698Y-95276811D01*
X148082000Y-94894725D01*
X148337302Y-95276811D01*
X148802849Y-95587880D01*
X149352000Y-95697113D01*
X149901151Y-95587880D01*
X150366698Y-95276811D01*
X150632542Y-94878947D01*
X150864657Y-95235929D01*
X151326280Y-95552809D01*
X151359489Y-95566538D01*
X151574500Y-95470126D01*
X151574500Y-94551500D01*
X151554500Y-94551500D01*
X151554500Y-93916500D01*
X151574500Y-93916500D01*
X151574500Y-92997874D01*
X152209500Y-92997874D01*
X152209500Y-93916500D01*
X152229500Y-93916500D01*
X152229500Y-94551500D01*
X152209500Y-94551500D01*
X152209500Y-95470126D01*
X152424511Y-95566538D01*
X152457720Y-95552809D01*
X152919343Y-95235929D01*
X153151458Y-94878947D01*
X153417302Y-95276811D01*
X153882849Y-95587880D01*
X154432000Y-95697113D01*
X154981151Y-95587880D01*
X155446698Y-95276811D01*
X155702000Y-94894725D01*
X155957302Y-95276811D01*
X156422849Y-95587880D01*
X156972000Y-95697113D01*
X157521151Y-95587880D01*
X157986698Y-95276811D01*
X158252542Y-94878947D01*
X158484657Y-95235929D01*
X158946280Y-95552809D01*
X158979489Y-95566538D01*
X159194500Y-95470126D01*
X159194500Y-94551500D01*
X159829500Y-94551500D01*
X159829500Y-95470126D01*
X160044511Y-95566538D01*
X160077720Y-95552809D01*
X160539343Y-95235929D01*
X160844563Y-94766515D01*
X160752711Y-94551500D01*
X159829500Y-94551500D01*
X159194500Y-94551500D01*
X159174500Y-94551500D01*
X159174500Y-93916500D01*
X159194500Y-93916500D01*
X159194500Y-92997874D01*
X159829500Y-92997874D01*
X159829500Y-93916500D01*
X160752711Y-93916500D01*
X160844563Y-93701485D01*
X160539343Y-93232071D01*
X160077720Y-92915191D01*
X160044511Y-92901462D01*
X159829500Y-92997874D01*
X159194500Y-92997874D01*
X158979489Y-92901462D01*
X158946280Y-92915191D01*
X158484657Y-93232071D01*
X158252542Y-93589053D01*
X157986698Y-93191189D01*
X157521151Y-92880120D01*
X156972000Y-92770887D01*
X156422849Y-92880120D01*
X155957302Y-93191189D01*
X155702000Y-93573275D01*
X155446698Y-93191189D01*
X154981151Y-92880120D01*
X154432000Y-92770887D01*
X153882849Y-92880120D01*
X153417302Y-93191189D01*
X153151458Y-93589053D01*
X152919343Y-93232071D01*
X152457720Y-92915191D01*
X152424511Y-92901462D01*
X152209500Y-92997874D01*
X151574500Y-92997874D01*
X151359489Y-92901462D01*
X151326280Y-92915191D01*
X150864657Y-93232071D01*
X150632542Y-93589053D01*
X150366698Y-93191189D01*
X149901151Y-92880120D01*
X149352620Y-92771010D01*
X149921631Y-92202000D01*
X160466370Y-92202000D01*
X165519013Y-97254644D01*
X165518931Y-97348663D01*
X165667493Y-97708212D01*
X165942341Y-97983540D01*
X166301630Y-98132730D01*
X166690663Y-98133069D01*
X167050212Y-97984507D01*
X167325540Y-97709659D01*
X167474730Y-97350370D01*
X167475069Y-96961337D01*
X167326507Y-96601788D01*
X167051659Y-96326460D01*
X166692370Y-96177270D01*
X166596818Y-96177187D01*
X161320815Y-90901185D01*
X161310655Y-90894396D01*
X161073605Y-90736004D01*
X160782000Y-90678000D01*
X149606000Y-90678000D01*
X149314395Y-90736004D01*
X149215377Y-90802166D01*
X149067185Y-90901184D01*
X147133527Y-92834843D01*
X146812000Y-92770887D01*
X146262849Y-92880120D01*
X145797302Y-93191189D01*
X145542000Y-93573275D01*
X145286698Y-93191189D01*
X144821151Y-92880120D01*
X144272000Y-92770887D01*
X144162332Y-92792701D01*
X140492404Y-89122774D01*
X140492404Y-87659185D01*
X140520707Y-87647490D01*
X140914033Y-87254850D01*
X141127161Y-86741580D01*
X141127646Y-86185819D01*
X140915414Y-85672177D01*
X140522774Y-85278851D01*
X140009504Y-85065723D01*
X139453743Y-85065238D01*
X138940101Y-85277470D01*
X138546775Y-85670110D01*
X138460455Y-85877992D01*
X138375414Y-85672177D01*
X137982774Y-85278851D01*
X137469504Y-85065723D01*
X136913743Y-85065238D01*
X136400101Y-85277470D01*
X136006775Y-85670110D01*
X135920455Y-85877992D01*
X135835414Y-85672177D01*
X135442774Y-85278851D01*
X134929504Y-85065723D01*
X134373743Y-85065238D01*
X133860101Y-85277470D01*
X133466775Y-85670110D01*
X133380455Y-85877992D01*
X133295414Y-85672177D01*
X132902774Y-85278851D01*
X132389504Y-85065723D01*
X131833743Y-85065238D01*
X131320101Y-85277470D01*
X130926775Y-85670110D01*
X130840455Y-85877992D01*
X130755414Y-85672177D01*
X130362774Y-85278851D01*
X129849504Y-85065723D01*
X129293743Y-85065238D01*
X128780101Y-85277470D01*
X128386775Y-85670110D01*
X128173647Y-86183380D01*
X128173162Y-86739141D01*
X128385394Y-87252783D01*
X128778034Y-87646109D01*
X128808404Y-87658720D01*
X128808404Y-89255152D01*
X128778001Y-89408000D01*
X128836004Y-89699604D01*
X129001185Y-89946815D01*
X131888141Y-92833771D01*
X131572000Y-92770887D01*
X131462331Y-92792701D01*
X127508000Y-88838370D01*
X127508000Y-87810705D01*
X127536303Y-87799010D01*
X127929629Y-87406370D01*
X128142757Y-86893100D01*
X128143242Y-86337339D01*
X127931010Y-85823697D01*
X127538370Y-85430371D01*
X127025100Y-85217243D01*
X126469339Y-85216758D01*
X125955697Y-85428990D01*
X125562371Y-85821630D01*
X125349243Y-86334900D01*
X125348758Y-86890661D01*
X125560990Y-87404303D01*
X125953630Y-87797629D01*
X125984000Y-87810240D01*
X125984000Y-89154000D01*
X126042004Y-89445605D01*
X126147838Y-89603996D01*
X126207185Y-89692815D01*
X129348141Y-92833771D01*
X129032000Y-92770887D01*
X128482849Y-92880120D01*
X128017302Y-93191189D01*
X127762000Y-93573275D01*
X127506698Y-93191189D01*
X127041151Y-92880120D01*
X126492000Y-92770887D01*
X125942849Y-92880120D01*
X125477302Y-93191189D01*
X125166233Y-93656736D01*
X125057000Y-94205887D01*
X118783000Y-94205887D01*
X118673767Y-93656736D01*
X118362698Y-93191189D01*
X117897151Y-92880120D01*
X117348000Y-92770887D01*
X116798849Y-92880120D01*
X116333302Y-93191189D01*
X116078000Y-93573275D01*
X115822698Y-93191189D01*
X115357151Y-92880120D01*
X114808000Y-92770887D01*
X114258849Y-92880120D01*
X113793302Y-93191189D01*
X113538000Y-93573275D01*
X113282698Y-93191189D01*
X112817151Y-92880120D01*
X112268000Y-92770887D01*
X111718849Y-92880120D01*
X111253302Y-93191189D01*
X110987458Y-93589053D01*
X110755343Y-93232071D01*
X110293720Y-92915191D01*
X110260511Y-92901462D01*
X110045500Y-92997874D01*
X110045500Y-93916500D01*
X110065500Y-93916500D01*
X110065500Y-94551500D01*
X110045500Y-94551500D01*
X110045500Y-95470126D01*
X110260511Y-95566538D01*
X110293720Y-95552809D01*
X110755343Y-95235929D01*
X110987458Y-94878947D01*
X111088375Y-95029981D01*
X108836359Y-97281997D01*
X108537188Y-97281736D01*
X107976851Y-97513262D01*
X107547769Y-97941596D01*
X107315265Y-98501528D01*
X107314736Y-99107812D01*
X99931442Y-99107812D01*
X97058815Y-96235185D01*
X96971632Y-96176931D01*
X96811605Y-96070004D01*
X96520000Y-96012000D01*
X87183631Y-96012000D01*
X86868620Y-95696990D01*
X87417151Y-95587880D01*
X87882698Y-95276811D01*
X88138000Y-94894725D01*
X88393302Y-95276811D01*
X88858849Y-95587880D01*
X89408000Y-95697113D01*
X89957151Y-95587880D01*
X90422698Y-95276811D01*
X90678000Y-94894725D01*
X90933302Y-95276811D01*
X91398849Y-95587880D01*
X91948000Y-95697113D01*
X92497151Y-95587880D01*
X92962698Y-95276811D01*
X93218000Y-94894725D01*
X93473302Y-95276811D01*
X93938849Y-95587880D01*
X94488000Y-95697113D01*
X95037151Y-95587880D01*
X95502698Y-95276811D01*
X95758000Y-94894725D01*
X96013302Y-95276811D01*
X96478849Y-95587880D01*
X97028000Y-95697113D01*
X97577151Y-95587880D01*
X98042698Y-95276811D01*
X98298000Y-94894725D01*
X98553302Y-95276811D01*
X99018849Y-95587880D01*
X99568000Y-95697113D01*
X100117151Y-95587880D01*
X100582698Y-95276811D01*
X100838000Y-94894725D01*
X101093302Y-95276811D01*
X101558849Y-95587880D01*
X102108000Y-95697113D01*
X102657151Y-95587880D01*
X103122698Y-95276811D01*
X103378000Y-94894725D01*
X103633302Y-95276811D01*
X104098849Y-95587880D01*
X104648000Y-95697113D01*
X105197151Y-95587880D01*
X105662698Y-95276811D01*
X105918000Y-94894725D01*
X106173302Y-95276811D01*
X106638849Y-95587880D01*
X107188000Y-95697113D01*
X107737151Y-95587880D01*
X108202698Y-95276811D01*
X108468542Y-94878947D01*
X108700657Y-95235929D01*
X109162280Y-95552809D01*
X109195489Y-95566538D01*
X109410500Y-95470126D01*
X109410500Y-94551500D01*
X109390500Y-94551500D01*
X109390500Y-93916500D01*
X109410500Y-93916500D01*
X109410500Y-92997874D01*
X109195489Y-92901462D01*
X109162280Y-92915191D01*
X108700657Y-93232071D01*
X108468542Y-93589053D01*
X108202698Y-93191189D01*
X107737151Y-92880120D01*
X107188000Y-92770887D01*
X106638849Y-92880120D01*
X106173302Y-93191189D01*
X105918000Y-93573275D01*
X105662698Y-93191189D01*
X105197151Y-92880120D01*
X104648000Y-92770887D01*
X104098849Y-92880120D01*
X103633302Y-93191189D01*
X103378000Y-93573275D01*
X103122698Y-93191189D01*
X102657151Y-92880120D01*
X102108000Y-92770887D01*
X101786473Y-92834843D01*
X98074404Y-89122774D01*
X98074404Y-87659185D01*
X98102707Y-87647490D01*
X98413413Y-87337325D01*
X103014146Y-87337325D01*
X103763871Y-89151801D01*
X105150897Y-90541250D01*
X106964061Y-91294141D01*
X108927325Y-91295854D01*
X110741801Y-90546129D01*
X112131250Y-89159103D01*
X112884141Y-87345939D01*
X112885854Y-85382675D01*
X112136129Y-83568199D01*
X110749103Y-82178750D01*
X108935939Y-81425859D01*
X106972675Y-81424146D01*
X105158199Y-82173871D01*
X103768750Y-83560897D01*
X103015859Y-85374061D01*
X103014146Y-87337325D01*
X98413413Y-87337325D01*
X98496033Y-87254850D01*
X98709161Y-86741580D01*
X98709646Y-86185819D01*
X98497414Y-85672177D01*
X98104774Y-85278851D01*
X97591504Y-85065723D01*
X97035743Y-85065238D01*
X96522101Y-85277470D01*
X96128775Y-85670110D01*
X96042455Y-85877992D01*
X95957414Y-85672177D01*
X95564774Y-85278851D01*
X95051504Y-85065723D01*
X94495743Y-85065238D01*
X93982101Y-85277470D01*
X93588775Y-85670110D01*
X93502455Y-85877992D01*
X93417414Y-85672177D01*
X93024774Y-85278851D01*
X92511504Y-85065723D01*
X91955743Y-85065238D01*
X91442101Y-85277470D01*
X91048775Y-85670110D01*
X90962455Y-85877992D01*
X90877414Y-85672177D01*
X90484774Y-85278851D01*
X89971504Y-85065723D01*
X89415743Y-85065238D01*
X88902101Y-85277470D01*
X88508775Y-85670110D01*
X88422455Y-85877992D01*
X88337414Y-85672177D01*
X87944774Y-85278851D01*
X87431504Y-85065723D01*
X86875743Y-85065238D01*
X86362101Y-85277470D01*
X85968775Y-85670110D01*
X85755647Y-86183380D01*
X85755162Y-86739141D01*
X85967394Y-87252783D01*
X86360034Y-87646109D01*
X86390404Y-87658720D01*
X86390404Y-89438404D01*
X86448408Y-89730009D01*
X86572684Y-89916000D01*
X86613589Y-89977219D01*
X89407380Y-92771010D01*
X89086473Y-92834843D01*
X85090000Y-88838370D01*
X85090000Y-87810705D01*
X85118303Y-87799010D01*
X85511629Y-87406370D01*
X85724757Y-86893100D01*
X85725242Y-86337339D01*
X85513010Y-85823697D01*
X85120370Y-85430371D01*
X84607100Y-85217243D01*
X84051339Y-85216758D01*
X83537697Y-85428990D01*
X83144371Y-85821630D01*
X82931243Y-86334900D01*
X82930758Y-86890661D01*
X83142990Y-87404303D01*
X83535630Y-87797629D01*
X83566000Y-87810240D01*
X83566000Y-89154000D01*
X83624004Y-89445605D01*
X83729838Y-89603996D01*
X83789185Y-89692815D01*
X86867380Y-92771010D01*
X86318849Y-92880120D01*
X85853302Y-93191189D01*
X85598000Y-93573275D01*
X85342698Y-93191189D01*
X84877151Y-92880120D01*
X84328000Y-92770887D01*
X83778849Y-92880120D01*
X83313302Y-93191189D01*
X83002233Y-93656736D01*
X82893000Y-94205887D01*
X82893000Y-94262113D01*
X83002233Y-94811264D01*
X83313302Y-95276811D01*
X83778849Y-95587880D01*
X84328000Y-95697113D01*
X84649527Y-95633157D01*
X86329184Y-97312815D01*
X86529415Y-97446605D01*
X86576395Y-97477996D01*
X86868000Y-97536000D01*
X96204370Y-97536000D01*
X99143663Y-100475293D01*
X99018849Y-100500120D01*
X98553302Y-100811189D01*
X98298000Y-101193275D01*
X98042698Y-100811189D01*
X97577151Y-100500120D01*
X97028000Y-100390887D01*
X96478849Y-100500120D01*
X96013302Y-100811189D01*
X95758000Y-101193275D01*
X95502698Y-100811189D01*
X95037151Y-100500120D01*
X94488000Y-100390887D01*
X93938849Y-100500120D01*
X93473302Y-100811189D01*
X93218000Y-101193275D01*
X92962698Y-100811189D01*
X92497151Y-100500120D01*
X91948000Y-100390887D01*
X91398849Y-100500120D01*
X90933302Y-100811189D01*
X90678000Y-101193275D01*
X90422698Y-100811189D01*
X89957151Y-100500120D01*
X89408000Y-100390887D01*
X88858849Y-100500120D01*
X88393302Y-100811189D01*
X88138000Y-101193275D01*
X87882698Y-100811189D01*
X87417151Y-100500120D01*
X86868000Y-100390887D01*
X86318849Y-100500120D01*
X85853302Y-100811189D01*
X85756899Y-100955465D01*
X85731162Y-100818683D01*
X85592090Y-100602559D01*
X85379890Y-100457569D01*
X85128000Y-100406560D01*
X83528000Y-100406560D01*
X83292683Y-100450838D01*
X83076559Y-100589910D01*
X82931569Y-100802110D01*
X82880560Y-101054000D01*
X82880560Y-102654000D01*
X82924838Y-102889317D01*
X83063910Y-103105441D01*
X83276110Y-103250431D01*
X83528000Y-103301440D01*
X83566000Y-103301440D01*
X83566000Y-108531295D01*
X83537697Y-108542990D01*
X83144371Y-108935630D01*
X82931243Y-109448900D01*
X82930758Y-110004661D01*
X83026345Y-110236000D01*
X77837083Y-110236000D01*
X77770659Y-110169460D01*
X77411370Y-110020270D01*
X77022337Y-110019931D01*
X76662788Y-110168493D01*
X76387460Y-110443341D01*
X76238270Y-110802630D01*
X76237931Y-111191663D01*
X76386493Y-111551212D01*
X76661341Y-111826540D01*
X77020630Y-111975730D01*
X77409663Y-111976069D01*
X77769212Y-111827507D01*
X77836837Y-111760000D01*
X84012370Y-111760000D01*
X84212987Y-111960617D01*
X84201243Y-111988900D01*
X84200758Y-112544661D01*
X84412990Y-113058303D01*
X84805630Y-113451629D01*
X85318900Y-113664757D01*
X85874661Y-113665242D01*
X86388303Y-113453010D01*
X86781629Y-113060370D01*
X86867949Y-112852488D01*
X86952990Y-113058303D01*
X87345630Y-113451629D01*
X87858900Y-113664757D01*
X88414661Y-113665242D01*
X88928303Y-113453010D01*
X89321629Y-113060370D01*
X89407949Y-112852488D01*
X89492990Y-113058303D01*
X89885630Y-113451629D01*
X90398900Y-113664757D01*
X90954661Y-113665242D01*
X91468303Y-113453010D01*
X91861629Y-113060370D01*
X91947949Y-112852488D01*
X92032990Y-113058303D01*
X92425630Y-113451629D01*
X92938900Y-113664757D01*
X93494661Y-113665242D01*
X94008303Y-113453010D01*
X94401629Y-113060370D01*
X94487949Y-112852488D01*
X94572990Y-113058303D01*
X94965630Y-113451629D01*
X95478900Y-113664757D01*
X96034661Y-113665242D01*
X96548303Y-113453010D01*
X96941629Y-113060370D01*
X97027949Y-112852488D01*
X97112990Y-113058303D01*
X97505630Y-113451629D01*
X98018900Y-113664757D01*
X98574661Y-113665242D01*
X98701117Y-113612991D01*
X98700758Y-114024661D01*
X98814525Y-114300000D01*
X91553083Y-114300000D01*
X91486659Y-114233460D01*
X91127370Y-114084270D01*
X90738337Y-114083931D01*
X90378788Y-114232493D01*
X90311163Y-114300000D01*
X83811439Y-114300000D01*
X83924757Y-114027100D01*
X83925242Y-113471339D01*
X83713010Y-112957697D01*
X83320370Y-112564371D01*
X82807100Y-112351243D01*
X82251339Y-112350758D01*
X81737697Y-112562990D01*
X81344371Y-112955630D01*
X81131243Y-113468900D01*
X81130758Y-114024661D01*
X81342990Y-114538303D01*
X81447404Y-114642899D01*
X79116920Y-114642899D01*
X79061507Y-114508788D01*
X78786659Y-114233460D01*
X78427370Y-114084270D01*
X78038337Y-114083931D01*
X77678788Y-114232493D01*
X77403460Y-114507341D01*
X77254270Y-114866630D01*
X77253931Y-115255663D01*
X77402493Y-115615212D01*
X77677341Y-115890540D01*
X78036630Y-116039730D01*
X78179968Y-116039855D01*
X78237294Y-116078159D01*
X78283294Y-116108895D01*
X78574899Y-116166899D01*
X81216985Y-116166899D01*
X80980788Y-116264493D01*
X80705460Y-116539341D01*
X80556270Y-116898630D01*
X80555931Y-117287663D01*
X80704493Y-117647212D01*
X80979341Y-117922540D01*
X81338630Y-118071730D01*
X81727663Y-118072069D01*
X82087212Y-117923507D01*
X82154837Y-117856000D01*
X93218000Y-117856000D01*
X93509605Y-117797996D01*
X93719871Y-117657501D01*
X99821984Y-123759614D01*
X99821984Y-134506917D01*
X99755444Y-134573341D01*
X99606254Y-134932630D01*
X99605915Y-135321663D01*
X99630846Y-135382000D01*
X81788000Y-135382000D01*
X81496395Y-135440004D01*
X81249186Y-135605184D01*
X80446082Y-136408288D01*
X80305151Y-136314120D01*
X79756000Y-136204887D01*
X79206849Y-136314120D01*
X78741302Y-136625189D01*
X78430233Y-137090736D01*
X78321000Y-137639887D01*
X78321000Y-137696113D01*
X78430233Y-138245264D01*
X78741302Y-138710811D01*
X79206849Y-139021880D01*
X79756000Y-139131113D01*
X80305151Y-139021880D01*
X80770698Y-138710811D01*
X81026000Y-138328725D01*
X81281302Y-138710811D01*
X81746849Y-139021880D01*
X82296000Y-139131113D01*
X82845151Y-139021880D01*
X83310698Y-138710811D01*
X83566000Y-138328725D01*
X83821302Y-138710811D01*
X84286849Y-139021880D01*
X84836000Y-139131113D01*
X85385151Y-139021880D01*
X85850698Y-138710811D01*
X86106000Y-138328725D01*
X86361302Y-138710811D01*
X86826849Y-139021880D01*
X87376000Y-139131113D01*
X87925151Y-139021880D01*
X88390698Y-138710811D01*
X88646000Y-138328725D01*
X88901302Y-138710811D01*
X89366849Y-139021880D01*
X89916000Y-139131113D01*
X90465151Y-139021880D01*
X90930698Y-138710811D01*
X91186000Y-138328725D01*
X91441302Y-138710811D01*
X91906849Y-139021880D01*
X92456000Y-139131113D01*
X93005151Y-139021880D01*
X93470698Y-138710811D01*
X93726000Y-138328725D01*
X93981302Y-138710811D01*
X94446849Y-139021880D01*
X94996000Y-139131113D01*
X95545151Y-139021880D01*
X96010698Y-138710811D01*
X96276542Y-138312947D01*
X96508657Y-138669929D01*
X96970280Y-138986809D01*
X97003489Y-139000538D01*
X97218500Y-138904126D01*
X97218500Y-137985500D01*
X97198500Y-137985500D01*
X97198500Y-137350500D01*
X97218500Y-137350500D01*
X97218500Y-137330500D01*
X97853500Y-137330500D01*
X97853500Y-137350500D01*
X97873500Y-137350500D01*
X97873500Y-137985500D01*
X97853500Y-137985500D01*
X97853500Y-138904126D01*
X98068511Y-139000538D01*
X98101720Y-138986809D01*
X98563343Y-138669929D01*
X98795458Y-138312947D01*
X99061302Y-138710811D01*
X99526849Y-139021880D01*
X100076000Y-139131113D01*
X100625151Y-139021880D01*
X101090698Y-138710811D01*
X101346000Y-138328725D01*
X101601302Y-138710811D01*
X101854000Y-138879659D01*
X101854000Y-140208000D01*
X101912004Y-140499605D01*
X102026385Y-140670788D01*
X102077185Y-140746815D01*
X104686013Y-143355643D01*
X104685931Y-143449663D01*
X104834493Y-143809212D01*
X104900812Y-143875647D01*
X104606849Y-143934120D01*
X104141302Y-144245189D01*
X103886000Y-144627275D01*
X103630698Y-144245189D01*
X103165151Y-143934120D01*
X102616000Y-143824887D01*
X102066849Y-143934120D01*
X101601302Y-144245189D01*
X101346000Y-144627275D01*
X101090698Y-144245189D01*
X100625151Y-143934120D01*
X100076000Y-143824887D01*
X99526849Y-143934120D01*
X99061302Y-144245189D01*
X98806000Y-144627275D01*
X98550698Y-144245189D01*
X98085151Y-143934120D01*
X97536000Y-143824887D01*
X97028000Y-143925935D01*
X97028000Y-141845083D01*
X97094540Y-141778659D01*
X97243730Y-141419370D01*
X97244069Y-141030337D01*
X97095507Y-140670788D01*
X96820659Y-140395460D01*
X96461370Y-140246270D01*
X96072337Y-140245931D01*
X95712788Y-140394493D01*
X95437460Y-140669341D01*
X95288270Y-141028630D01*
X95287931Y-141417663D01*
X95436493Y-141777212D01*
X95504000Y-141844837D01*
X95504000Y-143702369D01*
X95317527Y-143888843D01*
X94996000Y-143824887D01*
X94446849Y-143934120D01*
X93981302Y-144245189D01*
X93715458Y-144643053D01*
X93483343Y-144286071D01*
X93021720Y-143969191D01*
X92988511Y-143955462D01*
X92773500Y-144051874D01*
X92773500Y-144970500D01*
X92793500Y-144970500D01*
X92793500Y-145605500D01*
X92773500Y-145605500D01*
X92773500Y-145625500D01*
X92138500Y-145625500D01*
X92138500Y-145605500D01*
X92118500Y-145605500D01*
X92118500Y-144970500D01*
X92138500Y-144970500D01*
X92138500Y-144051874D01*
X91923489Y-143955462D01*
X91890280Y-143969191D01*
X91428657Y-144286071D01*
X91196542Y-144643053D01*
X90930698Y-144245189D01*
X90465151Y-143934120D01*
X89916000Y-143824887D01*
X89366849Y-143934120D01*
X88901302Y-144245189D01*
X88646000Y-144627275D01*
X88390698Y-144245189D01*
X87925151Y-143934120D01*
X87376000Y-143824887D01*
X86826849Y-143934120D01*
X86361302Y-144245189D01*
X86106000Y-144627275D01*
X85850698Y-144245189D01*
X85385151Y-143934120D01*
X84836000Y-143824887D01*
X84286849Y-143934120D01*
X83821302Y-144245189D01*
X83566000Y-144627275D01*
X83310698Y-144245189D01*
X82845151Y-143934120D01*
X82296000Y-143824887D01*
X81746849Y-143934120D01*
X81281302Y-144245189D01*
X81026000Y-144627275D01*
X80770698Y-144245189D01*
X80305151Y-143934120D01*
X79756000Y-143824887D01*
X79206849Y-143934120D01*
X78741302Y-144245189D01*
X78430233Y-144710736D01*
X78321000Y-145259887D01*
X78321000Y-145316113D01*
X78430233Y-145865264D01*
X78741302Y-146330811D01*
X79038885Y-146529650D01*
X79052004Y-146595605D01*
X79175982Y-146781151D01*
X79217185Y-146842815D01*
X79921385Y-147547015D01*
X79725939Y-147465859D01*
X77762675Y-147464146D01*
X75948199Y-148213871D01*
X74558750Y-149600897D01*
X74370000Y-150055458D01*
X74370000Y-133116285D01*
X87460760Y-133116285D01*
X87671169Y-133625515D01*
X88060436Y-134015461D01*
X88569298Y-134226759D01*
X89120285Y-134227240D01*
X89629515Y-134016831D01*
X90019461Y-133627564D01*
X90230759Y-133118702D01*
X90230761Y-133116285D01*
X92340760Y-133116285D01*
X92551169Y-133625515D01*
X92940436Y-134015461D01*
X93449298Y-134226759D01*
X94000285Y-134227240D01*
X94509515Y-134016831D01*
X94899461Y-133627564D01*
X95110759Y-133118702D01*
X95111240Y-132567715D01*
X94900831Y-132058485D01*
X94511564Y-131668539D01*
X94002702Y-131457241D01*
X93451715Y-131456760D01*
X92942485Y-131667169D01*
X92552539Y-132056436D01*
X92341241Y-132565298D01*
X92340760Y-133116285D01*
X90230761Y-133116285D01*
X90231240Y-132567715D01*
X90020831Y-132058485D01*
X89631564Y-131668539D01*
X89122702Y-131457241D01*
X88571715Y-131456760D01*
X88062485Y-131667169D01*
X87672539Y-132056436D01*
X87461241Y-132565298D01*
X87460760Y-133116285D01*
X74370000Y-133116285D01*
X74370000Y-127712187D01*
X87464752Y-127712187D01*
X87682757Y-128239800D01*
X88086077Y-128643824D01*
X88613309Y-128862750D01*
X89184187Y-128863248D01*
X89711800Y-128645243D01*
X90115824Y-128241923D01*
X90334750Y-127714691D01*
X90334752Y-127712187D01*
X92544752Y-127712187D01*
X92762757Y-128239800D01*
X93166077Y-128643824D01*
X93693309Y-128862750D01*
X94264187Y-128863248D01*
X94791800Y-128645243D01*
X95195824Y-128241923D01*
X95414750Y-127714691D01*
X95415248Y-127143813D01*
X95197243Y-126616200D01*
X94793923Y-126212176D01*
X94266691Y-125993250D01*
X93695813Y-125992752D01*
X93168200Y-126210757D01*
X92764176Y-126614077D01*
X92545250Y-127141309D01*
X92544752Y-127712187D01*
X90334752Y-127712187D01*
X90335248Y-127143813D01*
X90117243Y-126616200D01*
X89713923Y-126212176D01*
X89186691Y-125993250D01*
X88615813Y-125992752D01*
X88088200Y-126210757D01*
X87684176Y-126614077D01*
X87465250Y-127141309D01*
X87464752Y-127712187D01*
X74370000Y-127712187D01*
X74370000Y-122712187D01*
X87464752Y-122712187D01*
X87682757Y-123239800D01*
X88086077Y-123643824D01*
X88613309Y-123862750D01*
X89184187Y-123863248D01*
X89711800Y-123645243D01*
X90115824Y-123241923D01*
X90334750Y-122714691D01*
X90334752Y-122712187D01*
X92544752Y-122712187D01*
X92762757Y-123239800D01*
X93166077Y-123643824D01*
X93693309Y-123862750D01*
X94264187Y-123863248D01*
X94791800Y-123645243D01*
X95195824Y-123241923D01*
X95414750Y-122714691D01*
X95415248Y-122143813D01*
X95197243Y-121616200D01*
X94793923Y-121212176D01*
X94266691Y-120993250D01*
X93695813Y-120992752D01*
X93168200Y-121210757D01*
X92764176Y-121614077D01*
X92545250Y-122141309D01*
X92544752Y-122712187D01*
X90334752Y-122712187D01*
X90335248Y-122143813D01*
X90117243Y-121616200D01*
X89713923Y-121212176D01*
X89186691Y-120993250D01*
X88615813Y-120992752D01*
X88088200Y-121210757D01*
X87684176Y-121614077D01*
X87465250Y-122141309D01*
X87464752Y-122712187D01*
X74370000Y-122712187D01*
X74370000Y-83764281D01*
X74573594Y-83968231D01*
X75133526Y-84200735D01*
X75739810Y-84201264D01*
X76300147Y-83969738D01*
X76729229Y-83541404D01*
X76961733Y-82981472D01*
X76961996Y-82679645D01*
X77917140Y-81724501D01*
X80327885Y-81724501D01*
X80145647Y-82163380D01*
X80145162Y-82719141D01*
X80357394Y-83232783D01*
X80750034Y-83626109D01*
X81263304Y-83839237D01*
X81819065Y-83839722D01*
X81945521Y-83787471D01*
X81945162Y-84199141D01*
X82157394Y-84712783D01*
X82550034Y-85106109D01*
X83063304Y-85319237D01*
X83619065Y-85319722D01*
X84132707Y-85107490D01*
X84526033Y-84714850D01*
X84612353Y-84506968D01*
X84697394Y-84712783D01*
X85090034Y-85106109D01*
X85603304Y-85319237D01*
X86159065Y-85319722D01*
X86672707Y-85107490D01*
X87066033Y-84714850D01*
X87152353Y-84506968D01*
X87237394Y-84712783D01*
X87630034Y-85106109D01*
X88143304Y-85319237D01*
X88699065Y-85319722D01*
X89212707Y-85107490D01*
X89606033Y-84714850D01*
X89692353Y-84506968D01*
X89777394Y-84712783D01*
X90170034Y-85106109D01*
X90683304Y-85319237D01*
X91239065Y-85319722D01*
X91752707Y-85107490D01*
X92146033Y-84714850D01*
X92232353Y-84506968D01*
X92317394Y-84712783D01*
X92710034Y-85106109D01*
X93223304Y-85319237D01*
X93779065Y-85319722D01*
X94292707Y-85107490D01*
X94686033Y-84714850D01*
X94772353Y-84506968D01*
X94857394Y-84712783D01*
X95250034Y-85106109D01*
X95763304Y-85319237D01*
X96319065Y-85319722D01*
X96832707Y-85107490D01*
X97226033Y-84714850D01*
X97439161Y-84201580D01*
X97439646Y-83645819D01*
X97227414Y-83132177D01*
X96834774Y-82738851D01*
X96787307Y-82719141D01*
X97715162Y-82719141D01*
X97927394Y-83232783D01*
X98320034Y-83626109D01*
X98833304Y-83839237D01*
X99389065Y-83839722D01*
X99902707Y-83627490D01*
X100296033Y-83234850D01*
X100509161Y-82721580D01*
X100509646Y-82165819D01*
X100297414Y-81652177D01*
X99904774Y-81258851D01*
X99391504Y-81045723D01*
X98835743Y-81045238D01*
X98322101Y-81257470D01*
X97928775Y-81650110D01*
X97715647Y-82163380D01*
X97715162Y-82719141D01*
X96787307Y-82719141D01*
X96644915Y-82660015D01*
X96550815Y-82519185D01*
X92925987Y-78894357D01*
X92926069Y-78800337D01*
X92777507Y-78440788D01*
X92517174Y-78180000D01*
X133289254Y-78180000D01*
X133029460Y-78439341D01*
G36*
X140671155Y-119619858D02*
X140657013Y-119634000D01*
X141298816Y-120275803D01*
X141474329Y-120209725D01*
X141562990Y-120424303D01*
X141955630Y-120817629D01*
X142468900Y-121030757D01*
X143024661Y-121031242D01*
X143538303Y-120819010D01*
X143931629Y-120426370D01*
X144017949Y-120218488D01*
X144102990Y-120424303D01*
X144495630Y-120817629D01*
X145008900Y-121030757D01*
X145564661Y-121031242D01*
X146078303Y-120819010D01*
X146471629Y-120426370D01*
X146557949Y-120218488D01*
X146642990Y-120424303D01*
X147035630Y-120817629D01*
X147548900Y-121030757D01*
X148104661Y-121031242D01*
X148618303Y-120819010D01*
X149011629Y-120426370D01*
X149024240Y-120396000D01*
X154176382Y-120396000D01*
X154368853Y-120684054D01*
X154698026Y-120904000D01*
X154368853Y-121123946D01*
X154046946Y-121605715D01*
X153933907Y-122174000D01*
X154046946Y-122742285D01*
X154368853Y-123224054D01*
X154698026Y-123444000D01*
X154368853Y-123663946D01*
X154046946Y-124145715D01*
X153933907Y-124714000D01*
X154046946Y-125282285D01*
X154368853Y-125764054D01*
X154698026Y-125984000D01*
X154368853Y-126203946D01*
X154176382Y-126492000D01*
X145701059Y-126492000D01*
X145484778Y-126275341D01*
X145125489Y-126126151D01*
X144736456Y-126125812D01*
X144376907Y-126274374D01*
X144135887Y-126514974D01*
X138659300Y-121038387D01*
X138659382Y-120944367D01*
X138568666Y-120724816D01*
X139566197Y-120724816D01*
X139648704Y-120943968D01*
X140192581Y-121058286D01*
X140738805Y-120955769D01*
X140767296Y-120943968D01*
X140849803Y-120724816D01*
X140208000Y-120083013D01*
X139566197Y-120724816D01*
X138568666Y-120724816D01*
X138563992Y-120713505D01*
X138851629Y-120426370D01*
X138941599Y-120209698D01*
X139117184Y-120275803D01*
X139758987Y-119634000D01*
X139744845Y-119619858D01*
X140193858Y-119170845D01*
X140208000Y-119184987D01*
X140222142Y-119170845D01*
X140671155Y-119619858D01*
X140671155Y-119619858D01*
G37*
X140671155Y-119619858D02*
X140657013Y-119634000D01*
X141298816Y-120275803D01*
X141474329Y-120209725D01*
X141562990Y-120424303D01*
X141955630Y-120817629D01*
X142468900Y-121030757D01*
X143024661Y-121031242D01*
X143538303Y-120819010D01*
X143931629Y-120426370D01*
X144017949Y-120218488D01*
X144102990Y-120424303D01*
X144495630Y-120817629D01*
X145008900Y-121030757D01*
X145564661Y-121031242D01*
X146078303Y-120819010D01*
X146471629Y-120426370D01*
X146557949Y-120218488D01*
X146642990Y-120424303D01*
X147035630Y-120817629D01*
X147548900Y-121030757D01*
X148104661Y-121031242D01*
X148618303Y-120819010D01*
X149011629Y-120426370D01*
X149024240Y-120396000D01*
X154176382Y-120396000D01*
X154368853Y-120684054D01*
X154698026Y-120904000D01*
X154368853Y-121123946D01*
X154046946Y-121605715D01*
X153933907Y-122174000D01*
X154046946Y-122742285D01*
X154368853Y-123224054D01*
X154698026Y-123444000D01*
X154368853Y-123663946D01*
X154046946Y-124145715D01*
X153933907Y-124714000D01*
X154046946Y-125282285D01*
X154368853Y-125764054D01*
X154698026Y-125984000D01*
X154368853Y-126203946D01*
X154176382Y-126492000D01*
X145701059Y-126492000D01*
X145484778Y-126275341D01*
X145125489Y-126126151D01*
X144736456Y-126125812D01*
X144376907Y-126274374D01*
X144135887Y-126514974D01*
X138659300Y-121038387D01*
X138659382Y-120944367D01*
X138568666Y-120724816D01*
X139566197Y-120724816D01*
X139648704Y-120943968D01*
X140192581Y-121058286D01*
X140738805Y-120955769D01*
X140767296Y-120943968D01*
X140849803Y-120724816D01*
X140208000Y-120083013D01*
X139566197Y-120724816D01*
X138568666Y-120724816D01*
X138563992Y-120713505D01*
X138851629Y-120426370D01*
X138941599Y-120209698D01*
X139117184Y-120275803D01*
X139758987Y-119634000D01*
X139744845Y-119619858D01*
X140193858Y-119170845D01*
X140208000Y-119184987D01*
X140222142Y-119170845D01*
X140671155Y-119619858D01*
G36*
X147129500Y-101536500D02*
X147149500Y-101536500D01*
X147149500Y-102171500D01*
X147129500Y-102171500D01*
X147129500Y-103090126D01*
X147344511Y-103186538D01*
X147377720Y-103172809D01*
X147839343Y-102855929D01*
X148071458Y-102498947D01*
X148337302Y-102896811D01*
X148785782Y-103196476D01*
X148523460Y-103458341D01*
X148374270Y-103817630D01*
X148373931Y-104206663D01*
X148522493Y-104566212D01*
X148797341Y-104841540D01*
X149156630Y-104990730D01*
X149545663Y-104991069D01*
X149905212Y-104842507D01*
X149972837Y-104775000D01*
X153525252Y-104775000D01*
X156192246Y-107441994D01*
X149465083Y-107441994D01*
X149398659Y-107375454D01*
X149039370Y-107226264D01*
X148650337Y-107225925D01*
X148290788Y-107374487D01*
X148015460Y-107649335D01*
X147866270Y-108008624D01*
X147865931Y-108397657D01*
X148014493Y-108757206D01*
X148289341Y-109032534D01*
X148648630Y-109181724D01*
X149037663Y-109182063D01*
X149397212Y-109033501D01*
X149464837Y-108965994D01*
X155894364Y-108965994D01*
X155912858Y-108984488D01*
X155387715Y-109088946D01*
X154905946Y-109410853D01*
X154686000Y-109740026D01*
X154466054Y-109410853D01*
X153984285Y-109088946D01*
X153416000Y-108975907D01*
X152847715Y-109088946D01*
X152365946Y-109410853D01*
X152338150Y-109452452D01*
X152329162Y-109404683D01*
X152190090Y-109188559D01*
X151977890Y-109043569D01*
X151726000Y-108992560D01*
X150026000Y-108992560D01*
X149790683Y-109036838D01*
X149574559Y-109175910D01*
X149429569Y-109388110D01*
X149378560Y-109640000D01*
X149378560Y-111340000D01*
X149422838Y-111575317D01*
X149561910Y-111791441D01*
X149774110Y-111936431D01*
X150026000Y-111987440D01*
X151726000Y-111987440D01*
X151961317Y-111943162D01*
X152177441Y-111804090D01*
X152322431Y-111591890D01*
X152336086Y-111524459D01*
X152365946Y-111569147D01*
X152847715Y-111891054D01*
X153165822Y-111954329D01*
X147708653Y-117411499D01*
X146847243Y-117411499D01*
X146856472Y-117389274D01*
X146856811Y-117000241D01*
X146739753Y-116716939D01*
X146888374Y-116568577D01*
X147037564Y-116209288D01*
X147037903Y-115820255D01*
X146889341Y-115460706D01*
X146744889Y-115316002D01*
X147968917Y-115316002D01*
X148035341Y-115382542D01*
X148394630Y-115531732D01*
X148783663Y-115532071D01*
X149143212Y-115383509D01*
X149418540Y-115108661D01*
X149567730Y-114749372D01*
X149568069Y-114360339D01*
X149419507Y-114000790D01*
X149144659Y-113725462D01*
X148785370Y-113576272D01*
X148396337Y-113575933D01*
X148036788Y-113724495D01*
X147969163Y-113792002D01*
X145110702Y-113792002D01*
X144819107Y-113850004D01*
X144819097Y-113850006D01*
X144571886Y-114015187D01*
X144052553Y-114534521D01*
X143226570Y-114534521D01*
X143374353Y-114178620D01*
X143374838Y-113622859D01*
X143162606Y-113109217D01*
X142769966Y-112715891D01*
X142256696Y-112502763D01*
X141700935Y-112502278D01*
X141574479Y-112554529D01*
X141574838Y-112142859D01*
X141531726Y-112038519D01*
X144996889Y-112038519D01*
X145834013Y-112875644D01*
X145833931Y-112969663D01*
X145982493Y-113329212D01*
X146257341Y-113604540D01*
X146616630Y-113753730D01*
X147005663Y-113754069D01*
X147365212Y-113605507D01*
X147640540Y-113330659D01*
X147789730Y-112971370D01*
X147790069Y-112582337D01*
X147641507Y-112222788D01*
X147366659Y-111947460D01*
X147007370Y-111798270D01*
X146911817Y-111798187D01*
X145851334Y-110737704D01*
X145804477Y-110706395D01*
X145604124Y-110572523D01*
X145312519Y-110514519D01*
X140378059Y-110514519D01*
X140588757Y-110007100D01*
X140589242Y-109451339D01*
X140377010Y-108937697D01*
X139984370Y-108544371D01*
X139954000Y-108531760D01*
X139954000Y-103065659D01*
X140206698Y-102896811D01*
X140462000Y-102514725D01*
X140717302Y-102896811D01*
X141182849Y-103207880D01*
X141732000Y-103317113D01*
X142281151Y-103207880D01*
X142746698Y-102896811D01*
X143002000Y-102514725D01*
X143257302Y-102896811D01*
X143722849Y-103207880D01*
X144272000Y-103317113D01*
X144821151Y-103207880D01*
X145286698Y-102896811D01*
X145552542Y-102498947D01*
X145784657Y-102855929D01*
X146246280Y-103172809D01*
X146279489Y-103186538D01*
X146494500Y-103090126D01*
X146494500Y-102171500D01*
X146474500Y-102171500D01*
X146474500Y-101536500D01*
X146494500Y-101536500D01*
X146494500Y-101516500D01*
X147129500Y-101516500D01*
X147129500Y-101536500D01*
X147129500Y-101536500D01*
G37*
X147129500Y-101536500D02*
X147149500Y-101536500D01*
X147149500Y-102171500D01*
X147129500Y-102171500D01*
X147129500Y-103090126D01*
X147344511Y-103186538D01*
X147377720Y-103172809D01*
X147839343Y-102855929D01*
X148071458Y-102498947D01*
X148337302Y-102896811D01*
X148785782Y-103196476D01*
X148523460Y-103458341D01*
X148374270Y-103817630D01*
X148373931Y-104206663D01*
X148522493Y-104566212D01*
X148797341Y-104841540D01*
X149156630Y-104990730D01*
X149545663Y-104991069D01*
X149905212Y-104842507D01*
X149972837Y-104775000D01*
X153525252Y-104775000D01*
X156192246Y-107441994D01*
X149465083Y-107441994D01*
X149398659Y-107375454D01*
X149039370Y-107226264D01*
X148650337Y-107225925D01*
X148290788Y-107374487D01*
X148015460Y-107649335D01*
X147866270Y-108008624D01*
X147865931Y-108397657D01*
X148014493Y-108757206D01*
X148289341Y-109032534D01*
X148648630Y-109181724D01*
X149037663Y-109182063D01*
X149397212Y-109033501D01*
X149464837Y-108965994D01*
X155894364Y-108965994D01*
X155912858Y-108984488D01*
X155387715Y-109088946D01*
X154905946Y-109410853D01*
X154686000Y-109740026D01*
X154466054Y-109410853D01*
X153984285Y-109088946D01*
X153416000Y-108975907D01*
X152847715Y-109088946D01*
X152365946Y-109410853D01*
X152338150Y-109452452D01*
X152329162Y-109404683D01*
X152190090Y-109188559D01*
X151977890Y-109043569D01*
X151726000Y-108992560D01*
X150026000Y-108992560D01*
X149790683Y-109036838D01*
X149574559Y-109175910D01*
X149429569Y-109388110D01*
X149378560Y-109640000D01*
X149378560Y-111340000D01*
X149422838Y-111575317D01*
X149561910Y-111791441D01*
X149774110Y-111936431D01*
X150026000Y-111987440D01*
X151726000Y-111987440D01*
X151961317Y-111943162D01*
X152177441Y-111804090D01*
X152322431Y-111591890D01*
X152336086Y-111524459D01*
X152365946Y-111569147D01*
X152847715Y-111891054D01*
X153165822Y-111954329D01*
X147708653Y-117411499D01*
X146847243Y-117411499D01*
X146856472Y-117389274D01*
X146856811Y-117000241D01*
X146739753Y-116716939D01*
X146888374Y-116568577D01*
X147037564Y-116209288D01*
X147037903Y-115820255D01*
X146889341Y-115460706D01*
X146744889Y-115316002D01*
X147968917Y-115316002D01*
X148035341Y-115382542D01*
X148394630Y-115531732D01*
X148783663Y-115532071D01*
X149143212Y-115383509D01*
X149418540Y-115108661D01*
X149567730Y-114749372D01*
X149568069Y-114360339D01*
X149419507Y-114000790D01*
X149144659Y-113725462D01*
X148785370Y-113576272D01*
X148396337Y-113575933D01*
X148036788Y-113724495D01*
X147969163Y-113792002D01*
X145110702Y-113792002D01*
X144819107Y-113850004D01*
X144819097Y-113850006D01*
X144571886Y-114015187D01*
X144052553Y-114534521D01*
X143226570Y-114534521D01*
X143374353Y-114178620D01*
X143374838Y-113622859D01*
X143162606Y-113109217D01*
X142769966Y-112715891D01*
X142256696Y-112502763D01*
X141700935Y-112502278D01*
X141574479Y-112554529D01*
X141574838Y-112142859D01*
X141531726Y-112038519D01*
X144996889Y-112038519D01*
X145834013Y-112875644D01*
X145833931Y-112969663D01*
X145982493Y-113329212D01*
X146257341Y-113604540D01*
X146616630Y-113753730D01*
X147005663Y-113754069D01*
X147365212Y-113605507D01*
X147640540Y-113330659D01*
X147789730Y-112971370D01*
X147790069Y-112582337D01*
X147641507Y-112222788D01*
X147366659Y-111947460D01*
X147007370Y-111798270D01*
X146911817Y-111798187D01*
X145851334Y-110737704D01*
X145804477Y-110706395D01*
X145604124Y-110572523D01*
X145312519Y-110514519D01*
X140378059Y-110514519D01*
X140588757Y-110007100D01*
X140589242Y-109451339D01*
X140377010Y-108937697D01*
X139984370Y-108544371D01*
X139954000Y-108531760D01*
X139954000Y-103065659D01*
X140206698Y-102896811D01*
X140462000Y-102514725D01*
X140717302Y-102896811D01*
X141182849Y-103207880D01*
X141732000Y-103317113D01*
X142281151Y-103207880D01*
X142746698Y-102896811D01*
X143002000Y-102514725D01*
X143257302Y-102896811D01*
X143722849Y-103207880D01*
X144272000Y-103317113D01*
X144821151Y-103207880D01*
X145286698Y-102896811D01*
X145552542Y-102498947D01*
X145784657Y-102855929D01*
X146246280Y-103172809D01*
X146279489Y-103186538D01*
X146494500Y-103090126D01*
X146494500Y-102171500D01*
X146474500Y-102171500D01*
X146474500Y-101536500D01*
X146494500Y-101536500D01*
X146494500Y-101516500D01*
X147129500Y-101516500D01*
X147129500Y-101536500D01*
G36*
X102858657Y-111774071D02*
X102553437Y-112243485D01*
X102645289Y-112458500D01*
X103568500Y-112458500D01*
X103568500Y-112438500D01*
X104203500Y-112438500D01*
X104203500Y-112458500D01*
X105126711Y-112458500D01*
X105218563Y-112243485D01*
X104913343Y-111774071D01*
X104892845Y-111760000D01*
X108975155Y-111760000D01*
X108954657Y-111774071D01*
X108649437Y-112243485D01*
X108741289Y-112458500D01*
X109664500Y-112458500D01*
X109664500Y-112438500D01*
X110299500Y-112438500D01*
X110299500Y-112458500D01*
X111222711Y-112458500D01*
X111314563Y-112243485D01*
X111009343Y-111774071D01*
X110988845Y-111760000D01*
X114817155Y-111760000D01*
X114796657Y-111774071D01*
X114491437Y-112243485D01*
X114583289Y-112458500D01*
X115506500Y-112458500D01*
X115506500Y-112438500D01*
X116141500Y-112438500D01*
X116141500Y-112458500D01*
X117064711Y-112458500D01*
X117156563Y-112243485D01*
X116851343Y-111774071D01*
X116830845Y-111760000D01*
X120309850Y-111760000D01*
X120365184Y-111815334D01*
X120562925Y-111947460D01*
X120612395Y-111980515D01*
X120904000Y-112038519D01*
X123330917Y-112038519D01*
X123397341Y-112105059D01*
X123756630Y-112254249D01*
X124145663Y-112254588D01*
X124505212Y-112106026D01*
X124572837Y-112038519D01*
X126123152Y-112038519D01*
X126080839Y-112140420D01*
X126080354Y-112696181D01*
X126292586Y-113209823D01*
X126685226Y-113603149D01*
X127198496Y-113816277D01*
X127754257Y-113816762D01*
X128267899Y-113604530D01*
X128661225Y-113211890D01*
X128747545Y-113004008D01*
X128832586Y-113209823D01*
X129225226Y-113603149D01*
X129738496Y-113816277D01*
X130294257Y-113816762D01*
X130807899Y-113604530D01*
X131201225Y-113211890D01*
X131287545Y-113004008D01*
X131372586Y-113209823D01*
X131765226Y-113603149D01*
X132278496Y-113816277D01*
X132834257Y-113816762D01*
X132864650Y-113804204D01*
X134376446Y-115316000D01*
X127953385Y-115316000D01*
X127977730Y-115257370D01*
X127978069Y-114868337D01*
X127829507Y-114508788D01*
X127554659Y-114233460D01*
X127195370Y-114084270D01*
X126806337Y-114083931D01*
X126446788Y-114232493D01*
X126379163Y-114300000D01*
X125753952Y-114300000D01*
X125804353Y-114178620D01*
X125804838Y-113622859D01*
X125592606Y-113109217D01*
X125199966Y-112715891D01*
X124686696Y-112502763D01*
X124130935Y-112502278D01*
X123617293Y-112714510D01*
X123223967Y-113107150D01*
X123010839Y-113620420D01*
X123010354Y-114176181D01*
X123061515Y-114300000D01*
X101381439Y-114300000D01*
X101494757Y-114027100D01*
X101495242Y-113471339D01*
X101427965Y-113308515D01*
X102553437Y-113308515D01*
X102858657Y-113777929D01*
X103320280Y-114094809D01*
X103353489Y-114108538D01*
X103568500Y-114012126D01*
X103568500Y-113093500D01*
X104203500Y-113093500D01*
X104203500Y-114012126D01*
X104418511Y-114108538D01*
X104451720Y-114094809D01*
X104913343Y-113777929D01*
X105218563Y-113308515D01*
X108649437Y-113308515D01*
X108954657Y-113777929D01*
X109416280Y-114094809D01*
X109449489Y-114108538D01*
X109664500Y-114012126D01*
X109664500Y-113093500D01*
X110299500Y-113093500D01*
X110299500Y-114012126D01*
X110514511Y-114108538D01*
X110547720Y-114094809D01*
X111009343Y-113777929D01*
X111314563Y-113308515D01*
X114491437Y-113308515D01*
X114796657Y-113777929D01*
X115258280Y-114094809D01*
X115291489Y-114108538D01*
X115506500Y-114012126D01*
X115506500Y-113093500D01*
X116141500Y-113093500D01*
X116141500Y-114012126D01*
X116356511Y-114108538D01*
X116389720Y-114094809D01*
X116851343Y-113777929D01*
X117156563Y-113308515D01*
X117064711Y-113093500D01*
X116141500Y-113093500D01*
X115506500Y-113093500D01*
X114583289Y-113093500D01*
X114491437Y-113308515D01*
X111314563Y-113308515D01*
X111222711Y-113093500D01*
X110299500Y-113093500D01*
X109664500Y-113093500D01*
X108741289Y-113093500D01*
X108649437Y-113308515D01*
X105218563Y-113308515D01*
X105126711Y-113093500D01*
X104203500Y-113093500D01*
X103568500Y-113093500D01*
X102645289Y-113093500D01*
X102553437Y-113308515D01*
X101427965Y-113308515D01*
X101283010Y-112957697D01*
X100890370Y-112564371D01*
X100377100Y-112351243D01*
X99821339Y-112350758D01*
X99694883Y-112403009D01*
X99695242Y-111991339D01*
X99599655Y-111760000D01*
X102879155Y-111760000D01*
X102858657Y-111774071D01*
X102858657Y-111774071D01*
G37*
X102858657Y-111774071D02*
X102553437Y-112243485D01*
X102645289Y-112458500D01*
X103568500Y-112458500D01*
X103568500Y-112438500D01*
X104203500Y-112438500D01*
X104203500Y-112458500D01*
X105126711Y-112458500D01*
X105218563Y-112243485D01*
X104913343Y-111774071D01*
X104892845Y-111760000D01*
X108975155Y-111760000D01*
X108954657Y-111774071D01*
X108649437Y-112243485D01*
X108741289Y-112458500D01*
X109664500Y-112458500D01*
X109664500Y-112438500D01*
X110299500Y-112438500D01*
X110299500Y-112458500D01*
X111222711Y-112458500D01*
X111314563Y-112243485D01*
X111009343Y-111774071D01*
X110988845Y-111760000D01*
X114817155Y-111760000D01*
X114796657Y-111774071D01*
X114491437Y-112243485D01*
X114583289Y-112458500D01*
X115506500Y-112458500D01*
X115506500Y-112438500D01*
X116141500Y-112438500D01*
X116141500Y-112458500D01*
X117064711Y-112458500D01*
X117156563Y-112243485D01*
X116851343Y-111774071D01*
X116830845Y-111760000D01*
X120309850Y-111760000D01*
X120365184Y-111815334D01*
X120562925Y-111947460D01*
X120612395Y-111980515D01*
X120904000Y-112038519D01*
X123330917Y-112038519D01*
X123397341Y-112105059D01*
X123756630Y-112254249D01*
X124145663Y-112254588D01*
X124505212Y-112106026D01*
X124572837Y-112038519D01*
X126123152Y-112038519D01*
X126080839Y-112140420D01*
X126080354Y-112696181D01*
X126292586Y-113209823D01*
X126685226Y-113603149D01*
X127198496Y-113816277D01*
X127754257Y-113816762D01*
X128267899Y-113604530D01*
X128661225Y-113211890D01*
X128747545Y-113004008D01*
X128832586Y-113209823D01*
X129225226Y-113603149D01*
X129738496Y-113816277D01*
X130294257Y-113816762D01*
X130807899Y-113604530D01*
X131201225Y-113211890D01*
X131287545Y-113004008D01*
X131372586Y-113209823D01*
X131765226Y-113603149D01*
X132278496Y-113816277D01*
X132834257Y-113816762D01*
X132864650Y-113804204D01*
X134376446Y-115316000D01*
X127953385Y-115316000D01*
X127977730Y-115257370D01*
X127978069Y-114868337D01*
X127829507Y-114508788D01*
X127554659Y-114233460D01*
X127195370Y-114084270D01*
X126806337Y-114083931D01*
X126446788Y-114232493D01*
X126379163Y-114300000D01*
X125753952Y-114300000D01*
X125804353Y-114178620D01*
X125804838Y-113622859D01*
X125592606Y-113109217D01*
X125199966Y-112715891D01*
X124686696Y-112502763D01*
X124130935Y-112502278D01*
X123617293Y-112714510D01*
X123223967Y-113107150D01*
X123010839Y-113620420D01*
X123010354Y-114176181D01*
X123061515Y-114300000D01*
X101381439Y-114300000D01*
X101494757Y-114027100D01*
X101495242Y-113471339D01*
X101427965Y-113308515D01*
X102553437Y-113308515D01*
X102858657Y-113777929D01*
X103320280Y-114094809D01*
X103353489Y-114108538D01*
X103568500Y-114012126D01*
X103568500Y-113093500D01*
X104203500Y-113093500D01*
X104203500Y-114012126D01*
X104418511Y-114108538D01*
X104451720Y-114094809D01*
X104913343Y-113777929D01*
X105218563Y-113308515D01*
X108649437Y-113308515D01*
X108954657Y-113777929D01*
X109416280Y-114094809D01*
X109449489Y-114108538D01*
X109664500Y-114012126D01*
X109664500Y-113093500D01*
X110299500Y-113093500D01*
X110299500Y-114012126D01*
X110514511Y-114108538D01*
X110547720Y-114094809D01*
X111009343Y-113777929D01*
X111314563Y-113308515D01*
X114491437Y-113308515D01*
X114796657Y-113777929D01*
X115258280Y-114094809D01*
X115291489Y-114108538D01*
X115506500Y-114012126D01*
X115506500Y-113093500D01*
X116141500Y-113093500D01*
X116141500Y-114012126D01*
X116356511Y-114108538D01*
X116389720Y-114094809D01*
X116851343Y-113777929D01*
X117156563Y-113308515D01*
X117064711Y-113093500D01*
X116141500Y-113093500D01*
X115506500Y-113093500D01*
X114583289Y-113093500D01*
X114491437Y-113308515D01*
X111314563Y-113308515D01*
X111222711Y-113093500D01*
X110299500Y-113093500D01*
X109664500Y-113093500D01*
X108741289Y-113093500D01*
X108649437Y-113308515D01*
X105218563Y-113308515D01*
X105126711Y-113093500D01*
X104203500Y-113093500D01*
X103568500Y-113093500D01*
X102645289Y-113093500D01*
X102553437Y-113308515D01*
X101427965Y-113308515D01*
X101283010Y-112957697D01*
X100890370Y-112564371D01*
X100377100Y-112351243D01*
X99821339Y-112350758D01*
X99694883Y-112403009D01*
X99695242Y-111991339D01*
X99599655Y-111760000D01*
X102879155Y-111760000D01*
X102858657Y-111774071D01*
M02*
