G04 #@! TF.FileFunction,Copper,L2,Bot,Mixed*
%FSLAX46Y46*%
G04 Gerber Fmt 4.6, Leading zero omitted, Abs format (unit mm)*
G04 Created by KiCad (PCBNEW 4.0.6) date 05/10/17 10:33:27*
%MOMM*%
%LPD*%
G01*
G04 APERTURE LIST*
%ADD10C,0.100000*%
%ADD11R,1.600000X1.600000*%
%ADD12O,1.600000X1.600000*%
%ADD13C,1.524000*%
%ADD14C,1.600000*%
%ADD15R,1.700000X1.700000*%
%ADD16O,1.700000X1.700000*%
%ADD17C,1.500000*%
%ADD18C,8.600000*%
%ADD19C,0.685800*%
%ADD20C,1.778000*%
%ADD21C,1.016000*%
%ADD22C,0.152400*%
%ADD23C,0.889000*%
%ADD24C,0.508000*%
%ADD25C,0.254000*%
G04 APERTURE END LIST*
D10*
D11*
X84328000Y-101854000D03*
D12*
X117348000Y-94234000D03*
X86868000Y-101854000D03*
X114808000Y-94234000D03*
X89408000Y-101854000D03*
X112268000Y-94234000D03*
X91948000Y-101854000D03*
X109728000Y-94234000D03*
X94488000Y-101854000D03*
X107188000Y-94234000D03*
X97028000Y-101854000D03*
X104648000Y-94234000D03*
X99568000Y-101854000D03*
X102108000Y-94234000D03*
X102108000Y-101854000D03*
X99568000Y-94234000D03*
X104648000Y-101854000D03*
X97028000Y-94234000D03*
X107188000Y-101854000D03*
X94488000Y-94234000D03*
X109728000Y-101854000D03*
X91948000Y-94234000D03*
X112268000Y-101854000D03*
X89408000Y-94234000D03*
X114808000Y-101854000D03*
X86868000Y-94234000D03*
X117348000Y-101854000D03*
X84328000Y-94234000D03*
D13*
X182087596Y-112419520D03*
X181102000Y-109728000D03*
X179547596Y-112419520D03*
X178277596Y-109879520D03*
X177007596Y-112419520D03*
X175737596Y-109879520D03*
X174467596Y-112419520D03*
X173197596Y-109879520D03*
X171927596Y-112419520D03*
X170657596Y-109879520D03*
X169387596Y-112419520D03*
X168117596Y-109879520D03*
X166317596Y-113899520D03*
X183887596Y-113899520D03*
X98298000Y-112268000D03*
X97312404Y-109576480D03*
X95758000Y-112268000D03*
X94488000Y-109728000D03*
X93218000Y-112268000D03*
X91948000Y-109728000D03*
X90678000Y-112268000D03*
X89408000Y-109728000D03*
X88138000Y-112268000D03*
X86868000Y-109728000D03*
X85598000Y-112268000D03*
X84328000Y-109728000D03*
X82528000Y-113748000D03*
X100098000Y-113748000D03*
X169448404Y-83922480D03*
X170434000Y-86614000D03*
X171988404Y-83922480D03*
X173258404Y-86462480D03*
X174528404Y-83922480D03*
X175798404Y-86462480D03*
X177068404Y-83922480D03*
X178338404Y-86462480D03*
X179608404Y-83922480D03*
X180878404Y-86462480D03*
X182148404Y-83922480D03*
X183418404Y-86462480D03*
X185218404Y-82442480D03*
X167648404Y-82442480D03*
D11*
X126492000Y-101854000D03*
D12*
X159512000Y-94234000D03*
X129032000Y-101854000D03*
X156972000Y-94234000D03*
X131572000Y-101854000D03*
X154432000Y-94234000D03*
X134112000Y-101854000D03*
X151892000Y-94234000D03*
X136652000Y-101854000D03*
X149352000Y-94234000D03*
X139192000Y-101854000D03*
X146812000Y-94234000D03*
X141732000Y-101854000D03*
X144272000Y-94234000D03*
X144272000Y-101854000D03*
X141732000Y-94234000D03*
X146812000Y-101854000D03*
X139192000Y-94234000D03*
X149352000Y-101854000D03*
X136652000Y-94234000D03*
X151892000Y-101854000D03*
X134112000Y-94234000D03*
X154432000Y-101854000D03*
X131572000Y-94234000D03*
X156972000Y-101854000D03*
X129032000Y-94234000D03*
X159512000Y-101854000D03*
X126492000Y-94234000D03*
D13*
X130048000Y-119634000D03*
X132588000Y-119634000D03*
X135128000Y-119634000D03*
X137668000Y-119634000D03*
X140208000Y-119634000D03*
X142748000Y-119634000D03*
X145288000Y-119634000D03*
X147828000Y-119634000D03*
D14*
X121158000Y-136144000D03*
X121158000Y-141144000D03*
D15*
X132842000Y-126492000D03*
D16*
X132842000Y-129032000D03*
X132842000Y-131572000D03*
X132842000Y-134112000D03*
X132842000Y-136652000D03*
X132842000Y-139192000D03*
D15*
X157988000Y-145034000D03*
D16*
X155448000Y-145034000D03*
X157988000Y-142494000D03*
X155448000Y-142494000D03*
X157988000Y-139954000D03*
X155448000Y-139954000D03*
X157988000Y-137414000D03*
X155448000Y-137414000D03*
X157988000Y-134874000D03*
X155448000Y-134874000D03*
X157988000Y-132334000D03*
X155448000Y-132334000D03*
X157988000Y-129794000D03*
X155448000Y-129794000D03*
X157988000Y-127254000D03*
X155448000Y-127254000D03*
X157988000Y-124714000D03*
X155448000Y-124714000D03*
X157988000Y-122174000D03*
X155448000Y-122174000D03*
X157988000Y-119634000D03*
X155448000Y-119634000D03*
X157988000Y-117094000D03*
X155448000Y-117094000D03*
D14*
X103886000Y-125476000D03*
D12*
X103886000Y-112776000D03*
D14*
X115824000Y-125476000D03*
D12*
X115824000Y-112776000D03*
D14*
X109982000Y-125476000D03*
D12*
X109982000Y-112776000D03*
D15*
X150876000Y-110490000D03*
D16*
X153416000Y-110490000D03*
X155956000Y-110490000D03*
X158496000Y-110490000D03*
X161036000Y-110490000D03*
D13*
X183134000Y-138430000D03*
X185674000Y-138430000D03*
X188214000Y-138430000D03*
X190754000Y-138430000D03*
X193294000Y-138430000D03*
X195834000Y-138430000D03*
X198374000Y-138430000D03*
X200914000Y-138430000D03*
X204216000Y-129667000D03*
X204216000Y-126167000D03*
D11*
X168656000Y-101854000D03*
D12*
X201676000Y-94234000D03*
X171196000Y-101854000D03*
X199136000Y-94234000D03*
X173736000Y-101854000D03*
X196596000Y-94234000D03*
X176276000Y-101854000D03*
X194056000Y-94234000D03*
X178816000Y-101854000D03*
X191516000Y-94234000D03*
X181356000Y-101854000D03*
X188976000Y-94234000D03*
X183896000Y-101854000D03*
X186436000Y-94234000D03*
X186436000Y-101854000D03*
X183896000Y-94234000D03*
X188976000Y-101854000D03*
X181356000Y-94234000D03*
X191516000Y-101854000D03*
X178816000Y-94234000D03*
X194056000Y-101854000D03*
X176276000Y-94234000D03*
X196596000Y-101854000D03*
X173736000Y-94234000D03*
X199136000Y-101854000D03*
X171196000Y-94234000D03*
X201676000Y-101854000D03*
X168656000Y-94234000D03*
D11*
X112776000Y-137668000D03*
D12*
X79756000Y-145288000D03*
X110236000Y-137668000D03*
X82296000Y-145288000D03*
X107696000Y-137668000D03*
X84836000Y-145288000D03*
X105156000Y-137668000D03*
X87376000Y-145288000D03*
X102616000Y-137668000D03*
X89916000Y-145288000D03*
X100076000Y-137668000D03*
X92456000Y-145288000D03*
X97536000Y-137668000D03*
X94996000Y-145288000D03*
X94996000Y-137668000D03*
X97536000Y-145288000D03*
X92456000Y-137668000D03*
X100076000Y-145288000D03*
X89916000Y-137668000D03*
X102616000Y-145288000D03*
X87376000Y-137668000D03*
X105156000Y-145288000D03*
X84836000Y-137668000D03*
X107696000Y-145288000D03*
X82296000Y-137668000D03*
X110236000Y-145288000D03*
X79756000Y-137668000D03*
X112776000Y-145288000D03*
D17*
X93726000Y-132842000D03*
X88846000Y-132842000D03*
D14*
X93980000Y-122428000D03*
X93980000Y-127428000D03*
X88900000Y-122428000D03*
X88900000Y-127428000D03*
D18*
X107950000Y-86360000D03*
X78740000Y-152400000D03*
X198120000Y-152400000D03*
X198120000Y-86360000D03*
D15*
X193421000Y-144526000D03*
D16*
X190881000Y-144526000D03*
X188341000Y-144526000D03*
X185801000Y-144526000D03*
X183261000Y-144526000D03*
X180721000Y-144526000D03*
D13*
X83342404Y-83922480D03*
X84328000Y-86614000D03*
X85882404Y-83922480D03*
X87152404Y-86462480D03*
X88422404Y-83922480D03*
X89692404Y-86462480D03*
X90962404Y-83922480D03*
X92232404Y-86462480D03*
X93502404Y-83922480D03*
X94772404Y-86462480D03*
X96042404Y-83922480D03*
X97312404Y-86462480D03*
X99112404Y-82442480D03*
X81542404Y-82442480D03*
X140177596Y-112419520D03*
X139192000Y-109728000D03*
X137637596Y-112419520D03*
X136367596Y-109879520D03*
X135097596Y-112419520D03*
X133827596Y-109879520D03*
X132557596Y-112419520D03*
X131287596Y-109879520D03*
X130017596Y-112419520D03*
X128747596Y-109879520D03*
X127477596Y-112419520D03*
X126207596Y-109879520D03*
X124407596Y-113899520D03*
X141977596Y-113899520D03*
X125760404Y-83922480D03*
X126746000Y-86614000D03*
X128300404Y-83922480D03*
X129570404Y-86462480D03*
X130840404Y-83922480D03*
X132110404Y-86462480D03*
X133380404Y-83922480D03*
X134650404Y-86462480D03*
X135920404Y-83922480D03*
X137190404Y-86462480D03*
X138460404Y-83922480D03*
X139730404Y-86462480D03*
X141530404Y-82442480D03*
X123960404Y-82442480D03*
D15*
X171450000Y-146050000D03*
D16*
X173990000Y-146050000D03*
D19*
X133858000Y-79502000D03*
X92202000Y-79502000D03*
X76200000Y-111760000D03*
X129286000Y-114300000D03*
X146812000Y-112776000D03*
D20*
X152908000Y-150368000D03*
X164084000Y-93726000D03*
X155702000Y-97536000D03*
X165354000Y-103632000D03*
D19*
X81026000Y-116586000D03*
X93726000Y-116281220D03*
X129540000Y-81026000D03*
X136144000Y-116078000D03*
X148855679Y-115633500D03*
X100583984Y-135128000D03*
X89916000Y-80264000D03*
X78740000Y-115570000D03*
X91440000Y-115570000D03*
X132080000Y-80264000D03*
X132842000Y-115252500D03*
X148590000Y-114554002D03*
D20*
X146050000Y-98044000D03*
X142748000Y-123952000D03*
D19*
X114045998Y-125476000D03*
X114554000Y-99568000D03*
X162052008Y-99568000D03*
X180848000Y-99568000D03*
X194564000Y-99568000D03*
X152400000Y-99568000D03*
X108458000Y-125476000D03*
X197104000Y-100330000D03*
X177546000Y-100584000D03*
X109982000Y-104394000D03*
X143255990Y-116649510D03*
X117348000Y-127254000D03*
X149098000Y-105918000D03*
D21*
X155448000Y-112712490D03*
D20*
X115570000Y-141478000D03*
D19*
X104394000Y-136144000D03*
X144930119Y-127103881D03*
X137668000Y-121158000D03*
X137160000Y-121920000D03*
X136144000Y-122936000D03*
X112522000Y-106426000D03*
X112522000Y-107950000D03*
X135128000Y-123698000D03*
X179832000Y-126492000D03*
X167386000Y-111506000D03*
X181864000Y-129794000D03*
X166624000Y-101854000D03*
X182372000Y-131572000D03*
X164592000Y-109220000D03*
X182372000Y-132842000D03*
X163576000Y-110998000D03*
X190500000Y-111506000D03*
X187706000Y-115824000D03*
X186690000Y-118110000D03*
X178816000Y-124460000D03*
X169926000Y-102870000D03*
X145542000Y-116840000D03*
X96266000Y-141224000D03*
X116078000Y-130302000D03*
X147319994Y-150622006D03*
X97282000Y-150622006D03*
X149098000Y-151384000D03*
X95250002Y-151384000D03*
X107188000Y-142748000D03*
X131826000Y-143510000D03*
X148082000Y-143510000D03*
X131064000Y-144716490D03*
X105664000Y-143256000D03*
X147066000Y-145034000D03*
D22*
X134039924Y-79502000D02*
X133858000Y-79502000D01*
X138460404Y-83922480D02*
X134039924Y-79502000D01*
X92544899Y-79844899D02*
X92202000Y-79502000D01*
X96012000Y-83312000D02*
X92544899Y-79844899D01*
X96012000Y-83820000D02*
X96012000Y-83312000D01*
X88328498Y-114998498D02*
X79438498Y-114998498D01*
X79438498Y-114998498D02*
X76200000Y-111760000D01*
X85598000Y-112268000D02*
X88328498Y-114998498D01*
X88328498Y-114998498D02*
X128587502Y-114998498D01*
X128587502Y-114998498D02*
X129286000Y-114300000D01*
X139954000Y-114300000D02*
X129286000Y-114300000D01*
X146812000Y-112776000D02*
X141478000Y-112776000D01*
X141478000Y-112776000D02*
X139954000Y-114300000D01*
D23*
X152908000Y-144819000D02*
X152908000Y-150368000D01*
X134581000Y-126492000D02*
X152908000Y-144819000D01*
X132842000Y-126492000D02*
X134581000Y-126492000D01*
X160274000Y-97536000D02*
X164084000Y-93726000D01*
X155702000Y-97536000D02*
X160274000Y-97536000D01*
X161290000Y-110490000D02*
X161544000Y-110236000D01*
X161544000Y-110236000D02*
X161544000Y-106680000D01*
X161544000Y-106680000D02*
X164592000Y-103632000D01*
X164592000Y-103632000D02*
X165354000Y-103632000D01*
D22*
X192024000Y-101347670D02*
X192036601Y-101360271D01*
X192036601Y-101360271D02*
X192036601Y-102347729D01*
X192036601Y-102347729D02*
X192024000Y-102360330D01*
X93726000Y-116281220D02*
X93776780Y-116332000D01*
X93776780Y-116332000D02*
X130833053Y-116332000D01*
X130833053Y-116332000D02*
X131087053Y-116078000D01*
X131087053Y-116078000D02*
X136144000Y-116078000D01*
X100583984Y-135128000D02*
X100583984Y-123139204D01*
X100583984Y-123139204D02*
X93726000Y-116281220D01*
X89662000Y-116332000D02*
X93675220Y-116332000D01*
X93675220Y-116332000D02*
X93726000Y-116281220D01*
X89700119Y-116332000D02*
X81764933Y-116332000D01*
X81764933Y-116332000D02*
X81510933Y-116586000D01*
X81510933Y-116586000D02*
X81026000Y-116586000D01*
X133380404Y-83922480D02*
X130483924Y-81026000D01*
X130483924Y-81026000D02*
X129540000Y-81026000D01*
X136144000Y-116078000D02*
X148411179Y-116078000D01*
X148411179Y-116078000D02*
X148855679Y-115633500D01*
X91440000Y-115570000D02*
X132039567Y-115570000D01*
X78740000Y-115570000D02*
X88622929Y-115570000D01*
X88622929Y-115570000D02*
X91440000Y-115570000D01*
X93502404Y-83922480D02*
X89916000Y-80336076D01*
X89916000Y-80336076D02*
X89916000Y-80264000D01*
X132842000Y-115252500D02*
X132357067Y-115252500D01*
X132357067Y-115252500D02*
X132039567Y-115570000D01*
X132261924Y-80264000D02*
X132080000Y-80264000D01*
X135920404Y-83922480D02*
X132261924Y-80264000D01*
X132842000Y-115252500D02*
X147828002Y-115316000D01*
X147828002Y-115316000D02*
X148590000Y-114554002D01*
D23*
X146050000Y-98044000D02*
X146558000Y-97536000D01*
X146558000Y-97536000D02*
X148844000Y-97536000D01*
X140208000Y-119634000D02*
X140208000Y-121412000D01*
X140208000Y-121412000D02*
X142748000Y-123952000D01*
D22*
X114045998Y-144018002D02*
X114045998Y-125960933D01*
X115824000Y-125476000D02*
X114045998Y-125476000D01*
X112776000Y-145288000D02*
X114045998Y-144018002D01*
X114045998Y-125960933D02*
X114045998Y-125476000D01*
X152400000Y-99568000D02*
X114554000Y-99568000D01*
X196596000Y-101854000D02*
X194564000Y-99822000D01*
X194564000Y-99822000D02*
X194564000Y-99568000D01*
X180848000Y-99568000D02*
X162052008Y-99568000D01*
X108458000Y-125476000D02*
X108458000Y-125984000D01*
X108458000Y-125984000D02*
X108966000Y-126492000D01*
X108966000Y-126492000D02*
X108966000Y-138936330D01*
X108966000Y-138936330D02*
X108712000Y-139190330D01*
X108712000Y-139190330D02*
X108712000Y-143764000D01*
X108712000Y-143764000D02*
X110236000Y-145288000D01*
X108458000Y-125476000D02*
X109982000Y-125476000D01*
X111760000Y-100584000D02*
X113538000Y-100584000D01*
X113538000Y-100584000D02*
X155956000Y-100584000D01*
X114808000Y-101854000D02*
X114008001Y-101054001D01*
X114008001Y-101054001D02*
X113538000Y-100584000D01*
X109982000Y-104394000D02*
X109982000Y-103378000D01*
X110998000Y-101346000D02*
X111760000Y-100584000D01*
X109982000Y-103378000D02*
X110998000Y-102362000D01*
X155956000Y-100584000D02*
X157226000Y-101854000D01*
X110998000Y-102362000D02*
X110998000Y-101346000D01*
X157226000Y-101854000D02*
X158496000Y-100584000D01*
X158496000Y-100584000D02*
X177546000Y-100584000D01*
X199136000Y-101854000D02*
X197612000Y-100330000D01*
X197612000Y-100330000D02*
X197104000Y-100330000D01*
X127952490Y-116649510D02*
X143255990Y-116649510D01*
X117348000Y-127254000D02*
X127952490Y-116649510D01*
X149098000Y-105918000D02*
X154940000Y-105918000D01*
X154940000Y-105918000D02*
X158750000Y-109728000D01*
X158750000Y-109728000D02*
X158750000Y-110490000D01*
D24*
X190754000Y-138430000D02*
X188976000Y-136652000D01*
X188976000Y-136652000D02*
X179387510Y-136652000D01*
X179387510Y-136652000D02*
X155448000Y-112712490D01*
D23*
X116458999Y-140589001D02*
X115570000Y-141478000D01*
X129501878Y-117894122D02*
X117728999Y-129667001D01*
X148153292Y-117894122D02*
X129501878Y-117894122D01*
X155557414Y-110490000D02*
X148153292Y-117894122D01*
X117728999Y-139319001D02*
X116458999Y-140589001D01*
X117728999Y-129667001D02*
X117728999Y-139319001D01*
X156210000Y-110490000D02*
X155557414Y-110490000D01*
D24*
X192278000Y-134874000D02*
X195834000Y-138430000D01*
X180594000Y-134874000D02*
X192278000Y-134874000D01*
X156210000Y-110490000D02*
X180594000Y-134874000D01*
D22*
X83312000Y-149860000D02*
X79756000Y-146304000D01*
X130556000Y-139192000D02*
X119888000Y-149860000D01*
X130556000Y-126746000D02*
X130556000Y-139192000D01*
X79756000Y-146304000D02*
X79756000Y-145288000D01*
X119888000Y-149860000D02*
X83312000Y-149860000D01*
X137668000Y-119634000D02*
X130556000Y-126746000D01*
X82296000Y-146304000D02*
X82296000Y-145288000D01*
X85344000Y-149352000D02*
X82296000Y-146304000D01*
X118110000Y-149352000D02*
X85344000Y-149352000D01*
X129794000Y-137668000D02*
X118110000Y-149352000D01*
X129794000Y-124968000D02*
X129794000Y-137668000D01*
X135128000Y-119634000D02*
X129794000Y-124968000D01*
X84836000Y-146304000D02*
X84836000Y-145288000D01*
X87376000Y-148844000D02*
X84836000Y-146304000D01*
X116840000Y-148844000D02*
X87376000Y-148844000D01*
X128778000Y-136906000D02*
X116840000Y-148844000D01*
X128778000Y-123444000D02*
X128778000Y-136906000D01*
X132588000Y-119634000D02*
X128778000Y-123444000D01*
X90424000Y-148336000D02*
X87376000Y-145288000D01*
X115900934Y-148336000D02*
X90424000Y-148336000D01*
X125984000Y-138252934D02*
X115900934Y-148336000D01*
X125984000Y-123698000D02*
X125984000Y-138252934D01*
X130048000Y-119634000D02*
X125984000Y-123698000D01*
X79756000Y-138176000D02*
X81788000Y-136144000D01*
X81788000Y-136144000D02*
X104394000Y-136144000D01*
X155448000Y-127254000D02*
X145080238Y-127254000D01*
X145080238Y-127254000D02*
X144930119Y-127103881D01*
X147828000Y-119634000D02*
X155448000Y-119634000D01*
X152654000Y-136144000D02*
X137668000Y-121158000D01*
X157988000Y-137414000D02*
X156718000Y-136144000D01*
X156718000Y-136144000D02*
X152654000Y-136144000D01*
X153924000Y-138684000D02*
X137160000Y-121920000D01*
X156718000Y-138684000D02*
X153924000Y-138684000D01*
X157988000Y-139954000D02*
X156718000Y-138684000D01*
X112522000Y-106426000D02*
X106680000Y-106426000D01*
X102108000Y-101854000D02*
X102907999Y-102653999D01*
X102907999Y-102653999D02*
X106680000Y-106426000D01*
X157988000Y-142494000D02*
X156718000Y-141224000D01*
X156718000Y-141224000D02*
X154432000Y-141224000D01*
X154432000Y-141224000D02*
X136144000Y-122936000D01*
X84328000Y-94234000D02*
X85356601Y-95262601D01*
X85356601Y-95262601D02*
X95008601Y-95262601D01*
X95008601Y-95262601D02*
X100838000Y-101092000D01*
X100838000Y-101092000D02*
X100838000Y-106680000D01*
X102108000Y-107950000D02*
X100838000Y-106680000D01*
X157988000Y-145034000D02*
X157988000Y-144031600D01*
X154940000Y-143764000D02*
X135128000Y-123952000D01*
X157988000Y-144031600D02*
X157720400Y-143764000D01*
X157720400Y-143764000D02*
X154940000Y-143764000D01*
X135128000Y-123952000D02*
X135128000Y-123698000D01*
X112522000Y-107950000D02*
X102108000Y-107950000D01*
X179832000Y-126492000D02*
X168148000Y-114808000D01*
X168148000Y-112268000D02*
X167728899Y-111848899D01*
X168148000Y-114808000D02*
X168148000Y-112268000D01*
X167728899Y-111848899D02*
X167386000Y-111506000D01*
X181521101Y-129451101D02*
X181864000Y-129794000D01*
X167640000Y-115570000D02*
X181521101Y-129451101D01*
X166624000Y-101854000D02*
X166624000Y-112445067D01*
X166624000Y-112445067D02*
X167640000Y-113461067D01*
X167640000Y-113461067D02*
X167640000Y-115570000D01*
X182372000Y-131572000D02*
X164592000Y-113792000D01*
X164592000Y-113792000D02*
X164592000Y-109220000D01*
X182372000Y-132842000D02*
X163576000Y-114046000D01*
X163576000Y-114046000D02*
X163576000Y-110998000D01*
X191516000Y-94234000D02*
X190246000Y-95504000D01*
X190246000Y-95504000D02*
X190246000Y-111252000D01*
X190246000Y-111252000D02*
X190500000Y-111506000D01*
X187706000Y-115339067D02*
X187706000Y-115824000D01*
X188976000Y-94234000D02*
X187706000Y-95504000D01*
X187706000Y-95504000D02*
X187706000Y-115339067D01*
X186690000Y-118110000D02*
X186690000Y-102108000D01*
X186690000Y-102108000D02*
X186436000Y-101854000D01*
X178816000Y-124460000D02*
X170688000Y-116332000D01*
X169583101Y-103212899D02*
X169926000Y-102870000D01*
X169418000Y-110172498D02*
X169418000Y-103378000D01*
X169418000Y-103378000D02*
X169583101Y-103212899D01*
X170688000Y-111442498D02*
X169418000Y-110172498D01*
X170688000Y-116332000D02*
X170688000Y-111442498D01*
X141965677Y-117157501D02*
X129222499Y-117157501D01*
X145160988Y-117221012D02*
X142029188Y-117221012D01*
X129222499Y-117157501D02*
X116078000Y-130302000D01*
X142029188Y-117221012D02*
X141965677Y-117157501D01*
X145542000Y-116840000D02*
X145160988Y-117221012D01*
X94996000Y-145288000D02*
X96266000Y-144018000D01*
X96266000Y-144018000D02*
X96266000Y-141224000D01*
X147319994Y-150622006D02*
X97282000Y-150622006D01*
X149098000Y-151384000D02*
X95250002Y-151384000D01*
X105156000Y-137668000D02*
X105156000Y-139192000D01*
X105156000Y-139192000D02*
X107188000Y-141224000D01*
X107188000Y-141224000D02*
X107188000Y-142748000D01*
X131826000Y-143510000D02*
X148082000Y-143510000D01*
X102616000Y-137668000D02*
X102616000Y-140208000D01*
X102616000Y-140208000D02*
X105664000Y-143256000D01*
X131381510Y-145034000D02*
X131064000Y-144716490D01*
X147066000Y-145034000D02*
X131381510Y-145034000D01*
X95758000Y-112268000D02*
X96012000Y-112014000D01*
X96012000Y-112014000D02*
X96774000Y-112014000D01*
X96774000Y-112014000D02*
X99568000Y-109220000D01*
X99568000Y-109220000D02*
X99568000Y-102985370D01*
X99568000Y-102985370D02*
X99568000Y-101854000D01*
X94488000Y-109728000D02*
X94488000Y-108650370D01*
X94488000Y-108650370D02*
X94488000Y-101854000D01*
X97028000Y-101854000D02*
X97028000Y-109292076D01*
X97028000Y-109292076D02*
X97312404Y-109576480D01*
X87152404Y-86462480D02*
X87152404Y-89438404D01*
X87152404Y-89438404D02*
X91948000Y-94234000D01*
X84328000Y-86614000D02*
X84328000Y-89154000D01*
X84328000Y-89154000D02*
X89408000Y-94234000D01*
X136652000Y-101854000D02*
X136652000Y-109728000D01*
X139192000Y-101854000D02*
X139192000Y-109728000D01*
X134366000Y-94234000D02*
X129286000Y-89154000D01*
X129286000Y-89154000D02*
X129286000Y-86614000D01*
X126746000Y-86614000D02*
X126746000Y-89154000D01*
X126746000Y-89154000D02*
X131826000Y-94234000D01*
X179547596Y-112419520D02*
X180188480Y-112419520D01*
X180188480Y-112419520D02*
X183896000Y-108712000D01*
X183896000Y-108712000D02*
X183896000Y-102985370D01*
X183896000Y-102985370D02*
X183896000Y-101854000D01*
X178277596Y-109879520D02*
X178277596Y-102392404D01*
X178277596Y-102392404D02*
X178816000Y-101854000D01*
X181356000Y-101854000D02*
X181356000Y-109474000D01*
X181356000Y-109474000D02*
X181102000Y-109728000D01*
X173228000Y-86614000D02*
X173228000Y-91186000D01*
X173228000Y-91186000D02*
X176276000Y-94234000D01*
X170688000Y-86614000D02*
X170688000Y-91186000D01*
X170688000Y-91186000D02*
X173736000Y-94234000D01*
X84328000Y-109728000D02*
X84328000Y-101854000D01*
X86868000Y-101854000D02*
X86868000Y-102985370D01*
X86868000Y-102985370D02*
X86868000Y-109728000D01*
X89408000Y-109728000D02*
X89408000Y-101854000D01*
X91948000Y-101854000D02*
X91948000Y-109728000D01*
X97312404Y-86462480D02*
X97312404Y-89438404D01*
X97312404Y-89438404D02*
X102108000Y-94234000D01*
X94772404Y-86462480D02*
X94772404Y-89438404D01*
X94772404Y-89438404D02*
X99568000Y-94234000D01*
X92232404Y-86462480D02*
X92232404Y-89438404D01*
X92232404Y-89438404D02*
X97028000Y-94234000D01*
X94488000Y-94234000D02*
X94488000Y-93726000D01*
X94488000Y-93726000D02*
X89662000Y-88900000D01*
X89662000Y-88900000D02*
X89662000Y-86492884D01*
X89662000Y-86492884D02*
X89692404Y-86462480D01*
X126492000Y-101854000D02*
X126492000Y-109728000D01*
X129032000Y-101854000D02*
X129032000Y-109728000D01*
X131572000Y-101854000D02*
X131572000Y-109728000D01*
X134112000Y-109728000D02*
X134112000Y-101854000D01*
X144526000Y-94234000D02*
X139446000Y-89154000D01*
X139446000Y-89154000D02*
X139446000Y-86614000D01*
X141986000Y-94234000D02*
X136906000Y-89154000D01*
X136906000Y-89154000D02*
X136906000Y-86614000D01*
X139446000Y-94234000D02*
X134366000Y-89154000D01*
X134366000Y-89154000D02*
X134366000Y-86614000D01*
X131572000Y-86614000D02*
X131572000Y-89154000D01*
X131572000Y-89154000D02*
X136652000Y-94234000D01*
X168117596Y-106710404D02*
X168656000Y-106172000D01*
X168656000Y-106172000D02*
X168656000Y-101854000D01*
X168117596Y-109879520D02*
X168117596Y-106710404D01*
X171196000Y-101854000D02*
X171196000Y-109341116D01*
X171196000Y-109341116D02*
X170657596Y-109879520D01*
X173197596Y-109879520D02*
X173197596Y-102392404D01*
X173197596Y-102392404D02*
X173736000Y-101854000D01*
X176276000Y-101854000D02*
X176276000Y-109341116D01*
X176276000Y-109341116D02*
X175737596Y-109879520D01*
X183388000Y-86614000D02*
X183388000Y-91186000D01*
X183388000Y-91186000D02*
X186436000Y-94234000D01*
X180848000Y-86614000D02*
X180848000Y-91186000D01*
X180848000Y-91186000D02*
X183896000Y-94234000D01*
X178308000Y-86614000D02*
X178308000Y-91186000D01*
X178308000Y-91186000D02*
X181356000Y-94234000D01*
X175768000Y-86614000D02*
X175768000Y-91186000D01*
X175768000Y-91186000D02*
X178816000Y-94234000D01*
D25*
G36*
X206920995Y-78428824D02*
X207922196Y-79097804D01*
X208591175Y-80099005D01*
X208840000Y-81349931D01*
X208840000Y-154870069D01*
X208591175Y-156120995D01*
X207922196Y-157122196D01*
X206920995Y-157791176D01*
X205670069Y-158040000D01*
X104833582Y-158040000D01*
X76754955Y-157883858D01*
X76289005Y-157791175D01*
X75287804Y-157122196D01*
X74618824Y-156120995D01*
X74370000Y-154870069D01*
X74370000Y-154746798D01*
X74553871Y-155191801D01*
X75940897Y-156581250D01*
X77754061Y-157334141D01*
X79717325Y-157335854D01*
X81531801Y-156586129D01*
X82921250Y-155199103D01*
X83674141Y-153385939D01*
X83674148Y-153377325D01*
X193184146Y-153377325D01*
X193933871Y-155191801D01*
X195320897Y-156581250D01*
X197134061Y-157334141D01*
X199097325Y-157335854D01*
X200911801Y-156586129D01*
X202301250Y-155199103D01*
X203054141Y-153385939D01*
X203055854Y-151422675D01*
X202306129Y-149608199D01*
X200919103Y-148218750D01*
X199105939Y-147465859D01*
X197142675Y-147464146D01*
X195328199Y-148213871D01*
X193938750Y-149600897D01*
X193185859Y-151414061D01*
X193184146Y-153377325D01*
X83674148Y-153377325D01*
X83675854Y-151422675D01*
X83324032Y-150571200D01*
X94680054Y-150571200D01*
X94421462Y-150829341D01*
X94272272Y-151188630D01*
X94271933Y-151577663D01*
X94420495Y-151937212D01*
X94695343Y-152212540D01*
X95054632Y-152361730D01*
X95443665Y-152362069D01*
X95803214Y-152213507D01*
X95921728Y-152095200D01*
X148426206Y-152095200D01*
X148543341Y-152212540D01*
X148902630Y-152361730D01*
X149291663Y-152362069D01*
X149651212Y-152213507D01*
X149926540Y-151938659D01*
X150075730Y-151579370D01*
X150076069Y-151190337D01*
X149927507Y-150830788D01*
X149652659Y-150555460D01*
X149293370Y-150406270D01*
X148904337Y-150405931D01*
X148544788Y-150554493D01*
X148426274Y-150672800D01*
X148297850Y-150672800D01*
X148298063Y-150428343D01*
X148149501Y-150068794D01*
X147874653Y-149793466D01*
X147515364Y-149644276D01*
X147126331Y-149643937D01*
X146766782Y-149792499D01*
X146648268Y-149910806D01*
X120842982Y-149910806D01*
X125843635Y-144910153D01*
X130085931Y-144910153D01*
X130234493Y-145269702D01*
X130509341Y-145545030D01*
X130868630Y-145694220D01*
X131126345Y-145694445D01*
X131381510Y-145745200D01*
X146394206Y-145745200D01*
X146511341Y-145862540D01*
X146870630Y-146011730D01*
X147259663Y-146012069D01*
X147619212Y-145863507D01*
X147894540Y-145588659D01*
X148043730Y-145229370D01*
X148044069Y-144840337D01*
X147898380Y-144487740D01*
X148275663Y-144488069D01*
X148635212Y-144339507D01*
X148910540Y-144064659D01*
X149059730Y-143705370D01*
X149060069Y-143316337D01*
X148911507Y-142956788D01*
X148636659Y-142681460D01*
X148277370Y-142532270D01*
X147888337Y-142531931D01*
X147528788Y-142680493D01*
X147410274Y-142798800D01*
X132497794Y-142798800D01*
X132380659Y-142681460D01*
X132021370Y-142532270D01*
X131632337Y-142531931D01*
X131272788Y-142680493D01*
X130997460Y-142955341D01*
X130848270Y-143314630D01*
X130847931Y-143703663D01*
X130863466Y-143741260D01*
X130510788Y-143886983D01*
X130235460Y-144161831D01*
X130086270Y-144521120D01*
X130085931Y-144910153D01*
X125843635Y-144910153D01*
X131058894Y-139694895D01*
X131213063Y-139464165D01*
X131226781Y-139395199D01*
X131267200Y-139192000D01*
X131267200Y-134112000D01*
X131327907Y-134112000D01*
X131440946Y-134680285D01*
X131762853Y-135162054D01*
X132092026Y-135382000D01*
X131762853Y-135601946D01*
X131440946Y-136083715D01*
X131327907Y-136652000D01*
X131440946Y-137220285D01*
X131762853Y-137702054D01*
X132092026Y-137922000D01*
X131762853Y-138141946D01*
X131440946Y-138623715D01*
X131327907Y-139192000D01*
X131440946Y-139760285D01*
X131762853Y-140242054D01*
X132244622Y-140563961D01*
X132812907Y-140677000D01*
X132871093Y-140677000D01*
X133439378Y-140563961D01*
X133921147Y-140242054D01*
X134243054Y-139760285D01*
X134356093Y-139192000D01*
X134243054Y-138623715D01*
X133921147Y-138141946D01*
X133591974Y-137922000D01*
X133921147Y-137702054D01*
X134243054Y-137220285D01*
X134356093Y-136652000D01*
X134243054Y-136083715D01*
X133921147Y-135601946D01*
X133591974Y-135382000D01*
X133921147Y-135162054D01*
X134243054Y-134680285D01*
X134356093Y-134112000D01*
X134243054Y-133543715D01*
X133921147Y-133061946D01*
X133576094Y-132831390D01*
X133870694Y-132643020D01*
X134202251Y-132167829D01*
X134225133Y-132112524D01*
X134129685Y-131889500D01*
X133159500Y-131889500D01*
X133159500Y-131909500D01*
X132524500Y-131909500D01*
X132524500Y-131889500D01*
X131554315Y-131889500D01*
X131458867Y-132112524D01*
X131481749Y-132167829D01*
X131813306Y-132643020D01*
X132107906Y-132831390D01*
X131762853Y-133061946D01*
X131440946Y-133543715D01*
X131327907Y-134112000D01*
X131267200Y-134112000D01*
X131267200Y-127040588D01*
X131344560Y-126963228D01*
X131344560Y-127342000D01*
X131388838Y-127577317D01*
X131527910Y-127793441D01*
X131740110Y-127938431D01*
X131807541Y-127952086D01*
X131762853Y-127981946D01*
X131440946Y-128463715D01*
X131327907Y-129032000D01*
X131440946Y-129600285D01*
X131762853Y-130082054D01*
X132107906Y-130312610D01*
X131813306Y-130500980D01*
X131481749Y-130976171D01*
X131458867Y-131031476D01*
X131554315Y-131254500D01*
X132524500Y-131254500D01*
X132524500Y-131234500D01*
X133159500Y-131234500D01*
X133159500Y-131254500D01*
X134129685Y-131254500D01*
X134225133Y-131031476D01*
X134202251Y-130976171D01*
X133870694Y-130500980D01*
X133576094Y-130312610D01*
X133921147Y-130082054D01*
X134243054Y-129600285D01*
X134356093Y-129032000D01*
X134243054Y-128463715D01*
X133921147Y-127981946D01*
X133879548Y-127954150D01*
X133927317Y-127945162D01*
X134143441Y-127806090D01*
X134234775Y-127672419D01*
X151828500Y-145266144D01*
X151828500Y-149292234D01*
X151616769Y-149503596D01*
X151384265Y-150063528D01*
X151383736Y-150669812D01*
X151615262Y-151230149D01*
X152043596Y-151659231D01*
X152603528Y-151891735D01*
X153209812Y-151892264D01*
X153770149Y-151660738D01*
X154199231Y-151232404D01*
X154431735Y-150672472D01*
X154432264Y-150066188D01*
X154200738Y-149505851D01*
X153987500Y-149292241D01*
X153987500Y-145303430D01*
X154046946Y-145602285D01*
X154368853Y-146084054D01*
X154850622Y-146405961D01*
X155418907Y-146519000D01*
X155477093Y-146519000D01*
X156045378Y-146405961D01*
X156527147Y-146084054D01*
X156527971Y-146082821D01*
X156534838Y-146119317D01*
X156673910Y-146335441D01*
X156886110Y-146480431D01*
X157138000Y-146531440D01*
X158838000Y-146531440D01*
X158865582Y-146526250D01*
X169965000Y-146526250D01*
X169965000Y-147026310D01*
X170061673Y-147259699D01*
X170240302Y-147438327D01*
X170473691Y-147535000D01*
X170973750Y-147535000D01*
X171132500Y-147376250D01*
X171132500Y-146367500D01*
X170123750Y-146367500D01*
X169965000Y-146526250D01*
X158865582Y-146526250D01*
X159073317Y-146487162D01*
X159289441Y-146348090D01*
X159434431Y-146135890D01*
X159485440Y-145884000D01*
X159485440Y-145073690D01*
X169965000Y-145073690D01*
X169965000Y-145573750D01*
X170123750Y-145732500D01*
X171132500Y-145732500D01*
X171132500Y-144723750D01*
X171767500Y-144723750D01*
X171767500Y-145732500D01*
X171787500Y-145732500D01*
X171787500Y-146367500D01*
X171767500Y-146367500D01*
X171767500Y-147376250D01*
X171926250Y-147535000D01*
X172426309Y-147535000D01*
X172659698Y-147438327D01*
X172838327Y-147259699D01*
X172906903Y-147094142D01*
X172910853Y-147100054D01*
X173392622Y-147421961D01*
X173960907Y-147535000D01*
X174019093Y-147535000D01*
X174587378Y-147421961D01*
X175069147Y-147100054D01*
X175391054Y-146618285D01*
X175504093Y-146050000D01*
X175391054Y-145481715D01*
X175069147Y-144999946D01*
X174587378Y-144678039D01*
X174019093Y-144565000D01*
X173960907Y-144565000D01*
X173392622Y-144678039D01*
X172910853Y-144999946D01*
X172906903Y-145005858D01*
X172838327Y-144840301D01*
X172659698Y-144661673D01*
X172426309Y-144565000D01*
X171926250Y-144565000D01*
X171767500Y-144723750D01*
X171132500Y-144723750D01*
X170973750Y-144565000D01*
X170473691Y-144565000D01*
X170240302Y-144661673D01*
X170061673Y-144840301D01*
X169965000Y-145073690D01*
X159485440Y-145073690D01*
X159485440Y-144496907D01*
X179236000Y-144496907D01*
X179236000Y-144555093D01*
X179349039Y-145123378D01*
X179670946Y-145605147D01*
X180152715Y-145927054D01*
X180721000Y-146040093D01*
X181289285Y-145927054D01*
X181771054Y-145605147D01*
X181991000Y-145275974D01*
X182210946Y-145605147D01*
X182692715Y-145927054D01*
X183261000Y-146040093D01*
X183829285Y-145927054D01*
X184311054Y-145605147D01*
X184531000Y-145275974D01*
X184750946Y-145605147D01*
X185232715Y-145927054D01*
X185801000Y-146040093D01*
X186369285Y-145927054D01*
X186851054Y-145605147D01*
X187071000Y-145275974D01*
X187290946Y-145605147D01*
X187772715Y-145927054D01*
X188341000Y-146040093D01*
X188909285Y-145927054D01*
X189391054Y-145605147D01*
X189611000Y-145275974D01*
X189830946Y-145605147D01*
X190312715Y-145927054D01*
X190881000Y-146040093D01*
X191449285Y-145927054D01*
X191931054Y-145605147D01*
X191960403Y-145561223D01*
X192032673Y-145735698D01*
X192211301Y-145914327D01*
X192444690Y-146011000D01*
X192944750Y-146011000D01*
X193103500Y-145852250D01*
X193103500Y-144843500D01*
X193738500Y-144843500D01*
X193738500Y-145852250D01*
X193897250Y-146011000D01*
X194397310Y-146011000D01*
X194630699Y-145914327D01*
X194809327Y-145735698D01*
X194906000Y-145502309D01*
X194906000Y-145002250D01*
X194747250Y-144843500D01*
X193738500Y-144843500D01*
X193103500Y-144843500D01*
X193083500Y-144843500D01*
X193083500Y-144208500D01*
X193103500Y-144208500D01*
X193103500Y-143199750D01*
X193738500Y-143199750D01*
X193738500Y-144208500D01*
X194747250Y-144208500D01*
X194906000Y-144049750D01*
X194906000Y-143549691D01*
X194809327Y-143316302D01*
X194630699Y-143137673D01*
X194397310Y-143041000D01*
X193897250Y-143041000D01*
X193738500Y-143199750D01*
X193103500Y-143199750D01*
X192944750Y-143041000D01*
X192444690Y-143041000D01*
X192211301Y-143137673D01*
X192032673Y-143316302D01*
X191960403Y-143490777D01*
X191931054Y-143446853D01*
X191449285Y-143124946D01*
X190881000Y-143011907D01*
X190312715Y-143124946D01*
X189830946Y-143446853D01*
X189611000Y-143776026D01*
X189391054Y-143446853D01*
X188909285Y-143124946D01*
X188341000Y-143011907D01*
X187772715Y-143124946D01*
X187290946Y-143446853D01*
X187071000Y-143776026D01*
X186851054Y-143446853D01*
X186369285Y-143124946D01*
X185801000Y-143011907D01*
X185232715Y-143124946D01*
X184750946Y-143446853D01*
X184531000Y-143776026D01*
X184311054Y-143446853D01*
X183829285Y-143124946D01*
X183261000Y-143011907D01*
X182692715Y-143124946D01*
X182210946Y-143446853D01*
X181991000Y-143776026D01*
X181771054Y-143446853D01*
X181289285Y-143124946D01*
X180721000Y-143011907D01*
X180152715Y-143124946D01*
X179670946Y-143446853D01*
X179349039Y-143928622D01*
X179236000Y-144496907D01*
X159485440Y-144496907D01*
X159485440Y-144184000D01*
X159441162Y-143948683D01*
X159302090Y-143732559D01*
X159089890Y-143587569D01*
X159022459Y-143573914D01*
X159067147Y-143544054D01*
X159389054Y-143062285D01*
X159502093Y-142494000D01*
X159389054Y-141925715D01*
X159067147Y-141443946D01*
X158737974Y-141224000D01*
X159067147Y-141004054D01*
X159389054Y-140522285D01*
X159502093Y-139954000D01*
X159389054Y-139385715D01*
X159067147Y-138903946D01*
X158737974Y-138684000D01*
X159067147Y-138464054D01*
X159389054Y-137982285D01*
X159502093Y-137414000D01*
X159389054Y-136845715D01*
X159067147Y-136363946D01*
X158737974Y-136144000D01*
X159067147Y-135924054D01*
X159389054Y-135442285D01*
X159502093Y-134874000D01*
X159389054Y-134305715D01*
X159067147Y-133823946D01*
X158737974Y-133604000D01*
X159067147Y-133384054D01*
X159389054Y-132902285D01*
X159502093Y-132334000D01*
X159389054Y-131765715D01*
X159067147Y-131283946D01*
X158737974Y-131064000D01*
X159067147Y-130844054D01*
X159389054Y-130362285D01*
X159502093Y-129794000D01*
X159389054Y-129225715D01*
X159067147Y-128743946D01*
X158737974Y-128524000D01*
X159067147Y-128304054D01*
X159389054Y-127822285D01*
X159502093Y-127254000D01*
X159389054Y-126685715D01*
X159067147Y-126203946D01*
X158737974Y-125984000D01*
X159067147Y-125764054D01*
X159389054Y-125282285D01*
X159502093Y-124714000D01*
X159389054Y-124145715D01*
X159067147Y-123663946D01*
X158737974Y-123444000D01*
X159067147Y-123224054D01*
X159389054Y-122742285D01*
X159502093Y-122174000D01*
X159389054Y-121605715D01*
X159067147Y-121123946D01*
X158737974Y-120904000D01*
X159067147Y-120684054D01*
X159389054Y-120202285D01*
X159502093Y-119634000D01*
X159389054Y-119065715D01*
X159067147Y-118583946D01*
X158737974Y-118364000D01*
X159067147Y-118144054D01*
X159289521Y-117811247D01*
X178758892Y-137280618D01*
X179047304Y-137473329D01*
X179387510Y-137541000D01*
X182047170Y-137541000D01*
X181950371Y-137637630D01*
X181737243Y-138150900D01*
X181736758Y-138706661D01*
X181948990Y-139220303D01*
X182341630Y-139613629D01*
X182854900Y-139826757D01*
X183410661Y-139827242D01*
X183924303Y-139615010D01*
X184317629Y-139222370D01*
X184403949Y-139014488D01*
X184488990Y-139220303D01*
X184881630Y-139613629D01*
X185394900Y-139826757D01*
X185950661Y-139827242D01*
X186464303Y-139615010D01*
X186857629Y-139222370D01*
X186943949Y-139014488D01*
X187028990Y-139220303D01*
X187421630Y-139613629D01*
X187934900Y-139826757D01*
X188490661Y-139827242D01*
X189004303Y-139615010D01*
X189397629Y-139222370D01*
X189483949Y-139014488D01*
X189568990Y-139220303D01*
X189961630Y-139613629D01*
X190474900Y-139826757D01*
X191030661Y-139827242D01*
X191544303Y-139615010D01*
X191937629Y-139222370D01*
X192023949Y-139014488D01*
X192108990Y-139220303D01*
X192501630Y-139613629D01*
X193014900Y-139826757D01*
X193570661Y-139827242D01*
X194084303Y-139615010D01*
X194477629Y-139222370D01*
X194563949Y-139014488D01*
X194648990Y-139220303D01*
X195041630Y-139613629D01*
X195554900Y-139826757D01*
X196110661Y-139827242D01*
X196624303Y-139615010D01*
X197017629Y-139222370D01*
X197103949Y-139014488D01*
X197188990Y-139220303D01*
X197581630Y-139613629D01*
X198094900Y-139826757D01*
X198650661Y-139827242D01*
X199164303Y-139615010D01*
X199258661Y-139520816D01*
X200272197Y-139520816D01*
X200354704Y-139739968D01*
X200898581Y-139854286D01*
X201444805Y-139751769D01*
X201473296Y-139739968D01*
X201555803Y-139520816D01*
X200914000Y-138879013D01*
X200272197Y-139520816D01*
X199258661Y-139520816D01*
X199557629Y-139222370D01*
X199647599Y-139005698D01*
X199823184Y-139071803D01*
X200464987Y-138430000D01*
X201363013Y-138430000D01*
X202004816Y-139071803D01*
X202223968Y-138989296D01*
X202338286Y-138445419D01*
X202235769Y-137899195D01*
X202223968Y-137870704D01*
X202004816Y-137788197D01*
X201363013Y-138430000D01*
X200464987Y-138430000D01*
X199823184Y-137788197D01*
X199647671Y-137854275D01*
X199559010Y-137639697D01*
X199259022Y-137339184D01*
X200272197Y-137339184D01*
X200914000Y-137980987D01*
X201555803Y-137339184D01*
X201473296Y-137120032D01*
X200929419Y-137005714D01*
X200383195Y-137108231D01*
X200354704Y-137120032D01*
X200272197Y-137339184D01*
X199259022Y-137339184D01*
X199166370Y-137246371D01*
X198653100Y-137033243D01*
X198097339Y-137032758D01*
X197583697Y-137244990D01*
X197190371Y-137637630D01*
X197104051Y-137845512D01*
X197019010Y-137639697D01*
X196626370Y-137246371D01*
X196113100Y-137033243D01*
X195694113Y-137032877D01*
X192906618Y-134245382D01*
X192764273Y-134150270D01*
X192618206Y-134052671D01*
X192278000Y-133985000D01*
X180962236Y-133985000D01*
X158900808Y-111923572D01*
X159064285Y-111891054D01*
X159546054Y-111569147D01*
X159766000Y-111239974D01*
X159985946Y-111569147D01*
X160467715Y-111891054D01*
X161036000Y-112004093D01*
X161604285Y-111891054D01*
X162086054Y-111569147D01*
X162407961Y-111087378D01*
X162475560Y-110747536D01*
X162541328Y-110649107D01*
X162623500Y-110236000D01*
X162623500Y-107127144D01*
X164728296Y-105022348D01*
X165049528Y-105155735D01*
X165655812Y-105156264D01*
X165912800Y-105050079D01*
X165912800Y-112445067D01*
X165933047Y-112546856D01*
X165527293Y-112714510D01*
X165303200Y-112938212D01*
X165303200Y-109891794D01*
X165420540Y-109774659D01*
X165569730Y-109415370D01*
X165570069Y-109026337D01*
X165421507Y-108666788D01*
X165146659Y-108391460D01*
X164787370Y-108242270D01*
X164398337Y-108241931D01*
X164038788Y-108390493D01*
X163763460Y-108665341D01*
X163614270Y-109024630D01*
X163613931Y-109413663D01*
X163762493Y-109773212D01*
X163880800Y-109891726D01*
X163880800Y-110065709D01*
X163771370Y-110020270D01*
X163382337Y-110019931D01*
X163022788Y-110168493D01*
X162747460Y-110443341D01*
X162598270Y-110802630D01*
X162597931Y-111191663D01*
X162746493Y-111551212D01*
X162864800Y-111669726D01*
X162864800Y-114046000D01*
X162918937Y-114318165D01*
X163073106Y-114548894D01*
X181394075Y-132869863D01*
X181393931Y-133035663D01*
X181542493Y-133395212D01*
X181817341Y-133670540D01*
X182176630Y-133819730D01*
X182565663Y-133820069D01*
X182925212Y-133671507D01*
X183200540Y-133396659D01*
X183349730Y-133037370D01*
X183350069Y-132648337D01*
X183201507Y-132288788D01*
X183119960Y-132207099D01*
X183200540Y-132126659D01*
X183349730Y-131767370D01*
X183350069Y-131378337D01*
X183201507Y-131018788D01*
X182926659Y-130743460D01*
X182567370Y-130594270D01*
X182446605Y-130594165D01*
X182692540Y-130348659D01*
X182841730Y-129989370D01*
X182841769Y-129943661D01*
X202818758Y-129943661D01*
X203030990Y-130457303D01*
X203423630Y-130850629D01*
X203936900Y-131063757D01*
X204492661Y-131064242D01*
X205006303Y-130852010D01*
X205399629Y-130459370D01*
X205612757Y-129946100D01*
X205613242Y-129390339D01*
X205401010Y-128876697D01*
X205008370Y-128483371D01*
X204495100Y-128270243D01*
X203939339Y-128269758D01*
X203425697Y-128481990D01*
X203032371Y-128874630D01*
X202819243Y-129387900D01*
X202818758Y-129943661D01*
X182841769Y-129943661D01*
X182842069Y-129600337D01*
X182693507Y-129240788D01*
X182418659Y-128965460D01*
X182059370Y-128816270D01*
X181891913Y-128816124D01*
X180391259Y-127315470D01*
X180660540Y-127046659D01*
X180809730Y-126687370D01*
X180809942Y-126443661D01*
X202818758Y-126443661D01*
X203030990Y-126957303D01*
X203423630Y-127350629D01*
X203936900Y-127563757D01*
X204492661Y-127564242D01*
X205006303Y-127352010D01*
X205399629Y-126959370D01*
X205612757Y-126446100D01*
X205613242Y-125890339D01*
X205401010Y-125376697D01*
X205008370Y-124983371D01*
X204495100Y-124770243D01*
X203939339Y-124769758D01*
X203425697Y-124981990D01*
X203032371Y-125374630D01*
X202819243Y-125887900D01*
X202818758Y-126443661D01*
X180809942Y-126443661D01*
X180810069Y-126298337D01*
X180661507Y-125938788D01*
X180386659Y-125663460D01*
X180027370Y-125514270D01*
X179859913Y-125514124D01*
X179502370Y-125156581D01*
X179644540Y-125014659D01*
X179793730Y-124655370D01*
X179794069Y-124266337D01*
X179645507Y-123906788D01*
X179370659Y-123631460D01*
X179011370Y-123482270D01*
X178843912Y-123482124D01*
X171399200Y-116037412D01*
X171399200Y-113712760D01*
X171648496Y-113816277D01*
X172204257Y-113816762D01*
X172717899Y-113604530D01*
X173111225Y-113211890D01*
X173197545Y-113004008D01*
X173282586Y-113209823D01*
X173675226Y-113603149D01*
X174188496Y-113816277D01*
X174744257Y-113816762D01*
X175257899Y-113604530D01*
X175651225Y-113211890D01*
X175737545Y-113004008D01*
X175822586Y-113209823D01*
X176215226Y-113603149D01*
X176728496Y-113816277D01*
X177284257Y-113816762D01*
X177797899Y-113604530D01*
X178191225Y-113211890D01*
X178277545Y-113004008D01*
X178362586Y-113209823D01*
X178755226Y-113603149D01*
X179268496Y-113816277D01*
X179824257Y-113816762D01*
X180337899Y-113604530D01*
X180731225Y-113211890D01*
X180817545Y-113004008D01*
X180902586Y-113209823D01*
X181295226Y-113603149D01*
X181808496Y-113816277D01*
X182364257Y-113816762D01*
X182490713Y-113764511D01*
X182490354Y-114176181D01*
X182702586Y-114689823D01*
X183095226Y-115083149D01*
X183608496Y-115296277D01*
X184164257Y-115296762D01*
X184677899Y-115084530D01*
X185071225Y-114691890D01*
X185284353Y-114178620D01*
X185284838Y-113622859D01*
X185072606Y-113109217D01*
X184679966Y-112715891D01*
X184166696Y-112502763D01*
X183610935Y-112502278D01*
X183484479Y-112554529D01*
X183484838Y-112142859D01*
X183272606Y-111629217D01*
X182879966Y-111235891D01*
X182525206Y-111088582D01*
X184398894Y-109214894D01*
X184553063Y-108984165D01*
X184565322Y-108922534D01*
X184607200Y-108712000D01*
X184607200Y-103099602D01*
X184910698Y-102896811D01*
X185166000Y-102514725D01*
X185421302Y-102896811D01*
X185886849Y-103207880D01*
X185978800Y-103226170D01*
X185978800Y-117438206D01*
X185861460Y-117555341D01*
X185712270Y-117914630D01*
X185711931Y-118303663D01*
X185860493Y-118663212D01*
X186135341Y-118938540D01*
X186494630Y-119087730D01*
X186883663Y-119088069D01*
X187243212Y-118939507D01*
X187518540Y-118664659D01*
X187667730Y-118305370D01*
X187668069Y-117916337D01*
X187519507Y-117556788D01*
X187401200Y-117438274D01*
X187401200Y-116756291D01*
X187510630Y-116801730D01*
X187899663Y-116802069D01*
X188259212Y-116653507D01*
X188534540Y-116378659D01*
X188683730Y-116019370D01*
X188684069Y-115630337D01*
X188535507Y-115270788D01*
X188417200Y-115152274D01*
X188417200Y-103175670D01*
X188443489Y-103186538D01*
X188658500Y-103090126D01*
X188658500Y-102171500D01*
X188638500Y-102171500D01*
X188638500Y-101536500D01*
X188658500Y-101536500D01*
X188658500Y-100617874D01*
X188443489Y-100521462D01*
X188417200Y-100532330D01*
X188417200Y-95798588D01*
X188594550Y-95621238D01*
X188976000Y-95697113D01*
X189525151Y-95587880D01*
X189534800Y-95581433D01*
X189534800Y-100532330D01*
X189508511Y-100521462D01*
X189293500Y-100617874D01*
X189293500Y-101536500D01*
X189313500Y-101536500D01*
X189313500Y-102171500D01*
X189293500Y-102171500D01*
X189293500Y-103090126D01*
X189508511Y-103186538D01*
X189534800Y-103175670D01*
X189534800Y-111252000D01*
X189538627Y-111271239D01*
X189522270Y-111310630D01*
X189521931Y-111699663D01*
X189670493Y-112059212D01*
X189945341Y-112334540D01*
X190304630Y-112483730D01*
X190693663Y-112484069D01*
X191053212Y-112335507D01*
X191328540Y-112060659D01*
X191477730Y-111701370D01*
X191478069Y-111312337D01*
X191329507Y-110952788D01*
X191054659Y-110677460D01*
X190957200Y-110636991D01*
X190957200Y-103201433D01*
X190966849Y-103207880D01*
X191516000Y-103317113D01*
X192065151Y-103207880D01*
X192530698Y-102896811D01*
X192786000Y-102514725D01*
X193041302Y-102896811D01*
X193506849Y-103207880D01*
X194056000Y-103317113D01*
X194605151Y-103207880D01*
X195070698Y-102896811D01*
X195326000Y-102514725D01*
X195581302Y-102896811D01*
X196046849Y-103207880D01*
X196596000Y-103317113D01*
X197145151Y-103207880D01*
X197610698Y-102896811D01*
X197866000Y-102514725D01*
X198121302Y-102896811D01*
X198586849Y-103207880D01*
X199136000Y-103317113D01*
X199685151Y-103207880D01*
X200150698Y-102896811D01*
X200406000Y-102514725D01*
X200661302Y-102896811D01*
X201126849Y-103207880D01*
X201676000Y-103317113D01*
X202225151Y-103207880D01*
X202690698Y-102896811D01*
X203001767Y-102431264D01*
X203111000Y-101882113D01*
X203111000Y-101825887D01*
X203001767Y-101276736D01*
X202690698Y-100811189D01*
X202225151Y-100500120D01*
X201676000Y-100390887D01*
X201126849Y-100500120D01*
X200661302Y-100811189D01*
X200406000Y-101193275D01*
X200150698Y-100811189D01*
X199685151Y-100500120D01*
X199136000Y-100390887D01*
X198754550Y-100466762D01*
X198114894Y-99827106D01*
X197884165Y-99672937D01*
X197816377Y-99659453D01*
X197658659Y-99501460D01*
X197299370Y-99352270D01*
X196910337Y-99351931D01*
X196550788Y-99500493D01*
X196275460Y-99775341D01*
X196126270Y-100134630D01*
X196126058Y-100378270D01*
X195532760Y-99784972D01*
X195541730Y-99763370D01*
X195542069Y-99374337D01*
X195393507Y-99014788D01*
X195118659Y-98739460D01*
X194759370Y-98590270D01*
X194370337Y-98589931D01*
X194010788Y-98738493D01*
X193735460Y-99013341D01*
X193586270Y-99372630D01*
X193585931Y-99761663D01*
X193734493Y-100121212D01*
X194009341Y-100396540D01*
X194015248Y-100398993D01*
X193506849Y-100500120D01*
X193041302Y-100811189D01*
X192786000Y-101193275D01*
X192530698Y-100811189D01*
X192065151Y-100500120D01*
X191516000Y-100390887D01*
X190966849Y-100500120D01*
X190957200Y-100506567D01*
X190957200Y-95798588D01*
X191134550Y-95621238D01*
X191516000Y-95697113D01*
X192065151Y-95587880D01*
X192530698Y-95276811D01*
X192796542Y-94878947D01*
X193028657Y-95235929D01*
X193490280Y-95552809D01*
X193523489Y-95566538D01*
X193738500Y-95470126D01*
X193738500Y-94551500D01*
X193718500Y-94551500D01*
X193718500Y-93916500D01*
X193738500Y-93916500D01*
X193738500Y-92997874D01*
X194373500Y-92997874D01*
X194373500Y-93916500D01*
X194393500Y-93916500D01*
X194393500Y-94551500D01*
X194373500Y-94551500D01*
X194373500Y-95470126D01*
X194588511Y-95566538D01*
X194621720Y-95552809D01*
X195083343Y-95235929D01*
X195315458Y-94878947D01*
X195581302Y-95276811D01*
X196046849Y-95587880D01*
X196596000Y-95697113D01*
X197145151Y-95587880D01*
X197610698Y-95276811D01*
X197866000Y-94894725D01*
X198121302Y-95276811D01*
X198586849Y-95587880D01*
X199136000Y-95697113D01*
X199685151Y-95587880D01*
X200150698Y-95276811D01*
X200416542Y-94878947D01*
X200648657Y-95235929D01*
X201110280Y-95552809D01*
X201143489Y-95566538D01*
X201358500Y-95470126D01*
X201358500Y-94551500D01*
X201993500Y-94551500D01*
X201993500Y-95470126D01*
X202208511Y-95566538D01*
X202241720Y-95552809D01*
X202703343Y-95235929D01*
X203008563Y-94766515D01*
X202916711Y-94551500D01*
X201993500Y-94551500D01*
X201358500Y-94551500D01*
X201338500Y-94551500D01*
X201338500Y-93916500D01*
X201358500Y-93916500D01*
X201358500Y-92997874D01*
X201993500Y-92997874D01*
X201993500Y-93916500D01*
X202916711Y-93916500D01*
X203008563Y-93701485D01*
X202703343Y-93232071D01*
X202241720Y-92915191D01*
X202208511Y-92901462D01*
X201993500Y-92997874D01*
X201358500Y-92997874D01*
X201143489Y-92901462D01*
X201110280Y-92915191D01*
X200648657Y-93232071D01*
X200416542Y-93589053D01*
X200150698Y-93191189D01*
X199685151Y-92880120D01*
X199136000Y-92770887D01*
X198586849Y-92880120D01*
X198121302Y-93191189D01*
X197866000Y-93573275D01*
X197610698Y-93191189D01*
X197145151Y-92880120D01*
X196596000Y-92770887D01*
X196046849Y-92880120D01*
X195581302Y-93191189D01*
X195315458Y-93589053D01*
X195083343Y-93232071D01*
X194621720Y-92915191D01*
X194588511Y-92901462D01*
X194373500Y-92997874D01*
X193738500Y-92997874D01*
X193523489Y-92901462D01*
X193490280Y-92915191D01*
X193028657Y-93232071D01*
X192796542Y-93589053D01*
X192530698Y-93191189D01*
X192065151Y-92880120D01*
X191516000Y-92770887D01*
X190966849Y-92880120D01*
X190501302Y-93191189D01*
X190246000Y-93573275D01*
X189990698Y-93191189D01*
X189525151Y-92880120D01*
X188976000Y-92770887D01*
X188426849Y-92880120D01*
X187961302Y-93191189D01*
X187706000Y-93573275D01*
X187450698Y-93191189D01*
X186985151Y-92880120D01*
X186436000Y-92770887D01*
X186054550Y-92846762D01*
X184099200Y-90891412D01*
X184099200Y-87692737D01*
X184208707Y-87647490D01*
X184519413Y-87337325D01*
X193184146Y-87337325D01*
X193933871Y-89151801D01*
X195320897Y-90541250D01*
X197134061Y-91294141D01*
X199097325Y-91295854D01*
X200911801Y-90546129D01*
X202301250Y-89159103D01*
X203054141Y-87345939D01*
X203055854Y-85382675D01*
X202306129Y-83568199D01*
X200919103Y-82178750D01*
X199105939Y-81425859D01*
X197142675Y-81424146D01*
X195328199Y-82173871D01*
X193938750Y-83560897D01*
X193185859Y-85374061D01*
X193184146Y-87337325D01*
X184519413Y-87337325D01*
X184602033Y-87254850D01*
X184815161Y-86741580D01*
X184815646Y-86185819D01*
X184603414Y-85672177D01*
X184210774Y-85278851D01*
X183697504Y-85065723D01*
X183141743Y-85065238D01*
X182628101Y-85277470D01*
X182234775Y-85670110D01*
X182148455Y-85877992D01*
X182063414Y-85672177D01*
X181670774Y-85278851D01*
X181157504Y-85065723D01*
X180601743Y-85065238D01*
X180088101Y-85277470D01*
X179694775Y-85670110D01*
X179608455Y-85877992D01*
X179523414Y-85672177D01*
X179130774Y-85278851D01*
X178617504Y-85065723D01*
X178061743Y-85065238D01*
X177548101Y-85277470D01*
X177154775Y-85670110D01*
X177068455Y-85877992D01*
X176983414Y-85672177D01*
X176590774Y-85278851D01*
X176077504Y-85065723D01*
X175521743Y-85065238D01*
X175008101Y-85277470D01*
X174614775Y-85670110D01*
X174528455Y-85877992D01*
X174443414Y-85672177D01*
X174050774Y-85278851D01*
X173537504Y-85065723D01*
X172981743Y-85065238D01*
X172468101Y-85277470D01*
X172074775Y-85670110D01*
X171861647Y-86183380D01*
X171861162Y-86739141D01*
X172073394Y-87252783D01*
X172466034Y-87646109D01*
X172516800Y-87667189D01*
X172516800Y-91186000D01*
X172570937Y-91458165D01*
X172725106Y-91688894D01*
X173824753Y-92788541D01*
X173736000Y-92770887D01*
X173354550Y-92846762D01*
X171399200Y-90891412D01*
X171399200Y-87624418D01*
X171617629Y-87406370D01*
X171830757Y-86893100D01*
X171831242Y-86337339D01*
X171619010Y-85823697D01*
X171226370Y-85430371D01*
X170713100Y-85217243D01*
X170157339Y-85216758D01*
X169643697Y-85428990D01*
X169250371Y-85821630D01*
X169037243Y-86334900D01*
X169036758Y-86890661D01*
X169248990Y-87404303D01*
X169641630Y-87797629D01*
X169976800Y-87936804D01*
X169976800Y-91186000D01*
X170030937Y-91458165D01*
X170185106Y-91688894D01*
X171284753Y-92788541D01*
X171196000Y-92770887D01*
X170646849Y-92880120D01*
X170181302Y-93191189D01*
X169926000Y-93573275D01*
X169670698Y-93191189D01*
X169205151Y-92880120D01*
X168656000Y-92770887D01*
X168106849Y-92880120D01*
X167641302Y-93191189D01*
X167330233Y-93656736D01*
X167221000Y-94205887D01*
X167221000Y-94262113D01*
X167330233Y-94811264D01*
X167641302Y-95276811D01*
X168106849Y-95587880D01*
X168656000Y-95697113D01*
X169205151Y-95587880D01*
X169670698Y-95276811D01*
X169926000Y-94894725D01*
X170181302Y-95276811D01*
X170646849Y-95587880D01*
X171196000Y-95697113D01*
X171745151Y-95587880D01*
X172210698Y-95276811D01*
X172466000Y-94894725D01*
X172721302Y-95276811D01*
X173186849Y-95587880D01*
X173736000Y-95697113D01*
X174285151Y-95587880D01*
X174750698Y-95276811D01*
X175006000Y-94894725D01*
X175261302Y-95276811D01*
X175726849Y-95587880D01*
X176276000Y-95697113D01*
X176825151Y-95587880D01*
X177290698Y-95276811D01*
X177546000Y-94894725D01*
X177801302Y-95276811D01*
X178266849Y-95587880D01*
X178816000Y-95697113D01*
X179365151Y-95587880D01*
X179830698Y-95276811D01*
X180086000Y-94894725D01*
X180341302Y-95276811D01*
X180806849Y-95587880D01*
X181356000Y-95697113D01*
X181905151Y-95587880D01*
X182370698Y-95276811D01*
X182626000Y-94894725D01*
X182881302Y-95276811D01*
X183346849Y-95587880D01*
X183896000Y-95697113D01*
X184445151Y-95587880D01*
X184910698Y-95276811D01*
X185166000Y-94894725D01*
X185421302Y-95276811D01*
X185886849Y-95587880D01*
X186436000Y-95697113D01*
X186985151Y-95587880D01*
X186994800Y-95581433D01*
X186994800Y-100506567D01*
X186985151Y-100500120D01*
X186436000Y-100390887D01*
X185886849Y-100500120D01*
X185421302Y-100811189D01*
X185166000Y-101193275D01*
X184910698Y-100811189D01*
X184445151Y-100500120D01*
X183896000Y-100390887D01*
X183346849Y-100500120D01*
X182881302Y-100811189D01*
X182626000Y-101193275D01*
X182370698Y-100811189D01*
X181905151Y-100500120D01*
X181397335Y-100399109D01*
X181401212Y-100397507D01*
X181676540Y-100122659D01*
X181825730Y-99763370D01*
X181826069Y-99374337D01*
X181677507Y-99014788D01*
X181402659Y-98739460D01*
X181043370Y-98590270D01*
X180654337Y-98589931D01*
X180294788Y-98738493D01*
X180176274Y-98856800D01*
X162723802Y-98856800D01*
X162606667Y-98739460D01*
X162247378Y-98590270D01*
X161858345Y-98589931D01*
X161498796Y-98738493D01*
X161223468Y-99013341D01*
X161074278Y-99372630D01*
X161073939Y-99761663D01*
X161119860Y-99872800D01*
X158496000Y-99872800D01*
X158268990Y-99917955D01*
X158223835Y-99926937D01*
X157993105Y-100081106D01*
X157552886Y-100521325D01*
X157521151Y-100500120D01*
X156972000Y-100390887D01*
X156802409Y-100424621D01*
X156458894Y-100081106D01*
X156228165Y-99926937D01*
X155956000Y-99872800D01*
X153332291Y-99872800D01*
X153377730Y-99763370D01*
X153378069Y-99374337D01*
X153229507Y-99014788D01*
X152954659Y-98739460D01*
X152595370Y-98590270D01*
X152206337Y-98589931D01*
X151846788Y-98738493D01*
X151728274Y-98856800D01*
X115225794Y-98856800D01*
X115108659Y-98739460D01*
X114749370Y-98590270D01*
X114360337Y-98589931D01*
X114000788Y-98738493D01*
X113725460Y-99013341D01*
X113576270Y-99372630D01*
X113575931Y-99761663D01*
X113621852Y-99872800D01*
X111760000Y-99872800D01*
X111487835Y-99926937D01*
X111257106Y-100081105D01*
X110613410Y-100724802D01*
X110277151Y-100500120D01*
X109728000Y-100390887D01*
X109178849Y-100500120D01*
X108713302Y-100811189D01*
X108458000Y-101193275D01*
X108202698Y-100811189D01*
X107737151Y-100500120D01*
X107188000Y-100390887D01*
X106638849Y-100500120D01*
X106173302Y-100811189D01*
X105907458Y-101209053D01*
X105675343Y-100852071D01*
X105213720Y-100535191D01*
X105180511Y-100521462D01*
X104965500Y-100617874D01*
X104965500Y-101536500D01*
X104985500Y-101536500D01*
X104985500Y-102171500D01*
X104965500Y-102171500D01*
X104965500Y-103090126D01*
X105180511Y-103186538D01*
X105213720Y-103172809D01*
X105675343Y-102855929D01*
X105907458Y-102498947D01*
X106173302Y-102896811D01*
X106638849Y-103207880D01*
X107188000Y-103317113D01*
X107737151Y-103207880D01*
X108202698Y-102896811D01*
X108458000Y-102514725D01*
X108713302Y-102896811D01*
X109178849Y-103207880D01*
X109299851Y-103231949D01*
X109270800Y-103378000D01*
X109270800Y-103722206D01*
X109153460Y-103839341D01*
X109004270Y-104198630D01*
X109003931Y-104587663D01*
X109152493Y-104947212D01*
X109427341Y-105222540D01*
X109786630Y-105371730D01*
X110175663Y-105372069D01*
X110535212Y-105223507D01*
X110810540Y-104948659D01*
X110959730Y-104589370D01*
X110960069Y-104200337D01*
X110811507Y-103840788D01*
X110693200Y-103722274D01*
X110693200Y-103672588D01*
X111382590Y-102983198D01*
X111718849Y-103207880D01*
X112268000Y-103317113D01*
X112817151Y-103207880D01*
X113282698Y-102896811D01*
X113538000Y-102514725D01*
X113793302Y-102896811D01*
X114258849Y-103207880D01*
X114808000Y-103317113D01*
X115357151Y-103207880D01*
X115822698Y-102896811D01*
X116078000Y-102514725D01*
X116333302Y-102896811D01*
X116798849Y-103207880D01*
X117348000Y-103317113D01*
X117897151Y-103207880D01*
X118362698Y-102896811D01*
X118673767Y-102431264D01*
X118783000Y-101882113D01*
X118783000Y-101825887D01*
X118677440Y-101295200D01*
X125044560Y-101295200D01*
X125044560Y-102654000D01*
X125088838Y-102889317D01*
X125227910Y-103105441D01*
X125440110Y-103250431D01*
X125692000Y-103301440D01*
X125780800Y-103301440D01*
X125780800Y-108544312D01*
X125417293Y-108694510D01*
X125023967Y-109087150D01*
X124810839Y-109600420D01*
X124810354Y-110156181D01*
X125022586Y-110669823D01*
X125415226Y-111063149D01*
X125928496Y-111276277D01*
X126484257Y-111276762D01*
X126997899Y-111064530D01*
X127391225Y-110671890D01*
X127477545Y-110464008D01*
X127562586Y-110669823D01*
X127955226Y-111063149D01*
X128468496Y-111276277D01*
X129024257Y-111276762D01*
X129537899Y-111064530D01*
X129931225Y-110671890D01*
X130017545Y-110464008D01*
X130102586Y-110669823D01*
X130495226Y-111063149D01*
X131008496Y-111276277D01*
X131564257Y-111276762D01*
X132077899Y-111064530D01*
X132471225Y-110671890D01*
X132557545Y-110464008D01*
X132642586Y-110669823D01*
X133035226Y-111063149D01*
X133548496Y-111276277D01*
X134104257Y-111276762D01*
X134617899Y-111064530D01*
X135011225Y-110671890D01*
X135097545Y-110464008D01*
X135182586Y-110669823D01*
X135575226Y-111063149D01*
X136088496Y-111276277D01*
X136644257Y-111276762D01*
X137157899Y-111064530D01*
X137551225Y-110671890D01*
X137764353Y-110158620D01*
X137764838Y-109602859D01*
X137552606Y-109089217D01*
X137363200Y-108899480D01*
X137363200Y-103099602D01*
X137666698Y-102896811D01*
X137922000Y-102514725D01*
X138177302Y-102896811D01*
X138480800Y-103099602D01*
X138480800Y-108510305D01*
X138401697Y-108542990D01*
X138008371Y-108935630D01*
X137795243Y-109448900D01*
X137794758Y-110004661D01*
X138006990Y-110518303D01*
X138399630Y-110911629D01*
X138912900Y-111124757D01*
X139468661Y-111125242D01*
X139982303Y-110913010D01*
X140375629Y-110520370D01*
X140588757Y-110007100D01*
X140589242Y-109451339D01*
X140377010Y-108937697D01*
X139984370Y-108544371D01*
X139903200Y-108510666D01*
X139903200Y-103099602D01*
X140206698Y-102896811D01*
X140462000Y-102514725D01*
X140717302Y-102896811D01*
X141182849Y-103207880D01*
X141732000Y-103317113D01*
X142281151Y-103207880D01*
X142746698Y-102896811D01*
X143002000Y-102514725D01*
X143257302Y-102896811D01*
X143722849Y-103207880D01*
X144272000Y-103317113D01*
X144821151Y-103207880D01*
X145286698Y-102896811D01*
X145552542Y-102498947D01*
X145784657Y-102855929D01*
X146246280Y-103172809D01*
X146279489Y-103186538D01*
X146494500Y-103090126D01*
X146494500Y-102171500D01*
X146474500Y-102171500D01*
X146474500Y-101536500D01*
X146494500Y-101536500D01*
X146494500Y-101516500D01*
X147129500Y-101516500D01*
X147129500Y-101536500D01*
X147149500Y-101536500D01*
X147149500Y-102171500D01*
X147129500Y-102171500D01*
X147129500Y-103090126D01*
X147344511Y-103186538D01*
X147377720Y-103172809D01*
X147839343Y-102855929D01*
X148071458Y-102498947D01*
X148337302Y-102896811D01*
X148802849Y-103207880D01*
X149352000Y-103317113D01*
X149901151Y-103207880D01*
X150366698Y-102896811D01*
X150622000Y-102514725D01*
X150877302Y-102896811D01*
X151342849Y-103207880D01*
X151892000Y-103317113D01*
X152441151Y-103207880D01*
X152906698Y-102896811D01*
X153162000Y-102514725D01*
X153417302Y-102896811D01*
X153882849Y-103207880D01*
X154432000Y-103317113D01*
X154981151Y-103207880D01*
X155446698Y-102896811D01*
X155702000Y-102514725D01*
X155957302Y-102896811D01*
X156422849Y-103207880D01*
X156972000Y-103317113D01*
X157521151Y-103207880D01*
X157986698Y-102896811D01*
X158242000Y-102514725D01*
X158497302Y-102896811D01*
X158962849Y-103207880D01*
X159512000Y-103317113D01*
X160061151Y-103207880D01*
X160526698Y-102896811D01*
X160837767Y-102431264D01*
X160947000Y-101882113D01*
X160947000Y-101825887D01*
X160841440Y-101295200D01*
X165799608Y-101295200D01*
X165795460Y-101299341D01*
X165646270Y-101658630D01*
X165645931Y-102047663D01*
X165673560Y-102114530D01*
X165658472Y-102108265D01*
X165052188Y-102107736D01*
X164491851Y-102339262D01*
X164200163Y-102630441D01*
X164178893Y-102634672D01*
X163828678Y-102868678D01*
X160780678Y-105916678D01*
X160546672Y-106266893D01*
X160464500Y-106680000D01*
X160464500Y-109091094D01*
X159985946Y-109410853D01*
X159766000Y-109740026D01*
X159546054Y-109410853D01*
X159222351Y-109194562D01*
X155442894Y-105415106D01*
X155212165Y-105260937D01*
X154940000Y-105206800D01*
X149769794Y-105206800D01*
X149652659Y-105089460D01*
X149293370Y-104940270D01*
X148904337Y-104939931D01*
X148544788Y-105088493D01*
X148269460Y-105363341D01*
X148120270Y-105722630D01*
X148119931Y-106111663D01*
X148268493Y-106471212D01*
X148543341Y-106746540D01*
X148902630Y-106895730D01*
X149291663Y-106896069D01*
X149651212Y-106747507D01*
X149769726Y-106629200D01*
X154645412Y-106629200D01*
X157438383Y-109422172D01*
X157226000Y-109740026D01*
X157006054Y-109410853D01*
X156524285Y-109088946D01*
X155956000Y-108975907D01*
X155387715Y-109088946D01*
X154905946Y-109410853D01*
X154686000Y-109740026D01*
X154466054Y-109410853D01*
X153984285Y-109088946D01*
X153416000Y-108975907D01*
X152847715Y-109088946D01*
X152365946Y-109410853D01*
X152338150Y-109452452D01*
X152329162Y-109404683D01*
X152190090Y-109188559D01*
X151977890Y-109043569D01*
X151726000Y-108992560D01*
X150026000Y-108992560D01*
X149790683Y-109036838D01*
X149574559Y-109175910D01*
X149429569Y-109388110D01*
X149378560Y-109640000D01*
X149378560Y-111340000D01*
X149422838Y-111575317D01*
X149561910Y-111791441D01*
X149774110Y-111936431D01*
X150026000Y-111987440D01*
X151726000Y-111987440D01*
X151961317Y-111943162D01*
X152177441Y-111804090D01*
X152322431Y-111591890D01*
X152336086Y-111524459D01*
X152365946Y-111569147D01*
X152717034Y-111803736D01*
X149562941Y-114957829D01*
X149505192Y-114899980D01*
X149567730Y-114749372D01*
X149568069Y-114360339D01*
X149419507Y-114000790D01*
X149144659Y-113725462D01*
X148785370Y-113576272D01*
X148396337Y-113575933D01*
X148036788Y-113724495D01*
X147761460Y-113999343D01*
X147612270Y-114358632D01*
X147612124Y-114526090D01*
X147534664Y-114603550D01*
X143205524Y-114585206D01*
X143374353Y-114178620D01*
X143374838Y-113622859D01*
X143318785Y-113487200D01*
X146140206Y-113487200D01*
X146257341Y-113604540D01*
X146616630Y-113753730D01*
X147005663Y-113754069D01*
X147365212Y-113605507D01*
X147640540Y-113330659D01*
X147789730Y-112971370D01*
X147790069Y-112582337D01*
X147641507Y-112222788D01*
X147366659Y-111947460D01*
X147007370Y-111798270D01*
X146618337Y-111797931D01*
X146258788Y-111946493D01*
X146140274Y-112064800D01*
X141542585Y-112064800D01*
X141362606Y-111629217D01*
X140969966Y-111235891D01*
X140456696Y-111022763D01*
X139900935Y-111022278D01*
X139387293Y-111234510D01*
X138993967Y-111627150D01*
X138907647Y-111835032D01*
X138822606Y-111629217D01*
X138429966Y-111235891D01*
X137916696Y-111022763D01*
X137360935Y-111022278D01*
X136847293Y-111234510D01*
X136453967Y-111627150D01*
X136367647Y-111835032D01*
X136282606Y-111629217D01*
X135889966Y-111235891D01*
X135376696Y-111022763D01*
X134820935Y-111022278D01*
X134307293Y-111234510D01*
X133913967Y-111627150D01*
X133827647Y-111835032D01*
X133742606Y-111629217D01*
X133349966Y-111235891D01*
X132836696Y-111022763D01*
X132280935Y-111022278D01*
X131767293Y-111234510D01*
X131373967Y-111627150D01*
X131287647Y-111835032D01*
X131202606Y-111629217D01*
X130809966Y-111235891D01*
X130296696Y-111022763D01*
X129740935Y-111022278D01*
X129227293Y-111234510D01*
X128833967Y-111627150D01*
X128747647Y-111835032D01*
X128662606Y-111629217D01*
X128269966Y-111235891D01*
X127756696Y-111022763D01*
X127200935Y-111022278D01*
X126687293Y-111234510D01*
X126293967Y-111627150D01*
X126080839Y-112140420D01*
X126080354Y-112696181D01*
X126292586Y-113209823D01*
X126685226Y-113603149D01*
X127198496Y-113816277D01*
X127754257Y-113816762D01*
X128267899Y-113604530D01*
X128661225Y-113211890D01*
X128747545Y-113004008D01*
X128832586Y-113209823D01*
X128987670Y-113365178D01*
X128732788Y-113470493D01*
X128457460Y-113745341D01*
X128308270Y-114104630D01*
X128308124Y-114272088D01*
X128292914Y-114287298D01*
X125759226Y-114287298D01*
X125804353Y-114178620D01*
X125804838Y-113622859D01*
X125592606Y-113109217D01*
X125199966Y-112715891D01*
X124686696Y-112502763D01*
X124130935Y-112502278D01*
X123617293Y-112714510D01*
X123223967Y-113107150D01*
X123010839Y-113620420D01*
X123010354Y-114176181D01*
X123056266Y-114287298D01*
X101386714Y-114287298D01*
X101494757Y-114027100D01*
X101495242Y-113471339D01*
X101427965Y-113308515D01*
X102553437Y-113308515D01*
X102858657Y-113777929D01*
X103320280Y-114094809D01*
X103353489Y-114108538D01*
X103568500Y-114012126D01*
X103568500Y-113093500D01*
X104203500Y-113093500D01*
X104203500Y-114012126D01*
X104418511Y-114108538D01*
X104451720Y-114094809D01*
X104913343Y-113777929D01*
X105218563Y-113308515D01*
X108649437Y-113308515D01*
X108954657Y-113777929D01*
X109416280Y-114094809D01*
X109449489Y-114108538D01*
X109664500Y-114012126D01*
X109664500Y-113093500D01*
X110299500Y-113093500D01*
X110299500Y-114012126D01*
X110514511Y-114108538D01*
X110547720Y-114094809D01*
X111009343Y-113777929D01*
X111314563Y-113308515D01*
X114491437Y-113308515D01*
X114796657Y-113777929D01*
X115258280Y-114094809D01*
X115291489Y-114108538D01*
X115506500Y-114012126D01*
X115506500Y-113093500D01*
X116141500Y-113093500D01*
X116141500Y-114012126D01*
X116356511Y-114108538D01*
X116389720Y-114094809D01*
X116851343Y-113777929D01*
X117156563Y-113308515D01*
X117064711Y-113093500D01*
X116141500Y-113093500D01*
X115506500Y-113093500D01*
X114583289Y-113093500D01*
X114491437Y-113308515D01*
X111314563Y-113308515D01*
X111222711Y-113093500D01*
X110299500Y-113093500D01*
X109664500Y-113093500D01*
X108741289Y-113093500D01*
X108649437Y-113308515D01*
X105218563Y-113308515D01*
X105126711Y-113093500D01*
X104203500Y-113093500D01*
X103568500Y-113093500D01*
X102645289Y-113093500D01*
X102553437Y-113308515D01*
X101427965Y-113308515D01*
X101283010Y-112957697D01*
X100890370Y-112564371D01*
X100377100Y-112351243D01*
X99821339Y-112350758D01*
X99694883Y-112403009D01*
X99695022Y-112243485D01*
X102553437Y-112243485D01*
X102645289Y-112458500D01*
X103568500Y-112458500D01*
X103568500Y-111539874D01*
X104203500Y-111539874D01*
X104203500Y-112458500D01*
X105126711Y-112458500D01*
X105218563Y-112243485D01*
X108649437Y-112243485D01*
X108741289Y-112458500D01*
X109664500Y-112458500D01*
X109664500Y-111539874D01*
X110299500Y-111539874D01*
X110299500Y-112458500D01*
X111222711Y-112458500D01*
X111314563Y-112243485D01*
X114491437Y-112243485D01*
X114583289Y-112458500D01*
X115506500Y-112458500D01*
X115506500Y-111539874D01*
X116141500Y-111539874D01*
X116141500Y-112458500D01*
X117064711Y-112458500D01*
X117156563Y-112243485D01*
X116851343Y-111774071D01*
X116389720Y-111457191D01*
X116356511Y-111443462D01*
X116141500Y-111539874D01*
X115506500Y-111539874D01*
X115291489Y-111443462D01*
X115258280Y-111457191D01*
X114796657Y-111774071D01*
X114491437Y-112243485D01*
X111314563Y-112243485D01*
X111009343Y-111774071D01*
X110547720Y-111457191D01*
X110514511Y-111443462D01*
X110299500Y-111539874D01*
X109664500Y-111539874D01*
X109449489Y-111443462D01*
X109416280Y-111457191D01*
X108954657Y-111774071D01*
X108649437Y-112243485D01*
X105218563Y-112243485D01*
X104913343Y-111774071D01*
X104451720Y-111457191D01*
X104418511Y-111443462D01*
X104203500Y-111539874D01*
X103568500Y-111539874D01*
X103353489Y-111443462D01*
X103320280Y-111457191D01*
X102858657Y-111774071D01*
X102553437Y-112243485D01*
X99695022Y-112243485D01*
X99695242Y-111991339D01*
X99483010Y-111477697D01*
X99090370Y-111084371D01*
X98821190Y-110972598D01*
X100070895Y-109722894D01*
X100225063Y-109492164D01*
X100279200Y-109220000D01*
X100279200Y-107099225D01*
X100335106Y-107182894D01*
X101605105Y-108452894D01*
X101835835Y-108607063D01*
X101880990Y-108616045D01*
X102108000Y-108661200D01*
X111850206Y-108661200D01*
X111967341Y-108778540D01*
X112326630Y-108927730D01*
X112715663Y-108928069D01*
X113075212Y-108779507D01*
X113350540Y-108504659D01*
X113499730Y-108145370D01*
X113500069Y-107756337D01*
X113351507Y-107396788D01*
X113142960Y-107187877D01*
X113350540Y-106980659D01*
X113499730Y-106621370D01*
X113500069Y-106232337D01*
X113351507Y-105872788D01*
X113076659Y-105597460D01*
X112717370Y-105448270D01*
X112328337Y-105447931D01*
X111968788Y-105596493D01*
X111850274Y-105714800D01*
X106974588Y-105714800D01*
X104330500Y-103070712D01*
X104330500Y-102171500D01*
X104310500Y-102171500D01*
X104310500Y-101536500D01*
X104330500Y-101536500D01*
X104330500Y-100617874D01*
X104115489Y-100521462D01*
X104082280Y-100535191D01*
X103620657Y-100852071D01*
X103388542Y-101209053D01*
X103122698Y-100811189D01*
X102657151Y-100500120D01*
X102108000Y-100390887D01*
X101558849Y-100500120D01*
X101367062Y-100628268D01*
X101340894Y-100589106D01*
X98589600Y-97837812D01*
X154177736Y-97837812D01*
X154409262Y-98398149D01*
X154837596Y-98827231D01*
X155397528Y-99059735D01*
X156003812Y-99060264D01*
X156564149Y-98828738D01*
X156777759Y-98615500D01*
X160274000Y-98615500D01*
X160687107Y-98533328D01*
X161037322Y-98299322D01*
X164086641Y-95250003D01*
X164385812Y-95250264D01*
X164946149Y-95018738D01*
X165375231Y-94590404D01*
X165607735Y-94030472D01*
X165608264Y-93424188D01*
X165376738Y-92863851D01*
X164948404Y-92434769D01*
X164388472Y-92202265D01*
X163782188Y-92201736D01*
X163221851Y-92433262D01*
X162792769Y-92861596D01*
X162560265Y-93421528D01*
X162560002Y-93723354D01*
X159826856Y-96456500D01*
X156777766Y-96456500D01*
X156566404Y-96244769D01*
X156006472Y-96012265D01*
X155400188Y-96011736D01*
X154839851Y-96243262D01*
X154410769Y-96671596D01*
X154178265Y-97231528D01*
X154177736Y-97837812D01*
X98589600Y-97837812D01*
X96059402Y-95307614D01*
X96478849Y-95587880D01*
X97028000Y-95697113D01*
X97577151Y-95587880D01*
X98042698Y-95276811D01*
X98298000Y-94894725D01*
X98553302Y-95276811D01*
X99018849Y-95587880D01*
X99568000Y-95697113D01*
X100117151Y-95587880D01*
X100582698Y-95276811D01*
X100838000Y-94894725D01*
X101093302Y-95276811D01*
X101558849Y-95587880D01*
X102108000Y-95697113D01*
X102657151Y-95587880D01*
X103122698Y-95276811D01*
X103378000Y-94894725D01*
X103633302Y-95276811D01*
X104098849Y-95587880D01*
X104648000Y-95697113D01*
X105197151Y-95587880D01*
X105662698Y-95276811D01*
X105918000Y-94894725D01*
X106173302Y-95276811D01*
X106638849Y-95587880D01*
X107188000Y-95697113D01*
X107737151Y-95587880D01*
X108202698Y-95276811D01*
X108468542Y-94878947D01*
X108700657Y-95235929D01*
X109162280Y-95552809D01*
X109195489Y-95566538D01*
X109410500Y-95470126D01*
X109410500Y-94551500D01*
X109390500Y-94551500D01*
X109390500Y-93916500D01*
X109410500Y-93916500D01*
X109410500Y-92997874D01*
X110045500Y-92997874D01*
X110045500Y-93916500D01*
X110065500Y-93916500D01*
X110065500Y-94551500D01*
X110045500Y-94551500D01*
X110045500Y-95470126D01*
X110260511Y-95566538D01*
X110293720Y-95552809D01*
X110755343Y-95235929D01*
X110987458Y-94878947D01*
X111253302Y-95276811D01*
X111718849Y-95587880D01*
X112268000Y-95697113D01*
X112817151Y-95587880D01*
X113282698Y-95276811D01*
X113538000Y-94894725D01*
X113793302Y-95276811D01*
X114258849Y-95587880D01*
X114808000Y-95697113D01*
X115357151Y-95587880D01*
X115822698Y-95276811D01*
X116078000Y-94894725D01*
X116333302Y-95276811D01*
X116798849Y-95587880D01*
X117348000Y-95697113D01*
X117897151Y-95587880D01*
X118362698Y-95276811D01*
X118673767Y-94811264D01*
X118783000Y-94262113D01*
X118783000Y-94205887D01*
X125057000Y-94205887D01*
X125057000Y-94262113D01*
X125166233Y-94811264D01*
X125477302Y-95276811D01*
X125942849Y-95587880D01*
X126492000Y-95697113D01*
X127041151Y-95587880D01*
X127506698Y-95276811D01*
X127762000Y-94894725D01*
X128017302Y-95276811D01*
X128482849Y-95587880D01*
X129032000Y-95697113D01*
X129581151Y-95587880D01*
X130046698Y-95276811D01*
X130302000Y-94894725D01*
X130557302Y-95276811D01*
X131022849Y-95587880D01*
X131572000Y-95697113D01*
X132121151Y-95587880D01*
X132586698Y-95276811D01*
X132842000Y-94894725D01*
X133097302Y-95276811D01*
X133562849Y-95587880D01*
X134112000Y-95697113D01*
X134661151Y-95587880D01*
X135126698Y-95276811D01*
X135382000Y-94894725D01*
X135637302Y-95276811D01*
X136102849Y-95587880D01*
X136652000Y-95697113D01*
X137201151Y-95587880D01*
X137666698Y-95276811D01*
X137922000Y-94894725D01*
X138177302Y-95276811D01*
X138642849Y-95587880D01*
X139192000Y-95697113D01*
X139741151Y-95587880D01*
X140206698Y-95276811D01*
X140462000Y-94894725D01*
X140717302Y-95276811D01*
X141182849Y-95587880D01*
X141732000Y-95697113D01*
X142281151Y-95587880D01*
X142746698Y-95276811D01*
X143002000Y-94894725D01*
X143257302Y-95276811D01*
X143722849Y-95587880D01*
X144272000Y-95697113D01*
X144821151Y-95587880D01*
X145286698Y-95276811D01*
X145542000Y-94894725D01*
X145797302Y-95276811D01*
X146262849Y-95587880D01*
X146812000Y-95697113D01*
X147361151Y-95587880D01*
X147826698Y-95276811D01*
X148082000Y-94894725D01*
X148337302Y-95276811D01*
X148802849Y-95587880D01*
X149352000Y-95697113D01*
X149901151Y-95587880D01*
X150366698Y-95276811D01*
X150632542Y-94878947D01*
X150864657Y-95235929D01*
X151326280Y-95552809D01*
X151359489Y-95566538D01*
X151574500Y-95470126D01*
X151574500Y-94551500D01*
X151554500Y-94551500D01*
X151554500Y-93916500D01*
X151574500Y-93916500D01*
X151574500Y-92997874D01*
X152209500Y-92997874D01*
X152209500Y-93916500D01*
X152229500Y-93916500D01*
X152229500Y-94551500D01*
X152209500Y-94551500D01*
X152209500Y-95470126D01*
X152424511Y-95566538D01*
X152457720Y-95552809D01*
X152919343Y-95235929D01*
X153151458Y-94878947D01*
X153417302Y-95276811D01*
X153882849Y-95587880D01*
X154432000Y-95697113D01*
X154981151Y-95587880D01*
X155446698Y-95276811D01*
X155702000Y-94894725D01*
X155957302Y-95276811D01*
X156422849Y-95587880D01*
X156972000Y-95697113D01*
X157521151Y-95587880D01*
X157986698Y-95276811D01*
X158252542Y-94878947D01*
X158484657Y-95235929D01*
X158946280Y-95552809D01*
X158979489Y-95566538D01*
X159194500Y-95470126D01*
X159194500Y-94551500D01*
X159829500Y-94551500D01*
X159829500Y-95470126D01*
X160044511Y-95566538D01*
X160077720Y-95552809D01*
X160539343Y-95235929D01*
X160844563Y-94766515D01*
X160752711Y-94551500D01*
X159829500Y-94551500D01*
X159194500Y-94551500D01*
X159174500Y-94551500D01*
X159174500Y-93916500D01*
X159194500Y-93916500D01*
X159194500Y-92997874D01*
X159829500Y-92997874D01*
X159829500Y-93916500D01*
X160752711Y-93916500D01*
X160844563Y-93701485D01*
X160539343Y-93232071D01*
X160077720Y-92915191D01*
X160044511Y-92901462D01*
X159829500Y-92997874D01*
X159194500Y-92997874D01*
X158979489Y-92901462D01*
X158946280Y-92915191D01*
X158484657Y-93232071D01*
X158252542Y-93589053D01*
X157986698Y-93191189D01*
X157521151Y-92880120D01*
X156972000Y-92770887D01*
X156422849Y-92880120D01*
X155957302Y-93191189D01*
X155702000Y-93573275D01*
X155446698Y-93191189D01*
X154981151Y-92880120D01*
X154432000Y-92770887D01*
X153882849Y-92880120D01*
X153417302Y-93191189D01*
X153151458Y-93589053D01*
X152919343Y-93232071D01*
X152457720Y-92915191D01*
X152424511Y-92901462D01*
X152209500Y-92997874D01*
X151574500Y-92997874D01*
X151359489Y-92901462D01*
X151326280Y-92915191D01*
X150864657Y-93232071D01*
X150632542Y-93589053D01*
X150366698Y-93191189D01*
X149901151Y-92880120D01*
X149352000Y-92770887D01*
X148802849Y-92880120D01*
X148337302Y-93191189D01*
X148082000Y-93573275D01*
X147826698Y-93191189D01*
X147361151Y-92880120D01*
X146812000Y-92770887D01*
X146262849Y-92880120D01*
X145797302Y-93191189D01*
X145542000Y-93573275D01*
X145286698Y-93191189D01*
X144821151Y-92880120D01*
X144272000Y-92770887D01*
X144102409Y-92804621D01*
X140157200Y-88859412D01*
X140157200Y-87797688D01*
X140520707Y-87647490D01*
X140914033Y-87254850D01*
X141127161Y-86741580D01*
X141127646Y-86185819D01*
X140915414Y-85672177D01*
X140522774Y-85278851D01*
X140009504Y-85065723D01*
X139453743Y-85065238D01*
X138940101Y-85277470D01*
X138546775Y-85670110D01*
X138460455Y-85877992D01*
X138375414Y-85672177D01*
X137982774Y-85278851D01*
X137469504Y-85065723D01*
X136913743Y-85065238D01*
X136400101Y-85277470D01*
X136006775Y-85670110D01*
X135920455Y-85877992D01*
X135835414Y-85672177D01*
X135442774Y-85278851D01*
X134929504Y-85065723D01*
X134373743Y-85065238D01*
X133860101Y-85277470D01*
X133466775Y-85670110D01*
X133380455Y-85877992D01*
X133295414Y-85672177D01*
X132902774Y-85278851D01*
X132389504Y-85065723D01*
X131833743Y-85065238D01*
X131320101Y-85277470D01*
X130926775Y-85670110D01*
X130840455Y-85877992D01*
X130755414Y-85672177D01*
X130362774Y-85278851D01*
X129849504Y-85065723D01*
X129293743Y-85065238D01*
X128780101Y-85277470D01*
X128386775Y-85670110D01*
X128173647Y-86183380D01*
X128173162Y-86739141D01*
X128385394Y-87252783D01*
X128574800Y-87442520D01*
X128574800Y-89154000D01*
X128628937Y-89426165D01*
X128783106Y-89656894D01*
X131977822Y-92851610D01*
X131572000Y-92770887D01*
X131402409Y-92804621D01*
X127457200Y-88859412D01*
X127457200Y-87831695D01*
X127536303Y-87799010D01*
X127929629Y-87406370D01*
X128142757Y-86893100D01*
X128143242Y-86337339D01*
X127931010Y-85823697D01*
X127538370Y-85430371D01*
X127025100Y-85217243D01*
X126469339Y-85216758D01*
X125955697Y-85428990D01*
X125562371Y-85821630D01*
X125349243Y-86334900D01*
X125348758Y-86890661D01*
X125560990Y-87404303D01*
X125953630Y-87797629D01*
X126034800Y-87831334D01*
X126034800Y-89154000D01*
X126088937Y-89426165D01*
X126243106Y-89656894D01*
X129437822Y-92851610D01*
X129032000Y-92770887D01*
X128482849Y-92880120D01*
X128017302Y-93191189D01*
X127762000Y-93573275D01*
X127506698Y-93191189D01*
X127041151Y-92880120D01*
X126492000Y-92770887D01*
X125942849Y-92880120D01*
X125477302Y-93191189D01*
X125166233Y-93656736D01*
X125057000Y-94205887D01*
X118783000Y-94205887D01*
X118673767Y-93656736D01*
X118362698Y-93191189D01*
X117897151Y-92880120D01*
X117348000Y-92770887D01*
X116798849Y-92880120D01*
X116333302Y-93191189D01*
X116078000Y-93573275D01*
X115822698Y-93191189D01*
X115357151Y-92880120D01*
X114808000Y-92770887D01*
X114258849Y-92880120D01*
X113793302Y-93191189D01*
X113538000Y-93573275D01*
X113282698Y-93191189D01*
X112817151Y-92880120D01*
X112268000Y-92770887D01*
X111718849Y-92880120D01*
X111253302Y-93191189D01*
X110987458Y-93589053D01*
X110755343Y-93232071D01*
X110293720Y-92915191D01*
X110260511Y-92901462D01*
X110045500Y-92997874D01*
X109410500Y-92997874D01*
X109195489Y-92901462D01*
X109162280Y-92915191D01*
X108700657Y-93232071D01*
X108468542Y-93589053D01*
X108202698Y-93191189D01*
X107737151Y-92880120D01*
X107188000Y-92770887D01*
X106638849Y-92880120D01*
X106173302Y-93191189D01*
X105918000Y-93573275D01*
X105662698Y-93191189D01*
X105197151Y-92880120D01*
X104648000Y-92770887D01*
X104098849Y-92880120D01*
X103633302Y-93191189D01*
X103378000Y-93573275D01*
X103122698Y-93191189D01*
X102657151Y-92880120D01*
X102108000Y-92770887D01*
X101726550Y-92846762D01*
X98023604Y-89143816D01*
X98023604Y-87680175D01*
X98102707Y-87647490D01*
X98413413Y-87337325D01*
X103014146Y-87337325D01*
X103763871Y-89151801D01*
X105150897Y-90541250D01*
X106964061Y-91294141D01*
X108927325Y-91295854D01*
X110741801Y-90546129D01*
X112131250Y-89159103D01*
X112884141Y-87345939D01*
X112885854Y-85382675D01*
X112136129Y-83568199D01*
X111288552Y-82719141D01*
X122563162Y-82719141D01*
X122775394Y-83232783D01*
X123168034Y-83626109D01*
X123681304Y-83839237D01*
X124237065Y-83839722D01*
X124363521Y-83787471D01*
X124363162Y-84199141D01*
X124575394Y-84712783D01*
X124968034Y-85106109D01*
X125481304Y-85319237D01*
X126037065Y-85319722D01*
X126550707Y-85107490D01*
X126944033Y-84714850D01*
X127030353Y-84506968D01*
X127115394Y-84712783D01*
X127508034Y-85106109D01*
X128021304Y-85319237D01*
X128577065Y-85319722D01*
X129090707Y-85107490D01*
X129484033Y-84714850D01*
X129570353Y-84506968D01*
X129655394Y-84712783D01*
X130048034Y-85106109D01*
X130561304Y-85319237D01*
X131117065Y-85319722D01*
X131630707Y-85107490D01*
X132024033Y-84714850D01*
X132110353Y-84506968D01*
X132195394Y-84712783D01*
X132588034Y-85106109D01*
X133101304Y-85319237D01*
X133657065Y-85319722D01*
X134170707Y-85107490D01*
X134564033Y-84714850D01*
X134650353Y-84506968D01*
X134735394Y-84712783D01*
X135128034Y-85106109D01*
X135641304Y-85319237D01*
X136197065Y-85319722D01*
X136710707Y-85107490D01*
X137104033Y-84714850D01*
X137190353Y-84506968D01*
X137275394Y-84712783D01*
X137668034Y-85106109D01*
X138181304Y-85319237D01*
X138737065Y-85319722D01*
X139250707Y-85107490D01*
X139644033Y-84714850D01*
X139857161Y-84201580D01*
X139857646Y-83645819D01*
X139645414Y-83132177D01*
X139252774Y-82738851D01*
X139205307Y-82719141D01*
X140133162Y-82719141D01*
X140345394Y-83232783D01*
X140738034Y-83626109D01*
X141251304Y-83839237D01*
X141807065Y-83839722D01*
X142320707Y-83627490D01*
X142714033Y-83234850D01*
X142927161Y-82721580D01*
X142927163Y-82719141D01*
X166251162Y-82719141D01*
X166463394Y-83232783D01*
X166856034Y-83626109D01*
X167369304Y-83839237D01*
X167925065Y-83839722D01*
X168051521Y-83787471D01*
X168051162Y-84199141D01*
X168263394Y-84712783D01*
X168656034Y-85106109D01*
X169169304Y-85319237D01*
X169725065Y-85319722D01*
X170238707Y-85107490D01*
X170632033Y-84714850D01*
X170718353Y-84506968D01*
X170803394Y-84712783D01*
X171196034Y-85106109D01*
X171709304Y-85319237D01*
X172265065Y-85319722D01*
X172778707Y-85107490D01*
X173172033Y-84714850D01*
X173258353Y-84506968D01*
X173343394Y-84712783D01*
X173736034Y-85106109D01*
X174249304Y-85319237D01*
X174805065Y-85319722D01*
X175318707Y-85107490D01*
X175712033Y-84714850D01*
X175798353Y-84506968D01*
X175883394Y-84712783D01*
X176276034Y-85106109D01*
X176789304Y-85319237D01*
X177345065Y-85319722D01*
X177858707Y-85107490D01*
X178252033Y-84714850D01*
X178338353Y-84506968D01*
X178423394Y-84712783D01*
X178816034Y-85106109D01*
X179329304Y-85319237D01*
X179885065Y-85319722D01*
X180398707Y-85107490D01*
X180792033Y-84714850D01*
X180878353Y-84506968D01*
X180963394Y-84712783D01*
X181356034Y-85106109D01*
X181869304Y-85319237D01*
X182425065Y-85319722D01*
X182938707Y-85107490D01*
X183332033Y-84714850D01*
X183545161Y-84201580D01*
X183545646Y-83645819D01*
X183333414Y-83132177D01*
X182940774Y-82738851D01*
X182893307Y-82719141D01*
X183821162Y-82719141D01*
X184033394Y-83232783D01*
X184426034Y-83626109D01*
X184939304Y-83839237D01*
X185495065Y-83839722D01*
X186008707Y-83627490D01*
X186402033Y-83234850D01*
X186615161Y-82721580D01*
X186615646Y-82165819D01*
X186403414Y-81652177D01*
X186010774Y-81258851D01*
X185497504Y-81045723D01*
X184941743Y-81045238D01*
X184428101Y-81257470D01*
X184034775Y-81650110D01*
X183821647Y-82163380D01*
X183821162Y-82719141D01*
X182893307Y-82719141D01*
X182427504Y-82525723D01*
X181871743Y-82525238D01*
X181358101Y-82737470D01*
X180964775Y-83130110D01*
X180878455Y-83337992D01*
X180793414Y-83132177D01*
X180400774Y-82738851D01*
X179887504Y-82525723D01*
X179331743Y-82525238D01*
X178818101Y-82737470D01*
X178424775Y-83130110D01*
X178338455Y-83337992D01*
X178253414Y-83132177D01*
X177860774Y-82738851D01*
X177347504Y-82525723D01*
X176791743Y-82525238D01*
X176278101Y-82737470D01*
X175884775Y-83130110D01*
X175798455Y-83337992D01*
X175713414Y-83132177D01*
X175320774Y-82738851D01*
X174807504Y-82525723D01*
X174251743Y-82525238D01*
X173738101Y-82737470D01*
X173344775Y-83130110D01*
X173258455Y-83337992D01*
X173173414Y-83132177D01*
X172780774Y-82738851D01*
X172267504Y-82525723D01*
X171711743Y-82525238D01*
X171198101Y-82737470D01*
X170804775Y-83130110D01*
X170718455Y-83337992D01*
X170633414Y-83132177D01*
X170240774Y-82738851D01*
X169727504Y-82525723D01*
X169171743Y-82525238D01*
X169045287Y-82577489D01*
X169045646Y-82165819D01*
X168833414Y-81652177D01*
X168440774Y-81258851D01*
X167927504Y-81045723D01*
X167371743Y-81045238D01*
X166858101Y-81257470D01*
X166464775Y-81650110D01*
X166251647Y-82163380D01*
X166251162Y-82719141D01*
X142927163Y-82719141D01*
X142927646Y-82165819D01*
X142715414Y-81652177D01*
X142322774Y-81258851D01*
X141809504Y-81045723D01*
X141253743Y-81045238D01*
X140740101Y-81257470D01*
X140346775Y-81650110D01*
X140133647Y-82163380D01*
X140133162Y-82719141D01*
X139205307Y-82719141D01*
X138739504Y-82525723D01*
X138183743Y-82525238D01*
X138102514Y-82558801D01*
X134824817Y-79281105D01*
X134687507Y-78948788D01*
X134412659Y-78673460D01*
X134053370Y-78524270D01*
X133664337Y-78523931D01*
X133304788Y-78672493D01*
X133029460Y-78947341D01*
X132880270Y-79306630D01*
X132879944Y-79681173D01*
X132634659Y-79435460D01*
X132275370Y-79286270D01*
X131886337Y-79285931D01*
X131526788Y-79434493D01*
X131251460Y-79709341D01*
X131102270Y-80068630D01*
X131101931Y-80457663D01*
X131229066Y-80765354D01*
X130986818Y-80523106D01*
X130756089Y-80368937D01*
X130483924Y-80314800D01*
X130211794Y-80314800D01*
X130094659Y-80197460D01*
X129735370Y-80048270D01*
X129346337Y-80047931D01*
X128986788Y-80196493D01*
X128711460Y-80471341D01*
X128562270Y-80830630D01*
X128561931Y-81219663D01*
X128710493Y-81579212D01*
X128985341Y-81854540D01*
X129344630Y-82003730D01*
X129733663Y-82004069D01*
X130093212Y-81855507D01*
X130200521Y-81748385D01*
X130977735Y-82525599D01*
X130563743Y-82525238D01*
X130050101Y-82737470D01*
X129656775Y-83130110D01*
X129570455Y-83337992D01*
X129485414Y-83132177D01*
X129092774Y-82738851D01*
X128579504Y-82525723D01*
X128023743Y-82525238D01*
X127510101Y-82737470D01*
X127116775Y-83130110D01*
X127030455Y-83337992D01*
X126945414Y-83132177D01*
X126552774Y-82738851D01*
X126039504Y-82525723D01*
X125483743Y-82525238D01*
X125357287Y-82577489D01*
X125357646Y-82165819D01*
X125145414Y-81652177D01*
X124752774Y-81258851D01*
X124239504Y-81045723D01*
X123683743Y-81045238D01*
X123170101Y-81257470D01*
X122776775Y-81650110D01*
X122563647Y-82163380D01*
X122563162Y-82719141D01*
X111288552Y-82719141D01*
X110749103Y-82178750D01*
X108935939Y-81425859D01*
X106972675Y-81424146D01*
X105158199Y-82173871D01*
X103768750Y-83560897D01*
X103015859Y-85374061D01*
X103014146Y-87337325D01*
X98413413Y-87337325D01*
X98496033Y-87254850D01*
X98709161Y-86741580D01*
X98709646Y-86185819D01*
X98497414Y-85672177D01*
X98104774Y-85278851D01*
X97591504Y-85065723D01*
X97035743Y-85065238D01*
X96522101Y-85277470D01*
X96128775Y-85670110D01*
X96042455Y-85877992D01*
X95957414Y-85672177D01*
X95564774Y-85278851D01*
X95051504Y-85065723D01*
X94495743Y-85065238D01*
X93982101Y-85277470D01*
X93588775Y-85670110D01*
X93502455Y-85877992D01*
X93417414Y-85672177D01*
X93024774Y-85278851D01*
X92511504Y-85065723D01*
X91955743Y-85065238D01*
X91442101Y-85277470D01*
X91048775Y-85670110D01*
X90962455Y-85877992D01*
X90877414Y-85672177D01*
X90484774Y-85278851D01*
X89971504Y-85065723D01*
X89415743Y-85065238D01*
X88902101Y-85277470D01*
X88508775Y-85670110D01*
X88422455Y-85877992D01*
X88337414Y-85672177D01*
X87944774Y-85278851D01*
X87431504Y-85065723D01*
X86875743Y-85065238D01*
X86362101Y-85277470D01*
X85968775Y-85670110D01*
X85755647Y-86183380D01*
X85755162Y-86739141D01*
X85967394Y-87252783D01*
X86360034Y-87646109D01*
X86441204Y-87679814D01*
X86441204Y-89438404D01*
X86495341Y-89710569D01*
X86649510Y-89941298D01*
X89496753Y-92788541D01*
X89408000Y-92770887D01*
X89026550Y-92846762D01*
X85039200Y-88859412D01*
X85039200Y-87831695D01*
X85118303Y-87799010D01*
X85511629Y-87406370D01*
X85724757Y-86893100D01*
X85725242Y-86337339D01*
X85513010Y-85823697D01*
X85120370Y-85430371D01*
X84607100Y-85217243D01*
X84051339Y-85216758D01*
X83537697Y-85428990D01*
X83144371Y-85821630D01*
X82931243Y-86334900D01*
X82930758Y-86890661D01*
X83142990Y-87404303D01*
X83535630Y-87797629D01*
X83616800Y-87831334D01*
X83616800Y-89154000D01*
X83670937Y-89426165D01*
X83825106Y-89656894D01*
X86956753Y-92788541D01*
X86868000Y-92770887D01*
X86318849Y-92880120D01*
X85853302Y-93191189D01*
X85598000Y-93573275D01*
X85342698Y-93191189D01*
X84877151Y-92880120D01*
X84328000Y-92770887D01*
X83778849Y-92880120D01*
X83313302Y-93191189D01*
X83002233Y-93656736D01*
X82893000Y-94205887D01*
X82893000Y-94262113D01*
X83002233Y-94811264D01*
X83313302Y-95276811D01*
X83778849Y-95587880D01*
X84328000Y-95697113D01*
X84709449Y-95621238D01*
X84853706Y-95765495D01*
X85007875Y-95868507D01*
X85084437Y-95919664D01*
X85356601Y-95973801D01*
X94714013Y-95973801D01*
X99203586Y-100463374D01*
X99018849Y-100500120D01*
X98553302Y-100811189D01*
X98298000Y-101193275D01*
X98042698Y-100811189D01*
X97577151Y-100500120D01*
X97028000Y-100390887D01*
X96478849Y-100500120D01*
X96013302Y-100811189D01*
X95758000Y-101193275D01*
X95502698Y-100811189D01*
X95037151Y-100500120D01*
X94488000Y-100390887D01*
X93938849Y-100500120D01*
X93473302Y-100811189D01*
X93218000Y-101193275D01*
X92962698Y-100811189D01*
X92497151Y-100500120D01*
X91948000Y-100390887D01*
X91398849Y-100500120D01*
X90933302Y-100811189D01*
X90678000Y-101193275D01*
X90422698Y-100811189D01*
X89957151Y-100500120D01*
X89408000Y-100390887D01*
X88858849Y-100500120D01*
X88393302Y-100811189D01*
X88138000Y-101193275D01*
X87882698Y-100811189D01*
X87417151Y-100500120D01*
X86868000Y-100390887D01*
X86318849Y-100500120D01*
X85853302Y-100811189D01*
X85756899Y-100955465D01*
X85731162Y-100818683D01*
X85592090Y-100602559D01*
X85379890Y-100457569D01*
X85128000Y-100406560D01*
X83528000Y-100406560D01*
X83292683Y-100450838D01*
X83076559Y-100589910D01*
X82931569Y-100802110D01*
X82880560Y-101054000D01*
X82880560Y-102654000D01*
X82924838Y-102889317D01*
X83063910Y-103105441D01*
X83276110Y-103250431D01*
X83528000Y-103301440D01*
X83616800Y-103301440D01*
X83616800Y-108510305D01*
X83537697Y-108542990D01*
X83144371Y-108935630D01*
X82931243Y-109448900D01*
X82930758Y-110004661D01*
X83142990Y-110518303D01*
X83535630Y-110911629D01*
X84048900Y-111124757D01*
X84604661Y-111125242D01*
X85118303Y-110913010D01*
X85511629Y-110520370D01*
X85597949Y-110312488D01*
X85682990Y-110518303D01*
X86075630Y-110911629D01*
X86588900Y-111124757D01*
X87144661Y-111125242D01*
X87658303Y-110913010D01*
X88051629Y-110520370D01*
X88137949Y-110312488D01*
X88222990Y-110518303D01*
X88615630Y-110911629D01*
X89128900Y-111124757D01*
X89684661Y-111125242D01*
X90198303Y-110913010D01*
X90591629Y-110520370D01*
X90677949Y-110312488D01*
X90762990Y-110518303D01*
X91155630Y-110911629D01*
X91668900Y-111124757D01*
X92224661Y-111125242D01*
X92738303Y-110913010D01*
X93131629Y-110520370D01*
X93217949Y-110312488D01*
X93302990Y-110518303D01*
X93695630Y-110911629D01*
X94208900Y-111124757D01*
X94764661Y-111125242D01*
X95278303Y-110913010D01*
X95671629Y-110520370D01*
X95884757Y-110007100D01*
X95885242Y-109451339D01*
X95673010Y-108937697D01*
X95280370Y-108544371D01*
X95199200Y-108510666D01*
X95199200Y-103099602D01*
X95502698Y-102896811D01*
X95758000Y-102514725D01*
X96013302Y-102896811D01*
X96316800Y-103099602D01*
X96316800Y-108596413D01*
X96128775Y-108784110D01*
X95915647Y-109297380D01*
X95915162Y-109853141D01*
X96127394Y-110366783D01*
X96520034Y-110760109D01*
X96874794Y-110907418D01*
X96624041Y-111158171D01*
X96550370Y-111084371D01*
X96037100Y-110871243D01*
X95481339Y-110870758D01*
X94967697Y-111082990D01*
X94574371Y-111475630D01*
X94488051Y-111683512D01*
X94403010Y-111477697D01*
X94010370Y-111084371D01*
X93497100Y-110871243D01*
X92941339Y-110870758D01*
X92427697Y-111082990D01*
X92034371Y-111475630D01*
X91948051Y-111683512D01*
X91863010Y-111477697D01*
X91470370Y-111084371D01*
X90957100Y-110871243D01*
X90401339Y-110870758D01*
X89887697Y-111082990D01*
X89494371Y-111475630D01*
X89408051Y-111683512D01*
X89323010Y-111477697D01*
X88930370Y-111084371D01*
X88417100Y-110871243D01*
X87861339Y-110870758D01*
X87347697Y-111082990D01*
X86954371Y-111475630D01*
X86868051Y-111683512D01*
X86783010Y-111477697D01*
X86390370Y-111084371D01*
X85877100Y-110871243D01*
X85321339Y-110870758D01*
X84807697Y-111082990D01*
X84414371Y-111475630D01*
X84201243Y-111988900D01*
X84200758Y-112544661D01*
X84412990Y-113058303D01*
X84805630Y-113451629D01*
X85318900Y-113664757D01*
X85874661Y-113665242D01*
X85955890Y-113631679D01*
X86611509Y-114287298D01*
X83816714Y-114287298D01*
X83924757Y-114027100D01*
X83925242Y-113471339D01*
X83713010Y-112957697D01*
X83320370Y-112564371D01*
X82807100Y-112351243D01*
X82251339Y-112350758D01*
X81737697Y-112562990D01*
X81344371Y-112955630D01*
X81131243Y-113468900D01*
X81130758Y-114024661D01*
X81239277Y-114287298D01*
X79733086Y-114287298D01*
X77177925Y-111732137D01*
X77178069Y-111566337D01*
X77029507Y-111206788D01*
X76754659Y-110931460D01*
X76395370Y-110782270D01*
X76006337Y-110781931D01*
X75646788Y-110930493D01*
X75371460Y-111205341D01*
X75222270Y-111564630D01*
X75221931Y-111953663D01*
X75370493Y-112313212D01*
X75645341Y-112588540D01*
X76004630Y-112737730D01*
X76172088Y-112737876D01*
X78180741Y-114746529D01*
X77911460Y-115015341D01*
X77762270Y-115374630D01*
X77761931Y-115763663D01*
X77910493Y-116123212D01*
X78185341Y-116398540D01*
X78544630Y-116547730D01*
X78933663Y-116548069D01*
X79293212Y-116399507D01*
X79411726Y-116281200D01*
X80093709Y-116281200D01*
X80048270Y-116390630D01*
X80047931Y-116779663D01*
X80196493Y-117139212D01*
X80471341Y-117414540D01*
X80830630Y-117563730D01*
X81219663Y-117564069D01*
X81579212Y-117415507D01*
X81744208Y-117250799D01*
X81783098Y-117243063D01*
X82013827Y-117088894D01*
X82059521Y-117043200D01*
X93104897Y-117043200D01*
X93171341Y-117109760D01*
X93530630Y-117258950D01*
X93698088Y-117259096D01*
X99872784Y-123433792D01*
X99872784Y-134456206D01*
X99755444Y-134573341D01*
X99606254Y-134932630D01*
X99605915Y-135321663D01*
X99651836Y-135432800D01*
X81788000Y-135432800D01*
X81515835Y-135486937D01*
X81285106Y-135641106D01*
X80489149Y-136437063D01*
X80305151Y-136314120D01*
X79756000Y-136204887D01*
X79206849Y-136314120D01*
X78741302Y-136625189D01*
X78430233Y-137090736D01*
X78321000Y-137639887D01*
X78321000Y-137696113D01*
X78430233Y-138245264D01*
X78741302Y-138710811D01*
X79206849Y-139021880D01*
X79756000Y-139131113D01*
X80305151Y-139021880D01*
X80770698Y-138710811D01*
X81026000Y-138328725D01*
X81281302Y-138710811D01*
X81746849Y-139021880D01*
X82296000Y-139131113D01*
X82845151Y-139021880D01*
X83310698Y-138710811D01*
X83566000Y-138328725D01*
X83821302Y-138710811D01*
X84286849Y-139021880D01*
X84836000Y-139131113D01*
X85385151Y-139021880D01*
X85850698Y-138710811D01*
X86106000Y-138328725D01*
X86361302Y-138710811D01*
X86826849Y-139021880D01*
X87376000Y-139131113D01*
X87925151Y-139021880D01*
X88390698Y-138710811D01*
X88646000Y-138328725D01*
X88901302Y-138710811D01*
X89366849Y-139021880D01*
X89916000Y-139131113D01*
X90465151Y-139021880D01*
X90930698Y-138710811D01*
X91186000Y-138328725D01*
X91441302Y-138710811D01*
X91906849Y-139021880D01*
X92456000Y-139131113D01*
X93005151Y-139021880D01*
X93470698Y-138710811D01*
X93726000Y-138328725D01*
X93981302Y-138710811D01*
X94446849Y-139021880D01*
X94996000Y-139131113D01*
X95545151Y-139021880D01*
X96010698Y-138710811D01*
X96276542Y-138312947D01*
X96508657Y-138669929D01*
X96970280Y-138986809D01*
X97003489Y-139000538D01*
X97218500Y-138904126D01*
X97218500Y-137985500D01*
X97198500Y-137985500D01*
X97198500Y-137350500D01*
X97218500Y-137350500D01*
X97218500Y-137330500D01*
X97853500Y-137330500D01*
X97853500Y-137350500D01*
X97873500Y-137350500D01*
X97873500Y-137985500D01*
X97853500Y-137985500D01*
X97853500Y-138904126D01*
X98068511Y-139000538D01*
X98101720Y-138986809D01*
X98563343Y-138669929D01*
X98795458Y-138312947D01*
X99061302Y-138710811D01*
X99526849Y-139021880D01*
X100076000Y-139131113D01*
X100625151Y-139021880D01*
X101090698Y-138710811D01*
X101346000Y-138328725D01*
X101601302Y-138710811D01*
X101904800Y-138913602D01*
X101904800Y-140208000D01*
X101958937Y-140480165D01*
X102113106Y-140710894D01*
X104686075Y-143283863D01*
X104685931Y-143449663D01*
X104834493Y-143809212D01*
X104900812Y-143875647D01*
X104606849Y-143934120D01*
X104141302Y-144245189D01*
X103886000Y-144627275D01*
X103630698Y-144245189D01*
X103165151Y-143934120D01*
X102616000Y-143824887D01*
X102066849Y-143934120D01*
X101601302Y-144245189D01*
X101346000Y-144627275D01*
X101090698Y-144245189D01*
X100625151Y-143934120D01*
X100076000Y-143824887D01*
X99526849Y-143934120D01*
X99061302Y-144245189D01*
X98806000Y-144627275D01*
X98550698Y-144245189D01*
X98085151Y-143934120D01*
X97536000Y-143824887D01*
X96986849Y-143934120D01*
X96977200Y-143940567D01*
X96977200Y-141895794D01*
X97094540Y-141778659D01*
X97243730Y-141419370D01*
X97244069Y-141030337D01*
X97095507Y-140670788D01*
X96820659Y-140395460D01*
X96461370Y-140246270D01*
X96072337Y-140245931D01*
X95712788Y-140394493D01*
X95437460Y-140669341D01*
X95288270Y-141028630D01*
X95287931Y-141417663D01*
X95436493Y-141777212D01*
X95554800Y-141895726D01*
X95554800Y-143723411D01*
X95377449Y-143900762D01*
X94996000Y-143824887D01*
X94446849Y-143934120D01*
X93981302Y-144245189D01*
X93715458Y-144643053D01*
X93483343Y-144286071D01*
X93021720Y-143969191D01*
X92988511Y-143955462D01*
X92773500Y-144051874D01*
X92773500Y-144970500D01*
X92793500Y-144970500D01*
X92793500Y-145605500D01*
X92773500Y-145605500D01*
X92773500Y-146524126D01*
X92988511Y-146620538D01*
X93021720Y-146606809D01*
X93483343Y-146289929D01*
X93715458Y-145932947D01*
X93981302Y-146330811D01*
X94446849Y-146641880D01*
X94996000Y-146751113D01*
X95545151Y-146641880D01*
X96010698Y-146330811D01*
X96266000Y-145948725D01*
X96521302Y-146330811D01*
X96986849Y-146641880D01*
X97536000Y-146751113D01*
X98085151Y-146641880D01*
X98550698Y-146330811D01*
X98806000Y-145948725D01*
X99061302Y-146330811D01*
X99526849Y-146641880D01*
X100076000Y-146751113D01*
X100625151Y-146641880D01*
X101090698Y-146330811D01*
X101346000Y-145948725D01*
X101601302Y-146330811D01*
X102066849Y-146641880D01*
X102616000Y-146751113D01*
X103165151Y-146641880D01*
X103630698Y-146330811D01*
X103886000Y-145948725D01*
X104141302Y-146330811D01*
X104606849Y-146641880D01*
X105156000Y-146751113D01*
X105705151Y-146641880D01*
X106170698Y-146330811D01*
X106426000Y-145948725D01*
X106681302Y-146330811D01*
X107146849Y-146641880D01*
X107696000Y-146751113D01*
X108245151Y-146641880D01*
X108710698Y-146330811D01*
X108966000Y-145948725D01*
X109221302Y-146330811D01*
X109686849Y-146641880D01*
X110236000Y-146751113D01*
X110785151Y-146641880D01*
X111250698Y-146330811D01*
X111506000Y-145948725D01*
X111761302Y-146330811D01*
X112226849Y-146641880D01*
X112776000Y-146751113D01*
X113325151Y-146641880D01*
X113790698Y-146330811D01*
X114101767Y-145865264D01*
X114211000Y-145316113D01*
X114211000Y-145259887D01*
X114144453Y-144925335D01*
X114548892Y-144520897D01*
X114670738Y-144338540D01*
X114703061Y-144290166D01*
X114757198Y-144018002D01*
X114757198Y-142790658D01*
X115265528Y-143001735D01*
X115871812Y-143002264D01*
X116432149Y-142770738D01*
X116861231Y-142342404D01*
X117093735Y-141782472D01*
X117093998Y-141480645D01*
X117222318Y-141352325D01*
X117222321Y-141352323D01*
X118492321Y-140082323D01*
X118726327Y-139732108D01*
X118808499Y-139319001D01*
X118808499Y-136428187D01*
X119722752Y-136428187D01*
X119940757Y-136955800D01*
X120344077Y-137359824D01*
X120871309Y-137578750D01*
X121442187Y-137579248D01*
X121969800Y-137361243D01*
X122373824Y-136957923D01*
X122592750Y-136430691D01*
X122593248Y-135859813D01*
X122375243Y-135332200D01*
X121971923Y-134928176D01*
X121444691Y-134709250D01*
X120873813Y-134708752D01*
X120346200Y-134926757D01*
X119942176Y-135330077D01*
X119723250Y-135857309D01*
X119722752Y-136428187D01*
X118808499Y-136428187D01*
X118808499Y-130114145D01*
X125284757Y-123637887D01*
X125272800Y-123698000D01*
X125272800Y-137958345D01*
X122528364Y-140702781D01*
X122375243Y-140332200D01*
X121971923Y-139928176D01*
X121444691Y-139709250D01*
X120873813Y-139708752D01*
X120346200Y-139926757D01*
X119942176Y-140330077D01*
X119723250Y-140857309D01*
X119722752Y-141428187D01*
X119940757Y-141955800D01*
X120344077Y-142359824D01*
X120716626Y-142514520D01*
X115606346Y-147624800D01*
X90718588Y-147624800D01*
X89827247Y-146733459D01*
X89916000Y-146751113D01*
X90465151Y-146641880D01*
X90930698Y-146330811D01*
X91196542Y-145932947D01*
X91428657Y-146289929D01*
X91890280Y-146606809D01*
X91923489Y-146620538D01*
X92138500Y-146524126D01*
X92138500Y-145605500D01*
X92118500Y-145605500D01*
X92118500Y-144970500D01*
X92138500Y-144970500D01*
X92138500Y-144051874D01*
X91923489Y-143955462D01*
X91890280Y-143969191D01*
X91428657Y-144286071D01*
X91196542Y-144643053D01*
X90930698Y-144245189D01*
X90465151Y-143934120D01*
X89916000Y-143824887D01*
X89366849Y-143934120D01*
X88901302Y-144245189D01*
X88646000Y-144627275D01*
X88390698Y-144245189D01*
X87925151Y-143934120D01*
X87376000Y-143824887D01*
X86826849Y-143934120D01*
X86361302Y-144245189D01*
X86106000Y-144627275D01*
X85850698Y-144245189D01*
X85385151Y-143934120D01*
X84836000Y-143824887D01*
X84286849Y-143934120D01*
X83821302Y-144245189D01*
X83566000Y-144627275D01*
X83310698Y-144245189D01*
X82845151Y-143934120D01*
X82296000Y-143824887D01*
X81746849Y-143934120D01*
X81281302Y-144245189D01*
X81026000Y-144627275D01*
X80770698Y-144245189D01*
X80305151Y-143934120D01*
X79756000Y-143824887D01*
X79206849Y-143934120D01*
X78741302Y-144245189D01*
X78430233Y-144710736D01*
X78321000Y-145259887D01*
X78321000Y-145316113D01*
X78430233Y-145865264D01*
X78741302Y-146330811D01*
X79097471Y-146568796D01*
X79098937Y-146576165D01*
X79253106Y-146806894D01*
X80044241Y-147598030D01*
X79725939Y-147465859D01*
X77762675Y-147464146D01*
X75948199Y-148213871D01*
X74558750Y-149600897D01*
X74370000Y-150055458D01*
X74370000Y-133116285D01*
X87460760Y-133116285D01*
X87671169Y-133625515D01*
X88060436Y-134015461D01*
X88569298Y-134226759D01*
X89120285Y-134227240D01*
X89629515Y-134016831D01*
X90019461Y-133627564D01*
X90230759Y-133118702D01*
X90230761Y-133116285D01*
X92340760Y-133116285D01*
X92551169Y-133625515D01*
X92940436Y-134015461D01*
X93449298Y-134226759D01*
X94000285Y-134227240D01*
X94509515Y-134016831D01*
X94899461Y-133627564D01*
X95110759Y-133118702D01*
X95111240Y-132567715D01*
X94900831Y-132058485D01*
X94511564Y-131668539D01*
X94002702Y-131457241D01*
X93451715Y-131456760D01*
X92942485Y-131667169D01*
X92552539Y-132056436D01*
X92341241Y-132565298D01*
X92340760Y-133116285D01*
X90230761Y-133116285D01*
X90231240Y-132567715D01*
X90020831Y-132058485D01*
X89631564Y-131668539D01*
X89122702Y-131457241D01*
X88571715Y-131456760D01*
X88062485Y-131667169D01*
X87672539Y-132056436D01*
X87461241Y-132565298D01*
X87460760Y-133116285D01*
X74370000Y-133116285D01*
X74370000Y-127712187D01*
X87464752Y-127712187D01*
X87682757Y-128239800D01*
X88086077Y-128643824D01*
X88613309Y-128862750D01*
X89184187Y-128863248D01*
X89711800Y-128645243D01*
X90115824Y-128241923D01*
X90334750Y-127714691D01*
X90334752Y-127712187D01*
X92544752Y-127712187D01*
X92762757Y-128239800D01*
X93166077Y-128643824D01*
X93693309Y-128862750D01*
X94264187Y-128863248D01*
X94791800Y-128645243D01*
X95195824Y-128241923D01*
X95414750Y-127714691D01*
X95415248Y-127143813D01*
X95197243Y-126616200D01*
X94793923Y-126212176D01*
X94266691Y-125993250D01*
X93695813Y-125992752D01*
X93168200Y-126210757D01*
X92764176Y-126614077D01*
X92545250Y-127141309D01*
X92544752Y-127712187D01*
X90334752Y-127712187D01*
X90335248Y-127143813D01*
X90117243Y-126616200D01*
X89713923Y-126212176D01*
X89186691Y-125993250D01*
X88615813Y-125992752D01*
X88088200Y-126210757D01*
X87684176Y-126614077D01*
X87465250Y-127141309D01*
X87464752Y-127712187D01*
X74370000Y-127712187D01*
X74370000Y-122712187D01*
X87464752Y-122712187D01*
X87682757Y-123239800D01*
X88086077Y-123643824D01*
X88613309Y-123862750D01*
X89184187Y-123863248D01*
X89711800Y-123645243D01*
X90115824Y-123241923D01*
X90334750Y-122714691D01*
X90334752Y-122712187D01*
X92544752Y-122712187D01*
X92762757Y-123239800D01*
X93166077Y-123643824D01*
X93693309Y-123862750D01*
X94264187Y-123863248D01*
X94791800Y-123645243D01*
X95195824Y-123241923D01*
X95414750Y-122714691D01*
X95415248Y-122143813D01*
X95197243Y-121616200D01*
X94793923Y-121212176D01*
X94266691Y-120993250D01*
X93695813Y-120992752D01*
X93168200Y-121210757D01*
X92764176Y-121614077D01*
X92545250Y-122141309D01*
X92544752Y-122712187D01*
X90334752Y-122712187D01*
X90335248Y-122143813D01*
X90117243Y-121616200D01*
X89713923Y-121212176D01*
X89186691Y-120993250D01*
X88615813Y-120992752D01*
X88088200Y-121210757D01*
X87684176Y-121614077D01*
X87465250Y-122141309D01*
X87464752Y-122712187D01*
X74370000Y-122712187D01*
X74370000Y-82719141D01*
X80145162Y-82719141D01*
X80357394Y-83232783D01*
X80750034Y-83626109D01*
X81263304Y-83839237D01*
X81819065Y-83839722D01*
X81945521Y-83787471D01*
X81945162Y-84199141D01*
X82157394Y-84712783D01*
X82550034Y-85106109D01*
X83063304Y-85319237D01*
X83619065Y-85319722D01*
X84132707Y-85107490D01*
X84526033Y-84714850D01*
X84612353Y-84506968D01*
X84697394Y-84712783D01*
X85090034Y-85106109D01*
X85603304Y-85319237D01*
X86159065Y-85319722D01*
X86672707Y-85107490D01*
X87066033Y-84714850D01*
X87152353Y-84506968D01*
X87237394Y-84712783D01*
X87630034Y-85106109D01*
X88143304Y-85319237D01*
X88699065Y-85319722D01*
X89212707Y-85107490D01*
X89606033Y-84714850D01*
X89692353Y-84506968D01*
X89777394Y-84712783D01*
X90170034Y-85106109D01*
X90683304Y-85319237D01*
X91239065Y-85319722D01*
X91752707Y-85107490D01*
X92146033Y-84714850D01*
X92232353Y-84506968D01*
X92317394Y-84712783D01*
X92710034Y-85106109D01*
X93223304Y-85319237D01*
X93779065Y-85319722D01*
X94292707Y-85107490D01*
X94686033Y-84714850D01*
X94772353Y-84506968D01*
X94857394Y-84712783D01*
X95250034Y-85106109D01*
X95763304Y-85319237D01*
X96319065Y-85319722D01*
X96832707Y-85107490D01*
X97226033Y-84714850D01*
X97439161Y-84201580D01*
X97439646Y-83645819D01*
X97227414Y-83132177D01*
X96834774Y-82738851D01*
X96787307Y-82719141D01*
X97715162Y-82719141D01*
X97927394Y-83232783D01*
X98320034Y-83626109D01*
X98833304Y-83839237D01*
X99389065Y-83839722D01*
X99902707Y-83627490D01*
X100296033Y-83234850D01*
X100509161Y-82721580D01*
X100509646Y-82165819D01*
X100297414Y-81652177D01*
X99904774Y-81258851D01*
X99391504Y-81045723D01*
X98835743Y-81045238D01*
X98322101Y-81257470D01*
X97928775Y-81650110D01*
X97715647Y-82163380D01*
X97715162Y-82719141D01*
X96787307Y-82719141D01*
X96321504Y-82525723D01*
X96231433Y-82525644D01*
X93179925Y-79474136D01*
X93180069Y-79308337D01*
X93031507Y-78948788D01*
X92756659Y-78673460D01*
X92397370Y-78524270D01*
X92008337Y-78523931D01*
X91648788Y-78672493D01*
X91373460Y-78947341D01*
X91224270Y-79306630D01*
X91223931Y-79695663D01*
X91372493Y-80055212D01*
X91647341Y-80330540D01*
X92006630Y-80479730D01*
X92174088Y-80479876D01*
X94848666Y-83154455D01*
X94772455Y-83337992D01*
X94687414Y-83132177D01*
X94294774Y-82738851D01*
X93781504Y-82525723D01*
X93225743Y-82525238D01*
X93144513Y-82558801D01*
X90893862Y-80308150D01*
X90894069Y-80070337D01*
X90745507Y-79710788D01*
X90470659Y-79435460D01*
X90111370Y-79286270D01*
X89722337Y-79285931D01*
X89362788Y-79434493D01*
X89087460Y-79709341D01*
X88938270Y-80068630D01*
X88937931Y-80457663D01*
X89086493Y-80817212D01*
X89361341Y-81092540D01*
X89720630Y-81241730D01*
X89815949Y-81241813D01*
X91099735Y-82525599D01*
X90685743Y-82525238D01*
X90172101Y-82737470D01*
X89778775Y-83130110D01*
X89692455Y-83337992D01*
X89607414Y-83132177D01*
X89214774Y-82738851D01*
X88701504Y-82525723D01*
X88145743Y-82525238D01*
X87632101Y-82737470D01*
X87238775Y-83130110D01*
X87152455Y-83337992D01*
X87067414Y-83132177D01*
X86674774Y-82738851D01*
X86161504Y-82525723D01*
X85605743Y-82525238D01*
X85092101Y-82737470D01*
X84698775Y-83130110D01*
X84612455Y-83337992D01*
X84527414Y-83132177D01*
X84134774Y-82738851D01*
X83621504Y-82525723D01*
X83065743Y-82525238D01*
X82939287Y-82577489D01*
X82939646Y-82165819D01*
X82727414Y-81652177D01*
X82334774Y-81258851D01*
X81821504Y-81045723D01*
X81265743Y-81045238D01*
X80752101Y-81257470D01*
X80358775Y-81650110D01*
X80145647Y-82163380D01*
X80145162Y-82719141D01*
X74370000Y-82719141D01*
X74370000Y-81349931D01*
X74618824Y-80099005D01*
X75287804Y-79097804D01*
X76289005Y-78428825D01*
X77539931Y-78180000D01*
X205670069Y-78180000D01*
X206920995Y-78428824D01*
X206920995Y-78428824D01*
G37*
X206920995Y-78428824D02*
X207922196Y-79097804D01*
X208591175Y-80099005D01*
X208840000Y-81349931D01*
X208840000Y-154870069D01*
X208591175Y-156120995D01*
X207922196Y-157122196D01*
X206920995Y-157791176D01*
X205670069Y-158040000D01*
X104833582Y-158040000D01*
X76754955Y-157883858D01*
X76289005Y-157791175D01*
X75287804Y-157122196D01*
X74618824Y-156120995D01*
X74370000Y-154870069D01*
X74370000Y-154746798D01*
X74553871Y-155191801D01*
X75940897Y-156581250D01*
X77754061Y-157334141D01*
X79717325Y-157335854D01*
X81531801Y-156586129D01*
X82921250Y-155199103D01*
X83674141Y-153385939D01*
X83674148Y-153377325D01*
X193184146Y-153377325D01*
X193933871Y-155191801D01*
X195320897Y-156581250D01*
X197134061Y-157334141D01*
X199097325Y-157335854D01*
X200911801Y-156586129D01*
X202301250Y-155199103D01*
X203054141Y-153385939D01*
X203055854Y-151422675D01*
X202306129Y-149608199D01*
X200919103Y-148218750D01*
X199105939Y-147465859D01*
X197142675Y-147464146D01*
X195328199Y-148213871D01*
X193938750Y-149600897D01*
X193185859Y-151414061D01*
X193184146Y-153377325D01*
X83674148Y-153377325D01*
X83675854Y-151422675D01*
X83324032Y-150571200D01*
X94680054Y-150571200D01*
X94421462Y-150829341D01*
X94272272Y-151188630D01*
X94271933Y-151577663D01*
X94420495Y-151937212D01*
X94695343Y-152212540D01*
X95054632Y-152361730D01*
X95443665Y-152362069D01*
X95803214Y-152213507D01*
X95921728Y-152095200D01*
X148426206Y-152095200D01*
X148543341Y-152212540D01*
X148902630Y-152361730D01*
X149291663Y-152362069D01*
X149651212Y-152213507D01*
X149926540Y-151938659D01*
X150075730Y-151579370D01*
X150076069Y-151190337D01*
X149927507Y-150830788D01*
X149652659Y-150555460D01*
X149293370Y-150406270D01*
X148904337Y-150405931D01*
X148544788Y-150554493D01*
X148426274Y-150672800D01*
X148297850Y-150672800D01*
X148298063Y-150428343D01*
X148149501Y-150068794D01*
X147874653Y-149793466D01*
X147515364Y-149644276D01*
X147126331Y-149643937D01*
X146766782Y-149792499D01*
X146648268Y-149910806D01*
X120842982Y-149910806D01*
X125843635Y-144910153D01*
X130085931Y-144910153D01*
X130234493Y-145269702D01*
X130509341Y-145545030D01*
X130868630Y-145694220D01*
X131126345Y-145694445D01*
X131381510Y-145745200D01*
X146394206Y-145745200D01*
X146511341Y-145862540D01*
X146870630Y-146011730D01*
X147259663Y-146012069D01*
X147619212Y-145863507D01*
X147894540Y-145588659D01*
X148043730Y-145229370D01*
X148044069Y-144840337D01*
X147898380Y-144487740D01*
X148275663Y-144488069D01*
X148635212Y-144339507D01*
X148910540Y-144064659D01*
X149059730Y-143705370D01*
X149060069Y-143316337D01*
X148911507Y-142956788D01*
X148636659Y-142681460D01*
X148277370Y-142532270D01*
X147888337Y-142531931D01*
X147528788Y-142680493D01*
X147410274Y-142798800D01*
X132497794Y-142798800D01*
X132380659Y-142681460D01*
X132021370Y-142532270D01*
X131632337Y-142531931D01*
X131272788Y-142680493D01*
X130997460Y-142955341D01*
X130848270Y-143314630D01*
X130847931Y-143703663D01*
X130863466Y-143741260D01*
X130510788Y-143886983D01*
X130235460Y-144161831D01*
X130086270Y-144521120D01*
X130085931Y-144910153D01*
X125843635Y-144910153D01*
X131058894Y-139694895D01*
X131213063Y-139464165D01*
X131226781Y-139395199D01*
X131267200Y-139192000D01*
X131267200Y-134112000D01*
X131327907Y-134112000D01*
X131440946Y-134680285D01*
X131762853Y-135162054D01*
X132092026Y-135382000D01*
X131762853Y-135601946D01*
X131440946Y-136083715D01*
X131327907Y-136652000D01*
X131440946Y-137220285D01*
X131762853Y-137702054D01*
X132092026Y-137922000D01*
X131762853Y-138141946D01*
X131440946Y-138623715D01*
X131327907Y-139192000D01*
X131440946Y-139760285D01*
X131762853Y-140242054D01*
X132244622Y-140563961D01*
X132812907Y-140677000D01*
X132871093Y-140677000D01*
X133439378Y-140563961D01*
X133921147Y-140242054D01*
X134243054Y-139760285D01*
X134356093Y-139192000D01*
X134243054Y-138623715D01*
X133921147Y-138141946D01*
X133591974Y-137922000D01*
X133921147Y-137702054D01*
X134243054Y-137220285D01*
X134356093Y-136652000D01*
X134243054Y-136083715D01*
X133921147Y-135601946D01*
X133591974Y-135382000D01*
X133921147Y-135162054D01*
X134243054Y-134680285D01*
X134356093Y-134112000D01*
X134243054Y-133543715D01*
X133921147Y-133061946D01*
X133576094Y-132831390D01*
X133870694Y-132643020D01*
X134202251Y-132167829D01*
X134225133Y-132112524D01*
X134129685Y-131889500D01*
X133159500Y-131889500D01*
X133159500Y-131909500D01*
X132524500Y-131909500D01*
X132524500Y-131889500D01*
X131554315Y-131889500D01*
X131458867Y-132112524D01*
X131481749Y-132167829D01*
X131813306Y-132643020D01*
X132107906Y-132831390D01*
X131762853Y-133061946D01*
X131440946Y-133543715D01*
X131327907Y-134112000D01*
X131267200Y-134112000D01*
X131267200Y-127040588D01*
X131344560Y-126963228D01*
X131344560Y-127342000D01*
X131388838Y-127577317D01*
X131527910Y-127793441D01*
X131740110Y-127938431D01*
X131807541Y-127952086D01*
X131762853Y-127981946D01*
X131440946Y-128463715D01*
X131327907Y-129032000D01*
X131440946Y-129600285D01*
X131762853Y-130082054D01*
X132107906Y-130312610D01*
X131813306Y-130500980D01*
X131481749Y-130976171D01*
X131458867Y-131031476D01*
X131554315Y-131254500D01*
X132524500Y-131254500D01*
X132524500Y-131234500D01*
X133159500Y-131234500D01*
X133159500Y-131254500D01*
X134129685Y-131254500D01*
X134225133Y-131031476D01*
X134202251Y-130976171D01*
X133870694Y-130500980D01*
X133576094Y-130312610D01*
X133921147Y-130082054D01*
X134243054Y-129600285D01*
X134356093Y-129032000D01*
X134243054Y-128463715D01*
X133921147Y-127981946D01*
X133879548Y-127954150D01*
X133927317Y-127945162D01*
X134143441Y-127806090D01*
X134234775Y-127672419D01*
X151828500Y-145266144D01*
X151828500Y-149292234D01*
X151616769Y-149503596D01*
X151384265Y-150063528D01*
X151383736Y-150669812D01*
X151615262Y-151230149D01*
X152043596Y-151659231D01*
X152603528Y-151891735D01*
X153209812Y-151892264D01*
X153770149Y-151660738D01*
X154199231Y-151232404D01*
X154431735Y-150672472D01*
X154432264Y-150066188D01*
X154200738Y-149505851D01*
X153987500Y-149292241D01*
X153987500Y-145303430D01*
X154046946Y-145602285D01*
X154368853Y-146084054D01*
X154850622Y-146405961D01*
X155418907Y-146519000D01*
X155477093Y-146519000D01*
X156045378Y-146405961D01*
X156527147Y-146084054D01*
X156527971Y-146082821D01*
X156534838Y-146119317D01*
X156673910Y-146335441D01*
X156886110Y-146480431D01*
X157138000Y-146531440D01*
X158838000Y-146531440D01*
X158865582Y-146526250D01*
X169965000Y-146526250D01*
X169965000Y-147026310D01*
X170061673Y-147259699D01*
X170240302Y-147438327D01*
X170473691Y-147535000D01*
X170973750Y-147535000D01*
X171132500Y-147376250D01*
X171132500Y-146367500D01*
X170123750Y-146367500D01*
X169965000Y-146526250D01*
X158865582Y-146526250D01*
X159073317Y-146487162D01*
X159289441Y-146348090D01*
X159434431Y-146135890D01*
X159485440Y-145884000D01*
X159485440Y-145073690D01*
X169965000Y-145073690D01*
X169965000Y-145573750D01*
X170123750Y-145732500D01*
X171132500Y-145732500D01*
X171132500Y-144723750D01*
X171767500Y-144723750D01*
X171767500Y-145732500D01*
X171787500Y-145732500D01*
X171787500Y-146367500D01*
X171767500Y-146367500D01*
X171767500Y-147376250D01*
X171926250Y-147535000D01*
X172426309Y-147535000D01*
X172659698Y-147438327D01*
X172838327Y-147259699D01*
X172906903Y-147094142D01*
X172910853Y-147100054D01*
X173392622Y-147421961D01*
X173960907Y-147535000D01*
X174019093Y-147535000D01*
X174587378Y-147421961D01*
X175069147Y-147100054D01*
X175391054Y-146618285D01*
X175504093Y-146050000D01*
X175391054Y-145481715D01*
X175069147Y-144999946D01*
X174587378Y-144678039D01*
X174019093Y-144565000D01*
X173960907Y-144565000D01*
X173392622Y-144678039D01*
X172910853Y-144999946D01*
X172906903Y-145005858D01*
X172838327Y-144840301D01*
X172659698Y-144661673D01*
X172426309Y-144565000D01*
X171926250Y-144565000D01*
X171767500Y-144723750D01*
X171132500Y-144723750D01*
X170973750Y-144565000D01*
X170473691Y-144565000D01*
X170240302Y-144661673D01*
X170061673Y-144840301D01*
X169965000Y-145073690D01*
X159485440Y-145073690D01*
X159485440Y-144496907D01*
X179236000Y-144496907D01*
X179236000Y-144555093D01*
X179349039Y-145123378D01*
X179670946Y-145605147D01*
X180152715Y-145927054D01*
X180721000Y-146040093D01*
X181289285Y-145927054D01*
X181771054Y-145605147D01*
X181991000Y-145275974D01*
X182210946Y-145605147D01*
X182692715Y-145927054D01*
X183261000Y-146040093D01*
X183829285Y-145927054D01*
X184311054Y-145605147D01*
X184531000Y-145275974D01*
X184750946Y-145605147D01*
X185232715Y-145927054D01*
X185801000Y-146040093D01*
X186369285Y-145927054D01*
X186851054Y-145605147D01*
X187071000Y-145275974D01*
X187290946Y-145605147D01*
X187772715Y-145927054D01*
X188341000Y-146040093D01*
X188909285Y-145927054D01*
X189391054Y-145605147D01*
X189611000Y-145275974D01*
X189830946Y-145605147D01*
X190312715Y-145927054D01*
X190881000Y-146040093D01*
X191449285Y-145927054D01*
X191931054Y-145605147D01*
X191960403Y-145561223D01*
X192032673Y-145735698D01*
X192211301Y-145914327D01*
X192444690Y-146011000D01*
X192944750Y-146011000D01*
X193103500Y-145852250D01*
X193103500Y-144843500D01*
X193738500Y-144843500D01*
X193738500Y-145852250D01*
X193897250Y-146011000D01*
X194397310Y-146011000D01*
X194630699Y-145914327D01*
X194809327Y-145735698D01*
X194906000Y-145502309D01*
X194906000Y-145002250D01*
X194747250Y-144843500D01*
X193738500Y-144843500D01*
X193103500Y-144843500D01*
X193083500Y-144843500D01*
X193083500Y-144208500D01*
X193103500Y-144208500D01*
X193103500Y-143199750D01*
X193738500Y-143199750D01*
X193738500Y-144208500D01*
X194747250Y-144208500D01*
X194906000Y-144049750D01*
X194906000Y-143549691D01*
X194809327Y-143316302D01*
X194630699Y-143137673D01*
X194397310Y-143041000D01*
X193897250Y-143041000D01*
X193738500Y-143199750D01*
X193103500Y-143199750D01*
X192944750Y-143041000D01*
X192444690Y-143041000D01*
X192211301Y-143137673D01*
X192032673Y-143316302D01*
X191960403Y-143490777D01*
X191931054Y-143446853D01*
X191449285Y-143124946D01*
X190881000Y-143011907D01*
X190312715Y-143124946D01*
X189830946Y-143446853D01*
X189611000Y-143776026D01*
X189391054Y-143446853D01*
X188909285Y-143124946D01*
X188341000Y-143011907D01*
X187772715Y-143124946D01*
X187290946Y-143446853D01*
X187071000Y-143776026D01*
X186851054Y-143446853D01*
X186369285Y-143124946D01*
X185801000Y-143011907D01*
X185232715Y-143124946D01*
X184750946Y-143446853D01*
X184531000Y-143776026D01*
X184311054Y-143446853D01*
X183829285Y-143124946D01*
X183261000Y-143011907D01*
X182692715Y-143124946D01*
X182210946Y-143446853D01*
X181991000Y-143776026D01*
X181771054Y-143446853D01*
X181289285Y-143124946D01*
X180721000Y-143011907D01*
X180152715Y-143124946D01*
X179670946Y-143446853D01*
X179349039Y-143928622D01*
X179236000Y-144496907D01*
X159485440Y-144496907D01*
X159485440Y-144184000D01*
X159441162Y-143948683D01*
X159302090Y-143732559D01*
X159089890Y-143587569D01*
X159022459Y-143573914D01*
X159067147Y-143544054D01*
X159389054Y-143062285D01*
X159502093Y-142494000D01*
X159389054Y-141925715D01*
X159067147Y-141443946D01*
X158737974Y-141224000D01*
X159067147Y-141004054D01*
X159389054Y-140522285D01*
X159502093Y-139954000D01*
X159389054Y-139385715D01*
X159067147Y-138903946D01*
X158737974Y-138684000D01*
X159067147Y-138464054D01*
X159389054Y-137982285D01*
X159502093Y-137414000D01*
X159389054Y-136845715D01*
X159067147Y-136363946D01*
X158737974Y-136144000D01*
X159067147Y-135924054D01*
X159389054Y-135442285D01*
X159502093Y-134874000D01*
X159389054Y-134305715D01*
X159067147Y-133823946D01*
X158737974Y-133604000D01*
X159067147Y-133384054D01*
X159389054Y-132902285D01*
X159502093Y-132334000D01*
X159389054Y-131765715D01*
X159067147Y-131283946D01*
X158737974Y-131064000D01*
X159067147Y-130844054D01*
X159389054Y-130362285D01*
X159502093Y-129794000D01*
X159389054Y-129225715D01*
X159067147Y-128743946D01*
X158737974Y-128524000D01*
X159067147Y-128304054D01*
X159389054Y-127822285D01*
X159502093Y-127254000D01*
X159389054Y-126685715D01*
X159067147Y-126203946D01*
X158737974Y-125984000D01*
X159067147Y-125764054D01*
X159389054Y-125282285D01*
X159502093Y-124714000D01*
X159389054Y-124145715D01*
X159067147Y-123663946D01*
X158737974Y-123444000D01*
X159067147Y-123224054D01*
X159389054Y-122742285D01*
X159502093Y-122174000D01*
X159389054Y-121605715D01*
X159067147Y-121123946D01*
X158737974Y-120904000D01*
X159067147Y-120684054D01*
X159389054Y-120202285D01*
X159502093Y-119634000D01*
X159389054Y-119065715D01*
X159067147Y-118583946D01*
X158737974Y-118364000D01*
X159067147Y-118144054D01*
X159289521Y-117811247D01*
X178758892Y-137280618D01*
X179047304Y-137473329D01*
X179387510Y-137541000D01*
X182047170Y-137541000D01*
X181950371Y-137637630D01*
X181737243Y-138150900D01*
X181736758Y-138706661D01*
X181948990Y-139220303D01*
X182341630Y-139613629D01*
X182854900Y-139826757D01*
X183410661Y-139827242D01*
X183924303Y-139615010D01*
X184317629Y-139222370D01*
X184403949Y-139014488D01*
X184488990Y-139220303D01*
X184881630Y-139613629D01*
X185394900Y-139826757D01*
X185950661Y-139827242D01*
X186464303Y-139615010D01*
X186857629Y-139222370D01*
X186943949Y-139014488D01*
X187028990Y-139220303D01*
X187421630Y-139613629D01*
X187934900Y-139826757D01*
X188490661Y-139827242D01*
X189004303Y-139615010D01*
X189397629Y-139222370D01*
X189483949Y-139014488D01*
X189568990Y-139220303D01*
X189961630Y-139613629D01*
X190474900Y-139826757D01*
X191030661Y-139827242D01*
X191544303Y-139615010D01*
X191937629Y-139222370D01*
X192023949Y-139014488D01*
X192108990Y-139220303D01*
X192501630Y-139613629D01*
X193014900Y-139826757D01*
X193570661Y-139827242D01*
X194084303Y-139615010D01*
X194477629Y-139222370D01*
X194563949Y-139014488D01*
X194648990Y-139220303D01*
X195041630Y-139613629D01*
X195554900Y-139826757D01*
X196110661Y-139827242D01*
X196624303Y-139615010D01*
X197017629Y-139222370D01*
X197103949Y-139014488D01*
X197188990Y-139220303D01*
X197581630Y-139613629D01*
X198094900Y-139826757D01*
X198650661Y-139827242D01*
X199164303Y-139615010D01*
X199258661Y-139520816D01*
X200272197Y-139520816D01*
X200354704Y-139739968D01*
X200898581Y-139854286D01*
X201444805Y-139751769D01*
X201473296Y-139739968D01*
X201555803Y-139520816D01*
X200914000Y-138879013D01*
X200272197Y-139520816D01*
X199258661Y-139520816D01*
X199557629Y-139222370D01*
X199647599Y-139005698D01*
X199823184Y-139071803D01*
X200464987Y-138430000D01*
X201363013Y-138430000D01*
X202004816Y-139071803D01*
X202223968Y-138989296D01*
X202338286Y-138445419D01*
X202235769Y-137899195D01*
X202223968Y-137870704D01*
X202004816Y-137788197D01*
X201363013Y-138430000D01*
X200464987Y-138430000D01*
X199823184Y-137788197D01*
X199647671Y-137854275D01*
X199559010Y-137639697D01*
X199259022Y-137339184D01*
X200272197Y-137339184D01*
X200914000Y-137980987D01*
X201555803Y-137339184D01*
X201473296Y-137120032D01*
X200929419Y-137005714D01*
X200383195Y-137108231D01*
X200354704Y-137120032D01*
X200272197Y-137339184D01*
X199259022Y-137339184D01*
X199166370Y-137246371D01*
X198653100Y-137033243D01*
X198097339Y-137032758D01*
X197583697Y-137244990D01*
X197190371Y-137637630D01*
X197104051Y-137845512D01*
X197019010Y-137639697D01*
X196626370Y-137246371D01*
X196113100Y-137033243D01*
X195694113Y-137032877D01*
X192906618Y-134245382D01*
X192764273Y-134150270D01*
X192618206Y-134052671D01*
X192278000Y-133985000D01*
X180962236Y-133985000D01*
X158900808Y-111923572D01*
X159064285Y-111891054D01*
X159546054Y-111569147D01*
X159766000Y-111239974D01*
X159985946Y-111569147D01*
X160467715Y-111891054D01*
X161036000Y-112004093D01*
X161604285Y-111891054D01*
X162086054Y-111569147D01*
X162407961Y-111087378D01*
X162475560Y-110747536D01*
X162541328Y-110649107D01*
X162623500Y-110236000D01*
X162623500Y-107127144D01*
X164728296Y-105022348D01*
X165049528Y-105155735D01*
X165655812Y-105156264D01*
X165912800Y-105050079D01*
X165912800Y-112445067D01*
X165933047Y-112546856D01*
X165527293Y-112714510D01*
X165303200Y-112938212D01*
X165303200Y-109891794D01*
X165420540Y-109774659D01*
X165569730Y-109415370D01*
X165570069Y-109026337D01*
X165421507Y-108666788D01*
X165146659Y-108391460D01*
X164787370Y-108242270D01*
X164398337Y-108241931D01*
X164038788Y-108390493D01*
X163763460Y-108665341D01*
X163614270Y-109024630D01*
X163613931Y-109413663D01*
X163762493Y-109773212D01*
X163880800Y-109891726D01*
X163880800Y-110065709D01*
X163771370Y-110020270D01*
X163382337Y-110019931D01*
X163022788Y-110168493D01*
X162747460Y-110443341D01*
X162598270Y-110802630D01*
X162597931Y-111191663D01*
X162746493Y-111551212D01*
X162864800Y-111669726D01*
X162864800Y-114046000D01*
X162918937Y-114318165D01*
X163073106Y-114548894D01*
X181394075Y-132869863D01*
X181393931Y-133035663D01*
X181542493Y-133395212D01*
X181817341Y-133670540D01*
X182176630Y-133819730D01*
X182565663Y-133820069D01*
X182925212Y-133671507D01*
X183200540Y-133396659D01*
X183349730Y-133037370D01*
X183350069Y-132648337D01*
X183201507Y-132288788D01*
X183119960Y-132207099D01*
X183200540Y-132126659D01*
X183349730Y-131767370D01*
X183350069Y-131378337D01*
X183201507Y-131018788D01*
X182926659Y-130743460D01*
X182567370Y-130594270D01*
X182446605Y-130594165D01*
X182692540Y-130348659D01*
X182841730Y-129989370D01*
X182841769Y-129943661D01*
X202818758Y-129943661D01*
X203030990Y-130457303D01*
X203423630Y-130850629D01*
X203936900Y-131063757D01*
X204492661Y-131064242D01*
X205006303Y-130852010D01*
X205399629Y-130459370D01*
X205612757Y-129946100D01*
X205613242Y-129390339D01*
X205401010Y-128876697D01*
X205008370Y-128483371D01*
X204495100Y-128270243D01*
X203939339Y-128269758D01*
X203425697Y-128481990D01*
X203032371Y-128874630D01*
X202819243Y-129387900D01*
X202818758Y-129943661D01*
X182841769Y-129943661D01*
X182842069Y-129600337D01*
X182693507Y-129240788D01*
X182418659Y-128965460D01*
X182059370Y-128816270D01*
X181891913Y-128816124D01*
X180391259Y-127315470D01*
X180660540Y-127046659D01*
X180809730Y-126687370D01*
X180809942Y-126443661D01*
X202818758Y-126443661D01*
X203030990Y-126957303D01*
X203423630Y-127350629D01*
X203936900Y-127563757D01*
X204492661Y-127564242D01*
X205006303Y-127352010D01*
X205399629Y-126959370D01*
X205612757Y-126446100D01*
X205613242Y-125890339D01*
X205401010Y-125376697D01*
X205008370Y-124983371D01*
X204495100Y-124770243D01*
X203939339Y-124769758D01*
X203425697Y-124981990D01*
X203032371Y-125374630D01*
X202819243Y-125887900D01*
X202818758Y-126443661D01*
X180809942Y-126443661D01*
X180810069Y-126298337D01*
X180661507Y-125938788D01*
X180386659Y-125663460D01*
X180027370Y-125514270D01*
X179859913Y-125514124D01*
X179502370Y-125156581D01*
X179644540Y-125014659D01*
X179793730Y-124655370D01*
X179794069Y-124266337D01*
X179645507Y-123906788D01*
X179370659Y-123631460D01*
X179011370Y-123482270D01*
X178843912Y-123482124D01*
X171399200Y-116037412D01*
X171399200Y-113712760D01*
X171648496Y-113816277D01*
X172204257Y-113816762D01*
X172717899Y-113604530D01*
X173111225Y-113211890D01*
X173197545Y-113004008D01*
X173282586Y-113209823D01*
X173675226Y-113603149D01*
X174188496Y-113816277D01*
X174744257Y-113816762D01*
X175257899Y-113604530D01*
X175651225Y-113211890D01*
X175737545Y-113004008D01*
X175822586Y-113209823D01*
X176215226Y-113603149D01*
X176728496Y-113816277D01*
X177284257Y-113816762D01*
X177797899Y-113604530D01*
X178191225Y-113211890D01*
X178277545Y-113004008D01*
X178362586Y-113209823D01*
X178755226Y-113603149D01*
X179268496Y-113816277D01*
X179824257Y-113816762D01*
X180337899Y-113604530D01*
X180731225Y-113211890D01*
X180817545Y-113004008D01*
X180902586Y-113209823D01*
X181295226Y-113603149D01*
X181808496Y-113816277D01*
X182364257Y-113816762D01*
X182490713Y-113764511D01*
X182490354Y-114176181D01*
X182702586Y-114689823D01*
X183095226Y-115083149D01*
X183608496Y-115296277D01*
X184164257Y-115296762D01*
X184677899Y-115084530D01*
X185071225Y-114691890D01*
X185284353Y-114178620D01*
X185284838Y-113622859D01*
X185072606Y-113109217D01*
X184679966Y-112715891D01*
X184166696Y-112502763D01*
X183610935Y-112502278D01*
X183484479Y-112554529D01*
X183484838Y-112142859D01*
X183272606Y-111629217D01*
X182879966Y-111235891D01*
X182525206Y-111088582D01*
X184398894Y-109214894D01*
X184553063Y-108984165D01*
X184565322Y-108922534D01*
X184607200Y-108712000D01*
X184607200Y-103099602D01*
X184910698Y-102896811D01*
X185166000Y-102514725D01*
X185421302Y-102896811D01*
X185886849Y-103207880D01*
X185978800Y-103226170D01*
X185978800Y-117438206D01*
X185861460Y-117555341D01*
X185712270Y-117914630D01*
X185711931Y-118303663D01*
X185860493Y-118663212D01*
X186135341Y-118938540D01*
X186494630Y-119087730D01*
X186883663Y-119088069D01*
X187243212Y-118939507D01*
X187518540Y-118664659D01*
X187667730Y-118305370D01*
X187668069Y-117916337D01*
X187519507Y-117556788D01*
X187401200Y-117438274D01*
X187401200Y-116756291D01*
X187510630Y-116801730D01*
X187899663Y-116802069D01*
X188259212Y-116653507D01*
X188534540Y-116378659D01*
X188683730Y-116019370D01*
X188684069Y-115630337D01*
X188535507Y-115270788D01*
X188417200Y-115152274D01*
X188417200Y-103175670D01*
X188443489Y-103186538D01*
X188658500Y-103090126D01*
X188658500Y-102171500D01*
X188638500Y-102171500D01*
X188638500Y-101536500D01*
X188658500Y-101536500D01*
X188658500Y-100617874D01*
X188443489Y-100521462D01*
X188417200Y-100532330D01*
X188417200Y-95798588D01*
X188594550Y-95621238D01*
X188976000Y-95697113D01*
X189525151Y-95587880D01*
X189534800Y-95581433D01*
X189534800Y-100532330D01*
X189508511Y-100521462D01*
X189293500Y-100617874D01*
X189293500Y-101536500D01*
X189313500Y-101536500D01*
X189313500Y-102171500D01*
X189293500Y-102171500D01*
X189293500Y-103090126D01*
X189508511Y-103186538D01*
X189534800Y-103175670D01*
X189534800Y-111252000D01*
X189538627Y-111271239D01*
X189522270Y-111310630D01*
X189521931Y-111699663D01*
X189670493Y-112059212D01*
X189945341Y-112334540D01*
X190304630Y-112483730D01*
X190693663Y-112484069D01*
X191053212Y-112335507D01*
X191328540Y-112060659D01*
X191477730Y-111701370D01*
X191478069Y-111312337D01*
X191329507Y-110952788D01*
X191054659Y-110677460D01*
X190957200Y-110636991D01*
X190957200Y-103201433D01*
X190966849Y-103207880D01*
X191516000Y-103317113D01*
X192065151Y-103207880D01*
X192530698Y-102896811D01*
X192786000Y-102514725D01*
X193041302Y-102896811D01*
X193506849Y-103207880D01*
X194056000Y-103317113D01*
X194605151Y-103207880D01*
X195070698Y-102896811D01*
X195326000Y-102514725D01*
X195581302Y-102896811D01*
X196046849Y-103207880D01*
X196596000Y-103317113D01*
X197145151Y-103207880D01*
X197610698Y-102896811D01*
X197866000Y-102514725D01*
X198121302Y-102896811D01*
X198586849Y-103207880D01*
X199136000Y-103317113D01*
X199685151Y-103207880D01*
X200150698Y-102896811D01*
X200406000Y-102514725D01*
X200661302Y-102896811D01*
X201126849Y-103207880D01*
X201676000Y-103317113D01*
X202225151Y-103207880D01*
X202690698Y-102896811D01*
X203001767Y-102431264D01*
X203111000Y-101882113D01*
X203111000Y-101825887D01*
X203001767Y-101276736D01*
X202690698Y-100811189D01*
X202225151Y-100500120D01*
X201676000Y-100390887D01*
X201126849Y-100500120D01*
X200661302Y-100811189D01*
X200406000Y-101193275D01*
X200150698Y-100811189D01*
X199685151Y-100500120D01*
X199136000Y-100390887D01*
X198754550Y-100466762D01*
X198114894Y-99827106D01*
X197884165Y-99672937D01*
X197816377Y-99659453D01*
X197658659Y-99501460D01*
X197299370Y-99352270D01*
X196910337Y-99351931D01*
X196550788Y-99500493D01*
X196275460Y-99775341D01*
X196126270Y-100134630D01*
X196126058Y-100378270D01*
X195532760Y-99784972D01*
X195541730Y-99763370D01*
X195542069Y-99374337D01*
X195393507Y-99014788D01*
X195118659Y-98739460D01*
X194759370Y-98590270D01*
X194370337Y-98589931D01*
X194010788Y-98738493D01*
X193735460Y-99013341D01*
X193586270Y-99372630D01*
X193585931Y-99761663D01*
X193734493Y-100121212D01*
X194009341Y-100396540D01*
X194015248Y-100398993D01*
X193506849Y-100500120D01*
X193041302Y-100811189D01*
X192786000Y-101193275D01*
X192530698Y-100811189D01*
X192065151Y-100500120D01*
X191516000Y-100390887D01*
X190966849Y-100500120D01*
X190957200Y-100506567D01*
X190957200Y-95798588D01*
X191134550Y-95621238D01*
X191516000Y-95697113D01*
X192065151Y-95587880D01*
X192530698Y-95276811D01*
X192796542Y-94878947D01*
X193028657Y-95235929D01*
X193490280Y-95552809D01*
X193523489Y-95566538D01*
X193738500Y-95470126D01*
X193738500Y-94551500D01*
X193718500Y-94551500D01*
X193718500Y-93916500D01*
X193738500Y-93916500D01*
X193738500Y-92997874D01*
X194373500Y-92997874D01*
X194373500Y-93916500D01*
X194393500Y-93916500D01*
X194393500Y-94551500D01*
X194373500Y-94551500D01*
X194373500Y-95470126D01*
X194588511Y-95566538D01*
X194621720Y-95552809D01*
X195083343Y-95235929D01*
X195315458Y-94878947D01*
X195581302Y-95276811D01*
X196046849Y-95587880D01*
X196596000Y-95697113D01*
X197145151Y-95587880D01*
X197610698Y-95276811D01*
X197866000Y-94894725D01*
X198121302Y-95276811D01*
X198586849Y-95587880D01*
X199136000Y-95697113D01*
X199685151Y-95587880D01*
X200150698Y-95276811D01*
X200416542Y-94878947D01*
X200648657Y-95235929D01*
X201110280Y-95552809D01*
X201143489Y-95566538D01*
X201358500Y-95470126D01*
X201358500Y-94551500D01*
X201993500Y-94551500D01*
X201993500Y-95470126D01*
X202208511Y-95566538D01*
X202241720Y-95552809D01*
X202703343Y-95235929D01*
X203008563Y-94766515D01*
X202916711Y-94551500D01*
X201993500Y-94551500D01*
X201358500Y-94551500D01*
X201338500Y-94551500D01*
X201338500Y-93916500D01*
X201358500Y-93916500D01*
X201358500Y-92997874D01*
X201993500Y-92997874D01*
X201993500Y-93916500D01*
X202916711Y-93916500D01*
X203008563Y-93701485D01*
X202703343Y-93232071D01*
X202241720Y-92915191D01*
X202208511Y-92901462D01*
X201993500Y-92997874D01*
X201358500Y-92997874D01*
X201143489Y-92901462D01*
X201110280Y-92915191D01*
X200648657Y-93232071D01*
X200416542Y-93589053D01*
X200150698Y-93191189D01*
X199685151Y-92880120D01*
X199136000Y-92770887D01*
X198586849Y-92880120D01*
X198121302Y-93191189D01*
X197866000Y-93573275D01*
X197610698Y-93191189D01*
X197145151Y-92880120D01*
X196596000Y-92770887D01*
X196046849Y-92880120D01*
X195581302Y-93191189D01*
X195315458Y-93589053D01*
X195083343Y-93232071D01*
X194621720Y-92915191D01*
X194588511Y-92901462D01*
X194373500Y-92997874D01*
X193738500Y-92997874D01*
X193523489Y-92901462D01*
X193490280Y-92915191D01*
X193028657Y-93232071D01*
X192796542Y-93589053D01*
X192530698Y-93191189D01*
X192065151Y-92880120D01*
X191516000Y-92770887D01*
X190966849Y-92880120D01*
X190501302Y-93191189D01*
X190246000Y-93573275D01*
X189990698Y-93191189D01*
X189525151Y-92880120D01*
X188976000Y-92770887D01*
X188426849Y-92880120D01*
X187961302Y-93191189D01*
X187706000Y-93573275D01*
X187450698Y-93191189D01*
X186985151Y-92880120D01*
X186436000Y-92770887D01*
X186054550Y-92846762D01*
X184099200Y-90891412D01*
X184099200Y-87692737D01*
X184208707Y-87647490D01*
X184519413Y-87337325D01*
X193184146Y-87337325D01*
X193933871Y-89151801D01*
X195320897Y-90541250D01*
X197134061Y-91294141D01*
X199097325Y-91295854D01*
X200911801Y-90546129D01*
X202301250Y-89159103D01*
X203054141Y-87345939D01*
X203055854Y-85382675D01*
X202306129Y-83568199D01*
X200919103Y-82178750D01*
X199105939Y-81425859D01*
X197142675Y-81424146D01*
X195328199Y-82173871D01*
X193938750Y-83560897D01*
X193185859Y-85374061D01*
X193184146Y-87337325D01*
X184519413Y-87337325D01*
X184602033Y-87254850D01*
X184815161Y-86741580D01*
X184815646Y-86185819D01*
X184603414Y-85672177D01*
X184210774Y-85278851D01*
X183697504Y-85065723D01*
X183141743Y-85065238D01*
X182628101Y-85277470D01*
X182234775Y-85670110D01*
X182148455Y-85877992D01*
X182063414Y-85672177D01*
X181670774Y-85278851D01*
X181157504Y-85065723D01*
X180601743Y-85065238D01*
X180088101Y-85277470D01*
X179694775Y-85670110D01*
X179608455Y-85877992D01*
X179523414Y-85672177D01*
X179130774Y-85278851D01*
X178617504Y-85065723D01*
X178061743Y-85065238D01*
X177548101Y-85277470D01*
X177154775Y-85670110D01*
X177068455Y-85877992D01*
X176983414Y-85672177D01*
X176590774Y-85278851D01*
X176077504Y-85065723D01*
X175521743Y-85065238D01*
X175008101Y-85277470D01*
X174614775Y-85670110D01*
X174528455Y-85877992D01*
X174443414Y-85672177D01*
X174050774Y-85278851D01*
X173537504Y-85065723D01*
X172981743Y-85065238D01*
X172468101Y-85277470D01*
X172074775Y-85670110D01*
X171861647Y-86183380D01*
X171861162Y-86739141D01*
X172073394Y-87252783D01*
X172466034Y-87646109D01*
X172516800Y-87667189D01*
X172516800Y-91186000D01*
X172570937Y-91458165D01*
X172725106Y-91688894D01*
X173824753Y-92788541D01*
X173736000Y-92770887D01*
X173354550Y-92846762D01*
X171399200Y-90891412D01*
X171399200Y-87624418D01*
X171617629Y-87406370D01*
X171830757Y-86893100D01*
X171831242Y-86337339D01*
X171619010Y-85823697D01*
X171226370Y-85430371D01*
X170713100Y-85217243D01*
X170157339Y-85216758D01*
X169643697Y-85428990D01*
X169250371Y-85821630D01*
X169037243Y-86334900D01*
X169036758Y-86890661D01*
X169248990Y-87404303D01*
X169641630Y-87797629D01*
X169976800Y-87936804D01*
X169976800Y-91186000D01*
X170030937Y-91458165D01*
X170185106Y-91688894D01*
X171284753Y-92788541D01*
X171196000Y-92770887D01*
X170646849Y-92880120D01*
X170181302Y-93191189D01*
X169926000Y-93573275D01*
X169670698Y-93191189D01*
X169205151Y-92880120D01*
X168656000Y-92770887D01*
X168106849Y-92880120D01*
X167641302Y-93191189D01*
X167330233Y-93656736D01*
X167221000Y-94205887D01*
X167221000Y-94262113D01*
X167330233Y-94811264D01*
X167641302Y-95276811D01*
X168106849Y-95587880D01*
X168656000Y-95697113D01*
X169205151Y-95587880D01*
X169670698Y-95276811D01*
X169926000Y-94894725D01*
X170181302Y-95276811D01*
X170646849Y-95587880D01*
X171196000Y-95697113D01*
X171745151Y-95587880D01*
X172210698Y-95276811D01*
X172466000Y-94894725D01*
X172721302Y-95276811D01*
X173186849Y-95587880D01*
X173736000Y-95697113D01*
X174285151Y-95587880D01*
X174750698Y-95276811D01*
X175006000Y-94894725D01*
X175261302Y-95276811D01*
X175726849Y-95587880D01*
X176276000Y-95697113D01*
X176825151Y-95587880D01*
X177290698Y-95276811D01*
X177546000Y-94894725D01*
X177801302Y-95276811D01*
X178266849Y-95587880D01*
X178816000Y-95697113D01*
X179365151Y-95587880D01*
X179830698Y-95276811D01*
X180086000Y-94894725D01*
X180341302Y-95276811D01*
X180806849Y-95587880D01*
X181356000Y-95697113D01*
X181905151Y-95587880D01*
X182370698Y-95276811D01*
X182626000Y-94894725D01*
X182881302Y-95276811D01*
X183346849Y-95587880D01*
X183896000Y-95697113D01*
X184445151Y-95587880D01*
X184910698Y-95276811D01*
X185166000Y-94894725D01*
X185421302Y-95276811D01*
X185886849Y-95587880D01*
X186436000Y-95697113D01*
X186985151Y-95587880D01*
X186994800Y-95581433D01*
X186994800Y-100506567D01*
X186985151Y-100500120D01*
X186436000Y-100390887D01*
X185886849Y-100500120D01*
X185421302Y-100811189D01*
X185166000Y-101193275D01*
X184910698Y-100811189D01*
X184445151Y-100500120D01*
X183896000Y-100390887D01*
X183346849Y-100500120D01*
X182881302Y-100811189D01*
X182626000Y-101193275D01*
X182370698Y-100811189D01*
X181905151Y-100500120D01*
X181397335Y-100399109D01*
X181401212Y-100397507D01*
X181676540Y-100122659D01*
X181825730Y-99763370D01*
X181826069Y-99374337D01*
X181677507Y-99014788D01*
X181402659Y-98739460D01*
X181043370Y-98590270D01*
X180654337Y-98589931D01*
X180294788Y-98738493D01*
X180176274Y-98856800D01*
X162723802Y-98856800D01*
X162606667Y-98739460D01*
X162247378Y-98590270D01*
X161858345Y-98589931D01*
X161498796Y-98738493D01*
X161223468Y-99013341D01*
X161074278Y-99372630D01*
X161073939Y-99761663D01*
X161119860Y-99872800D01*
X158496000Y-99872800D01*
X158268990Y-99917955D01*
X158223835Y-99926937D01*
X157993105Y-100081106D01*
X157552886Y-100521325D01*
X157521151Y-100500120D01*
X156972000Y-100390887D01*
X156802409Y-100424621D01*
X156458894Y-100081106D01*
X156228165Y-99926937D01*
X155956000Y-99872800D01*
X153332291Y-99872800D01*
X153377730Y-99763370D01*
X153378069Y-99374337D01*
X153229507Y-99014788D01*
X152954659Y-98739460D01*
X152595370Y-98590270D01*
X152206337Y-98589931D01*
X151846788Y-98738493D01*
X151728274Y-98856800D01*
X115225794Y-98856800D01*
X115108659Y-98739460D01*
X114749370Y-98590270D01*
X114360337Y-98589931D01*
X114000788Y-98738493D01*
X113725460Y-99013341D01*
X113576270Y-99372630D01*
X113575931Y-99761663D01*
X113621852Y-99872800D01*
X111760000Y-99872800D01*
X111487835Y-99926937D01*
X111257106Y-100081105D01*
X110613410Y-100724802D01*
X110277151Y-100500120D01*
X109728000Y-100390887D01*
X109178849Y-100500120D01*
X108713302Y-100811189D01*
X108458000Y-101193275D01*
X108202698Y-100811189D01*
X107737151Y-100500120D01*
X107188000Y-100390887D01*
X106638849Y-100500120D01*
X106173302Y-100811189D01*
X105907458Y-101209053D01*
X105675343Y-100852071D01*
X105213720Y-100535191D01*
X105180511Y-100521462D01*
X104965500Y-100617874D01*
X104965500Y-101536500D01*
X104985500Y-101536500D01*
X104985500Y-102171500D01*
X104965500Y-102171500D01*
X104965500Y-103090126D01*
X105180511Y-103186538D01*
X105213720Y-103172809D01*
X105675343Y-102855929D01*
X105907458Y-102498947D01*
X106173302Y-102896811D01*
X106638849Y-103207880D01*
X107188000Y-103317113D01*
X107737151Y-103207880D01*
X108202698Y-102896811D01*
X108458000Y-102514725D01*
X108713302Y-102896811D01*
X109178849Y-103207880D01*
X109299851Y-103231949D01*
X109270800Y-103378000D01*
X109270800Y-103722206D01*
X109153460Y-103839341D01*
X109004270Y-104198630D01*
X109003931Y-104587663D01*
X109152493Y-104947212D01*
X109427341Y-105222540D01*
X109786630Y-105371730D01*
X110175663Y-105372069D01*
X110535212Y-105223507D01*
X110810540Y-104948659D01*
X110959730Y-104589370D01*
X110960069Y-104200337D01*
X110811507Y-103840788D01*
X110693200Y-103722274D01*
X110693200Y-103672588D01*
X111382590Y-102983198D01*
X111718849Y-103207880D01*
X112268000Y-103317113D01*
X112817151Y-103207880D01*
X113282698Y-102896811D01*
X113538000Y-102514725D01*
X113793302Y-102896811D01*
X114258849Y-103207880D01*
X114808000Y-103317113D01*
X115357151Y-103207880D01*
X115822698Y-102896811D01*
X116078000Y-102514725D01*
X116333302Y-102896811D01*
X116798849Y-103207880D01*
X117348000Y-103317113D01*
X117897151Y-103207880D01*
X118362698Y-102896811D01*
X118673767Y-102431264D01*
X118783000Y-101882113D01*
X118783000Y-101825887D01*
X118677440Y-101295200D01*
X125044560Y-101295200D01*
X125044560Y-102654000D01*
X125088838Y-102889317D01*
X125227910Y-103105441D01*
X125440110Y-103250431D01*
X125692000Y-103301440D01*
X125780800Y-103301440D01*
X125780800Y-108544312D01*
X125417293Y-108694510D01*
X125023967Y-109087150D01*
X124810839Y-109600420D01*
X124810354Y-110156181D01*
X125022586Y-110669823D01*
X125415226Y-111063149D01*
X125928496Y-111276277D01*
X126484257Y-111276762D01*
X126997899Y-111064530D01*
X127391225Y-110671890D01*
X127477545Y-110464008D01*
X127562586Y-110669823D01*
X127955226Y-111063149D01*
X128468496Y-111276277D01*
X129024257Y-111276762D01*
X129537899Y-111064530D01*
X129931225Y-110671890D01*
X130017545Y-110464008D01*
X130102586Y-110669823D01*
X130495226Y-111063149D01*
X131008496Y-111276277D01*
X131564257Y-111276762D01*
X132077899Y-111064530D01*
X132471225Y-110671890D01*
X132557545Y-110464008D01*
X132642586Y-110669823D01*
X133035226Y-111063149D01*
X133548496Y-111276277D01*
X134104257Y-111276762D01*
X134617899Y-111064530D01*
X135011225Y-110671890D01*
X135097545Y-110464008D01*
X135182586Y-110669823D01*
X135575226Y-111063149D01*
X136088496Y-111276277D01*
X136644257Y-111276762D01*
X137157899Y-111064530D01*
X137551225Y-110671890D01*
X137764353Y-110158620D01*
X137764838Y-109602859D01*
X137552606Y-109089217D01*
X137363200Y-108899480D01*
X137363200Y-103099602D01*
X137666698Y-102896811D01*
X137922000Y-102514725D01*
X138177302Y-102896811D01*
X138480800Y-103099602D01*
X138480800Y-108510305D01*
X138401697Y-108542990D01*
X138008371Y-108935630D01*
X137795243Y-109448900D01*
X137794758Y-110004661D01*
X138006990Y-110518303D01*
X138399630Y-110911629D01*
X138912900Y-111124757D01*
X139468661Y-111125242D01*
X139982303Y-110913010D01*
X140375629Y-110520370D01*
X140588757Y-110007100D01*
X140589242Y-109451339D01*
X140377010Y-108937697D01*
X139984370Y-108544371D01*
X139903200Y-108510666D01*
X139903200Y-103099602D01*
X140206698Y-102896811D01*
X140462000Y-102514725D01*
X140717302Y-102896811D01*
X141182849Y-103207880D01*
X141732000Y-103317113D01*
X142281151Y-103207880D01*
X142746698Y-102896811D01*
X143002000Y-102514725D01*
X143257302Y-102896811D01*
X143722849Y-103207880D01*
X144272000Y-103317113D01*
X144821151Y-103207880D01*
X145286698Y-102896811D01*
X145552542Y-102498947D01*
X145784657Y-102855929D01*
X146246280Y-103172809D01*
X146279489Y-103186538D01*
X146494500Y-103090126D01*
X146494500Y-102171500D01*
X146474500Y-102171500D01*
X146474500Y-101536500D01*
X146494500Y-101536500D01*
X146494500Y-101516500D01*
X147129500Y-101516500D01*
X147129500Y-101536500D01*
X147149500Y-101536500D01*
X147149500Y-102171500D01*
X147129500Y-102171500D01*
X147129500Y-103090126D01*
X147344511Y-103186538D01*
X147377720Y-103172809D01*
X147839343Y-102855929D01*
X148071458Y-102498947D01*
X148337302Y-102896811D01*
X148802849Y-103207880D01*
X149352000Y-103317113D01*
X149901151Y-103207880D01*
X150366698Y-102896811D01*
X150622000Y-102514725D01*
X150877302Y-102896811D01*
X151342849Y-103207880D01*
X151892000Y-103317113D01*
X152441151Y-103207880D01*
X152906698Y-102896811D01*
X153162000Y-102514725D01*
X153417302Y-102896811D01*
X153882849Y-103207880D01*
X154432000Y-103317113D01*
X154981151Y-103207880D01*
X155446698Y-102896811D01*
X155702000Y-102514725D01*
X155957302Y-102896811D01*
X156422849Y-103207880D01*
X156972000Y-103317113D01*
X157521151Y-103207880D01*
X157986698Y-102896811D01*
X158242000Y-102514725D01*
X158497302Y-102896811D01*
X158962849Y-103207880D01*
X159512000Y-103317113D01*
X160061151Y-103207880D01*
X160526698Y-102896811D01*
X160837767Y-102431264D01*
X160947000Y-101882113D01*
X160947000Y-101825887D01*
X160841440Y-101295200D01*
X165799608Y-101295200D01*
X165795460Y-101299341D01*
X165646270Y-101658630D01*
X165645931Y-102047663D01*
X165673560Y-102114530D01*
X165658472Y-102108265D01*
X165052188Y-102107736D01*
X164491851Y-102339262D01*
X164200163Y-102630441D01*
X164178893Y-102634672D01*
X163828678Y-102868678D01*
X160780678Y-105916678D01*
X160546672Y-106266893D01*
X160464500Y-106680000D01*
X160464500Y-109091094D01*
X159985946Y-109410853D01*
X159766000Y-109740026D01*
X159546054Y-109410853D01*
X159222351Y-109194562D01*
X155442894Y-105415106D01*
X155212165Y-105260937D01*
X154940000Y-105206800D01*
X149769794Y-105206800D01*
X149652659Y-105089460D01*
X149293370Y-104940270D01*
X148904337Y-104939931D01*
X148544788Y-105088493D01*
X148269460Y-105363341D01*
X148120270Y-105722630D01*
X148119931Y-106111663D01*
X148268493Y-106471212D01*
X148543341Y-106746540D01*
X148902630Y-106895730D01*
X149291663Y-106896069D01*
X149651212Y-106747507D01*
X149769726Y-106629200D01*
X154645412Y-106629200D01*
X157438383Y-109422172D01*
X157226000Y-109740026D01*
X157006054Y-109410853D01*
X156524285Y-109088946D01*
X155956000Y-108975907D01*
X155387715Y-109088946D01*
X154905946Y-109410853D01*
X154686000Y-109740026D01*
X154466054Y-109410853D01*
X153984285Y-109088946D01*
X153416000Y-108975907D01*
X152847715Y-109088946D01*
X152365946Y-109410853D01*
X152338150Y-109452452D01*
X152329162Y-109404683D01*
X152190090Y-109188559D01*
X151977890Y-109043569D01*
X151726000Y-108992560D01*
X150026000Y-108992560D01*
X149790683Y-109036838D01*
X149574559Y-109175910D01*
X149429569Y-109388110D01*
X149378560Y-109640000D01*
X149378560Y-111340000D01*
X149422838Y-111575317D01*
X149561910Y-111791441D01*
X149774110Y-111936431D01*
X150026000Y-111987440D01*
X151726000Y-111987440D01*
X151961317Y-111943162D01*
X152177441Y-111804090D01*
X152322431Y-111591890D01*
X152336086Y-111524459D01*
X152365946Y-111569147D01*
X152717034Y-111803736D01*
X149562941Y-114957829D01*
X149505192Y-114899980D01*
X149567730Y-114749372D01*
X149568069Y-114360339D01*
X149419507Y-114000790D01*
X149144659Y-113725462D01*
X148785370Y-113576272D01*
X148396337Y-113575933D01*
X148036788Y-113724495D01*
X147761460Y-113999343D01*
X147612270Y-114358632D01*
X147612124Y-114526090D01*
X147534664Y-114603550D01*
X143205524Y-114585206D01*
X143374353Y-114178620D01*
X143374838Y-113622859D01*
X143318785Y-113487200D01*
X146140206Y-113487200D01*
X146257341Y-113604540D01*
X146616630Y-113753730D01*
X147005663Y-113754069D01*
X147365212Y-113605507D01*
X147640540Y-113330659D01*
X147789730Y-112971370D01*
X147790069Y-112582337D01*
X147641507Y-112222788D01*
X147366659Y-111947460D01*
X147007370Y-111798270D01*
X146618337Y-111797931D01*
X146258788Y-111946493D01*
X146140274Y-112064800D01*
X141542585Y-112064800D01*
X141362606Y-111629217D01*
X140969966Y-111235891D01*
X140456696Y-111022763D01*
X139900935Y-111022278D01*
X139387293Y-111234510D01*
X138993967Y-111627150D01*
X138907647Y-111835032D01*
X138822606Y-111629217D01*
X138429966Y-111235891D01*
X137916696Y-111022763D01*
X137360935Y-111022278D01*
X136847293Y-111234510D01*
X136453967Y-111627150D01*
X136367647Y-111835032D01*
X136282606Y-111629217D01*
X135889966Y-111235891D01*
X135376696Y-111022763D01*
X134820935Y-111022278D01*
X134307293Y-111234510D01*
X133913967Y-111627150D01*
X133827647Y-111835032D01*
X133742606Y-111629217D01*
X133349966Y-111235891D01*
X132836696Y-111022763D01*
X132280935Y-111022278D01*
X131767293Y-111234510D01*
X131373967Y-111627150D01*
X131287647Y-111835032D01*
X131202606Y-111629217D01*
X130809966Y-111235891D01*
X130296696Y-111022763D01*
X129740935Y-111022278D01*
X129227293Y-111234510D01*
X128833967Y-111627150D01*
X128747647Y-111835032D01*
X128662606Y-111629217D01*
X128269966Y-111235891D01*
X127756696Y-111022763D01*
X127200935Y-111022278D01*
X126687293Y-111234510D01*
X126293967Y-111627150D01*
X126080839Y-112140420D01*
X126080354Y-112696181D01*
X126292586Y-113209823D01*
X126685226Y-113603149D01*
X127198496Y-113816277D01*
X127754257Y-113816762D01*
X128267899Y-113604530D01*
X128661225Y-113211890D01*
X128747545Y-113004008D01*
X128832586Y-113209823D01*
X128987670Y-113365178D01*
X128732788Y-113470493D01*
X128457460Y-113745341D01*
X128308270Y-114104630D01*
X128308124Y-114272088D01*
X128292914Y-114287298D01*
X125759226Y-114287298D01*
X125804353Y-114178620D01*
X125804838Y-113622859D01*
X125592606Y-113109217D01*
X125199966Y-112715891D01*
X124686696Y-112502763D01*
X124130935Y-112502278D01*
X123617293Y-112714510D01*
X123223967Y-113107150D01*
X123010839Y-113620420D01*
X123010354Y-114176181D01*
X123056266Y-114287298D01*
X101386714Y-114287298D01*
X101494757Y-114027100D01*
X101495242Y-113471339D01*
X101427965Y-113308515D01*
X102553437Y-113308515D01*
X102858657Y-113777929D01*
X103320280Y-114094809D01*
X103353489Y-114108538D01*
X103568500Y-114012126D01*
X103568500Y-113093500D01*
X104203500Y-113093500D01*
X104203500Y-114012126D01*
X104418511Y-114108538D01*
X104451720Y-114094809D01*
X104913343Y-113777929D01*
X105218563Y-113308515D01*
X108649437Y-113308515D01*
X108954657Y-113777929D01*
X109416280Y-114094809D01*
X109449489Y-114108538D01*
X109664500Y-114012126D01*
X109664500Y-113093500D01*
X110299500Y-113093500D01*
X110299500Y-114012126D01*
X110514511Y-114108538D01*
X110547720Y-114094809D01*
X111009343Y-113777929D01*
X111314563Y-113308515D01*
X114491437Y-113308515D01*
X114796657Y-113777929D01*
X115258280Y-114094809D01*
X115291489Y-114108538D01*
X115506500Y-114012126D01*
X115506500Y-113093500D01*
X116141500Y-113093500D01*
X116141500Y-114012126D01*
X116356511Y-114108538D01*
X116389720Y-114094809D01*
X116851343Y-113777929D01*
X117156563Y-113308515D01*
X117064711Y-113093500D01*
X116141500Y-113093500D01*
X115506500Y-113093500D01*
X114583289Y-113093500D01*
X114491437Y-113308515D01*
X111314563Y-113308515D01*
X111222711Y-113093500D01*
X110299500Y-113093500D01*
X109664500Y-113093500D01*
X108741289Y-113093500D01*
X108649437Y-113308515D01*
X105218563Y-113308515D01*
X105126711Y-113093500D01*
X104203500Y-113093500D01*
X103568500Y-113093500D01*
X102645289Y-113093500D01*
X102553437Y-113308515D01*
X101427965Y-113308515D01*
X101283010Y-112957697D01*
X100890370Y-112564371D01*
X100377100Y-112351243D01*
X99821339Y-112350758D01*
X99694883Y-112403009D01*
X99695022Y-112243485D01*
X102553437Y-112243485D01*
X102645289Y-112458500D01*
X103568500Y-112458500D01*
X103568500Y-111539874D01*
X104203500Y-111539874D01*
X104203500Y-112458500D01*
X105126711Y-112458500D01*
X105218563Y-112243485D01*
X108649437Y-112243485D01*
X108741289Y-112458500D01*
X109664500Y-112458500D01*
X109664500Y-111539874D01*
X110299500Y-111539874D01*
X110299500Y-112458500D01*
X111222711Y-112458500D01*
X111314563Y-112243485D01*
X114491437Y-112243485D01*
X114583289Y-112458500D01*
X115506500Y-112458500D01*
X115506500Y-111539874D01*
X116141500Y-111539874D01*
X116141500Y-112458500D01*
X117064711Y-112458500D01*
X117156563Y-112243485D01*
X116851343Y-111774071D01*
X116389720Y-111457191D01*
X116356511Y-111443462D01*
X116141500Y-111539874D01*
X115506500Y-111539874D01*
X115291489Y-111443462D01*
X115258280Y-111457191D01*
X114796657Y-111774071D01*
X114491437Y-112243485D01*
X111314563Y-112243485D01*
X111009343Y-111774071D01*
X110547720Y-111457191D01*
X110514511Y-111443462D01*
X110299500Y-111539874D01*
X109664500Y-111539874D01*
X109449489Y-111443462D01*
X109416280Y-111457191D01*
X108954657Y-111774071D01*
X108649437Y-112243485D01*
X105218563Y-112243485D01*
X104913343Y-111774071D01*
X104451720Y-111457191D01*
X104418511Y-111443462D01*
X104203500Y-111539874D01*
X103568500Y-111539874D01*
X103353489Y-111443462D01*
X103320280Y-111457191D01*
X102858657Y-111774071D01*
X102553437Y-112243485D01*
X99695022Y-112243485D01*
X99695242Y-111991339D01*
X99483010Y-111477697D01*
X99090370Y-111084371D01*
X98821190Y-110972598D01*
X100070895Y-109722894D01*
X100225063Y-109492164D01*
X100279200Y-109220000D01*
X100279200Y-107099225D01*
X100335106Y-107182894D01*
X101605105Y-108452894D01*
X101835835Y-108607063D01*
X101880990Y-108616045D01*
X102108000Y-108661200D01*
X111850206Y-108661200D01*
X111967341Y-108778540D01*
X112326630Y-108927730D01*
X112715663Y-108928069D01*
X113075212Y-108779507D01*
X113350540Y-108504659D01*
X113499730Y-108145370D01*
X113500069Y-107756337D01*
X113351507Y-107396788D01*
X113142960Y-107187877D01*
X113350540Y-106980659D01*
X113499730Y-106621370D01*
X113500069Y-106232337D01*
X113351507Y-105872788D01*
X113076659Y-105597460D01*
X112717370Y-105448270D01*
X112328337Y-105447931D01*
X111968788Y-105596493D01*
X111850274Y-105714800D01*
X106974588Y-105714800D01*
X104330500Y-103070712D01*
X104330500Y-102171500D01*
X104310500Y-102171500D01*
X104310500Y-101536500D01*
X104330500Y-101536500D01*
X104330500Y-100617874D01*
X104115489Y-100521462D01*
X104082280Y-100535191D01*
X103620657Y-100852071D01*
X103388542Y-101209053D01*
X103122698Y-100811189D01*
X102657151Y-100500120D01*
X102108000Y-100390887D01*
X101558849Y-100500120D01*
X101367062Y-100628268D01*
X101340894Y-100589106D01*
X98589600Y-97837812D01*
X154177736Y-97837812D01*
X154409262Y-98398149D01*
X154837596Y-98827231D01*
X155397528Y-99059735D01*
X156003812Y-99060264D01*
X156564149Y-98828738D01*
X156777759Y-98615500D01*
X160274000Y-98615500D01*
X160687107Y-98533328D01*
X161037322Y-98299322D01*
X164086641Y-95250003D01*
X164385812Y-95250264D01*
X164946149Y-95018738D01*
X165375231Y-94590404D01*
X165607735Y-94030472D01*
X165608264Y-93424188D01*
X165376738Y-92863851D01*
X164948404Y-92434769D01*
X164388472Y-92202265D01*
X163782188Y-92201736D01*
X163221851Y-92433262D01*
X162792769Y-92861596D01*
X162560265Y-93421528D01*
X162560002Y-93723354D01*
X159826856Y-96456500D01*
X156777766Y-96456500D01*
X156566404Y-96244769D01*
X156006472Y-96012265D01*
X155400188Y-96011736D01*
X154839851Y-96243262D01*
X154410769Y-96671596D01*
X154178265Y-97231528D01*
X154177736Y-97837812D01*
X98589600Y-97837812D01*
X96059402Y-95307614D01*
X96478849Y-95587880D01*
X97028000Y-95697113D01*
X97577151Y-95587880D01*
X98042698Y-95276811D01*
X98298000Y-94894725D01*
X98553302Y-95276811D01*
X99018849Y-95587880D01*
X99568000Y-95697113D01*
X100117151Y-95587880D01*
X100582698Y-95276811D01*
X100838000Y-94894725D01*
X101093302Y-95276811D01*
X101558849Y-95587880D01*
X102108000Y-95697113D01*
X102657151Y-95587880D01*
X103122698Y-95276811D01*
X103378000Y-94894725D01*
X103633302Y-95276811D01*
X104098849Y-95587880D01*
X104648000Y-95697113D01*
X105197151Y-95587880D01*
X105662698Y-95276811D01*
X105918000Y-94894725D01*
X106173302Y-95276811D01*
X106638849Y-95587880D01*
X107188000Y-95697113D01*
X107737151Y-95587880D01*
X108202698Y-95276811D01*
X108468542Y-94878947D01*
X108700657Y-95235929D01*
X109162280Y-95552809D01*
X109195489Y-95566538D01*
X109410500Y-95470126D01*
X109410500Y-94551500D01*
X109390500Y-94551500D01*
X109390500Y-93916500D01*
X109410500Y-93916500D01*
X109410500Y-92997874D01*
X110045500Y-92997874D01*
X110045500Y-93916500D01*
X110065500Y-93916500D01*
X110065500Y-94551500D01*
X110045500Y-94551500D01*
X110045500Y-95470126D01*
X110260511Y-95566538D01*
X110293720Y-95552809D01*
X110755343Y-95235929D01*
X110987458Y-94878947D01*
X111253302Y-95276811D01*
X111718849Y-95587880D01*
X112268000Y-95697113D01*
X112817151Y-95587880D01*
X113282698Y-95276811D01*
X113538000Y-94894725D01*
X113793302Y-95276811D01*
X114258849Y-95587880D01*
X114808000Y-95697113D01*
X115357151Y-95587880D01*
X115822698Y-95276811D01*
X116078000Y-94894725D01*
X116333302Y-95276811D01*
X116798849Y-95587880D01*
X117348000Y-95697113D01*
X117897151Y-95587880D01*
X118362698Y-95276811D01*
X118673767Y-94811264D01*
X118783000Y-94262113D01*
X118783000Y-94205887D01*
X125057000Y-94205887D01*
X125057000Y-94262113D01*
X125166233Y-94811264D01*
X125477302Y-95276811D01*
X125942849Y-95587880D01*
X126492000Y-95697113D01*
X127041151Y-95587880D01*
X127506698Y-95276811D01*
X127762000Y-94894725D01*
X128017302Y-95276811D01*
X128482849Y-95587880D01*
X129032000Y-95697113D01*
X129581151Y-95587880D01*
X130046698Y-95276811D01*
X130302000Y-94894725D01*
X130557302Y-95276811D01*
X131022849Y-95587880D01*
X131572000Y-95697113D01*
X132121151Y-95587880D01*
X132586698Y-95276811D01*
X132842000Y-94894725D01*
X133097302Y-95276811D01*
X133562849Y-95587880D01*
X134112000Y-95697113D01*
X134661151Y-95587880D01*
X135126698Y-95276811D01*
X135382000Y-94894725D01*
X135637302Y-95276811D01*
X136102849Y-95587880D01*
X136652000Y-95697113D01*
X137201151Y-95587880D01*
X137666698Y-95276811D01*
X137922000Y-94894725D01*
X138177302Y-95276811D01*
X138642849Y-95587880D01*
X139192000Y-95697113D01*
X139741151Y-95587880D01*
X140206698Y-95276811D01*
X140462000Y-94894725D01*
X140717302Y-95276811D01*
X141182849Y-95587880D01*
X141732000Y-95697113D01*
X142281151Y-95587880D01*
X142746698Y-95276811D01*
X143002000Y-94894725D01*
X143257302Y-95276811D01*
X143722849Y-95587880D01*
X144272000Y-95697113D01*
X144821151Y-95587880D01*
X145286698Y-95276811D01*
X145542000Y-94894725D01*
X145797302Y-95276811D01*
X146262849Y-95587880D01*
X146812000Y-95697113D01*
X147361151Y-95587880D01*
X147826698Y-95276811D01*
X148082000Y-94894725D01*
X148337302Y-95276811D01*
X148802849Y-95587880D01*
X149352000Y-95697113D01*
X149901151Y-95587880D01*
X150366698Y-95276811D01*
X150632542Y-94878947D01*
X150864657Y-95235929D01*
X151326280Y-95552809D01*
X151359489Y-95566538D01*
X151574500Y-95470126D01*
X151574500Y-94551500D01*
X151554500Y-94551500D01*
X151554500Y-93916500D01*
X151574500Y-93916500D01*
X151574500Y-92997874D01*
X152209500Y-92997874D01*
X152209500Y-93916500D01*
X152229500Y-93916500D01*
X152229500Y-94551500D01*
X152209500Y-94551500D01*
X152209500Y-95470126D01*
X152424511Y-95566538D01*
X152457720Y-95552809D01*
X152919343Y-95235929D01*
X153151458Y-94878947D01*
X153417302Y-95276811D01*
X153882849Y-95587880D01*
X154432000Y-95697113D01*
X154981151Y-95587880D01*
X155446698Y-95276811D01*
X155702000Y-94894725D01*
X155957302Y-95276811D01*
X156422849Y-95587880D01*
X156972000Y-95697113D01*
X157521151Y-95587880D01*
X157986698Y-95276811D01*
X158252542Y-94878947D01*
X158484657Y-95235929D01*
X158946280Y-95552809D01*
X158979489Y-95566538D01*
X159194500Y-95470126D01*
X159194500Y-94551500D01*
X159829500Y-94551500D01*
X159829500Y-95470126D01*
X160044511Y-95566538D01*
X160077720Y-95552809D01*
X160539343Y-95235929D01*
X160844563Y-94766515D01*
X160752711Y-94551500D01*
X159829500Y-94551500D01*
X159194500Y-94551500D01*
X159174500Y-94551500D01*
X159174500Y-93916500D01*
X159194500Y-93916500D01*
X159194500Y-92997874D01*
X159829500Y-92997874D01*
X159829500Y-93916500D01*
X160752711Y-93916500D01*
X160844563Y-93701485D01*
X160539343Y-93232071D01*
X160077720Y-92915191D01*
X160044511Y-92901462D01*
X159829500Y-92997874D01*
X159194500Y-92997874D01*
X158979489Y-92901462D01*
X158946280Y-92915191D01*
X158484657Y-93232071D01*
X158252542Y-93589053D01*
X157986698Y-93191189D01*
X157521151Y-92880120D01*
X156972000Y-92770887D01*
X156422849Y-92880120D01*
X155957302Y-93191189D01*
X155702000Y-93573275D01*
X155446698Y-93191189D01*
X154981151Y-92880120D01*
X154432000Y-92770887D01*
X153882849Y-92880120D01*
X153417302Y-93191189D01*
X153151458Y-93589053D01*
X152919343Y-93232071D01*
X152457720Y-92915191D01*
X152424511Y-92901462D01*
X152209500Y-92997874D01*
X151574500Y-92997874D01*
X151359489Y-92901462D01*
X151326280Y-92915191D01*
X150864657Y-93232071D01*
X150632542Y-93589053D01*
X150366698Y-93191189D01*
X149901151Y-92880120D01*
X149352000Y-92770887D01*
X148802849Y-92880120D01*
X148337302Y-93191189D01*
X148082000Y-93573275D01*
X147826698Y-93191189D01*
X147361151Y-92880120D01*
X146812000Y-92770887D01*
X146262849Y-92880120D01*
X145797302Y-93191189D01*
X145542000Y-93573275D01*
X145286698Y-93191189D01*
X144821151Y-92880120D01*
X144272000Y-92770887D01*
X144102409Y-92804621D01*
X140157200Y-88859412D01*
X140157200Y-87797688D01*
X140520707Y-87647490D01*
X140914033Y-87254850D01*
X141127161Y-86741580D01*
X141127646Y-86185819D01*
X140915414Y-85672177D01*
X140522774Y-85278851D01*
X140009504Y-85065723D01*
X139453743Y-85065238D01*
X138940101Y-85277470D01*
X138546775Y-85670110D01*
X138460455Y-85877992D01*
X138375414Y-85672177D01*
X137982774Y-85278851D01*
X137469504Y-85065723D01*
X136913743Y-85065238D01*
X136400101Y-85277470D01*
X136006775Y-85670110D01*
X135920455Y-85877992D01*
X135835414Y-85672177D01*
X135442774Y-85278851D01*
X134929504Y-85065723D01*
X134373743Y-85065238D01*
X133860101Y-85277470D01*
X133466775Y-85670110D01*
X133380455Y-85877992D01*
X133295414Y-85672177D01*
X132902774Y-85278851D01*
X132389504Y-85065723D01*
X131833743Y-85065238D01*
X131320101Y-85277470D01*
X130926775Y-85670110D01*
X130840455Y-85877992D01*
X130755414Y-85672177D01*
X130362774Y-85278851D01*
X129849504Y-85065723D01*
X129293743Y-85065238D01*
X128780101Y-85277470D01*
X128386775Y-85670110D01*
X128173647Y-86183380D01*
X128173162Y-86739141D01*
X128385394Y-87252783D01*
X128574800Y-87442520D01*
X128574800Y-89154000D01*
X128628937Y-89426165D01*
X128783106Y-89656894D01*
X131977822Y-92851610D01*
X131572000Y-92770887D01*
X131402409Y-92804621D01*
X127457200Y-88859412D01*
X127457200Y-87831695D01*
X127536303Y-87799010D01*
X127929629Y-87406370D01*
X128142757Y-86893100D01*
X128143242Y-86337339D01*
X127931010Y-85823697D01*
X127538370Y-85430371D01*
X127025100Y-85217243D01*
X126469339Y-85216758D01*
X125955697Y-85428990D01*
X125562371Y-85821630D01*
X125349243Y-86334900D01*
X125348758Y-86890661D01*
X125560990Y-87404303D01*
X125953630Y-87797629D01*
X126034800Y-87831334D01*
X126034800Y-89154000D01*
X126088937Y-89426165D01*
X126243106Y-89656894D01*
X129437822Y-92851610D01*
X129032000Y-92770887D01*
X128482849Y-92880120D01*
X128017302Y-93191189D01*
X127762000Y-93573275D01*
X127506698Y-93191189D01*
X127041151Y-92880120D01*
X126492000Y-92770887D01*
X125942849Y-92880120D01*
X125477302Y-93191189D01*
X125166233Y-93656736D01*
X125057000Y-94205887D01*
X118783000Y-94205887D01*
X118673767Y-93656736D01*
X118362698Y-93191189D01*
X117897151Y-92880120D01*
X117348000Y-92770887D01*
X116798849Y-92880120D01*
X116333302Y-93191189D01*
X116078000Y-93573275D01*
X115822698Y-93191189D01*
X115357151Y-92880120D01*
X114808000Y-92770887D01*
X114258849Y-92880120D01*
X113793302Y-93191189D01*
X113538000Y-93573275D01*
X113282698Y-93191189D01*
X112817151Y-92880120D01*
X112268000Y-92770887D01*
X111718849Y-92880120D01*
X111253302Y-93191189D01*
X110987458Y-93589053D01*
X110755343Y-93232071D01*
X110293720Y-92915191D01*
X110260511Y-92901462D01*
X110045500Y-92997874D01*
X109410500Y-92997874D01*
X109195489Y-92901462D01*
X109162280Y-92915191D01*
X108700657Y-93232071D01*
X108468542Y-93589053D01*
X108202698Y-93191189D01*
X107737151Y-92880120D01*
X107188000Y-92770887D01*
X106638849Y-92880120D01*
X106173302Y-93191189D01*
X105918000Y-93573275D01*
X105662698Y-93191189D01*
X105197151Y-92880120D01*
X104648000Y-92770887D01*
X104098849Y-92880120D01*
X103633302Y-93191189D01*
X103378000Y-93573275D01*
X103122698Y-93191189D01*
X102657151Y-92880120D01*
X102108000Y-92770887D01*
X101726550Y-92846762D01*
X98023604Y-89143816D01*
X98023604Y-87680175D01*
X98102707Y-87647490D01*
X98413413Y-87337325D01*
X103014146Y-87337325D01*
X103763871Y-89151801D01*
X105150897Y-90541250D01*
X106964061Y-91294141D01*
X108927325Y-91295854D01*
X110741801Y-90546129D01*
X112131250Y-89159103D01*
X112884141Y-87345939D01*
X112885854Y-85382675D01*
X112136129Y-83568199D01*
X111288552Y-82719141D01*
X122563162Y-82719141D01*
X122775394Y-83232783D01*
X123168034Y-83626109D01*
X123681304Y-83839237D01*
X124237065Y-83839722D01*
X124363521Y-83787471D01*
X124363162Y-84199141D01*
X124575394Y-84712783D01*
X124968034Y-85106109D01*
X125481304Y-85319237D01*
X126037065Y-85319722D01*
X126550707Y-85107490D01*
X126944033Y-84714850D01*
X127030353Y-84506968D01*
X127115394Y-84712783D01*
X127508034Y-85106109D01*
X128021304Y-85319237D01*
X128577065Y-85319722D01*
X129090707Y-85107490D01*
X129484033Y-84714850D01*
X129570353Y-84506968D01*
X129655394Y-84712783D01*
X130048034Y-85106109D01*
X130561304Y-85319237D01*
X131117065Y-85319722D01*
X131630707Y-85107490D01*
X132024033Y-84714850D01*
X132110353Y-84506968D01*
X132195394Y-84712783D01*
X132588034Y-85106109D01*
X133101304Y-85319237D01*
X133657065Y-85319722D01*
X134170707Y-85107490D01*
X134564033Y-84714850D01*
X134650353Y-84506968D01*
X134735394Y-84712783D01*
X135128034Y-85106109D01*
X135641304Y-85319237D01*
X136197065Y-85319722D01*
X136710707Y-85107490D01*
X137104033Y-84714850D01*
X137190353Y-84506968D01*
X137275394Y-84712783D01*
X137668034Y-85106109D01*
X138181304Y-85319237D01*
X138737065Y-85319722D01*
X139250707Y-85107490D01*
X139644033Y-84714850D01*
X139857161Y-84201580D01*
X139857646Y-83645819D01*
X139645414Y-83132177D01*
X139252774Y-82738851D01*
X139205307Y-82719141D01*
X140133162Y-82719141D01*
X140345394Y-83232783D01*
X140738034Y-83626109D01*
X141251304Y-83839237D01*
X141807065Y-83839722D01*
X142320707Y-83627490D01*
X142714033Y-83234850D01*
X142927161Y-82721580D01*
X142927163Y-82719141D01*
X166251162Y-82719141D01*
X166463394Y-83232783D01*
X166856034Y-83626109D01*
X167369304Y-83839237D01*
X167925065Y-83839722D01*
X168051521Y-83787471D01*
X168051162Y-84199141D01*
X168263394Y-84712783D01*
X168656034Y-85106109D01*
X169169304Y-85319237D01*
X169725065Y-85319722D01*
X170238707Y-85107490D01*
X170632033Y-84714850D01*
X170718353Y-84506968D01*
X170803394Y-84712783D01*
X171196034Y-85106109D01*
X171709304Y-85319237D01*
X172265065Y-85319722D01*
X172778707Y-85107490D01*
X173172033Y-84714850D01*
X173258353Y-84506968D01*
X173343394Y-84712783D01*
X173736034Y-85106109D01*
X174249304Y-85319237D01*
X174805065Y-85319722D01*
X175318707Y-85107490D01*
X175712033Y-84714850D01*
X175798353Y-84506968D01*
X175883394Y-84712783D01*
X176276034Y-85106109D01*
X176789304Y-85319237D01*
X177345065Y-85319722D01*
X177858707Y-85107490D01*
X178252033Y-84714850D01*
X178338353Y-84506968D01*
X178423394Y-84712783D01*
X178816034Y-85106109D01*
X179329304Y-85319237D01*
X179885065Y-85319722D01*
X180398707Y-85107490D01*
X180792033Y-84714850D01*
X180878353Y-84506968D01*
X180963394Y-84712783D01*
X181356034Y-85106109D01*
X181869304Y-85319237D01*
X182425065Y-85319722D01*
X182938707Y-85107490D01*
X183332033Y-84714850D01*
X183545161Y-84201580D01*
X183545646Y-83645819D01*
X183333414Y-83132177D01*
X182940774Y-82738851D01*
X182893307Y-82719141D01*
X183821162Y-82719141D01*
X184033394Y-83232783D01*
X184426034Y-83626109D01*
X184939304Y-83839237D01*
X185495065Y-83839722D01*
X186008707Y-83627490D01*
X186402033Y-83234850D01*
X186615161Y-82721580D01*
X186615646Y-82165819D01*
X186403414Y-81652177D01*
X186010774Y-81258851D01*
X185497504Y-81045723D01*
X184941743Y-81045238D01*
X184428101Y-81257470D01*
X184034775Y-81650110D01*
X183821647Y-82163380D01*
X183821162Y-82719141D01*
X182893307Y-82719141D01*
X182427504Y-82525723D01*
X181871743Y-82525238D01*
X181358101Y-82737470D01*
X180964775Y-83130110D01*
X180878455Y-83337992D01*
X180793414Y-83132177D01*
X180400774Y-82738851D01*
X179887504Y-82525723D01*
X179331743Y-82525238D01*
X178818101Y-82737470D01*
X178424775Y-83130110D01*
X178338455Y-83337992D01*
X178253414Y-83132177D01*
X177860774Y-82738851D01*
X177347504Y-82525723D01*
X176791743Y-82525238D01*
X176278101Y-82737470D01*
X175884775Y-83130110D01*
X175798455Y-83337992D01*
X175713414Y-83132177D01*
X175320774Y-82738851D01*
X174807504Y-82525723D01*
X174251743Y-82525238D01*
X173738101Y-82737470D01*
X173344775Y-83130110D01*
X173258455Y-83337992D01*
X173173414Y-83132177D01*
X172780774Y-82738851D01*
X172267504Y-82525723D01*
X171711743Y-82525238D01*
X171198101Y-82737470D01*
X170804775Y-83130110D01*
X170718455Y-83337992D01*
X170633414Y-83132177D01*
X170240774Y-82738851D01*
X169727504Y-82525723D01*
X169171743Y-82525238D01*
X169045287Y-82577489D01*
X169045646Y-82165819D01*
X168833414Y-81652177D01*
X168440774Y-81258851D01*
X167927504Y-81045723D01*
X167371743Y-81045238D01*
X166858101Y-81257470D01*
X166464775Y-81650110D01*
X166251647Y-82163380D01*
X166251162Y-82719141D01*
X142927163Y-82719141D01*
X142927646Y-82165819D01*
X142715414Y-81652177D01*
X142322774Y-81258851D01*
X141809504Y-81045723D01*
X141253743Y-81045238D01*
X140740101Y-81257470D01*
X140346775Y-81650110D01*
X140133647Y-82163380D01*
X140133162Y-82719141D01*
X139205307Y-82719141D01*
X138739504Y-82525723D01*
X138183743Y-82525238D01*
X138102514Y-82558801D01*
X134824817Y-79281105D01*
X134687507Y-78948788D01*
X134412659Y-78673460D01*
X134053370Y-78524270D01*
X133664337Y-78523931D01*
X133304788Y-78672493D01*
X133029460Y-78947341D01*
X132880270Y-79306630D01*
X132879944Y-79681173D01*
X132634659Y-79435460D01*
X132275370Y-79286270D01*
X131886337Y-79285931D01*
X131526788Y-79434493D01*
X131251460Y-79709341D01*
X131102270Y-80068630D01*
X131101931Y-80457663D01*
X131229066Y-80765354D01*
X130986818Y-80523106D01*
X130756089Y-80368937D01*
X130483924Y-80314800D01*
X130211794Y-80314800D01*
X130094659Y-80197460D01*
X129735370Y-80048270D01*
X129346337Y-80047931D01*
X128986788Y-80196493D01*
X128711460Y-80471341D01*
X128562270Y-80830630D01*
X128561931Y-81219663D01*
X128710493Y-81579212D01*
X128985341Y-81854540D01*
X129344630Y-82003730D01*
X129733663Y-82004069D01*
X130093212Y-81855507D01*
X130200521Y-81748385D01*
X130977735Y-82525599D01*
X130563743Y-82525238D01*
X130050101Y-82737470D01*
X129656775Y-83130110D01*
X129570455Y-83337992D01*
X129485414Y-83132177D01*
X129092774Y-82738851D01*
X128579504Y-82525723D01*
X128023743Y-82525238D01*
X127510101Y-82737470D01*
X127116775Y-83130110D01*
X127030455Y-83337992D01*
X126945414Y-83132177D01*
X126552774Y-82738851D01*
X126039504Y-82525723D01*
X125483743Y-82525238D01*
X125357287Y-82577489D01*
X125357646Y-82165819D01*
X125145414Y-81652177D01*
X124752774Y-81258851D01*
X124239504Y-81045723D01*
X123683743Y-81045238D01*
X123170101Y-81257470D01*
X122776775Y-81650110D01*
X122563647Y-82163380D01*
X122563162Y-82719141D01*
X111288552Y-82719141D01*
X110749103Y-82178750D01*
X108935939Y-81425859D01*
X106972675Y-81424146D01*
X105158199Y-82173871D01*
X103768750Y-83560897D01*
X103015859Y-85374061D01*
X103014146Y-87337325D01*
X98413413Y-87337325D01*
X98496033Y-87254850D01*
X98709161Y-86741580D01*
X98709646Y-86185819D01*
X98497414Y-85672177D01*
X98104774Y-85278851D01*
X97591504Y-85065723D01*
X97035743Y-85065238D01*
X96522101Y-85277470D01*
X96128775Y-85670110D01*
X96042455Y-85877992D01*
X95957414Y-85672177D01*
X95564774Y-85278851D01*
X95051504Y-85065723D01*
X94495743Y-85065238D01*
X93982101Y-85277470D01*
X93588775Y-85670110D01*
X93502455Y-85877992D01*
X93417414Y-85672177D01*
X93024774Y-85278851D01*
X92511504Y-85065723D01*
X91955743Y-85065238D01*
X91442101Y-85277470D01*
X91048775Y-85670110D01*
X90962455Y-85877992D01*
X90877414Y-85672177D01*
X90484774Y-85278851D01*
X89971504Y-85065723D01*
X89415743Y-85065238D01*
X88902101Y-85277470D01*
X88508775Y-85670110D01*
X88422455Y-85877992D01*
X88337414Y-85672177D01*
X87944774Y-85278851D01*
X87431504Y-85065723D01*
X86875743Y-85065238D01*
X86362101Y-85277470D01*
X85968775Y-85670110D01*
X85755647Y-86183380D01*
X85755162Y-86739141D01*
X85967394Y-87252783D01*
X86360034Y-87646109D01*
X86441204Y-87679814D01*
X86441204Y-89438404D01*
X86495341Y-89710569D01*
X86649510Y-89941298D01*
X89496753Y-92788541D01*
X89408000Y-92770887D01*
X89026550Y-92846762D01*
X85039200Y-88859412D01*
X85039200Y-87831695D01*
X85118303Y-87799010D01*
X85511629Y-87406370D01*
X85724757Y-86893100D01*
X85725242Y-86337339D01*
X85513010Y-85823697D01*
X85120370Y-85430371D01*
X84607100Y-85217243D01*
X84051339Y-85216758D01*
X83537697Y-85428990D01*
X83144371Y-85821630D01*
X82931243Y-86334900D01*
X82930758Y-86890661D01*
X83142990Y-87404303D01*
X83535630Y-87797629D01*
X83616800Y-87831334D01*
X83616800Y-89154000D01*
X83670937Y-89426165D01*
X83825106Y-89656894D01*
X86956753Y-92788541D01*
X86868000Y-92770887D01*
X86318849Y-92880120D01*
X85853302Y-93191189D01*
X85598000Y-93573275D01*
X85342698Y-93191189D01*
X84877151Y-92880120D01*
X84328000Y-92770887D01*
X83778849Y-92880120D01*
X83313302Y-93191189D01*
X83002233Y-93656736D01*
X82893000Y-94205887D01*
X82893000Y-94262113D01*
X83002233Y-94811264D01*
X83313302Y-95276811D01*
X83778849Y-95587880D01*
X84328000Y-95697113D01*
X84709449Y-95621238D01*
X84853706Y-95765495D01*
X85007875Y-95868507D01*
X85084437Y-95919664D01*
X85356601Y-95973801D01*
X94714013Y-95973801D01*
X99203586Y-100463374D01*
X99018849Y-100500120D01*
X98553302Y-100811189D01*
X98298000Y-101193275D01*
X98042698Y-100811189D01*
X97577151Y-100500120D01*
X97028000Y-100390887D01*
X96478849Y-100500120D01*
X96013302Y-100811189D01*
X95758000Y-101193275D01*
X95502698Y-100811189D01*
X95037151Y-100500120D01*
X94488000Y-100390887D01*
X93938849Y-100500120D01*
X93473302Y-100811189D01*
X93218000Y-101193275D01*
X92962698Y-100811189D01*
X92497151Y-100500120D01*
X91948000Y-100390887D01*
X91398849Y-100500120D01*
X90933302Y-100811189D01*
X90678000Y-101193275D01*
X90422698Y-100811189D01*
X89957151Y-100500120D01*
X89408000Y-100390887D01*
X88858849Y-100500120D01*
X88393302Y-100811189D01*
X88138000Y-101193275D01*
X87882698Y-100811189D01*
X87417151Y-100500120D01*
X86868000Y-100390887D01*
X86318849Y-100500120D01*
X85853302Y-100811189D01*
X85756899Y-100955465D01*
X85731162Y-100818683D01*
X85592090Y-100602559D01*
X85379890Y-100457569D01*
X85128000Y-100406560D01*
X83528000Y-100406560D01*
X83292683Y-100450838D01*
X83076559Y-100589910D01*
X82931569Y-100802110D01*
X82880560Y-101054000D01*
X82880560Y-102654000D01*
X82924838Y-102889317D01*
X83063910Y-103105441D01*
X83276110Y-103250431D01*
X83528000Y-103301440D01*
X83616800Y-103301440D01*
X83616800Y-108510305D01*
X83537697Y-108542990D01*
X83144371Y-108935630D01*
X82931243Y-109448900D01*
X82930758Y-110004661D01*
X83142990Y-110518303D01*
X83535630Y-110911629D01*
X84048900Y-111124757D01*
X84604661Y-111125242D01*
X85118303Y-110913010D01*
X85511629Y-110520370D01*
X85597949Y-110312488D01*
X85682990Y-110518303D01*
X86075630Y-110911629D01*
X86588900Y-111124757D01*
X87144661Y-111125242D01*
X87658303Y-110913010D01*
X88051629Y-110520370D01*
X88137949Y-110312488D01*
X88222990Y-110518303D01*
X88615630Y-110911629D01*
X89128900Y-111124757D01*
X89684661Y-111125242D01*
X90198303Y-110913010D01*
X90591629Y-110520370D01*
X90677949Y-110312488D01*
X90762990Y-110518303D01*
X91155630Y-110911629D01*
X91668900Y-111124757D01*
X92224661Y-111125242D01*
X92738303Y-110913010D01*
X93131629Y-110520370D01*
X93217949Y-110312488D01*
X93302990Y-110518303D01*
X93695630Y-110911629D01*
X94208900Y-111124757D01*
X94764661Y-111125242D01*
X95278303Y-110913010D01*
X95671629Y-110520370D01*
X95884757Y-110007100D01*
X95885242Y-109451339D01*
X95673010Y-108937697D01*
X95280370Y-108544371D01*
X95199200Y-108510666D01*
X95199200Y-103099602D01*
X95502698Y-102896811D01*
X95758000Y-102514725D01*
X96013302Y-102896811D01*
X96316800Y-103099602D01*
X96316800Y-108596413D01*
X96128775Y-108784110D01*
X95915647Y-109297380D01*
X95915162Y-109853141D01*
X96127394Y-110366783D01*
X96520034Y-110760109D01*
X96874794Y-110907418D01*
X96624041Y-111158171D01*
X96550370Y-111084371D01*
X96037100Y-110871243D01*
X95481339Y-110870758D01*
X94967697Y-111082990D01*
X94574371Y-111475630D01*
X94488051Y-111683512D01*
X94403010Y-111477697D01*
X94010370Y-111084371D01*
X93497100Y-110871243D01*
X92941339Y-110870758D01*
X92427697Y-111082990D01*
X92034371Y-111475630D01*
X91948051Y-111683512D01*
X91863010Y-111477697D01*
X91470370Y-111084371D01*
X90957100Y-110871243D01*
X90401339Y-110870758D01*
X89887697Y-111082990D01*
X89494371Y-111475630D01*
X89408051Y-111683512D01*
X89323010Y-111477697D01*
X88930370Y-111084371D01*
X88417100Y-110871243D01*
X87861339Y-110870758D01*
X87347697Y-111082990D01*
X86954371Y-111475630D01*
X86868051Y-111683512D01*
X86783010Y-111477697D01*
X86390370Y-111084371D01*
X85877100Y-110871243D01*
X85321339Y-110870758D01*
X84807697Y-111082990D01*
X84414371Y-111475630D01*
X84201243Y-111988900D01*
X84200758Y-112544661D01*
X84412990Y-113058303D01*
X84805630Y-113451629D01*
X85318900Y-113664757D01*
X85874661Y-113665242D01*
X85955890Y-113631679D01*
X86611509Y-114287298D01*
X83816714Y-114287298D01*
X83924757Y-114027100D01*
X83925242Y-113471339D01*
X83713010Y-112957697D01*
X83320370Y-112564371D01*
X82807100Y-112351243D01*
X82251339Y-112350758D01*
X81737697Y-112562990D01*
X81344371Y-112955630D01*
X81131243Y-113468900D01*
X81130758Y-114024661D01*
X81239277Y-114287298D01*
X79733086Y-114287298D01*
X77177925Y-111732137D01*
X77178069Y-111566337D01*
X77029507Y-111206788D01*
X76754659Y-110931460D01*
X76395370Y-110782270D01*
X76006337Y-110781931D01*
X75646788Y-110930493D01*
X75371460Y-111205341D01*
X75222270Y-111564630D01*
X75221931Y-111953663D01*
X75370493Y-112313212D01*
X75645341Y-112588540D01*
X76004630Y-112737730D01*
X76172088Y-112737876D01*
X78180741Y-114746529D01*
X77911460Y-115015341D01*
X77762270Y-115374630D01*
X77761931Y-115763663D01*
X77910493Y-116123212D01*
X78185341Y-116398540D01*
X78544630Y-116547730D01*
X78933663Y-116548069D01*
X79293212Y-116399507D01*
X79411726Y-116281200D01*
X80093709Y-116281200D01*
X80048270Y-116390630D01*
X80047931Y-116779663D01*
X80196493Y-117139212D01*
X80471341Y-117414540D01*
X80830630Y-117563730D01*
X81219663Y-117564069D01*
X81579212Y-117415507D01*
X81744208Y-117250799D01*
X81783098Y-117243063D01*
X82013827Y-117088894D01*
X82059521Y-117043200D01*
X93104897Y-117043200D01*
X93171341Y-117109760D01*
X93530630Y-117258950D01*
X93698088Y-117259096D01*
X99872784Y-123433792D01*
X99872784Y-134456206D01*
X99755444Y-134573341D01*
X99606254Y-134932630D01*
X99605915Y-135321663D01*
X99651836Y-135432800D01*
X81788000Y-135432800D01*
X81515835Y-135486937D01*
X81285106Y-135641106D01*
X80489149Y-136437063D01*
X80305151Y-136314120D01*
X79756000Y-136204887D01*
X79206849Y-136314120D01*
X78741302Y-136625189D01*
X78430233Y-137090736D01*
X78321000Y-137639887D01*
X78321000Y-137696113D01*
X78430233Y-138245264D01*
X78741302Y-138710811D01*
X79206849Y-139021880D01*
X79756000Y-139131113D01*
X80305151Y-139021880D01*
X80770698Y-138710811D01*
X81026000Y-138328725D01*
X81281302Y-138710811D01*
X81746849Y-139021880D01*
X82296000Y-139131113D01*
X82845151Y-139021880D01*
X83310698Y-138710811D01*
X83566000Y-138328725D01*
X83821302Y-138710811D01*
X84286849Y-139021880D01*
X84836000Y-139131113D01*
X85385151Y-139021880D01*
X85850698Y-138710811D01*
X86106000Y-138328725D01*
X86361302Y-138710811D01*
X86826849Y-139021880D01*
X87376000Y-139131113D01*
X87925151Y-139021880D01*
X88390698Y-138710811D01*
X88646000Y-138328725D01*
X88901302Y-138710811D01*
X89366849Y-139021880D01*
X89916000Y-139131113D01*
X90465151Y-139021880D01*
X90930698Y-138710811D01*
X91186000Y-138328725D01*
X91441302Y-138710811D01*
X91906849Y-139021880D01*
X92456000Y-139131113D01*
X93005151Y-139021880D01*
X93470698Y-138710811D01*
X93726000Y-138328725D01*
X93981302Y-138710811D01*
X94446849Y-139021880D01*
X94996000Y-139131113D01*
X95545151Y-139021880D01*
X96010698Y-138710811D01*
X96276542Y-138312947D01*
X96508657Y-138669929D01*
X96970280Y-138986809D01*
X97003489Y-139000538D01*
X97218500Y-138904126D01*
X97218500Y-137985500D01*
X97198500Y-137985500D01*
X97198500Y-137350500D01*
X97218500Y-137350500D01*
X97218500Y-137330500D01*
X97853500Y-137330500D01*
X97853500Y-137350500D01*
X97873500Y-137350500D01*
X97873500Y-137985500D01*
X97853500Y-137985500D01*
X97853500Y-138904126D01*
X98068511Y-139000538D01*
X98101720Y-138986809D01*
X98563343Y-138669929D01*
X98795458Y-138312947D01*
X99061302Y-138710811D01*
X99526849Y-139021880D01*
X100076000Y-139131113D01*
X100625151Y-139021880D01*
X101090698Y-138710811D01*
X101346000Y-138328725D01*
X101601302Y-138710811D01*
X101904800Y-138913602D01*
X101904800Y-140208000D01*
X101958937Y-140480165D01*
X102113106Y-140710894D01*
X104686075Y-143283863D01*
X104685931Y-143449663D01*
X104834493Y-143809212D01*
X104900812Y-143875647D01*
X104606849Y-143934120D01*
X104141302Y-144245189D01*
X103886000Y-144627275D01*
X103630698Y-144245189D01*
X103165151Y-143934120D01*
X102616000Y-143824887D01*
X102066849Y-143934120D01*
X101601302Y-144245189D01*
X101346000Y-144627275D01*
X101090698Y-144245189D01*
X100625151Y-143934120D01*
X100076000Y-143824887D01*
X99526849Y-143934120D01*
X99061302Y-144245189D01*
X98806000Y-144627275D01*
X98550698Y-144245189D01*
X98085151Y-143934120D01*
X97536000Y-143824887D01*
X96986849Y-143934120D01*
X96977200Y-143940567D01*
X96977200Y-141895794D01*
X97094540Y-141778659D01*
X97243730Y-141419370D01*
X97244069Y-141030337D01*
X97095507Y-140670788D01*
X96820659Y-140395460D01*
X96461370Y-140246270D01*
X96072337Y-140245931D01*
X95712788Y-140394493D01*
X95437460Y-140669341D01*
X95288270Y-141028630D01*
X95287931Y-141417663D01*
X95436493Y-141777212D01*
X95554800Y-141895726D01*
X95554800Y-143723411D01*
X95377449Y-143900762D01*
X94996000Y-143824887D01*
X94446849Y-143934120D01*
X93981302Y-144245189D01*
X93715458Y-144643053D01*
X93483343Y-144286071D01*
X93021720Y-143969191D01*
X92988511Y-143955462D01*
X92773500Y-144051874D01*
X92773500Y-144970500D01*
X92793500Y-144970500D01*
X92793500Y-145605500D01*
X92773500Y-145605500D01*
X92773500Y-146524126D01*
X92988511Y-146620538D01*
X93021720Y-146606809D01*
X93483343Y-146289929D01*
X93715458Y-145932947D01*
X93981302Y-146330811D01*
X94446849Y-146641880D01*
X94996000Y-146751113D01*
X95545151Y-146641880D01*
X96010698Y-146330811D01*
X96266000Y-145948725D01*
X96521302Y-146330811D01*
X96986849Y-146641880D01*
X97536000Y-146751113D01*
X98085151Y-146641880D01*
X98550698Y-146330811D01*
X98806000Y-145948725D01*
X99061302Y-146330811D01*
X99526849Y-146641880D01*
X100076000Y-146751113D01*
X100625151Y-146641880D01*
X101090698Y-146330811D01*
X101346000Y-145948725D01*
X101601302Y-146330811D01*
X102066849Y-146641880D01*
X102616000Y-146751113D01*
X103165151Y-146641880D01*
X103630698Y-146330811D01*
X103886000Y-145948725D01*
X104141302Y-146330811D01*
X104606849Y-146641880D01*
X105156000Y-146751113D01*
X105705151Y-146641880D01*
X106170698Y-146330811D01*
X106426000Y-145948725D01*
X106681302Y-146330811D01*
X107146849Y-146641880D01*
X107696000Y-146751113D01*
X108245151Y-146641880D01*
X108710698Y-146330811D01*
X108966000Y-145948725D01*
X109221302Y-146330811D01*
X109686849Y-146641880D01*
X110236000Y-146751113D01*
X110785151Y-146641880D01*
X111250698Y-146330811D01*
X111506000Y-145948725D01*
X111761302Y-146330811D01*
X112226849Y-146641880D01*
X112776000Y-146751113D01*
X113325151Y-146641880D01*
X113790698Y-146330811D01*
X114101767Y-145865264D01*
X114211000Y-145316113D01*
X114211000Y-145259887D01*
X114144453Y-144925335D01*
X114548892Y-144520897D01*
X114670738Y-144338540D01*
X114703061Y-144290166D01*
X114757198Y-144018002D01*
X114757198Y-142790658D01*
X115265528Y-143001735D01*
X115871812Y-143002264D01*
X116432149Y-142770738D01*
X116861231Y-142342404D01*
X117093735Y-141782472D01*
X117093998Y-141480645D01*
X117222318Y-141352325D01*
X117222321Y-141352323D01*
X118492321Y-140082323D01*
X118726327Y-139732108D01*
X118808499Y-139319001D01*
X118808499Y-136428187D01*
X119722752Y-136428187D01*
X119940757Y-136955800D01*
X120344077Y-137359824D01*
X120871309Y-137578750D01*
X121442187Y-137579248D01*
X121969800Y-137361243D01*
X122373824Y-136957923D01*
X122592750Y-136430691D01*
X122593248Y-135859813D01*
X122375243Y-135332200D01*
X121971923Y-134928176D01*
X121444691Y-134709250D01*
X120873813Y-134708752D01*
X120346200Y-134926757D01*
X119942176Y-135330077D01*
X119723250Y-135857309D01*
X119722752Y-136428187D01*
X118808499Y-136428187D01*
X118808499Y-130114145D01*
X125284757Y-123637887D01*
X125272800Y-123698000D01*
X125272800Y-137958345D01*
X122528364Y-140702781D01*
X122375243Y-140332200D01*
X121971923Y-139928176D01*
X121444691Y-139709250D01*
X120873813Y-139708752D01*
X120346200Y-139926757D01*
X119942176Y-140330077D01*
X119723250Y-140857309D01*
X119722752Y-141428187D01*
X119940757Y-141955800D01*
X120344077Y-142359824D01*
X120716626Y-142514520D01*
X115606346Y-147624800D01*
X90718588Y-147624800D01*
X89827247Y-146733459D01*
X89916000Y-146751113D01*
X90465151Y-146641880D01*
X90930698Y-146330811D01*
X91196542Y-145932947D01*
X91428657Y-146289929D01*
X91890280Y-146606809D01*
X91923489Y-146620538D01*
X92138500Y-146524126D01*
X92138500Y-145605500D01*
X92118500Y-145605500D01*
X92118500Y-144970500D01*
X92138500Y-144970500D01*
X92138500Y-144051874D01*
X91923489Y-143955462D01*
X91890280Y-143969191D01*
X91428657Y-144286071D01*
X91196542Y-144643053D01*
X90930698Y-144245189D01*
X90465151Y-143934120D01*
X89916000Y-143824887D01*
X89366849Y-143934120D01*
X88901302Y-144245189D01*
X88646000Y-144627275D01*
X88390698Y-144245189D01*
X87925151Y-143934120D01*
X87376000Y-143824887D01*
X86826849Y-143934120D01*
X86361302Y-144245189D01*
X86106000Y-144627275D01*
X85850698Y-144245189D01*
X85385151Y-143934120D01*
X84836000Y-143824887D01*
X84286849Y-143934120D01*
X83821302Y-144245189D01*
X83566000Y-144627275D01*
X83310698Y-144245189D01*
X82845151Y-143934120D01*
X82296000Y-143824887D01*
X81746849Y-143934120D01*
X81281302Y-144245189D01*
X81026000Y-144627275D01*
X80770698Y-144245189D01*
X80305151Y-143934120D01*
X79756000Y-143824887D01*
X79206849Y-143934120D01*
X78741302Y-144245189D01*
X78430233Y-144710736D01*
X78321000Y-145259887D01*
X78321000Y-145316113D01*
X78430233Y-145865264D01*
X78741302Y-146330811D01*
X79097471Y-146568796D01*
X79098937Y-146576165D01*
X79253106Y-146806894D01*
X80044241Y-147598030D01*
X79725939Y-147465859D01*
X77762675Y-147464146D01*
X75948199Y-148213871D01*
X74558750Y-149600897D01*
X74370000Y-150055458D01*
X74370000Y-133116285D01*
X87460760Y-133116285D01*
X87671169Y-133625515D01*
X88060436Y-134015461D01*
X88569298Y-134226759D01*
X89120285Y-134227240D01*
X89629515Y-134016831D01*
X90019461Y-133627564D01*
X90230759Y-133118702D01*
X90230761Y-133116285D01*
X92340760Y-133116285D01*
X92551169Y-133625515D01*
X92940436Y-134015461D01*
X93449298Y-134226759D01*
X94000285Y-134227240D01*
X94509515Y-134016831D01*
X94899461Y-133627564D01*
X95110759Y-133118702D01*
X95111240Y-132567715D01*
X94900831Y-132058485D01*
X94511564Y-131668539D01*
X94002702Y-131457241D01*
X93451715Y-131456760D01*
X92942485Y-131667169D01*
X92552539Y-132056436D01*
X92341241Y-132565298D01*
X92340760Y-133116285D01*
X90230761Y-133116285D01*
X90231240Y-132567715D01*
X90020831Y-132058485D01*
X89631564Y-131668539D01*
X89122702Y-131457241D01*
X88571715Y-131456760D01*
X88062485Y-131667169D01*
X87672539Y-132056436D01*
X87461241Y-132565298D01*
X87460760Y-133116285D01*
X74370000Y-133116285D01*
X74370000Y-127712187D01*
X87464752Y-127712187D01*
X87682757Y-128239800D01*
X88086077Y-128643824D01*
X88613309Y-128862750D01*
X89184187Y-128863248D01*
X89711800Y-128645243D01*
X90115824Y-128241923D01*
X90334750Y-127714691D01*
X90334752Y-127712187D01*
X92544752Y-127712187D01*
X92762757Y-128239800D01*
X93166077Y-128643824D01*
X93693309Y-128862750D01*
X94264187Y-128863248D01*
X94791800Y-128645243D01*
X95195824Y-128241923D01*
X95414750Y-127714691D01*
X95415248Y-127143813D01*
X95197243Y-126616200D01*
X94793923Y-126212176D01*
X94266691Y-125993250D01*
X93695813Y-125992752D01*
X93168200Y-126210757D01*
X92764176Y-126614077D01*
X92545250Y-127141309D01*
X92544752Y-127712187D01*
X90334752Y-127712187D01*
X90335248Y-127143813D01*
X90117243Y-126616200D01*
X89713923Y-126212176D01*
X89186691Y-125993250D01*
X88615813Y-125992752D01*
X88088200Y-126210757D01*
X87684176Y-126614077D01*
X87465250Y-127141309D01*
X87464752Y-127712187D01*
X74370000Y-127712187D01*
X74370000Y-122712187D01*
X87464752Y-122712187D01*
X87682757Y-123239800D01*
X88086077Y-123643824D01*
X88613309Y-123862750D01*
X89184187Y-123863248D01*
X89711800Y-123645243D01*
X90115824Y-123241923D01*
X90334750Y-122714691D01*
X90334752Y-122712187D01*
X92544752Y-122712187D01*
X92762757Y-123239800D01*
X93166077Y-123643824D01*
X93693309Y-123862750D01*
X94264187Y-123863248D01*
X94791800Y-123645243D01*
X95195824Y-123241923D01*
X95414750Y-122714691D01*
X95415248Y-122143813D01*
X95197243Y-121616200D01*
X94793923Y-121212176D01*
X94266691Y-120993250D01*
X93695813Y-120992752D01*
X93168200Y-121210757D01*
X92764176Y-121614077D01*
X92545250Y-122141309D01*
X92544752Y-122712187D01*
X90334752Y-122712187D01*
X90335248Y-122143813D01*
X90117243Y-121616200D01*
X89713923Y-121212176D01*
X89186691Y-120993250D01*
X88615813Y-120992752D01*
X88088200Y-121210757D01*
X87684176Y-121614077D01*
X87465250Y-122141309D01*
X87464752Y-122712187D01*
X74370000Y-122712187D01*
X74370000Y-82719141D01*
X80145162Y-82719141D01*
X80357394Y-83232783D01*
X80750034Y-83626109D01*
X81263304Y-83839237D01*
X81819065Y-83839722D01*
X81945521Y-83787471D01*
X81945162Y-84199141D01*
X82157394Y-84712783D01*
X82550034Y-85106109D01*
X83063304Y-85319237D01*
X83619065Y-85319722D01*
X84132707Y-85107490D01*
X84526033Y-84714850D01*
X84612353Y-84506968D01*
X84697394Y-84712783D01*
X85090034Y-85106109D01*
X85603304Y-85319237D01*
X86159065Y-85319722D01*
X86672707Y-85107490D01*
X87066033Y-84714850D01*
X87152353Y-84506968D01*
X87237394Y-84712783D01*
X87630034Y-85106109D01*
X88143304Y-85319237D01*
X88699065Y-85319722D01*
X89212707Y-85107490D01*
X89606033Y-84714850D01*
X89692353Y-84506968D01*
X89777394Y-84712783D01*
X90170034Y-85106109D01*
X90683304Y-85319237D01*
X91239065Y-85319722D01*
X91752707Y-85107490D01*
X92146033Y-84714850D01*
X92232353Y-84506968D01*
X92317394Y-84712783D01*
X92710034Y-85106109D01*
X93223304Y-85319237D01*
X93779065Y-85319722D01*
X94292707Y-85107490D01*
X94686033Y-84714850D01*
X94772353Y-84506968D01*
X94857394Y-84712783D01*
X95250034Y-85106109D01*
X95763304Y-85319237D01*
X96319065Y-85319722D01*
X96832707Y-85107490D01*
X97226033Y-84714850D01*
X97439161Y-84201580D01*
X97439646Y-83645819D01*
X97227414Y-83132177D01*
X96834774Y-82738851D01*
X96787307Y-82719141D01*
X97715162Y-82719141D01*
X97927394Y-83232783D01*
X98320034Y-83626109D01*
X98833304Y-83839237D01*
X99389065Y-83839722D01*
X99902707Y-83627490D01*
X100296033Y-83234850D01*
X100509161Y-82721580D01*
X100509646Y-82165819D01*
X100297414Y-81652177D01*
X99904774Y-81258851D01*
X99391504Y-81045723D01*
X98835743Y-81045238D01*
X98322101Y-81257470D01*
X97928775Y-81650110D01*
X97715647Y-82163380D01*
X97715162Y-82719141D01*
X96787307Y-82719141D01*
X96321504Y-82525723D01*
X96231433Y-82525644D01*
X93179925Y-79474136D01*
X93180069Y-79308337D01*
X93031507Y-78948788D01*
X92756659Y-78673460D01*
X92397370Y-78524270D01*
X92008337Y-78523931D01*
X91648788Y-78672493D01*
X91373460Y-78947341D01*
X91224270Y-79306630D01*
X91223931Y-79695663D01*
X91372493Y-80055212D01*
X91647341Y-80330540D01*
X92006630Y-80479730D01*
X92174088Y-80479876D01*
X94848666Y-83154455D01*
X94772455Y-83337992D01*
X94687414Y-83132177D01*
X94294774Y-82738851D01*
X93781504Y-82525723D01*
X93225743Y-82525238D01*
X93144513Y-82558801D01*
X90893862Y-80308150D01*
X90894069Y-80070337D01*
X90745507Y-79710788D01*
X90470659Y-79435460D01*
X90111370Y-79286270D01*
X89722337Y-79285931D01*
X89362788Y-79434493D01*
X89087460Y-79709341D01*
X88938270Y-80068630D01*
X88937931Y-80457663D01*
X89086493Y-80817212D01*
X89361341Y-81092540D01*
X89720630Y-81241730D01*
X89815949Y-81241813D01*
X91099735Y-82525599D01*
X90685743Y-82525238D01*
X90172101Y-82737470D01*
X89778775Y-83130110D01*
X89692455Y-83337992D01*
X89607414Y-83132177D01*
X89214774Y-82738851D01*
X88701504Y-82525723D01*
X88145743Y-82525238D01*
X87632101Y-82737470D01*
X87238775Y-83130110D01*
X87152455Y-83337992D01*
X87067414Y-83132177D01*
X86674774Y-82738851D01*
X86161504Y-82525723D01*
X85605743Y-82525238D01*
X85092101Y-82737470D01*
X84698775Y-83130110D01*
X84612455Y-83337992D01*
X84527414Y-83132177D01*
X84134774Y-82738851D01*
X83621504Y-82525723D01*
X83065743Y-82525238D01*
X82939287Y-82577489D01*
X82939646Y-82165819D01*
X82727414Y-81652177D01*
X82334774Y-81258851D01*
X81821504Y-81045723D01*
X81265743Y-81045238D01*
X80752101Y-81257470D01*
X80358775Y-81650110D01*
X80145647Y-82163380D01*
X80145162Y-82719141D01*
X74370000Y-82719141D01*
X74370000Y-81349931D01*
X74618824Y-80099005D01*
X75287804Y-79097804D01*
X76289005Y-78428825D01*
X77539931Y-78180000D01*
X205670069Y-78180000D01*
X206920995Y-78428824D01*
G36*
X140671155Y-119619858D02*
X140657013Y-119634000D01*
X141298816Y-120275803D01*
X141474329Y-120209725D01*
X141562990Y-120424303D01*
X141955630Y-120817629D01*
X142468900Y-121030757D01*
X143024661Y-121031242D01*
X143538303Y-120819010D01*
X143931629Y-120426370D01*
X144017949Y-120218488D01*
X144102990Y-120424303D01*
X144495630Y-120817629D01*
X145008900Y-121030757D01*
X145564661Y-121031242D01*
X146078303Y-120819010D01*
X146471629Y-120426370D01*
X146557949Y-120218488D01*
X146642990Y-120424303D01*
X147035630Y-120817629D01*
X147548900Y-121030757D01*
X148104661Y-121031242D01*
X148618303Y-120819010D01*
X149011629Y-120426370D01*
X149045334Y-120345200D01*
X154142439Y-120345200D01*
X154368853Y-120684054D01*
X154698026Y-120904000D01*
X154368853Y-121123946D01*
X154046946Y-121605715D01*
X153933907Y-122174000D01*
X154046946Y-122742285D01*
X154368853Y-123224054D01*
X154698026Y-123444000D01*
X154368853Y-123663946D01*
X154046946Y-124145715D01*
X153933907Y-124714000D01*
X154046946Y-125282285D01*
X154368853Y-125764054D01*
X154698026Y-125984000D01*
X154368853Y-126203946D01*
X154142439Y-126542800D01*
X145751771Y-126542800D01*
X145484778Y-126275341D01*
X145125489Y-126126151D01*
X144736456Y-126125812D01*
X144376907Y-126274374D01*
X144101579Y-126549222D01*
X144090850Y-126575061D01*
X138645925Y-121130136D01*
X138646069Y-120964337D01*
X138548725Y-120728746D01*
X138552661Y-120724816D01*
X139566197Y-120724816D01*
X139648704Y-120943968D01*
X140192581Y-121058286D01*
X140738805Y-120955769D01*
X140767296Y-120943968D01*
X140849803Y-120724816D01*
X140208000Y-120083013D01*
X139566197Y-120724816D01*
X138552661Y-120724816D01*
X138851629Y-120426370D01*
X138941599Y-120209698D01*
X139117184Y-120275803D01*
X139758987Y-119634000D01*
X139744845Y-119619858D01*
X140193858Y-119170845D01*
X140208000Y-119184987D01*
X140222142Y-119170845D01*
X140671155Y-119619858D01*
X140671155Y-119619858D01*
G37*
X140671155Y-119619858D02*
X140657013Y-119634000D01*
X141298816Y-120275803D01*
X141474329Y-120209725D01*
X141562990Y-120424303D01*
X141955630Y-120817629D01*
X142468900Y-121030757D01*
X143024661Y-121031242D01*
X143538303Y-120819010D01*
X143931629Y-120426370D01*
X144017949Y-120218488D01*
X144102990Y-120424303D01*
X144495630Y-120817629D01*
X145008900Y-121030757D01*
X145564661Y-121031242D01*
X146078303Y-120819010D01*
X146471629Y-120426370D01*
X146557949Y-120218488D01*
X146642990Y-120424303D01*
X147035630Y-120817629D01*
X147548900Y-121030757D01*
X148104661Y-121031242D01*
X148618303Y-120819010D01*
X149011629Y-120426370D01*
X149045334Y-120345200D01*
X154142439Y-120345200D01*
X154368853Y-120684054D01*
X154698026Y-120904000D01*
X154368853Y-121123946D01*
X154046946Y-121605715D01*
X153933907Y-122174000D01*
X154046946Y-122742285D01*
X154368853Y-123224054D01*
X154698026Y-123444000D01*
X154368853Y-123663946D01*
X154046946Y-124145715D01*
X153933907Y-124714000D01*
X154046946Y-125282285D01*
X154368853Y-125764054D01*
X154698026Y-125984000D01*
X154368853Y-126203946D01*
X154142439Y-126542800D01*
X145751771Y-126542800D01*
X145484778Y-126275341D01*
X145125489Y-126126151D01*
X144736456Y-126125812D01*
X144376907Y-126274374D01*
X144101579Y-126549222D01*
X144090850Y-126575061D01*
X138645925Y-121130136D01*
X138646069Y-120964337D01*
X138548725Y-120728746D01*
X138552661Y-120724816D01*
X139566197Y-120724816D01*
X139648704Y-120943968D01*
X140192581Y-121058286D01*
X140738805Y-120955769D01*
X140767296Y-120943968D01*
X140849803Y-120724816D01*
X140208000Y-120083013D01*
X139566197Y-120724816D01*
X138552661Y-120724816D01*
X138851629Y-120426370D01*
X138941599Y-120209698D01*
X139117184Y-120275803D01*
X139758987Y-119634000D01*
X139744845Y-119619858D01*
X140193858Y-119170845D01*
X140208000Y-119184987D01*
X140222142Y-119170845D01*
X140671155Y-119619858D01*
M02*
