G04 #@! TF.FileFunction,Soldermask,Bot*
%FSLAX46Y46*%
G04 Gerber Fmt 4.6, Leading zero omitted, Abs format (unit mm)*
G04 Created by KiCad (PCBNEW 4.0.6) date 05/17/17 18:18:02*
%MOMM*%
%LPD*%
G01*
G04 APERTURE LIST*
%ADD10C,0.100000*%
%ADD11C,2.000000*%
%ADD12O,2.000000X2.000000*%
%ADD13R,2.100000X2.100000*%
%ADD14O,2.100000X2.100000*%
%ADD15C,1.924000*%
%ADD16C,1.900000*%
%ADD17C,9.000000*%
%ADD18R,2.000000X2.800000*%
%ADD19O,2.000000X2.800000*%
%ADD20O,3.448000X1.924000*%
%ADD21C,2.940000*%
%ADD22C,2.400000*%
G04 APERTURE END LIST*
D10*
D11*
X105918000Y-127508000D03*
X100918000Y-127508000D03*
X110871000Y-122555000D03*
D12*
X100711000Y-122555000D03*
D11*
X169926000Y-142748000D03*
D12*
X169926000Y-132588000D03*
D11*
X112268000Y-118999000D03*
D12*
X102108000Y-118999000D03*
D13*
X201930000Y-130810000D03*
D14*
X201930000Y-133350000D03*
X201930000Y-135890000D03*
X201930000Y-138430000D03*
X201930000Y-140970000D03*
X201930000Y-143510000D03*
D13*
X112141000Y-129413000D03*
D14*
X114681000Y-129413000D03*
X117221000Y-129413000D03*
X119761000Y-129413000D03*
X122301000Y-129413000D03*
X124841000Y-129413000D03*
D15*
X147828000Y-118872000D03*
X145288000Y-118872000D03*
X142748000Y-118872000D03*
X140208000Y-118872000D03*
X137668000Y-118872000D03*
X135128000Y-118872000D03*
X132588000Y-118872000D03*
X130048000Y-118872000D03*
X182087596Y-112419520D03*
X181102000Y-109728000D03*
X179547596Y-112419520D03*
X178277596Y-109879520D03*
X177007596Y-112419520D03*
X175737596Y-109879520D03*
X174467596Y-112419520D03*
X173197596Y-109879520D03*
X171927596Y-112419520D03*
X170657596Y-109879520D03*
X169387596Y-112419520D03*
X168117596Y-109879520D03*
X166317596Y-113899520D03*
X183887596Y-113899520D03*
X98298000Y-112268000D03*
X97312404Y-109576480D03*
X95758000Y-112268000D03*
X94488000Y-109728000D03*
X93218000Y-112268000D03*
X91948000Y-109728000D03*
X90678000Y-112268000D03*
X89408000Y-109728000D03*
X88138000Y-112268000D03*
X86868000Y-109728000D03*
X85598000Y-112268000D03*
X84328000Y-109728000D03*
X82528000Y-113748000D03*
X100098000Y-113748000D03*
X169448404Y-83922480D03*
X170434000Y-86614000D03*
X171988404Y-83922480D03*
X173258404Y-86462480D03*
X174528404Y-83922480D03*
X175798404Y-86462480D03*
X177068404Y-83922480D03*
X178338404Y-86462480D03*
X179608404Y-83922480D03*
X180878404Y-86462480D03*
X182148404Y-83922480D03*
X183418404Y-86462480D03*
X185218404Y-82442480D03*
X167648404Y-82442480D03*
D13*
X163322000Y-135128000D03*
D14*
X163322000Y-137668000D03*
X163322000Y-140208000D03*
X163322000Y-142748000D03*
X163322000Y-145288000D03*
D16*
X93726000Y-132842000D03*
X88846000Y-132842000D03*
D11*
X93980000Y-122428000D03*
X93980000Y-127428000D03*
X88900000Y-122428000D03*
X88900000Y-127428000D03*
D17*
X107950000Y-86360000D03*
X78740000Y-153670000D03*
X203200000Y-152400000D03*
X203200000Y-86360000D03*
D15*
X83342404Y-83922480D03*
X84328000Y-86614000D03*
X85882404Y-83922480D03*
X87152404Y-86462480D03*
X88422404Y-83922480D03*
X89692404Y-86462480D03*
X90962404Y-83922480D03*
X92232404Y-86462480D03*
X93502404Y-83922480D03*
X94772404Y-86462480D03*
X96042404Y-83922480D03*
X97312404Y-86462480D03*
X99112404Y-82442480D03*
X81542404Y-82442480D03*
X140177596Y-112419520D03*
X139192000Y-109728000D03*
X137637596Y-112419520D03*
X136367596Y-109879520D03*
X135097596Y-112419520D03*
X133827596Y-109879520D03*
X132557596Y-112419520D03*
X131287596Y-109879520D03*
X130017596Y-112419520D03*
X128747596Y-109879520D03*
X127477596Y-112419520D03*
X126207596Y-109879520D03*
X124407596Y-113899520D03*
X141977596Y-113899520D03*
X125760404Y-83922480D03*
X126746000Y-86614000D03*
X128300404Y-83922480D03*
X129570404Y-86462480D03*
X130840404Y-83922480D03*
X132110404Y-86462480D03*
X133380404Y-83922480D03*
X134650404Y-86462480D03*
X135920404Y-83922480D03*
X137190404Y-86462480D03*
X138460404Y-83922480D03*
X139730404Y-86462480D03*
X141530404Y-82442480D03*
X123960404Y-82442480D03*
D13*
X203073000Y-109474000D03*
D14*
X205613000Y-109474000D03*
D13*
X156972000Y-147193000D03*
D14*
X156972000Y-144653000D03*
X156972000Y-142113000D03*
X156972000Y-139573000D03*
X156972000Y-137033000D03*
X156972000Y-134493000D03*
X156972000Y-131953000D03*
X156972000Y-129413000D03*
X156972000Y-126873000D03*
X156972000Y-124333000D03*
X156972000Y-121793000D03*
X156972000Y-119253000D03*
D18*
X84328000Y-101854000D03*
D19*
X117348000Y-94234000D03*
X86868000Y-101854000D03*
X114808000Y-94234000D03*
X89408000Y-101854000D03*
X112268000Y-94234000D03*
X91948000Y-101854000D03*
X109728000Y-94234000D03*
X94488000Y-101854000D03*
X107188000Y-94234000D03*
X97028000Y-101854000D03*
X104648000Y-94234000D03*
X99568000Y-101854000D03*
X102108000Y-94234000D03*
X102108000Y-101854000D03*
X99568000Y-94234000D03*
X104648000Y-101854000D03*
X97028000Y-94234000D03*
X107188000Y-101854000D03*
X94488000Y-94234000D03*
X109728000Y-101854000D03*
X91948000Y-94234000D03*
X112268000Y-101854000D03*
X89408000Y-94234000D03*
X114808000Y-101854000D03*
X86868000Y-94234000D03*
X117348000Y-101854000D03*
X84328000Y-94234000D03*
D18*
X126492000Y-101854000D03*
D19*
X159512000Y-94234000D03*
X129032000Y-101854000D03*
X156972000Y-94234000D03*
X131572000Y-101854000D03*
X154432000Y-94234000D03*
X134112000Y-101854000D03*
X151892000Y-94234000D03*
X136652000Y-101854000D03*
X149352000Y-94234000D03*
X139192000Y-101854000D03*
X146812000Y-94234000D03*
X141732000Y-101854000D03*
X144272000Y-94234000D03*
X144272000Y-101854000D03*
X141732000Y-94234000D03*
X146812000Y-101854000D03*
X139192000Y-94234000D03*
X149352000Y-101854000D03*
X136652000Y-94234000D03*
X151892000Y-101854000D03*
X134112000Y-94234000D03*
X154432000Y-101854000D03*
X131572000Y-94234000D03*
X156972000Y-101854000D03*
X129032000Y-94234000D03*
X159512000Y-101854000D03*
X126492000Y-94234000D03*
D18*
X168656000Y-101854000D03*
D19*
X201676000Y-94234000D03*
X171196000Y-101854000D03*
X199136000Y-94234000D03*
X173736000Y-101854000D03*
X196596000Y-94234000D03*
X176276000Y-101854000D03*
X194056000Y-94234000D03*
X178816000Y-101854000D03*
X191516000Y-94234000D03*
X181356000Y-101854000D03*
X188976000Y-94234000D03*
X183896000Y-101854000D03*
X186436000Y-94234000D03*
X186436000Y-101854000D03*
X183896000Y-94234000D03*
X188976000Y-101854000D03*
X181356000Y-94234000D03*
X191516000Y-101854000D03*
X178816000Y-94234000D03*
X194056000Y-101854000D03*
X176276000Y-94234000D03*
X196596000Y-101854000D03*
X173736000Y-94234000D03*
X199136000Y-101854000D03*
X171196000Y-94234000D03*
X201676000Y-101854000D03*
X168656000Y-94234000D03*
D18*
X112776000Y-137668000D03*
D19*
X79756000Y-145288000D03*
X110236000Y-137668000D03*
X82296000Y-145288000D03*
X107696000Y-137668000D03*
X84836000Y-145288000D03*
X105156000Y-137668000D03*
X87376000Y-145288000D03*
X102616000Y-137668000D03*
X89916000Y-145288000D03*
X100076000Y-137668000D03*
X92456000Y-145288000D03*
X97536000Y-137668000D03*
X94996000Y-145288000D03*
X94996000Y-137668000D03*
X97536000Y-145288000D03*
X92456000Y-137668000D03*
X100076000Y-145288000D03*
X89916000Y-137668000D03*
X102616000Y-145288000D03*
X87376000Y-137668000D03*
X105156000Y-145288000D03*
X84836000Y-137668000D03*
X107696000Y-145288000D03*
X82296000Y-137668000D03*
X110236000Y-145288000D03*
X79756000Y-137668000D03*
X112776000Y-145288000D03*
D20*
X194818000Y-140970000D03*
X194818000Y-138430000D03*
X194818000Y-135890000D03*
X194818000Y-133350000D03*
X194818000Y-130810000D03*
X194818000Y-128270000D03*
X194818000Y-125730000D03*
X194818000Y-123190000D03*
D21*
X186055000Y-119888000D03*
X182555000Y-119888000D03*
D11*
X200740000Y-124460000D03*
X205740000Y-124460000D03*
X119427000Y-88900000D03*
X114427000Y-88900000D03*
X156845000Y-88773000D03*
X151845000Y-88773000D03*
X194056000Y-85424000D03*
X194056000Y-90424000D03*
X94996000Y-148844000D03*
X99996000Y-148844000D03*
D22*
X105918000Y-132334000D03*
X100918000Y-132334000D03*
D11*
X119380000Y-135128000D03*
D12*
X119380000Y-145288000D03*
D11*
X124460000Y-133176000D03*
X124460000Y-138176000D03*
X203073000Y-113411000D03*
D12*
X192913000Y-113411000D03*
M02*
