G04 #@! TF.FileFunction,Legend,Bot*
%FSLAX46Y46*%
G04 Gerber Fmt 4.6, Leading zero omitted, Abs format (unit mm)*
G04 Created by KiCad (PCBNEW 4.0.6) date 05/17/17 18:18:02*
%MOMM*%
%LPD*%
G01*
G04 APERTURE LIST*
%ADD10C,0.100000*%
%ADD11C,0.010000*%
G04 APERTURE END LIST*
D10*
D11*
G36*
X187352850Y-132165490D02*
X187243990Y-132207587D01*
X187078070Y-132291180D01*
X186839831Y-132422258D01*
X186821280Y-132432676D01*
X186601863Y-132558145D01*
X186416696Y-132668068D01*
X186283966Y-132751359D01*
X186221859Y-132796930D01*
X186220122Y-132799161D01*
X186235124Y-132862428D01*
X186303945Y-133003719D01*
X186422102Y-133215337D01*
X186585107Y-133489583D01*
X186788476Y-133818757D01*
X187027722Y-134195162D01*
X187087266Y-134287472D01*
X187242402Y-134543625D01*
X187355366Y-134764045D01*
X187416244Y-134928802D01*
X187422490Y-134961349D01*
X187419718Y-135104615D01*
X187388660Y-135331863D01*
X187333188Y-135628517D01*
X187257173Y-135980000D01*
X187164486Y-136371734D01*
X187058999Y-136789143D01*
X186944585Y-137217648D01*
X186825113Y-137642674D01*
X186704457Y-138049643D01*
X186586486Y-138423977D01*
X186475074Y-138751100D01*
X186374090Y-139016434D01*
X186303695Y-139173857D01*
X186220772Y-139341551D01*
X186142475Y-139502014D01*
X186138236Y-139510796D01*
X186008702Y-139672879D01*
X185819649Y-139782017D01*
X185599570Y-139834318D01*
X185376960Y-139825892D01*
X185180313Y-139752850D01*
X185069686Y-139656687D01*
X184910370Y-139392951D01*
X184793627Y-139064265D01*
X184729575Y-138704139D01*
X184720501Y-138499980D01*
X184757045Y-138118946D01*
X184864301Y-137803413D01*
X185048040Y-137538067D01*
X185105337Y-137479005D01*
X185275849Y-137313337D01*
X185287558Y-136142333D01*
X185299267Y-134971330D01*
X185000875Y-134519634D01*
X184860852Y-134315184D01*
X184726001Y-134131264D01*
X184615559Y-133993514D01*
X184568087Y-133942826D01*
X184433691Y-133817712D01*
X184251672Y-133915736D01*
X184136625Y-133985974D01*
X184073677Y-134040509D01*
X184069653Y-134050315D01*
X184026630Y-134091886D01*
X183953020Y-134122841D01*
X183881887Y-134150741D01*
X183772964Y-134203745D01*
X183616901Y-134287029D01*
X183404347Y-134405765D01*
X183125952Y-134565127D01*
X182772366Y-134770289D01*
X182580220Y-134882446D01*
X182354196Y-135016790D01*
X182205956Y-135112472D01*
X182122382Y-135180681D01*
X182090359Y-135232607D01*
X182096769Y-135279440D01*
X182102114Y-135290320D01*
X182154108Y-135358831D01*
X182265362Y-135487348D01*
X182422914Y-135661495D01*
X182613804Y-135866895D01*
X182778901Y-136041016D01*
X183159349Y-136454286D01*
X183456974Y-136812490D01*
X183674430Y-137119232D01*
X183814374Y-137378111D01*
X183861579Y-137509572D01*
X183881078Y-137624650D01*
X183901216Y-137820949D01*
X183920223Y-138076044D01*
X183936328Y-138367512D01*
X183943907Y-138551817D01*
X183954484Y-138870432D01*
X183959137Y-139103371D01*
X183956496Y-139268534D01*
X183945194Y-139383818D01*
X183923863Y-139467121D01*
X183891135Y-139536341D01*
X183865428Y-139578606D01*
X183716978Y-139741514D01*
X183525691Y-139855038D01*
X183324426Y-139904547D01*
X183173598Y-139886634D01*
X183037031Y-139809135D01*
X182865843Y-139670342D01*
X182684043Y-139494463D01*
X182515643Y-139305707D01*
X182384652Y-139128282D01*
X182336422Y-139042547D01*
X182264173Y-138925153D01*
X182132767Y-138746342D01*
X181954210Y-138520090D01*
X181740509Y-138260372D01*
X181503670Y-137981162D01*
X181255698Y-137696438D01*
X181008601Y-137420174D01*
X180774383Y-137166345D01*
X180565052Y-136948928D01*
X180400701Y-136789322D01*
X180218230Y-136629885D01*
X180064727Y-136512326D01*
X179957062Y-136448871D01*
X179921322Y-136441894D01*
X179866552Y-136470040D01*
X179729938Y-136545586D01*
X179519365Y-136663995D01*
X179242714Y-136820733D01*
X178907869Y-137011263D01*
X178522714Y-137231050D01*
X178095131Y-137475557D01*
X177633005Y-137740250D01*
X177144218Y-138020591D01*
X176636653Y-138312046D01*
X176118194Y-138610079D01*
X175596724Y-138910153D01*
X175080126Y-139207733D01*
X174576284Y-139498284D01*
X174093080Y-139777269D01*
X173638398Y-140040153D01*
X173220122Y-140282400D01*
X172846134Y-140499473D01*
X172524318Y-140686838D01*
X172262557Y-140839959D01*
X172068734Y-140954299D01*
X171950732Y-141025324D01*
X171916530Y-141047613D01*
X171962595Y-141052018D01*
X172107508Y-141056300D01*
X172346446Y-141060439D01*
X172674583Y-141064413D01*
X173087096Y-141068203D01*
X173579160Y-141071787D01*
X174145951Y-141075145D01*
X174782643Y-141078256D01*
X175484413Y-141081099D01*
X176246436Y-141083655D01*
X177063888Y-141085901D01*
X177931943Y-141087818D01*
X178845778Y-141089385D01*
X179800568Y-141090582D01*
X180791489Y-141091387D01*
X181813716Y-141091779D01*
X182242642Y-141091817D01*
X192617999Y-141091817D01*
X191878046Y-139808857D01*
X191721401Y-139537195D01*
X191519761Y-139187393D01*
X191279865Y-138771151D01*
X191008458Y-138300172D01*
X190712280Y-137786154D01*
X190398073Y-137240800D01*
X190072580Y-136675810D01*
X189742542Y-136102885D01*
X189414702Y-135533725D01*
X189331791Y-135389776D01*
X189029471Y-134865462D01*
X188741175Y-134366586D01*
X188471235Y-133900575D01*
X188223983Y-133474855D01*
X188003752Y-133096854D01*
X187814874Y-132773997D01*
X187661682Y-132513711D01*
X187548507Y-132323424D01*
X187479683Y-132210562D01*
X187460424Y-132181828D01*
X187419908Y-132158900D01*
X187352850Y-132165490D01*
X187352850Y-132165490D01*
G37*
X187352850Y-132165490D02*
X187243990Y-132207587D01*
X187078070Y-132291180D01*
X186839831Y-132422258D01*
X186821280Y-132432676D01*
X186601863Y-132558145D01*
X186416696Y-132668068D01*
X186283966Y-132751359D01*
X186221859Y-132796930D01*
X186220122Y-132799161D01*
X186235124Y-132862428D01*
X186303945Y-133003719D01*
X186422102Y-133215337D01*
X186585107Y-133489583D01*
X186788476Y-133818757D01*
X187027722Y-134195162D01*
X187087266Y-134287472D01*
X187242402Y-134543625D01*
X187355366Y-134764045D01*
X187416244Y-134928802D01*
X187422490Y-134961349D01*
X187419718Y-135104615D01*
X187388660Y-135331863D01*
X187333188Y-135628517D01*
X187257173Y-135980000D01*
X187164486Y-136371734D01*
X187058999Y-136789143D01*
X186944585Y-137217648D01*
X186825113Y-137642674D01*
X186704457Y-138049643D01*
X186586486Y-138423977D01*
X186475074Y-138751100D01*
X186374090Y-139016434D01*
X186303695Y-139173857D01*
X186220772Y-139341551D01*
X186142475Y-139502014D01*
X186138236Y-139510796D01*
X186008702Y-139672879D01*
X185819649Y-139782017D01*
X185599570Y-139834318D01*
X185376960Y-139825892D01*
X185180313Y-139752850D01*
X185069686Y-139656687D01*
X184910370Y-139392951D01*
X184793627Y-139064265D01*
X184729575Y-138704139D01*
X184720501Y-138499980D01*
X184757045Y-138118946D01*
X184864301Y-137803413D01*
X185048040Y-137538067D01*
X185105337Y-137479005D01*
X185275849Y-137313337D01*
X185287558Y-136142333D01*
X185299267Y-134971330D01*
X185000875Y-134519634D01*
X184860852Y-134315184D01*
X184726001Y-134131264D01*
X184615559Y-133993514D01*
X184568087Y-133942826D01*
X184433691Y-133817712D01*
X184251672Y-133915736D01*
X184136625Y-133985974D01*
X184073677Y-134040509D01*
X184069653Y-134050315D01*
X184026630Y-134091886D01*
X183953020Y-134122841D01*
X183881887Y-134150741D01*
X183772964Y-134203745D01*
X183616901Y-134287029D01*
X183404347Y-134405765D01*
X183125952Y-134565127D01*
X182772366Y-134770289D01*
X182580220Y-134882446D01*
X182354196Y-135016790D01*
X182205956Y-135112472D01*
X182122382Y-135180681D01*
X182090359Y-135232607D01*
X182096769Y-135279440D01*
X182102114Y-135290320D01*
X182154108Y-135358831D01*
X182265362Y-135487348D01*
X182422914Y-135661495D01*
X182613804Y-135866895D01*
X182778901Y-136041016D01*
X183159349Y-136454286D01*
X183456974Y-136812490D01*
X183674430Y-137119232D01*
X183814374Y-137378111D01*
X183861579Y-137509572D01*
X183881078Y-137624650D01*
X183901216Y-137820949D01*
X183920223Y-138076044D01*
X183936328Y-138367512D01*
X183943907Y-138551817D01*
X183954484Y-138870432D01*
X183959137Y-139103371D01*
X183956496Y-139268534D01*
X183945194Y-139383818D01*
X183923863Y-139467121D01*
X183891135Y-139536341D01*
X183865428Y-139578606D01*
X183716978Y-139741514D01*
X183525691Y-139855038D01*
X183324426Y-139904547D01*
X183173598Y-139886634D01*
X183037031Y-139809135D01*
X182865843Y-139670342D01*
X182684043Y-139494463D01*
X182515643Y-139305707D01*
X182384652Y-139128282D01*
X182336422Y-139042547D01*
X182264173Y-138925153D01*
X182132767Y-138746342D01*
X181954210Y-138520090D01*
X181740509Y-138260372D01*
X181503670Y-137981162D01*
X181255698Y-137696438D01*
X181008601Y-137420174D01*
X180774383Y-137166345D01*
X180565052Y-136948928D01*
X180400701Y-136789322D01*
X180218230Y-136629885D01*
X180064727Y-136512326D01*
X179957062Y-136448871D01*
X179921322Y-136441894D01*
X179866552Y-136470040D01*
X179729938Y-136545586D01*
X179519365Y-136663995D01*
X179242714Y-136820733D01*
X178907869Y-137011263D01*
X178522714Y-137231050D01*
X178095131Y-137475557D01*
X177633005Y-137740250D01*
X177144218Y-138020591D01*
X176636653Y-138312046D01*
X176118194Y-138610079D01*
X175596724Y-138910153D01*
X175080126Y-139207733D01*
X174576284Y-139498284D01*
X174093080Y-139777269D01*
X173638398Y-140040153D01*
X173220122Y-140282400D01*
X172846134Y-140499473D01*
X172524318Y-140686838D01*
X172262557Y-140839959D01*
X172068734Y-140954299D01*
X171950732Y-141025324D01*
X171916530Y-141047613D01*
X171962595Y-141052018D01*
X172107508Y-141056300D01*
X172346446Y-141060439D01*
X172674583Y-141064413D01*
X173087096Y-141068203D01*
X173579160Y-141071787D01*
X174145951Y-141075145D01*
X174782643Y-141078256D01*
X175484413Y-141081099D01*
X176246436Y-141083655D01*
X177063888Y-141085901D01*
X177931943Y-141087818D01*
X178845778Y-141089385D01*
X179800568Y-141090582D01*
X180791489Y-141091387D01*
X181813716Y-141091779D01*
X182242642Y-141091817D01*
X192617999Y-141091817D01*
X191878046Y-139808857D01*
X191721401Y-139537195D01*
X191519761Y-139187393D01*
X191279865Y-138771151D01*
X191008458Y-138300172D01*
X190712280Y-137786154D01*
X190398073Y-137240800D01*
X190072580Y-136675810D01*
X189742542Y-136102885D01*
X189414702Y-135533725D01*
X189331791Y-135389776D01*
X189029471Y-134865462D01*
X188741175Y-134366586D01*
X188471235Y-133900575D01*
X188223983Y-133474855D01*
X188003752Y-133096854D01*
X187814874Y-132773997D01*
X187661682Y-132513711D01*
X187548507Y-132323424D01*
X187479683Y-132210562D01*
X187460424Y-132181828D01*
X187419908Y-132158900D01*
X187352850Y-132165490D01*
G36*
X175084865Y-131976256D02*
X175046777Y-132040095D01*
X174961163Y-132186451D01*
X174832259Y-132408011D01*
X174664296Y-132697464D01*
X174461509Y-133047497D01*
X174228132Y-133450797D01*
X173968398Y-133900053D01*
X173686540Y-134387953D01*
X173386793Y-134907183D01*
X173078478Y-135441613D01*
X172763602Y-135987556D01*
X172461288Y-136511658D01*
X172175916Y-137006326D01*
X171911869Y-137463966D01*
X171673528Y-137876986D01*
X171465276Y-138237793D01*
X171291494Y-138538795D01*
X171156565Y-138772398D01*
X171064869Y-138931010D01*
X171021753Y-139005388D01*
X170951466Y-139131045D01*
X170913250Y-139209701D01*
X170911156Y-139223387D01*
X170957728Y-139197688D01*
X171087240Y-139123927D01*
X171292921Y-139006006D01*
X171568003Y-138847828D01*
X171905715Y-138653297D01*
X172299287Y-138426316D01*
X172741949Y-138170787D01*
X173226932Y-137890614D01*
X173747466Y-137589699D01*
X174296781Y-137271945D01*
X174505775Y-137151001D01*
X175064920Y-136827524D01*
X175598467Y-136519121D01*
X176099568Y-136229733D01*
X176561373Y-135963304D01*
X176977034Y-135723777D01*
X177339702Y-135515093D01*
X177642528Y-135341198D01*
X177878663Y-135206033D01*
X178041259Y-135113541D01*
X178123466Y-135067665D01*
X178132061Y-135063321D01*
X178107013Y-135023983D01*
X178019844Y-134918805D01*
X177879456Y-134757477D01*
X177694747Y-134549687D01*
X177474616Y-134305124D01*
X177227963Y-134033476D01*
X176963688Y-133744434D01*
X176690688Y-133447684D01*
X176417864Y-133152917D01*
X176154115Y-132869821D01*
X175908340Y-132608085D01*
X175689439Y-132377398D01*
X175506311Y-132187448D01*
X175367854Y-132047925D01*
X175320369Y-132002174D01*
X175163010Y-131854368D01*
X175084865Y-131976256D01*
X175084865Y-131976256D01*
G37*
X175084865Y-131976256D02*
X175046777Y-132040095D01*
X174961163Y-132186451D01*
X174832259Y-132408011D01*
X174664296Y-132697464D01*
X174461509Y-133047497D01*
X174228132Y-133450797D01*
X173968398Y-133900053D01*
X173686540Y-134387953D01*
X173386793Y-134907183D01*
X173078478Y-135441613D01*
X172763602Y-135987556D01*
X172461288Y-136511658D01*
X172175916Y-137006326D01*
X171911869Y-137463966D01*
X171673528Y-137876986D01*
X171465276Y-138237793D01*
X171291494Y-138538795D01*
X171156565Y-138772398D01*
X171064869Y-138931010D01*
X171021753Y-139005388D01*
X170951466Y-139131045D01*
X170913250Y-139209701D01*
X170911156Y-139223387D01*
X170957728Y-139197688D01*
X171087240Y-139123927D01*
X171292921Y-139006006D01*
X171568003Y-138847828D01*
X171905715Y-138653297D01*
X172299287Y-138426316D01*
X172741949Y-138170787D01*
X173226932Y-137890614D01*
X173747466Y-137589699D01*
X174296781Y-137271945D01*
X174505775Y-137151001D01*
X175064920Y-136827524D01*
X175598467Y-136519121D01*
X176099568Y-136229733D01*
X176561373Y-135963304D01*
X176977034Y-135723777D01*
X177339702Y-135515093D01*
X177642528Y-135341198D01*
X177878663Y-135206033D01*
X178041259Y-135113541D01*
X178123466Y-135067665D01*
X178132061Y-135063321D01*
X178107013Y-135023983D01*
X178019844Y-134918805D01*
X177879456Y-134757477D01*
X177694747Y-134549687D01*
X177474616Y-134305124D01*
X177227963Y-134033476D01*
X176963688Y-133744434D01*
X176690688Y-133447684D01*
X176417864Y-133152917D01*
X176154115Y-132869821D01*
X175908340Y-132608085D01*
X175689439Y-132377398D01*
X175506311Y-132187448D01*
X175367854Y-132047925D01*
X175320369Y-132002174D01*
X175163010Y-131854368D01*
X175084865Y-131976256D01*
G36*
X181187959Y-121437470D02*
X181110906Y-121562679D01*
X180992193Y-121761047D01*
X180836688Y-122024132D01*
X180649258Y-122343495D01*
X180434769Y-122710696D01*
X180198091Y-123117296D01*
X179944089Y-123554853D01*
X179677632Y-124014929D01*
X179403587Y-124489084D01*
X179126822Y-124968877D01*
X178852203Y-125445869D01*
X178584598Y-125911620D01*
X178328876Y-126357689D01*
X178089902Y-126775638D01*
X177872545Y-127157026D01*
X177681672Y-127493413D01*
X177522151Y-127776360D01*
X177398848Y-127997426D01*
X177316632Y-128148171D01*
X177280369Y-128220157D01*
X177279041Y-128224656D01*
X177324058Y-128285740D01*
X177449191Y-128379176D01*
X177639559Y-128495794D01*
X177880284Y-128626423D01*
X178132298Y-128750558D01*
X178475208Y-128901083D01*
X178835818Y-129036330D01*
X179226551Y-129159304D01*
X179659829Y-129273010D01*
X180148076Y-129380454D01*
X180703713Y-129484641D01*
X181339164Y-129588576D01*
X181996493Y-129685363D01*
X182567596Y-129771229D01*
X183047176Y-129856235D01*
X183447259Y-129944606D01*
X183779872Y-130040566D01*
X184057039Y-130148339D01*
X184290788Y-130272150D01*
X184493143Y-130416224D01*
X184676132Y-130584785D01*
X184735140Y-130647403D01*
X184863040Y-130793181D01*
X184957654Y-130912140D01*
X185001545Y-130982096D01*
X185002714Y-130987831D01*
X185018071Y-131023004D01*
X185071362Y-131023401D01*
X185173417Y-130984341D01*
X185335068Y-130901143D01*
X185567145Y-130769126D01*
X185728428Y-130674191D01*
X185968926Y-130525786D01*
X186155824Y-130398711D01*
X186276562Y-130302106D01*
X186318580Y-130245115D01*
X186318555Y-130244701D01*
X186292499Y-130190391D01*
X186218913Y-130054380D01*
X186102068Y-129844081D01*
X185946236Y-129566907D01*
X185755687Y-129230270D01*
X185534694Y-128841583D01*
X185287528Y-128408260D01*
X185018459Y-127937711D01*
X184731760Y-127437350D01*
X184431701Y-126914590D01*
X184122555Y-126376844D01*
X183808591Y-125831523D01*
X183494083Y-125286040D01*
X183183300Y-124747809D01*
X182880515Y-124224242D01*
X182589998Y-123722751D01*
X182316021Y-123250750D01*
X182062856Y-122815650D01*
X181834774Y-122424864D01*
X181636046Y-122085806D01*
X181470943Y-121805887D01*
X181343737Y-121592521D01*
X181258699Y-121453120D01*
X181220100Y-121395096D01*
X181218484Y-121393857D01*
X181187959Y-121437470D01*
X181187959Y-121437470D01*
G37*
X181187959Y-121437470D02*
X181110906Y-121562679D01*
X180992193Y-121761047D01*
X180836688Y-122024132D01*
X180649258Y-122343495D01*
X180434769Y-122710696D01*
X180198091Y-123117296D01*
X179944089Y-123554853D01*
X179677632Y-124014929D01*
X179403587Y-124489084D01*
X179126822Y-124968877D01*
X178852203Y-125445869D01*
X178584598Y-125911620D01*
X178328876Y-126357689D01*
X178089902Y-126775638D01*
X177872545Y-127157026D01*
X177681672Y-127493413D01*
X177522151Y-127776360D01*
X177398848Y-127997426D01*
X177316632Y-128148171D01*
X177280369Y-128220157D01*
X177279041Y-128224656D01*
X177324058Y-128285740D01*
X177449191Y-128379176D01*
X177639559Y-128495794D01*
X177880284Y-128626423D01*
X178132298Y-128750558D01*
X178475208Y-128901083D01*
X178835818Y-129036330D01*
X179226551Y-129159304D01*
X179659829Y-129273010D01*
X180148076Y-129380454D01*
X180703713Y-129484641D01*
X181339164Y-129588576D01*
X181996493Y-129685363D01*
X182567596Y-129771229D01*
X183047176Y-129856235D01*
X183447259Y-129944606D01*
X183779872Y-130040566D01*
X184057039Y-130148339D01*
X184290788Y-130272150D01*
X184493143Y-130416224D01*
X184676132Y-130584785D01*
X184735140Y-130647403D01*
X184863040Y-130793181D01*
X184957654Y-130912140D01*
X185001545Y-130982096D01*
X185002714Y-130987831D01*
X185018071Y-131023004D01*
X185071362Y-131023401D01*
X185173417Y-130984341D01*
X185335068Y-130901143D01*
X185567145Y-130769126D01*
X185728428Y-130674191D01*
X185968926Y-130525786D01*
X186155824Y-130398711D01*
X186276562Y-130302106D01*
X186318580Y-130245115D01*
X186318555Y-130244701D01*
X186292499Y-130190391D01*
X186218913Y-130054380D01*
X186102068Y-129844081D01*
X185946236Y-129566907D01*
X185755687Y-129230270D01*
X185534694Y-128841583D01*
X185287528Y-128408260D01*
X185018459Y-127937711D01*
X184731760Y-127437350D01*
X184431701Y-126914590D01*
X184122555Y-126376844D01*
X183808591Y-125831523D01*
X183494083Y-125286040D01*
X183183300Y-124747809D01*
X182880515Y-124224242D01*
X182589998Y-123722751D01*
X182316021Y-123250750D01*
X182062856Y-122815650D01*
X181834774Y-122424864D01*
X181636046Y-122085806D01*
X181470943Y-121805887D01*
X181343737Y-121592521D01*
X181258699Y-121453120D01*
X181220100Y-121395096D01*
X181218484Y-121393857D01*
X181187959Y-121437470D01*
M02*
