M48
;DRILL file {KiCad 4.0.6} date 05/17/17 18:18:06
;FORMAT={-:-/ absolute / inch / decimal}
FMAT,2
INCH,TZ
T1C0.013
T2C0.030
T3C0.031
T4C0.039
T5C0.169
%
G90
G05
M72
T1
X3.02Y-4.81
X3.07Y-4.64
X3.22Y-4.62
X3.34Y-4.58
X3.53Y-3.15
X3.59Y-3.11
X4.31Y-4.38
X4.3815Y-4.7557
X4.87Y-4.62
X5.Y-4.58
X5.2Y-3.15
X5.26Y-3.11
X5.49Y-5.64
X5.52Y-5.4315
X5.62Y-5.66
X5.62Y-5.29
X5.6828Y-5.5769
X5.72Y-5.12
X5.78Y-5.53
X5.79Y-6.03
X5.83Y-4.92
X6.08Y-3.89
X6.52Y-4.62
X6.62Y-4.58
X7.6Y-3.93
T2
X5.12Y-4.68
X5.22Y-4.68
X5.32Y-4.68
X5.42Y-4.68
X5.52Y-4.68
X5.62Y-4.68
X5.72Y-4.68
X5.82Y-4.68
X7.1872Y-4.72
X7.325Y-4.72
X7.67Y-4.85
X7.67Y-4.95
X7.67Y-5.05
X7.67Y-5.15
X7.67Y-5.25
X7.67Y-5.35
X7.67Y-5.45
X7.67Y-5.55
T3
X3.14Y-5.42
X3.14Y-5.72
X3.24Y-5.42
X3.24Y-5.72
X3.2812Y-3.304
X3.32Y-3.41
X3.32Y-3.71
X3.32Y-4.01
X3.32Y-4.32
X3.34Y-5.42
X3.34Y-5.72
X3.37Y-4.42
X3.3812Y-3.304
X3.42Y-3.71
X3.42Y-4.01
X3.42Y-4.32
X3.4312Y-3.404
X3.44Y-5.42
X3.44Y-5.72
X3.47Y-4.42
X3.4812Y-3.304
X3.4979Y-5.23
X3.5Y-4.82
X3.5Y-5.0169
X3.52Y-3.71
X3.52Y-4.01
X3.52Y-4.32
X3.5312Y-3.404
X3.54Y-5.42
X3.54Y-5.72
X3.57Y-4.42
X3.5812Y-3.304
X3.62Y-3.71
X3.62Y-4.01
X3.62Y-4.32
X3.6312Y-3.404
X3.64Y-5.42
X3.64Y-5.72
X3.67Y-4.42
X3.6812Y-3.304
X3.69Y-5.23
X3.7Y-4.82
X3.7Y-5.0169
X3.72Y-3.71
X3.72Y-4.01
X3.72Y-4.32
X3.7312Y-3.404
X3.74Y-5.42
X3.74Y-5.72
X3.74Y-5.86
X3.77Y-4.42
X3.7812Y-3.304
X3.82Y-3.71
X3.82Y-4.01
X3.8312Y-3.404
X3.8312Y-4.314
X3.84Y-5.42
X3.84Y-5.72
X3.87Y-4.42
X3.92Y-3.71
X3.92Y-4.01
X3.9369Y-5.86
X3.94Y-5.42
X3.94Y-5.72
X3.965Y-4.825
X3.9731Y-5.02
X4.02Y-3.71
X4.02Y-4.01
X4.02Y-4.685
X4.04Y-5.42
X4.04Y-5.72
X4.12Y-3.71
X4.12Y-4.01
X4.14Y-5.42
X4.14Y-5.72
X4.17Y-5.02
X4.22Y-3.71
X4.22Y-4.01
X4.24Y-5.42
X4.24Y-5.72
X4.32Y-3.71
X4.32Y-4.01
X4.34Y-5.42
X4.34Y-5.72
X4.365Y-4.825
X4.42Y-3.71
X4.42Y-4.01
X4.42Y-4.685
X4.44Y-5.42
X4.44Y-5.72
X4.505Y-3.5
X4.52Y-3.71
X4.52Y-4.01
X4.62Y-3.71
X4.62Y-4.01
X4.7Y-5.32
X4.7Y-5.72
X4.7019Y-3.5
X4.9Y-5.2431
X4.9Y-5.44
X4.9512Y-3.304
X4.9688Y-4.326
X4.98Y-3.71
X4.98Y-4.01
X4.99Y-3.41
X5.0188Y-4.426
X5.0512Y-3.304
X5.0688Y-4.326
X5.08Y-3.71
X5.08Y-4.01
X5.1012Y-3.404
X5.1188Y-4.426
X5.1512Y-3.304
X5.1688Y-4.326
X5.18Y-3.71
X5.18Y-4.01
X5.2012Y-3.404
X5.2188Y-4.426
X5.2512Y-3.304
X5.2688Y-4.326
X5.28Y-3.71
X5.28Y-4.01
X5.3012Y-3.404
X5.3188Y-4.426
X5.3512Y-3.304
X5.3688Y-4.326
X5.38Y-3.71
X5.38Y-4.01
X5.4012Y-3.404
X5.4188Y-4.426
X5.4512Y-3.304
X5.48Y-3.71
X5.48Y-4.01
X5.48Y-4.32
X5.5012Y-3.404
X5.5188Y-4.426
X5.58Y-3.71
X5.58Y-4.01
X5.68Y-3.71
X5.68Y-4.01
X5.78Y-3.71
X5.78Y-4.01
X5.88Y-3.71
X5.88Y-4.01
X5.9781Y-3.495
X5.98Y-3.71
X5.98Y-4.01
X6.08Y-3.71
X6.08Y-4.01
X6.175Y-3.495
X6.18Y-3.71
X6.18Y-4.01
X6.28Y-3.71
X6.28Y-4.01
X6.6188Y-4.326
X6.64Y-3.71
X6.64Y-4.01
X6.6688Y-4.426
X6.6712Y-3.304
X6.69Y-5.22
X6.69Y-5.62
X6.71Y-3.41
X6.7188Y-4.326
X6.74Y-3.71
X6.74Y-4.01
X6.7688Y-4.426
X6.7712Y-3.304
X6.8188Y-4.326
X6.8212Y-3.404
X6.84Y-3.71
X6.84Y-4.01
X6.8688Y-4.426
X6.8712Y-3.304
X6.9188Y-4.326
X6.9212Y-3.404
X6.94Y-3.71
X6.94Y-4.01
X6.9688Y-4.426
X6.9712Y-3.304
X7.0188Y-4.326
X7.0212Y-3.404
X7.04Y-3.71
X7.04Y-4.01
X7.0688Y-4.426
X7.0712Y-3.304
X7.1212Y-3.404
X7.13Y-4.32
X7.14Y-3.71
X7.14Y-4.01
X7.1688Y-4.426
X7.1712Y-3.304
X7.2212Y-3.404
X7.24Y-3.71
X7.24Y-4.01
X7.34Y-3.71
X7.34Y-4.01
X7.44Y-3.71
X7.44Y-4.01
X7.54Y-3.71
X7.54Y-4.01
X7.595Y-4.465
X7.64Y-3.3631
X7.64Y-3.56
X7.64Y-3.71
X7.64Y-4.01
X7.74Y-3.71
X7.74Y-4.01
X7.84Y-3.71
X7.84Y-4.01
X7.9031Y-4.9
X7.94Y-3.71
X7.94Y-4.01
X7.995Y-4.465
X8.1Y-4.9
T4
X3.9731Y-5.21
X4.17Y-5.21
X4.415Y-5.095
X4.515Y-5.095
X4.615Y-5.095
X4.715Y-5.095
X4.815Y-5.095
X4.915Y-5.095
X6.18Y-4.695
X6.18Y-4.795
X6.18Y-4.895
X6.18Y-4.995
X6.18Y-5.095
X6.18Y-5.195
X6.18Y-5.295
X6.18Y-5.395
X6.18Y-5.495
X6.18Y-5.595
X6.18Y-5.695
X6.18Y-5.795
X6.43Y-5.32
X6.43Y-5.42
X6.43Y-5.52
X6.43Y-5.62
X6.43Y-5.72
X7.95Y-5.15
X7.95Y-5.25
X7.95Y-5.35
X7.95Y-5.45
X7.95Y-5.55
X7.95Y-5.65
X7.995Y-4.31
X8.095Y-4.31
T5
X3.1Y-6.05
X4.25Y-3.4
X8.Y-3.4
X8.Y-6.
T0
M30
