G04 #@! TF.FileFunction,Copper,L2,Bot,Signal*
%FSLAX46Y46*%
G04 Gerber Fmt 4.6, Leading zero omitted, Abs format (unit mm)*
G04 Created by KiCad (PCBNEW 4.0.6) date 03/21/17 10:55:45*
%MOMM*%
%LPD*%
G01*
G04 APERTURE LIST*
%ADD10C,0.100000*%
%ADD11C,1.600000*%
%ADD12O,1.600000X1.600000*%
%ADD13R,1.800000X1.800000*%
%ADD14C,1.800000*%
%ADD15C,1.000000*%
%ADD16R,1.000000X1.000000*%
%ADD17R,1.700000X1.700000*%
%ADD18O,1.700000X1.700000*%
%ADD19C,5.400000*%
%ADD20C,0.685800*%
%ADD21C,0.250000*%
%ADD22C,0.152400*%
G04 APERTURE END LIST*
D10*
D11*
X206248000Y-90932000D03*
D12*
X206248000Y-103632000D03*
D13*
X154650002Y-84615999D03*
D14*
X157190002Y-84615999D03*
D13*
X161653126Y-84615999D03*
D14*
X164193126Y-84615999D03*
D13*
X168656250Y-84615999D03*
D14*
X171196250Y-84615999D03*
D13*
X175550498Y-84615999D03*
D14*
X178090498Y-84615999D03*
D13*
X182662498Y-84615999D03*
D14*
X185202498Y-84615999D03*
D13*
X189665622Y-84615999D03*
D14*
X192205622Y-84615999D03*
D13*
X196668746Y-84615999D03*
D14*
X199208746Y-84615999D03*
D13*
X203708000Y-84615999D03*
D14*
X206248000Y-84615999D03*
D13*
X210674994Y-84615999D03*
D14*
X213214994Y-84615999D03*
D13*
X217678118Y-84615999D03*
D14*
X220218118Y-84615999D03*
D13*
X224681242Y-84615999D03*
D14*
X227221242Y-84615999D03*
D13*
X231684366Y-84615999D03*
D14*
X234224366Y-84615999D03*
D13*
X238687490Y-84615999D03*
D14*
X241227490Y-84615999D03*
D13*
X245690614Y-84615999D03*
D14*
X248230614Y-84615999D03*
D13*
X252693738Y-84615999D03*
D14*
X255233738Y-84615999D03*
D13*
X259696862Y-84615999D03*
D14*
X262236862Y-84615999D03*
D13*
X266700000Y-84615999D03*
D14*
X269240000Y-84615999D03*
D15*
X216296143Y-109220000D03*
X215026143Y-107950000D03*
D16*
X217566143Y-107950000D03*
D15*
X222504000Y-109220000D03*
X221234000Y-107950000D03*
D16*
X223774000Y-107950000D03*
D15*
X228711857Y-109220000D03*
X227441857Y-107950000D03*
D16*
X229981857Y-107950000D03*
D11*
X156972000Y-90932000D03*
D12*
X156972000Y-103632000D03*
D11*
X164084000Y-90932000D03*
D12*
X164084000Y-103632000D03*
D11*
X171196000Y-90932000D03*
D12*
X171196000Y-103632000D03*
D11*
X178308000Y-90932000D03*
D12*
X178308000Y-103632000D03*
D11*
X185420000Y-90932000D03*
D12*
X185420000Y-103632000D03*
D11*
X192024000Y-90932000D03*
D12*
X192024000Y-103632000D03*
D11*
X199136000Y-90932000D03*
D12*
X199136000Y-103632000D03*
D11*
X213360000Y-90932000D03*
D12*
X213360000Y-103632000D03*
D11*
X220472000Y-90932000D03*
D12*
X220472000Y-103632000D03*
D11*
X227076000Y-90932000D03*
D12*
X227076000Y-103632000D03*
D11*
X234188000Y-90932000D03*
D12*
X234188000Y-103632000D03*
D11*
X241300000Y-90932000D03*
D12*
X241300000Y-103632000D03*
D11*
X248412000Y-90932000D03*
D12*
X248412000Y-103632000D03*
D11*
X255016000Y-90932000D03*
D12*
X255016000Y-103632000D03*
D11*
X262128000Y-90932000D03*
D12*
X262128000Y-103632000D03*
D11*
X269240000Y-90932000D03*
D12*
X269240000Y-103632000D03*
D17*
X215900000Y-119380000D03*
D18*
X215900000Y-116840000D03*
X218440000Y-119380000D03*
X218440000Y-116840000D03*
X220980000Y-119380000D03*
X220980000Y-116840000D03*
X223520000Y-119380000D03*
X223520000Y-116840000D03*
X226060000Y-119380000D03*
X226060000Y-116840000D03*
X228600000Y-119380000D03*
X228600000Y-116840000D03*
D19*
X294386000Y-78740000D03*
X149860000Y-78740000D03*
X239268000Y-114300000D03*
X204978000Y-114300000D03*
D13*
X273812000Y-84615999D03*
D14*
X276352000Y-84615999D03*
D13*
X280924000Y-84615999D03*
D14*
X283464000Y-84615999D03*
D13*
X288036000Y-84615999D03*
D14*
X290576000Y-84615999D03*
D11*
X276352000Y-90932000D03*
D12*
X276352000Y-103632000D03*
D11*
X283464000Y-90932000D03*
D12*
X283464000Y-103632000D03*
D11*
X290576000Y-90932000D03*
D12*
X290576000Y-103632000D03*
D20*
X202184000Y-91948000D03*
X235204000Y-115824000D03*
X203200000Y-100584000D03*
X232156000Y-117348000D03*
X209296000Y-99568000D03*
X168148000Y-99568000D03*
X176276000Y-98552000D03*
X215392000Y-98552000D03*
X184912000Y-97536000D03*
X220980000Y-97536000D03*
X201295000Y-93345000D03*
X239268000Y-94488000D03*
X192532000Y-96520000D03*
X227076000Y-96520000D03*
X200152000Y-95504000D03*
X233172000Y-95504000D03*
D21*
X202184000Y-91948000D02*
X196668746Y-86432746D01*
X196668746Y-84615999D02*
X196668746Y-86432746D01*
X196668746Y-84615999D02*
X196596000Y-84836000D01*
X175550498Y-84615999D02*
X175768000Y-84836000D01*
X175768000Y-84836000D02*
X174752000Y-85852000D01*
X174752000Y-85852000D02*
X170180000Y-85852000D01*
X170180000Y-85852000D02*
X169164000Y-84836000D01*
X169164000Y-84836000D02*
X168656000Y-84836000D01*
X168656000Y-84836000D02*
X168656250Y-84615999D01*
X189665622Y-84615999D02*
X189484000Y-84836000D01*
X189484000Y-84836000D02*
X190500000Y-85852000D01*
X190500000Y-85852000D02*
X193548000Y-85852000D01*
X193548000Y-85852000D02*
X194564000Y-84836000D01*
X194564000Y-84836000D02*
X196596000Y-84836000D01*
X196596000Y-84836000D02*
X196668746Y-84615999D01*
X182662498Y-84615999D02*
X182880000Y-84836000D01*
X182880000Y-84836000D02*
X181864000Y-85852000D01*
X181864000Y-85852000D02*
X176784000Y-85852000D01*
X176784000Y-85852000D02*
X175768000Y-84836000D01*
X189484000Y-84836000D02*
X188468000Y-85852000D01*
X188468000Y-85852000D02*
X183896000Y-85852000D01*
X183896000Y-85852000D02*
X182880000Y-84836000D01*
X168656000Y-84836000D02*
X167640000Y-85852000D01*
X167640000Y-85852000D02*
X163068000Y-85852000D01*
X163068000Y-85852000D02*
X162052000Y-84836000D01*
X162052000Y-84836000D02*
X161544000Y-84836000D01*
X161544000Y-84836000D02*
X161653126Y-84615999D01*
X161544000Y-84836000D02*
X160528000Y-85852000D01*
X160528000Y-85852000D02*
X155956000Y-85852000D01*
X155956000Y-85852000D02*
X154940000Y-84836000D01*
X154940000Y-84836000D02*
X154432000Y-84836000D01*
X154432000Y-84836000D02*
X154650002Y-84615999D01*
X231684366Y-84615999D02*
X231648000Y-84836000D01*
X231648000Y-84836000D02*
X232664000Y-85852000D01*
X232664000Y-85852000D02*
X235712000Y-85852000D01*
X235712000Y-85852000D02*
X236728000Y-84836000D01*
X236728000Y-84836000D02*
X238760000Y-84836000D01*
X238760000Y-84836000D02*
X238687490Y-84615999D01*
X224681242Y-84615999D02*
X224536000Y-84836000D01*
X224536000Y-84836000D02*
X225552000Y-85852000D01*
X225552000Y-85852000D02*
X228600000Y-85852000D01*
X228600000Y-85852000D02*
X229616000Y-84836000D01*
X229616000Y-84836000D02*
X231648000Y-84836000D01*
X238760000Y-84836000D02*
X239776000Y-85852000D01*
X239776000Y-85852000D02*
X242316000Y-85852000D01*
X242316000Y-85852000D02*
X243332000Y-84836000D01*
X243332000Y-84836000D02*
X245872000Y-84836000D01*
X245872000Y-84836000D02*
X245690614Y-84615999D01*
X203708000Y-84615999D02*
X203708000Y-84836000D01*
X203708000Y-84836000D02*
X204724000Y-85852000D01*
X204724000Y-85852000D02*
X207264000Y-85852000D01*
X207264000Y-85852000D02*
X208280000Y-84836000D01*
X208280000Y-84836000D02*
X210820000Y-84836000D01*
X210820000Y-84836000D02*
X210674994Y-84615999D01*
X210820000Y-84836000D02*
X211836000Y-85852000D01*
X211836000Y-85852000D02*
X214376000Y-85852000D01*
X214376000Y-85852000D02*
X215392000Y-84836000D01*
X215392000Y-84836000D02*
X217932000Y-84836000D01*
X217932000Y-84836000D02*
X217678118Y-84615999D01*
X217932000Y-84836000D02*
X218948000Y-85852000D01*
X218948000Y-85852000D02*
X221488000Y-85852000D01*
X221488000Y-85852000D02*
X222504000Y-84836000D01*
X222504000Y-84836000D02*
X224536000Y-84836000D01*
D22*
X280924000Y-84615999D02*
X280924000Y-84836000D01*
D21*
X280924000Y-84836000D02*
X281940000Y-85852000D01*
X281940000Y-85852000D02*
X284480000Y-85852000D01*
X284480000Y-85852000D02*
X285496000Y-84836000D01*
X285496000Y-84836000D02*
X288036000Y-84836000D01*
D22*
X288036000Y-84836000D02*
X288036000Y-84615999D01*
X273812000Y-84615999D02*
X273812000Y-84836000D01*
D21*
X273812000Y-84836000D02*
X274828000Y-85852000D01*
X274828000Y-85852000D02*
X277368000Y-85852000D01*
X277368000Y-85852000D02*
X278384000Y-84836000D01*
X278384000Y-84836000D02*
X280924000Y-84836000D01*
X273812000Y-84836000D02*
X272796000Y-85852000D01*
X272796000Y-85852000D02*
X268224000Y-85852000D01*
X268224000Y-85852000D02*
X267208000Y-84836000D01*
D22*
X267208000Y-84836000D02*
X266700000Y-84836000D01*
X266700000Y-84836000D02*
X266700000Y-84615999D01*
D21*
X252693738Y-84615999D02*
X252476000Y-84836000D01*
X259696862Y-84615999D02*
X259588000Y-84836000D01*
X259588000Y-84836000D02*
X260604000Y-85852000D01*
X260604000Y-85852000D02*
X263652000Y-85852000D01*
X263652000Y-85852000D02*
X264668000Y-84836000D01*
X264668000Y-84836000D02*
X266700000Y-84836000D01*
X266700000Y-84836000D02*
X266700000Y-84615999D01*
X259588000Y-84836000D02*
X258572000Y-85852000D01*
X258572000Y-85852000D02*
X254000000Y-85852000D01*
X254000000Y-85852000D02*
X252984000Y-84836000D01*
X252984000Y-84836000D02*
X252476000Y-84836000D01*
X215900000Y-119380000D02*
X215900000Y-120480000D01*
X215900000Y-120480000D02*
X216832000Y-121412000D01*
X216832000Y-121412000D02*
X229616000Y-121412000D01*
X229616000Y-121412000D02*
X235204000Y-115824000D01*
X215900000Y-116840000D02*
X206248000Y-107188000D01*
X206248000Y-107188000D02*
X206248000Y-103632000D01*
X203200000Y-100584000D02*
X203499999Y-100284001D01*
X203499999Y-100284001D02*
X251668001Y-100284001D01*
X251668001Y-100284001D02*
X255016000Y-103632000D01*
X203200000Y-100584000D02*
X160020000Y-100584000D01*
X160020000Y-100584000D02*
X156972000Y-103632000D01*
X206756000Y-104140000D02*
X206248000Y-103632000D01*
X218440000Y-119380000D02*
X219964000Y-120904000D01*
X219964000Y-120904000D02*
X229108000Y-120904000D01*
X229108000Y-120904000D02*
X232156000Y-117856000D01*
X232156000Y-117856000D02*
X232156000Y-117348000D01*
X218440000Y-116840000D02*
X213360000Y-111760000D01*
X213360000Y-111760000D02*
X213360000Y-103632000D01*
X209296000Y-99568000D02*
X258064000Y-99568000D01*
X168148000Y-99568000D02*
X209296000Y-99568000D01*
X258064000Y-99568000D02*
X262128000Y-103632000D01*
X219456000Y-114113919D02*
X219456000Y-104648000D01*
X219456000Y-104648000D02*
X220472000Y-103632000D01*
X220980000Y-116840000D02*
X220980000Y-115637919D01*
X220980000Y-115637919D02*
X219456000Y-114113919D01*
X215392000Y-98552000D02*
X264160000Y-98552000D01*
X264160000Y-98552000D02*
X269240000Y-103632000D01*
X176276000Y-98552000D02*
X215392000Y-98552000D01*
X227076000Y-103632000D02*
X227076000Y-105156000D01*
X227076000Y-105156000D02*
X225552000Y-106680000D01*
X225552000Y-106680000D02*
X225552000Y-114808000D01*
X225552000Y-114808000D02*
X223804546Y-116555454D01*
X220980000Y-97536000D02*
X270256000Y-97536000D01*
X270256000Y-97536000D02*
X276352000Y-103632000D01*
X184912000Y-97536000D02*
X220980000Y-97536000D01*
X226060000Y-119380000D02*
X227330000Y-118110000D01*
X227330000Y-118110000D02*
X229870000Y-118110000D01*
X229870000Y-118110000D02*
X244348000Y-103632000D01*
X244348000Y-103632000D02*
X248412000Y-103632000D01*
X202438000Y-94488000D02*
X201295000Y-93345000D01*
X239268000Y-94488000D02*
X202438000Y-94488000D01*
X226060000Y-116840000D02*
X234188000Y-108712000D01*
X234188000Y-108712000D02*
X234188000Y-103632000D01*
D22*
X283464000Y-103632000D02*
X276352000Y-96520000D01*
X276352000Y-96520000D02*
X227076000Y-96520000D01*
D21*
X192532000Y-96520000D02*
X227076000Y-96520000D01*
X238744379Y-106172000D02*
X238760000Y-106172000D01*
X238760000Y-106172000D02*
X241300000Y-103632000D01*
X233172000Y-95504000D02*
X282448000Y-95504000D01*
X282448000Y-95504000D02*
X290576000Y-103632000D01*
X228076379Y-116840000D02*
X238744379Y-106172000D01*
X200152000Y-95504000D02*
X233172000Y-95504000D01*
M02*
