G04 #@! TF.FileFunction,Copper,L1,Top,Signal*
%FSLAX46Y46*%
G04 Gerber Fmt 4.6, Leading zero omitted, Abs format (unit mm)*
G04 Created by KiCad (PCBNEW 4.0.6) date 03/21/17 10:55:45*
%MOMM*%
%LPD*%
G01*
G04 APERTURE LIST*
%ADD10C,0.100000*%
%ADD11C,1.600000*%
%ADD12O,1.600000X1.600000*%
%ADD13R,1.800000X1.800000*%
%ADD14C,1.800000*%
%ADD15C,1.000000*%
%ADD16R,1.000000X1.000000*%
%ADD17R,1.700000X1.700000*%
%ADD18O,1.700000X1.700000*%
%ADD19C,5.400000*%
%ADD20C,0.685800*%
%ADD21C,0.250000*%
%ADD22C,0.152400*%
%ADD23C,0.254000*%
G04 APERTURE END LIST*
D10*
D11*
X206248000Y-90932000D03*
D12*
X206248000Y-103632000D03*
D13*
X154650002Y-84615999D03*
D14*
X157190002Y-84615999D03*
D13*
X161653126Y-84615999D03*
D14*
X164193126Y-84615999D03*
D13*
X168656250Y-84615999D03*
D14*
X171196250Y-84615999D03*
D13*
X175550498Y-84615999D03*
D14*
X178090498Y-84615999D03*
D13*
X182662498Y-84615999D03*
D14*
X185202498Y-84615999D03*
D13*
X189665622Y-84615999D03*
D14*
X192205622Y-84615999D03*
D13*
X196668746Y-84615999D03*
D14*
X199208746Y-84615999D03*
D13*
X203708000Y-84615999D03*
D14*
X206248000Y-84615999D03*
D13*
X210674994Y-84615999D03*
D14*
X213214994Y-84615999D03*
D13*
X217678118Y-84615999D03*
D14*
X220218118Y-84615999D03*
D13*
X224681242Y-84615999D03*
D14*
X227221242Y-84615999D03*
D13*
X231684366Y-84615999D03*
D14*
X234224366Y-84615999D03*
D13*
X238687490Y-84615999D03*
D14*
X241227490Y-84615999D03*
D13*
X245690614Y-84615999D03*
D14*
X248230614Y-84615999D03*
D13*
X252693738Y-84615999D03*
D14*
X255233738Y-84615999D03*
D13*
X259696862Y-84615999D03*
D14*
X262236862Y-84615999D03*
D13*
X266700000Y-84615999D03*
D14*
X269240000Y-84615999D03*
D15*
X216296143Y-109220000D03*
X215026143Y-107950000D03*
D16*
X217566143Y-107950000D03*
D15*
X222504000Y-109220000D03*
X221234000Y-107950000D03*
D16*
X223774000Y-107950000D03*
D15*
X228711857Y-109220000D03*
X227441857Y-107950000D03*
D16*
X229981857Y-107950000D03*
D11*
X156972000Y-90932000D03*
D12*
X156972000Y-103632000D03*
D11*
X164084000Y-90932000D03*
D12*
X164084000Y-103632000D03*
D11*
X171196000Y-90932000D03*
D12*
X171196000Y-103632000D03*
D11*
X178308000Y-90932000D03*
D12*
X178308000Y-103632000D03*
D11*
X185420000Y-90932000D03*
D12*
X185420000Y-103632000D03*
D11*
X192024000Y-90932000D03*
D12*
X192024000Y-103632000D03*
D11*
X199136000Y-90932000D03*
D12*
X199136000Y-103632000D03*
D11*
X213360000Y-90932000D03*
D12*
X213360000Y-103632000D03*
D11*
X220472000Y-90932000D03*
D12*
X220472000Y-103632000D03*
D11*
X227076000Y-90932000D03*
D12*
X227076000Y-103632000D03*
D11*
X234188000Y-90932000D03*
D12*
X234188000Y-103632000D03*
D11*
X241300000Y-90932000D03*
D12*
X241300000Y-103632000D03*
D11*
X248412000Y-90932000D03*
D12*
X248412000Y-103632000D03*
D11*
X255016000Y-90932000D03*
D12*
X255016000Y-103632000D03*
D11*
X262128000Y-90932000D03*
D12*
X262128000Y-103632000D03*
D11*
X269240000Y-90932000D03*
D12*
X269240000Y-103632000D03*
D17*
X215900000Y-119380000D03*
D18*
X215900000Y-116840000D03*
X218440000Y-119380000D03*
X218440000Y-116840000D03*
X220980000Y-119380000D03*
X220980000Y-116840000D03*
X223520000Y-119380000D03*
X223520000Y-116840000D03*
X226060000Y-119380000D03*
X226060000Y-116840000D03*
X228600000Y-119380000D03*
X228600000Y-116840000D03*
D19*
X294386000Y-78740000D03*
X149860000Y-78740000D03*
X239268000Y-114300000D03*
X204978000Y-114300000D03*
D13*
X273812000Y-84615999D03*
D14*
X276352000Y-84615999D03*
D13*
X280924000Y-84615999D03*
D14*
X283464000Y-84615999D03*
D13*
X288036000Y-84615999D03*
D14*
X290576000Y-84615999D03*
D11*
X276352000Y-90932000D03*
D12*
X276352000Y-103632000D03*
D11*
X283464000Y-90932000D03*
D12*
X283464000Y-103632000D03*
D11*
X290576000Y-90932000D03*
D12*
X290576000Y-103632000D03*
D20*
X202184000Y-91948000D03*
X235204000Y-115824000D03*
X203200000Y-100584000D03*
X232156000Y-117348000D03*
X209296000Y-99568000D03*
X168148000Y-99568000D03*
X176276000Y-98552000D03*
X215392000Y-98552000D03*
X184912000Y-97536000D03*
X220980000Y-97536000D03*
X201295000Y-93345000D03*
X239268000Y-94488000D03*
X192532000Y-96520000D03*
X227076000Y-96520000D03*
X200152000Y-95504000D03*
X233172000Y-95504000D03*
D21*
X215026143Y-107950000D02*
X202184000Y-95107857D01*
X202184000Y-95107857D02*
X202184000Y-91948000D01*
X156972000Y-90932000D02*
X156972000Y-84836000D01*
X156972000Y-84836000D02*
X157190002Y-84615999D01*
X164084000Y-90932000D02*
X164084000Y-84836000D01*
X164084000Y-84836000D02*
X164193126Y-84615999D01*
X171196000Y-90932000D02*
X171196000Y-84836000D01*
X171196000Y-84836000D02*
X171196250Y-84615999D01*
X178199374Y-84615999D02*
X178308000Y-84836000D01*
X178308000Y-84836000D02*
X178308000Y-90932000D01*
X185202498Y-84615999D02*
X185420000Y-84836000D01*
X185420000Y-84836000D02*
X185420000Y-90932000D01*
X192024000Y-90932000D02*
X192024000Y-84836000D01*
X192024000Y-84836000D02*
X192205622Y-84615999D01*
X199136000Y-90932000D02*
X199136000Y-84836000D01*
X199136000Y-84836000D02*
X199208746Y-84615999D01*
X221234000Y-107950000D02*
X221234000Y-106934000D01*
X221234000Y-106934000D02*
X213868000Y-99568000D01*
X213868000Y-99568000D02*
X213868000Y-95504000D01*
X213868000Y-95504000D02*
X217424000Y-91948000D01*
X217424000Y-91948000D02*
X217424000Y-86020117D01*
X217424000Y-86020117D02*
X217678118Y-85765999D01*
X217678118Y-85765999D02*
X217678118Y-84615999D01*
X210674994Y-84615999D02*
X210820000Y-84836000D01*
X206211870Y-84615999D02*
X206248000Y-84836000D01*
X206248000Y-84836000D02*
X206248000Y-90932000D01*
X213360000Y-90932000D02*
X213360000Y-84836000D01*
X213360000Y-84836000D02*
X213214994Y-84615999D01*
X220218118Y-84615999D02*
X220218118Y-90678118D01*
X220218118Y-90678118D02*
X220472000Y-90932000D01*
X227221242Y-90786758D02*
X227076000Y-90932000D01*
X227221242Y-84615999D02*
X227221242Y-90786758D01*
X234188000Y-90932000D02*
X234188000Y-84836000D01*
X234188000Y-84836000D02*
X234224366Y-84615999D01*
X241227490Y-84615999D02*
X241300000Y-84836000D01*
X241300000Y-84836000D02*
X241300000Y-90932000D01*
X248412000Y-90932000D02*
X248412000Y-84836000D01*
X248412000Y-84836000D02*
X248230614Y-84615999D01*
X252730000Y-84455000D02*
X250190000Y-86995000D01*
X250190000Y-86995000D02*
X250190000Y-104140000D01*
X250190000Y-104140000D02*
X248285000Y-106045000D01*
X248285000Y-106045000D02*
X229870000Y-106045000D01*
X229870000Y-106045000D02*
X227965000Y-107950000D01*
D22*
X252693738Y-84615999D02*
X252730000Y-84455000D01*
X227965000Y-107950000D02*
X227441857Y-107950000D01*
D21*
X255233738Y-84615999D02*
X255016000Y-84836000D01*
X255016000Y-84836000D02*
X255016000Y-90932000D01*
X262236862Y-84615999D02*
X262128000Y-84836000D01*
X262128000Y-84836000D02*
X262128000Y-90932000D01*
X269240000Y-84615999D02*
X269240000Y-90932000D01*
X235204000Y-115824000D02*
X228711857Y-109331857D01*
X228711857Y-109331857D02*
X228711857Y-109220000D01*
X206248000Y-103632000D02*
X203200000Y-100584000D01*
X232156000Y-117348000D02*
X224028000Y-109220000D01*
X224028000Y-109220000D02*
X222504000Y-109220000D01*
X213360000Y-103632000D02*
X209296000Y-99568000D01*
X164084000Y-103632000D02*
X168148000Y-99568000D01*
X220980000Y-119380000D02*
X222250000Y-118110000D01*
X222250000Y-118110000D02*
X222250000Y-115173857D01*
X222250000Y-115173857D02*
X216296143Y-109220000D01*
X176276000Y-98552000D02*
X171196000Y-103632000D01*
X220472000Y-103632000D02*
X215392000Y-98552000D01*
X184404000Y-97536000D02*
X184912000Y-97536000D01*
X178308000Y-103632000D02*
X184404000Y-97536000D01*
X227076000Y-103632000D02*
X220980000Y-97536000D01*
X201295000Y-101473000D02*
X201295000Y-93345000D01*
X199136000Y-103632000D02*
X201295000Y-101473000D01*
X248412000Y-103632000D02*
X239268000Y-94488000D01*
X185420000Y-103632000D02*
X192532000Y-96520000D01*
X234188000Y-103632000D02*
X227076000Y-96520000D01*
X192024000Y-103632000D02*
X200152000Y-95504000D01*
X241300000Y-103632000D02*
X233172000Y-95504000D01*
X276352000Y-90932000D02*
X276352000Y-84615999D01*
X283464000Y-84615999D02*
X283464000Y-90932000D01*
X290576000Y-90932000D02*
X290576000Y-84615999D01*
D23*
G36*
X297377984Y-75108815D02*
X297761157Y-75364844D01*
X298017185Y-75748015D01*
X298121000Y-76269931D01*
X298121000Y-104705069D01*
X298017185Y-105226985D01*
X297761157Y-105610156D01*
X297377984Y-105866185D01*
X296856069Y-105970000D01*
X254025400Y-105970000D01*
X253950854Y-105984828D01*
X253158328Y-106129747D01*
X252902388Y-106235761D01*
X252284745Y-106648456D01*
X252235297Y-106697904D01*
X252177154Y-106736754D01*
X237469200Y-121444708D01*
X237027130Y-121740089D01*
X236499707Y-121845000D01*
X207740331Y-121845000D01*
X207218415Y-121741185D01*
X206781012Y-121448920D01*
X200292554Y-114960462D01*
X201642422Y-114960462D01*
X202149076Y-116186658D01*
X203086407Y-117125627D01*
X204311717Y-117634420D01*
X205638462Y-117635578D01*
X206864658Y-117128924D01*
X207803627Y-116191593D01*
X208312420Y-114966283D01*
X208313578Y-113639538D01*
X207806924Y-112413342D01*
X206869593Y-111474373D01*
X205644283Y-110965580D01*
X204317538Y-110964422D01*
X203091342Y-111471076D01*
X202152373Y-112408407D01*
X201643580Y-113633717D01*
X201642422Y-114960462D01*
X200292554Y-114960462D01*
X192068846Y-106736754D01*
X192015751Y-106701277D01*
X191962093Y-106647619D01*
X191344068Y-106234666D01*
X191194140Y-106172564D01*
X191088126Y-106128651D01*
X190359114Y-105983642D01*
X190289184Y-105983642D01*
X190220600Y-105970000D01*
X147389931Y-105970000D01*
X146868015Y-105866185D01*
X146484844Y-105610157D01*
X146228815Y-105226984D01*
X146125000Y-104705069D01*
X146125000Y-103603887D01*
X155537000Y-103603887D01*
X155537000Y-103660113D01*
X155646233Y-104209264D01*
X155957302Y-104674811D01*
X156422849Y-104985880D01*
X156972000Y-105095113D01*
X157521151Y-104985880D01*
X157986698Y-104674811D01*
X158297767Y-104209264D01*
X158407000Y-103660113D01*
X158407000Y-103603887D01*
X162649000Y-103603887D01*
X162649000Y-103660113D01*
X162758233Y-104209264D01*
X163069302Y-104674811D01*
X163534849Y-104985880D01*
X164084000Y-105095113D01*
X164633151Y-104985880D01*
X165098698Y-104674811D01*
X165409767Y-104209264D01*
X165519000Y-103660113D01*
X165519000Y-103603887D01*
X169761000Y-103603887D01*
X169761000Y-103660113D01*
X169870233Y-104209264D01*
X170181302Y-104674811D01*
X170646849Y-104985880D01*
X171196000Y-105095113D01*
X171745151Y-104985880D01*
X172210698Y-104674811D01*
X172521767Y-104209264D01*
X172631000Y-103660113D01*
X172631000Y-103603887D01*
X176873000Y-103603887D01*
X176873000Y-103660113D01*
X176982233Y-104209264D01*
X177293302Y-104674811D01*
X177758849Y-104985880D01*
X178308000Y-105095113D01*
X178857151Y-104985880D01*
X179322698Y-104674811D01*
X179633767Y-104209264D01*
X179743000Y-103660113D01*
X179743000Y-103603887D01*
X183985000Y-103603887D01*
X183985000Y-103660113D01*
X184094233Y-104209264D01*
X184405302Y-104674811D01*
X184870849Y-104985880D01*
X185420000Y-105095113D01*
X185969151Y-104985880D01*
X186434698Y-104674811D01*
X186745767Y-104209264D01*
X186855000Y-103660113D01*
X186855000Y-103603887D01*
X190589000Y-103603887D01*
X190589000Y-103660113D01*
X190698233Y-104209264D01*
X191009302Y-104674811D01*
X191474849Y-104985880D01*
X192024000Y-105095113D01*
X192573151Y-104985880D01*
X193038698Y-104674811D01*
X193349767Y-104209264D01*
X193459000Y-103660113D01*
X193459000Y-103603887D01*
X193403904Y-103326898D01*
X200248817Y-96481985D01*
X200345663Y-96482069D01*
X200535000Y-96403837D01*
X200535000Y-101158198D01*
X199459886Y-102233312D01*
X199136000Y-102168887D01*
X198586849Y-102278120D01*
X198121302Y-102589189D01*
X197810233Y-103054736D01*
X197701000Y-103603887D01*
X197701000Y-103660113D01*
X197810233Y-104209264D01*
X198121302Y-104674811D01*
X198586849Y-104985880D01*
X199136000Y-105095113D01*
X199685151Y-104985880D01*
X200150698Y-104674811D01*
X200461767Y-104209264D01*
X200571000Y-103660113D01*
X200571000Y-103603887D01*
X200515904Y-103326898D01*
X201832401Y-102010401D01*
X201997148Y-101763839D01*
X202055000Y-101473000D01*
X202055000Y-100777663D01*
X202221931Y-100777663D01*
X202370493Y-101137212D01*
X202645341Y-101412540D01*
X203004630Y-101561730D01*
X203103014Y-101561816D01*
X204868096Y-103326898D01*
X204813000Y-103603887D01*
X204813000Y-103660113D01*
X204922233Y-104209264D01*
X205233302Y-104674811D01*
X205698849Y-104985880D01*
X206248000Y-105095113D01*
X206797151Y-104985880D01*
X207262698Y-104674811D01*
X207573767Y-104209264D01*
X207683000Y-103660113D01*
X207683000Y-103603887D01*
X207573767Y-103054736D01*
X207262698Y-102589189D01*
X206797151Y-102278120D01*
X206248000Y-102168887D01*
X205924114Y-102233312D01*
X204177985Y-100487183D01*
X204178069Y-100390337D01*
X204029507Y-100030788D01*
X203754659Y-99755460D01*
X203395370Y-99606270D01*
X203006337Y-99605931D01*
X202646788Y-99754493D01*
X202371460Y-100029341D01*
X202222270Y-100388630D01*
X202221931Y-100777663D01*
X202055000Y-100777663D01*
X202055000Y-96053659D01*
X213891195Y-107889854D01*
X213890946Y-108174775D01*
X214063376Y-108592086D01*
X214382378Y-108911645D01*
X214799387Y-109084803D01*
X215161260Y-109085119D01*
X215160946Y-109444775D01*
X215333376Y-109862086D01*
X215652378Y-110181645D01*
X216069387Y-110354803D01*
X216356394Y-110355053D01*
X221413471Y-115412130D01*
X220980000Y-115325907D01*
X220411715Y-115438946D01*
X219929946Y-115760853D01*
X219710000Y-116090026D01*
X219490054Y-115760853D01*
X219008285Y-115438946D01*
X218440000Y-115325907D01*
X217871715Y-115438946D01*
X217389946Y-115760853D01*
X217170000Y-116090026D01*
X216950054Y-115760853D01*
X216468285Y-115438946D01*
X215900000Y-115325907D01*
X215331715Y-115438946D01*
X214849946Y-115760853D01*
X214528039Y-116242622D01*
X214415000Y-116810907D01*
X214415000Y-116869093D01*
X214528039Y-117437378D01*
X214849946Y-117919147D01*
X214851179Y-117919971D01*
X214814683Y-117926838D01*
X214598559Y-118065910D01*
X214453569Y-118278110D01*
X214402560Y-118530000D01*
X214402560Y-120230000D01*
X214446838Y-120465317D01*
X214585910Y-120681441D01*
X214798110Y-120826431D01*
X215050000Y-120877440D01*
X216750000Y-120877440D01*
X216985317Y-120833162D01*
X217201441Y-120694090D01*
X217346431Y-120481890D01*
X217360086Y-120414459D01*
X217389946Y-120459147D01*
X217871715Y-120781054D01*
X218440000Y-120894093D01*
X219008285Y-120781054D01*
X219490054Y-120459147D01*
X219710000Y-120129974D01*
X219929946Y-120459147D01*
X220411715Y-120781054D01*
X220980000Y-120894093D01*
X221548285Y-120781054D01*
X222030054Y-120459147D01*
X222257702Y-120118447D01*
X222324817Y-120261358D01*
X222753076Y-120651645D01*
X223163110Y-120821476D01*
X223393000Y-120700155D01*
X223393000Y-119507000D01*
X223373000Y-119507000D01*
X223373000Y-119253000D01*
X223393000Y-119253000D01*
X223393000Y-119233000D01*
X223647000Y-119233000D01*
X223647000Y-119253000D01*
X223667000Y-119253000D01*
X223667000Y-119507000D01*
X223647000Y-119507000D01*
X223647000Y-120700155D01*
X223876890Y-120821476D01*
X224286924Y-120651645D01*
X224715183Y-120261358D01*
X224782298Y-120118447D01*
X225009946Y-120459147D01*
X225491715Y-120781054D01*
X226060000Y-120894093D01*
X226628285Y-120781054D01*
X227110054Y-120459147D01*
X227330000Y-120129974D01*
X227549946Y-120459147D01*
X228031715Y-120781054D01*
X228600000Y-120894093D01*
X229168285Y-120781054D01*
X229650054Y-120459147D01*
X229971961Y-119977378D01*
X230085000Y-119409093D01*
X230085000Y-119350907D01*
X229971961Y-118782622D01*
X229650054Y-118300853D01*
X229364422Y-118110000D01*
X229650054Y-117919147D01*
X229971961Y-117437378D01*
X230085000Y-116869093D01*
X230085000Y-116810907D01*
X229971961Y-116242622D01*
X229964190Y-116230992D01*
X231178015Y-117444817D01*
X231177931Y-117541663D01*
X231326493Y-117901212D01*
X231601341Y-118176540D01*
X231960630Y-118325730D01*
X232349663Y-118326069D01*
X232709212Y-118177507D01*
X232984540Y-117902659D01*
X233133730Y-117543370D01*
X233134069Y-117154337D01*
X232985507Y-116794788D01*
X232710659Y-116519460D01*
X232351370Y-116370270D01*
X232252986Y-116370184D01*
X224752414Y-108869612D01*
X224812327Y-108809698D01*
X224909000Y-108576309D01*
X224909000Y-108235750D01*
X224848025Y-108174775D01*
X226306660Y-108174775D01*
X226479090Y-108592086D01*
X226798092Y-108911645D01*
X227215101Y-109084803D01*
X227576974Y-109085119D01*
X227576660Y-109444775D01*
X227749090Y-109862086D01*
X228068092Y-110181645D01*
X228485101Y-110354803D01*
X228660154Y-110354956D01*
X234226015Y-115920817D01*
X234225931Y-116017663D01*
X234374493Y-116377212D01*
X234649341Y-116652540D01*
X235008630Y-116801730D01*
X235397663Y-116802069D01*
X235757212Y-116653507D01*
X236032540Y-116378659D01*
X236181730Y-116019370D01*
X236182069Y-115630337D01*
X236033507Y-115270788D01*
X235758659Y-114995460D01*
X235674375Y-114960462D01*
X235932422Y-114960462D01*
X236439076Y-116186658D01*
X237376407Y-117125627D01*
X238601717Y-117634420D01*
X239928462Y-117635578D01*
X241154658Y-117128924D01*
X242093627Y-116191593D01*
X242602420Y-114966283D01*
X242603578Y-113639538D01*
X242096924Y-112413342D01*
X241159593Y-111474373D01*
X239934283Y-110965580D01*
X238607538Y-110964422D01*
X237381342Y-111471076D01*
X236442373Y-112408407D01*
X235933580Y-113633717D01*
X235932422Y-114960462D01*
X235674375Y-114960462D01*
X235399370Y-114846270D01*
X235300986Y-114846184D01*
X229846708Y-109391906D01*
X229847054Y-108995225D01*
X229829168Y-108951939D01*
X229854857Y-108926250D01*
X229854857Y-108077000D01*
X230108857Y-108077000D01*
X230108857Y-108926250D01*
X230267607Y-109085000D01*
X230608167Y-109085000D01*
X230841556Y-108988327D01*
X231020184Y-108809698D01*
X231116857Y-108576309D01*
X231116857Y-108235750D01*
X230958107Y-108077000D01*
X230108857Y-108077000D01*
X229854857Y-108077000D01*
X229834857Y-108077000D01*
X229834857Y-107823000D01*
X229854857Y-107823000D01*
X229854857Y-107803000D01*
X230108857Y-107803000D01*
X230108857Y-107823000D01*
X230958107Y-107823000D01*
X231116857Y-107664250D01*
X231116857Y-107323691D01*
X231020184Y-107090302D01*
X230841556Y-106911673D01*
X230608167Y-106815000D01*
X230267607Y-106815000D01*
X230108859Y-106973748D01*
X230108859Y-106880943D01*
X230184802Y-106805000D01*
X248285000Y-106805000D01*
X248575839Y-106747148D01*
X248822401Y-106582401D01*
X250727401Y-104677401D01*
X250892148Y-104430839D01*
X250950000Y-104140000D01*
X250950000Y-103603887D01*
X253581000Y-103603887D01*
X253581000Y-103660113D01*
X253690233Y-104209264D01*
X254001302Y-104674811D01*
X254466849Y-104985880D01*
X255016000Y-105095113D01*
X255565151Y-104985880D01*
X256030698Y-104674811D01*
X256341767Y-104209264D01*
X256451000Y-103660113D01*
X256451000Y-103603887D01*
X260693000Y-103603887D01*
X260693000Y-103660113D01*
X260802233Y-104209264D01*
X261113302Y-104674811D01*
X261578849Y-104985880D01*
X262128000Y-105095113D01*
X262677151Y-104985880D01*
X263142698Y-104674811D01*
X263453767Y-104209264D01*
X263563000Y-103660113D01*
X263563000Y-103603887D01*
X267805000Y-103603887D01*
X267805000Y-103660113D01*
X267914233Y-104209264D01*
X268225302Y-104674811D01*
X268690849Y-104985880D01*
X269240000Y-105095113D01*
X269789151Y-104985880D01*
X270254698Y-104674811D01*
X270565767Y-104209264D01*
X270675000Y-103660113D01*
X270675000Y-103603887D01*
X274917000Y-103603887D01*
X274917000Y-103660113D01*
X275026233Y-104209264D01*
X275337302Y-104674811D01*
X275802849Y-104985880D01*
X276352000Y-105095113D01*
X276901151Y-104985880D01*
X277366698Y-104674811D01*
X277677767Y-104209264D01*
X277787000Y-103660113D01*
X277787000Y-103603887D01*
X282029000Y-103603887D01*
X282029000Y-103660113D01*
X282138233Y-104209264D01*
X282449302Y-104674811D01*
X282914849Y-104985880D01*
X283464000Y-105095113D01*
X284013151Y-104985880D01*
X284478698Y-104674811D01*
X284789767Y-104209264D01*
X284899000Y-103660113D01*
X284899000Y-103603887D01*
X289141000Y-103603887D01*
X289141000Y-103660113D01*
X289250233Y-104209264D01*
X289561302Y-104674811D01*
X290026849Y-104985880D01*
X290576000Y-105095113D01*
X291125151Y-104985880D01*
X291590698Y-104674811D01*
X291901767Y-104209264D01*
X292011000Y-103660113D01*
X292011000Y-103603887D01*
X291901767Y-103054736D01*
X291590698Y-102589189D01*
X291125151Y-102278120D01*
X290576000Y-102168887D01*
X290026849Y-102278120D01*
X289561302Y-102589189D01*
X289250233Y-103054736D01*
X289141000Y-103603887D01*
X284899000Y-103603887D01*
X284789767Y-103054736D01*
X284478698Y-102589189D01*
X284013151Y-102278120D01*
X283464000Y-102168887D01*
X282914849Y-102278120D01*
X282449302Y-102589189D01*
X282138233Y-103054736D01*
X282029000Y-103603887D01*
X277787000Y-103603887D01*
X277677767Y-103054736D01*
X277366698Y-102589189D01*
X276901151Y-102278120D01*
X276352000Y-102168887D01*
X275802849Y-102278120D01*
X275337302Y-102589189D01*
X275026233Y-103054736D01*
X274917000Y-103603887D01*
X270675000Y-103603887D01*
X270565767Y-103054736D01*
X270254698Y-102589189D01*
X269789151Y-102278120D01*
X269240000Y-102168887D01*
X268690849Y-102278120D01*
X268225302Y-102589189D01*
X267914233Y-103054736D01*
X267805000Y-103603887D01*
X263563000Y-103603887D01*
X263453767Y-103054736D01*
X263142698Y-102589189D01*
X262677151Y-102278120D01*
X262128000Y-102168887D01*
X261578849Y-102278120D01*
X261113302Y-102589189D01*
X260802233Y-103054736D01*
X260693000Y-103603887D01*
X256451000Y-103603887D01*
X256341767Y-103054736D01*
X256030698Y-102589189D01*
X255565151Y-102278120D01*
X255016000Y-102168887D01*
X254466849Y-102278120D01*
X254001302Y-102589189D01*
X253690233Y-103054736D01*
X253581000Y-103603887D01*
X250950000Y-103603887D01*
X250950000Y-87309802D01*
X252096363Y-86163439D01*
X253593738Y-86163439D01*
X253829055Y-86119161D01*
X254045179Y-85980089D01*
X254190169Y-85767889D01*
X254194305Y-85747465D01*
X254256000Y-85809268D01*
X254256000Y-89693354D01*
X254204200Y-89714757D01*
X253800176Y-90118077D01*
X253581250Y-90645309D01*
X253580752Y-91216187D01*
X253798757Y-91743800D01*
X254202077Y-92147824D01*
X254729309Y-92366750D01*
X255300187Y-92367248D01*
X255827800Y-92149243D01*
X256231824Y-91745923D01*
X256450750Y-91218691D01*
X256451248Y-90647813D01*
X256233243Y-90120200D01*
X255829923Y-89716176D01*
X255776000Y-89693785D01*
X255776000Y-86052812D01*
X256102109Y-85918067D01*
X256534289Y-85486642D01*
X256768471Y-84922669D01*
X256769003Y-84312008D01*
X256535806Y-83747628D01*
X256504233Y-83715999D01*
X258149422Y-83715999D01*
X258149422Y-85515999D01*
X258193700Y-85751316D01*
X258332772Y-85967440D01*
X258544972Y-86112430D01*
X258796862Y-86163439D01*
X260596862Y-86163439D01*
X260832179Y-86119161D01*
X261048303Y-85980089D01*
X261193293Y-85767889D01*
X261197429Y-85747465D01*
X261366219Y-85916550D01*
X261368000Y-85917290D01*
X261368000Y-89693354D01*
X261316200Y-89714757D01*
X260912176Y-90118077D01*
X260693250Y-90645309D01*
X260692752Y-91216187D01*
X260910757Y-91743800D01*
X261314077Y-92147824D01*
X261841309Y-92366750D01*
X262412187Y-92367248D01*
X262939800Y-92149243D01*
X263343824Y-91745923D01*
X263562750Y-91218691D01*
X263563248Y-90647813D01*
X263345243Y-90120200D01*
X262941923Y-89716176D01*
X262888000Y-89693785D01*
X262888000Y-86007826D01*
X263105233Y-85918067D01*
X263537413Y-85486642D01*
X263771595Y-84922669D01*
X263772127Y-84312008D01*
X263538930Y-83747628D01*
X263507357Y-83715999D01*
X265152560Y-83715999D01*
X265152560Y-85515999D01*
X265196838Y-85751316D01*
X265335910Y-85967440D01*
X265548110Y-86112430D01*
X265800000Y-86163439D01*
X267600000Y-86163439D01*
X267835317Y-86119161D01*
X268051441Y-85980089D01*
X268196431Y-85767889D01*
X268200567Y-85747465D01*
X268369357Y-85916550D01*
X268480000Y-85962493D01*
X268480000Y-89693354D01*
X268428200Y-89714757D01*
X268024176Y-90118077D01*
X267805250Y-90645309D01*
X267804752Y-91216187D01*
X268022757Y-91743800D01*
X268426077Y-92147824D01*
X268953309Y-92366750D01*
X269524187Y-92367248D01*
X270051800Y-92149243D01*
X270455824Y-91745923D01*
X270674750Y-91218691D01*
X270675248Y-90647813D01*
X270457243Y-90120200D01*
X270053923Y-89716176D01*
X270000000Y-89693785D01*
X270000000Y-85962845D01*
X270108371Y-85918067D01*
X270540551Y-85486642D01*
X270774733Y-84922669D01*
X270775265Y-84312008D01*
X270542068Y-83747628D01*
X270510495Y-83715999D01*
X272264560Y-83715999D01*
X272264560Y-85515999D01*
X272308838Y-85751316D01*
X272447910Y-85967440D01*
X272660110Y-86112430D01*
X272912000Y-86163439D01*
X274712000Y-86163439D01*
X274947317Y-86119161D01*
X275163441Y-85980089D01*
X275308431Y-85767889D01*
X275312567Y-85747465D01*
X275481357Y-85916550D01*
X275592000Y-85962493D01*
X275592000Y-89693354D01*
X275540200Y-89714757D01*
X275136176Y-90118077D01*
X274917250Y-90645309D01*
X274916752Y-91216187D01*
X275134757Y-91743800D01*
X275538077Y-92147824D01*
X276065309Y-92366750D01*
X276636187Y-92367248D01*
X277163800Y-92149243D01*
X277567824Y-91745923D01*
X277786750Y-91218691D01*
X277787248Y-90647813D01*
X277569243Y-90120200D01*
X277165923Y-89716176D01*
X277112000Y-89693785D01*
X277112000Y-85962845D01*
X277220371Y-85918067D01*
X277652551Y-85486642D01*
X277886733Y-84922669D01*
X277887265Y-84312008D01*
X277654068Y-83747628D01*
X277622495Y-83715999D01*
X279376560Y-83715999D01*
X279376560Y-85515999D01*
X279420838Y-85751316D01*
X279559910Y-85967440D01*
X279772110Y-86112430D01*
X280024000Y-86163439D01*
X281824000Y-86163439D01*
X282059317Y-86119161D01*
X282275441Y-85980089D01*
X282420431Y-85767889D01*
X282424567Y-85747465D01*
X282593357Y-85916550D01*
X282704000Y-85962493D01*
X282704000Y-89693354D01*
X282652200Y-89714757D01*
X282248176Y-90118077D01*
X282029250Y-90645309D01*
X282028752Y-91216187D01*
X282246757Y-91743800D01*
X282650077Y-92147824D01*
X283177309Y-92366750D01*
X283748187Y-92367248D01*
X284275800Y-92149243D01*
X284679824Y-91745923D01*
X284898750Y-91218691D01*
X284899248Y-90647813D01*
X284681243Y-90120200D01*
X284277923Y-89716176D01*
X284224000Y-89693785D01*
X284224000Y-85962845D01*
X284332371Y-85918067D01*
X284764551Y-85486642D01*
X284998733Y-84922669D01*
X284999265Y-84312008D01*
X284766068Y-83747628D01*
X284734495Y-83715999D01*
X286488560Y-83715999D01*
X286488560Y-85515999D01*
X286532838Y-85751316D01*
X286671910Y-85967440D01*
X286884110Y-86112430D01*
X287136000Y-86163439D01*
X288936000Y-86163439D01*
X289171317Y-86119161D01*
X289387441Y-85980089D01*
X289532431Y-85767889D01*
X289536567Y-85747465D01*
X289705357Y-85916550D01*
X289816000Y-85962493D01*
X289816000Y-89693354D01*
X289764200Y-89714757D01*
X289360176Y-90118077D01*
X289141250Y-90645309D01*
X289140752Y-91216187D01*
X289358757Y-91743800D01*
X289762077Y-92147824D01*
X290289309Y-92366750D01*
X290860187Y-92367248D01*
X291387800Y-92149243D01*
X291791824Y-91745923D01*
X292010750Y-91218691D01*
X292011248Y-90647813D01*
X291793243Y-90120200D01*
X291389923Y-89716176D01*
X291336000Y-89693785D01*
X291336000Y-85962845D01*
X291444371Y-85918067D01*
X291876551Y-85486642D01*
X292110733Y-84922669D01*
X292111265Y-84312008D01*
X291878068Y-83747628D01*
X291446643Y-83315448D01*
X290882670Y-83081266D01*
X290272009Y-83080734D01*
X289707629Y-83313931D01*
X289539387Y-83481879D01*
X289539162Y-83480682D01*
X289400090Y-83264558D01*
X289187890Y-83119568D01*
X288936000Y-83068559D01*
X287136000Y-83068559D01*
X286900683Y-83112837D01*
X286684559Y-83251909D01*
X286539569Y-83464109D01*
X286488560Y-83715999D01*
X284734495Y-83715999D01*
X284334643Y-83315448D01*
X283770670Y-83081266D01*
X283160009Y-83080734D01*
X282595629Y-83313931D01*
X282427387Y-83481879D01*
X282427162Y-83480682D01*
X282288090Y-83264558D01*
X282075890Y-83119568D01*
X281824000Y-83068559D01*
X280024000Y-83068559D01*
X279788683Y-83112837D01*
X279572559Y-83251909D01*
X279427569Y-83464109D01*
X279376560Y-83715999D01*
X277622495Y-83715999D01*
X277222643Y-83315448D01*
X276658670Y-83081266D01*
X276048009Y-83080734D01*
X275483629Y-83313931D01*
X275315387Y-83481879D01*
X275315162Y-83480682D01*
X275176090Y-83264558D01*
X274963890Y-83119568D01*
X274712000Y-83068559D01*
X272912000Y-83068559D01*
X272676683Y-83112837D01*
X272460559Y-83251909D01*
X272315569Y-83464109D01*
X272264560Y-83715999D01*
X270510495Y-83715999D01*
X270110643Y-83315448D01*
X269546670Y-83081266D01*
X268936009Y-83080734D01*
X268371629Y-83313931D01*
X268203387Y-83481879D01*
X268203162Y-83480682D01*
X268064090Y-83264558D01*
X267851890Y-83119568D01*
X267600000Y-83068559D01*
X265800000Y-83068559D01*
X265564683Y-83112837D01*
X265348559Y-83251909D01*
X265203569Y-83464109D01*
X265152560Y-83715999D01*
X263507357Y-83715999D01*
X263107505Y-83315448D01*
X262543532Y-83081266D01*
X261932871Y-83080734D01*
X261368491Y-83313931D01*
X261200249Y-83481879D01*
X261200024Y-83480682D01*
X261060952Y-83264558D01*
X260848752Y-83119568D01*
X260596862Y-83068559D01*
X258796862Y-83068559D01*
X258561545Y-83112837D01*
X258345421Y-83251909D01*
X258200431Y-83464109D01*
X258149422Y-83715999D01*
X256504233Y-83715999D01*
X256104381Y-83315448D01*
X255540408Y-83081266D01*
X254929747Y-83080734D01*
X254365367Y-83313931D01*
X254197125Y-83481879D01*
X254196900Y-83480682D01*
X254057828Y-83264558D01*
X253845628Y-83119568D01*
X253593738Y-83068559D01*
X251793738Y-83068559D01*
X251558421Y-83112837D01*
X251342297Y-83251909D01*
X251197307Y-83464109D01*
X251146298Y-83715999D01*
X251146298Y-84963900D01*
X249652599Y-86457599D01*
X249487852Y-86704161D01*
X249430000Y-86995000D01*
X249430000Y-89920609D01*
X249225923Y-89716176D01*
X249172000Y-89693785D01*
X249172000Y-85845180D01*
X249531165Y-85486642D01*
X249765347Y-84922669D01*
X249765879Y-84312008D01*
X249532682Y-83747628D01*
X249101257Y-83315448D01*
X248537284Y-83081266D01*
X247926623Y-83080734D01*
X247362243Y-83313931D01*
X247194001Y-83481879D01*
X247193776Y-83480682D01*
X247054704Y-83264558D01*
X246842504Y-83119568D01*
X246590614Y-83068559D01*
X244790614Y-83068559D01*
X244555297Y-83112837D01*
X244339173Y-83251909D01*
X244194183Y-83464109D01*
X244143174Y-83715999D01*
X244143174Y-85515999D01*
X244187452Y-85751316D01*
X244326524Y-85967440D01*
X244538724Y-86112430D01*
X244790614Y-86163439D01*
X246590614Y-86163439D01*
X246825931Y-86119161D01*
X247042055Y-85980089D01*
X247187045Y-85767889D01*
X247191181Y-85747465D01*
X247359971Y-85916550D01*
X247652000Y-86037811D01*
X247652000Y-89693354D01*
X247600200Y-89714757D01*
X247196176Y-90118077D01*
X246977250Y-90645309D01*
X246976752Y-91216187D01*
X247194757Y-91743800D01*
X247598077Y-92147824D01*
X248125309Y-92366750D01*
X248696187Y-92367248D01*
X249223800Y-92149243D01*
X249430000Y-91943402D01*
X249430000Y-102594131D01*
X249426698Y-102589189D01*
X248961151Y-102278120D01*
X248412000Y-102168887D01*
X248088114Y-102233312D01*
X240245985Y-94391183D01*
X240246069Y-94294337D01*
X240097507Y-93934788D01*
X239822659Y-93659460D01*
X239463370Y-93510270D01*
X239074337Y-93509931D01*
X238714788Y-93658493D01*
X238439460Y-93933341D01*
X238290270Y-94292630D01*
X238289931Y-94681663D01*
X238438493Y-95041212D01*
X238713341Y-95316540D01*
X239072630Y-95465730D01*
X239171014Y-95465816D01*
X247032096Y-103326898D01*
X246977000Y-103603887D01*
X246977000Y-103660113D01*
X247086233Y-104209264D01*
X247397302Y-104674811D01*
X247862849Y-104985880D01*
X248201880Y-105053318D01*
X247970198Y-105285000D01*
X229870000Y-105285000D01*
X229579161Y-105342852D01*
X229332599Y-105507599D01*
X227920435Y-106919763D01*
X227668613Y-106815197D01*
X227217082Y-106814803D01*
X226799771Y-106987233D01*
X226480212Y-107306235D01*
X226307054Y-107723244D01*
X226306660Y-108174775D01*
X224848025Y-108174775D01*
X224750250Y-108077000D01*
X223901000Y-108077000D01*
X223901000Y-108097000D01*
X223647000Y-108097000D01*
X223647000Y-108077000D01*
X222797750Y-108077000D01*
X222772302Y-108102448D01*
X222730756Y-108085197D01*
X222368883Y-108084881D01*
X222369197Y-107725225D01*
X222203286Y-107323691D01*
X222639000Y-107323691D01*
X222639000Y-107664250D01*
X222797750Y-107823000D01*
X223647000Y-107823000D01*
X223647000Y-106973750D01*
X223901000Y-106973750D01*
X223901000Y-107823000D01*
X224750250Y-107823000D01*
X224909000Y-107664250D01*
X224909000Y-107323691D01*
X224812327Y-107090302D01*
X224633699Y-106911673D01*
X224400310Y-106815000D01*
X224059750Y-106815000D01*
X223901000Y-106973750D01*
X223647000Y-106973750D01*
X223488250Y-106815000D01*
X223147690Y-106815000D01*
X222914301Y-106911673D01*
X222735673Y-107090302D01*
X222639000Y-107323691D01*
X222203286Y-107323691D01*
X222196767Y-107307914D01*
X221994000Y-107104793D01*
X221994000Y-106934000D01*
X221936148Y-106643161D01*
X221771401Y-106396599D01*
X220469397Y-105094595D01*
X220472000Y-105095113D01*
X221021151Y-104985880D01*
X221486698Y-104674811D01*
X221797767Y-104209264D01*
X221907000Y-103660113D01*
X221907000Y-103603887D01*
X221797767Y-103054736D01*
X221486698Y-102589189D01*
X221021151Y-102278120D01*
X220472000Y-102168887D01*
X220148114Y-102233312D01*
X216369985Y-98455183D01*
X216370069Y-98358337D01*
X216221507Y-97998788D01*
X215952852Y-97729663D01*
X220001931Y-97729663D01*
X220150493Y-98089212D01*
X220425341Y-98364540D01*
X220784630Y-98513730D01*
X220883014Y-98513816D01*
X225696096Y-103326898D01*
X225641000Y-103603887D01*
X225641000Y-103660113D01*
X225750233Y-104209264D01*
X226061302Y-104674811D01*
X226526849Y-104985880D01*
X227076000Y-105095113D01*
X227625151Y-104985880D01*
X228090698Y-104674811D01*
X228401767Y-104209264D01*
X228511000Y-103660113D01*
X228511000Y-103603887D01*
X228401767Y-103054736D01*
X228090698Y-102589189D01*
X227625151Y-102278120D01*
X227076000Y-102168887D01*
X226752114Y-102233312D01*
X221957985Y-97439183D01*
X221958069Y-97342337D01*
X221809507Y-96982788D01*
X221540852Y-96713663D01*
X226097931Y-96713663D01*
X226246493Y-97073212D01*
X226521341Y-97348540D01*
X226880630Y-97497730D01*
X226979014Y-97497816D01*
X232808096Y-103326898D01*
X232753000Y-103603887D01*
X232753000Y-103660113D01*
X232862233Y-104209264D01*
X233173302Y-104674811D01*
X233638849Y-104985880D01*
X234188000Y-105095113D01*
X234737151Y-104985880D01*
X235202698Y-104674811D01*
X235513767Y-104209264D01*
X235623000Y-103660113D01*
X235623000Y-103603887D01*
X235513767Y-103054736D01*
X235202698Y-102589189D01*
X234737151Y-102278120D01*
X234188000Y-102168887D01*
X233864114Y-102233312D01*
X228053985Y-96423183D01*
X228054069Y-96326337D01*
X227905507Y-95966788D01*
X227636852Y-95697663D01*
X232193931Y-95697663D01*
X232342493Y-96057212D01*
X232617341Y-96332540D01*
X232976630Y-96481730D01*
X233075014Y-96481816D01*
X239920096Y-103326898D01*
X239865000Y-103603887D01*
X239865000Y-103660113D01*
X239974233Y-104209264D01*
X240285302Y-104674811D01*
X240750849Y-104985880D01*
X241300000Y-105095113D01*
X241849151Y-104985880D01*
X242314698Y-104674811D01*
X242625767Y-104209264D01*
X242735000Y-103660113D01*
X242735000Y-103603887D01*
X242625767Y-103054736D01*
X242314698Y-102589189D01*
X241849151Y-102278120D01*
X241300000Y-102168887D01*
X240976114Y-102233312D01*
X234149985Y-95407183D01*
X234150069Y-95310337D01*
X234001507Y-94950788D01*
X233726659Y-94675460D01*
X233367370Y-94526270D01*
X232978337Y-94525931D01*
X232618788Y-94674493D01*
X232343460Y-94949341D01*
X232194270Y-95308630D01*
X232193931Y-95697663D01*
X227636852Y-95697663D01*
X227630659Y-95691460D01*
X227271370Y-95542270D01*
X226882337Y-95541931D01*
X226522788Y-95690493D01*
X226247460Y-95965341D01*
X226098270Y-96324630D01*
X226097931Y-96713663D01*
X221540852Y-96713663D01*
X221534659Y-96707460D01*
X221175370Y-96558270D01*
X220786337Y-96557931D01*
X220426788Y-96706493D01*
X220151460Y-96981341D01*
X220002270Y-97340630D01*
X220001931Y-97729663D01*
X215952852Y-97729663D01*
X215946659Y-97723460D01*
X215587370Y-97574270D01*
X215198337Y-97573931D01*
X214838788Y-97722493D01*
X214628000Y-97932914D01*
X214628000Y-95818802D01*
X217961401Y-92485401D01*
X218126148Y-92238840D01*
X218145138Y-92143370D01*
X218184000Y-91948000D01*
X218184000Y-86334919D01*
X218215519Y-86303400D01*
X218309038Y-86163439D01*
X218578118Y-86163439D01*
X218813435Y-86119161D01*
X219029559Y-85980089D01*
X219174549Y-85767889D01*
X219178685Y-85747465D01*
X219347475Y-85916550D01*
X219458118Y-85962493D01*
X219458118Y-89916487D01*
X219256176Y-90118077D01*
X219037250Y-90645309D01*
X219036752Y-91216187D01*
X219254757Y-91743800D01*
X219658077Y-92147824D01*
X220185309Y-92366750D01*
X220756187Y-92367248D01*
X221283800Y-92149243D01*
X221687824Y-91745923D01*
X221906750Y-91218691D01*
X221907248Y-90647813D01*
X221689243Y-90120200D01*
X221285923Y-89716176D01*
X220978118Y-89588364D01*
X220978118Y-85962845D01*
X221086489Y-85918067D01*
X221518669Y-85486642D01*
X221752851Y-84922669D01*
X221753383Y-84312008D01*
X221520186Y-83747628D01*
X221488613Y-83715999D01*
X223133802Y-83715999D01*
X223133802Y-85515999D01*
X223178080Y-85751316D01*
X223317152Y-85967440D01*
X223529352Y-86112430D01*
X223781242Y-86163439D01*
X225581242Y-86163439D01*
X225816559Y-86119161D01*
X226032683Y-85980089D01*
X226177673Y-85767889D01*
X226181809Y-85747465D01*
X226350599Y-85916550D01*
X226461242Y-85962493D01*
X226461242Y-89633341D01*
X226264200Y-89714757D01*
X225860176Y-90118077D01*
X225641250Y-90645309D01*
X225640752Y-91216187D01*
X225858757Y-91743800D01*
X226262077Y-92147824D01*
X226789309Y-92366750D01*
X227360187Y-92367248D01*
X227887800Y-92149243D01*
X228291824Y-91745923D01*
X228510750Y-91218691D01*
X228511248Y-90647813D01*
X228293243Y-90120200D01*
X227981242Y-89807654D01*
X227981242Y-85962845D01*
X228089613Y-85918067D01*
X228521793Y-85486642D01*
X228755975Y-84922669D01*
X228756507Y-84312008D01*
X228523310Y-83747628D01*
X228491737Y-83715999D01*
X230136926Y-83715999D01*
X230136926Y-85515999D01*
X230181204Y-85751316D01*
X230320276Y-85967440D01*
X230532476Y-86112430D01*
X230784366Y-86163439D01*
X232584366Y-86163439D01*
X232819683Y-86119161D01*
X233035807Y-85980089D01*
X233180797Y-85767889D01*
X233184933Y-85747465D01*
X233353723Y-85916550D01*
X233428000Y-85947392D01*
X233428000Y-89693354D01*
X233376200Y-89714757D01*
X232972176Y-90118077D01*
X232753250Y-90645309D01*
X232752752Y-91216187D01*
X232970757Y-91743800D01*
X233374077Y-92147824D01*
X233901309Y-92366750D01*
X234472187Y-92367248D01*
X234999800Y-92149243D01*
X235403824Y-91745923D01*
X235622750Y-91218691D01*
X235623248Y-90647813D01*
X235405243Y-90120200D01*
X235001923Y-89716176D01*
X234948000Y-89693785D01*
X234948000Y-85977871D01*
X235092737Y-85918067D01*
X235524917Y-85486642D01*
X235759099Y-84922669D01*
X235759631Y-84312008D01*
X235526434Y-83747628D01*
X235494861Y-83715999D01*
X237140050Y-83715999D01*
X237140050Y-85515999D01*
X237184328Y-85751316D01*
X237323400Y-85967440D01*
X237535600Y-86112430D01*
X237787490Y-86163439D01*
X239587490Y-86163439D01*
X239822807Y-86119161D01*
X240038931Y-85980089D01*
X240183921Y-85767889D01*
X240188057Y-85747465D01*
X240356847Y-85916550D01*
X240540000Y-85992602D01*
X240540000Y-89693354D01*
X240488200Y-89714757D01*
X240084176Y-90118077D01*
X239865250Y-90645309D01*
X239864752Y-91216187D01*
X240082757Y-91743800D01*
X240486077Y-92147824D01*
X241013309Y-92366750D01*
X241584187Y-92367248D01*
X242111800Y-92149243D01*
X242515824Y-91745923D01*
X242734750Y-91218691D01*
X242735248Y-90647813D01*
X242517243Y-90120200D01*
X242113923Y-89716176D01*
X242060000Y-89693785D01*
X242060000Y-85932884D01*
X242095861Y-85918067D01*
X242528041Y-85486642D01*
X242762223Y-84922669D01*
X242762755Y-84312008D01*
X242529558Y-83747628D01*
X242098133Y-83315448D01*
X241534160Y-83081266D01*
X240923499Y-83080734D01*
X240359119Y-83313931D01*
X240190877Y-83481879D01*
X240190652Y-83480682D01*
X240051580Y-83264558D01*
X239839380Y-83119568D01*
X239587490Y-83068559D01*
X237787490Y-83068559D01*
X237552173Y-83112837D01*
X237336049Y-83251909D01*
X237191059Y-83464109D01*
X237140050Y-83715999D01*
X235494861Y-83715999D01*
X235095009Y-83315448D01*
X234531036Y-83081266D01*
X233920375Y-83080734D01*
X233355995Y-83313931D01*
X233187753Y-83481879D01*
X233187528Y-83480682D01*
X233048456Y-83264558D01*
X232836256Y-83119568D01*
X232584366Y-83068559D01*
X230784366Y-83068559D01*
X230549049Y-83112837D01*
X230332925Y-83251909D01*
X230187935Y-83464109D01*
X230136926Y-83715999D01*
X228491737Y-83715999D01*
X228091885Y-83315448D01*
X227527912Y-83081266D01*
X226917251Y-83080734D01*
X226352871Y-83313931D01*
X226184629Y-83481879D01*
X226184404Y-83480682D01*
X226045332Y-83264558D01*
X225833132Y-83119568D01*
X225581242Y-83068559D01*
X223781242Y-83068559D01*
X223545925Y-83112837D01*
X223329801Y-83251909D01*
X223184811Y-83464109D01*
X223133802Y-83715999D01*
X221488613Y-83715999D01*
X221088761Y-83315448D01*
X220524788Y-83081266D01*
X219914127Y-83080734D01*
X219349747Y-83313931D01*
X219181505Y-83481879D01*
X219181280Y-83480682D01*
X219042208Y-83264558D01*
X218830008Y-83119568D01*
X218578118Y-83068559D01*
X216778118Y-83068559D01*
X216542801Y-83112837D01*
X216326677Y-83251909D01*
X216181687Y-83464109D01*
X216130678Y-83715999D01*
X216130678Y-85515999D01*
X216174956Y-85751316D01*
X216314028Y-85967440D01*
X216526228Y-86112430D01*
X216664000Y-86140330D01*
X216664000Y-91633198D01*
X213330599Y-94966599D01*
X213165852Y-95213161D01*
X213108000Y-95504000D01*
X213108000Y-99568000D01*
X213165852Y-99858839D01*
X213330599Y-100105401D01*
X220402007Y-107176809D01*
X220272355Y-107306235D01*
X220099197Y-107723244D01*
X220098803Y-108174775D01*
X220271233Y-108592086D01*
X220590235Y-108911645D01*
X221007244Y-109084803D01*
X221369117Y-109085119D01*
X221368803Y-109444775D01*
X221541233Y-109862086D01*
X221860235Y-110181645D01*
X222277244Y-110354803D01*
X222728775Y-110355197D01*
X223146086Y-110182767D01*
X223349207Y-109980000D01*
X223713198Y-109980000D01*
X229179915Y-115446717D01*
X229168285Y-115438946D01*
X228600000Y-115325907D01*
X228031715Y-115438946D01*
X227549946Y-115760853D01*
X227330000Y-116090026D01*
X227110054Y-115760853D01*
X226628285Y-115438946D01*
X226060000Y-115325907D01*
X225491715Y-115438946D01*
X225009946Y-115760853D01*
X224790000Y-116090026D01*
X224570054Y-115760853D01*
X224088285Y-115438946D01*
X223520000Y-115325907D01*
X223010000Y-115427352D01*
X223010000Y-115173857D01*
X222952148Y-114883018D01*
X222952148Y-114883017D01*
X222787401Y-114636456D01*
X217431091Y-109280146D01*
X217431340Y-108995225D01*
X217413454Y-108951939D01*
X217439143Y-108926250D01*
X217439143Y-108077000D01*
X217693143Y-108077000D01*
X217693143Y-108926250D01*
X217851893Y-109085000D01*
X218192453Y-109085000D01*
X218425842Y-108988327D01*
X218604470Y-108809698D01*
X218701143Y-108576309D01*
X218701143Y-108235750D01*
X218542393Y-108077000D01*
X217693143Y-108077000D01*
X217439143Y-108077000D01*
X216589893Y-108077000D01*
X216564445Y-108102448D01*
X216522899Y-108085197D01*
X216161026Y-108084881D01*
X216161340Y-107725225D01*
X215995429Y-107323691D01*
X216431143Y-107323691D01*
X216431143Y-107664250D01*
X216589893Y-107823000D01*
X217439143Y-107823000D01*
X217439143Y-106973750D01*
X217693143Y-106973750D01*
X217693143Y-107823000D01*
X218542393Y-107823000D01*
X218701143Y-107664250D01*
X218701143Y-107323691D01*
X218604470Y-107090302D01*
X218425842Y-106911673D01*
X218192453Y-106815000D01*
X217851893Y-106815000D01*
X217693143Y-106973750D01*
X217439143Y-106973750D01*
X217280393Y-106815000D01*
X216939833Y-106815000D01*
X216706444Y-106911673D01*
X216527816Y-107090302D01*
X216431143Y-107323691D01*
X215995429Y-107323691D01*
X215988910Y-107307914D01*
X215669908Y-106988355D01*
X215252899Y-106815197D01*
X214965892Y-106814947D01*
X213217766Y-105066821D01*
X213360000Y-105095113D01*
X213909151Y-104985880D01*
X214374698Y-104674811D01*
X214685767Y-104209264D01*
X214795000Y-103660113D01*
X214795000Y-103603887D01*
X214685767Y-103054736D01*
X214374698Y-102589189D01*
X213909151Y-102278120D01*
X213360000Y-102168887D01*
X213036114Y-102233312D01*
X210273985Y-99471183D01*
X210274069Y-99374337D01*
X210125507Y-99014788D01*
X209850659Y-98739460D01*
X209491370Y-98590270D01*
X209102337Y-98589931D01*
X208742788Y-98738493D01*
X208467460Y-99013341D01*
X208318270Y-99372630D01*
X208317931Y-99761663D01*
X208466493Y-100121212D01*
X208741341Y-100396540D01*
X209100630Y-100545730D01*
X209199014Y-100545816D01*
X211980096Y-103326898D01*
X211925000Y-103603887D01*
X211925000Y-103660113D01*
X211953292Y-103802347D01*
X202944000Y-94793055D01*
X202944000Y-92571080D01*
X203012540Y-92502659D01*
X203161730Y-92143370D01*
X203162069Y-91754337D01*
X203013507Y-91394788D01*
X202738659Y-91119460D01*
X202379370Y-90970270D01*
X201990337Y-90969931D01*
X201630788Y-91118493D01*
X201355460Y-91393341D01*
X201206270Y-91752630D01*
X201205931Y-92141663D01*
X201299081Y-92367103D01*
X201101337Y-92366931D01*
X200741788Y-92515493D01*
X200466460Y-92790341D01*
X200317270Y-93149630D01*
X200316931Y-93538663D01*
X200465493Y-93898212D01*
X200535000Y-93967840D01*
X200535000Y-94604181D01*
X200347370Y-94526270D01*
X199958337Y-94525931D01*
X199598788Y-94674493D01*
X199323460Y-94949341D01*
X199174270Y-95308630D01*
X199174184Y-95407014D01*
X192347886Y-102233312D01*
X192024000Y-102168887D01*
X191474849Y-102278120D01*
X191009302Y-102589189D01*
X190698233Y-103054736D01*
X190589000Y-103603887D01*
X186855000Y-103603887D01*
X186799904Y-103326898D01*
X192628817Y-97497985D01*
X192725663Y-97498069D01*
X193085212Y-97349507D01*
X193360540Y-97074659D01*
X193509730Y-96715370D01*
X193510069Y-96326337D01*
X193361507Y-95966788D01*
X193086659Y-95691460D01*
X192727370Y-95542270D01*
X192338337Y-95541931D01*
X191978788Y-95690493D01*
X191703460Y-95965341D01*
X191554270Y-96324630D01*
X191554184Y-96423014D01*
X185743886Y-102233312D01*
X185420000Y-102168887D01*
X184870849Y-102278120D01*
X184405302Y-102589189D01*
X184094233Y-103054736D01*
X183985000Y-103603887D01*
X179743000Y-103603887D01*
X179687904Y-103326898D01*
X184564318Y-98450484D01*
X184716630Y-98513730D01*
X185105663Y-98514069D01*
X185465212Y-98365507D01*
X185740540Y-98090659D01*
X185889730Y-97731370D01*
X185890069Y-97342337D01*
X185741507Y-96982788D01*
X185466659Y-96707460D01*
X185107370Y-96558270D01*
X184718337Y-96557931D01*
X184358788Y-96706493D01*
X184260582Y-96804528D01*
X184113161Y-96833852D01*
X183866599Y-96998599D01*
X178631886Y-102233312D01*
X178308000Y-102168887D01*
X177758849Y-102278120D01*
X177293302Y-102589189D01*
X176982233Y-103054736D01*
X176873000Y-103603887D01*
X172631000Y-103603887D01*
X172575904Y-103326898D01*
X176372817Y-99529985D01*
X176469663Y-99530069D01*
X176829212Y-99381507D01*
X177104540Y-99106659D01*
X177253730Y-98747370D01*
X177254069Y-98358337D01*
X177105507Y-97998788D01*
X176830659Y-97723460D01*
X176471370Y-97574270D01*
X176082337Y-97573931D01*
X175722788Y-97722493D01*
X175447460Y-97997341D01*
X175298270Y-98356630D01*
X175298184Y-98455014D01*
X171519886Y-102233312D01*
X171196000Y-102168887D01*
X170646849Y-102278120D01*
X170181302Y-102589189D01*
X169870233Y-103054736D01*
X169761000Y-103603887D01*
X165519000Y-103603887D01*
X165463904Y-103326898D01*
X168244817Y-100545985D01*
X168341663Y-100546069D01*
X168701212Y-100397507D01*
X168976540Y-100122659D01*
X169125730Y-99763370D01*
X169126069Y-99374337D01*
X168977507Y-99014788D01*
X168702659Y-98739460D01*
X168343370Y-98590270D01*
X167954337Y-98589931D01*
X167594788Y-98738493D01*
X167319460Y-99013341D01*
X167170270Y-99372630D01*
X167170184Y-99471014D01*
X164407886Y-102233312D01*
X164084000Y-102168887D01*
X163534849Y-102278120D01*
X163069302Y-102589189D01*
X162758233Y-103054736D01*
X162649000Y-103603887D01*
X158407000Y-103603887D01*
X158297767Y-103054736D01*
X157986698Y-102589189D01*
X157521151Y-102278120D01*
X156972000Y-102168887D01*
X156422849Y-102278120D01*
X155957302Y-102589189D01*
X155646233Y-103054736D01*
X155537000Y-103603887D01*
X146125000Y-103603887D01*
X146125000Y-83715999D01*
X153102562Y-83715999D01*
X153102562Y-85515999D01*
X153146840Y-85751316D01*
X153285912Y-85967440D01*
X153498112Y-86112430D01*
X153750002Y-86163439D01*
X155550002Y-86163439D01*
X155785319Y-86119161D01*
X156001443Y-85980089D01*
X156146433Y-85767889D01*
X156150569Y-85747465D01*
X156212000Y-85809003D01*
X156212000Y-89693354D01*
X156160200Y-89714757D01*
X155756176Y-90118077D01*
X155537250Y-90645309D01*
X155536752Y-91216187D01*
X155754757Y-91743800D01*
X156158077Y-92147824D01*
X156685309Y-92366750D01*
X157256187Y-92367248D01*
X157783800Y-92149243D01*
X158187824Y-91745923D01*
X158406750Y-91218691D01*
X158407248Y-90647813D01*
X158189243Y-90120200D01*
X157785923Y-89716176D01*
X157732000Y-89693785D01*
X157732000Y-86052922D01*
X158058373Y-85918067D01*
X158490553Y-85486642D01*
X158724735Y-84922669D01*
X158725267Y-84312008D01*
X158492070Y-83747628D01*
X158460497Y-83715999D01*
X160105686Y-83715999D01*
X160105686Y-85515999D01*
X160149964Y-85751316D01*
X160289036Y-85967440D01*
X160501236Y-86112430D01*
X160753126Y-86163439D01*
X162553126Y-86163439D01*
X162788443Y-86119161D01*
X163004567Y-85980089D01*
X163149557Y-85767889D01*
X163153693Y-85747465D01*
X163322483Y-85916550D01*
X163324000Y-85917180D01*
X163324000Y-89693354D01*
X163272200Y-89714757D01*
X162868176Y-90118077D01*
X162649250Y-90645309D01*
X162648752Y-91216187D01*
X162866757Y-91743800D01*
X163270077Y-92147824D01*
X163797309Y-92366750D01*
X164368187Y-92367248D01*
X164895800Y-92149243D01*
X165299824Y-91745923D01*
X165518750Y-91218691D01*
X165519248Y-90647813D01*
X165301243Y-90120200D01*
X164897923Y-89716176D01*
X164844000Y-89693785D01*
X164844000Y-86007935D01*
X165061497Y-85918067D01*
X165493677Y-85486642D01*
X165727859Y-84922669D01*
X165728391Y-84312008D01*
X165495194Y-83747628D01*
X165463621Y-83715999D01*
X167108810Y-83715999D01*
X167108810Y-85515999D01*
X167153088Y-85751316D01*
X167292160Y-85967440D01*
X167504360Y-86112430D01*
X167756250Y-86163439D01*
X169556250Y-86163439D01*
X169791567Y-86119161D01*
X170007691Y-85980089D01*
X170152681Y-85767889D01*
X170156817Y-85747465D01*
X170325607Y-85916550D01*
X170436000Y-85962389D01*
X170436000Y-89693354D01*
X170384200Y-89714757D01*
X169980176Y-90118077D01*
X169761250Y-90645309D01*
X169760752Y-91216187D01*
X169978757Y-91743800D01*
X170382077Y-92147824D01*
X170909309Y-92366750D01*
X171480187Y-92367248D01*
X172007800Y-92149243D01*
X172411824Y-91745923D01*
X172630750Y-91218691D01*
X172631248Y-90647813D01*
X172413243Y-90120200D01*
X172009923Y-89716176D01*
X171956000Y-89693785D01*
X171956000Y-85962948D01*
X172064621Y-85918067D01*
X172496801Y-85486642D01*
X172730983Y-84922669D01*
X172731515Y-84312008D01*
X172498318Y-83747628D01*
X172466745Y-83715999D01*
X174003058Y-83715999D01*
X174003058Y-85515999D01*
X174047336Y-85751316D01*
X174186408Y-85967440D01*
X174398608Y-86112430D01*
X174650498Y-86163439D01*
X176450498Y-86163439D01*
X176685815Y-86119161D01*
X176901939Y-85980089D01*
X177046929Y-85767889D01*
X177051065Y-85747465D01*
X177219855Y-85916550D01*
X177548000Y-86052808D01*
X177548000Y-89693354D01*
X177496200Y-89714757D01*
X177092176Y-90118077D01*
X176873250Y-90645309D01*
X176872752Y-91216187D01*
X177090757Y-91743800D01*
X177494077Y-92147824D01*
X178021309Y-92366750D01*
X178592187Y-92367248D01*
X179119800Y-92149243D01*
X179523824Y-91745923D01*
X179742750Y-91218691D01*
X179743248Y-90647813D01*
X179525243Y-90120200D01*
X179121923Y-89716176D01*
X179068000Y-89693785D01*
X179068000Y-85809127D01*
X179391049Y-85486642D01*
X179625231Y-84922669D01*
X179625763Y-84312008D01*
X179392566Y-83747628D01*
X179360993Y-83715999D01*
X181115058Y-83715999D01*
X181115058Y-85515999D01*
X181159336Y-85751316D01*
X181298408Y-85967440D01*
X181510608Y-86112430D01*
X181762498Y-86163439D01*
X183562498Y-86163439D01*
X183797815Y-86119161D01*
X184013939Y-85980089D01*
X184158929Y-85767889D01*
X184163065Y-85747465D01*
X184331855Y-85916550D01*
X184660000Y-86052808D01*
X184660000Y-89693354D01*
X184608200Y-89714757D01*
X184204176Y-90118077D01*
X183985250Y-90645309D01*
X183984752Y-91216187D01*
X184202757Y-91743800D01*
X184606077Y-92147824D01*
X185133309Y-92366750D01*
X185704187Y-92367248D01*
X186231800Y-92149243D01*
X186635824Y-91745923D01*
X186854750Y-91218691D01*
X186855248Y-90647813D01*
X186637243Y-90120200D01*
X186233923Y-89716176D01*
X186180000Y-89693785D01*
X186180000Y-85809127D01*
X186503049Y-85486642D01*
X186737231Y-84922669D01*
X186737763Y-84312008D01*
X186504566Y-83747628D01*
X186472993Y-83715999D01*
X188118182Y-83715999D01*
X188118182Y-85515999D01*
X188162460Y-85751316D01*
X188301532Y-85967440D01*
X188513732Y-86112430D01*
X188765622Y-86163439D01*
X190565622Y-86163439D01*
X190800939Y-86119161D01*
X191017063Y-85980089D01*
X191162053Y-85767889D01*
X191166189Y-85747465D01*
X191264000Y-85845447D01*
X191264000Y-89693354D01*
X191212200Y-89714757D01*
X190808176Y-90118077D01*
X190589250Y-90645309D01*
X190588752Y-91216187D01*
X190806757Y-91743800D01*
X191210077Y-92147824D01*
X191737309Y-92366750D01*
X192308187Y-92367248D01*
X192835800Y-92149243D01*
X193239824Y-91745923D01*
X193458750Y-91218691D01*
X193459248Y-90647813D01*
X193241243Y-90120200D01*
X192837923Y-89716176D01*
X192784000Y-89693785D01*
X192784000Y-86037890D01*
X193073993Y-85918067D01*
X193506173Y-85486642D01*
X193740355Y-84922669D01*
X193740887Y-84312008D01*
X193507690Y-83747628D01*
X193476117Y-83715999D01*
X195121306Y-83715999D01*
X195121306Y-85515999D01*
X195165584Y-85751316D01*
X195304656Y-85967440D01*
X195516856Y-86112430D01*
X195768746Y-86163439D01*
X197568746Y-86163439D01*
X197804063Y-86119161D01*
X198020187Y-85980089D01*
X198165177Y-85767889D01*
X198169313Y-85747465D01*
X198338103Y-85916550D01*
X198376000Y-85932286D01*
X198376000Y-89693354D01*
X198324200Y-89714757D01*
X197920176Y-90118077D01*
X197701250Y-90645309D01*
X197700752Y-91216187D01*
X197918757Y-91743800D01*
X198322077Y-92147824D01*
X198849309Y-92366750D01*
X199420187Y-92367248D01*
X199947800Y-92149243D01*
X200351824Y-91745923D01*
X200570750Y-91218691D01*
X200571248Y-90647813D01*
X200353243Y-90120200D01*
X199949923Y-89716176D01*
X199896000Y-89693785D01*
X199896000Y-85992903D01*
X200077117Y-85918067D01*
X200509297Y-85486642D01*
X200743479Y-84922669D01*
X200744011Y-84312008D01*
X200510814Y-83747628D01*
X200479241Y-83715999D01*
X202160560Y-83715999D01*
X202160560Y-85515999D01*
X202204838Y-85751316D01*
X202343910Y-85967440D01*
X202556110Y-86112430D01*
X202808000Y-86163439D01*
X204608000Y-86163439D01*
X204843317Y-86119161D01*
X205059441Y-85980089D01*
X205204431Y-85767889D01*
X205208567Y-85747465D01*
X205377357Y-85916550D01*
X205488000Y-85962493D01*
X205488000Y-89693354D01*
X205436200Y-89714757D01*
X205032176Y-90118077D01*
X204813250Y-90645309D01*
X204812752Y-91216187D01*
X205030757Y-91743800D01*
X205434077Y-92147824D01*
X205961309Y-92366750D01*
X206532187Y-92367248D01*
X207059800Y-92149243D01*
X207463824Y-91745923D01*
X207682750Y-91218691D01*
X207683248Y-90647813D01*
X207465243Y-90120200D01*
X207061923Y-89716176D01*
X207008000Y-89693785D01*
X207008000Y-85962845D01*
X207116371Y-85918067D01*
X207548551Y-85486642D01*
X207782733Y-84922669D01*
X207783265Y-84312008D01*
X207550068Y-83747628D01*
X207518495Y-83715999D01*
X209127554Y-83715999D01*
X209127554Y-85515999D01*
X209171832Y-85751316D01*
X209310904Y-85967440D01*
X209523104Y-86112430D01*
X209774994Y-86163439D01*
X211574994Y-86163439D01*
X211810311Y-86119161D01*
X212026435Y-85980089D01*
X212171425Y-85767889D01*
X212175561Y-85747465D01*
X212344351Y-85916550D01*
X212600000Y-86022705D01*
X212600000Y-89693354D01*
X212548200Y-89714757D01*
X212144176Y-90118077D01*
X211925250Y-90645309D01*
X211924752Y-91216187D01*
X212142757Y-91743800D01*
X212546077Y-92147824D01*
X213073309Y-92366750D01*
X213644187Y-92367248D01*
X214171800Y-92149243D01*
X214575824Y-91745923D01*
X214794750Y-91218691D01*
X214795248Y-90647813D01*
X214577243Y-90120200D01*
X214173923Y-89716176D01*
X214120000Y-89693785D01*
X214120000Y-85881496D01*
X214515545Y-85486642D01*
X214749727Y-84922669D01*
X214750259Y-84312008D01*
X214517062Y-83747628D01*
X214085637Y-83315448D01*
X213521664Y-83081266D01*
X212911003Y-83080734D01*
X212346623Y-83313931D01*
X212178381Y-83481879D01*
X212178156Y-83480682D01*
X212039084Y-83264558D01*
X211826884Y-83119568D01*
X211574994Y-83068559D01*
X209774994Y-83068559D01*
X209539677Y-83112837D01*
X209323553Y-83251909D01*
X209178563Y-83464109D01*
X209127554Y-83715999D01*
X207518495Y-83715999D01*
X207118643Y-83315448D01*
X206554670Y-83081266D01*
X205944009Y-83080734D01*
X205379629Y-83313931D01*
X205211387Y-83481879D01*
X205211162Y-83480682D01*
X205072090Y-83264558D01*
X204859890Y-83119568D01*
X204608000Y-83068559D01*
X202808000Y-83068559D01*
X202572683Y-83112837D01*
X202356559Y-83251909D01*
X202211569Y-83464109D01*
X202160560Y-83715999D01*
X200479241Y-83715999D01*
X200079389Y-83315448D01*
X199515416Y-83081266D01*
X198904755Y-83080734D01*
X198340375Y-83313931D01*
X198172133Y-83481879D01*
X198171908Y-83480682D01*
X198032836Y-83264558D01*
X197820636Y-83119568D01*
X197568746Y-83068559D01*
X195768746Y-83068559D01*
X195533429Y-83112837D01*
X195317305Y-83251909D01*
X195172315Y-83464109D01*
X195121306Y-83715999D01*
X193476117Y-83715999D01*
X193076265Y-83315448D01*
X192512292Y-83081266D01*
X191901631Y-83080734D01*
X191337251Y-83313931D01*
X191169009Y-83481879D01*
X191168784Y-83480682D01*
X191029712Y-83264558D01*
X190817512Y-83119568D01*
X190565622Y-83068559D01*
X188765622Y-83068559D01*
X188530305Y-83112837D01*
X188314181Y-83251909D01*
X188169191Y-83464109D01*
X188118182Y-83715999D01*
X186472993Y-83715999D01*
X186073141Y-83315448D01*
X185509168Y-83081266D01*
X184898507Y-83080734D01*
X184334127Y-83313931D01*
X184165885Y-83481879D01*
X184165660Y-83480682D01*
X184026588Y-83264558D01*
X183814388Y-83119568D01*
X183562498Y-83068559D01*
X181762498Y-83068559D01*
X181527181Y-83112837D01*
X181311057Y-83251909D01*
X181166067Y-83464109D01*
X181115058Y-83715999D01*
X179360993Y-83715999D01*
X178961141Y-83315448D01*
X178397168Y-83081266D01*
X177786507Y-83080734D01*
X177222127Y-83313931D01*
X177053885Y-83481879D01*
X177053660Y-83480682D01*
X176914588Y-83264558D01*
X176702388Y-83119568D01*
X176450498Y-83068559D01*
X174650498Y-83068559D01*
X174415181Y-83112837D01*
X174199057Y-83251909D01*
X174054067Y-83464109D01*
X174003058Y-83715999D01*
X172466745Y-83715999D01*
X172066893Y-83315448D01*
X171502920Y-83081266D01*
X170892259Y-83080734D01*
X170327879Y-83313931D01*
X170159637Y-83481879D01*
X170159412Y-83480682D01*
X170020340Y-83264558D01*
X169808140Y-83119568D01*
X169556250Y-83068559D01*
X167756250Y-83068559D01*
X167520933Y-83112837D01*
X167304809Y-83251909D01*
X167159819Y-83464109D01*
X167108810Y-83715999D01*
X165463621Y-83715999D01*
X165063769Y-83315448D01*
X164499796Y-83081266D01*
X163889135Y-83080734D01*
X163324755Y-83313931D01*
X163156513Y-83481879D01*
X163156288Y-83480682D01*
X163017216Y-83264558D01*
X162805016Y-83119568D01*
X162553126Y-83068559D01*
X160753126Y-83068559D01*
X160517809Y-83112837D01*
X160301685Y-83251909D01*
X160156695Y-83464109D01*
X160105686Y-83715999D01*
X158460497Y-83715999D01*
X158060645Y-83315448D01*
X157496672Y-83081266D01*
X156886011Y-83080734D01*
X156321631Y-83313931D01*
X156153389Y-83481879D01*
X156153164Y-83480682D01*
X156014092Y-83264558D01*
X155801892Y-83119568D01*
X155550002Y-83068559D01*
X153750002Y-83068559D01*
X153514685Y-83112837D01*
X153298561Y-83251909D01*
X153153571Y-83464109D01*
X153102562Y-83715999D01*
X146125000Y-83715999D01*
X146125000Y-79400462D01*
X146524422Y-79400462D01*
X147031076Y-80626658D01*
X147968407Y-81565627D01*
X149193717Y-82074420D01*
X150520462Y-82075578D01*
X151746658Y-81568924D01*
X152685627Y-80631593D01*
X153194420Y-79406283D01*
X153194425Y-79400462D01*
X291050422Y-79400462D01*
X291557076Y-80626658D01*
X292494407Y-81565627D01*
X293719717Y-82074420D01*
X295046462Y-82075578D01*
X296272658Y-81568924D01*
X297211627Y-80631593D01*
X297720420Y-79406283D01*
X297721578Y-78079538D01*
X297214924Y-76853342D01*
X296277593Y-75914373D01*
X295052283Y-75405580D01*
X293725538Y-75404422D01*
X292499342Y-75911076D01*
X291560373Y-76848407D01*
X291051580Y-78073717D01*
X291050422Y-79400462D01*
X153194425Y-79400462D01*
X153195578Y-78079538D01*
X152688924Y-76853342D01*
X151751593Y-75914373D01*
X150526283Y-75405580D01*
X149199538Y-75404422D01*
X147973342Y-75911076D01*
X147034373Y-76848407D01*
X146525580Y-78073717D01*
X146524422Y-79400462D01*
X146125000Y-79400462D01*
X146125000Y-76904931D01*
X146277152Y-76140011D01*
X146670830Y-75550830D01*
X147260280Y-75156972D01*
X148020827Y-75005000D01*
X296856069Y-75005000D01*
X297377984Y-75108815D01*
X297377984Y-75108815D01*
G37*
X297377984Y-75108815D02*
X297761157Y-75364844D01*
X298017185Y-75748015D01*
X298121000Y-76269931D01*
X298121000Y-104705069D01*
X298017185Y-105226985D01*
X297761157Y-105610156D01*
X297377984Y-105866185D01*
X296856069Y-105970000D01*
X254025400Y-105970000D01*
X253950854Y-105984828D01*
X253158328Y-106129747D01*
X252902388Y-106235761D01*
X252284745Y-106648456D01*
X252235297Y-106697904D01*
X252177154Y-106736754D01*
X237469200Y-121444708D01*
X237027130Y-121740089D01*
X236499707Y-121845000D01*
X207740331Y-121845000D01*
X207218415Y-121741185D01*
X206781012Y-121448920D01*
X200292554Y-114960462D01*
X201642422Y-114960462D01*
X202149076Y-116186658D01*
X203086407Y-117125627D01*
X204311717Y-117634420D01*
X205638462Y-117635578D01*
X206864658Y-117128924D01*
X207803627Y-116191593D01*
X208312420Y-114966283D01*
X208313578Y-113639538D01*
X207806924Y-112413342D01*
X206869593Y-111474373D01*
X205644283Y-110965580D01*
X204317538Y-110964422D01*
X203091342Y-111471076D01*
X202152373Y-112408407D01*
X201643580Y-113633717D01*
X201642422Y-114960462D01*
X200292554Y-114960462D01*
X192068846Y-106736754D01*
X192015751Y-106701277D01*
X191962093Y-106647619D01*
X191344068Y-106234666D01*
X191194140Y-106172564D01*
X191088126Y-106128651D01*
X190359114Y-105983642D01*
X190289184Y-105983642D01*
X190220600Y-105970000D01*
X147389931Y-105970000D01*
X146868015Y-105866185D01*
X146484844Y-105610157D01*
X146228815Y-105226984D01*
X146125000Y-104705069D01*
X146125000Y-103603887D01*
X155537000Y-103603887D01*
X155537000Y-103660113D01*
X155646233Y-104209264D01*
X155957302Y-104674811D01*
X156422849Y-104985880D01*
X156972000Y-105095113D01*
X157521151Y-104985880D01*
X157986698Y-104674811D01*
X158297767Y-104209264D01*
X158407000Y-103660113D01*
X158407000Y-103603887D01*
X162649000Y-103603887D01*
X162649000Y-103660113D01*
X162758233Y-104209264D01*
X163069302Y-104674811D01*
X163534849Y-104985880D01*
X164084000Y-105095113D01*
X164633151Y-104985880D01*
X165098698Y-104674811D01*
X165409767Y-104209264D01*
X165519000Y-103660113D01*
X165519000Y-103603887D01*
X169761000Y-103603887D01*
X169761000Y-103660113D01*
X169870233Y-104209264D01*
X170181302Y-104674811D01*
X170646849Y-104985880D01*
X171196000Y-105095113D01*
X171745151Y-104985880D01*
X172210698Y-104674811D01*
X172521767Y-104209264D01*
X172631000Y-103660113D01*
X172631000Y-103603887D01*
X176873000Y-103603887D01*
X176873000Y-103660113D01*
X176982233Y-104209264D01*
X177293302Y-104674811D01*
X177758849Y-104985880D01*
X178308000Y-105095113D01*
X178857151Y-104985880D01*
X179322698Y-104674811D01*
X179633767Y-104209264D01*
X179743000Y-103660113D01*
X179743000Y-103603887D01*
X183985000Y-103603887D01*
X183985000Y-103660113D01*
X184094233Y-104209264D01*
X184405302Y-104674811D01*
X184870849Y-104985880D01*
X185420000Y-105095113D01*
X185969151Y-104985880D01*
X186434698Y-104674811D01*
X186745767Y-104209264D01*
X186855000Y-103660113D01*
X186855000Y-103603887D01*
X190589000Y-103603887D01*
X190589000Y-103660113D01*
X190698233Y-104209264D01*
X191009302Y-104674811D01*
X191474849Y-104985880D01*
X192024000Y-105095113D01*
X192573151Y-104985880D01*
X193038698Y-104674811D01*
X193349767Y-104209264D01*
X193459000Y-103660113D01*
X193459000Y-103603887D01*
X193403904Y-103326898D01*
X200248817Y-96481985D01*
X200345663Y-96482069D01*
X200535000Y-96403837D01*
X200535000Y-101158198D01*
X199459886Y-102233312D01*
X199136000Y-102168887D01*
X198586849Y-102278120D01*
X198121302Y-102589189D01*
X197810233Y-103054736D01*
X197701000Y-103603887D01*
X197701000Y-103660113D01*
X197810233Y-104209264D01*
X198121302Y-104674811D01*
X198586849Y-104985880D01*
X199136000Y-105095113D01*
X199685151Y-104985880D01*
X200150698Y-104674811D01*
X200461767Y-104209264D01*
X200571000Y-103660113D01*
X200571000Y-103603887D01*
X200515904Y-103326898D01*
X201832401Y-102010401D01*
X201997148Y-101763839D01*
X202055000Y-101473000D01*
X202055000Y-100777663D01*
X202221931Y-100777663D01*
X202370493Y-101137212D01*
X202645341Y-101412540D01*
X203004630Y-101561730D01*
X203103014Y-101561816D01*
X204868096Y-103326898D01*
X204813000Y-103603887D01*
X204813000Y-103660113D01*
X204922233Y-104209264D01*
X205233302Y-104674811D01*
X205698849Y-104985880D01*
X206248000Y-105095113D01*
X206797151Y-104985880D01*
X207262698Y-104674811D01*
X207573767Y-104209264D01*
X207683000Y-103660113D01*
X207683000Y-103603887D01*
X207573767Y-103054736D01*
X207262698Y-102589189D01*
X206797151Y-102278120D01*
X206248000Y-102168887D01*
X205924114Y-102233312D01*
X204177985Y-100487183D01*
X204178069Y-100390337D01*
X204029507Y-100030788D01*
X203754659Y-99755460D01*
X203395370Y-99606270D01*
X203006337Y-99605931D01*
X202646788Y-99754493D01*
X202371460Y-100029341D01*
X202222270Y-100388630D01*
X202221931Y-100777663D01*
X202055000Y-100777663D01*
X202055000Y-96053659D01*
X213891195Y-107889854D01*
X213890946Y-108174775D01*
X214063376Y-108592086D01*
X214382378Y-108911645D01*
X214799387Y-109084803D01*
X215161260Y-109085119D01*
X215160946Y-109444775D01*
X215333376Y-109862086D01*
X215652378Y-110181645D01*
X216069387Y-110354803D01*
X216356394Y-110355053D01*
X221413471Y-115412130D01*
X220980000Y-115325907D01*
X220411715Y-115438946D01*
X219929946Y-115760853D01*
X219710000Y-116090026D01*
X219490054Y-115760853D01*
X219008285Y-115438946D01*
X218440000Y-115325907D01*
X217871715Y-115438946D01*
X217389946Y-115760853D01*
X217170000Y-116090026D01*
X216950054Y-115760853D01*
X216468285Y-115438946D01*
X215900000Y-115325907D01*
X215331715Y-115438946D01*
X214849946Y-115760853D01*
X214528039Y-116242622D01*
X214415000Y-116810907D01*
X214415000Y-116869093D01*
X214528039Y-117437378D01*
X214849946Y-117919147D01*
X214851179Y-117919971D01*
X214814683Y-117926838D01*
X214598559Y-118065910D01*
X214453569Y-118278110D01*
X214402560Y-118530000D01*
X214402560Y-120230000D01*
X214446838Y-120465317D01*
X214585910Y-120681441D01*
X214798110Y-120826431D01*
X215050000Y-120877440D01*
X216750000Y-120877440D01*
X216985317Y-120833162D01*
X217201441Y-120694090D01*
X217346431Y-120481890D01*
X217360086Y-120414459D01*
X217389946Y-120459147D01*
X217871715Y-120781054D01*
X218440000Y-120894093D01*
X219008285Y-120781054D01*
X219490054Y-120459147D01*
X219710000Y-120129974D01*
X219929946Y-120459147D01*
X220411715Y-120781054D01*
X220980000Y-120894093D01*
X221548285Y-120781054D01*
X222030054Y-120459147D01*
X222257702Y-120118447D01*
X222324817Y-120261358D01*
X222753076Y-120651645D01*
X223163110Y-120821476D01*
X223393000Y-120700155D01*
X223393000Y-119507000D01*
X223373000Y-119507000D01*
X223373000Y-119253000D01*
X223393000Y-119253000D01*
X223393000Y-119233000D01*
X223647000Y-119233000D01*
X223647000Y-119253000D01*
X223667000Y-119253000D01*
X223667000Y-119507000D01*
X223647000Y-119507000D01*
X223647000Y-120700155D01*
X223876890Y-120821476D01*
X224286924Y-120651645D01*
X224715183Y-120261358D01*
X224782298Y-120118447D01*
X225009946Y-120459147D01*
X225491715Y-120781054D01*
X226060000Y-120894093D01*
X226628285Y-120781054D01*
X227110054Y-120459147D01*
X227330000Y-120129974D01*
X227549946Y-120459147D01*
X228031715Y-120781054D01*
X228600000Y-120894093D01*
X229168285Y-120781054D01*
X229650054Y-120459147D01*
X229971961Y-119977378D01*
X230085000Y-119409093D01*
X230085000Y-119350907D01*
X229971961Y-118782622D01*
X229650054Y-118300853D01*
X229364422Y-118110000D01*
X229650054Y-117919147D01*
X229971961Y-117437378D01*
X230085000Y-116869093D01*
X230085000Y-116810907D01*
X229971961Y-116242622D01*
X229964190Y-116230992D01*
X231178015Y-117444817D01*
X231177931Y-117541663D01*
X231326493Y-117901212D01*
X231601341Y-118176540D01*
X231960630Y-118325730D01*
X232349663Y-118326069D01*
X232709212Y-118177507D01*
X232984540Y-117902659D01*
X233133730Y-117543370D01*
X233134069Y-117154337D01*
X232985507Y-116794788D01*
X232710659Y-116519460D01*
X232351370Y-116370270D01*
X232252986Y-116370184D01*
X224752414Y-108869612D01*
X224812327Y-108809698D01*
X224909000Y-108576309D01*
X224909000Y-108235750D01*
X224848025Y-108174775D01*
X226306660Y-108174775D01*
X226479090Y-108592086D01*
X226798092Y-108911645D01*
X227215101Y-109084803D01*
X227576974Y-109085119D01*
X227576660Y-109444775D01*
X227749090Y-109862086D01*
X228068092Y-110181645D01*
X228485101Y-110354803D01*
X228660154Y-110354956D01*
X234226015Y-115920817D01*
X234225931Y-116017663D01*
X234374493Y-116377212D01*
X234649341Y-116652540D01*
X235008630Y-116801730D01*
X235397663Y-116802069D01*
X235757212Y-116653507D01*
X236032540Y-116378659D01*
X236181730Y-116019370D01*
X236182069Y-115630337D01*
X236033507Y-115270788D01*
X235758659Y-114995460D01*
X235674375Y-114960462D01*
X235932422Y-114960462D01*
X236439076Y-116186658D01*
X237376407Y-117125627D01*
X238601717Y-117634420D01*
X239928462Y-117635578D01*
X241154658Y-117128924D01*
X242093627Y-116191593D01*
X242602420Y-114966283D01*
X242603578Y-113639538D01*
X242096924Y-112413342D01*
X241159593Y-111474373D01*
X239934283Y-110965580D01*
X238607538Y-110964422D01*
X237381342Y-111471076D01*
X236442373Y-112408407D01*
X235933580Y-113633717D01*
X235932422Y-114960462D01*
X235674375Y-114960462D01*
X235399370Y-114846270D01*
X235300986Y-114846184D01*
X229846708Y-109391906D01*
X229847054Y-108995225D01*
X229829168Y-108951939D01*
X229854857Y-108926250D01*
X229854857Y-108077000D01*
X230108857Y-108077000D01*
X230108857Y-108926250D01*
X230267607Y-109085000D01*
X230608167Y-109085000D01*
X230841556Y-108988327D01*
X231020184Y-108809698D01*
X231116857Y-108576309D01*
X231116857Y-108235750D01*
X230958107Y-108077000D01*
X230108857Y-108077000D01*
X229854857Y-108077000D01*
X229834857Y-108077000D01*
X229834857Y-107823000D01*
X229854857Y-107823000D01*
X229854857Y-107803000D01*
X230108857Y-107803000D01*
X230108857Y-107823000D01*
X230958107Y-107823000D01*
X231116857Y-107664250D01*
X231116857Y-107323691D01*
X231020184Y-107090302D01*
X230841556Y-106911673D01*
X230608167Y-106815000D01*
X230267607Y-106815000D01*
X230108859Y-106973748D01*
X230108859Y-106880943D01*
X230184802Y-106805000D01*
X248285000Y-106805000D01*
X248575839Y-106747148D01*
X248822401Y-106582401D01*
X250727401Y-104677401D01*
X250892148Y-104430839D01*
X250950000Y-104140000D01*
X250950000Y-103603887D01*
X253581000Y-103603887D01*
X253581000Y-103660113D01*
X253690233Y-104209264D01*
X254001302Y-104674811D01*
X254466849Y-104985880D01*
X255016000Y-105095113D01*
X255565151Y-104985880D01*
X256030698Y-104674811D01*
X256341767Y-104209264D01*
X256451000Y-103660113D01*
X256451000Y-103603887D01*
X260693000Y-103603887D01*
X260693000Y-103660113D01*
X260802233Y-104209264D01*
X261113302Y-104674811D01*
X261578849Y-104985880D01*
X262128000Y-105095113D01*
X262677151Y-104985880D01*
X263142698Y-104674811D01*
X263453767Y-104209264D01*
X263563000Y-103660113D01*
X263563000Y-103603887D01*
X267805000Y-103603887D01*
X267805000Y-103660113D01*
X267914233Y-104209264D01*
X268225302Y-104674811D01*
X268690849Y-104985880D01*
X269240000Y-105095113D01*
X269789151Y-104985880D01*
X270254698Y-104674811D01*
X270565767Y-104209264D01*
X270675000Y-103660113D01*
X270675000Y-103603887D01*
X274917000Y-103603887D01*
X274917000Y-103660113D01*
X275026233Y-104209264D01*
X275337302Y-104674811D01*
X275802849Y-104985880D01*
X276352000Y-105095113D01*
X276901151Y-104985880D01*
X277366698Y-104674811D01*
X277677767Y-104209264D01*
X277787000Y-103660113D01*
X277787000Y-103603887D01*
X282029000Y-103603887D01*
X282029000Y-103660113D01*
X282138233Y-104209264D01*
X282449302Y-104674811D01*
X282914849Y-104985880D01*
X283464000Y-105095113D01*
X284013151Y-104985880D01*
X284478698Y-104674811D01*
X284789767Y-104209264D01*
X284899000Y-103660113D01*
X284899000Y-103603887D01*
X289141000Y-103603887D01*
X289141000Y-103660113D01*
X289250233Y-104209264D01*
X289561302Y-104674811D01*
X290026849Y-104985880D01*
X290576000Y-105095113D01*
X291125151Y-104985880D01*
X291590698Y-104674811D01*
X291901767Y-104209264D01*
X292011000Y-103660113D01*
X292011000Y-103603887D01*
X291901767Y-103054736D01*
X291590698Y-102589189D01*
X291125151Y-102278120D01*
X290576000Y-102168887D01*
X290026849Y-102278120D01*
X289561302Y-102589189D01*
X289250233Y-103054736D01*
X289141000Y-103603887D01*
X284899000Y-103603887D01*
X284789767Y-103054736D01*
X284478698Y-102589189D01*
X284013151Y-102278120D01*
X283464000Y-102168887D01*
X282914849Y-102278120D01*
X282449302Y-102589189D01*
X282138233Y-103054736D01*
X282029000Y-103603887D01*
X277787000Y-103603887D01*
X277677767Y-103054736D01*
X277366698Y-102589189D01*
X276901151Y-102278120D01*
X276352000Y-102168887D01*
X275802849Y-102278120D01*
X275337302Y-102589189D01*
X275026233Y-103054736D01*
X274917000Y-103603887D01*
X270675000Y-103603887D01*
X270565767Y-103054736D01*
X270254698Y-102589189D01*
X269789151Y-102278120D01*
X269240000Y-102168887D01*
X268690849Y-102278120D01*
X268225302Y-102589189D01*
X267914233Y-103054736D01*
X267805000Y-103603887D01*
X263563000Y-103603887D01*
X263453767Y-103054736D01*
X263142698Y-102589189D01*
X262677151Y-102278120D01*
X262128000Y-102168887D01*
X261578849Y-102278120D01*
X261113302Y-102589189D01*
X260802233Y-103054736D01*
X260693000Y-103603887D01*
X256451000Y-103603887D01*
X256341767Y-103054736D01*
X256030698Y-102589189D01*
X255565151Y-102278120D01*
X255016000Y-102168887D01*
X254466849Y-102278120D01*
X254001302Y-102589189D01*
X253690233Y-103054736D01*
X253581000Y-103603887D01*
X250950000Y-103603887D01*
X250950000Y-87309802D01*
X252096363Y-86163439D01*
X253593738Y-86163439D01*
X253829055Y-86119161D01*
X254045179Y-85980089D01*
X254190169Y-85767889D01*
X254194305Y-85747465D01*
X254256000Y-85809268D01*
X254256000Y-89693354D01*
X254204200Y-89714757D01*
X253800176Y-90118077D01*
X253581250Y-90645309D01*
X253580752Y-91216187D01*
X253798757Y-91743800D01*
X254202077Y-92147824D01*
X254729309Y-92366750D01*
X255300187Y-92367248D01*
X255827800Y-92149243D01*
X256231824Y-91745923D01*
X256450750Y-91218691D01*
X256451248Y-90647813D01*
X256233243Y-90120200D01*
X255829923Y-89716176D01*
X255776000Y-89693785D01*
X255776000Y-86052812D01*
X256102109Y-85918067D01*
X256534289Y-85486642D01*
X256768471Y-84922669D01*
X256769003Y-84312008D01*
X256535806Y-83747628D01*
X256504233Y-83715999D01*
X258149422Y-83715999D01*
X258149422Y-85515999D01*
X258193700Y-85751316D01*
X258332772Y-85967440D01*
X258544972Y-86112430D01*
X258796862Y-86163439D01*
X260596862Y-86163439D01*
X260832179Y-86119161D01*
X261048303Y-85980089D01*
X261193293Y-85767889D01*
X261197429Y-85747465D01*
X261366219Y-85916550D01*
X261368000Y-85917290D01*
X261368000Y-89693354D01*
X261316200Y-89714757D01*
X260912176Y-90118077D01*
X260693250Y-90645309D01*
X260692752Y-91216187D01*
X260910757Y-91743800D01*
X261314077Y-92147824D01*
X261841309Y-92366750D01*
X262412187Y-92367248D01*
X262939800Y-92149243D01*
X263343824Y-91745923D01*
X263562750Y-91218691D01*
X263563248Y-90647813D01*
X263345243Y-90120200D01*
X262941923Y-89716176D01*
X262888000Y-89693785D01*
X262888000Y-86007826D01*
X263105233Y-85918067D01*
X263537413Y-85486642D01*
X263771595Y-84922669D01*
X263772127Y-84312008D01*
X263538930Y-83747628D01*
X263507357Y-83715999D01*
X265152560Y-83715999D01*
X265152560Y-85515999D01*
X265196838Y-85751316D01*
X265335910Y-85967440D01*
X265548110Y-86112430D01*
X265800000Y-86163439D01*
X267600000Y-86163439D01*
X267835317Y-86119161D01*
X268051441Y-85980089D01*
X268196431Y-85767889D01*
X268200567Y-85747465D01*
X268369357Y-85916550D01*
X268480000Y-85962493D01*
X268480000Y-89693354D01*
X268428200Y-89714757D01*
X268024176Y-90118077D01*
X267805250Y-90645309D01*
X267804752Y-91216187D01*
X268022757Y-91743800D01*
X268426077Y-92147824D01*
X268953309Y-92366750D01*
X269524187Y-92367248D01*
X270051800Y-92149243D01*
X270455824Y-91745923D01*
X270674750Y-91218691D01*
X270675248Y-90647813D01*
X270457243Y-90120200D01*
X270053923Y-89716176D01*
X270000000Y-89693785D01*
X270000000Y-85962845D01*
X270108371Y-85918067D01*
X270540551Y-85486642D01*
X270774733Y-84922669D01*
X270775265Y-84312008D01*
X270542068Y-83747628D01*
X270510495Y-83715999D01*
X272264560Y-83715999D01*
X272264560Y-85515999D01*
X272308838Y-85751316D01*
X272447910Y-85967440D01*
X272660110Y-86112430D01*
X272912000Y-86163439D01*
X274712000Y-86163439D01*
X274947317Y-86119161D01*
X275163441Y-85980089D01*
X275308431Y-85767889D01*
X275312567Y-85747465D01*
X275481357Y-85916550D01*
X275592000Y-85962493D01*
X275592000Y-89693354D01*
X275540200Y-89714757D01*
X275136176Y-90118077D01*
X274917250Y-90645309D01*
X274916752Y-91216187D01*
X275134757Y-91743800D01*
X275538077Y-92147824D01*
X276065309Y-92366750D01*
X276636187Y-92367248D01*
X277163800Y-92149243D01*
X277567824Y-91745923D01*
X277786750Y-91218691D01*
X277787248Y-90647813D01*
X277569243Y-90120200D01*
X277165923Y-89716176D01*
X277112000Y-89693785D01*
X277112000Y-85962845D01*
X277220371Y-85918067D01*
X277652551Y-85486642D01*
X277886733Y-84922669D01*
X277887265Y-84312008D01*
X277654068Y-83747628D01*
X277622495Y-83715999D01*
X279376560Y-83715999D01*
X279376560Y-85515999D01*
X279420838Y-85751316D01*
X279559910Y-85967440D01*
X279772110Y-86112430D01*
X280024000Y-86163439D01*
X281824000Y-86163439D01*
X282059317Y-86119161D01*
X282275441Y-85980089D01*
X282420431Y-85767889D01*
X282424567Y-85747465D01*
X282593357Y-85916550D01*
X282704000Y-85962493D01*
X282704000Y-89693354D01*
X282652200Y-89714757D01*
X282248176Y-90118077D01*
X282029250Y-90645309D01*
X282028752Y-91216187D01*
X282246757Y-91743800D01*
X282650077Y-92147824D01*
X283177309Y-92366750D01*
X283748187Y-92367248D01*
X284275800Y-92149243D01*
X284679824Y-91745923D01*
X284898750Y-91218691D01*
X284899248Y-90647813D01*
X284681243Y-90120200D01*
X284277923Y-89716176D01*
X284224000Y-89693785D01*
X284224000Y-85962845D01*
X284332371Y-85918067D01*
X284764551Y-85486642D01*
X284998733Y-84922669D01*
X284999265Y-84312008D01*
X284766068Y-83747628D01*
X284734495Y-83715999D01*
X286488560Y-83715999D01*
X286488560Y-85515999D01*
X286532838Y-85751316D01*
X286671910Y-85967440D01*
X286884110Y-86112430D01*
X287136000Y-86163439D01*
X288936000Y-86163439D01*
X289171317Y-86119161D01*
X289387441Y-85980089D01*
X289532431Y-85767889D01*
X289536567Y-85747465D01*
X289705357Y-85916550D01*
X289816000Y-85962493D01*
X289816000Y-89693354D01*
X289764200Y-89714757D01*
X289360176Y-90118077D01*
X289141250Y-90645309D01*
X289140752Y-91216187D01*
X289358757Y-91743800D01*
X289762077Y-92147824D01*
X290289309Y-92366750D01*
X290860187Y-92367248D01*
X291387800Y-92149243D01*
X291791824Y-91745923D01*
X292010750Y-91218691D01*
X292011248Y-90647813D01*
X291793243Y-90120200D01*
X291389923Y-89716176D01*
X291336000Y-89693785D01*
X291336000Y-85962845D01*
X291444371Y-85918067D01*
X291876551Y-85486642D01*
X292110733Y-84922669D01*
X292111265Y-84312008D01*
X291878068Y-83747628D01*
X291446643Y-83315448D01*
X290882670Y-83081266D01*
X290272009Y-83080734D01*
X289707629Y-83313931D01*
X289539387Y-83481879D01*
X289539162Y-83480682D01*
X289400090Y-83264558D01*
X289187890Y-83119568D01*
X288936000Y-83068559D01*
X287136000Y-83068559D01*
X286900683Y-83112837D01*
X286684559Y-83251909D01*
X286539569Y-83464109D01*
X286488560Y-83715999D01*
X284734495Y-83715999D01*
X284334643Y-83315448D01*
X283770670Y-83081266D01*
X283160009Y-83080734D01*
X282595629Y-83313931D01*
X282427387Y-83481879D01*
X282427162Y-83480682D01*
X282288090Y-83264558D01*
X282075890Y-83119568D01*
X281824000Y-83068559D01*
X280024000Y-83068559D01*
X279788683Y-83112837D01*
X279572559Y-83251909D01*
X279427569Y-83464109D01*
X279376560Y-83715999D01*
X277622495Y-83715999D01*
X277222643Y-83315448D01*
X276658670Y-83081266D01*
X276048009Y-83080734D01*
X275483629Y-83313931D01*
X275315387Y-83481879D01*
X275315162Y-83480682D01*
X275176090Y-83264558D01*
X274963890Y-83119568D01*
X274712000Y-83068559D01*
X272912000Y-83068559D01*
X272676683Y-83112837D01*
X272460559Y-83251909D01*
X272315569Y-83464109D01*
X272264560Y-83715999D01*
X270510495Y-83715999D01*
X270110643Y-83315448D01*
X269546670Y-83081266D01*
X268936009Y-83080734D01*
X268371629Y-83313931D01*
X268203387Y-83481879D01*
X268203162Y-83480682D01*
X268064090Y-83264558D01*
X267851890Y-83119568D01*
X267600000Y-83068559D01*
X265800000Y-83068559D01*
X265564683Y-83112837D01*
X265348559Y-83251909D01*
X265203569Y-83464109D01*
X265152560Y-83715999D01*
X263507357Y-83715999D01*
X263107505Y-83315448D01*
X262543532Y-83081266D01*
X261932871Y-83080734D01*
X261368491Y-83313931D01*
X261200249Y-83481879D01*
X261200024Y-83480682D01*
X261060952Y-83264558D01*
X260848752Y-83119568D01*
X260596862Y-83068559D01*
X258796862Y-83068559D01*
X258561545Y-83112837D01*
X258345421Y-83251909D01*
X258200431Y-83464109D01*
X258149422Y-83715999D01*
X256504233Y-83715999D01*
X256104381Y-83315448D01*
X255540408Y-83081266D01*
X254929747Y-83080734D01*
X254365367Y-83313931D01*
X254197125Y-83481879D01*
X254196900Y-83480682D01*
X254057828Y-83264558D01*
X253845628Y-83119568D01*
X253593738Y-83068559D01*
X251793738Y-83068559D01*
X251558421Y-83112837D01*
X251342297Y-83251909D01*
X251197307Y-83464109D01*
X251146298Y-83715999D01*
X251146298Y-84963900D01*
X249652599Y-86457599D01*
X249487852Y-86704161D01*
X249430000Y-86995000D01*
X249430000Y-89920609D01*
X249225923Y-89716176D01*
X249172000Y-89693785D01*
X249172000Y-85845180D01*
X249531165Y-85486642D01*
X249765347Y-84922669D01*
X249765879Y-84312008D01*
X249532682Y-83747628D01*
X249101257Y-83315448D01*
X248537284Y-83081266D01*
X247926623Y-83080734D01*
X247362243Y-83313931D01*
X247194001Y-83481879D01*
X247193776Y-83480682D01*
X247054704Y-83264558D01*
X246842504Y-83119568D01*
X246590614Y-83068559D01*
X244790614Y-83068559D01*
X244555297Y-83112837D01*
X244339173Y-83251909D01*
X244194183Y-83464109D01*
X244143174Y-83715999D01*
X244143174Y-85515999D01*
X244187452Y-85751316D01*
X244326524Y-85967440D01*
X244538724Y-86112430D01*
X244790614Y-86163439D01*
X246590614Y-86163439D01*
X246825931Y-86119161D01*
X247042055Y-85980089D01*
X247187045Y-85767889D01*
X247191181Y-85747465D01*
X247359971Y-85916550D01*
X247652000Y-86037811D01*
X247652000Y-89693354D01*
X247600200Y-89714757D01*
X247196176Y-90118077D01*
X246977250Y-90645309D01*
X246976752Y-91216187D01*
X247194757Y-91743800D01*
X247598077Y-92147824D01*
X248125309Y-92366750D01*
X248696187Y-92367248D01*
X249223800Y-92149243D01*
X249430000Y-91943402D01*
X249430000Y-102594131D01*
X249426698Y-102589189D01*
X248961151Y-102278120D01*
X248412000Y-102168887D01*
X248088114Y-102233312D01*
X240245985Y-94391183D01*
X240246069Y-94294337D01*
X240097507Y-93934788D01*
X239822659Y-93659460D01*
X239463370Y-93510270D01*
X239074337Y-93509931D01*
X238714788Y-93658493D01*
X238439460Y-93933341D01*
X238290270Y-94292630D01*
X238289931Y-94681663D01*
X238438493Y-95041212D01*
X238713341Y-95316540D01*
X239072630Y-95465730D01*
X239171014Y-95465816D01*
X247032096Y-103326898D01*
X246977000Y-103603887D01*
X246977000Y-103660113D01*
X247086233Y-104209264D01*
X247397302Y-104674811D01*
X247862849Y-104985880D01*
X248201880Y-105053318D01*
X247970198Y-105285000D01*
X229870000Y-105285000D01*
X229579161Y-105342852D01*
X229332599Y-105507599D01*
X227920435Y-106919763D01*
X227668613Y-106815197D01*
X227217082Y-106814803D01*
X226799771Y-106987233D01*
X226480212Y-107306235D01*
X226307054Y-107723244D01*
X226306660Y-108174775D01*
X224848025Y-108174775D01*
X224750250Y-108077000D01*
X223901000Y-108077000D01*
X223901000Y-108097000D01*
X223647000Y-108097000D01*
X223647000Y-108077000D01*
X222797750Y-108077000D01*
X222772302Y-108102448D01*
X222730756Y-108085197D01*
X222368883Y-108084881D01*
X222369197Y-107725225D01*
X222203286Y-107323691D01*
X222639000Y-107323691D01*
X222639000Y-107664250D01*
X222797750Y-107823000D01*
X223647000Y-107823000D01*
X223647000Y-106973750D01*
X223901000Y-106973750D01*
X223901000Y-107823000D01*
X224750250Y-107823000D01*
X224909000Y-107664250D01*
X224909000Y-107323691D01*
X224812327Y-107090302D01*
X224633699Y-106911673D01*
X224400310Y-106815000D01*
X224059750Y-106815000D01*
X223901000Y-106973750D01*
X223647000Y-106973750D01*
X223488250Y-106815000D01*
X223147690Y-106815000D01*
X222914301Y-106911673D01*
X222735673Y-107090302D01*
X222639000Y-107323691D01*
X222203286Y-107323691D01*
X222196767Y-107307914D01*
X221994000Y-107104793D01*
X221994000Y-106934000D01*
X221936148Y-106643161D01*
X221771401Y-106396599D01*
X220469397Y-105094595D01*
X220472000Y-105095113D01*
X221021151Y-104985880D01*
X221486698Y-104674811D01*
X221797767Y-104209264D01*
X221907000Y-103660113D01*
X221907000Y-103603887D01*
X221797767Y-103054736D01*
X221486698Y-102589189D01*
X221021151Y-102278120D01*
X220472000Y-102168887D01*
X220148114Y-102233312D01*
X216369985Y-98455183D01*
X216370069Y-98358337D01*
X216221507Y-97998788D01*
X215952852Y-97729663D01*
X220001931Y-97729663D01*
X220150493Y-98089212D01*
X220425341Y-98364540D01*
X220784630Y-98513730D01*
X220883014Y-98513816D01*
X225696096Y-103326898D01*
X225641000Y-103603887D01*
X225641000Y-103660113D01*
X225750233Y-104209264D01*
X226061302Y-104674811D01*
X226526849Y-104985880D01*
X227076000Y-105095113D01*
X227625151Y-104985880D01*
X228090698Y-104674811D01*
X228401767Y-104209264D01*
X228511000Y-103660113D01*
X228511000Y-103603887D01*
X228401767Y-103054736D01*
X228090698Y-102589189D01*
X227625151Y-102278120D01*
X227076000Y-102168887D01*
X226752114Y-102233312D01*
X221957985Y-97439183D01*
X221958069Y-97342337D01*
X221809507Y-96982788D01*
X221540852Y-96713663D01*
X226097931Y-96713663D01*
X226246493Y-97073212D01*
X226521341Y-97348540D01*
X226880630Y-97497730D01*
X226979014Y-97497816D01*
X232808096Y-103326898D01*
X232753000Y-103603887D01*
X232753000Y-103660113D01*
X232862233Y-104209264D01*
X233173302Y-104674811D01*
X233638849Y-104985880D01*
X234188000Y-105095113D01*
X234737151Y-104985880D01*
X235202698Y-104674811D01*
X235513767Y-104209264D01*
X235623000Y-103660113D01*
X235623000Y-103603887D01*
X235513767Y-103054736D01*
X235202698Y-102589189D01*
X234737151Y-102278120D01*
X234188000Y-102168887D01*
X233864114Y-102233312D01*
X228053985Y-96423183D01*
X228054069Y-96326337D01*
X227905507Y-95966788D01*
X227636852Y-95697663D01*
X232193931Y-95697663D01*
X232342493Y-96057212D01*
X232617341Y-96332540D01*
X232976630Y-96481730D01*
X233075014Y-96481816D01*
X239920096Y-103326898D01*
X239865000Y-103603887D01*
X239865000Y-103660113D01*
X239974233Y-104209264D01*
X240285302Y-104674811D01*
X240750849Y-104985880D01*
X241300000Y-105095113D01*
X241849151Y-104985880D01*
X242314698Y-104674811D01*
X242625767Y-104209264D01*
X242735000Y-103660113D01*
X242735000Y-103603887D01*
X242625767Y-103054736D01*
X242314698Y-102589189D01*
X241849151Y-102278120D01*
X241300000Y-102168887D01*
X240976114Y-102233312D01*
X234149985Y-95407183D01*
X234150069Y-95310337D01*
X234001507Y-94950788D01*
X233726659Y-94675460D01*
X233367370Y-94526270D01*
X232978337Y-94525931D01*
X232618788Y-94674493D01*
X232343460Y-94949341D01*
X232194270Y-95308630D01*
X232193931Y-95697663D01*
X227636852Y-95697663D01*
X227630659Y-95691460D01*
X227271370Y-95542270D01*
X226882337Y-95541931D01*
X226522788Y-95690493D01*
X226247460Y-95965341D01*
X226098270Y-96324630D01*
X226097931Y-96713663D01*
X221540852Y-96713663D01*
X221534659Y-96707460D01*
X221175370Y-96558270D01*
X220786337Y-96557931D01*
X220426788Y-96706493D01*
X220151460Y-96981341D01*
X220002270Y-97340630D01*
X220001931Y-97729663D01*
X215952852Y-97729663D01*
X215946659Y-97723460D01*
X215587370Y-97574270D01*
X215198337Y-97573931D01*
X214838788Y-97722493D01*
X214628000Y-97932914D01*
X214628000Y-95818802D01*
X217961401Y-92485401D01*
X218126148Y-92238840D01*
X218145138Y-92143370D01*
X218184000Y-91948000D01*
X218184000Y-86334919D01*
X218215519Y-86303400D01*
X218309038Y-86163439D01*
X218578118Y-86163439D01*
X218813435Y-86119161D01*
X219029559Y-85980089D01*
X219174549Y-85767889D01*
X219178685Y-85747465D01*
X219347475Y-85916550D01*
X219458118Y-85962493D01*
X219458118Y-89916487D01*
X219256176Y-90118077D01*
X219037250Y-90645309D01*
X219036752Y-91216187D01*
X219254757Y-91743800D01*
X219658077Y-92147824D01*
X220185309Y-92366750D01*
X220756187Y-92367248D01*
X221283800Y-92149243D01*
X221687824Y-91745923D01*
X221906750Y-91218691D01*
X221907248Y-90647813D01*
X221689243Y-90120200D01*
X221285923Y-89716176D01*
X220978118Y-89588364D01*
X220978118Y-85962845D01*
X221086489Y-85918067D01*
X221518669Y-85486642D01*
X221752851Y-84922669D01*
X221753383Y-84312008D01*
X221520186Y-83747628D01*
X221488613Y-83715999D01*
X223133802Y-83715999D01*
X223133802Y-85515999D01*
X223178080Y-85751316D01*
X223317152Y-85967440D01*
X223529352Y-86112430D01*
X223781242Y-86163439D01*
X225581242Y-86163439D01*
X225816559Y-86119161D01*
X226032683Y-85980089D01*
X226177673Y-85767889D01*
X226181809Y-85747465D01*
X226350599Y-85916550D01*
X226461242Y-85962493D01*
X226461242Y-89633341D01*
X226264200Y-89714757D01*
X225860176Y-90118077D01*
X225641250Y-90645309D01*
X225640752Y-91216187D01*
X225858757Y-91743800D01*
X226262077Y-92147824D01*
X226789309Y-92366750D01*
X227360187Y-92367248D01*
X227887800Y-92149243D01*
X228291824Y-91745923D01*
X228510750Y-91218691D01*
X228511248Y-90647813D01*
X228293243Y-90120200D01*
X227981242Y-89807654D01*
X227981242Y-85962845D01*
X228089613Y-85918067D01*
X228521793Y-85486642D01*
X228755975Y-84922669D01*
X228756507Y-84312008D01*
X228523310Y-83747628D01*
X228491737Y-83715999D01*
X230136926Y-83715999D01*
X230136926Y-85515999D01*
X230181204Y-85751316D01*
X230320276Y-85967440D01*
X230532476Y-86112430D01*
X230784366Y-86163439D01*
X232584366Y-86163439D01*
X232819683Y-86119161D01*
X233035807Y-85980089D01*
X233180797Y-85767889D01*
X233184933Y-85747465D01*
X233353723Y-85916550D01*
X233428000Y-85947392D01*
X233428000Y-89693354D01*
X233376200Y-89714757D01*
X232972176Y-90118077D01*
X232753250Y-90645309D01*
X232752752Y-91216187D01*
X232970757Y-91743800D01*
X233374077Y-92147824D01*
X233901309Y-92366750D01*
X234472187Y-92367248D01*
X234999800Y-92149243D01*
X235403824Y-91745923D01*
X235622750Y-91218691D01*
X235623248Y-90647813D01*
X235405243Y-90120200D01*
X235001923Y-89716176D01*
X234948000Y-89693785D01*
X234948000Y-85977871D01*
X235092737Y-85918067D01*
X235524917Y-85486642D01*
X235759099Y-84922669D01*
X235759631Y-84312008D01*
X235526434Y-83747628D01*
X235494861Y-83715999D01*
X237140050Y-83715999D01*
X237140050Y-85515999D01*
X237184328Y-85751316D01*
X237323400Y-85967440D01*
X237535600Y-86112430D01*
X237787490Y-86163439D01*
X239587490Y-86163439D01*
X239822807Y-86119161D01*
X240038931Y-85980089D01*
X240183921Y-85767889D01*
X240188057Y-85747465D01*
X240356847Y-85916550D01*
X240540000Y-85992602D01*
X240540000Y-89693354D01*
X240488200Y-89714757D01*
X240084176Y-90118077D01*
X239865250Y-90645309D01*
X239864752Y-91216187D01*
X240082757Y-91743800D01*
X240486077Y-92147824D01*
X241013309Y-92366750D01*
X241584187Y-92367248D01*
X242111800Y-92149243D01*
X242515824Y-91745923D01*
X242734750Y-91218691D01*
X242735248Y-90647813D01*
X242517243Y-90120200D01*
X242113923Y-89716176D01*
X242060000Y-89693785D01*
X242060000Y-85932884D01*
X242095861Y-85918067D01*
X242528041Y-85486642D01*
X242762223Y-84922669D01*
X242762755Y-84312008D01*
X242529558Y-83747628D01*
X242098133Y-83315448D01*
X241534160Y-83081266D01*
X240923499Y-83080734D01*
X240359119Y-83313931D01*
X240190877Y-83481879D01*
X240190652Y-83480682D01*
X240051580Y-83264558D01*
X239839380Y-83119568D01*
X239587490Y-83068559D01*
X237787490Y-83068559D01*
X237552173Y-83112837D01*
X237336049Y-83251909D01*
X237191059Y-83464109D01*
X237140050Y-83715999D01*
X235494861Y-83715999D01*
X235095009Y-83315448D01*
X234531036Y-83081266D01*
X233920375Y-83080734D01*
X233355995Y-83313931D01*
X233187753Y-83481879D01*
X233187528Y-83480682D01*
X233048456Y-83264558D01*
X232836256Y-83119568D01*
X232584366Y-83068559D01*
X230784366Y-83068559D01*
X230549049Y-83112837D01*
X230332925Y-83251909D01*
X230187935Y-83464109D01*
X230136926Y-83715999D01*
X228491737Y-83715999D01*
X228091885Y-83315448D01*
X227527912Y-83081266D01*
X226917251Y-83080734D01*
X226352871Y-83313931D01*
X226184629Y-83481879D01*
X226184404Y-83480682D01*
X226045332Y-83264558D01*
X225833132Y-83119568D01*
X225581242Y-83068559D01*
X223781242Y-83068559D01*
X223545925Y-83112837D01*
X223329801Y-83251909D01*
X223184811Y-83464109D01*
X223133802Y-83715999D01*
X221488613Y-83715999D01*
X221088761Y-83315448D01*
X220524788Y-83081266D01*
X219914127Y-83080734D01*
X219349747Y-83313931D01*
X219181505Y-83481879D01*
X219181280Y-83480682D01*
X219042208Y-83264558D01*
X218830008Y-83119568D01*
X218578118Y-83068559D01*
X216778118Y-83068559D01*
X216542801Y-83112837D01*
X216326677Y-83251909D01*
X216181687Y-83464109D01*
X216130678Y-83715999D01*
X216130678Y-85515999D01*
X216174956Y-85751316D01*
X216314028Y-85967440D01*
X216526228Y-86112430D01*
X216664000Y-86140330D01*
X216664000Y-91633198D01*
X213330599Y-94966599D01*
X213165852Y-95213161D01*
X213108000Y-95504000D01*
X213108000Y-99568000D01*
X213165852Y-99858839D01*
X213330599Y-100105401D01*
X220402007Y-107176809D01*
X220272355Y-107306235D01*
X220099197Y-107723244D01*
X220098803Y-108174775D01*
X220271233Y-108592086D01*
X220590235Y-108911645D01*
X221007244Y-109084803D01*
X221369117Y-109085119D01*
X221368803Y-109444775D01*
X221541233Y-109862086D01*
X221860235Y-110181645D01*
X222277244Y-110354803D01*
X222728775Y-110355197D01*
X223146086Y-110182767D01*
X223349207Y-109980000D01*
X223713198Y-109980000D01*
X229179915Y-115446717D01*
X229168285Y-115438946D01*
X228600000Y-115325907D01*
X228031715Y-115438946D01*
X227549946Y-115760853D01*
X227330000Y-116090026D01*
X227110054Y-115760853D01*
X226628285Y-115438946D01*
X226060000Y-115325907D01*
X225491715Y-115438946D01*
X225009946Y-115760853D01*
X224790000Y-116090026D01*
X224570054Y-115760853D01*
X224088285Y-115438946D01*
X223520000Y-115325907D01*
X223010000Y-115427352D01*
X223010000Y-115173857D01*
X222952148Y-114883018D01*
X222952148Y-114883017D01*
X222787401Y-114636456D01*
X217431091Y-109280146D01*
X217431340Y-108995225D01*
X217413454Y-108951939D01*
X217439143Y-108926250D01*
X217439143Y-108077000D01*
X217693143Y-108077000D01*
X217693143Y-108926250D01*
X217851893Y-109085000D01*
X218192453Y-109085000D01*
X218425842Y-108988327D01*
X218604470Y-108809698D01*
X218701143Y-108576309D01*
X218701143Y-108235750D01*
X218542393Y-108077000D01*
X217693143Y-108077000D01*
X217439143Y-108077000D01*
X216589893Y-108077000D01*
X216564445Y-108102448D01*
X216522899Y-108085197D01*
X216161026Y-108084881D01*
X216161340Y-107725225D01*
X215995429Y-107323691D01*
X216431143Y-107323691D01*
X216431143Y-107664250D01*
X216589893Y-107823000D01*
X217439143Y-107823000D01*
X217439143Y-106973750D01*
X217693143Y-106973750D01*
X217693143Y-107823000D01*
X218542393Y-107823000D01*
X218701143Y-107664250D01*
X218701143Y-107323691D01*
X218604470Y-107090302D01*
X218425842Y-106911673D01*
X218192453Y-106815000D01*
X217851893Y-106815000D01*
X217693143Y-106973750D01*
X217439143Y-106973750D01*
X217280393Y-106815000D01*
X216939833Y-106815000D01*
X216706444Y-106911673D01*
X216527816Y-107090302D01*
X216431143Y-107323691D01*
X215995429Y-107323691D01*
X215988910Y-107307914D01*
X215669908Y-106988355D01*
X215252899Y-106815197D01*
X214965892Y-106814947D01*
X213217766Y-105066821D01*
X213360000Y-105095113D01*
X213909151Y-104985880D01*
X214374698Y-104674811D01*
X214685767Y-104209264D01*
X214795000Y-103660113D01*
X214795000Y-103603887D01*
X214685767Y-103054736D01*
X214374698Y-102589189D01*
X213909151Y-102278120D01*
X213360000Y-102168887D01*
X213036114Y-102233312D01*
X210273985Y-99471183D01*
X210274069Y-99374337D01*
X210125507Y-99014788D01*
X209850659Y-98739460D01*
X209491370Y-98590270D01*
X209102337Y-98589931D01*
X208742788Y-98738493D01*
X208467460Y-99013341D01*
X208318270Y-99372630D01*
X208317931Y-99761663D01*
X208466493Y-100121212D01*
X208741341Y-100396540D01*
X209100630Y-100545730D01*
X209199014Y-100545816D01*
X211980096Y-103326898D01*
X211925000Y-103603887D01*
X211925000Y-103660113D01*
X211953292Y-103802347D01*
X202944000Y-94793055D01*
X202944000Y-92571080D01*
X203012540Y-92502659D01*
X203161730Y-92143370D01*
X203162069Y-91754337D01*
X203013507Y-91394788D01*
X202738659Y-91119460D01*
X202379370Y-90970270D01*
X201990337Y-90969931D01*
X201630788Y-91118493D01*
X201355460Y-91393341D01*
X201206270Y-91752630D01*
X201205931Y-92141663D01*
X201299081Y-92367103D01*
X201101337Y-92366931D01*
X200741788Y-92515493D01*
X200466460Y-92790341D01*
X200317270Y-93149630D01*
X200316931Y-93538663D01*
X200465493Y-93898212D01*
X200535000Y-93967840D01*
X200535000Y-94604181D01*
X200347370Y-94526270D01*
X199958337Y-94525931D01*
X199598788Y-94674493D01*
X199323460Y-94949341D01*
X199174270Y-95308630D01*
X199174184Y-95407014D01*
X192347886Y-102233312D01*
X192024000Y-102168887D01*
X191474849Y-102278120D01*
X191009302Y-102589189D01*
X190698233Y-103054736D01*
X190589000Y-103603887D01*
X186855000Y-103603887D01*
X186799904Y-103326898D01*
X192628817Y-97497985D01*
X192725663Y-97498069D01*
X193085212Y-97349507D01*
X193360540Y-97074659D01*
X193509730Y-96715370D01*
X193510069Y-96326337D01*
X193361507Y-95966788D01*
X193086659Y-95691460D01*
X192727370Y-95542270D01*
X192338337Y-95541931D01*
X191978788Y-95690493D01*
X191703460Y-95965341D01*
X191554270Y-96324630D01*
X191554184Y-96423014D01*
X185743886Y-102233312D01*
X185420000Y-102168887D01*
X184870849Y-102278120D01*
X184405302Y-102589189D01*
X184094233Y-103054736D01*
X183985000Y-103603887D01*
X179743000Y-103603887D01*
X179687904Y-103326898D01*
X184564318Y-98450484D01*
X184716630Y-98513730D01*
X185105663Y-98514069D01*
X185465212Y-98365507D01*
X185740540Y-98090659D01*
X185889730Y-97731370D01*
X185890069Y-97342337D01*
X185741507Y-96982788D01*
X185466659Y-96707460D01*
X185107370Y-96558270D01*
X184718337Y-96557931D01*
X184358788Y-96706493D01*
X184260582Y-96804528D01*
X184113161Y-96833852D01*
X183866599Y-96998599D01*
X178631886Y-102233312D01*
X178308000Y-102168887D01*
X177758849Y-102278120D01*
X177293302Y-102589189D01*
X176982233Y-103054736D01*
X176873000Y-103603887D01*
X172631000Y-103603887D01*
X172575904Y-103326898D01*
X176372817Y-99529985D01*
X176469663Y-99530069D01*
X176829212Y-99381507D01*
X177104540Y-99106659D01*
X177253730Y-98747370D01*
X177254069Y-98358337D01*
X177105507Y-97998788D01*
X176830659Y-97723460D01*
X176471370Y-97574270D01*
X176082337Y-97573931D01*
X175722788Y-97722493D01*
X175447460Y-97997341D01*
X175298270Y-98356630D01*
X175298184Y-98455014D01*
X171519886Y-102233312D01*
X171196000Y-102168887D01*
X170646849Y-102278120D01*
X170181302Y-102589189D01*
X169870233Y-103054736D01*
X169761000Y-103603887D01*
X165519000Y-103603887D01*
X165463904Y-103326898D01*
X168244817Y-100545985D01*
X168341663Y-100546069D01*
X168701212Y-100397507D01*
X168976540Y-100122659D01*
X169125730Y-99763370D01*
X169126069Y-99374337D01*
X168977507Y-99014788D01*
X168702659Y-98739460D01*
X168343370Y-98590270D01*
X167954337Y-98589931D01*
X167594788Y-98738493D01*
X167319460Y-99013341D01*
X167170270Y-99372630D01*
X167170184Y-99471014D01*
X164407886Y-102233312D01*
X164084000Y-102168887D01*
X163534849Y-102278120D01*
X163069302Y-102589189D01*
X162758233Y-103054736D01*
X162649000Y-103603887D01*
X158407000Y-103603887D01*
X158297767Y-103054736D01*
X157986698Y-102589189D01*
X157521151Y-102278120D01*
X156972000Y-102168887D01*
X156422849Y-102278120D01*
X155957302Y-102589189D01*
X155646233Y-103054736D01*
X155537000Y-103603887D01*
X146125000Y-103603887D01*
X146125000Y-83715999D01*
X153102562Y-83715999D01*
X153102562Y-85515999D01*
X153146840Y-85751316D01*
X153285912Y-85967440D01*
X153498112Y-86112430D01*
X153750002Y-86163439D01*
X155550002Y-86163439D01*
X155785319Y-86119161D01*
X156001443Y-85980089D01*
X156146433Y-85767889D01*
X156150569Y-85747465D01*
X156212000Y-85809003D01*
X156212000Y-89693354D01*
X156160200Y-89714757D01*
X155756176Y-90118077D01*
X155537250Y-90645309D01*
X155536752Y-91216187D01*
X155754757Y-91743800D01*
X156158077Y-92147824D01*
X156685309Y-92366750D01*
X157256187Y-92367248D01*
X157783800Y-92149243D01*
X158187824Y-91745923D01*
X158406750Y-91218691D01*
X158407248Y-90647813D01*
X158189243Y-90120200D01*
X157785923Y-89716176D01*
X157732000Y-89693785D01*
X157732000Y-86052922D01*
X158058373Y-85918067D01*
X158490553Y-85486642D01*
X158724735Y-84922669D01*
X158725267Y-84312008D01*
X158492070Y-83747628D01*
X158460497Y-83715999D01*
X160105686Y-83715999D01*
X160105686Y-85515999D01*
X160149964Y-85751316D01*
X160289036Y-85967440D01*
X160501236Y-86112430D01*
X160753126Y-86163439D01*
X162553126Y-86163439D01*
X162788443Y-86119161D01*
X163004567Y-85980089D01*
X163149557Y-85767889D01*
X163153693Y-85747465D01*
X163322483Y-85916550D01*
X163324000Y-85917180D01*
X163324000Y-89693354D01*
X163272200Y-89714757D01*
X162868176Y-90118077D01*
X162649250Y-90645309D01*
X162648752Y-91216187D01*
X162866757Y-91743800D01*
X163270077Y-92147824D01*
X163797309Y-92366750D01*
X164368187Y-92367248D01*
X164895800Y-92149243D01*
X165299824Y-91745923D01*
X165518750Y-91218691D01*
X165519248Y-90647813D01*
X165301243Y-90120200D01*
X164897923Y-89716176D01*
X164844000Y-89693785D01*
X164844000Y-86007935D01*
X165061497Y-85918067D01*
X165493677Y-85486642D01*
X165727859Y-84922669D01*
X165728391Y-84312008D01*
X165495194Y-83747628D01*
X165463621Y-83715999D01*
X167108810Y-83715999D01*
X167108810Y-85515999D01*
X167153088Y-85751316D01*
X167292160Y-85967440D01*
X167504360Y-86112430D01*
X167756250Y-86163439D01*
X169556250Y-86163439D01*
X169791567Y-86119161D01*
X170007691Y-85980089D01*
X170152681Y-85767889D01*
X170156817Y-85747465D01*
X170325607Y-85916550D01*
X170436000Y-85962389D01*
X170436000Y-89693354D01*
X170384200Y-89714757D01*
X169980176Y-90118077D01*
X169761250Y-90645309D01*
X169760752Y-91216187D01*
X169978757Y-91743800D01*
X170382077Y-92147824D01*
X170909309Y-92366750D01*
X171480187Y-92367248D01*
X172007800Y-92149243D01*
X172411824Y-91745923D01*
X172630750Y-91218691D01*
X172631248Y-90647813D01*
X172413243Y-90120200D01*
X172009923Y-89716176D01*
X171956000Y-89693785D01*
X171956000Y-85962948D01*
X172064621Y-85918067D01*
X172496801Y-85486642D01*
X172730983Y-84922669D01*
X172731515Y-84312008D01*
X172498318Y-83747628D01*
X172466745Y-83715999D01*
X174003058Y-83715999D01*
X174003058Y-85515999D01*
X174047336Y-85751316D01*
X174186408Y-85967440D01*
X174398608Y-86112430D01*
X174650498Y-86163439D01*
X176450498Y-86163439D01*
X176685815Y-86119161D01*
X176901939Y-85980089D01*
X177046929Y-85767889D01*
X177051065Y-85747465D01*
X177219855Y-85916550D01*
X177548000Y-86052808D01*
X177548000Y-89693354D01*
X177496200Y-89714757D01*
X177092176Y-90118077D01*
X176873250Y-90645309D01*
X176872752Y-91216187D01*
X177090757Y-91743800D01*
X177494077Y-92147824D01*
X178021309Y-92366750D01*
X178592187Y-92367248D01*
X179119800Y-92149243D01*
X179523824Y-91745923D01*
X179742750Y-91218691D01*
X179743248Y-90647813D01*
X179525243Y-90120200D01*
X179121923Y-89716176D01*
X179068000Y-89693785D01*
X179068000Y-85809127D01*
X179391049Y-85486642D01*
X179625231Y-84922669D01*
X179625763Y-84312008D01*
X179392566Y-83747628D01*
X179360993Y-83715999D01*
X181115058Y-83715999D01*
X181115058Y-85515999D01*
X181159336Y-85751316D01*
X181298408Y-85967440D01*
X181510608Y-86112430D01*
X181762498Y-86163439D01*
X183562498Y-86163439D01*
X183797815Y-86119161D01*
X184013939Y-85980089D01*
X184158929Y-85767889D01*
X184163065Y-85747465D01*
X184331855Y-85916550D01*
X184660000Y-86052808D01*
X184660000Y-89693354D01*
X184608200Y-89714757D01*
X184204176Y-90118077D01*
X183985250Y-90645309D01*
X183984752Y-91216187D01*
X184202757Y-91743800D01*
X184606077Y-92147824D01*
X185133309Y-92366750D01*
X185704187Y-92367248D01*
X186231800Y-92149243D01*
X186635824Y-91745923D01*
X186854750Y-91218691D01*
X186855248Y-90647813D01*
X186637243Y-90120200D01*
X186233923Y-89716176D01*
X186180000Y-89693785D01*
X186180000Y-85809127D01*
X186503049Y-85486642D01*
X186737231Y-84922669D01*
X186737763Y-84312008D01*
X186504566Y-83747628D01*
X186472993Y-83715999D01*
X188118182Y-83715999D01*
X188118182Y-85515999D01*
X188162460Y-85751316D01*
X188301532Y-85967440D01*
X188513732Y-86112430D01*
X188765622Y-86163439D01*
X190565622Y-86163439D01*
X190800939Y-86119161D01*
X191017063Y-85980089D01*
X191162053Y-85767889D01*
X191166189Y-85747465D01*
X191264000Y-85845447D01*
X191264000Y-89693354D01*
X191212200Y-89714757D01*
X190808176Y-90118077D01*
X190589250Y-90645309D01*
X190588752Y-91216187D01*
X190806757Y-91743800D01*
X191210077Y-92147824D01*
X191737309Y-92366750D01*
X192308187Y-92367248D01*
X192835800Y-92149243D01*
X193239824Y-91745923D01*
X193458750Y-91218691D01*
X193459248Y-90647813D01*
X193241243Y-90120200D01*
X192837923Y-89716176D01*
X192784000Y-89693785D01*
X192784000Y-86037890D01*
X193073993Y-85918067D01*
X193506173Y-85486642D01*
X193740355Y-84922669D01*
X193740887Y-84312008D01*
X193507690Y-83747628D01*
X193476117Y-83715999D01*
X195121306Y-83715999D01*
X195121306Y-85515999D01*
X195165584Y-85751316D01*
X195304656Y-85967440D01*
X195516856Y-86112430D01*
X195768746Y-86163439D01*
X197568746Y-86163439D01*
X197804063Y-86119161D01*
X198020187Y-85980089D01*
X198165177Y-85767889D01*
X198169313Y-85747465D01*
X198338103Y-85916550D01*
X198376000Y-85932286D01*
X198376000Y-89693354D01*
X198324200Y-89714757D01*
X197920176Y-90118077D01*
X197701250Y-90645309D01*
X197700752Y-91216187D01*
X197918757Y-91743800D01*
X198322077Y-92147824D01*
X198849309Y-92366750D01*
X199420187Y-92367248D01*
X199947800Y-92149243D01*
X200351824Y-91745923D01*
X200570750Y-91218691D01*
X200571248Y-90647813D01*
X200353243Y-90120200D01*
X199949923Y-89716176D01*
X199896000Y-89693785D01*
X199896000Y-85992903D01*
X200077117Y-85918067D01*
X200509297Y-85486642D01*
X200743479Y-84922669D01*
X200744011Y-84312008D01*
X200510814Y-83747628D01*
X200479241Y-83715999D01*
X202160560Y-83715999D01*
X202160560Y-85515999D01*
X202204838Y-85751316D01*
X202343910Y-85967440D01*
X202556110Y-86112430D01*
X202808000Y-86163439D01*
X204608000Y-86163439D01*
X204843317Y-86119161D01*
X205059441Y-85980089D01*
X205204431Y-85767889D01*
X205208567Y-85747465D01*
X205377357Y-85916550D01*
X205488000Y-85962493D01*
X205488000Y-89693354D01*
X205436200Y-89714757D01*
X205032176Y-90118077D01*
X204813250Y-90645309D01*
X204812752Y-91216187D01*
X205030757Y-91743800D01*
X205434077Y-92147824D01*
X205961309Y-92366750D01*
X206532187Y-92367248D01*
X207059800Y-92149243D01*
X207463824Y-91745923D01*
X207682750Y-91218691D01*
X207683248Y-90647813D01*
X207465243Y-90120200D01*
X207061923Y-89716176D01*
X207008000Y-89693785D01*
X207008000Y-85962845D01*
X207116371Y-85918067D01*
X207548551Y-85486642D01*
X207782733Y-84922669D01*
X207783265Y-84312008D01*
X207550068Y-83747628D01*
X207518495Y-83715999D01*
X209127554Y-83715999D01*
X209127554Y-85515999D01*
X209171832Y-85751316D01*
X209310904Y-85967440D01*
X209523104Y-86112430D01*
X209774994Y-86163439D01*
X211574994Y-86163439D01*
X211810311Y-86119161D01*
X212026435Y-85980089D01*
X212171425Y-85767889D01*
X212175561Y-85747465D01*
X212344351Y-85916550D01*
X212600000Y-86022705D01*
X212600000Y-89693354D01*
X212548200Y-89714757D01*
X212144176Y-90118077D01*
X211925250Y-90645309D01*
X211924752Y-91216187D01*
X212142757Y-91743800D01*
X212546077Y-92147824D01*
X213073309Y-92366750D01*
X213644187Y-92367248D01*
X214171800Y-92149243D01*
X214575824Y-91745923D01*
X214794750Y-91218691D01*
X214795248Y-90647813D01*
X214577243Y-90120200D01*
X214173923Y-89716176D01*
X214120000Y-89693785D01*
X214120000Y-85881496D01*
X214515545Y-85486642D01*
X214749727Y-84922669D01*
X214750259Y-84312008D01*
X214517062Y-83747628D01*
X214085637Y-83315448D01*
X213521664Y-83081266D01*
X212911003Y-83080734D01*
X212346623Y-83313931D01*
X212178381Y-83481879D01*
X212178156Y-83480682D01*
X212039084Y-83264558D01*
X211826884Y-83119568D01*
X211574994Y-83068559D01*
X209774994Y-83068559D01*
X209539677Y-83112837D01*
X209323553Y-83251909D01*
X209178563Y-83464109D01*
X209127554Y-83715999D01*
X207518495Y-83715999D01*
X207118643Y-83315448D01*
X206554670Y-83081266D01*
X205944009Y-83080734D01*
X205379629Y-83313931D01*
X205211387Y-83481879D01*
X205211162Y-83480682D01*
X205072090Y-83264558D01*
X204859890Y-83119568D01*
X204608000Y-83068559D01*
X202808000Y-83068559D01*
X202572683Y-83112837D01*
X202356559Y-83251909D01*
X202211569Y-83464109D01*
X202160560Y-83715999D01*
X200479241Y-83715999D01*
X200079389Y-83315448D01*
X199515416Y-83081266D01*
X198904755Y-83080734D01*
X198340375Y-83313931D01*
X198172133Y-83481879D01*
X198171908Y-83480682D01*
X198032836Y-83264558D01*
X197820636Y-83119568D01*
X197568746Y-83068559D01*
X195768746Y-83068559D01*
X195533429Y-83112837D01*
X195317305Y-83251909D01*
X195172315Y-83464109D01*
X195121306Y-83715999D01*
X193476117Y-83715999D01*
X193076265Y-83315448D01*
X192512292Y-83081266D01*
X191901631Y-83080734D01*
X191337251Y-83313931D01*
X191169009Y-83481879D01*
X191168784Y-83480682D01*
X191029712Y-83264558D01*
X190817512Y-83119568D01*
X190565622Y-83068559D01*
X188765622Y-83068559D01*
X188530305Y-83112837D01*
X188314181Y-83251909D01*
X188169191Y-83464109D01*
X188118182Y-83715999D01*
X186472993Y-83715999D01*
X186073141Y-83315448D01*
X185509168Y-83081266D01*
X184898507Y-83080734D01*
X184334127Y-83313931D01*
X184165885Y-83481879D01*
X184165660Y-83480682D01*
X184026588Y-83264558D01*
X183814388Y-83119568D01*
X183562498Y-83068559D01*
X181762498Y-83068559D01*
X181527181Y-83112837D01*
X181311057Y-83251909D01*
X181166067Y-83464109D01*
X181115058Y-83715999D01*
X179360993Y-83715999D01*
X178961141Y-83315448D01*
X178397168Y-83081266D01*
X177786507Y-83080734D01*
X177222127Y-83313931D01*
X177053885Y-83481879D01*
X177053660Y-83480682D01*
X176914588Y-83264558D01*
X176702388Y-83119568D01*
X176450498Y-83068559D01*
X174650498Y-83068559D01*
X174415181Y-83112837D01*
X174199057Y-83251909D01*
X174054067Y-83464109D01*
X174003058Y-83715999D01*
X172466745Y-83715999D01*
X172066893Y-83315448D01*
X171502920Y-83081266D01*
X170892259Y-83080734D01*
X170327879Y-83313931D01*
X170159637Y-83481879D01*
X170159412Y-83480682D01*
X170020340Y-83264558D01*
X169808140Y-83119568D01*
X169556250Y-83068559D01*
X167756250Y-83068559D01*
X167520933Y-83112837D01*
X167304809Y-83251909D01*
X167159819Y-83464109D01*
X167108810Y-83715999D01*
X165463621Y-83715999D01*
X165063769Y-83315448D01*
X164499796Y-83081266D01*
X163889135Y-83080734D01*
X163324755Y-83313931D01*
X163156513Y-83481879D01*
X163156288Y-83480682D01*
X163017216Y-83264558D01*
X162805016Y-83119568D01*
X162553126Y-83068559D01*
X160753126Y-83068559D01*
X160517809Y-83112837D01*
X160301685Y-83251909D01*
X160156695Y-83464109D01*
X160105686Y-83715999D01*
X158460497Y-83715999D01*
X158060645Y-83315448D01*
X157496672Y-83081266D01*
X156886011Y-83080734D01*
X156321631Y-83313931D01*
X156153389Y-83481879D01*
X156153164Y-83480682D01*
X156014092Y-83264558D01*
X155801892Y-83119568D01*
X155550002Y-83068559D01*
X153750002Y-83068559D01*
X153514685Y-83112837D01*
X153298561Y-83251909D01*
X153153571Y-83464109D01*
X153102562Y-83715999D01*
X146125000Y-83715999D01*
X146125000Y-79400462D01*
X146524422Y-79400462D01*
X147031076Y-80626658D01*
X147968407Y-81565627D01*
X149193717Y-82074420D01*
X150520462Y-82075578D01*
X151746658Y-81568924D01*
X152685627Y-80631593D01*
X153194420Y-79406283D01*
X153194425Y-79400462D01*
X291050422Y-79400462D01*
X291557076Y-80626658D01*
X292494407Y-81565627D01*
X293719717Y-82074420D01*
X295046462Y-82075578D01*
X296272658Y-81568924D01*
X297211627Y-80631593D01*
X297720420Y-79406283D01*
X297721578Y-78079538D01*
X297214924Y-76853342D01*
X296277593Y-75914373D01*
X295052283Y-75405580D01*
X293725538Y-75404422D01*
X292499342Y-75911076D01*
X291560373Y-76848407D01*
X291051580Y-78073717D01*
X291050422Y-79400462D01*
X153194425Y-79400462D01*
X153195578Y-78079538D01*
X152688924Y-76853342D01*
X151751593Y-75914373D01*
X150526283Y-75405580D01*
X149199538Y-75404422D01*
X147973342Y-75911076D01*
X147034373Y-76848407D01*
X146525580Y-78073717D01*
X146524422Y-79400462D01*
X146125000Y-79400462D01*
X146125000Y-76904931D01*
X146277152Y-76140011D01*
X146670830Y-75550830D01*
X147260280Y-75156972D01*
X148020827Y-75005000D01*
X296856069Y-75005000D01*
X297377984Y-75108815D01*
M02*
