G04 #@! TF.FileFunction,Legend,Bot*
%FSLAX46Y46*%
G04 Gerber Fmt 4.6, Leading zero omitted, Abs format (unit mm)*
G04 Created by KiCad (PCBNEW 4.0.6) date 03/21/17 10:55:45*
%MOMM*%
%LPD*%
G01*
G04 APERTURE LIST*
%ADD10C,0.100000*%
%ADD11C,0.010000*%
G04 APERTURE END LIST*
D10*
D11*
G36*
X227383813Y-96086317D02*
X227318763Y-96111473D01*
X227219615Y-96161425D01*
X227077253Y-96239752D01*
X227066168Y-96245977D01*
X226935053Y-96320952D01*
X226824404Y-96386638D01*
X226745090Y-96436410D01*
X226707977Y-96463641D01*
X226706939Y-96464974D01*
X226715904Y-96502780D01*
X226757029Y-96587210D01*
X226827634Y-96713665D01*
X226925040Y-96877544D01*
X227046565Y-97074245D01*
X227189529Y-97299170D01*
X227225110Y-97354331D01*
X227317814Y-97507398D01*
X227385317Y-97639112D01*
X227421695Y-97737565D01*
X227425428Y-97757014D01*
X227423771Y-97842624D01*
X227405212Y-97978418D01*
X227372064Y-98155687D01*
X227326640Y-98365719D01*
X227271254Y-98599804D01*
X227208220Y-98849232D01*
X227139850Y-99105290D01*
X227068458Y-99359269D01*
X226996359Y-99602457D01*
X226925864Y-99826145D01*
X226859288Y-100021621D01*
X226798945Y-100180174D01*
X226756879Y-100274244D01*
X226707327Y-100374451D01*
X226660540Y-100470337D01*
X226658007Y-100475586D01*
X226580603Y-100572440D01*
X226467632Y-100637656D01*
X226336122Y-100668909D01*
X226203099Y-100663875D01*
X226085590Y-100620228D01*
X226019484Y-100562764D01*
X225924282Y-100405166D01*
X225854522Y-100208756D01*
X225816247Y-99993559D01*
X225810824Y-99871561D01*
X225832661Y-99643870D01*
X225896753Y-99455320D01*
X226006549Y-99296759D01*
X226040787Y-99261467D01*
X226142678Y-99162470D01*
X226156672Y-97762978D01*
X225978365Y-97493062D01*
X225894693Y-97370891D01*
X225814111Y-97260987D01*
X225748115Y-97178673D01*
X225719748Y-97148384D01*
X225639438Y-97073621D01*
X225530670Y-97132196D01*
X225461923Y-97174168D01*
X225424308Y-97206756D01*
X225421903Y-97212615D01*
X225396194Y-97237456D01*
X225352208Y-97255954D01*
X225309701Y-97272626D01*
X225244613Y-97304299D01*
X225151356Y-97354066D01*
X225024342Y-97425018D01*
X224857984Y-97520247D01*
X224646695Y-97642844D01*
X224531876Y-97709864D01*
X224396813Y-97790143D01*
X224308230Y-97847319D01*
X224258290Y-97888078D01*
X224239154Y-97919107D01*
X224242984Y-97947092D01*
X224246178Y-97953593D01*
X224277248Y-97994533D01*
X224343729Y-98071330D01*
X224437876Y-98175393D01*
X224551944Y-98298132D01*
X224650600Y-98402180D01*
X224877941Y-98649134D01*
X225055790Y-98863183D01*
X225185733Y-99046480D01*
X225269358Y-99201176D01*
X225297566Y-99279732D01*
X225309217Y-99348498D01*
X225321251Y-99465799D01*
X225332609Y-99618234D01*
X225342233Y-99792404D01*
X225346762Y-99902537D01*
X225353082Y-100092929D01*
X225355863Y-100232124D01*
X225354285Y-100330819D01*
X225347531Y-100399708D01*
X225334784Y-100449487D01*
X225315227Y-100490850D01*
X225299866Y-100516106D01*
X225211158Y-100613453D01*
X225096853Y-100681291D01*
X224976584Y-100710876D01*
X224886455Y-100700172D01*
X224804848Y-100653861D01*
X224702553Y-100570924D01*
X224593917Y-100465825D01*
X224493287Y-100353032D01*
X224415012Y-100247010D01*
X224386191Y-100195778D01*
X224343018Y-100125628D01*
X224264495Y-100018778D01*
X224157797Y-99883578D01*
X224030097Y-99728381D01*
X223888571Y-99561536D01*
X223740393Y-99391396D01*
X223592737Y-99226311D01*
X223452778Y-99074633D01*
X223327690Y-98944713D01*
X223229480Y-98849339D01*
X223120443Y-98754065D01*
X223028716Y-98683817D01*
X222964379Y-98645898D01*
X222943022Y-98641729D01*
X222910294Y-98658548D01*
X222828659Y-98703692D01*
X222702828Y-98774449D01*
X222537512Y-98868109D01*
X222337422Y-98981962D01*
X222107268Y-99113298D01*
X221851762Y-99259406D01*
X221575613Y-99417576D01*
X221283533Y-99585097D01*
X220980232Y-99759259D01*
X220670421Y-99937352D01*
X220358811Y-100116665D01*
X220050112Y-100294487D01*
X219749036Y-100468109D01*
X219460292Y-100634819D01*
X219188592Y-100791908D01*
X218938646Y-100936666D01*
X218715166Y-101066380D01*
X218522861Y-101178342D01*
X218366443Y-101269841D01*
X218250622Y-101338167D01*
X218180109Y-101380608D01*
X218159671Y-101393927D01*
X218187197Y-101396560D01*
X218273792Y-101399118D01*
X218416572Y-101401592D01*
X218612654Y-101403966D01*
X218859156Y-101406231D01*
X219153194Y-101408373D01*
X219491886Y-101410379D01*
X219872348Y-101412238D01*
X220291699Y-101413937D01*
X220747054Y-101415464D01*
X221235531Y-101416807D01*
X221754247Y-101417952D01*
X222300319Y-101418889D01*
X222870864Y-101419604D01*
X223463000Y-101420085D01*
X224073843Y-101420319D01*
X224330152Y-101420342D01*
X230530061Y-101420342D01*
X230087894Y-100653695D01*
X229994289Y-100491360D01*
X229873796Y-100282332D01*
X229730444Y-100033603D01*
X229568262Y-99752164D01*
X229391277Y-99445007D01*
X229203520Y-99119125D01*
X229009018Y-98781509D01*
X228811800Y-98439151D01*
X228615895Y-98099043D01*
X228566351Y-98013025D01*
X228385696Y-97699715D01*
X228213422Y-97401606D01*
X228052116Y-97123136D01*
X227904368Y-96868743D01*
X227772767Y-96642864D01*
X227659901Y-96449937D01*
X227568359Y-96294401D01*
X227500730Y-96180692D01*
X227459604Y-96113250D01*
X227448095Y-96096080D01*
X227423885Y-96082379D01*
X227383813Y-96086317D01*
X227383813Y-96086317D01*
G37*
X227383813Y-96086317D02*
X227318763Y-96111473D01*
X227219615Y-96161425D01*
X227077253Y-96239752D01*
X227066168Y-96245977D01*
X226935053Y-96320952D01*
X226824404Y-96386638D01*
X226745090Y-96436410D01*
X226707977Y-96463641D01*
X226706939Y-96464974D01*
X226715904Y-96502780D01*
X226757029Y-96587210D01*
X226827634Y-96713665D01*
X226925040Y-96877544D01*
X227046565Y-97074245D01*
X227189529Y-97299170D01*
X227225110Y-97354331D01*
X227317814Y-97507398D01*
X227385317Y-97639112D01*
X227421695Y-97737565D01*
X227425428Y-97757014D01*
X227423771Y-97842624D01*
X227405212Y-97978418D01*
X227372064Y-98155687D01*
X227326640Y-98365719D01*
X227271254Y-98599804D01*
X227208220Y-98849232D01*
X227139850Y-99105290D01*
X227068458Y-99359269D01*
X226996359Y-99602457D01*
X226925864Y-99826145D01*
X226859288Y-100021621D01*
X226798945Y-100180174D01*
X226756879Y-100274244D01*
X226707327Y-100374451D01*
X226660540Y-100470337D01*
X226658007Y-100475586D01*
X226580603Y-100572440D01*
X226467632Y-100637656D01*
X226336122Y-100668909D01*
X226203099Y-100663875D01*
X226085590Y-100620228D01*
X226019484Y-100562764D01*
X225924282Y-100405166D01*
X225854522Y-100208756D01*
X225816247Y-99993559D01*
X225810824Y-99871561D01*
X225832661Y-99643870D01*
X225896753Y-99455320D01*
X226006549Y-99296759D01*
X226040787Y-99261467D01*
X226142678Y-99162470D01*
X226156672Y-97762978D01*
X225978365Y-97493062D01*
X225894693Y-97370891D01*
X225814111Y-97260987D01*
X225748115Y-97178673D01*
X225719748Y-97148384D01*
X225639438Y-97073621D01*
X225530670Y-97132196D01*
X225461923Y-97174168D01*
X225424308Y-97206756D01*
X225421903Y-97212615D01*
X225396194Y-97237456D01*
X225352208Y-97255954D01*
X225309701Y-97272626D01*
X225244613Y-97304299D01*
X225151356Y-97354066D01*
X225024342Y-97425018D01*
X224857984Y-97520247D01*
X224646695Y-97642844D01*
X224531876Y-97709864D01*
X224396813Y-97790143D01*
X224308230Y-97847319D01*
X224258290Y-97888078D01*
X224239154Y-97919107D01*
X224242984Y-97947092D01*
X224246178Y-97953593D01*
X224277248Y-97994533D01*
X224343729Y-98071330D01*
X224437876Y-98175393D01*
X224551944Y-98298132D01*
X224650600Y-98402180D01*
X224877941Y-98649134D01*
X225055790Y-98863183D01*
X225185733Y-99046480D01*
X225269358Y-99201176D01*
X225297566Y-99279732D01*
X225309217Y-99348498D01*
X225321251Y-99465799D01*
X225332609Y-99618234D01*
X225342233Y-99792404D01*
X225346762Y-99902537D01*
X225353082Y-100092929D01*
X225355863Y-100232124D01*
X225354285Y-100330819D01*
X225347531Y-100399708D01*
X225334784Y-100449487D01*
X225315227Y-100490850D01*
X225299866Y-100516106D01*
X225211158Y-100613453D01*
X225096853Y-100681291D01*
X224976584Y-100710876D01*
X224886455Y-100700172D01*
X224804848Y-100653861D01*
X224702553Y-100570924D01*
X224593917Y-100465825D01*
X224493287Y-100353032D01*
X224415012Y-100247010D01*
X224386191Y-100195778D01*
X224343018Y-100125628D01*
X224264495Y-100018778D01*
X224157797Y-99883578D01*
X224030097Y-99728381D01*
X223888571Y-99561536D01*
X223740393Y-99391396D01*
X223592737Y-99226311D01*
X223452778Y-99074633D01*
X223327690Y-98944713D01*
X223229480Y-98849339D01*
X223120443Y-98754065D01*
X223028716Y-98683817D01*
X222964379Y-98645898D01*
X222943022Y-98641729D01*
X222910294Y-98658548D01*
X222828659Y-98703692D01*
X222702828Y-98774449D01*
X222537512Y-98868109D01*
X222337422Y-98981962D01*
X222107268Y-99113298D01*
X221851762Y-99259406D01*
X221575613Y-99417576D01*
X221283533Y-99585097D01*
X220980232Y-99759259D01*
X220670421Y-99937352D01*
X220358811Y-100116665D01*
X220050112Y-100294487D01*
X219749036Y-100468109D01*
X219460292Y-100634819D01*
X219188592Y-100791908D01*
X218938646Y-100936666D01*
X218715166Y-101066380D01*
X218522861Y-101178342D01*
X218366443Y-101269841D01*
X218250622Y-101338167D01*
X218180109Y-101380608D01*
X218159671Y-101393927D01*
X218187197Y-101396560D01*
X218273792Y-101399118D01*
X218416572Y-101401592D01*
X218612654Y-101403966D01*
X218859156Y-101406231D01*
X219153194Y-101408373D01*
X219491886Y-101410379D01*
X219872348Y-101412238D01*
X220291699Y-101413937D01*
X220747054Y-101415464D01*
X221235531Y-101416807D01*
X221754247Y-101417952D01*
X222300319Y-101418889D01*
X222870864Y-101419604D01*
X223463000Y-101420085D01*
X224073843Y-101420319D01*
X224330152Y-101420342D01*
X230530061Y-101420342D01*
X230087894Y-100653695D01*
X229994289Y-100491360D01*
X229873796Y-100282332D01*
X229730444Y-100033603D01*
X229568262Y-99752164D01*
X229391277Y-99445007D01*
X229203520Y-99119125D01*
X229009018Y-98781509D01*
X228811800Y-98439151D01*
X228615895Y-98099043D01*
X228566351Y-98013025D01*
X228385696Y-97699715D01*
X228213422Y-97401606D01*
X228052116Y-97123136D01*
X227904368Y-96868743D01*
X227772767Y-96642864D01*
X227659901Y-96449937D01*
X227568359Y-96294401D01*
X227500730Y-96180692D01*
X227459604Y-96113250D01*
X227448095Y-96096080D01*
X227423885Y-96082379D01*
X227383813Y-96086317D01*
G36*
X220052944Y-95973238D02*
X220030184Y-96011386D01*
X219979025Y-96098843D01*
X219901996Y-96231238D01*
X219801628Y-96404204D01*
X219680451Y-96613370D01*
X219540994Y-96854367D01*
X219385787Y-97122824D01*
X219217360Y-97414374D01*
X219038243Y-97724646D01*
X218854005Y-98044000D01*
X218665848Y-98370235D01*
X218485197Y-98683418D01*
X218314670Y-98979012D01*
X218156886Y-99252480D01*
X218014462Y-99499284D01*
X217890019Y-99714889D01*
X217786174Y-99894755D01*
X217705545Y-100034347D01*
X217650752Y-100129128D01*
X217624987Y-100173573D01*
X217582986Y-100248661D01*
X217560150Y-100295663D01*
X217558898Y-100303841D01*
X217586728Y-100288484D01*
X217664119Y-100244407D01*
X217787027Y-100173942D01*
X217951405Y-100079422D01*
X218153208Y-99963178D01*
X218388391Y-99827542D01*
X218652909Y-99674848D01*
X218942716Y-99507428D01*
X219253767Y-99327613D01*
X219582016Y-99137735D01*
X219706903Y-99065464D01*
X220041026Y-98872167D01*
X220359853Y-98687877D01*
X220659291Y-98514950D01*
X220935248Y-98355743D01*
X221183630Y-98212610D01*
X221400347Y-98087910D01*
X221581304Y-97983996D01*
X221722409Y-97903227D01*
X221819570Y-97847957D01*
X221868693Y-97820544D01*
X221873830Y-97817948D01*
X221858862Y-97794441D01*
X221806773Y-97731591D01*
X221722883Y-97635188D01*
X221612508Y-97511020D01*
X221480966Y-97364879D01*
X221333576Y-97202553D01*
X221175655Y-97029832D01*
X221012521Y-96852506D01*
X220849492Y-96676365D01*
X220691886Y-96507198D01*
X220545021Y-96350795D01*
X220414214Y-96212945D01*
X220304784Y-96099439D01*
X220222047Y-96016065D01*
X220193672Y-95988726D01*
X220099641Y-95900403D01*
X220052944Y-95973238D01*
X220052944Y-95973238D01*
G37*
X220052944Y-95973238D02*
X220030184Y-96011386D01*
X219979025Y-96098843D01*
X219901996Y-96231238D01*
X219801628Y-96404204D01*
X219680451Y-96613370D01*
X219540994Y-96854367D01*
X219385787Y-97122824D01*
X219217360Y-97414374D01*
X219038243Y-97724646D01*
X218854005Y-98044000D01*
X218665848Y-98370235D01*
X218485197Y-98683418D01*
X218314670Y-98979012D01*
X218156886Y-99252480D01*
X218014462Y-99499284D01*
X217890019Y-99714889D01*
X217786174Y-99894755D01*
X217705545Y-100034347D01*
X217650752Y-100129128D01*
X217624987Y-100173573D01*
X217582986Y-100248661D01*
X217560150Y-100295663D01*
X217558898Y-100303841D01*
X217586728Y-100288484D01*
X217664119Y-100244407D01*
X217787027Y-100173942D01*
X217951405Y-100079422D01*
X218153208Y-99963178D01*
X218388391Y-99827542D01*
X218652909Y-99674848D01*
X218942716Y-99507428D01*
X219253767Y-99327613D01*
X219582016Y-99137735D01*
X219706903Y-99065464D01*
X220041026Y-98872167D01*
X220359853Y-98687877D01*
X220659291Y-98514950D01*
X220935248Y-98355743D01*
X221183630Y-98212610D01*
X221400347Y-98087910D01*
X221581304Y-97983996D01*
X221722409Y-97903227D01*
X221819570Y-97847957D01*
X221868693Y-97820544D01*
X221873830Y-97817948D01*
X221858862Y-97794441D01*
X221806773Y-97731591D01*
X221722883Y-97635188D01*
X221612508Y-97511020D01*
X221480966Y-97364879D01*
X221333576Y-97202553D01*
X221175655Y-97029832D01*
X221012521Y-96852506D01*
X220849492Y-96676365D01*
X220691886Y-96507198D01*
X220545021Y-96350795D01*
X220414214Y-96212945D01*
X220304784Y-96099439D01*
X220222047Y-96016065D01*
X220193672Y-95988726D01*
X220099641Y-95900403D01*
X220052944Y-95973238D01*
G36*
X223699915Y-89675671D02*
X223653871Y-89750491D01*
X223582933Y-89869028D01*
X223490009Y-90026237D01*
X223378008Y-90217076D01*
X223249838Y-90436501D01*
X223108408Y-90679469D01*
X222956627Y-90940937D01*
X222797403Y-91215860D01*
X222633644Y-91499197D01*
X222468260Y-91785902D01*
X222304158Y-92070934D01*
X222144248Y-92349248D01*
X221991438Y-92615802D01*
X221848637Y-92865552D01*
X221718753Y-93093455D01*
X221604695Y-93294466D01*
X221509371Y-93463544D01*
X221435690Y-93595645D01*
X221386561Y-93685724D01*
X221364892Y-93728740D01*
X221364098Y-93731429D01*
X221390998Y-93767930D01*
X221465773Y-93823764D01*
X221579530Y-93893450D01*
X221723377Y-93971509D01*
X221873971Y-94045687D01*
X222078881Y-94135635D01*
X222294367Y-94216453D01*
X222527854Y-94289938D01*
X222786764Y-94357884D01*
X223078521Y-94422088D01*
X223410549Y-94484346D01*
X223790269Y-94546454D01*
X224183063Y-94604290D01*
X224524332Y-94655600D01*
X224810910Y-94706397D01*
X225049985Y-94759204D01*
X225248741Y-94816546D01*
X225414365Y-94880947D01*
X225554044Y-94954931D01*
X225674964Y-95041024D01*
X225784311Y-95141750D01*
X225819572Y-95179167D01*
X225896000Y-95266279D01*
X225952537Y-95337364D01*
X225978765Y-95379167D01*
X225979464Y-95382594D01*
X225988640Y-95403612D01*
X226020485Y-95403849D01*
X226081469Y-95380509D01*
X226178065Y-95330793D01*
X226316746Y-95251905D01*
X226413122Y-95195175D01*
X226556834Y-95106494D01*
X226668517Y-95030559D01*
X226740666Y-94972832D01*
X226765774Y-94938776D01*
X226765759Y-94938529D01*
X226750189Y-94906075D01*
X226706217Y-94824800D01*
X226636395Y-94699134D01*
X226543275Y-94533505D01*
X226429411Y-94332344D01*
X226297354Y-94100080D01*
X226149657Y-93841143D01*
X225988872Y-93559961D01*
X225817552Y-93260965D01*
X225638249Y-92948584D01*
X225453515Y-92627248D01*
X225265902Y-92301386D01*
X225077964Y-91975427D01*
X224892253Y-91653801D01*
X224711320Y-91340937D01*
X224537719Y-91041266D01*
X224374001Y-90759216D01*
X224222719Y-90499218D01*
X224086426Y-90265699D01*
X223967674Y-90063091D01*
X223869015Y-89895823D01*
X223793001Y-89768324D01*
X223742186Y-89685023D01*
X223719121Y-89650350D01*
X223718155Y-89649610D01*
X223699915Y-89675671D01*
X223699915Y-89675671D01*
G37*
X223699915Y-89675671D02*
X223653871Y-89750491D01*
X223582933Y-89869028D01*
X223490009Y-90026237D01*
X223378008Y-90217076D01*
X223249838Y-90436501D01*
X223108408Y-90679469D01*
X222956627Y-90940937D01*
X222797403Y-91215860D01*
X222633644Y-91499197D01*
X222468260Y-91785902D01*
X222304158Y-92070934D01*
X222144248Y-92349248D01*
X221991438Y-92615802D01*
X221848637Y-92865552D01*
X221718753Y-93093455D01*
X221604695Y-93294466D01*
X221509371Y-93463544D01*
X221435690Y-93595645D01*
X221386561Y-93685724D01*
X221364892Y-93728740D01*
X221364098Y-93731429D01*
X221390998Y-93767930D01*
X221465773Y-93823764D01*
X221579530Y-93893450D01*
X221723377Y-93971509D01*
X221873971Y-94045687D01*
X222078881Y-94135635D01*
X222294367Y-94216453D01*
X222527854Y-94289938D01*
X222786764Y-94357884D01*
X223078521Y-94422088D01*
X223410549Y-94484346D01*
X223790269Y-94546454D01*
X224183063Y-94604290D01*
X224524332Y-94655600D01*
X224810910Y-94706397D01*
X225049985Y-94759204D01*
X225248741Y-94816546D01*
X225414365Y-94880947D01*
X225554044Y-94954931D01*
X225674964Y-95041024D01*
X225784311Y-95141750D01*
X225819572Y-95179167D01*
X225896000Y-95266279D01*
X225952537Y-95337364D01*
X225978765Y-95379167D01*
X225979464Y-95382594D01*
X225988640Y-95403612D01*
X226020485Y-95403849D01*
X226081469Y-95380509D01*
X226178065Y-95330793D01*
X226316746Y-95251905D01*
X226413122Y-95195175D01*
X226556834Y-95106494D01*
X226668517Y-95030559D01*
X226740666Y-94972832D01*
X226765774Y-94938776D01*
X226765759Y-94938529D01*
X226750189Y-94906075D01*
X226706217Y-94824800D01*
X226636395Y-94699134D01*
X226543275Y-94533505D01*
X226429411Y-94332344D01*
X226297354Y-94100080D01*
X226149657Y-93841143D01*
X225988872Y-93559961D01*
X225817552Y-93260965D01*
X225638249Y-92948584D01*
X225453515Y-92627248D01*
X225265902Y-92301386D01*
X225077964Y-91975427D01*
X224892253Y-91653801D01*
X224711320Y-91340937D01*
X224537719Y-91041266D01*
X224374001Y-90759216D01*
X224222719Y-90499218D01*
X224086426Y-90265699D01*
X223967674Y-90063091D01*
X223869015Y-89895823D01*
X223793001Y-89768324D01*
X223742186Y-89685023D01*
X223719121Y-89650350D01*
X223718155Y-89649610D01*
X223699915Y-89675671D01*
M02*
