G04 #@! TF.FileFunction,Copper,L2,Bot,Signal*
%FSLAX46Y46*%
G04 Gerber Fmt 4.6, Leading zero omitted, Abs format (unit mm)*
G04 Created by KiCad (PCBNEW 4.0.6) date 05/17/17 18:18:31*
%MOMM*%
%LPD*%
G01*
G04 APERTURE LIST*
%ADD10C,0.100000*%
%ADD11R,1.800000X1.800000*%
%ADD12C,1.800000*%
%ADD13C,5.400000*%
%ADD14C,1.524000*%
%ADD15C,1.000000*%
%ADD16R,1.000000X1.000000*%
%ADD17C,1.600000*%
%ADD18O,1.600000X1.600000*%
%ADD19C,0.685800*%
%ADD20C,0.254000*%
G04 APERTURE END LIST*
D10*
D11*
X167567490Y-87155999D03*
D12*
X170107490Y-87155999D03*
D11*
X118545622Y-87155999D03*
D12*
X121085622Y-87155999D03*
D13*
X167640000Y-113030000D03*
X134620000Y-113030000D03*
X78740000Y-82550000D03*
D11*
X104430498Y-87155999D03*
D12*
X106970498Y-87155999D03*
D11*
X139554994Y-87155999D03*
D12*
X142094994Y-87155999D03*
D14*
X157988000Y-112776000D03*
X157002404Y-110084480D03*
X155448000Y-112776000D03*
X154178000Y-110236000D03*
X152908000Y-112776000D03*
X151638000Y-110236000D03*
X150368000Y-112776000D03*
X149098000Y-110236000D03*
X147828000Y-112776000D03*
X146558000Y-110236000D03*
X145288000Y-112776000D03*
X144018000Y-110236000D03*
X142218000Y-114256000D03*
X159788000Y-114256000D03*
D11*
X125548746Y-87155999D03*
D12*
X128088746Y-87155999D03*
D11*
X83530002Y-87155999D03*
D12*
X86070002Y-87155999D03*
D11*
X90533126Y-87155999D03*
D12*
X93073126Y-87155999D03*
D11*
X97536250Y-87155999D03*
D12*
X100076250Y-87155999D03*
D11*
X111542498Y-87155999D03*
D12*
X114082498Y-87155999D03*
D11*
X132588000Y-87155999D03*
D12*
X135128000Y-87155999D03*
D11*
X146558118Y-87155999D03*
D12*
X149098118Y-87155999D03*
D11*
X160564366Y-87155999D03*
D12*
X163104366Y-87155999D03*
D11*
X174570614Y-87155999D03*
D12*
X177110614Y-87155999D03*
D11*
X181573738Y-87155999D03*
D12*
X184113738Y-87155999D03*
D11*
X188576862Y-87155999D03*
D12*
X191116862Y-87155999D03*
D11*
X195580000Y-87155999D03*
D12*
X198120000Y-87155999D03*
D15*
X145176143Y-106045000D03*
X143906143Y-104775000D03*
D16*
X146446143Y-104775000D03*
D15*
X151384000Y-106045000D03*
X150114000Y-104775000D03*
D16*
X152654000Y-104775000D03*
D15*
X157591857Y-106045000D03*
X156321857Y-104775000D03*
D16*
X158861857Y-104775000D03*
D11*
X202692000Y-87155999D03*
D12*
X205232000Y-87155999D03*
D11*
X209804000Y-87155999D03*
D12*
X212344000Y-87155999D03*
D11*
X216916000Y-87155999D03*
D12*
X219456000Y-87155999D03*
D11*
X153561242Y-87155999D03*
D12*
X156101242Y-87155999D03*
D17*
X85852000Y-90932000D03*
D18*
X85852000Y-101092000D03*
D17*
X92964000Y-90932000D03*
D18*
X92964000Y-101092000D03*
D17*
X100076000Y-90932000D03*
D18*
X100076000Y-101092000D03*
D17*
X107188000Y-90932000D03*
D18*
X107188000Y-101092000D03*
D17*
X114300000Y-90932000D03*
D18*
X114300000Y-101092000D03*
D17*
X120904000Y-90932000D03*
D18*
X120904000Y-101092000D03*
D17*
X128016000Y-90932000D03*
D18*
X128016000Y-101092000D03*
D17*
X135128000Y-90932000D03*
D18*
X135128000Y-101092000D03*
D17*
X142240000Y-90932000D03*
D18*
X142240000Y-101092000D03*
D17*
X149352000Y-90932000D03*
D18*
X149352000Y-101092000D03*
D17*
X155956000Y-90932000D03*
D18*
X155956000Y-101092000D03*
D17*
X163068000Y-90932000D03*
D18*
X163068000Y-101092000D03*
D17*
X170180000Y-90932000D03*
D18*
X170180000Y-101092000D03*
D17*
X177292000Y-90932000D03*
D18*
X177292000Y-101092000D03*
D17*
X183896000Y-90932000D03*
D18*
X183896000Y-101092000D03*
D17*
X191008000Y-90932000D03*
D18*
X191008000Y-101092000D03*
D17*
X198120000Y-90932000D03*
D18*
X198120000Y-101092000D03*
D17*
X205232000Y-90932000D03*
D18*
X205232000Y-101092000D03*
D17*
X212344000Y-90932000D03*
D18*
X212344000Y-101092000D03*
D17*
X219456000Y-90932000D03*
D18*
X219456000Y-101092000D03*
D13*
X223520000Y-82550000D03*
D19*
X132334000Y-91694000D03*
X167385992Y-89408000D03*
X163322000Y-113284000D03*
X95504000Y-98552000D03*
X142240000Y-98552000D03*
X149535487Y-97497910D03*
X103632000Y-97536000D03*
X111506000Y-96520000D03*
X155956000Y-96520000D03*
X135579513Y-93510090D03*
X174498000Y-93472000D03*
X119888000Y-95504000D03*
X163068000Y-95504000D03*
X170180000Y-94488000D03*
X127508000Y-94488000D03*
D20*
X132334000Y-91694000D02*
X129540000Y-88900000D01*
X129540000Y-88900000D02*
X127254000Y-88900000D01*
X127254000Y-88900000D02*
X127000000Y-88646000D01*
X127000000Y-88646000D02*
X125476000Y-87122000D01*
X125476000Y-87122000D02*
X125548746Y-87155999D01*
X97536250Y-87155999D02*
X97536000Y-87122000D01*
X97536000Y-87122000D02*
X96012000Y-85598000D01*
X96012000Y-85598000D02*
X92202000Y-85598000D01*
X92202000Y-85598000D02*
X90678000Y-87122000D01*
X90678000Y-87122000D02*
X90424000Y-87122000D01*
X90424000Y-87122000D02*
X90533126Y-87155999D01*
X118545622Y-87155999D02*
X118618000Y-87122000D01*
X118618000Y-87122000D02*
X117094000Y-85598000D01*
X117094000Y-85598000D02*
X113030000Y-85598000D01*
X113030000Y-85598000D02*
X111506000Y-87122000D01*
X111506000Y-87122000D02*
X111542498Y-87155999D01*
X111542498Y-87155999D02*
X111506000Y-87122000D01*
X111506000Y-87122000D02*
X109982000Y-85598000D01*
X109982000Y-85598000D02*
X105918000Y-85598000D01*
X105918000Y-85598000D02*
X104394000Y-87122000D01*
X104394000Y-87122000D02*
X104430498Y-87155999D01*
X90533126Y-87155999D02*
X90424000Y-87122000D01*
X90424000Y-87122000D02*
X88900000Y-85598000D01*
X88900000Y-85598000D02*
X85090000Y-85598000D01*
X85090000Y-85598000D02*
X83566000Y-87122000D01*
X83566000Y-87122000D02*
X83530002Y-87155999D01*
X104430498Y-87155999D02*
X104394000Y-87122000D01*
X104394000Y-87122000D02*
X102870000Y-85598000D01*
X102870000Y-85598000D02*
X99060000Y-85598000D01*
X99060000Y-85598000D02*
X97536000Y-87122000D01*
X97536000Y-87122000D02*
X97536250Y-87155999D01*
X125548746Y-87155999D02*
X125476000Y-87122000D01*
X125476000Y-87122000D02*
X123952000Y-85598000D01*
X123952000Y-85598000D02*
X120142000Y-85598000D01*
X120142000Y-85598000D02*
X118618000Y-87122000D01*
X118618000Y-87122000D02*
X118545622Y-87155999D01*
X111542498Y-87155999D02*
X111506000Y-87122000D01*
X118618000Y-87122000D02*
X118545622Y-87155999D01*
X104430498Y-87155999D02*
X104394000Y-87122000D01*
X111506000Y-87122000D02*
X111542498Y-87155999D01*
X97536250Y-87155999D02*
X97536000Y-87122000D01*
X90678000Y-87122000D02*
X90424000Y-87122000D01*
X90424000Y-87122000D02*
X90533126Y-87155999D01*
X118545622Y-87155999D02*
X118618000Y-87122000D01*
X125476000Y-87122000D02*
X125548746Y-87155999D01*
X104430498Y-87155999D02*
X104394000Y-87122000D01*
X97536000Y-87122000D02*
X97536250Y-87155999D01*
X90533126Y-87155999D02*
X90424000Y-87122000D01*
X83566000Y-87122000D02*
X83530002Y-87155999D01*
X125548746Y-87155999D02*
X125476000Y-87122000D01*
X111542498Y-87155999D02*
X111506000Y-87122000D01*
X118618000Y-87122000D02*
X118545622Y-87155999D01*
X104430498Y-87155999D02*
X104394000Y-87122000D01*
X111506000Y-87122000D02*
X111542498Y-87155999D01*
X97536250Y-87155999D02*
X97536000Y-87122000D01*
X90932000Y-87122000D02*
X90424000Y-87122000D01*
X90424000Y-87122000D02*
X90533126Y-87155999D01*
X90533126Y-87155999D02*
X90424000Y-87122000D01*
X84074000Y-87122000D02*
X83566000Y-87122000D01*
X83566000Y-87122000D02*
X83530002Y-87155999D01*
X118545622Y-87155999D02*
X118618000Y-87122000D01*
X125476000Y-87122000D02*
X125548746Y-87155999D01*
X104430498Y-87155999D02*
X104394000Y-87122000D01*
X98044000Y-87122000D02*
X97536000Y-87122000D01*
X97536000Y-87122000D02*
X97536250Y-87155999D01*
X153561242Y-87155999D02*
X153670000Y-87122000D01*
X153670000Y-87122000D02*
X152146000Y-85598000D01*
X152146000Y-85598000D02*
X148082000Y-85598000D01*
X148082000Y-85598000D02*
X146558000Y-87122000D01*
X146558000Y-87122000D02*
X146558118Y-87155999D01*
X146558118Y-87155999D02*
X146558000Y-87122000D01*
X146558000Y-87122000D02*
X145034000Y-85598000D01*
X145034000Y-85598000D02*
X141224000Y-85598000D01*
X141224000Y-85598000D02*
X139700000Y-87122000D01*
X139700000Y-87122000D02*
X139446000Y-87122000D01*
X139446000Y-87122000D02*
X139554994Y-87155999D01*
X160564366Y-87155999D02*
X160528000Y-87122000D01*
X160528000Y-87122000D02*
X162052000Y-85598000D01*
X162052000Y-85598000D02*
X164084000Y-85598000D01*
X164084000Y-85598000D02*
X165608000Y-87122000D01*
X165608000Y-87122000D02*
X167640000Y-87122000D01*
X167640000Y-87122000D02*
X167567490Y-87155999D01*
X167567490Y-87155999D02*
X167640000Y-87122000D01*
X167640000Y-87122000D02*
X169164000Y-85598000D01*
X169164000Y-85598000D02*
X170942000Y-85598000D01*
X170942000Y-85598000D02*
X171196000Y-85852000D01*
X171196000Y-85852000D02*
X171450000Y-85852000D01*
X171450000Y-85852000D02*
X172720000Y-87122000D01*
X172720000Y-87122000D02*
X174498000Y-87122000D01*
X174498000Y-87122000D02*
X174570614Y-87155999D01*
X153561242Y-87155999D02*
X153670000Y-87122000D01*
X153670000Y-87122000D02*
X155194000Y-85598000D01*
X155194000Y-85598000D02*
X156972000Y-85598000D01*
X156972000Y-85598000D02*
X158496000Y-87122000D01*
X158496000Y-87122000D02*
X160528000Y-87122000D01*
X160528000Y-87122000D02*
X160564366Y-87155999D01*
X139554994Y-87155999D02*
X139446000Y-87122000D01*
X139446000Y-87122000D02*
X137922000Y-85598000D01*
X137922000Y-85598000D02*
X134112000Y-85598000D01*
X134112000Y-85598000D02*
X132588000Y-87122000D01*
X132588000Y-87122000D02*
X132588000Y-87155999D01*
X160564366Y-87155999D02*
X160528000Y-87122000D01*
X167640000Y-87122000D02*
X167567490Y-87155999D01*
X146558118Y-87155999D02*
X146558000Y-87122000D01*
X139700000Y-87122000D02*
X139446000Y-87122000D01*
X139446000Y-87122000D02*
X139554994Y-87155999D01*
X153561242Y-87155999D02*
X153670000Y-87122000D01*
X146558000Y-87122000D02*
X146558118Y-87155999D01*
X167567490Y-87155999D02*
X167640000Y-87122000D01*
X174498000Y-87122000D02*
X174570614Y-87155999D01*
X153561242Y-87155999D02*
X153670000Y-87122000D01*
X160528000Y-87122000D02*
X160564366Y-87155999D01*
X139554994Y-87155999D02*
X139446000Y-87122000D01*
X132588000Y-87122000D02*
X132588000Y-87155999D01*
X153561242Y-87155999D02*
X153670000Y-87122000D01*
X147066000Y-87122000D02*
X146558000Y-87122000D01*
X146558000Y-87122000D02*
X146558118Y-87155999D01*
X153561242Y-87155999D02*
X153670000Y-87122000D01*
X160528000Y-87122000D02*
X160564366Y-87155999D01*
X146558118Y-87155999D02*
X146558000Y-87122000D01*
X160528000Y-87122000D02*
X160564366Y-87155999D01*
X160564366Y-87155999D02*
X160528000Y-87122000D01*
X167640000Y-87122000D02*
X167567490Y-87155999D01*
X146558118Y-87155999D02*
X146558000Y-87122000D01*
X139954000Y-87122000D02*
X139446000Y-87122000D01*
X139446000Y-87122000D02*
X139554994Y-87155999D01*
X167567490Y-87155999D02*
X167640000Y-87122000D01*
X174498000Y-87122000D02*
X174570614Y-87155999D01*
X139554994Y-87155999D02*
X139446000Y-87122000D01*
X133096000Y-87122000D02*
X132588000Y-87122000D01*
X132588000Y-87122000D02*
X132588000Y-87155999D01*
X167870925Y-89408000D02*
X167385992Y-89408000D01*
X181610000Y-87122000D02*
X179324000Y-89408000D01*
X179324000Y-89408000D02*
X167870925Y-89408000D01*
X181573738Y-87155999D02*
X181610000Y-87122000D01*
X216916000Y-87155999D02*
X216916000Y-87122000D01*
X216916000Y-87122000D02*
X215392000Y-85598000D01*
X215392000Y-85598000D02*
X211328000Y-85598000D01*
X211328000Y-85598000D02*
X209804000Y-87122000D01*
X209804000Y-87122000D02*
X209804000Y-87155999D01*
X195580000Y-87155999D02*
X195580000Y-87122000D01*
X195580000Y-87122000D02*
X194056000Y-85598000D01*
X194056000Y-85598000D02*
X190246000Y-85598000D01*
X190246000Y-85598000D02*
X188722000Y-87122000D01*
X188722000Y-87122000D02*
X188468000Y-87122000D01*
X188468000Y-87122000D02*
X188576862Y-87155999D01*
X202692000Y-87155999D02*
X202692000Y-87122000D01*
X202692000Y-87122000D02*
X201168000Y-85598000D01*
X201168000Y-85598000D02*
X197104000Y-85598000D01*
X197104000Y-85598000D02*
X195580000Y-87122000D01*
X195580000Y-87122000D02*
X195580000Y-87155999D01*
X209804000Y-87155999D02*
X209804000Y-87122000D01*
X209804000Y-87122000D02*
X208280000Y-85598000D01*
X208280000Y-85598000D02*
X204216000Y-85598000D01*
X204216000Y-85598000D02*
X202692000Y-87122000D01*
X202692000Y-87122000D02*
X202692000Y-87155999D01*
X195580000Y-87155999D02*
X195580000Y-87122000D01*
X202692000Y-87122000D02*
X202692000Y-87155999D01*
X202692000Y-87155999D02*
X202692000Y-87122000D01*
X209804000Y-87122000D02*
X209804000Y-87155999D01*
X188576862Y-87155999D02*
X188468000Y-87122000D01*
X195580000Y-87122000D02*
X195580000Y-87155999D01*
X209804000Y-87155999D02*
X209804000Y-87122000D01*
X216916000Y-87122000D02*
X216916000Y-87155999D01*
X181573738Y-87155999D02*
X181610000Y-87122000D01*
X181610000Y-87122000D02*
X183134000Y-85598000D01*
X183134000Y-85598000D02*
X185166000Y-85598000D01*
X185166000Y-85598000D02*
X186690000Y-87122000D01*
X186690000Y-87122000D02*
X188468000Y-87122000D01*
X188468000Y-87122000D02*
X188576862Y-87155999D01*
X156321857Y-104775000D02*
X156210000Y-104902000D01*
X188576862Y-87155999D02*
X188468000Y-87122000D01*
X195580000Y-87122000D02*
X195580000Y-87155999D01*
X209804000Y-87155999D02*
X209804000Y-87122000D01*
X216916000Y-87122000D02*
X216916000Y-87155999D01*
X202692000Y-87155999D02*
X202692000Y-87122000D01*
X209804000Y-87122000D02*
X209804000Y-87155999D01*
X195580000Y-87155999D02*
X195580000Y-87122000D01*
X202692000Y-87122000D02*
X202692000Y-87155999D01*
X181573738Y-87155999D02*
X181610000Y-87122000D01*
X188468000Y-87122000D02*
X188576862Y-87155999D01*
X148165001Y-115653001D02*
X160952999Y-115653001D01*
X160952999Y-115653001D02*
X163322000Y-113284000D01*
X145288000Y-112776000D02*
X148165001Y-115653001D01*
X135128000Y-99656999D02*
X182460999Y-99656999D01*
X183096001Y-100292001D02*
X183896000Y-101092000D01*
X182460999Y-99656999D02*
X183096001Y-100292001D01*
X135128000Y-99656999D02*
X135128000Y-101092000D01*
X87287001Y-99656999D02*
X135128000Y-99656999D01*
X85852000Y-101092000D02*
X87287001Y-99656999D01*
X140716000Y-110236000D02*
X144018000Y-110236000D01*
X135128000Y-101092000D02*
X135128000Y-104648000D01*
X140716000Y-110236000D02*
X135128000Y-104648000D01*
X188468000Y-98552000D02*
X142240000Y-98552000D01*
X95504000Y-98552000D02*
X142240000Y-98552000D01*
X188468000Y-98552000D02*
X191008000Y-101092000D01*
X142240000Y-101092000D02*
X142240000Y-105918000D01*
X142240000Y-105918000D02*
X146558000Y-110236000D01*
X149352000Y-101092000D02*
X148844000Y-101600000D01*
X148844000Y-109982000D02*
X149098000Y-110236000D01*
X148844000Y-101600000D02*
X148844000Y-109982000D01*
X198120000Y-101092000D02*
X194525910Y-97497910D01*
X194525910Y-97497910D02*
X149535487Y-97497910D01*
X149535487Y-97497910D02*
X103670090Y-97497910D01*
X103670090Y-97497910D02*
X103632000Y-97536000D01*
X155956000Y-96520000D02*
X200660000Y-96520000D01*
X111506000Y-96520000D02*
X155956000Y-96520000D01*
X200660000Y-96520000D02*
X205232000Y-101092000D01*
X151638000Y-110236000D02*
X154432000Y-107442000D01*
X154432000Y-107442000D02*
X154432000Y-103632000D01*
X154432000Y-103632000D02*
X155956000Y-102108000D01*
X155956000Y-102108000D02*
X155956000Y-101092000D01*
X135617603Y-93472000D02*
X135579513Y-93510090D01*
X174498000Y-93472000D02*
X135617603Y-93472000D01*
X162306000Y-111506000D02*
X159258000Y-111506000D01*
X159258000Y-111506000D02*
X157988000Y-112776000D01*
X177292000Y-101092000D02*
X172720000Y-101092000D01*
X172720000Y-101092000D02*
X162306000Y-111506000D01*
X154178000Y-110236000D02*
X155726521Y-108687479D01*
X155726521Y-108687479D02*
X157092380Y-108687479D01*
X157092380Y-108687479D02*
X163068000Y-102711859D01*
X163068000Y-102711859D02*
X163068000Y-102223370D01*
X163068000Y-102223370D02*
X163068000Y-101092000D01*
X206756000Y-95504000D02*
X163068000Y-95504000D01*
X163068000Y-95504000D02*
X119888000Y-95504000D01*
X206756000Y-95504000D02*
X212344000Y-101092000D01*
X170180000Y-94488000D02*
X212852000Y-94488000D01*
X212852000Y-94488000D02*
X218656001Y-100292001D01*
X218656001Y-100292001D02*
X219456000Y-101092000D01*
X127508000Y-94488000D02*
X127992933Y-94488000D01*
X127992933Y-94488000D02*
X170180000Y-94488000D01*
X157002404Y-110084480D02*
X161187520Y-110084480D01*
X161187520Y-110084480D02*
X170180000Y-101092000D01*
G36*
X226257984Y-77648815D02*
X226641157Y-77904844D01*
X226897185Y-78288015D01*
X227001000Y-78809931D01*
X227001000Y-102165069D01*
X226897185Y-102686985D01*
X226641157Y-103070156D01*
X226257984Y-103326185D01*
X225736069Y-103430000D01*
X182905400Y-103430000D01*
X182830854Y-103444828D01*
X182038328Y-103589747D01*
X181917008Y-103640000D01*
X181782388Y-103695761D01*
X181164745Y-104108456D01*
X181115297Y-104157904D01*
X181057154Y-104196754D01*
X170560291Y-114693617D01*
X170974420Y-113696283D01*
X170975578Y-112369538D01*
X170468924Y-111143342D01*
X169531593Y-110204373D01*
X168306283Y-109695580D01*
X166979538Y-109694422D01*
X165753342Y-110201076D01*
X164814373Y-111138407D01*
X164305580Y-112363717D01*
X164304422Y-113690462D01*
X164811076Y-114916658D01*
X165748407Y-115855627D01*
X166973717Y-116364420D01*
X168300462Y-116365578D01*
X169302268Y-115951640D01*
X168965400Y-116288508D01*
X168523330Y-116583889D01*
X168001865Y-116687615D01*
X134004965Y-116687961D01*
X133483053Y-116584147D01*
X133040599Y-116288507D01*
X130442554Y-113690462D01*
X131284422Y-113690462D01*
X131791076Y-114916658D01*
X132728407Y-115855627D01*
X133953717Y-116364420D01*
X135280462Y-116365578D01*
X136506658Y-115858924D01*
X137445627Y-114921593D01*
X137607125Y-114532661D01*
X140820758Y-114532661D01*
X141032990Y-115046303D01*
X141425630Y-115439629D01*
X141938900Y-115652757D01*
X142494661Y-115653242D01*
X143008303Y-115441010D01*
X143401629Y-115048370D01*
X143614757Y-114535100D01*
X143615242Y-113979339D01*
X143403010Y-113465697D01*
X143010370Y-113072371D01*
X142497100Y-112859243D01*
X141941339Y-112858758D01*
X141427697Y-113070990D01*
X141034371Y-113463630D01*
X140821243Y-113976900D01*
X140820758Y-114532661D01*
X137607125Y-114532661D01*
X137954420Y-113696283D01*
X137955578Y-112369538D01*
X137448924Y-111143342D01*
X136511593Y-110204373D01*
X135286283Y-109695580D01*
X133959538Y-109694422D01*
X132733342Y-110201076D01*
X131794373Y-111138407D01*
X131285580Y-112363717D01*
X131284422Y-113690462D01*
X130442554Y-113690462D01*
X120948846Y-104196754D01*
X120895751Y-104161277D01*
X120842093Y-104107619D01*
X120224068Y-103694666D01*
X120072779Y-103632000D01*
X119968126Y-103588651D01*
X119239114Y-103443642D01*
X119169184Y-103443642D01*
X119100600Y-103430000D01*
X76269931Y-103430000D01*
X75748015Y-103326185D01*
X75364844Y-103070157D01*
X75108815Y-102686984D01*
X75005000Y-102165069D01*
X75005000Y-101063887D01*
X84417000Y-101063887D01*
X84417000Y-101120113D01*
X84526233Y-101669264D01*
X84837302Y-102134811D01*
X85302849Y-102445880D01*
X85852000Y-102555113D01*
X86401151Y-102445880D01*
X86866698Y-102134811D01*
X87177767Y-101669264D01*
X87287000Y-101120113D01*
X87287000Y-101063887D01*
X87232373Y-100789257D01*
X87602631Y-100418999D01*
X91702203Y-100418999D01*
X91638233Y-100514736D01*
X91529000Y-101063887D01*
X91529000Y-101120113D01*
X91638233Y-101669264D01*
X91949302Y-102134811D01*
X92414849Y-102445880D01*
X92964000Y-102555113D01*
X93513151Y-102445880D01*
X93978698Y-102134811D01*
X94289767Y-101669264D01*
X94399000Y-101120113D01*
X94399000Y-101063887D01*
X94289767Y-100514736D01*
X94225797Y-100418999D01*
X98814203Y-100418999D01*
X98750233Y-100514736D01*
X98641000Y-101063887D01*
X98641000Y-101120113D01*
X98750233Y-101669264D01*
X99061302Y-102134811D01*
X99526849Y-102445880D01*
X100076000Y-102555113D01*
X100625151Y-102445880D01*
X101090698Y-102134811D01*
X101401767Y-101669264D01*
X101511000Y-101120113D01*
X101511000Y-101063887D01*
X101401767Y-100514736D01*
X101337797Y-100418999D01*
X105926203Y-100418999D01*
X105862233Y-100514736D01*
X105753000Y-101063887D01*
X105753000Y-101120113D01*
X105862233Y-101669264D01*
X106173302Y-102134811D01*
X106638849Y-102445880D01*
X107188000Y-102555113D01*
X107737151Y-102445880D01*
X108202698Y-102134811D01*
X108513767Y-101669264D01*
X108623000Y-101120113D01*
X108623000Y-101063887D01*
X108513767Y-100514736D01*
X108449797Y-100418999D01*
X113038203Y-100418999D01*
X112974233Y-100514736D01*
X112865000Y-101063887D01*
X112865000Y-101120113D01*
X112974233Y-101669264D01*
X113285302Y-102134811D01*
X113750849Y-102445880D01*
X114300000Y-102555113D01*
X114849151Y-102445880D01*
X115314698Y-102134811D01*
X115625767Y-101669264D01*
X115735000Y-101120113D01*
X115735000Y-101063887D01*
X115625767Y-100514736D01*
X115561797Y-100418999D01*
X119642203Y-100418999D01*
X119578233Y-100514736D01*
X119469000Y-101063887D01*
X119469000Y-101120113D01*
X119578233Y-101669264D01*
X119889302Y-102134811D01*
X120354849Y-102445880D01*
X120904000Y-102555113D01*
X121453151Y-102445880D01*
X121918698Y-102134811D01*
X122229767Y-101669264D01*
X122339000Y-101120113D01*
X122339000Y-101063887D01*
X122229767Y-100514736D01*
X122165797Y-100418999D01*
X126754203Y-100418999D01*
X126690233Y-100514736D01*
X126581000Y-101063887D01*
X126581000Y-101120113D01*
X126690233Y-101669264D01*
X127001302Y-102134811D01*
X127466849Y-102445880D01*
X128016000Y-102555113D01*
X128565151Y-102445880D01*
X129030698Y-102134811D01*
X129341767Y-101669264D01*
X129451000Y-101120113D01*
X129451000Y-101063887D01*
X129341767Y-100514736D01*
X129277797Y-100418999D01*
X133866203Y-100418999D01*
X133802233Y-100514736D01*
X133693000Y-101063887D01*
X133693000Y-101120113D01*
X133802233Y-101669264D01*
X134113302Y-102134811D01*
X134366000Y-102303659D01*
X134366000Y-104648000D01*
X134424004Y-104939605D01*
X134520055Y-105083355D01*
X134589185Y-105186815D01*
X140177184Y-110774815D01*
X140424395Y-110939996D01*
X140716000Y-110998000D01*
X142821295Y-110998000D01*
X142832990Y-111026303D01*
X143225630Y-111419629D01*
X143738900Y-111632757D01*
X144294661Y-111633242D01*
X144808303Y-111421010D01*
X145201629Y-111028370D01*
X145287949Y-110820488D01*
X145372990Y-111026303D01*
X145765630Y-111419629D01*
X146278900Y-111632757D01*
X146834661Y-111633242D01*
X147348303Y-111421010D01*
X147741629Y-111028370D01*
X147827949Y-110820488D01*
X147912990Y-111026303D01*
X148305630Y-111419629D01*
X148818900Y-111632757D01*
X149374661Y-111633242D01*
X149888303Y-111421010D01*
X150281629Y-111028370D01*
X150367949Y-110820488D01*
X150452990Y-111026303D01*
X150845630Y-111419629D01*
X151358900Y-111632757D01*
X151914661Y-111633242D01*
X152428303Y-111421010D01*
X152821629Y-111028370D01*
X152907949Y-110820488D01*
X152992990Y-111026303D01*
X153385630Y-111419629D01*
X153898900Y-111632757D01*
X154454661Y-111633242D01*
X154968303Y-111421010D01*
X155361629Y-111028370D01*
X155574757Y-110515100D01*
X155575242Y-109959339D01*
X155562684Y-109928946D01*
X155605577Y-109886054D01*
X155605162Y-110361141D01*
X155817394Y-110874783D01*
X156210034Y-111268109D01*
X156723304Y-111481237D01*
X157279065Y-111481722D01*
X157792707Y-111269490D01*
X158186033Y-110876850D01*
X158198644Y-110846480D01*
X158899832Y-110846480D01*
X158719184Y-110967185D01*
X158295382Y-111390987D01*
X158267100Y-111379243D01*
X157711339Y-111378758D01*
X157197697Y-111590990D01*
X156804371Y-111983630D01*
X156718051Y-112191512D01*
X156633010Y-111985697D01*
X156240370Y-111592371D01*
X155727100Y-111379243D01*
X155171339Y-111378758D01*
X154657697Y-111590990D01*
X154264371Y-111983630D01*
X154184605Y-112175727D01*
X154130397Y-112044857D01*
X153888213Y-111975392D01*
X153087605Y-112776000D01*
X153888213Y-113576608D01*
X154130397Y-113507143D01*
X154180509Y-113366682D01*
X154262990Y-113566303D01*
X154655630Y-113959629D01*
X155168900Y-114172757D01*
X155724661Y-114173242D01*
X156238303Y-113961010D01*
X156631629Y-113568370D01*
X156717949Y-113360488D01*
X156802990Y-113566303D01*
X157195630Y-113959629D01*
X157708900Y-114172757D01*
X158264661Y-114173242D01*
X158391117Y-114120991D01*
X158390758Y-114532661D01*
X158538821Y-114891001D01*
X148480631Y-114891001D01*
X147762573Y-114172943D01*
X148104661Y-114173242D01*
X148618303Y-113961010D01*
X149011629Y-113568370D01*
X149097949Y-113360488D01*
X149182990Y-113566303D01*
X149575630Y-113959629D01*
X150088900Y-114172757D01*
X150644661Y-114173242D01*
X151158303Y-113961010D01*
X151363457Y-113756213D01*
X152107392Y-113756213D01*
X152176857Y-113998397D01*
X152700302Y-114185144D01*
X153255368Y-114157362D01*
X153639143Y-113998397D01*
X153708608Y-113756213D01*
X152908000Y-112955605D01*
X152107392Y-113756213D01*
X151363457Y-113756213D01*
X151551629Y-113568370D01*
X151631395Y-113376273D01*
X151685603Y-113507143D01*
X151927787Y-113576608D01*
X152728395Y-112776000D01*
X151927787Y-111975392D01*
X151685603Y-112044857D01*
X151635491Y-112185318D01*
X151553010Y-111985697D01*
X151363432Y-111795787D01*
X152107392Y-111795787D01*
X152908000Y-112596395D01*
X153708608Y-111795787D01*
X153639143Y-111553603D01*
X153115698Y-111366856D01*
X152560632Y-111394638D01*
X152176857Y-111553603D01*
X152107392Y-111795787D01*
X151363432Y-111795787D01*
X151160370Y-111592371D01*
X150647100Y-111379243D01*
X150091339Y-111378758D01*
X149577697Y-111590990D01*
X149184371Y-111983630D01*
X149098051Y-112191512D01*
X149013010Y-111985697D01*
X148620370Y-111592371D01*
X148107100Y-111379243D01*
X147551339Y-111378758D01*
X147037697Y-111590990D01*
X146644371Y-111983630D01*
X146558051Y-112191512D01*
X146473010Y-111985697D01*
X146080370Y-111592371D01*
X145567100Y-111379243D01*
X145011339Y-111378758D01*
X144497697Y-111590990D01*
X144104371Y-111983630D01*
X143891243Y-112496900D01*
X143890758Y-113052661D01*
X144102990Y-113566303D01*
X144495630Y-113959629D01*
X145008900Y-114172757D01*
X145564661Y-114173242D01*
X145595054Y-114160684D01*
X147626186Y-116191816D01*
X147873396Y-116356997D01*
X148165001Y-116415001D01*
X160952999Y-116415001D01*
X161244604Y-116356997D01*
X161491814Y-116191816D01*
X163421644Y-114261987D01*
X163515663Y-114262069D01*
X163875212Y-114113507D01*
X164150540Y-113838659D01*
X164299730Y-113479370D01*
X164300069Y-113090337D01*
X164151507Y-112730788D01*
X163876659Y-112455460D01*
X163517370Y-112306270D01*
X163128337Y-112305931D01*
X162768788Y-112454493D01*
X162493460Y-112729341D01*
X162344270Y-113088630D01*
X162344187Y-113184182D01*
X161184924Y-114343445D01*
X161185242Y-113979339D01*
X160973010Y-113465697D01*
X160580370Y-113072371D01*
X160067100Y-112859243D01*
X159511339Y-112858758D01*
X159384883Y-112911009D01*
X159385242Y-112499339D01*
X159372684Y-112468947D01*
X159573631Y-112268000D01*
X162306000Y-112268000D01*
X162597605Y-112209996D01*
X162844815Y-112044815D01*
X173035630Y-101854000D01*
X176089670Y-101854000D01*
X176277302Y-102134811D01*
X176742849Y-102445880D01*
X177292000Y-102555113D01*
X177841151Y-102445880D01*
X178306698Y-102134811D01*
X178617767Y-101669264D01*
X178727000Y-101120113D01*
X178727000Y-101063887D01*
X178617767Y-100514736D01*
X178553797Y-100418999D01*
X182145369Y-100418999D01*
X182515627Y-100789258D01*
X182461000Y-101063887D01*
X182461000Y-101120113D01*
X182570233Y-101669264D01*
X182881302Y-102134811D01*
X183346849Y-102445880D01*
X183896000Y-102555113D01*
X184445151Y-102445880D01*
X184910698Y-102134811D01*
X185221767Y-101669264D01*
X185331000Y-101120113D01*
X185331000Y-101063887D01*
X185221767Y-100514736D01*
X184910698Y-100049189D01*
X184445151Y-99738120D01*
X183896000Y-99628887D01*
X183574474Y-99692843D01*
X183195630Y-99314000D01*
X188152370Y-99314000D01*
X189627627Y-100789258D01*
X189573000Y-101063887D01*
X189573000Y-101120113D01*
X189682233Y-101669264D01*
X189993302Y-102134811D01*
X190458849Y-102445880D01*
X191008000Y-102555113D01*
X191557151Y-102445880D01*
X192022698Y-102134811D01*
X192333767Y-101669264D01*
X192443000Y-101120113D01*
X192443000Y-101063887D01*
X192333767Y-100514736D01*
X192022698Y-100049189D01*
X191557151Y-99738120D01*
X191008000Y-99628887D01*
X190686473Y-99692843D01*
X189253540Y-98259910D01*
X194210280Y-98259910D01*
X196739627Y-100789257D01*
X196685000Y-101063887D01*
X196685000Y-101120113D01*
X196794233Y-101669264D01*
X197105302Y-102134811D01*
X197570849Y-102445880D01*
X198120000Y-102555113D01*
X198669151Y-102445880D01*
X199134698Y-102134811D01*
X199445767Y-101669264D01*
X199555000Y-101120113D01*
X199555000Y-101063887D01*
X199445767Y-100514736D01*
X199134698Y-100049189D01*
X198669151Y-99738120D01*
X198120000Y-99628887D01*
X197798473Y-99692843D01*
X195387630Y-97282000D01*
X200344370Y-97282000D01*
X203851627Y-100789258D01*
X203797000Y-101063887D01*
X203797000Y-101120113D01*
X203906233Y-101669264D01*
X204217302Y-102134811D01*
X204682849Y-102445880D01*
X205232000Y-102555113D01*
X205781151Y-102445880D01*
X206246698Y-102134811D01*
X206557767Y-101669264D01*
X206667000Y-101120113D01*
X206667000Y-101063887D01*
X206557767Y-100514736D01*
X206246698Y-100049189D01*
X205781151Y-99738120D01*
X205232000Y-99628887D01*
X204910473Y-99692843D01*
X201483630Y-96266000D01*
X206440370Y-96266000D01*
X210963627Y-100789258D01*
X210909000Y-101063887D01*
X210909000Y-101120113D01*
X211018233Y-101669264D01*
X211329302Y-102134811D01*
X211794849Y-102445880D01*
X212344000Y-102555113D01*
X212893151Y-102445880D01*
X213358698Y-102134811D01*
X213669767Y-101669264D01*
X213779000Y-101120113D01*
X213779000Y-101063887D01*
X213669767Y-100514736D01*
X213358698Y-100049189D01*
X212893151Y-99738120D01*
X212344000Y-99628887D01*
X212022473Y-99692843D01*
X207579630Y-95250000D01*
X212536370Y-95250000D01*
X218075627Y-100789257D01*
X218021000Y-101063887D01*
X218021000Y-101120113D01*
X218130233Y-101669264D01*
X218441302Y-102134811D01*
X218906849Y-102445880D01*
X219456000Y-102555113D01*
X220005151Y-102445880D01*
X220470698Y-102134811D01*
X220781767Y-101669264D01*
X220891000Y-101120113D01*
X220891000Y-101063887D01*
X220781767Y-100514736D01*
X220470698Y-100049189D01*
X220005151Y-99738120D01*
X219456000Y-99628887D01*
X219134473Y-99692843D01*
X213390815Y-93949185D01*
X213367103Y-93933341D01*
X213143605Y-93784004D01*
X212852000Y-93726000D01*
X175451385Y-93726000D01*
X175475730Y-93667370D01*
X175476069Y-93278337D01*
X175327507Y-92918788D01*
X175052659Y-92643460D01*
X174693370Y-92494270D01*
X174304337Y-92493931D01*
X173944788Y-92642493D01*
X173877163Y-92710000D01*
X136162572Y-92710000D01*
X136134172Y-92681550D01*
X135774883Y-92532360D01*
X135385850Y-92532021D01*
X135026301Y-92680583D01*
X134750973Y-92955431D01*
X134601783Y-93314720D01*
X134601444Y-93703753D01*
X134610636Y-93726000D01*
X128129083Y-93726000D01*
X128062659Y-93659460D01*
X127703370Y-93510270D01*
X127314337Y-93509931D01*
X126954788Y-93658493D01*
X126679460Y-93933341D01*
X126530270Y-94292630D01*
X126529931Y-94681663D01*
X126554862Y-94742000D01*
X120509083Y-94742000D01*
X120442659Y-94675460D01*
X120083370Y-94526270D01*
X119694337Y-94525931D01*
X119334788Y-94674493D01*
X119059460Y-94949341D01*
X118910270Y-95308630D01*
X118909931Y-95697663D01*
X118934862Y-95758000D01*
X112127083Y-95758000D01*
X112060659Y-95691460D01*
X111701370Y-95542270D01*
X111312337Y-95541931D01*
X110952788Y-95690493D01*
X110677460Y-95965341D01*
X110528270Y-96324630D01*
X110527931Y-96713663D01*
X110537123Y-96735910D01*
X104215059Y-96735910D01*
X104186659Y-96707460D01*
X103827370Y-96558270D01*
X103438337Y-96557931D01*
X103078788Y-96706493D01*
X102803460Y-96981341D01*
X102654270Y-97340630D01*
X102653931Y-97729663D01*
X102678862Y-97790000D01*
X96125083Y-97790000D01*
X96058659Y-97723460D01*
X95699370Y-97574270D01*
X95310337Y-97573931D01*
X94950788Y-97722493D01*
X94675460Y-97997341D01*
X94526270Y-98356630D01*
X94525931Y-98745663D01*
X94587635Y-98894999D01*
X87287001Y-98894999D01*
X86995396Y-98953003D01*
X86767600Y-99105212D01*
X86748186Y-99118184D01*
X86173527Y-99692843D01*
X85852000Y-99628887D01*
X85302849Y-99738120D01*
X84837302Y-100049189D01*
X84526233Y-100514736D01*
X84417000Y-101063887D01*
X75005000Y-101063887D01*
X75005000Y-91216187D01*
X84416752Y-91216187D01*
X84634757Y-91743800D01*
X85038077Y-92147824D01*
X85565309Y-92366750D01*
X86136187Y-92367248D01*
X86663800Y-92149243D01*
X87067824Y-91745923D01*
X87286750Y-91218691D01*
X87286752Y-91216187D01*
X91528752Y-91216187D01*
X91746757Y-91743800D01*
X92150077Y-92147824D01*
X92677309Y-92366750D01*
X93248187Y-92367248D01*
X93775800Y-92149243D01*
X94179824Y-91745923D01*
X94398750Y-91218691D01*
X94398752Y-91216187D01*
X98640752Y-91216187D01*
X98858757Y-91743800D01*
X99262077Y-92147824D01*
X99789309Y-92366750D01*
X100360187Y-92367248D01*
X100887800Y-92149243D01*
X101291824Y-91745923D01*
X101510750Y-91218691D01*
X101510752Y-91216187D01*
X105752752Y-91216187D01*
X105970757Y-91743800D01*
X106374077Y-92147824D01*
X106901309Y-92366750D01*
X107472187Y-92367248D01*
X107999800Y-92149243D01*
X108403824Y-91745923D01*
X108622750Y-91218691D01*
X108622752Y-91216187D01*
X112864752Y-91216187D01*
X113082757Y-91743800D01*
X113486077Y-92147824D01*
X114013309Y-92366750D01*
X114584187Y-92367248D01*
X115111800Y-92149243D01*
X115515824Y-91745923D01*
X115734750Y-91218691D01*
X115734752Y-91216187D01*
X119468752Y-91216187D01*
X119686757Y-91743800D01*
X120090077Y-92147824D01*
X120617309Y-92366750D01*
X121188187Y-92367248D01*
X121715800Y-92149243D01*
X122119824Y-91745923D01*
X122338750Y-91218691D01*
X122339248Y-90647813D01*
X122121243Y-90120200D01*
X121717923Y-89716176D01*
X121190691Y-89497250D01*
X120619813Y-89496752D01*
X120092200Y-89714757D01*
X119688176Y-90118077D01*
X119469250Y-90645309D01*
X119468752Y-91216187D01*
X115734752Y-91216187D01*
X115735248Y-90647813D01*
X115517243Y-90120200D01*
X115113923Y-89716176D01*
X114586691Y-89497250D01*
X114015813Y-89496752D01*
X113488200Y-89714757D01*
X113084176Y-90118077D01*
X112865250Y-90645309D01*
X112864752Y-91216187D01*
X108622752Y-91216187D01*
X108623248Y-90647813D01*
X108405243Y-90120200D01*
X108001923Y-89716176D01*
X107474691Y-89497250D01*
X106903813Y-89496752D01*
X106376200Y-89714757D01*
X105972176Y-90118077D01*
X105753250Y-90645309D01*
X105752752Y-91216187D01*
X101510752Y-91216187D01*
X101511248Y-90647813D01*
X101293243Y-90120200D01*
X100889923Y-89716176D01*
X100362691Y-89497250D01*
X99791813Y-89496752D01*
X99264200Y-89714757D01*
X98860176Y-90118077D01*
X98641250Y-90645309D01*
X98640752Y-91216187D01*
X94398752Y-91216187D01*
X94399248Y-90647813D01*
X94181243Y-90120200D01*
X93777923Y-89716176D01*
X93250691Y-89497250D01*
X92679813Y-89496752D01*
X92152200Y-89714757D01*
X91748176Y-90118077D01*
X91529250Y-90645309D01*
X91528752Y-91216187D01*
X87286752Y-91216187D01*
X87287248Y-90647813D01*
X87069243Y-90120200D01*
X86665923Y-89716176D01*
X86138691Y-89497250D01*
X85567813Y-89496752D01*
X85040200Y-89714757D01*
X84636176Y-90118077D01*
X84417250Y-90645309D01*
X84416752Y-91216187D01*
X75005000Y-91216187D01*
X75005000Y-86255999D01*
X81982562Y-86255999D01*
X81982562Y-88055999D01*
X82026840Y-88291316D01*
X82165912Y-88507440D01*
X82378112Y-88652430D01*
X82630002Y-88703439D01*
X84430002Y-88703439D01*
X84665319Y-88659161D01*
X84881443Y-88520089D01*
X85026433Y-88307889D01*
X85030569Y-88287465D01*
X85199359Y-88456550D01*
X85763332Y-88690732D01*
X86373993Y-88691264D01*
X86938373Y-88458067D01*
X87370553Y-88026642D01*
X87604735Y-87462669D01*
X87605267Y-86852008D01*
X87401973Y-86360000D01*
X88584370Y-86360000D01*
X88985686Y-86761316D01*
X88985686Y-88055999D01*
X89029964Y-88291316D01*
X89169036Y-88507440D01*
X89381236Y-88652430D01*
X89633126Y-88703439D01*
X91433126Y-88703439D01*
X91668443Y-88659161D01*
X91884567Y-88520089D01*
X92029557Y-88307889D01*
X92033693Y-88287465D01*
X92202483Y-88456550D01*
X92766456Y-88690732D01*
X93377117Y-88691264D01*
X93941497Y-88458067D01*
X94373677Y-88026642D01*
X94607859Y-87462669D01*
X94608391Y-86852008D01*
X94405097Y-86360000D01*
X95696370Y-86360000D01*
X95988810Y-86652440D01*
X95988810Y-88055999D01*
X96033088Y-88291316D01*
X96172160Y-88507440D01*
X96384360Y-88652430D01*
X96636250Y-88703439D01*
X98436250Y-88703439D01*
X98671567Y-88659161D01*
X98887691Y-88520089D01*
X99032681Y-88307889D01*
X99036817Y-88287465D01*
X99205607Y-88456550D01*
X99769580Y-88690732D01*
X100380241Y-88691264D01*
X100944621Y-88458067D01*
X101376801Y-88026642D01*
X101610983Y-87462669D01*
X101611515Y-86852008D01*
X101408221Y-86360000D01*
X102554370Y-86360000D01*
X102883058Y-86688688D01*
X102883058Y-88055999D01*
X102927336Y-88291316D01*
X103066408Y-88507440D01*
X103278608Y-88652430D01*
X103530498Y-88703439D01*
X105330498Y-88703439D01*
X105565815Y-88659161D01*
X105781939Y-88520089D01*
X105926929Y-88307889D01*
X105931065Y-88287465D01*
X106099855Y-88456550D01*
X106663828Y-88690732D01*
X107274489Y-88691264D01*
X107838869Y-88458067D01*
X108271049Y-88026642D01*
X108505231Y-87462669D01*
X108505763Y-86852008D01*
X108302469Y-86360000D01*
X109666370Y-86360000D01*
X109995058Y-86688688D01*
X109995058Y-88055999D01*
X110039336Y-88291316D01*
X110178408Y-88507440D01*
X110390608Y-88652430D01*
X110642498Y-88703439D01*
X112442498Y-88703439D01*
X112677815Y-88659161D01*
X112893939Y-88520089D01*
X113038929Y-88307889D01*
X113043065Y-88287465D01*
X113211855Y-88456550D01*
X113775828Y-88690732D01*
X114386489Y-88691264D01*
X114950869Y-88458067D01*
X115383049Y-88026642D01*
X115617231Y-87462669D01*
X115617763Y-86852008D01*
X115414469Y-86360000D01*
X116778370Y-86360000D01*
X116998182Y-86579812D01*
X116998182Y-88055999D01*
X117042460Y-88291316D01*
X117181532Y-88507440D01*
X117393732Y-88652430D01*
X117645622Y-88703439D01*
X119445622Y-88703439D01*
X119680939Y-88659161D01*
X119897063Y-88520089D01*
X120042053Y-88307889D01*
X120046189Y-88287465D01*
X120214979Y-88456550D01*
X120778952Y-88690732D01*
X121389613Y-88691264D01*
X121953993Y-88458067D01*
X122386173Y-88026642D01*
X122620355Y-87462669D01*
X122620887Y-86852008D01*
X122417593Y-86360000D01*
X123636370Y-86360000D01*
X124001306Y-86724936D01*
X124001306Y-88055999D01*
X124045584Y-88291316D01*
X124184656Y-88507440D01*
X124396856Y-88652430D01*
X124648746Y-88703439D01*
X125979808Y-88703439D01*
X126461184Y-89184815D01*
X126461187Y-89184817D01*
X126715184Y-89438815D01*
X126958903Y-89601663D01*
X126962395Y-89603996D01*
X127254000Y-89662000D01*
X127331882Y-89662000D01*
X127204200Y-89714757D01*
X126800176Y-90118077D01*
X126581250Y-90645309D01*
X126580752Y-91216187D01*
X126798757Y-91743800D01*
X127202077Y-92147824D01*
X127729309Y-92366750D01*
X128300187Y-92367248D01*
X128827800Y-92149243D01*
X129231824Y-91745923D01*
X129450750Y-91218691D01*
X129451248Y-90647813D01*
X129233243Y-90120200D01*
X128829923Y-89716176D01*
X128699453Y-89662000D01*
X129224370Y-89662000D01*
X131356013Y-91793644D01*
X131355931Y-91887663D01*
X131504493Y-92247212D01*
X131779341Y-92522540D01*
X132138630Y-92671730D01*
X132527663Y-92672069D01*
X132887212Y-92523507D01*
X133162540Y-92248659D01*
X133311730Y-91889370D01*
X133312069Y-91500337D01*
X133194662Y-91216187D01*
X133692752Y-91216187D01*
X133910757Y-91743800D01*
X134314077Y-92147824D01*
X134841309Y-92366750D01*
X135412187Y-92367248D01*
X135939800Y-92149243D01*
X136343824Y-91745923D01*
X136562750Y-91218691D01*
X136562752Y-91216187D01*
X140804752Y-91216187D01*
X141022757Y-91743800D01*
X141426077Y-92147824D01*
X141953309Y-92366750D01*
X142524187Y-92367248D01*
X143051800Y-92149243D01*
X143455824Y-91745923D01*
X143674750Y-91218691D01*
X143674752Y-91216187D01*
X147916752Y-91216187D01*
X148134757Y-91743800D01*
X148538077Y-92147824D01*
X149065309Y-92366750D01*
X149636187Y-92367248D01*
X150163800Y-92149243D01*
X150567824Y-91745923D01*
X150786750Y-91218691D01*
X150786752Y-91216187D01*
X154520752Y-91216187D01*
X154738757Y-91743800D01*
X155142077Y-92147824D01*
X155669309Y-92366750D01*
X156240187Y-92367248D01*
X156767800Y-92149243D01*
X157171824Y-91745923D01*
X157390750Y-91218691D01*
X157390752Y-91216187D01*
X161632752Y-91216187D01*
X161850757Y-91743800D01*
X162254077Y-92147824D01*
X162781309Y-92366750D01*
X163352187Y-92367248D01*
X163879800Y-92149243D01*
X164283824Y-91745923D01*
X164502750Y-91218691D01*
X164503248Y-90647813D01*
X164285243Y-90120200D01*
X163881923Y-89716176D01*
X163354691Y-89497250D01*
X162783813Y-89496752D01*
X162256200Y-89714757D01*
X161852176Y-90118077D01*
X161633250Y-90645309D01*
X161632752Y-91216187D01*
X157390752Y-91216187D01*
X157391248Y-90647813D01*
X157173243Y-90120200D01*
X156769923Y-89716176D01*
X156242691Y-89497250D01*
X155671813Y-89496752D01*
X155144200Y-89714757D01*
X154740176Y-90118077D01*
X154521250Y-90645309D01*
X154520752Y-91216187D01*
X150786752Y-91216187D01*
X150787248Y-90647813D01*
X150569243Y-90120200D01*
X150165923Y-89716176D01*
X149638691Y-89497250D01*
X149067813Y-89496752D01*
X148540200Y-89714757D01*
X148136176Y-90118077D01*
X147917250Y-90645309D01*
X147916752Y-91216187D01*
X143674752Y-91216187D01*
X143675248Y-90647813D01*
X143457243Y-90120200D01*
X143053923Y-89716176D01*
X142526691Y-89497250D01*
X141955813Y-89496752D01*
X141428200Y-89714757D01*
X141024176Y-90118077D01*
X140805250Y-90645309D01*
X140804752Y-91216187D01*
X136562752Y-91216187D01*
X136563248Y-90647813D01*
X136345243Y-90120200D01*
X135941923Y-89716176D01*
X135414691Y-89497250D01*
X134843813Y-89496752D01*
X134316200Y-89714757D01*
X133912176Y-90118077D01*
X133693250Y-90645309D01*
X133692752Y-91216187D01*
X133194662Y-91216187D01*
X133163507Y-91140788D01*
X132888659Y-90865460D01*
X132529370Y-90716270D01*
X132433818Y-90716187D01*
X130078815Y-88361185D01*
X129974249Y-88291316D01*
X129831605Y-88196004D01*
X129540000Y-88138000D01*
X129277744Y-88138000D01*
X129389297Y-88026642D01*
X129623479Y-87462669D01*
X129624011Y-86852008D01*
X129390814Y-86287628D01*
X129359241Y-86255999D01*
X131040560Y-86255999D01*
X131040560Y-88055999D01*
X131084838Y-88291316D01*
X131223910Y-88507440D01*
X131436110Y-88652430D01*
X131688000Y-88703439D01*
X133488000Y-88703439D01*
X133723317Y-88659161D01*
X133939441Y-88520089D01*
X134084431Y-88307889D01*
X134088567Y-88287465D01*
X134257357Y-88456550D01*
X134821330Y-88690732D01*
X135431991Y-88691264D01*
X135996371Y-88458067D01*
X136428551Y-88026642D01*
X136662733Y-87462669D01*
X136663265Y-86852008D01*
X136459971Y-86360000D01*
X137606370Y-86360000D01*
X138007554Y-86761184D01*
X138007554Y-88055999D01*
X138051832Y-88291316D01*
X138190904Y-88507440D01*
X138403104Y-88652430D01*
X138654994Y-88703439D01*
X140454994Y-88703439D01*
X140690311Y-88659161D01*
X140906435Y-88520089D01*
X141051425Y-88307889D01*
X141055561Y-88287465D01*
X141224351Y-88456550D01*
X141788324Y-88690732D01*
X142398985Y-88691264D01*
X142963365Y-88458067D01*
X143395545Y-88026642D01*
X143629727Y-87462669D01*
X143630259Y-86852008D01*
X143426965Y-86360000D01*
X144718370Y-86360000D01*
X145010678Y-86652308D01*
X145010678Y-88055999D01*
X145054956Y-88291316D01*
X145194028Y-88507440D01*
X145406228Y-88652430D01*
X145658118Y-88703439D01*
X147458118Y-88703439D01*
X147693435Y-88659161D01*
X147909559Y-88520089D01*
X148054549Y-88307889D01*
X148058685Y-88287465D01*
X148227475Y-88456550D01*
X148791448Y-88690732D01*
X149402109Y-88691264D01*
X149966489Y-88458067D01*
X150398669Y-88026642D01*
X150632851Y-87462669D01*
X150633383Y-86852008D01*
X150430089Y-86360000D01*
X151830370Y-86360000D01*
X152013802Y-86543432D01*
X152013802Y-88055999D01*
X152058080Y-88291316D01*
X152197152Y-88507440D01*
X152409352Y-88652430D01*
X152661242Y-88703439D01*
X154461242Y-88703439D01*
X154696559Y-88659161D01*
X154912683Y-88520089D01*
X155057673Y-88307889D01*
X155061809Y-88287465D01*
X155230599Y-88456550D01*
X155794572Y-88690732D01*
X156405233Y-88691264D01*
X156969613Y-88458067D01*
X157401793Y-88026642D01*
X157635975Y-87462669D01*
X157636082Y-87339713D01*
X157957184Y-87660815D01*
X158044643Y-87719253D01*
X158204395Y-87825996D01*
X158496000Y-87884000D01*
X159016926Y-87884000D01*
X159016926Y-88055999D01*
X159061204Y-88291316D01*
X159200276Y-88507440D01*
X159412476Y-88652430D01*
X159664366Y-88703439D01*
X161464366Y-88703439D01*
X161699683Y-88659161D01*
X161915807Y-88520089D01*
X162060797Y-88307889D01*
X162064933Y-88287465D01*
X162233723Y-88456550D01*
X162797696Y-88690732D01*
X163408357Y-88691264D01*
X163972737Y-88458067D01*
X164404917Y-88026642D01*
X164639099Y-87462669D01*
X164639301Y-87230932D01*
X165069184Y-87660815D01*
X165156643Y-87719253D01*
X165316395Y-87825996D01*
X165608000Y-87884000D01*
X166020050Y-87884000D01*
X166020050Y-88055999D01*
X166064328Y-88291316D01*
X166203400Y-88507440D01*
X166415600Y-88652430D01*
X166667490Y-88703439D01*
X166707616Y-88703439D01*
X166557452Y-88853341D01*
X166408262Y-89212630D01*
X166407923Y-89601663D01*
X166556485Y-89961212D01*
X166831333Y-90236540D01*
X167190622Y-90385730D01*
X167579655Y-90386069D01*
X167939204Y-90237507D01*
X168006829Y-90170000D01*
X168942616Y-90170000D01*
X168745250Y-90645309D01*
X168744752Y-91216187D01*
X168962757Y-91743800D01*
X169366077Y-92147824D01*
X169893309Y-92366750D01*
X170464187Y-92367248D01*
X170991800Y-92149243D01*
X171395824Y-91745923D01*
X171614750Y-91218691D01*
X171615248Y-90647813D01*
X171417820Y-90170000D01*
X176054616Y-90170000D01*
X175857250Y-90645309D01*
X175856752Y-91216187D01*
X176074757Y-91743800D01*
X176478077Y-92147824D01*
X177005309Y-92366750D01*
X177576187Y-92367248D01*
X178103800Y-92149243D01*
X178507824Y-91745923D01*
X178726750Y-91218691D01*
X178726752Y-91216187D01*
X182460752Y-91216187D01*
X182678757Y-91743800D01*
X183082077Y-92147824D01*
X183609309Y-92366750D01*
X184180187Y-92367248D01*
X184707800Y-92149243D01*
X185111824Y-91745923D01*
X185330750Y-91218691D01*
X185330752Y-91216187D01*
X189572752Y-91216187D01*
X189790757Y-91743800D01*
X190194077Y-92147824D01*
X190721309Y-92366750D01*
X191292187Y-92367248D01*
X191819800Y-92149243D01*
X192223824Y-91745923D01*
X192442750Y-91218691D01*
X192442752Y-91216187D01*
X196684752Y-91216187D01*
X196902757Y-91743800D01*
X197306077Y-92147824D01*
X197833309Y-92366750D01*
X198404187Y-92367248D01*
X198931800Y-92149243D01*
X199335824Y-91745923D01*
X199554750Y-91218691D01*
X199554752Y-91216187D01*
X203796752Y-91216187D01*
X204014757Y-91743800D01*
X204418077Y-92147824D01*
X204945309Y-92366750D01*
X205516187Y-92367248D01*
X206043800Y-92149243D01*
X206447824Y-91745923D01*
X206666750Y-91218691D01*
X206666752Y-91216187D01*
X210908752Y-91216187D01*
X211126757Y-91743800D01*
X211530077Y-92147824D01*
X212057309Y-92366750D01*
X212628187Y-92367248D01*
X213155800Y-92149243D01*
X213559824Y-91745923D01*
X213778750Y-91218691D01*
X213778752Y-91216187D01*
X218020752Y-91216187D01*
X218238757Y-91743800D01*
X218642077Y-92147824D01*
X219169309Y-92366750D01*
X219740187Y-92367248D01*
X220267800Y-92149243D01*
X220671824Y-91745923D01*
X220890750Y-91218691D01*
X220891248Y-90647813D01*
X220673243Y-90120200D01*
X220269923Y-89716176D01*
X219742691Y-89497250D01*
X219171813Y-89496752D01*
X218644200Y-89714757D01*
X218240176Y-90118077D01*
X218021250Y-90645309D01*
X218020752Y-91216187D01*
X213778752Y-91216187D01*
X213779248Y-90647813D01*
X213561243Y-90120200D01*
X213157923Y-89716176D01*
X212630691Y-89497250D01*
X212059813Y-89496752D01*
X211532200Y-89714757D01*
X211128176Y-90118077D01*
X210909250Y-90645309D01*
X210908752Y-91216187D01*
X206666752Y-91216187D01*
X206667248Y-90647813D01*
X206449243Y-90120200D01*
X206045923Y-89716176D01*
X205518691Y-89497250D01*
X204947813Y-89496752D01*
X204420200Y-89714757D01*
X204016176Y-90118077D01*
X203797250Y-90645309D01*
X203796752Y-91216187D01*
X199554752Y-91216187D01*
X199555248Y-90647813D01*
X199337243Y-90120200D01*
X198933923Y-89716176D01*
X198406691Y-89497250D01*
X197835813Y-89496752D01*
X197308200Y-89714757D01*
X196904176Y-90118077D01*
X196685250Y-90645309D01*
X196684752Y-91216187D01*
X192442752Y-91216187D01*
X192443248Y-90647813D01*
X192225243Y-90120200D01*
X191821923Y-89716176D01*
X191294691Y-89497250D01*
X190723813Y-89496752D01*
X190196200Y-89714757D01*
X189792176Y-90118077D01*
X189573250Y-90645309D01*
X189572752Y-91216187D01*
X185330752Y-91216187D01*
X185331248Y-90647813D01*
X185113243Y-90120200D01*
X184709923Y-89716176D01*
X184182691Y-89497250D01*
X183611813Y-89496752D01*
X183084200Y-89714757D01*
X182680176Y-90118077D01*
X182461250Y-90645309D01*
X182460752Y-91216187D01*
X178726752Y-91216187D01*
X178727248Y-90647813D01*
X178529820Y-90170000D01*
X179324000Y-90170000D01*
X179615605Y-90111996D01*
X179862815Y-89946815D01*
X181106192Y-88703439D01*
X182473738Y-88703439D01*
X182709055Y-88659161D01*
X182925179Y-88520089D01*
X183070169Y-88307889D01*
X183074305Y-88287465D01*
X183243095Y-88456550D01*
X183807068Y-88690732D01*
X184417729Y-88691264D01*
X184982109Y-88458067D01*
X185414289Y-88026642D01*
X185648471Y-87462669D01*
X185648736Y-87158367D01*
X186151184Y-87660815D01*
X186238643Y-87719253D01*
X186398395Y-87825996D01*
X186690000Y-87884000D01*
X187029422Y-87884000D01*
X187029422Y-88055999D01*
X187073700Y-88291316D01*
X187212772Y-88507440D01*
X187424972Y-88652430D01*
X187676862Y-88703439D01*
X189476862Y-88703439D01*
X189712179Y-88659161D01*
X189928303Y-88520089D01*
X190073293Y-88307889D01*
X190077429Y-88287465D01*
X190246219Y-88456550D01*
X190810192Y-88690732D01*
X191420853Y-88691264D01*
X191985233Y-88458067D01*
X192417413Y-88026642D01*
X192651595Y-87462669D01*
X192652127Y-86852008D01*
X192448833Y-86360000D01*
X193740370Y-86360000D01*
X194032560Y-86652190D01*
X194032560Y-88055999D01*
X194076838Y-88291316D01*
X194215910Y-88507440D01*
X194428110Y-88652430D01*
X194680000Y-88703439D01*
X196480000Y-88703439D01*
X196715317Y-88659161D01*
X196931441Y-88520089D01*
X197076431Y-88307889D01*
X197080567Y-88287465D01*
X197249357Y-88456550D01*
X197813330Y-88690732D01*
X198423991Y-88691264D01*
X198988371Y-88458067D01*
X199420551Y-88026642D01*
X199654733Y-87462669D01*
X199655265Y-86852008D01*
X199451971Y-86360000D01*
X200852370Y-86360000D01*
X201144560Y-86652190D01*
X201144560Y-88055999D01*
X201188838Y-88291316D01*
X201327910Y-88507440D01*
X201540110Y-88652430D01*
X201792000Y-88703439D01*
X203592000Y-88703439D01*
X203827317Y-88659161D01*
X204043441Y-88520089D01*
X204188431Y-88307889D01*
X204192567Y-88287465D01*
X204361357Y-88456550D01*
X204925330Y-88690732D01*
X205535991Y-88691264D01*
X206100371Y-88458067D01*
X206532551Y-88026642D01*
X206766733Y-87462669D01*
X206767265Y-86852008D01*
X206563971Y-86360000D01*
X207964370Y-86360000D01*
X208256560Y-86652190D01*
X208256560Y-88055999D01*
X208300838Y-88291316D01*
X208439910Y-88507440D01*
X208652110Y-88652430D01*
X208904000Y-88703439D01*
X210704000Y-88703439D01*
X210939317Y-88659161D01*
X211155441Y-88520089D01*
X211300431Y-88307889D01*
X211304567Y-88287465D01*
X211473357Y-88456550D01*
X212037330Y-88690732D01*
X212647991Y-88691264D01*
X213212371Y-88458067D01*
X213644551Y-88026642D01*
X213878733Y-87462669D01*
X213879265Y-86852008D01*
X213675971Y-86360000D01*
X215076370Y-86360000D01*
X215368560Y-86652190D01*
X215368560Y-88055999D01*
X215412838Y-88291316D01*
X215551910Y-88507440D01*
X215764110Y-88652430D01*
X216016000Y-88703439D01*
X217816000Y-88703439D01*
X218051317Y-88659161D01*
X218267441Y-88520089D01*
X218412431Y-88307889D01*
X218416567Y-88287465D01*
X218585357Y-88456550D01*
X219149330Y-88690732D01*
X219759991Y-88691264D01*
X220324371Y-88458067D01*
X220756551Y-88026642D01*
X220990733Y-87462669D01*
X220991265Y-86852008D01*
X220758068Y-86287628D01*
X220326643Y-85855448D01*
X219762670Y-85621266D01*
X219152009Y-85620734D01*
X218587629Y-85853931D01*
X218419387Y-86021879D01*
X218419162Y-86020682D01*
X218280090Y-85804558D01*
X218067890Y-85659568D01*
X217816000Y-85608559D01*
X216480189Y-85608559D01*
X215930815Y-85059185D01*
X215683605Y-84894004D01*
X215392000Y-84836000D01*
X211328000Y-84836000D01*
X211036395Y-84894004D01*
X210789184Y-85059185D01*
X210239810Y-85608559D01*
X209368189Y-85608559D01*
X208818815Y-85059185D01*
X208571605Y-84894004D01*
X208280000Y-84836000D01*
X204216000Y-84836000D01*
X203924395Y-84894004D01*
X203677184Y-85059185D01*
X203127810Y-85608559D01*
X202256189Y-85608559D01*
X201706815Y-85059185D01*
X201459605Y-84894004D01*
X201168000Y-84836000D01*
X197104000Y-84836000D01*
X196812395Y-84894004D01*
X196565184Y-85059185D01*
X196015810Y-85608559D01*
X195144189Y-85608559D01*
X194594815Y-85059185D01*
X194347605Y-84894004D01*
X194056000Y-84836000D01*
X190246000Y-84836000D01*
X189954395Y-84894004D01*
X189707184Y-85059185D01*
X189157810Y-85608559D01*
X187676862Y-85608559D01*
X187441545Y-85652837D01*
X187225421Y-85791909D01*
X187080431Y-86004109D01*
X187029422Y-86255999D01*
X187029422Y-86360000D01*
X187005631Y-86360000D01*
X185704815Y-85059185D01*
X185457605Y-84894004D01*
X185166000Y-84836000D01*
X183134000Y-84836000D01*
X182842395Y-84894004D01*
X182595184Y-85059185D01*
X182045810Y-85608559D01*
X180673738Y-85608559D01*
X180438421Y-85652837D01*
X180222297Y-85791909D01*
X180077307Y-86004109D01*
X180026298Y-86255999D01*
X180026298Y-87628071D01*
X179008370Y-88646000D01*
X177524152Y-88646000D01*
X177978985Y-88458067D01*
X178411165Y-88026642D01*
X178645347Y-87462669D01*
X178645879Y-86852008D01*
X178412682Y-86287628D01*
X177981257Y-85855448D01*
X177417284Y-85621266D01*
X176806623Y-85620734D01*
X176242243Y-85853931D01*
X176074001Y-86021879D01*
X176073776Y-86020682D01*
X175934704Y-85804558D01*
X175722504Y-85659568D01*
X175470614Y-85608559D01*
X173670614Y-85608559D01*
X173435297Y-85652837D01*
X173219173Y-85791909D01*
X173074183Y-86004109D01*
X173023174Y-86255999D01*
X173023174Y-86347543D01*
X171988815Y-85313185D01*
X171978653Y-85306395D01*
X171741605Y-85148004D01*
X171526933Y-85105303D01*
X171480815Y-85059185D01*
X171233605Y-84894004D01*
X170942000Y-84836000D01*
X169164000Y-84836000D01*
X168872395Y-84894004D01*
X168625184Y-85059185D01*
X168075810Y-85608559D01*
X166667490Y-85608559D01*
X166432173Y-85652837D01*
X166216049Y-85791909D01*
X166071059Y-86004109D01*
X166020050Y-86255999D01*
X166020050Y-86360000D01*
X165923631Y-86360000D01*
X164622815Y-85059185D01*
X164375605Y-84894004D01*
X164084000Y-84836000D01*
X162052000Y-84836000D01*
X161760395Y-84894004D01*
X161513184Y-85059185D01*
X160963810Y-85608559D01*
X159664366Y-85608559D01*
X159429049Y-85652837D01*
X159212925Y-85791909D01*
X159067935Y-86004109D01*
X159016926Y-86255999D01*
X159016926Y-86360000D01*
X158811631Y-86360000D01*
X157510815Y-85059185D01*
X157263605Y-84894004D01*
X156972000Y-84836000D01*
X155194000Y-84836000D01*
X154902395Y-84894004D01*
X154655184Y-85059185D01*
X154105810Y-85608559D01*
X153234189Y-85608559D01*
X152684815Y-85059185D01*
X152437605Y-84894004D01*
X152146000Y-84836000D01*
X148082000Y-84836000D01*
X147790395Y-84894004D01*
X147543184Y-85059185D01*
X146993810Y-85608559D01*
X146122189Y-85608559D01*
X145572815Y-85059185D01*
X145325605Y-84894004D01*
X145034000Y-84836000D01*
X141224000Y-84836000D01*
X140932395Y-84894004D01*
X140685184Y-85059185D01*
X140135810Y-85608559D01*
X139010189Y-85608559D01*
X138460815Y-85059185D01*
X138213605Y-84894004D01*
X137922000Y-84836000D01*
X134112000Y-84836000D01*
X133820395Y-84894004D01*
X133573184Y-85059185D01*
X133023810Y-85608559D01*
X131688000Y-85608559D01*
X131452683Y-85652837D01*
X131236559Y-85791909D01*
X131091569Y-86004109D01*
X131040560Y-86255999D01*
X129359241Y-86255999D01*
X128959389Y-85855448D01*
X128395416Y-85621266D01*
X127784755Y-85620734D01*
X127220375Y-85853931D01*
X127052133Y-86021879D01*
X127051908Y-86020682D01*
X126912836Y-85804558D01*
X126700636Y-85659568D01*
X126448746Y-85608559D01*
X125040189Y-85608559D01*
X124490815Y-85059185D01*
X124243605Y-84894004D01*
X123952000Y-84836000D01*
X120142000Y-84836000D01*
X119850395Y-84894004D01*
X119603184Y-85059185D01*
X119053810Y-85608559D01*
X118182189Y-85608559D01*
X117632815Y-85059185D01*
X117385605Y-84894004D01*
X117094000Y-84836000D01*
X113030000Y-84836000D01*
X112738395Y-84894004D01*
X112491184Y-85059185D01*
X111941810Y-85608559D01*
X111070189Y-85608559D01*
X110520815Y-85059185D01*
X110273605Y-84894004D01*
X109982000Y-84836000D01*
X105918000Y-84836000D01*
X105626395Y-84894004D01*
X105379184Y-85059185D01*
X104829810Y-85608559D01*
X103958189Y-85608559D01*
X103408815Y-85059185D01*
X103161605Y-84894004D01*
X102870000Y-84836000D01*
X99060000Y-84836000D01*
X98768395Y-84894004D01*
X98521184Y-85059185D01*
X97971810Y-85608559D01*
X97100189Y-85608559D01*
X96550815Y-85059185D01*
X96303605Y-84894004D01*
X96012000Y-84836000D01*
X92202000Y-84836000D01*
X91910395Y-84894004D01*
X91663184Y-85059185D01*
X91113810Y-85608559D01*
X89988189Y-85608559D01*
X89438815Y-85059185D01*
X89191605Y-84894004D01*
X88900000Y-84836000D01*
X85090000Y-84836000D01*
X84798395Y-84894004D01*
X84551184Y-85059185D01*
X84001810Y-85608559D01*
X82630002Y-85608559D01*
X82394685Y-85652837D01*
X82178561Y-85791909D01*
X82033571Y-86004109D01*
X81982562Y-86255999D01*
X75005000Y-86255999D01*
X75005000Y-83210462D01*
X75404422Y-83210462D01*
X75911076Y-84436658D01*
X76848407Y-85375627D01*
X78073717Y-85884420D01*
X79400462Y-85885578D01*
X80626658Y-85378924D01*
X81565627Y-84441593D01*
X82074420Y-83216283D01*
X82074425Y-83210462D01*
X220184422Y-83210462D01*
X220691076Y-84436658D01*
X221628407Y-85375627D01*
X222853717Y-85884420D01*
X224180462Y-85885578D01*
X225406658Y-85378924D01*
X226345627Y-84441593D01*
X226854420Y-83216283D01*
X226855578Y-81889538D01*
X226348924Y-80663342D01*
X225411593Y-79724373D01*
X224186283Y-79215580D01*
X222859538Y-79214422D01*
X221633342Y-79721076D01*
X220694373Y-80658407D01*
X220185580Y-81883717D01*
X220184422Y-83210462D01*
X82074425Y-83210462D01*
X82075578Y-81889538D01*
X81568924Y-80663342D01*
X80631593Y-79724373D01*
X79406283Y-79215580D01*
X78079538Y-79214422D01*
X76853342Y-79721076D01*
X75914373Y-80658407D01*
X75405580Y-81883717D01*
X75404422Y-83210462D01*
X75005000Y-83210462D01*
X75005000Y-78809931D01*
X75108815Y-78288016D01*
X75364844Y-77904843D01*
X75748015Y-77648815D01*
X76269931Y-77545000D01*
X225736069Y-77545000D01*
X226257984Y-77648815D01*
X226257984Y-77648815D01*
G37*
X226257984Y-77648815D02*
X226641157Y-77904844D01*
X226897185Y-78288015D01*
X227001000Y-78809931D01*
X227001000Y-102165069D01*
X226897185Y-102686985D01*
X226641157Y-103070156D01*
X226257984Y-103326185D01*
X225736069Y-103430000D01*
X182905400Y-103430000D01*
X182830854Y-103444828D01*
X182038328Y-103589747D01*
X181917008Y-103640000D01*
X181782388Y-103695761D01*
X181164745Y-104108456D01*
X181115297Y-104157904D01*
X181057154Y-104196754D01*
X170560291Y-114693617D01*
X170974420Y-113696283D01*
X170975578Y-112369538D01*
X170468924Y-111143342D01*
X169531593Y-110204373D01*
X168306283Y-109695580D01*
X166979538Y-109694422D01*
X165753342Y-110201076D01*
X164814373Y-111138407D01*
X164305580Y-112363717D01*
X164304422Y-113690462D01*
X164811076Y-114916658D01*
X165748407Y-115855627D01*
X166973717Y-116364420D01*
X168300462Y-116365578D01*
X169302268Y-115951640D01*
X168965400Y-116288508D01*
X168523330Y-116583889D01*
X168001865Y-116687615D01*
X134004965Y-116687961D01*
X133483053Y-116584147D01*
X133040599Y-116288507D01*
X130442554Y-113690462D01*
X131284422Y-113690462D01*
X131791076Y-114916658D01*
X132728407Y-115855627D01*
X133953717Y-116364420D01*
X135280462Y-116365578D01*
X136506658Y-115858924D01*
X137445627Y-114921593D01*
X137607125Y-114532661D01*
X140820758Y-114532661D01*
X141032990Y-115046303D01*
X141425630Y-115439629D01*
X141938900Y-115652757D01*
X142494661Y-115653242D01*
X143008303Y-115441010D01*
X143401629Y-115048370D01*
X143614757Y-114535100D01*
X143615242Y-113979339D01*
X143403010Y-113465697D01*
X143010370Y-113072371D01*
X142497100Y-112859243D01*
X141941339Y-112858758D01*
X141427697Y-113070990D01*
X141034371Y-113463630D01*
X140821243Y-113976900D01*
X140820758Y-114532661D01*
X137607125Y-114532661D01*
X137954420Y-113696283D01*
X137955578Y-112369538D01*
X137448924Y-111143342D01*
X136511593Y-110204373D01*
X135286283Y-109695580D01*
X133959538Y-109694422D01*
X132733342Y-110201076D01*
X131794373Y-111138407D01*
X131285580Y-112363717D01*
X131284422Y-113690462D01*
X130442554Y-113690462D01*
X120948846Y-104196754D01*
X120895751Y-104161277D01*
X120842093Y-104107619D01*
X120224068Y-103694666D01*
X120072779Y-103632000D01*
X119968126Y-103588651D01*
X119239114Y-103443642D01*
X119169184Y-103443642D01*
X119100600Y-103430000D01*
X76269931Y-103430000D01*
X75748015Y-103326185D01*
X75364844Y-103070157D01*
X75108815Y-102686984D01*
X75005000Y-102165069D01*
X75005000Y-101063887D01*
X84417000Y-101063887D01*
X84417000Y-101120113D01*
X84526233Y-101669264D01*
X84837302Y-102134811D01*
X85302849Y-102445880D01*
X85852000Y-102555113D01*
X86401151Y-102445880D01*
X86866698Y-102134811D01*
X87177767Y-101669264D01*
X87287000Y-101120113D01*
X87287000Y-101063887D01*
X87232373Y-100789257D01*
X87602631Y-100418999D01*
X91702203Y-100418999D01*
X91638233Y-100514736D01*
X91529000Y-101063887D01*
X91529000Y-101120113D01*
X91638233Y-101669264D01*
X91949302Y-102134811D01*
X92414849Y-102445880D01*
X92964000Y-102555113D01*
X93513151Y-102445880D01*
X93978698Y-102134811D01*
X94289767Y-101669264D01*
X94399000Y-101120113D01*
X94399000Y-101063887D01*
X94289767Y-100514736D01*
X94225797Y-100418999D01*
X98814203Y-100418999D01*
X98750233Y-100514736D01*
X98641000Y-101063887D01*
X98641000Y-101120113D01*
X98750233Y-101669264D01*
X99061302Y-102134811D01*
X99526849Y-102445880D01*
X100076000Y-102555113D01*
X100625151Y-102445880D01*
X101090698Y-102134811D01*
X101401767Y-101669264D01*
X101511000Y-101120113D01*
X101511000Y-101063887D01*
X101401767Y-100514736D01*
X101337797Y-100418999D01*
X105926203Y-100418999D01*
X105862233Y-100514736D01*
X105753000Y-101063887D01*
X105753000Y-101120113D01*
X105862233Y-101669264D01*
X106173302Y-102134811D01*
X106638849Y-102445880D01*
X107188000Y-102555113D01*
X107737151Y-102445880D01*
X108202698Y-102134811D01*
X108513767Y-101669264D01*
X108623000Y-101120113D01*
X108623000Y-101063887D01*
X108513767Y-100514736D01*
X108449797Y-100418999D01*
X113038203Y-100418999D01*
X112974233Y-100514736D01*
X112865000Y-101063887D01*
X112865000Y-101120113D01*
X112974233Y-101669264D01*
X113285302Y-102134811D01*
X113750849Y-102445880D01*
X114300000Y-102555113D01*
X114849151Y-102445880D01*
X115314698Y-102134811D01*
X115625767Y-101669264D01*
X115735000Y-101120113D01*
X115735000Y-101063887D01*
X115625767Y-100514736D01*
X115561797Y-100418999D01*
X119642203Y-100418999D01*
X119578233Y-100514736D01*
X119469000Y-101063887D01*
X119469000Y-101120113D01*
X119578233Y-101669264D01*
X119889302Y-102134811D01*
X120354849Y-102445880D01*
X120904000Y-102555113D01*
X121453151Y-102445880D01*
X121918698Y-102134811D01*
X122229767Y-101669264D01*
X122339000Y-101120113D01*
X122339000Y-101063887D01*
X122229767Y-100514736D01*
X122165797Y-100418999D01*
X126754203Y-100418999D01*
X126690233Y-100514736D01*
X126581000Y-101063887D01*
X126581000Y-101120113D01*
X126690233Y-101669264D01*
X127001302Y-102134811D01*
X127466849Y-102445880D01*
X128016000Y-102555113D01*
X128565151Y-102445880D01*
X129030698Y-102134811D01*
X129341767Y-101669264D01*
X129451000Y-101120113D01*
X129451000Y-101063887D01*
X129341767Y-100514736D01*
X129277797Y-100418999D01*
X133866203Y-100418999D01*
X133802233Y-100514736D01*
X133693000Y-101063887D01*
X133693000Y-101120113D01*
X133802233Y-101669264D01*
X134113302Y-102134811D01*
X134366000Y-102303659D01*
X134366000Y-104648000D01*
X134424004Y-104939605D01*
X134520055Y-105083355D01*
X134589185Y-105186815D01*
X140177184Y-110774815D01*
X140424395Y-110939996D01*
X140716000Y-110998000D01*
X142821295Y-110998000D01*
X142832990Y-111026303D01*
X143225630Y-111419629D01*
X143738900Y-111632757D01*
X144294661Y-111633242D01*
X144808303Y-111421010D01*
X145201629Y-111028370D01*
X145287949Y-110820488D01*
X145372990Y-111026303D01*
X145765630Y-111419629D01*
X146278900Y-111632757D01*
X146834661Y-111633242D01*
X147348303Y-111421010D01*
X147741629Y-111028370D01*
X147827949Y-110820488D01*
X147912990Y-111026303D01*
X148305630Y-111419629D01*
X148818900Y-111632757D01*
X149374661Y-111633242D01*
X149888303Y-111421010D01*
X150281629Y-111028370D01*
X150367949Y-110820488D01*
X150452990Y-111026303D01*
X150845630Y-111419629D01*
X151358900Y-111632757D01*
X151914661Y-111633242D01*
X152428303Y-111421010D01*
X152821629Y-111028370D01*
X152907949Y-110820488D01*
X152992990Y-111026303D01*
X153385630Y-111419629D01*
X153898900Y-111632757D01*
X154454661Y-111633242D01*
X154968303Y-111421010D01*
X155361629Y-111028370D01*
X155574757Y-110515100D01*
X155575242Y-109959339D01*
X155562684Y-109928946D01*
X155605577Y-109886054D01*
X155605162Y-110361141D01*
X155817394Y-110874783D01*
X156210034Y-111268109D01*
X156723304Y-111481237D01*
X157279065Y-111481722D01*
X157792707Y-111269490D01*
X158186033Y-110876850D01*
X158198644Y-110846480D01*
X158899832Y-110846480D01*
X158719184Y-110967185D01*
X158295382Y-111390987D01*
X158267100Y-111379243D01*
X157711339Y-111378758D01*
X157197697Y-111590990D01*
X156804371Y-111983630D01*
X156718051Y-112191512D01*
X156633010Y-111985697D01*
X156240370Y-111592371D01*
X155727100Y-111379243D01*
X155171339Y-111378758D01*
X154657697Y-111590990D01*
X154264371Y-111983630D01*
X154184605Y-112175727D01*
X154130397Y-112044857D01*
X153888213Y-111975392D01*
X153087605Y-112776000D01*
X153888213Y-113576608D01*
X154130397Y-113507143D01*
X154180509Y-113366682D01*
X154262990Y-113566303D01*
X154655630Y-113959629D01*
X155168900Y-114172757D01*
X155724661Y-114173242D01*
X156238303Y-113961010D01*
X156631629Y-113568370D01*
X156717949Y-113360488D01*
X156802990Y-113566303D01*
X157195630Y-113959629D01*
X157708900Y-114172757D01*
X158264661Y-114173242D01*
X158391117Y-114120991D01*
X158390758Y-114532661D01*
X158538821Y-114891001D01*
X148480631Y-114891001D01*
X147762573Y-114172943D01*
X148104661Y-114173242D01*
X148618303Y-113961010D01*
X149011629Y-113568370D01*
X149097949Y-113360488D01*
X149182990Y-113566303D01*
X149575630Y-113959629D01*
X150088900Y-114172757D01*
X150644661Y-114173242D01*
X151158303Y-113961010D01*
X151363457Y-113756213D01*
X152107392Y-113756213D01*
X152176857Y-113998397D01*
X152700302Y-114185144D01*
X153255368Y-114157362D01*
X153639143Y-113998397D01*
X153708608Y-113756213D01*
X152908000Y-112955605D01*
X152107392Y-113756213D01*
X151363457Y-113756213D01*
X151551629Y-113568370D01*
X151631395Y-113376273D01*
X151685603Y-113507143D01*
X151927787Y-113576608D01*
X152728395Y-112776000D01*
X151927787Y-111975392D01*
X151685603Y-112044857D01*
X151635491Y-112185318D01*
X151553010Y-111985697D01*
X151363432Y-111795787D01*
X152107392Y-111795787D01*
X152908000Y-112596395D01*
X153708608Y-111795787D01*
X153639143Y-111553603D01*
X153115698Y-111366856D01*
X152560632Y-111394638D01*
X152176857Y-111553603D01*
X152107392Y-111795787D01*
X151363432Y-111795787D01*
X151160370Y-111592371D01*
X150647100Y-111379243D01*
X150091339Y-111378758D01*
X149577697Y-111590990D01*
X149184371Y-111983630D01*
X149098051Y-112191512D01*
X149013010Y-111985697D01*
X148620370Y-111592371D01*
X148107100Y-111379243D01*
X147551339Y-111378758D01*
X147037697Y-111590990D01*
X146644371Y-111983630D01*
X146558051Y-112191512D01*
X146473010Y-111985697D01*
X146080370Y-111592371D01*
X145567100Y-111379243D01*
X145011339Y-111378758D01*
X144497697Y-111590990D01*
X144104371Y-111983630D01*
X143891243Y-112496900D01*
X143890758Y-113052661D01*
X144102990Y-113566303D01*
X144495630Y-113959629D01*
X145008900Y-114172757D01*
X145564661Y-114173242D01*
X145595054Y-114160684D01*
X147626186Y-116191816D01*
X147873396Y-116356997D01*
X148165001Y-116415001D01*
X160952999Y-116415001D01*
X161244604Y-116356997D01*
X161491814Y-116191816D01*
X163421644Y-114261987D01*
X163515663Y-114262069D01*
X163875212Y-114113507D01*
X164150540Y-113838659D01*
X164299730Y-113479370D01*
X164300069Y-113090337D01*
X164151507Y-112730788D01*
X163876659Y-112455460D01*
X163517370Y-112306270D01*
X163128337Y-112305931D01*
X162768788Y-112454493D01*
X162493460Y-112729341D01*
X162344270Y-113088630D01*
X162344187Y-113184182D01*
X161184924Y-114343445D01*
X161185242Y-113979339D01*
X160973010Y-113465697D01*
X160580370Y-113072371D01*
X160067100Y-112859243D01*
X159511339Y-112858758D01*
X159384883Y-112911009D01*
X159385242Y-112499339D01*
X159372684Y-112468947D01*
X159573631Y-112268000D01*
X162306000Y-112268000D01*
X162597605Y-112209996D01*
X162844815Y-112044815D01*
X173035630Y-101854000D01*
X176089670Y-101854000D01*
X176277302Y-102134811D01*
X176742849Y-102445880D01*
X177292000Y-102555113D01*
X177841151Y-102445880D01*
X178306698Y-102134811D01*
X178617767Y-101669264D01*
X178727000Y-101120113D01*
X178727000Y-101063887D01*
X178617767Y-100514736D01*
X178553797Y-100418999D01*
X182145369Y-100418999D01*
X182515627Y-100789258D01*
X182461000Y-101063887D01*
X182461000Y-101120113D01*
X182570233Y-101669264D01*
X182881302Y-102134811D01*
X183346849Y-102445880D01*
X183896000Y-102555113D01*
X184445151Y-102445880D01*
X184910698Y-102134811D01*
X185221767Y-101669264D01*
X185331000Y-101120113D01*
X185331000Y-101063887D01*
X185221767Y-100514736D01*
X184910698Y-100049189D01*
X184445151Y-99738120D01*
X183896000Y-99628887D01*
X183574474Y-99692843D01*
X183195630Y-99314000D01*
X188152370Y-99314000D01*
X189627627Y-100789258D01*
X189573000Y-101063887D01*
X189573000Y-101120113D01*
X189682233Y-101669264D01*
X189993302Y-102134811D01*
X190458849Y-102445880D01*
X191008000Y-102555113D01*
X191557151Y-102445880D01*
X192022698Y-102134811D01*
X192333767Y-101669264D01*
X192443000Y-101120113D01*
X192443000Y-101063887D01*
X192333767Y-100514736D01*
X192022698Y-100049189D01*
X191557151Y-99738120D01*
X191008000Y-99628887D01*
X190686473Y-99692843D01*
X189253540Y-98259910D01*
X194210280Y-98259910D01*
X196739627Y-100789257D01*
X196685000Y-101063887D01*
X196685000Y-101120113D01*
X196794233Y-101669264D01*
X197105302Y-102134811D01*
X197570849Y-102445880D01*
X198120000Y-102555113D01*
X198669151Y-102445880D01*
X199134698Y-102134811D01*
X199445767Y-101669264D01*
X199555000Y-101120113D01*
X199555000Y-101063887D01*
X199445767Y-100514736D01*
X199134698Y-100049189D01*
X198669151Y-99738120D01*
X198120000Y-99628887D01*
X197798473Y-99692843D01*
X195387630Y-97282000D01*
X200344370Y-97282000D01*
X203851627Y-100789258D01*
X203797000Y-101063887D01*
X203797000Y-101120113D01*
X203906233Y-101669264D01*
X204217302Y-102134811D01*
X204682849Y-102445880D01*
X205232000Y-102555113D01*
X205781151Y-102445880D01*
X206246698Y-102134811D01*
X206557767Y-101669264D01*
X206667000Y-101120113D01*
X206667000Y-101063887D01*
X206557767Y-100514736D01*
X206246698Y-100049189D01*
X205781151Y-99738120D01*
X205232000Y-99628887D01*
X204910473Y-99692843D01*
X201483630Y-96266000D01*
X206440370Y-96266000D01*
X210963627Y-100789258D01*
X210909000Y-101063887D01*
X210909000Y-101120113D01*
X211018233Y-101669264D01*
X211329302Y-102134811D01*
X211794849Y-102445880D01*
X212344000Y-102555113D01*
X212893151Y-102445880D01*
X213358698Y-102134811D01*
X213669767Y-101669264D01*
X213779000Y-101120113D01*
X213779000Y-101063887D01*
X213669767Y-100514736D01*
X213358698Y-100049189D01*
X212893151Y-99738120D01*
X212344000Y-99628887D01*
X212022473Y-99692843D01*
X207579630Y-95250000D01*
X212536370Y-95250000D01*
X218075627Y-100789257D01*
X218021000Y-101063887D01*
X218021000Y-101120113D01*
X218130233Y-101669264D01*
X218441302Y-102134811D01*
X218906849Y-102445880D01*
X219456000Y-102555113D01*
X220005151Y-102445880D01*
X220470698Y-102134811D01*
X220781767Y-101669264D01*
X220891000Y-101120113D01*
X220891000Y-101063887D01*
X220781767Y-100514736D01*
X220470698Y-100049189D01*
X220005151Y-99738120D01*
X219456000Y-99628887D01*
X219134473Y-99692843D01*
X213390815Y-93949185D01*
X213367103Y-93933341D01*
X213143605Y-93784004D01*
X212852000Y-93726000D01*
X175451385Y-93726000D01*
X175475730Y-93667370D01*
X175476069Y-93278337D01*
X175327507Y-92918788D01*
X175052659Y-92643460D01*
X174693370Y-92494270D01*
X174304337Y-92493931D01*
X173944788Y-92642493D01*
X173877163Y-92710000D01*
X136162572Y-92710000D01*
X136134172Y-92681550D01*
X135774883Y-92532360D01*
X135385850Y-92532021D01*
X135026301Y-92680583D01*
X134750973Y-92955431D01*
X134601783Y-93314720D01*
X134601444Y-93703753D01*
X134610636Y-93726000D01*
X128129083Y-93726000D01*
X128062659Y-93659460D01*
X127703370Y-93510270D01*
X127314337Y-93509931D01*
X126954788Y-93658493D01*
X126679460Y-93933341D01*
X126530270Y-94292630D01*
X126529931Y-94681663D01*
X126554862Y-94742000D01*
X120509083Y-94742000D01*
X120442659Y-94675460D01*
X120083370Y-94526270D01*
X119694337Y-94525931D01*
X119334788Y-94674493D01*
X119059460Y-94949341D01*
X118910270Y-95308630D01*
X118909931Y-95697663D01*
X118934862Y-95758000D01*
X112127083Y-95758000D01*
X112060659Y-95691460D01*
X111701370Y-95542270D01*
X111312337Y-95541931D01*
X110952788Y-95690493D01*
X110677460Y-95965341D01*
X110528270Y-96324630D01*
X110527931Y-96713663D01*
X110537123Y-96735910D01*
X104215059Y-96735910D01*
X104186659Y-96707460D01*
X103827370Y-96558270D01*
X103438337Y-96557931D01*
X103078788Y-96706493D01*
X102803460Y-96981341D01*
X102654270Y-97340630D01*
X102653931Y-97729663D01*
X102678862Y-97790000D01*
X96125083Y-97790000D01*
X96058659Y-97723460D01*
X95699370Y-97574270D01*
X95310337Y-97573931D01*
X94950788Y-97722493D01*
X94675460Y-97997341D01*
X94526270Y-98356630D01*
X94525931Y-98745663D01*
X94587635Y-98894999D01*
X87287001Y-98894999D01*
X86995396Y-98953003D01*
X86767600Y-99105212D01*
X86748186Y-99118184D01*
X86173527Y-99692843D01*
X85852000Y-99628887D01*
X85302849Y-99738120D01*
X84837302Y-100049189D01*
X84526233Y-100514736D01*
X84417000Y-101063887D01*
X75005000Y-101063887D01*
X75005000Y-91216187D01*
X84416752Y-91216187D01*
X84634757Y-91743800D01*
X85038077Y-92147824D01*
X85565309Y-92366750D01*
X86136187Y-92367248D01*
X86663800Y-92149243D01*
X87067824Y-91745923D01*
X87286750Y-91218691D01*
X87286752Y-91216187D01*
X91528752Y-91216187D01*
X91746757Y-91743800D01*
X92150077Y-92147824D01*
X92677309Y-92366750D01*
X93248187Y-92367248D01*
X93775800Y-92149243D01*
X94179824Y-91745923D01*
X94398750Y-91218691D01*
X94398752Y-91216187D01*
X98640752Y-91216187D01*
X98858757Y-91743800D01*
X99262077Y-92147824D01*
X99789309Y-92366750D01*
X100360187Y-92367248D01*
X100887800Y-92149243D01*
X101291824Y-91745923D01*
X101510750Y-91218691D01*
X101510752Y-91216187D01*
X105752752Y-91216187D01*
X105970757Y-91743800D01*
X106374077Y-92147824D01*
X106901309Y-92366750D01*
X107472187Y-92367248D01*
X107999800Y-92149243D01*
X108403824Y-91745923D01*
X108622750Y-91218691D01*
X108622752Y-91216187D01*
X112864752Y-91216187D01*
X113082757Y-91743800D01*
X113486077Y-92147824D01*
X114013309Y-92366750D01*
X114584187Y-92367248D01*
X115111800Y-92149243D01*
X115515824Y-91745923D01*
X115734750Y-91218691D01*
X115734752Y-91216187D01*
X119468752Y-91216187D01*
X119686757Y-91743800D01*
X120090077Y-92147824D01*
X120617309Y-92366750D01*
X121188187Y-92367248D01*
X121715800Y-92149243D01*
X122119824Y-91745923D01*
X122338750Y-91218691D01*
X122339248Y-90647813D01*
X122121243Y-90120200D01*
X121717923Y-89716176D01*
X121190691Y-89497250D01*
X120619813Y-89496752D01*
X120092200Y-89714757D01*
X119688176Y-90118077D01*
X119469250Y-90645309D01*
X119468752Y-91216187D01*
X115734752Y-91216187D01*
X115735248Y-90647813D01*
X115517243Y-90120200D01*
X115113923Y-89716176D01*
X114586691Y-89497250D01*
X114015813Y-89496752D01*
X113488200Y-89714757D01*
X113084176Y-90118077D01*
X112865250Y-90645309D01*
X112864752Y-91216187D01*
X108622752Y-91216187D01*
X108623248Y-90647813D01*
X108405243Y-90120200D01*
X108001923Y-89716176D01*
X107474691Y-89497250D01*
X106903813Y-89496752D01*
X106376200Y-89714757D01*
X105972176Y-90118077D01*
X105753250Y-90645309D01*
X105752752Y-91216187D01*
X101510752Y-91216187D01*
X101511248Y-90647813D01*
X101293243Y-90120200D01*
X100889923Y-89716176D01*
X100362691Y-89497250D01*
X99791813Y-89496752D01*
X99264200Y-89714757D01*
X98860176Y-90118077D01*
X98641250Y-90645309D01*
X98640752Y-91216187D01*
X94398752Y-91216187D01*
X94399248Y-90647813D01*
X94181243Y-90120200D01*
X93777923Y-89716176D01*
X93250691Y-89497250D01*
X92679813Y-89496752D01*
X92152200Y-89714757D01*
X91748176Y-90118077D01*
X91529250Y-90645309D01*
X91528752Y-91216187D01*
X87286752Y-91216187D01*
X87287248Y-90647813D01*
X87069243Y-90120200D01*
X86665923Y-89716176D01*
X86138691Y-89497250D01*
X85567813Y-89496752D01*
X85040200Y-89714757D01*
X84636176Y-90118077D01*
X84417250Y-90645309D01*
X84416752Y-91216187D01*
X75005000Y-91216187D01*
X75005000Y-86255999D01*
X81982562Y-86255999D01*
X81982562Y-88055999D01*
X82026840Y-88291316D01*
X82165912Y-88507440D01*
X82378112Y-88652430D01*
X82630002Y-88703439D01*
X84430002Y-88703439D01*
X84665319Y-88659161D01*
X84881443Y-88520089D01*
X85026433Y-88307889D01*
X85030569Y-88287465D01*
X85199359Y-88456550D01*
X85763332Y-88690732D01*
X86373993Y-88691264D01*
X86938373Y-88458067D01*
X87370553Y-88026642D01*
X87604735Y-87462669D01*
X87605267Y-86852008D01*
X87401973Y-86360000D01*
X88584370Y-86360000D01*
X88985686Y-86761316D01*
X88985686Y-88055999D01*
X89029964Y-88291316D01*
X89169036Y-88507440D01*
X89381236Y-88652430D01*
X89633126Y-88703439D01*
X91433126Y-88703439D01*
X91668443Y-88659161D01*
X91884567Y-88520089D01*
X92029557Y-88307889D01*
X92033693Y-88287465D01*
X92202483Y-88456550D01*
X92766456Y-88690732D01*
X93377117Y-88691264D01*
X93941497Y-88458067D01*
X94373677Y-88026642D01*
X94607859Y-87462669D01*
X94608391Y-86852008D01*
X94405097Y-86360000D01*
X95696370Y-86360000D01*
X95988810Y-86652440D01*
X95988810Y-88055999D01*
X96033088Y-88291316D01*
X96172160Y-88507440D01*
X96384360Y-88652430D01*
X96636250Y-88703439D01*
X98436250Y-88703439D01*
X98671567Y-88659161D01*
X98887691Y-88520089D01*
X99032681Y-88307889D01*
X99036817Y-88287465D01*
X99205607Y-88456550D01*
X99769580Y-88690732D01*
X100380241Y-88691264D01*
X100944621Y-88458067D01*
X101376801Y-88026642D01*
X101610983Y-87462669D01*
X101611515Y-86852008D01*
X101408221Y-86360000D01*
X102554370Y-86360000D01*
X102883058Y-86688688D01*
X102883058Y-88055999D01*
X102927336Y-88291316D01*
X103066408Y-88507440D01*
X103278608Y-88652430D01*
X103530498Y-88703439D01*
X105330498Y-88703439D01*
X105565815Y-88659161D01*
X105781939Y-88520089D01*
X105926929Y-88307889D01*
X105931065Y-88287465D01*
X106099855Y-88456550D01*
X106663828Y-88690732D01*
X107274489Y-88691264D01*
X107838869Y-88458067D01*
X108271049Y-88026642D01*
X108505231Y-87462669D01*
X108505763Y-86852008D01*
X108302469Y-86360000D01*
X109666370Y-86360000D01*
X109995058Y-86688688D01*
X109995058Y-88055999D01*
X110039336Y-88291316D01*
X110178408Y-88507440D01*
X110390608Y-88652430D01*
X110642498Y-88703439D01*
X112442498Y-88703439D01*
X112677815Y-88659161D01*
X112893939Y-88520089D01*
X113038929Y-88307889D01*
X113043065Y-88287465D01*
X113211855Y-88456550D01*
X113775828Y-88690732D01*
X114386489Y-88691264D01*
X114950869Y-88458067D01*
X115383049Y-88026642D01*
X115617231Y-87462669D01*
X115617763Y-86852008D01*
X115414469Y-86360000D01*
X116778370Y-86360000D01*
X116998182Y-86579812D01*
X116998182Y-88055999D01*
X117042460Y-88291316D01*
X117181532Y-88507440D01*
X117393732Y-88652430D01*
X117645622Y-88703439D01*
X119445622Y-88703439D01*
X119680939Y-88659161D01*
X119897063Y-88520089D01*
X120042053Y-88307889D01*
X120046189Y-88287465D01*
X120214979Y-88456550D01*
X120778952Y-88690732D01*
X121389613Y-88691264D01*
X121953993Y-88458067D01*
X122386173Y-88026642D01*
X122620355Y-87462669D01*
X122620887Y-86852008D01*
X122417593Y-86360000D01*
X123636370Y-86360000D01*
X124001306Y-86724936D01*
X124001306Y-88055999D01*
X124045584Y-88291316D01*
X124184656Y-88507440D01*
X124396856Y-88652430D01*
X124648746Y-88703439D01*
X125979808Y-88703439D01*
X126461184Y-89184815D01*
X126461187Y-89184817D01*
X126715184Y-89438815D01*
X126958903Y-89601663D01*
X126962395Y-89603996D01*
X127254000Y-89662000D01*
X127331882Y-89662000D01*
X127204200Y-89714757D01*
X126800176Y-90118077D01*
X126581250Y-90645309D01*
X126580752Y-91216187D01*
X126798757Y-91743800D01*
X127202077Y-92147824D01*
X127729309Y-92366750D01*
X128300187Y-92367248D01*
X128827800Y-92149243D01*
X129231824Y-91745923D01*
X129450750Y-91218691D01*
X129451248Y-90647813D01*
X129233243Y-90120200D01*
X128829923Y-89716176D01*
X128699453Y-89662000D01*
X129224370Y-89662000D01*
X131356013Y-91793644D01*
X131355931Y-91887663D01*
X131504493Y-92247212D01*
X131779341Y-92522540D01*
X132138630Y-92671730D01*
X132527663Y-92672069D01*
X132887212Y-92523507D01*
X133162540Y-92248659D01*
X133311730Y-91889370D01*
X133312069Y-91500337D01*
X133194662Y-91216187D01*
X133692752Y-91216187D01*
X133910757Y-91743800D01*
X134314077Y-92147824D01*
X134841309Y-92366750D01*
X135412187Y-92367248D01*
X135939800Y-92149243D01*
X136343824Y-91745923D01*
X136562750Y-91218691D01*
X136562752Y-91216187D01*
X140804752Y-91216187D01*
X141022757Y-91743800D01*
X141426077Y-92147824D01*
X141953309Y-92366750D01*
X142524187Y-92367248D01*
X143051800Y-92149243D01*
X143455824Y-91745923D01*
X143674750Y-91218691D01*
X143674752Y-91216187D01*
X147916752Y-91216187D01*
X148134757Y-91743800D01*
X148538077Y-92147824D01*
X149065309Y-92366750D01*
X149636187Y-92367248D01*
X150163800Y-92149243D01*
X150567824Y-91745923D01*
X150786750Y-91218691D01*
X150786752Y-91216187D01*
X154520752Y-91216187D01*
X154738757Y-91743800D01*
X155142077Y-92147824D01*
X155669309Y-92366750D01*
X156240187Y-92367248D01*
X156767800Y-92149243D01*
X157171824Y-91745923D01*
X157390750Y-91218691D01*
X157390752Y-91216187D01*
X161632752Y-91216187D01*
X161850757Y-91743800D01*
X162254077Y-92147824D01*
X162781309Y-92366750D01*
X163352187Y-92367248D01*
X163879800Y-92149243D01*
X164283824Y-91745923D01*
X164502750Y-91218691D01*
X164503248Y-90647813D01*
X164285243Y-90120200D01*
X163881923Y-89716176D01*
X163354691Y-89497250D01*
X162783813Y-89496752D01*
X162256200Y-89714757D01*
X161852176Y-90118077D01*
X161633250Y-90645309D01*
X161632752Y-91216187D01*
X157390752Y-91216187D01*
X157391248Y-90647813D01*
X157173243Y-90120200D01*
X156769923Y-89716176D01*
X156242691Y-89497250D01*
X155671813Y-89496752D01*
X155144200Y-89714757D01*
X154740176Y-90118077D01*
X154521250Y-90645309D01*
X154520752Y-91216187D01*
X150786752Y-91216187D01*
X150787248Y-90647813D01*
X150569243Y-90120200D01*
X150165923Y-89716176D01*
X149638691Y-89497250D01*
X149067813Y-89496752D01*
X148540200Y-89714757D01*
X148136176Y-90118077D01*
X147917250Y-90645309D01*
X147916752Y-91216187D01*
X143674752Y-91216187D01*
X143675248Y-90647813D01*
X143457243Y-90120200D01*
X143053923Y-89716176D01*
X142526691Y-89497250D01*
X141955813Y-89496752D01*
X141428200Y-89714757D01*
X141024176Y-90118077D01*
X140805250Y-90645309D01*
X140804752Y-91216187D01*
X136562752Y-91216187D01*
X136563248Y-90647813D01*
X136345243Y-90120200D01*
X135941923Y-89716176D01*
X135414691Y-89497250D01*
X134843813Y-89496752D01*
X134316200Y-89714757D01*
X133912176Y-90118077D01*
X133693250Y-90645309D01*
X133692752Y-91216187D01*
X133194662Y-91216187D01*
X133163507Y-91140788D01*
X132888659Y-90865460D01*
X132529370Y-90716270D01*
X132433818Y-90716187D01*
X130078815Y-88361185D01*
X129974249Y-88291316D01*
X129831605Y-88196004D01*
X129540000Y-88138000D01*
X129277744Y-88138000D01*
X129389297Y-88026642D01*
X129623479Y-87462669D01*
X129624011Y-86852008D01*
X129390814Y-86287628D01*
X129359241Y-86255999D01*
X131040560Y-86255999D01*
X131040560Y-88055999D01*
X131084838Y-88291316D01*
X131223910Y-88507440D01*
X131436110Y-88652430D01*
X131688000Y-88703439D01*
X133488000Y-88703439D01*
X133723317Y-88659161D01*
X133939441Y-88520089D01*
X134084431Y-88307889D01*
X134088567Y-88287465D01*
X134257357Y-88456550D01*
X134821330Y-88690732D01*
X135431991Y-88691264D01*
X135996371Y-88458067D01*
X136428551Y-88026642D01*
X136662733Y-87462669D01*
X136663265Y-86852008D01*
X136459971Y-86360000D01*
X137606370Y-86360000D01*
X138007554Y-86761184D01*
X138007554Y-88055999D01*
X138051832Y-88291316D01*
X138190904Y-88507440D01*
X138403104Y-88652430D01*
X138654994Y-88703439D01*
X140454994Y-88703439D01*
X140690311Y-88659161D01*
X140906435Y-88520089D01*
X141051425Y-88307889D01*
X141055561Y-88287465D01*
X141224351Y-88456550D01*
X141788324Y-88690732D01*
X142398985Y-88691264D01*
X142963365Y-88458067D01*
X143395545Y-88026642D01*
X143629727Y-87462669D01*
X143630259Y-86852008D01*
X143426965Y-86360000D01*
X144718370Y-86360000D01*
X145010678Y-86652308D01*
X145010678Y-88055999D01*
X145054956Y-88291316D01*
X145194028Y-88507440D01*
X145406228Y-88652430D01*
X145658118Y-88703439D01*
X147458118Y-88703439D01*
X147693435Y-88659161D01*
X147909559Y-88520089D01*
X148054549Y-88307889D01*
X148058685Y-88287465D01*
X148227475Y-88456550D01*
X148791448Y-88690732D01*
X149402109Y-88691264D01*
X149966489Y-88458067D01*
X150398669Y-88026642D01*
X150632851Y-87462669D01*
X150633383Y-86852008D01*
X150430089Y-86360000D01*
X151830370Y-86360000D01*
X152013802Y-86543432D01*
X152013802Y-88055999D01*
X152058080Y-88291316D01*
X152197152Y-88507440D01*
X152409352Y-88652430D01*
X152661242Y-88703439D01*
X154461242Y-88703439D01*
X154696559Y-88659161D01*
X154912683Y-88520089D01*
X155057673Y-88307889D01*
X155061809Y-88287465D01*
X155230599Y-88456550D01*
X155794572Y-88690732D01*
X156405233Y-88691264D01*
X156969613Y-88458067D01*
X157401793Y-88026642D01*
X157635975Y-87462669D01*
X157636082Y-87339713D01*
X157957184Y-87660815D01*
X158044643Y-87719253D01*
X158204395Y-87825996D01*
X158496000Y-87884000D01*
X159016926Y-87884000D01*
X159016926Y-88055999D01*
X159061204Y-88291316D01*
X159200276Y-88507440D01*
X159412476Y-88652430D01*
X159664366Y-88703439D01*
X161464366Y-88703439D01*
X161699683Y-88659161D01*
X161915807Y-88520089D01*
X162060797Y-88307889D01*
X162064933Y-88287465D01*
X162233723Y-88456550D01*
X162797696Y-88690732D01*
X163408357Y-88691264D01*
X163972737Y-88458067D01*
X164404917Y-88026642D01*
X164639099Y-87462669D01*
X164639301Y-87230932D01*
X165069184Y-87660815D01*
X165156643Y-87719253D01*
X165316395Y-87825996D01*
X165608000Y-87884000D01*
X166020050Y-87884000D01*
X166020050Y-88055999D01*
X166064328Y-88291316D01*
X166203400Y-88507440D01*
X166415600Y-88652430D01*
X166667490Y-88703439D01*
X166707616Y-88703439D01*
X166557452Y-88853341D01*
X166408262Y-89212630D01*
X166407923Y-89601663D01*
X166556485Y-89961212D01*
X166831333Y-90236540D01*
X167190622Y-90385730D01*
X167579655Y-90386069D01*
X167939204Y-90237507D01*
X168006829Y-90170000D01*
X168942616Y-90170000D01*
X168745250Y-90645309D01*
X168744752Y-91216187D01*
X168962757Y-91743800D01*
X169366077Y-92147824D01*
X169893309Y-92366750D01*
X170464187Y-92367248D01*
X170991800Y-92149243D01*
X171395824Y-91745923D01*
X171614750Y-91218691D01*
X171615248Y-90647813D01*
X171417820Y-90170000D01*
X176054616Y-90170000D01*
X175857250Y-90645309D01*
X175856752Y-91216187D01*
X176074757Y-91743800D01*
X176478077Y-92147824D01*
X177005309Y-92366750D01*
X177576187Y-92367248D01*
X178103800Y-92149243D01*
X178507824Y-91745923D01*
X178726750Y-91218691D01*
X178726752Y-91216187D01*
X182460752Y-91216187D01*
X182678757Y-91743800D01*
X183082077Y-92147824D01*
X183609309Y-92366750D01*
X184180187Y-92367248D01*
X184707800Y-92149243D01*
X185111824Y-91745923D01*
X185330750Y-91218691D01*
X185330752Y-91216187D01*
X189572752Y-91216187D01*
X189790757Y-91743800D01*
X190194077Y-92147824D01*
X190721309Y-92366750D01*
X191292187Y-92367248D01*
X191819800Y-92149243D01*
X192223824Y-91745923D01*
X192442750Y-91218691D01*
X192442752Y-91216187D01*
X196684752Y-91216187D01*
X196902757Y-91743800D01*
X197306077Y-92147824D01*
X197833309Y-92366750D01*
X198404187Y-92367248D01*
X198931800Y-92149243D01*
X199335824Y-91745923D01*
X199554750Y-91218691D01*
X199554752Y-91216187D01*
X203796752Y-91216187D01*
X204014757Y-91743800D01*
X204418077Y-92147824D01*
X204945309Y-92366750D01*
X205516187Y-92367248D01*
X206043800Y-92149243D01*
X206447824Y-91745923D01*
X206666750Y-91218691D01*
X206666752Y-91216187D01*
X210908752Y-91216187D01*
X211126757Y-91743800D01*
X211530077Y-92147824D01*
X212057309Y-92366750D01*
X212628187Y-92367248D01*
X213155800Y-92149243D01*
X213559824Y-91745923D01*
X213778750Y-91218691D01*
X213778752Y-91216187D01*
X218020752Y-91216187D01*
X218238757Y-91743800D01*
X218642077Y-92147824D01*
X219169309Y-92366750D01*
X219740187Y-92367248D01*
X220267800Y-92149243D01*
X220671824Y-91745923D01*
X220890750Y-91218691D01*
X220891248Y-90647813D01*
X220673243Y-90120200D01*
X220269923Y-89716176D01*
X219742691Y-89497250D01*
X219171813Y-89496752D01*
X218644200Y-89714757D01*
X218240176Y-90118077D01*
X218021250Y-90645309D01*
X218020752Y-91216187D01*
X213778752Y-91216187D01*
X213779248Y-90647813D01*
X213561243Y-90120200D01*
X213157923Y-89716176D01*
X212630691Y-89497250D01*
X212059813Y-89496752D01*
X211532200Y-89714757D01*
X211128176Y-90118077D01*
X210909250Y-90645309D01*
X210908752Y-91216187D01*
X206666752Y-91216187D01*
X206667248Y-90647813D01*
X206449243Y-90120200D01*
X206045923Y-89716176D01*
X205518691Y-89497250D01*
X204947813Y-89496752D01*
X204420200Y-89714757D01*
X204016176Y-90118077D01*
X203797250Y-90645309D01*
X203796752Y-91216187D01*
X199554752Y-91216187D01*
X199555248Y-90647813D01*
X199337243Y-90120200D01*
X198933923Y-89716176D01*
X198406691Y-89497250D01*
X197835813Y-89496752D01*
X197308200Y-89714757D01*
X196904176Y-90118077D01*
X196685250Y-90645309D01*
X196684752Y-91216187D01*
X192442752Y-91216187D01*
X192443248Y-90647813D01*
X192225243Y-90120200D01*
X191821923Y-89716176D01*
X191294691Y-89497250D01*
X190723813Y-89496752D01*
X190196200Y-89714757D01*
X189792176Y-90118077D01*
X189573250Y-90645309D01*
X189572752Y-91216187D01*
X185330752Y-91216187D01*
X185331248Y-90647813D01*
X185113243Y-90120200D01*
X184709923Y-89716176D01*
X184182691Y-89497250D01*
X183611813Y-89496752D01*
X183084200Y-89714757D01*
X182680176Y-90118077D01*
X182461250Y-90645309D01*
X182460752Y-91216187D01*
X178726752Y-91216187D01*
X178727248Y-90647813D01*
X178529820Y-90170000D01*
X179324000Y-90170000D01*
X179615605Y-90111996D01*
X179862815Y-89946815D01*
X181106192Y-88703439D01*
X182473738Y-88703439D01*
X182709055Y-88659161D01*
X182925179Y-88520089D01*
X183070169Y-88307889D01*
X183074305Y-88287465D01*
X183243095Y-88456550D01*
X183807068Y-88690732D01*
X184417729Y-88691264D01*
X184982109Y-88458067D01*
X185414289Y-88026642D01*
X185648471Y-87462669D01*
X185648736Y-87158367D01*
X186151184Y-87660815D01*
X186238643Y-87719253D01*
X186398395Y-87825996D01*
X186690000Y-87884000D01*
X187029422Y-87884000D01*
X187029422Y-88055999D01*
X187073700Y-88291316D01*
X187212772Y-88507440D01*
X187424972Y-88652430D01*
X187676862Y-88703439D01*
X189476862Y-88703439D01*
X189712179Y-88659161D01*
X189928303Y-88520089D01*
X190073293Y-88307889D01*
X190077429Y-88287465D01*
X190246219Y-88456550D01*
X190810192Y-88690732D01*
X191420853Y-88691264D01*
X191985233Y-88458067D01*
X192417413Y-88026642D01*
X192651595Y-87462669D01*
X192652127Y-86852008D01*
X192448833Y-86360000D01*
X193740370Y-86360000D01*
X194032560Y-86652190D01*
X194032560Y-88055999D01*
X194076838Y-88291316D01*
X194215910Y-88507440D01*
X194428110Y-88652430D01*
X194680000Y-88703439D01*
X196480000Y-88703439D01*
X196715317Y-88659161D01*
X196931441Y-88520089D01*
X197076431Y-88307889D01*
X197080567Y-88287465D01*
X197249357Y-88456550D01*
X197813330Y-88690732D01*
X198423991Y-88691264D01*
X198988371Y-88458067D01*
X199420551Y-88026642D01*
X199654733Y-87462669D01*
X199655265Y-86852008D01*
X199451971Y-86360000D01*
X200852370Y-86360000D01*
X201144560Y-86652190D01*
X201144560Y-88055999D01*
X201188838Y-88291316D01*
X201327910Y-88507440D01*
X201540110Y-88652430D01*
X201792000Y-88703439D01*
X203592000Y-88703439D01*
X203827317Y-88659161D01*
X204043441Y-88520089D01*
X204188431Y-88307889D01*
X204192567Y-88287465D01*
X204361357Y-88456550D01*
X204925330Y-88690732D01*
X205535991Y-88691264D01*
X206100371Y-88458067D01*
X206532551Y-88026642D01*
X206766733Y-87462669D01*
X206767265Y-86852008D01*
X206563971Y-86360000D01*
X207964370Y-86360000D01*
X208256560Y-86652190D01*
X208256560Y-88055999D01*
X208300838Y-88291316D01*
X208439910Y-88507440D01*
X208652110Y-88652430D01*
X208904000Y-88703439D01*
X210704000Y-88703439D01*
X210939317Y-88659161D01*
X211155441Y-88520089D01*
X211300431Y-88307889D01*
X211304567Y-88287465D01*
X211473357Y-88456550D01*
X212037330Y-88690732D01*
X212647991Y-88691264D01*
X213212371Y-88458067D01*
X213644551Y-88026642D01*
X213878733Y-87462669D01*
X213879265Y-86852008D01*
X213675971Y-86360000D01*
X215076370Y-86360000D01*
X215368560Y-86652190D01*
X215368560Y-88055999D01*
X215412838Y-88291316D01*
X215551910Y-88507440D01*
X215764110Y-88652430D01*
X216016000Y-88703439D01*
X217816000Y-88703439D01*
X218051317Y-88659161D01*
X218267441Y-88520089D01*
X218412431Y-88307889D01*
X218416567Y-88287465D01*
X218585357Y-88456550D01*
X219149330Y-88690732D01*
X219759991Y-88691264D01*
X220324371Y-88458067D01*
X220756551Y-88026642D01*
X220990733Y-87462669D01*
X220991265Y-86852008D01*
X220758068Y-86287628D01*
X220326643Y-85855448D01*
X219762670Y-85621266D01*
X219152009Y-85620734D01*
X218587629Y-85853931D01*
X218419387Y-86021879D01*
X218419162Y-86020682D01*
X218280090Y-85804558D01*
X218067890Y-85659568D01*
X217816000Y-85608559D01*
X216480189Y-85608559D01*
X215930815Y-85059185D01*
X215683605Y-84894004D01*
X215392000Y-84836000D01*
X211328000Y-84836000D01*
X211036395Y-84894004D01*
X210789184Y-85059185D01*
X210239810Y-85608559D01*
X209368189Y-85608559D01*
X208818815Y-85059185D01*
X208571605Y-84894004D01*
X208280000Y-84836000D01*
X204216000Y-84836000D01*
X203924395Y-84894004D01*
X203677184Y-85059185D01*
X203127810Y-85608559D01*
X202256189Y-85608559D01*
X201706815Y-85059185D01*
X201459605Y-84894004D01*
X201168000Y-84836000D01*
X197104000Y-84836000D01*
X196812395Y-84894004D01*
X196565184Y-85059185D01*
X196015810Y-85608559D01*
X195144189Y-85608559D01*
X194594815Y-85059185D01*
X194347605Y-84894004D01*
X194056000Y-84836000D01*
X190246000Y-84836000D01*
X189954395Y-84894004D01*
X189707184Y-85059185D01*
X189157810Y-85608559D01*
X187676862Y-85608559D01*
X187441545Y-85652837D01*
X187225421Y-85791909D01*
X187080431Y-86004109D01*
X187029422Y-86255999D01*
X187029422Y-86360000D01*
X187005631Y-86360000D01*
X185704815Y-85059185D01*
X185457605Y-84894004D01*
X185166000Y-84836000D01*
X183134000Y-84836000D01*
X182842395Y-84894004D01*
X182595184Y-85059185D01*
X182045810Y-85608559D01*
X180673738Y-85608559D01*
X180438421Y-85652837D01*
X180222297Y-85791909D01*
X180077307Y-86004109D01*
X180026298Y-86255999D01*
X180026298Y-87628071D01*
X179008370Y-88646000D01*
X177524152Y-88646000D01*
X177978985Y-88458067D01*
X178411165Y-88026642D01*
X178645347Y-87462669D01*
X178645879Y-86852008D01*
X178412682Y-86287628D01*
X177981257Y-85855448D01*
X177417284Y-85621266D01*
X176806623Y-85620734D01*
X176242243Y-85853931D01*
X176074001Y-86021879D01*
X176073776Y-86020682D01*
X175934704Y-85804558D01*
X175722504Y-85659568D01*
X175470614Y-85608559D01*
X173670614Y-85608559D01*
X173435297Y-85652837D01*
X173219173Y-85791909D01*
X173074183Y-86004109D01*
X173023174Y-86255999D01*
X173023174Y-86347543D01*
X171988815Y-85313185D01*
X171978653Y-85306395D01*
X171741605Y-85148004D01*
X171526933Y-85105303D01*
X171480815Y-85059185D01*
X171233605Y-84894004D01*
X170942000Y-84836000D01*
X169164000Y-84836000D01*
X168872395Y-84894004D01*
X168625184Y-85059185D01*
X168075810Y-85608559D01*
X166667490Y-85608559D01*
X166432173Y-85652837D01*
X166216049Y-85791909D01*
X166071059Y-86004109D01*
X166020050Y-86255999D01*
X166020050Y-86360000D01*
X165923631Y-86360000D01*
X164622815Y-85059185D01*
X164375605Y-84894004D01*
X164084000Y-84836000D01*
X162052000Y-84836000D01*
X161760395Y-84894004D01*
X161513184Y-85059185D01*
X160963810Y-85608559D01*
X159664366Y-85608559D01*
X159429049Y-85652837D01*
X159212925Y-85791909D01*
X159067935Y-86004109D01*
X159016926Y-86255999D01*
X159016926Y-86360000D01*
X158811631Y-86360000D01*
X157510815Y-85059185D01*
X157263605Y-84894004D01*
X156972000Y-84836000D01*
X155194000Y-84836000D01*
X154902395Y-84894004D01*
X154655184Y-85059185D01*
X154105810Y-85608559D01*
X153234189Y-85608559D01*
X152684815Y-85059185D01*
X152437605Y-84894004D01*
X152146000Y-84836000D01*
X148082000Y-84836000D01*
X147790395Y-84894004D01*
X147543184Y-85059185D01*
X146993810Y-85608559D01*
X146122189Y-85608559D01*
X145572815Y-85059185D01*
X145325605Y-84894004D01*
X145034000Y-84836000D01*
X141224000Y-84836000D01*
X140932395Y-84894004D01*
X140685184Y-85059185D01*
X140135810Y-85608559D01*
X139010189Y-85608559D01*
X138460815Y-85059185D01*
X138213605Y-84894004D01*
X137922000Y-84836000D01*
X134112000Y-84836000D01*
X133820395Y-84894004D01*
X133573184Y-85059185D01*
X133023810Y-85608559D01*
X131688000Y-85608559D01*
X131452683Y-85652837D01*
X131236559Y-85791909D01*
X131091569Y-86004109D01*
X131040560Y-86255999D01*
X129359241Y-86255999D01*
X128959389Y-85855448D01*
X128395416Y-85621266D01*
X127784755Y-85620734D01*
X127220375Y-85853931D01*
X127052133Y-86021879D01*
X127051908Y-86020682D01*
X126912836Y-85804558D01*
X126700636Y-85659568D01*
X126448746Y-85608559D01*
X125040189Y-85608559D01*
X124490815Y-85059185D01*
X124243605Y-84894004D01*
X123952000Y-84836000D01*
X120142000Y-84836000D01*
X119850395Y-84894004D01*
X119603184Y-85059185D01*
X119053810Y-85608559D01*
X118182189Y-85608559D01*
X117632815Y-85059185D01*
X117385605Y-84894004D01*
X117094000Y-84836000D01*
X113030000Y-84836000D01*
X112738395Y-84894004D01*
X112491184Y-85059185D01*
X111941810Y-85608559D01*
X111070189Y-85608559D01*
X110520815Y-85059185D01*
X110273605Y-84894004D01*
X109982000Y-84836000D01*
X105918000Y-84836000D01*
X105626395Y-84894004D01*
X105379184Y-85059185D01*
X104829810Y-85608559D01*
X103958189Y-85608559D01*
X103408815Y-85059185D01*
X103161605Y-84894004D01*
X102870000Y-84836000D01*
X99060000Y-84836000D01*
X98768395Y-84894004D01*
X98521184Y-85059185D01*
X97971810Y-85608559D01*
X97100189Y-85608559D01*
X96550815Y-85059185D01*
X96303605Y-84894004D01*
X96012000Y-84836000D01*
X92202000Y-84836000D01*
X91910395Y-84894004D01*
X91663184Y-85059185D01*
X91113810Y-85608559D01*
X89988189Y-85608559D01*
X89438815Y-85059185D01*
X89191605Y-84894004D01*
X88900000Y-84836000D01*
X85090000Y-84836000D01*
X84798395Y-84894004D01*
X84551184Y-85059185D01*
X84001810Y-85608559D01*
X82630002Y-85608559D01*
X82394685Y-85652837D01*
X82178561Y-85791909D01*
X82033571Y-86004109D01*
X81982562Y-86255999D01*
X75005000Y-86255999D01*
X75005000Y-83210462D01*
X75404422Y-83210462D01*
X75911076Y-84436658D01*
X76848407Y-85375627D01*
X78073717Y-85884420D01*
X79400462Y-85885578D01*
X80626658Y-85378924D01*
X81565627Y-84441593D01*
X82074420Y-83216283D01*
X82074425Y-83210462D01*
X220184422Y-83210462D01*
X220691076Y-84436658D01*
X221628407Y-85375627D01*
X222853717Y-85884420D01*
X224180462Y-85885578D01*
X225406658Y-85378924D01*
X226345627Y-84441593D01*
X226854420Y-83216283D01*
X226855578Y-81889538D01*
X226348924Y-80663342D01*
X225411593Y-79724373D01*
X224186283Y-79215580D01*
X222859538Y-79214422D01*
X221633342Y-79721076D01*
X220694373Y-80658407D01*
X220185580Y-81883717D01*
X220184422Y-83210462D01*
X82074425Y-83210462D01*
X82075578Y-81889538D01*
X81568924Y-80663342D01*
X80631593Y-79724373D01*
X79406283Y-79215580D01*
X78079538Y-79214422D01*
X76853342Y-79721076D01*
X75914373Y-80658407D01*
X75405580Y-81883717D01*
X75404422Y-83210462D01*
X75005000Y-83210462D01*
X75005000Y-78809931D01*
X75108815Y-78288016D01*
X75364844Y-77904843D01*
X75748015Y-77648815D01*
X76269931Y-77545000D01*
X225736069Y-77545000D01*
X226257984Y-77648815D01*
G36*
X154630233Y-100514736D02*
X154521000Y-101063887D01*
X154521000Y-101120113D01*
X154630233Y-101669264D01*
X154905356Y-102081014D01*
X153893185Y-103093185D01*
X153728004Y-103340395D01*
X153670000Y-103632000D01*
X153670000Y-103892975D01*
X153513699Y-103736673D01*
X153280310Y-103640000D01*
X152939750Y-103640000D01*
X152781000Y-103798750D01*
X152781000Y-104648000D01*
X152801000Y-104648000D01*
X152801000Y-104902000D01*
X152781000Y-104902000D01*
X152781000Y-105751250D01*
X152939750Y-105910000D01*
X153280310Y-105910000D01*
X153513699Y-105813327D01*
X153670000Y-105657025D01*
X153670000Y-107126369D01*
X151945383Y-108850987D01*
X151917100Y-108839243D01*
X151361339Y-108838758D01*
X150847697Y-109050990D01*
X150454371Y-109443630D01*
X150368051Y-109651512D01*
X150283010Y-109445697D01*
X149890370Y-109052371D01*
X149606000Y-108934290D01*
X149606000Y-105793020D01*
X149887244Y-105909803D01*
X150249117Y-105910119D01*
X150248803Y-106269775D01*
X150421233Y-106687086D01*
X150740235Y-107006645D01*
X151157244Y-107179803D01*
X151608775Y-107180197D01*
X152026086Y-107007767D01*
X152345645Y-106688765D01*
X152518803Y-106271756D01*
X152519197Y-105820225D01*
X152501311Y-105776939D01*
X152527000Y-105751250D01*
X152527000Y-104902000D01*
X151677750Y-104902000D01*
X151652302Y-104927448D01*
X151610756Y-104910197D01*
X151248883Y-104909881D01*
X151249197Y-104550225D01*
X151083286Y-104148691D01*
X151519000Y-104148691D01*
X151519000Y-104489250D01*
X151677750Y-104648000D01*
X152527000Y-104648000D01*
X152527000Y-103798750D01*
X152368250Y-103640000D01*
X152027690Y-103640000D01*
X151794301Y-103736673D01*
X151615673Y-103915302D01*
X151519000Y-104148691D01*
X151083286Y-104148691D01*
X151076767Y-104132914D01*
X150757765Y-103813355D01*
X150340756Y-103640197D01*
X149889225Y-103639803D01*
X149606000Y-103756830D01*
X149606000Y-102504589D01*
X149901151Y-102445880D01*
X150366698Y-102134811D01*
X150677767Y-101669264D01*
X150787000Y-101120113D01*
X150787000Y-101063887D01*
X150677767Y-100514736D01*
X150613797Y-100418999D01*
X154694203Y-100418999D01*
X154630233Y-100514736D01*
X154630233Y-100514736D01*
G37*
X154630233Y-100514736D02*
X154521000Y-101063887D01*
X154521000Y-101120113D01*
X154630233Y-101669264D01*
X154905356Y-102081014D01*
X153893185Y-103093185D01*
X153728004Y-103340395D01*
X153670000Y-103632000D01*
X153670000Y-103892975D01*
X153513699Y-103736673D01*
X153280310Y-103640000D01*
X152939750Y-103640000D01*
X152781000Y-103798750D01*
X152781000Y-104648000D01*
X152801000Y-104648000D01*
X152801000Y-104902000D01*
X152781000Y-104902000D01*
X152781000Y-105751250D01*
X152939750Y-105910000D01*
X153280310Y-105910000D01*
X153513699Y-105813327D01*
X153670000Y-105657025D01*
X153670000Y-107126369D01*
X151945383Y-108850987D01*
X151917100Y-108839243D01*
X151361339Y-108838758D01*
X150847697Y-109050990D01*
X150454371Y-109443630D01*
X150368051Y-109651512D01*
X150283010Y-109445697D01*
X149890370Y-109052371D01*
X149606000Y-108934290D01*
X149606000Y-105793020D01*
X149887244Y-105909803D01*
X150249117Y-105910119D01*
X150248803Y-106269775D01*
X150421233Y-106687086D01*
X150740235Y-107006645D01*
X151157244Y-107179803D01*
X151608775Y-107180197D01*
X152026086Y-107007767D01*
X152345645Y-106688765D01*
X152518803Y-106271756D01*
X152519197Y-105820225D01*
X152501311Y-105776939D01*
X152527000Y-105751250D01*
X152527000Y-104902000D01*
X151677750Y-104902000D01*
X151652302Y-104927448D01*
X151610756Y-104910197D01*
X151248883Y-104909881D01*
X151249197Y-104550225D01*
X151083286Y-104148691D01*
X151519000Y-104148691D01*
X151519000Y-104489250D01*
X151677750Y-104648000D01*
X152527000Y-104648000D01*
X152527000Y-103798750D01*
X152368250Y-103640000D01*
X152027690Y-103640000D01*
X151794301Y-103736673D01*
X151615673Y-103915302D01*
X151519000Y-104148691D01*
X151083286Y-104148691D01*
X151076767Y-104132914D01*
X150757765Y-103813355D01*
X150340756Y-103640197D01*
X149889225Y-103639803D01*
X149606000Y-103756830D01*
X149606000Y-102504589D01*
X149901151Y-102445880D01*
X150366698Y-102134811D01*
X150677767Y-101669264D01*
X150787000Y-101120113D01*
X150787000Y-101063887D01*
X150677767Y-100514736D01*
X150613797Y-100418999D01*
X154694203Y-100418999D01*
X154630233Y-100514736D01*
G36*
X148026233Y-100514736D02*
X147917000Y-101063887D01*
X147917000Y-101120113D01*
X148026233Y-101669264D01*
X148082000Y-101752725D01*
X148082000Y-109276293D01*
X147914371Y-109443630D01*
X147828051Y-109651512D01*
X147743010Y-109445697D01*
X147350370Y-109052371D01*
X146837100Y-108839243D01*
X146281339Y-108838758D01*
X146250946Y-108851316D01*
X143002000Y-105602370D01*
X143002000Y-105475812D01*
X143262378Y-105736645D01*
X143679387Y-105909803D01*
X144041260Y-105910119D01*
X144040946Y-106269775D01*
X144213376Y-106687086D01*
X144532378Y-107006645D01*
X144949387Y-107179803D01*
X145400918Y-107180197D01*
X145818229Y-107007767D01*
X146137788Y-106688765D01*
X146310946Y-106271756D01*
X146311340Y-105820225D01*
X146293454Y-105776939D01*
X146319143Y-105751250D01*
X146319143Y-104902000D01*
X146573143Y-104902000D01*
X146573143Y-105751250D01*
X146731893Y-105910000D01*
X147072453Y-105910000D01*
X147305842Y-105813327D01*
X147484470Y-105634698D01*
X147581143Y-105401309D01*
X147581143Y-105060750D01*
X147422393Y-104902000D01*
X146573143Y-104902000D01*
X146319143Y-104902000D01*
X145469893Y-104902000D01*
X145444445Y-104927448D01*
X145402899Y-104910197D01*
X145041026Y-104909881D01*
X145041340Y-104550225D01*
X144875429Y-104148691D01*
X145311143Y-104148691D01*
X145311143Y-104489250D01*
X145469893Y-104648000D01*
X146319143Y-104648000D01*
X146319143Y-103798750D01*
X146573143Y-103798750D01*
X146573143Y-104648000D01*
X147422393Y-104648000D01*
X147581143Y-104489250D01*
X147581143Y-104148691D01*
X147484470Y-103915302D01*
X147305842Y-103736673D01*
X147072453Y-103640000D01*
X146731893Y-103640000D01*
X146573143Y-103798750D01*
X146319143Y-103798750D01*
X146160393Y-103640000D01*
X145819833Y-103640000D01*
X145586444Y-103736673D01*
X145407816Y-103915302D01*
X145311143Y-104148691D01*
X144875429Y-104148691D01*
X144868910Y-104132914D01*
X144549908Y-103813355D01*
X144132899Y-103640197D01*
X143681368Y-103639803D01*
X143264057Y-103812233D01*
X143002000Y-104073833D01*
X143002000Y-102303659D01*
X143254698Y-102134811D01*
X143565767Y-101669264D01*
X143675000Y-101120113D01*
X143675000Y-101063887D01*
X143565767Y-100514736D01*
X143501797Y-100418999D01*
X148090203Y-100418999D01*
X148026233Y-100514736D01*
X148026233Y-100514736D01*
G37*
X148026233Y-100514736D02*
X147917000Y-101063887D01*
X147917000Y-101120113D01*
X148026233Y-101669264D01*
X148082000Y-101752725D01*
X148082000Y-109276293D01*
X147914371Y-109443630D01*
X147828051Y-109651512D01*
X147743010Y-109445697D01*
X147350370Y-109052371D01*
X146837100Y-108839243D01*
X146281339Y-108838758D01*
X146250946Y-108851316D01*
X143002000Y-105602370D01*
X143002000Y-105475812D01*
X143262378Y-105736645D01*
X143679387Y-105909803D01*
X144041260Y-105910119D01*
X144040946Y-106269775D01*
X144213376Y-106687086D01*
X144532378Y-107006645D01*
X144949387Y-107179803D01*
X145400918Y-107180197D01*
X145818229Y-107007767D01*
X146137788Y-106688765D01*
X146310946Y-106271756D01*
X146311340Y-105820225D01*
X146293454Y-105776939D01*
X146319143Y-105751250D01*
X146319143Y-104902000D01*
X146573143Y-104902000D01*
X146573143Y-105751250D01*
X146731893Y-105910000D01*
X147072453Y-105910000D01*
X147305842Y-105813327D01*
X147484470Y-105634698D01*
X147581143Y-105401309D01*
X147581143Y-105060750D01*
X147422393Y-104902000D01*
X146573143Y-104902000D01*
X146319143Y-104902000D01*
X145469893Y-104902000D01*
X145444445Y-104927448D01*
X145402899Y-104910197D01*
X145041026Y-104909881D01*
X145041340Y-104550225D01*
X144875429Y-104148691D01*
X145311143Y-104148691D01*
X145311143Y-104489250D01*
X145469893Y-104648000D01*
X146319143Y-104648000D01*
X146319143Y-103798750D01*
X146573143Y-103798750D01*
X146573143Y-104648000D01*
X147422393Y-104648000D01*
X147581143Y-104489250D01*
X147581143Y-104148691D01*
X147484470Y-103915302D01*
X147305842Y-103736673D01*
X147072453Y-103640000D01*
X146731893Y-103640000D01*
X146573143Y-103798750D01*
X146319143Y-103798750D01*
X146160393Y-103640000D01*
X145819833Y-103640000D01*
X145586444Y-103736673D01*
X145407816Y-103915302D01*
X145311143Y-104148691D01*
X144875429Y-104148691D01*
X144868910Y-104132914D01*
X144549908Y-103813355D01*
X144132899Y-103640197D01*
X143681368Y-103639803D01*
X143264057Y-103812233D01*
X143002000Y-104073833D01*
X143002000Y-102303659D01*
X143254698Y-102134811D01*
X143565767Y-101669264D01*
X143675000Y-101120113D01*
X143675000Y-101063887D01*
X143565767Y-100514736D01*
X143501797Y-100418999D01*
X148090203Y-100418999D01*
X148026233Y-100514736D01*
G36*
X161742233Y-100514736D02*
X161633000Y-101063887D01*
X161633000Y-101120113D01*
X161742233Y-101669264D01*
X162053302Y-102134811D01*
X162306000Y-102303659D01*
X162306000Y-102396229D01*
X159996857Y-104705372D01*
X159996857Y-104647998D01*
X159838109Y-104647998D01*
X159996857Y-104489250D01*
X159996857Y-104148691D01*
X159900184Y-103915302D01*
X159721556Y-103736673D01*
X159488167Y-103640000D01*
X159147607Y-103640000D01*
X158988857Y-103798750D01*
X158988857Y-104648000D01*
X159008857Y-104648000D01*
X159008857Y-104902000D01*
X158988857Y-104902000D01*
X158988857Y-104922000D01*
X158734857Y-104922000D01*
X158734857Y-104902000D01*
X157885607Y-104902000D01*
X157860159Y-104927448D01*
X157818613Y-104910197D01*
X157456740Y-104909881D01*
X157457054Y-104550225D01*
X157291143Y-104148691D01*
X157726857Y-104148691D01*
X157726857Y-104489250D01*
X157885607Y-104648000D01*
X158734857Y-104648000D01*
X158734857Y-103798750D01*
X158576107Y-103640000D01*
X158235547Y-103640000D01*
X158002158Y-103736673D01*
X157823530Y-103915302D01*
X157726857Y-104148691D01*
X157291143Y-104148691D01*
X157284624Y-104132914D01*
X156965622Y-103813355D01*
X156548613Y-103640197D01*
X156097082Y-103639803D01*
X155679771Y-103812233D01*
X155360212Y-104131235D01*
X155194000Y-104531516D01*
X155194000Y-103947630D01*
X156494815Y-102646816D01*
X156659996Y-102399605D01*
X156673115Y-102333650D01*
X156970698Y-102134811D01*
X157281767Y-101669264D01*
X157391000Y-101120113D01*
X157391000Y-101063887D01*
X157281767Y-100514736D01*
X157217797Y-100418999D01*
X161806203Y-100418999D01*
X161742233Y-100514736D01*
X161742233Y-100514736D01*
G37*
X161742233Y-100514736D02*
X161633000Y-101063887D01*
X161633000Y-101120113D01*
X161742233Y-101669264D01*
X162053302Y-102134811D01*
X162306000Y-102303659D01*
X162306000Y-102396229D01*
X159996857Y-104705372D01*
X159996857Y-104647998D01*
X159838109Y-104647998D01*
X159996857Y-104489250D01*
X159996857Y-104148691D01*
X159900184Y-103915302D01*
X159721556Y-103736673D01*
X159488167Y-103640000D01*
X159147607Y-103640000D01*
X158988857Y-103798750D01*
X158988857Y-104648000D01*
X159008857Y-104648000D01*
X159008857Y-104902000D01*
X158988857Y-104902000D01*
X158988857Y-104922000D01*
X158734857Y-104922000D01*
X158734857Y-104902000D01*
X157885607Y-104902000D01*
X157860159Y-104927448D01*
X157818613Y-104910197D01*
X157456740Y-104909881D01*
X157457054Y-104550225D01*
X157291143Y-104148691D01*
X157726857Y-104148691D01*
X157726857Y-104489250D01*
X157885607Y-104648000D01*
X158734857Y-104648000D01*
X158734857Y-103798750D01*
X158576107Y-103640000D01*
X158235547Y-103640000D01*
X158002158Y-103736673D01*
X157823530Y-103915302D01*
X157726857Y-104148691D01*
X157291143Y-104148691D01*
X157284624Y-104132914D01*
X156965622Y-103813355D01*
X156548613Y-103640197D01*
X156097082Y-103639803D01*
X155679771Y-103812233D01*
X155360212Y-104131235D01*
X155194000Y-104531516D01*
X155194000Y-103947630D01*
X156494815Y-102646816D01*
X156659996Y-102399605D01*
X156673115Y-102333650D01*
X156970698Y-102134811D01*
X157281767Y-101669264D01*
X157391000Y-101120113D01*
X157391000Y-101063887D01*
X157281767Y-100514736D01*
X157217797Y-100418999D01*
X161806203Y-100418999D01*
X161742233Y-100514736D01*
M02*
