G04 #@! TF.FileFunction,Soldermask,Bot*
%FSLAX46Y46*%
G04 Gerber Fmt 4.6, Leading zero omitted, Abs format (unit mm)*
G04 Created by KiCad (PCBNEW 4.0.6) date 05/17/17 18:18:31*
%MOMM*%
%LPD*%
G01*
G04 APERTURE LIST*
%ADD10C,0.100000*%
%ADD11R,2.200000X2.200000*%
%ADD12C,2.200000*%
%ADD13C,5.800000*%
%ADD14C,1.924000*%
%ADD15C,1.400000*%
%ADD16R,1.400000X1.400000*%
%ADD17C,2.000000*%
%ADD18O,2.000000X2.000000*%
G04 APERTURE END LIST*
D10*
D11*
X167567490Y-87155999D03*
D12*
X170107490Y-87155999D03*
D11*
X118545622Y-87155999D03*
D12*
X121085622Y-87155999D03*
D13*
X167640000Y-113030000D03*
X134620000Y-113030000D03*
X78740000Y-82550000D03*
D11*
X104430498Y-87155999D03*
D12*
X106970498Y-87155999D03*
D11*
X139554994Y-87155999D03*
D12*
X142094994Y-87155999D03*
D14*
X157988000Y-112776000D03*
X157002404Y-110084480D03*
X155448000Y-112776000D03*
X154178000Y-110236000D03*
X152908000Y-112776000D03*
X151638000Y-110236000D03*
X150368000Y-112776000D03*
X149098000Y-110236000D03*
X147828000Y-112776000D03*
X146558000Y-110236000D03*
X145288000Y-112776000D03*
X144018000Y-110236000D03*
X142218000Y-114256000D03*
X159788000Y-114256000D03*
D11*
X125548746Y-87155999D03*
D12*
X128088746Y-87155999D03*
D11*
X83530002Y-87155999D03*
D12*
X86070002Y-87155999D03*
D11*
X90533126Y-87155999D03*
D12*
X93073126Y-87155999D03*
D11*
X97536250Y-87155999D03*
D12*
X100076250Y-87155999D03*
D11*
X111542498Y-87155999D03*
D12*
X114082498Y-87155999D03*
D11*
X132588000Y-87155999D03*
D12*
X135128000Y-87155999D03*
D11*
X146558118Y-87155999D03*
D12*
X149098118Y-87155999D03*
D11*
X160564366Y-87155999D03*
D12*
X163104366Y-87155999D03*
D11*
X174570614Y-87155999D03*
D12*
X177110614Y-87155999D03*
D11*
X181573738Y-87155999D03*
D12*
X184113738Y-87155999D03*
D11*
X188576862Y-87155999D03*
D12*
X191116862Y-87155999D03*
D11*
X195580000Y-87155999D03*
D12*
X198120000Y-87155999D03*
D15*
X145176143Y-106045000D03*
X143906143Y-104775000D03*
D16*
X146446143Y-104775000D03*
D15*
X151384000Y-106045000D03*
X150114000Y-104775000D03*
D16*
X152654000Y-104775000D03*
D15*
X157591857Y-106045000D03*
X156321857Y-104775000D03*
D16*
X158861857Y-104775000D03*
D11*
X202692000Y-87155999D03*
D12*
X205232000Y-87155999D03*
D11*
X209804000Y-87155999D03*
D12*
X212344000Y-87155999D03*
D11*
X216916000Y-87155999D03*
D12*
X219456000Y-87155999D03*
D11*
X153561242Y-87155999D03*
D12*
X156101242Y-87155999D03*
D17*
X85852000Y-90932000D03*
D18*
X85852000Y-101092000D03*
D17*
X92964000Y-90932000D03*
D18*
X92964000Y-101092000D03*
D17*
X100076000Y-90932000D03*
D18*
X100076000Y-101092000D03*
D17*
X107188000Y-90932000D03*
D18*
X107188000Y-101092000D03*
D17*
X114300000Y-90932000D03*
D18*
X114300000Y-101092000D03*
D17*
X120904000Y-90932000D03*
D18*
X120904000Y-101092000D03*
D17*
X128016000Y-90932000D03*
D18*
X128016000Y-101092000D03*
D17*
X135128000Y-90932000D03*
D18*
X135128000Y-101092000D03*
D17*
X142240000Y-90932000D03*
D18*
X142240000Y-101092000D03*
D17*
X149352000Y-90932000D03*
D18*
X149352000Y-101092000D03*
D17*
X155956000Y-90932000D03*
D18*
X155956000Y-101092000D03*
D17*
X163068000Y-90932000D03*
D18*
X163068000Y-101092000D03*
D17*
X170180000Y-90932000D03*
D18*
X170180000Y-101092000D03*
D17*
X177292000Y-90932000D03*
D18*
X177292000Y-101092000D03*
D17*
X183896000Y-90932000D03*
D18*
X183896000Y-101092000D03*
D17*
X191008000Y-90932000D03*
D18*
X191008000Y-101092000D03*
D17*
X198120000Y-90932000D03*
D18*
X198120000Y-101092000D03*
D17*
X205232000Y-90932000D03*
D18*
X205232000Y-101092000D03*
D17*
X212344000Y-90932000D03*
D18*
X212344000Y-101092000D03*
D17*
X219456000Y-90932000D03*
D18*
X219456000Y-101092000D03*
D13*
X223520000Y-82550000D03*
M02*
