G04 #@! TF.FileFunction,Copper,L2,Bot,Signal*
%FSLAX46Y46*%
G04 Gerber Fmt 4.6, Leading zero omitted, Abs format (unit mm)*
G04 Created by KiCad (PCBNEW 4.0.6) date 05/10/17 10:15:55*
%MOMM*%
%LPD*%
G01*
G04 APERTURE LIST*
%ADD10C,0.100000*%
%ADD11C,1.524000*%
%ADD12R,1.800000X1.800000*%
%ADD13C,1.800000*%
%ADD14C,1.600000*%
%ADD15O,1.600000X1.600000*%
%ADD16C,1.000000*%
%ADD17R,1.000000X1.000000*%
%ADD18C,5.400000*%
%ADD19C,0.685800*%
%ADD20C,1.300000*%
%ADD21C,0.250000*%
%ADD22C,0.152400*%
%ADD23C,0.650000*%
G04 APERTURE END LIST*
D10*
D11*
X229108000Y-115316000D03*
X228122404Y-112624480D03*
X226568000Y-115316000D03*
X225298000Y-112776000D03*
X224028000Y-115316000D03*
X222758000Y-112776000D03*
X221488000Y-115316000D03*
X220218000Y-112776000D03*
X218948000Y-115316000D03*
X217678000Y-112776000D03*
X216408000Y-115316000D03*
X215138000Y-112776000D03*
X213338000Y-116796000D03*
X230908000Y-116796000D03*
D12*
X238687490Y-88425999D03*
D13*
X241227490Y-88425999D03*
D12*
X196668746Y-88425999D03*
D13*
X199208746Y-88425999D03*
D14*
X206248000Y-90932000D03*
D15*
X206248000Y-103632000D03*
D12*
X154650002Y-88425999D03*
D13*
X157190002Y-88425999D03*
D12*
X161653126Y-88425999D03*
D13*
X164193126Y-88425999D03*
D12*
X168656250Y-88425999D03*
D13*
X171196250Y-88425999D03*
D12*
X175550498Y-88425999D03*
D13*
X178090498Y-88425999D03*
D12*
X182662498Y-88425999D03*
D13*
X185202498Y-88425999D03*
D12*
X189665622Y-88425999D03*
D13*
X192205622Y-88425999D03*
D12*
X203708000Y-88425999D03*
D13*
X206248000Y-88425999D03*
D12*
X210674994Y-88425999D03*
D13*
X213214994Y-88425999D03*
D12*
X217678118Y-88425999D03*
D13*
X220218118Y-88425999D03*
D12*
X224681242Y-88425999D03*
D13*
X227221242Y-88425999D03*
D12*
X231684366Y-88425999D03*
D13*
X234224366Y-88425999D03*
D12*
X245690614Y-88425999D03*
D13*
X248230614Y-88425999D03*
D12*
X252693738Y-88425999D03*
D13*
X255233738Y-88425999D03*
D12*
X259696862Y-88425999D03*
D13*
X262236862Y-88425999D03*
D12*
X266700000Y-88425999D03*
D13*
X269240000Y-88425999D03*
D16*
X216296143Y-108585000D03*
X215026143Y-107315000D03*
D17*
X217566143Y-107315000D03*
D16*
X222504000Y-108585000D03*
X221234000Y-107315000D03*
D17*
X223774000Y-107315000D03*
D16*
X228711857Y-108585000D03*
X227441857Y-107315000D03*
D17*
X229981857Y-107315000D03*
D14*
X156972000Y-90932000D03*
D15*
X156972000Y-103632000D03*
D14*
X164084000Y-90932000D03*
D15*
X164084000Y-103632000D03*
D14*
X171196000Y-90932000D03*
D15*
X171196000Y-103632000D03*
D14*
X178308000Y-90932000D03*
D15*
X178308000Y-103632000D03*
D14*
X185420000Y-90932000D03*
D15*
X185420000Y-103632000D03*
D14*
X192024000Y-90932000D03*
D15*
X192024000Y-103632000D03*
D14*
X199136000Y-90932000D03*
D15*
X199136000Y-103632000D03*
D14*
X213360000Y-90932000D03*
D15*
X213360000Y-103632000D03*
D14*
X220472000Y-90932000D03*
D15*
X220472000Y-103632000D03*
D14*
X227076000Y-90932000D03*
D15*
X227076000Y-103632000D03*
D14*
X234188000Y-90932000D03*
D15*
X234188000Y-103632000D03*
D14*
X241300000Y-90932000D03*
D15*
X241300000Y-103632000D03*
D14*
X248412000Y-90932000D03*
D15*
X248412000Y-103632000D03*
D14*
X255016000Y-90932000D03*
D15*
X255016000Y-103632000D03*
D14*
X262128000Y-90932000D03*
D15*
X262128000Y-103632000D03*
D14*
X269240000Y-90932000D03*
D15*
X269240000Y-103632000D03*
D18*
X294386000Y-82550000D03*
X149860000Y-82550000D03*
X239268000Y-113030000D03*
X204978000Y-113030000D03*
D12*
X273812000Y-88425999D03*
D13*
X276352000Y-88425999D03*
D12*
X280924000Y-88425999D03*
D13*
X283464000Y-88425999D03*
D12*
X288036000Y-88425999D03*
D13*
X290576000Y-88425999D03*
D14*
X276352000Y-90932000D03*
D15*
X276352000Y-103632000D03*
D14*
X283464000Y-90932000D03*
D15*
X283464000Y-103632000D03*
D14*
X290576000Y-90932000D03*
D15*
X290576000Y-103632000D03*
D19*
X202184000Y-92456000D03*
X203200000Y-100584000D03*
X209296000Y-99568000D03*
X168148000Y-99568000D03*
X176276000Y-98552000D03*
X215392000Y-98552000D03*
D20*
X224028000Y-118109992D03*
D19*
X184912000Y-97536000D03*
X220980000Y-97536000D03*
X201168000Y-94742000D03*
X239268000Y-94488000D03*
X192532000Y-96520000D03*
X227076000Y-96520000D03*
X200152000Y-95504000D03*
X233172000Y-95504000D03*
D21*
X196668746Y-88425999D02*
X196668746Y-90496746D01*
X196668746Y-90496746D02*
X198628000Y-92456000D01*
X198628000Y-92456000D02*
X201699067Y-92456000D01*
X201699067Y-92456000D02*
X202184000Y-92456000D01*
X196668746Y-88425999D02*
X196596000Y-88646000D01*
X175550498Y-88425999D02*
X175768000Y-88646000D01*
X175768000Y-88646000D02*
X174752000Y-89662000D01*
X174752000Y-89662000D02*
X170180000Y-89662000D01*
X170180000Y-89662000D02*
X169164000Y-88646000D01*
X169164000Y-88646000D02*
X168656000Y-88646000D01*
X168656000Y-88646000D02*
X168656250Y-88425999D01*
X189665622Y-88425999D02*
X189484000Y-88646000D01*
X189484000Y-88646000D02*
X190500000Y-89662000D01*
X190500000Y-89662000D02*
X193548000Y-89662000D01*
X193548000Y-89662000D02*
X194564000Y-88646000D01*
X194564000Y-88646000D02*
X196596000Y-88646000D01*
X196596000Y-88646000D02*
X196668746Y-88425999D01*
X182662498Y-88425999D02*
X182880000Y-88646000D01*
X182880000Y-88646000D02*
X181864000Y-89662000D01*
X181864000Y-89662000D02*
X176784000Y-89662000D01*
X176784000Y-89662000D02*
X175768000Y-88646000D01*
X189484000Y-88646000D02*
X188468000Y-89662000D01*
X188468000Y-89662000D02*
X183896000Y-89662000D01*
X183896000Y-89662000D02*
X182880000Y-88646000D01*
X168656000Y-88646000D02*
X167640000Y-89662000D01*
X167640000Y-89662000D02*
X163068000Y-89662000D01*
X163068000Y-89662000D02*
X162052000Y-88646000D01*
X162052000Y-88646000D02*
X161544000Y-88646000D01*
X161544000Y-88646000D02*
X161653126Y-88425999D01*
X161544000Y-88646000D02*
X160528000Y-89662000D01*
X160528000Y-89662000D02*
X155956000Y-89662000D01*
X155956000Y-89662000D02*
X154940000Y-88646000D01*
X154940000Y-88646000D02*
X154432000Y-88646000D01*
X154432000Y-88646000D02*
X154650002Y-88425999D01*
X231684366Y-88425999D02*
X231648000Y-88646000D01*
X231648000Y-88646000D02*
X232664000Y-89662000D01*
X232664000Y-89662000D02*
X235712000Y-89662000D01*
X235712000Y-89662000D02*
X236728000Y-88646000D01*
X236728000Y-88646000D02*
X238760000Y-88646000D01*
X238760000Y-88646000D02*
X238687490Y-88425999D01*
X224681242Y-88425999D02*
X224536000Y-88646000D01*
X224536000Y-88646000D02*
X225552000Y-89662000D01*
X225552000Y-89662000D02*
X228600000Y-89662000D01*
X228600000Y-89662000D02*
X229616000Y-88646000D01*
X229616000Y-88646000D02*
X231648000Y-88646000D01*
X238760000Y-88646000D02*
X239776000Y-89662000D01*
X239776000Y-89662000D02*
X242316000Y-89662000D01*
X242316000Y-89662000D02*
X243332000Y-88646000D01*
X243332000Y-88646000D02*
X245872000Y-88646000D01*
X245872000Y-88646000D02*
X245690614Y-88425999D01*
X203708000Y-88425999D02*
X203708000Y-88646000D01*
X203708000Y-88646000D02*
X204724000Y-89662000D01*
X204724000Y-89662000D02*
X207264000Y-89662000D01*
X207264000Y-89662000D02*
X208280000Y-88646000D01*
X208280000Y-88646000D02*
X210820000Y-88646000D01*
X210820000Y-88646000D02*
X210674994Y-88425999D01*
X210820000Y-88646000D02*
X211836000Y-89662000D01*
X211836000Y-89662000D02*
X214376000Y-89662000D01*
X214376000Y-89662000D02*
X215392000Y-88646000D01*
X215392000Y-88646000D02*
X217932000Y-88646000D01*
X217932000Y-88646000D02*
X217678118Y-88425999D01*
X217932000Y-88646000D02*
X218948000Y-89662000D01*
X218948000Y-89662000D02*
X221488000Y-89662000D01*
X221488000Y-89662000D02*
X222504000Y-88646000D01*
X222504000Y-88646000D02*
X224536000Y-88646000D01*
D22*
X280924000Y-88425999D02*
X280924000Y-88646000D01*
D21*
X280924000Y-88646000D02*
X281940000Y-89662000D01*
X281940000Y-89662000D02*
X284480000Y-89662000D01*
X284480000Y-89662000D02*
X285496000Y-88646000D01*
X285496000Y-88646000D02*
X288036000Y-88646000D01*
D22*
X288036000Y-88646000D02*
X288036000Y-88425999D01*
X273812000Y-88425999D02*
X273812000Y-88646000D01*
D21*
X273812000Y-88646000D02*
X274828000Y-89662000D01*
X274828000Y-89662000D02*
X277368000Y-89662000D01*
X277368000Y-89662000D02*
X278384000Y-88646000D01*
X278384000Y-88646000D02*
X280924000Y-88646000D01*
X273812000Y-88646000D02*
X272796000Y-89662000D01*
X272796000Y-89662000D02*
X268224000Y-89662000D01*
X268224000Y-89662000D02*
X267208000Y-88646000D01*
D22*
X267208000Y-88646000D02*
X266700000Y-88646000D01*
X266700000Y-88646000D02*
X266700000Y-88425999D01*
D21*
X252693738Y-88425999D02*
X252476000Y-88646000D01*
X259696862Y-88425999D02*
X259588000Y-88646000D01*
X259588000Y-88646000D02*
X260604000Y-89662000D01*
X260604000Y-89662000D02*
X263652000Y-89662000D01*
X263652000Y-89662000D02*
X264668000Y-88646000D01*
X264668000Y-88646000D02*
X266700000Y-88646000D01*
X266700000Y-88646000D02*
X266700000Y-88425999D01*
X259588000Y-88646000D02*
X258572000Y-89662000D01*
X258572000Y-89662000D02*
X254000000Y-89662000D01*
X254000000Y-89662000D02*
X252984000Y-88646000D01*
X252984000Y-88646000D02*
X252476000Y-88646000D01*
X203200000Y-100584000D02*
X251968000Y-100584000D01*
X251968000Y-100584000D02*
X255016000Y-103632000D01*
X211836000Y-112776000D02*
X215138000Y-112776000D01*
X211836000Y-112776000D02*
X206248000Y-107188000D01*
X206248000Y-103632000D02*
X206248000Y-107188000D01*
X203200000Y-100584000D02*
X160020000Y-100584000D01*
X160020000Y-100584000D02*
X156972000Y-103632000D01*
X206756000Y-104140000D02*
X206248000Y-103632000D01*
X222504000Y-108585000D02*
X221488000Y-109601000D01*
X221488000Y-109601000D02*
X221488000Y-113284000D01*
X219456000Y-114808000D02*
X218948000Y-115316000D01*
X221488000Y-113284000D02*
X219964000Y-114808000D01*
X219964000Y-114808000D02*
X219456000Y-114808000D01*
X213360000Y-103632000D02*
X213360000Y-108458000D01*
X213360000Y-108458000D02*
X217678000Y-112776000D01*
X209296000Y-99568000D02*
X258064000Y-99568000D01*
X168148000Y-99568000D02*
X209296000Y-99568000D01*
X258064000Y-99568000D02*
X262128000Y-103632000D01*
X220472000Y-103632000D02*
X219456000Y-104648000D01*
X219456000Y-104648000D02*
X219456001Y-112014001D01*
X219456001Y-112014001D02*
X220218000Y-112776000D01*
X215392000Y-98552000D02*
X264160000Y-98552000D01*
X264160000Y-98552000D02*
X269240000Y-103632000D01*
X176276000Y-98552000D02*
X215392000Y-98552000D01*
D23*
X224028000Y-115316000D02*
X224028000Y-118109992D01*
D21*
X222758000Y-112776000D02*
X225044000Y-110490000D01*
X225044000Y-110490000D02*
X225552000Y-110490000D01*
X225552000Y-110490000D02*
X225552000Y-106680000D01*
X227076000Y-103632000D02*
X227076000Y-105156000D01*
X227076000Y-105156000D02*
X225552000Y-106680000D01*
X220980000Y-97536000D02*
X270256000Y-97536000D01*
X270256000Y-97536000D02*
X276352000Y-103632000D01*
X184912000Y-97536000D02*
X220980000Y-97536000D01*
X201422000Y-94488000D02*
X201168000Y-94742000D01*
X239268000Y-94488000D02*
X201422000Y-94488000D01*
X248412000Y-103632000D02*
X243840000Y-103632000D01*
X243840000Y-103632000D02*
X233426000Y-114046000D01*
X227838000Y-114046000D02*
X226568000Y-115316000D01*
X233426000Y-114046000D02*
X227838000Y-114046000D01*
X225298000Y-112776000D02*
X228346000Y-109728000D01*
X228346000Y-109728000D02*
X233172000Y-109728000D01*
X233172000Y-109728000D02*
X234188000Y-108712000D01*
X234188000Y-108712000D02*
X234188000Y-103632000D01*
D22*
X283464000Y-103632000D02*
X276352000Y-96520000D01*
X276352000Y-96520000D02*
X227076000Y-96520000D01*
D21*
X192532000Y-96520000D02*
X227076000Y-96520000D01*
X241300000Y-103632000D02*
X232307520Y-112624480D01*
X232307520Y-112624480D02*
X228122404Y-112624480D01*
X233172000Y-95504000D02*
X282448000Y-95504000D01*
X282448000Y-95504000D02*
X290576000Y-103632000D01*
X200152000Y-95504000D02*
X233172000Y-95504000D01*
M02*
