G04 #@! TF.FileFunction,Copper,L1,Top,Signal*
%FSLAX46Y46*%
G04 Gerber Fmt 4.6, Leading zero omitted, Abs format (unit mm)*
G04 Created by KiCad (PCBNEW 4.0.6) date 05/10/17 10:15:55*
%MOMM*%
%LPD*%
G01*
G04 APERTURE LIST*
%ADD10C,0.100000*%
%ADD11C,1.524000*%
%ADD12R,1.800000X1.800000*%
%ADD13C,1.800000*%
%ADD14C,1.600000*%
%ADD15O,1.600000X1.600000*%
%ADD16C,1.000000*%
%ADD17R,1.000000X1.000000*%
%ADD18C,5.400000*%
%ADD19C,0.685800*%
%ADD20C,1.300000*%
%ADD21C,0.250000*%
%ADD22C,0.152400*%
%ADD23C,0.254000*%
G04 APERTURE END LIST*
D10*
D11*
X229108000Y-115316000D03*
X228122404Y-112624480D03*
X226568000Y-115316000D03*
X225298000Y-112776000D03*
X224028000Y-115316000D03*
X222758000Y-112776000D03*
X221488000Y-115316000D03*
X220218000Y-112776000D03*
X218948000Y-115316000D03*
X217678000Y-112776000D03*
X216408000Y-115316000D03*
X215138000Y-112776000D03*
X213338000Y-116796000D03*
X230908000Y-116796000D03*
D12*
X238687490Y-88425999D03*
D13*
X241227490Y-88425999D03*
D12*
X196668746Y-88425999D03*
D13*
X199208746Y-88425999D03*
D14*
X206248000Y-90932000D03*
D15*
X206248000Y-103632000D03*
D12*
X154650002Y-88425999D03*
D13*
X157190002Y-88425999D03*
D12*
X161653126Y-88425999D03*
D13*
X164193126Y-88425999D03*
D12*
X168656250Y-88425999D03*
D13*
X171196250Y-88425999D03*
D12*
X175550498Y-88425999D03*
D13*
X178090498Y-88425999D03*
D12*
X182662498Y-88425999D03*
D13*
X185202498Y-88425999D03*
D12*
X189665622Y-88425999D03*
D13*
X192205622Y-88425999D03*
D12*
X203708000Y-88425999D03*
D13*
X206248000Y-88425999D03*
D12*
X210674994Y-88425999D03*
D13*
X213214994Y-88425999D03*
D12*
X217678118Y-88425999D03*
D13*
X220218118Y-88425999D03*
D12*
X224681242Y-88425999D03*
D13*
X227221242Y-88425999D03*
D12*
X231684366Y-88425999D03*
D13*
X234224366Y-88425999D03*
D12*
X245690614Y-88425999D03*
D13*
X248230614Y-88425999D03*
D12*
X252693738Y-88425999D03*
D13*
X255233738Y-88425999D03*
D12*
X259696862Y-88425999D03*
D13*
X262236862Y-88425999D03*
D12*
X266700000Y-88425999D03*
D13*
X269240000Y-88425999D03*
D16*
X216296143Y-108585000D03*
X215026143Y-107315000D03*
D17*
X217566143Y-107315000D03*
D16*
X222504000Y-108585000D03*
X221234000Y-107315000D03*
D17*
X223774000Y-107315000D03*
D16*
X228711857Y-108585000D03*
X227441857Y-107315000D03*
D17*
X229981857Y-107315000D03*
D14*
X156972000Y-90932000D03*
D15*
X156972000Y-103632000D03*
D14*
X164084000Y-90932000D03*
D15*
X164084000Y-103632000D03*
D14*
X171196000Y-90932000D03*
D15*
X171196000Y-103632000D03*
D14*
X178308000Y-90932000D03*
D15*
X178308000Y-103632000D03*
D14*
X185420000Y-90932000D03*
D15*
X185420000Y-103632000D03*
D14*
X192024000Y-90932000D03*
D15*
X192024000Y-103632000D03*
D14*
X199136000Y-90932000D03*
D15*
X199136000Y-103632000D03*
D14*
X213360000Y-90932000D03*
D15*
X213360000Y-103632000D03*
D14*
X220472000Y-90932000D03*
D15*
X220472000Y-103632000D03*
D14*
X227076000Y-90932000D03*
D15*
X227076000Y-103632000D03*
D14*
X234188000Y-90932000D03*
D15*
X234188000Y-103632000D03*
D14*
X241300000Y-90932000D03*
D15*
X241300000Y-103632000D03*
D14*
X248412000Y-90932000D03*
D15*
X248412000Y-103632000D03*
D14*
X255016000Y-90932000D03*
D15*
X255016000Y-103632000D03*
D14*
X262128000Y-90932000D03*
D15*
X262128000Y-103632000D03*
D14*
X269240000Y-90932000D03*
D15*
X269240000Y-103632000D03*
D18*
X294386000Y-82550000D03*
X149860000Y-82550000D03*
X239268000Y-113030000D03*
X204978000Y-113030000D03*
D12*
X273812000Y-88425999D03*
D13*
X276352000Y-88425999D03*
D12*
X280924000Y-88425999D03*
D13*
X283464000Y-88425999D03*
D12*
X288036000Y-88425999D03*
D13*
X290576000Y-88425999D03*
D14*
X276352000Y-90932000D03*
D15*
X276352000Y-103632000D03*
D14*
X283464000Y-90932000D03*
D15*
X283464000Y-103632000D03*
D14*
X290576000Y-90932000D03*
D15*
X290576000Y-103632000D03*
D19*
X202184000Y-92456000D03*
X203200000Y-100584000D03*
X209296000Y-99568000D03*
X168148000Y-99568000D03*
X176276000Y-98552000D03*
X215392000Y-98552000D03*
D20*
X224028000Y-118109992D03*
D19*
X184912000Y-97536000D03*
X220980000Y-97536000D03*
X201168000Y-94742000D03*
X239268000Y-94488000D03*
X192532000Y-96520000D03*
X227076000Y-96520000D03*
X200152000Y-95504000D03*
X233172000Y-95504000D03*
D21*
X215265000Y-107315000D02*
X214391143Y-107315000D01*
X214391143Y-107315000D02*
X202184000Y-95107857D01*
X202184000Y-95107857D02*
X202184000Y-92940933D01*
X202184000Y-92940933D02*
X202184000Y-92456000D01*
X156972000Y-90932000D02*
X156972000Y-88644001D01*
X156972000Y-88644001D02*
X157190002Y-88425999D01*
X156972000Y-88646000D02*
X157190002Y-88425999D01*
X164193126Y-88425999D02*
X164193126Y-90822874D01*
X164193126Y-90822874D02*
X164084000Y-90932000D01*
X164084000Y-88646000D02*
X164193126Y-88425999D01*
X171196000Y-90932000D02*
X171196000Y-88426249D01*
X171196000Y-88426249D02*
X171196250Y-88425999D01*
X171196000Y-88646000D02*
X171196250Y-88425999D01*
X178090498Y-88425999D02*
X178090498Y-90714498D01*
X178090498Y-90714498D02*
X178308000Y-90932000D01*
X178199374Y-88425999D02*
X178308000Y-88646000D01*
X185420000Y-90932000D02*
X185420000Y-88643501D01*
X185420000Y-88643501D02*
X185202498Y-88425999D01*
X185202498Y-88425999D02*
X185420000Y-88646000D01*
X192024000Y-90932000D02*
X192024000Y-88607621D01*
X192024000Y-88607621D02*
X192205622Y-88425999D01*
X192024000Y-88646000D02*
X192205622Y-88425999D01*
X199136000Y-90932000D02*
X199136000Y-88498745D01*
X199136000Y-88498745D02*
X199208746Y-88425999D01*
X199136000Y-88646000D02*
X199208746Y-88425999D01*
X221733999Y-106045000D02*
X221733999Y-99208045D01*
X221733999Y-106045000D02*
X221733999Y-106815001D01*
X221733999Y-106815001D02*
X221234000Y-107315000D01*
X221733999Y-99208045D02*
X219964000Y-97438046D01*
X219964000Y-97438046D02*
X219964000Y-94293241D01*
X219964000Y-94293241D02*
X224681242Y-89575999D01*
X224681242Y-89575999D02*
X224681242Y-88425999D01*
X210674994Y-88425999D02*
X210820000Y-88646000D01*
X206248000Y-90932000D02*
X206248000Y-88425999D01*
X206211870Y-88425999D02*
X206248000Y-88646000D01*
X213214994Y-88425999D02*
X213214994Y-90786994D01*
X213214994Y-90786994D02*
X213360000Y-90932000D01*
X213360000Y-88646000D02*
X213214994Y-88425999D01*
X220218118Y-88425999D02*
X220218118Y-90678118D01*
X220218118Y-90678118D02*
X220472000Y-90932000D01*
X227076000Y-90932000D02*
X227076000Y-88571241D01*
X227076000Y-88571241D02*
X227221242Y-88425999D01*
X227221242Y-90786758D02*
X227076000Y-90932000D01*
X234224366Y-88425999D02*
X234224366Y-90895634D01*
X234224366Y-90895634D02*
X234188000Y-90932000D01*
X234188000Y-88646000D02*
X234224366Y-88425999D01*
X241227490Y-88425999D02*
X241227490Y-90859490D01*
X241227490Y-90859490D02*
X241300000Y-90932000D01*
X241227490Y-88425999D02*
X241300000Y-88646000D01*
X248412000Y-90932000D02*
X248412000Y-88607385D01*
X248412000Y-88607385D02*
X248230614Y-88425999D01*
X248412000Y-88646000D02*
X248230614Y-88425999D01*
X248285000Y-106045000D02*
X228727000Y-106045000D01*
X228727000Y-106045000D02*
X227457000Y-107315000D01*
X227457000Y-107315000D02*
X227330000Y-107315000D01*
D22*
X248285000Y-106045000D02*
X252693738Y-101636262D01*
X252693738Y-101636262D02*
X252693738Y-88425999D01*
X252693738Y-88425999D02*
X252730000Y-88265000D01*
D21*
X255016000Y-90932000D02*
X255016000Y-88643737D01*
X255016000Y-88643737D02*
X255233738Y-88425999D01*
X255233738Y-88425999D02*
X255016000Y-88646000D01*
X262128000Y-90932000D02*
X262128000Y-88534861D01*
X262128000Y-88534861D02*
X262236862Y-88425999D01*
X262236862Y-88425999D02*
X262128000Y-88646000D01*
X269240000Y-90932000D02*
X269240000Y-88425999D01*
X228711857Y-108585000D02*
X226822000Y-110474857D01*
X226822000Y-110474857D02*
X226822000Y-113030000D01*
X226822000Y-113030000D02*
X225298000Y-114554000D01*
X225298000Y-114554000D02*
X225298000Y-116586000D01*
X225298000Y-116586000D02*
X225044000Y-116840000D01*
X225044000Y-116840000D02*
X217932000Y-116840000D01*
X217932000Y-116840000D02*
X216408000Y-115316000D01*
X228600000Y-108712000D02*
X228600000Y-108585000D01*
X206248000Y-103632000D02*
X203200000Y-100584000D01*
X213360000Y-103632000D02*
X209296000Y-99568000D01*
X164084000Y-103632000D02*
X168148000Y-99568000D01*
X216296143Y-108585000D02*
X218948000Y-111236857D01*
X218948000Y-111236857D02*
X218948000Y-113538000D01*
X218948000Y-113538000D02*
X220726000Y-115316000D01*
X220726000Y-115316000D02*
X221488000Y-115316000D01*
X176276000Y-98552000D02*
X171196000Y-103632000D01*
X220472000Y-103632000D02*
X215392000Y-98552000D01*
X184404000Y-97536000D02*
X184912000Y-97536000D01*
X178308000Y-103632000D02*
X184404000Y-97536000D01*
X227076000Y-103632000D02*
X220980000Y-97536000D01*
X201168000Y-95226933D02*
X201168000Y-94742000D01*
X201168000Y-101600000D02*
X201168000Y-95226933D01*
X199136000Y-103632000D02*
X201168000Y-101600000D01*
X248412000Y-103632000D02*
X239268000Y-94488000D01*
X185420000Y-103632000D02*
X192532000Y-96520000D01*
X234188000Y-103632000D02*
X227076000Y-96520000D01*
X192024000Y-103632000D02*
X200152000Y-95504000D01*
X241300000Y-103632000D02*
X233172000Y-95504000D01*
X276352000Y-88425999D02*
X276352000Y-90932000D01*
X283464000Y-88425999D02*
X283464000Y-90932000D01*
X290576000Y-88425999D02*
X290576000Y-90932000D01*
D23*
G36*
X297377984Y-77648815D02*
X297761157Y-77904844D01*
X298017185Y-78288015D01*
X298121000Y-78809931D01*
X298121000Y-104705069D01*
X298017185Y-105226985D01*
X297761157Y-105610156D01*
X297377984Y-105866185D01*
X296856069Y-105970000D01*
X254025400Y-105970000D01*
X253950854Y-105984828D01*
X253158328Y-106129747D01*
X253037008Y-106180000D01*
X252902388Y-106235761D01*
X252284745Y-106648456D01*
X252235297Y-106697904D01*
X252177154Y-106736754D01*
X240085400Y-118828508D01*
X239643330Y-119123889D01*
X239121865Y-119227615D01*
X205124965Y-119227961D01*
X204603053Y-119124147D01*
X204160599Y-118828507D01*
X202404753Y-117072661D01*
X211940758Y-117072661D01*
X212152990Y-117586303D01*
X212545630Y-117979629D01*
X213058900Y-118192757D01*
X213614661Y-118193242D01*
X214128303Y-117981010D01*
X214521629Y-117588370D01*
X214734757Y-117075100D01*
X214735242Y-116519339D01*
X214523010Y-116005697D01*
X214130370Y-115612371D01*
X213617100Y-115399243D01*
X213061339Y-115398758D01*
X212547697Y-115610990D01*
X212154371Y-116003630D01*
X211941243Y-116516900D01*
X211940758Y-117072661D01*
X202404753Y-117072661D01*
X199022554Y-113690462D01*
X201642422Y-113690462D01*
X202149076Y-114916658D01*
X203086407Y-115855627D01*
X204311717Y-116364420D01*
X205638462Y-116365578D01*
X206864658Y-115858924D01*
X207803627Y-114921593D01*
X208312420Y-113696283D01*
X208313578Y-112369538D01*
X207806924Y-111143342D01*
X206869593Y-110204373D01*
X205644283Y-109695580D01*
X204317538Y-109694422D01*
X203091342Y-110201076D01*
X202152373Y-111138407D01*
X201643580Y-112363717D01*
X201642422Y-113690462D01*
X199022554Y-113690462D01*
X192068846Y-106736754D01*
X192015751Y-106701277D01*
X191962093Y-106647619D01*
X191344068Y-106234666D01*
X191194140Y-106172564D01*
X191088126Y-106128651D01*
X190359114Y-105983642D01*
X190289184Y-105983642D01*
X190220600Y-105970000D01*
X147389931Y-105970000D01*
X146868015Y-105866185D01*
X146484844Y-105610157D01*
X146228815Y-105226984D01*
X146125000Y-104705069D01*
X146125000Y-103603887D01*
X155537000Y-103603887D01*
X155537000Y-103660113D01*
X155646233Y-104209264D01*
X155957302Y-104674811D01*
X156422849Y-104985880D01*
X156972000Y-105095113D01*
X157521151Y-104985880D01*
X157986698Y-104674811D01*
X158297767Y-104209264D01*
X158407000Y-103660113D01*
X158407000Y-103603887D01*
X162649000Y-103603887D01*
X162649000Y-103660113D01*
X162758233Y-104209264D01*
X163069302Y-104674811D01*
X163534849Y-104985880D01*
X164084000Y-105095113D01*
X164633151Y-104985880D01*
X165098698Y-104674811D01*
X165409767Y-104209264D01*
X165519000Y-103660113D01*
X165519000Y-103603887D01*
X169761000Y-103603887D01*
X169761000Y-103660113D01*
X169870233Y-104209264D01*
X170181302Y-104674811D01*
X170646849Y-104985880D01*
X171196000Y-105095113D01*
X171745151Y-104985880D01*
X172210698Y-104674811D01*
X172521767Y-104209264D01*
X172631000Y-103660113D01*
X172631000Y-103603887D01*
X176873000Y-103603887D01*
X176873000Y-103660113D01*
X176982233Y-104209264D01*
X177293302Y-104674811D01*
X177758849Y-104985880D01*
X178308000Y-105095113D01*
X178857151Y-104985880D01*
X179322698Y-104674811D01*
X179633767Y-104209264D01*
X179743000Y-103660113D01*
X179743000Y-103603887D01*
X183985000Y-103603887D01*
X183985000Y-103660113D01*
X184094233Y-104209264D01*
X184405302Y-104674811D01*
X184870849Y-104985880D01*
X185420000Y-105095113D01*
X185969151Y-104985880D01*
X186434698Y-104674811D01*
X186745767Y-104209264D01*
X186855000Y-103660113D01*
X186855000Y-103603887D01*
X190589000Y-103603887D01*
X190589000Y-103660113D01*
X190698233Y-104209264D01*
X191009302Y-104674811D01*
X191474849Y-104985880D01*
X192024000Y-105095113D01*
X192573151Y-104985880D01*
X193038698Y-104674811D01*
X193349767Y-104209264D01*
X193459000Y-103660113D01*
X193459000Y-103603887D01*
X193403904Y-103326898D01*
X200248817Y-96481985D01*
X200345663Y-96482069D01*
X200408000Y-96456312D01*
X200408000Y-101285198D01*
X199459886Y-102233312D01*
X199136000Y-102168887D01*
X198586849Y-102278120D01*
X198121302Y-102589189D01*
X197810233Y-103054736D01*
X197701000Y-103603887D01*
X197701000Y-103660113D01*
X197810233Y-104209264D01*
X198121302Y-104674811D01*
X198586849Y-104985880D01*
X199136000Y-105095113D01*
X199685151Y-104985880D01*
X200150698Y-104674811D01*
X200461767Y-104209264D01*
X200571000Y-103660113D01*
X200571000Y-103603887D01*
X200515904Y-103326898D01*
X201705401Y-102137401D01*
X201870148Y-101890839D01*
X201928000Y-101600000D01*
X201928000Y-100777663D01*
X202221931Y-100777663D01*
X202370493Y-101137212D01*
X202645341Y-101412540D01*
X203004630Y-101561730D01*
X203103014Y-101561816D01*
X204868096Y-103326898D01*
X204813000Y-103603887D01*
X204813000Y-103660113D01*
X204922233Y-104209264D01*
X205233302Y-104674811D01*
X205698849Y-104985880D01*
X206248000Y-105095113D01*
X206797151Y-104985880D01*
X207262698Y-104674811D01*
X207573767Y-104209264D01*
X207683000Y-103660113D01*
X207683000Y-103603887D01*
X207573767Y-103054736D01*
X207262698Y-102589189D01*
X206797151Y-102278120D01*
X206248000Y-102168887D01*
X205924114Y-102233312D01*
X204177985Y-100487183D01*
X204178069Y-100390337D01*
X204029507Y-100030788D01*
X203754659Y-99755460D01*
X203395370Y-99606270D01*
X203006337Y-99605931D01*
X202646788Y-99754493D01*
X202371460Y-100029341D01*
X202222270Y-100388630D01*
X202221931Y-100777663D01*
X201928000Y-100777663D01*
X201928000Y-95926659D01*
X213853742Y-107852401D01*
X214100303Y-108017148D01*
X214129039Y-108022864D01*
X214382378Y-108276645D01*
X214799387Y-108449803D01*
X215161260Y-108450119D01*
X215160946Y-108809775D01*
X215333376Y-109227086D01*
X215652378Y-109546645D01*
X216069387Y-109719803D01*
X216356394Y-109720053D01*
X218057113Y-111420772D01*
X217957100Y-111379243D01*
X217401339Y-111378758D01*
X216887697Y-111590990D01*
X216494371Y-111983630D01*
X216408051Y-112191512D01*
X216323010Y-111985697D01*
X215930370Y-111592371D01*
X215417100Y-111379243D01*
X214861339Y-111378758D01*
X214347697Y-111590990D01*
X213954371Y-111983630D01*
X213741243Y-112496900D01*
X213740758Y-113052661D01*
X213952990Y-113566303D01*
X214345630Y-113959629D01*
X214858900Y-114172757D01*
X215414661Y-114173242D01*
X215928303Y-113961010D01*
X216321629Y-113568370D01*
X216407949Y-113360488D01*
X216492990Y-113566303D01*
X216885630Y-113959629D01*
X217398900Y-114172757D01*
X217954661Y-114173242D01*
X218363187Y-114004443D01*
X218384990Y-114037075D01*
X218157697Y-114130990D01*
X217764371Y-114523630D01*
X217678051Y-114731512D01*
X217593010Y-114525697D01*
X217200370Y-114132371D01*
X216687100Y-113919243D01*
X216131339Y-113918758D01*
X215617697Y-114130990D01*
X215224371Y-114523630D01*
X215011243Y-115036900D01*
X215010758Y-115592661D01*
X215222990Y-116106303D01*
X215615630Y-116499629D01*
X216128900Y-116712757D01*
X216684661Y-116713242D01*
X216717055Y-116699857D01*
X217394599Y-117377401D01*
X217641160Y-117542148D01*
X217689414Y-117551746D01*
X217932000Y-117600000D01*
X225044000Y-117600000D01*
X225334839Y-117542148D01*
X225581401Y-117377401D01*
X225835401Y-117123401D01*
X226000148Y-116876840D01*
X226052326Y-116614523D01*
X226288900Y-116712757D01*
X226844661Y-116713242D01*
X227358303Y-116501010D01*
X227751629Y-116108370D01*
X227837949Y-115900488D01*
X227922990Y-116106303D01*
X228315630Y-116499629D01*
X228828900Y-116712757D01*
X229384661Y-116713242D01*
X229511117Y-116660991D01*
X229510758Y-117072661D01*
X229722990Y-117586303D01*
X230115630Y-117979629D01*
X230628900Y-118192757D01*
X231184661Y-118193242D01*
X231698303Y-117981010D01*
X232091629Y-117588370D01*
X232304757Y-117075100D01*
X232305242Y-116519339D01*
X232093010Y-116005697D01*
X231700370Y-115612371D01*
X231187100Y-115399243D01*
X230631339Y-115398758D01*
X230504883Y-115451009D01*
X230505242Y-115039339D01*
X230293010Y-114525697D01*
X229900370Y-114132371D01*
X229387100Y-113919243D01*
X228831339Y-113918758D01*
X228317697Y-114130990D01*
X227924371Y-114523630D01*
X227838051Y-114731512D01*
X227753010Y-114525697D01*
X227360370Y-114132371D01*
X226960480Y-113966322D01*
X227224456Y-113702346D01*
X227330034Y-113808109D01*
X227843304Y-114021237D01*
X228399065Y-114021722D01*
X228912707Y-113809490D01*
X229031942Y-113690462D01*
X235932422Y-113690462D01*
X236439076Y-114916658D01*
X237376407Y-115855627D01*
X238601717Y-116364420D01*
X239928462Y-116365578D01*
X241154658Y-115858924D01*
X242093627Y-114921593D01*
X242602420Y-113696283D01*
X242603578Y-112369538D01*
X242096924Y-111143342D01*
X241159593Y-110204373D01*
X239934283Y-109695580D01*
X238607538Y-109694422D01*
X237381342Y-110201076D01*
X236442373Y-111138407D01*
X235933580Y-112363717D01*
X235932422Y-113690462D01*
X229031942Y-113690462D01*
X229306033Y-113416850D01*
X229519161Y-112903580D01*
X229519646Y-112347819D01*
X229307414Y-111834177D01*
X228914774Y-111440851D01*
X228401504Y-111227723D01*
X227845743Y-111227238D01*
X227582000Y-111336214D01*
X227582000Y-110789659D01*
X228651711Y-109719948D01*
X228936632Y-109720197D01*
X229353943Y-109547767D01*
X229673502Y-109228765D01*
X229846660Y-108811756D01*
X229847054Y-108360225D01*
X229829168Y-108316939D01*
X229854857Y-108291250D01*
X229854857Y-107442000D01*
X230108857Y-107442000D01*
X230108857Y-108291250D01*
X230267607Y-108450000D01*
X230608167Y-108450000D01*
X230841556Y-108353327D01*
X231020184Y-108174698D01*
X231116857Y-107941309D01*
X231116857Y-107600750D01*
X230958107Y-107442000D01*
X230108857Y-107442000D01*
X229854857Y-107442000D01*
X229005607Y-107442000D01*
X228980159Y-107467448D01*
X228938613Y-107450197D01*
X228576740Y-107449881D01*
X228576897Y-107269905D01*
X228846857Y-106999945D01*
X228846857Y-107029250D01*
X229005607Y-107188000D01*
X229854857Y-107188000D01*
X229854857Y-107168000D01*
X230108857Y-107168000D01*
X230108857Y-107188000D01*
X230958107Y-107188000D01*
X231116857Y-107029250D01*
X231116857Y-106805000D01*
X248285000Y-106805000D01*
X248575839Y-106747148D01*
X248822401Y-106582401D01*
X248961371Y-106374417D01*
X251731901Y-103603887D01*
X253581000Y-103603887D01*
X253581000Y-103660113D01*
X253690233Y-104209264D01*
X254001302Y-104674811D01*
X254466849Y-104985880D01*
X255016000Y-105095113D01*
X255565151Y-104985880D01*
X256030698Y-104674811D01*
X256341767Y-104209264D01*
X256451000Y-103660113D01*
X256451000Y-103603887D01*
X260693000Y-103603887D01*
X260693000Y-103660113D01*
X260802233Y-104209264D01*
X261113302Y-104674811D01*
X261578849Y-104985880D01*
X262128000Y-105095113D01*
X262677151Y-104985880D01*
X263142698Y-104674811D01*
X263453767Y-104209264D01*
X263563000Y-103660113D01*
X263563000Y-103603887D01*
X267805000Y-103603887D01*
X267805000Y-103660113D01*
X267914233Y-104209264D01*
X268225302Y-104674811D01*
X268690849Y-104985880D01*
X269240000Y-105095113D01*
X269789151Y-104985880D01*
X270254698Y-104674811D01*
X270565767Y-104209264D01*
X270675000Y-103660113D01*
X270675000Y-103603887D01*
X274917000Y-103603887D01*
X274917000Y-103660113D01*
X275026233Y-104209264D01*
X275337302Y-104674811D01*
X275802849Y-104985880D01*
X276352000Y-105095113D01*
X276901151Y-104985880D01*
X277366698Y-104674811D01*
X277677767Y-104209264D01*
X277787000Y-103660113D01*
X277787000Y-103603887D01*
X282029000Y-103603887D01*
X282029000Y-103660113D01*
X282138233Y-104209264D01*
X282449302Y-104674811D01*
X282914849Y-104985880D01*
X283464000Y-105095113D01*
X284013151Y-104985880D01*
X284478698Y-104674811D01*
X284789767Y-104209264D01*
X284899000Y-103660113D01*
X284899000Y-103603887D01*
X289141000Y-103603887D01*
X289141000Y-103660113D01*
X289250233Y-104209264D01*
X289561302Y-104674811D01*
X290026849Y-104985880D01*
X290576000Y-105095113D01*
X291125151Y-104985880D01*
X291590698Y-104674811D01*
X291901767Y-104209264D01*
X292011000Y-103660113D01*
X292011000Y-103603887D01*
X291901767Y-103054736D01*
X291590698Y-102589189D01*
X291125151Y-102278120D01*
X290576000Y-102168887D01*
X290026849Y-102278120D01*
X289561302Y-102589189D01*
X289250233Y-103054736D01*
X289141000Y-103603887D01*
X284899000Y-103603887D01*
X284789767Y-103054736D01*
X284478698Y-102589189D01*
X284013151Y-102278120D01*
X283464000Y-102168887D01*
X282914849Y-102278120D01*
X282449302Y-102589189D01*
X282138233Y-103054736D01*
X282029000Y-103603887D01*
X277787000Y-103603887D01*
X277677767Y-103054736D01*
X277366698Y-102589189D01*
X276901151Y-102278120D01*
X276352000Y-102168887D01*
X275802849Y-102278120D01*
X275337302Y-102589189D01*
X275026233Y-103054736D01*
X274917000Y-103603887D01*
X270675000Y-103603887D01*
X270565767Y-103054736D01*
X270254698Y-102589189D01*
X269789151Y-102278120D01*
X269240000Y-102168887D01*
X268690849Y-102278120D01*
X268225302Y-102589189D01*
X267914233Y-103054736D01*
X267805000Y-103603887D01*
X263563000Y-103603887D01*
X263453767Y-103054736D01*
X263142698Y-102589189D01*
X262677151Y-102278120D01*
X262128000Y-102168887D01*
X261578849Y-102278120D01*
X261113302Y-102589189D01*
X260802233Y-103054736D01*
X260693000Y-103603887D01*
X256451000Y-103603887D01*
X256341767Y-103054736D01*
X256030698Y-102589189D01*
X255565151Y-102278120D01*
X255016000Y-102168887D01*
X254466849Y-102278120D01*
X254001302Y-102589189D01*
X253690233Y-103054736D01*
X253581000Y-103603887D01*
X251731901Y-103603887D01*
X253196632Y-102139156D01*
X253350801Y-101908427D01*
X253359783Y-101863272D01*
X253404938Y-101636262D01*
X253404938Y-89973439D01*
X253593738Y-89973439D01*
X253829055Y-89929161D01*
X254045179Y-89790089D01*
X254190169Y-89577889D01*
X254194305Y-89557465D01*
X254256000Y-89619268D01*
X254256000Y-89693354D01*
X254204200Y-89714757D01*
X253800176Y-90118077D01*
X253581250Y-90645309D01*
X253580752Y-91216187D01*
X253798757Y-91743800D01*
X254202077Y-92147824D01*
X254729309Y-92366750D01*
X255300187Y-92367248D01*
X255827800Y-92149243D01*
X256231824Y-91745923D01*
X256450750Y-91218691D01*
X256451248Y-90647813D01*
X256233243Y-90120200D01*
X255917811Y-89804217D01*
X256102109Y-89728067D01*
X256534289Y-89296642D01*
X256768471Y-88732669D01*
X256769003Y-88122008D01*
X256535806Y-87557628D01*
X256504233Y-87525999D01*
X258149422Y-87525999D01*
X258149422Y-89325999D01*
X258193700Y-89561316D01*
X258332772Y-89777440D01*
X258544972Y-89922430D01*
X258796862Y-89973439D01*
X260596862Y-89973439D01*
X260832179Y-89929161D01*
X261048303Y-89790089D01*
X261193293Y-89577889D01*
X261197429Y-89557465D01*
X261343278Y-89703569D01*
X261316200Y-89714757D01*
X260912176Y-90118077D01*
X260693250Y-90645309D01*
X260692752Y-91216187D01*
X260910757Y-91743800D01*
X261314077Y-92147824D01*
X261841309Y-92366750D01*
X262412187Y-92367248D01*
X262939800Y-92149243D01*
X263343824Y-91745923D01*
X263562750Y-91218691D01*
X263563248Y-90647813D01*
X263345243Y-90120200D01*
X262998017Y-89772368D01*
X263105233Y-89728067D01*
X263537413Y-89296642D01*
X263771595Y-88732669D01*
X263772127Y-88122008D01*
X263538930Y-87557628D01*
X263507357Y-87525999D01*
X265152560Y-87525999D01*
X265152560Y-89325999D01*
X265196838Y-89561316D01*
X265335910Y-89777440D01*
X265548110Y-89922430D01*
X265800000Y-89973439D01*
X267600000Y-89973439D01*
X267835317Y-89929161D01*
X268051441Y-89790089D01*
X268196431Y-89577889D01*
X268200567Y-89557465D01*
X268369357Y-89726550D01*
X268402571Y-89740342D01*
X268024176Y-90118077D01*
X267805250Y-90645309D01*
X267804752Y-91216187D01*
X268022757Y-91743800D01*
X268426077Y-92147824D01*
X268953309Y-92366750D01*
X269524187Y-92367248D01*
X270051800Y-92149243D01*
X270455824Y-91745923D01*
X270674750Y-91218691D01*
X270675248Y-90647813D01*
X270457243Y-90120200D01*
X270078227Y-89740522D01*
X270108371Y-89728067D01*
X270540551Y-89296642D01*
X270774733Y-88732669D01*
X270775265Y-88122008D01*
X270542068Y-87557628D01*
X270510495Y-87525999D01*
X272264560Y-87525999D01*
X272264560Y-89325999D01*
X272308838Y-89561316D01*
X272447910Y-89777440D01*
X272660110Y-89922430D01*
X272912000Y-89973439D01*
X274712000Y-89973439D01*
X274947317Y-89929161D01*
X275163441Y-89790089D01*
X275308431Y-89577889D01*
X275312567Y-89557465D01*
X275481357Y-89726550D01*
X275514571Y-89740342D01*
X275136176Y-90118077D01*
X274917250Y-90645309D01*
X274916752Y-91216187D01*
X275134757Y-91743800D01*
X275538077Y-92147824D01*
X276065309Y-92366750D01*
X276636187Y-92367248D01*
X277163800Y-92149243D01*
X277567824Y-91745923D01*
X277786750Y-91218691D01*
X277787248Y-90647813D01*
X277569243Y-90120200D01*
X277190227Y-89740522D01*
X277220371Y-89728067D01*
X277652551Y-89296642D01*
X277886733Y-88732669D01*
X277887265Y-88122008D01*
X277654068Y-87557628D01*
X277622495Y-87525999D01*
X279376560Y-87525999D01*
X279376560Y-89325999D01*
X279420838Y-89561316D01*
X279559910Y-89777440D01*
X279772110Y-89922430D01*
X280024000Y-89973439D01*
X281824000Y-89973439D01*
X282059317Y-89929161D01*
X282275441Y-89790089D01*
X282420431Y-89577889D01*
X282424567Y-89557465D01*
X282593357Y-89726550D01*
X282626571Y-89740342D01*
X282248176Y-90118077D01*
X282029250Y-90645309D01*
X282028752Y-91216187D01*
X282246757Y-91743800D01*
X282650077Y-92147824D01*
X283177309Y-92366750D01*
X283748187Y-92367248D01*
X284275800Y-92149243D01*
X284679824Y-91745923D01*
X284898750Y-91218691D01*
X284899248Y-90647813D01*
X284681243Y-90120200D01*
X284302227Y-89740522D01*
X284332371Y-89728067D01*
X284764551Y-89296642D01*
X284998733Y-88732669D01*
X284999265Y-88122008D01*
X284766068Y-87557628D01*
X284734495Y-87525999D01*
X286488560Y-87525999D01*
X286488560Y-89325999D01*
X286532838Y-89561316D01*
X286671910Y-89777440D01*
X286884110Y-89922430D01*
X287136000Y-89973439D01*
X288936000Y-89973439D01*
X289171317Y-89929161D01*
X289387441Y-89790089D01*
X289532431Y-89577889D01*
X289536567Y-89557465D01*
X289705357Y-89726550D01*
X289738571Y-89740342D01*
X289360176Y-90118077D01*
X289141250Y-90645309D01*
X289140752Y-91216187D01*
X289358757Y-91743800D01*
X289762077Y-92147824D01*
X290289309Y-92366750D01*
X290860187Y-92367248D01*
X291387800Y-92149243D01*
X291791824Y-91745923D01*
X292010750Y-91218691D01*
X292011248Y-90647813D01*
X291793243Y-90120200D01*
X291414227Y-89740522D01*
X291444371Y-89728067D01*
X291876551Y-89296642D01*
X292110733Y-88732669D01*
X292111265Y-88122008D01*
X291878068Y-87557628D01*
X291446643Y-87125448D01*
X290882670Y-86891266D01*
X290272009Y-86890734D01*
X289707629Y-87123931D01*
X289539387Y-87291879D01*
X289539162Y-87290682D01*
X289400090Y-87074558D01*
X289187890Y-86929568D01*
X288936000Y-86878559D01*
X287136000Y-86878559D01*
X286900683Y-86922837D01*
X286684559Y-87061909D01*
X286539569Y-87274109D01*
X286488560Y-87525999D01*
X284734495Y-87525999D01*
X284334643Y-87125448D01*
X283770670Y-86891266D01*
X283160009Y-86890734D01*
X282595629Y-87123931D01*
X282427387Y-87291879D01*
X282427162Y-87290682D01*
X282288090Y-87074558D01*
X282075890Y-86929568D01*
X281824000Y-86878559D01*
X280024000Y-86878559D01*
X279788683Y-86922837D01*
X279572559Y-87061909D01*
X279427569Y-87274109D01*
X279376560Y-87525999D01*
X277622495Y-87525999D01*
X277222643Y-87125448D01*
X276658670Y-86891266D01*
X276048009Y-86890734D01*
X275483629Y-87123931D01*
X275315387Y-87291879D01*
X275315162Y-87290682D01*
X275176090Y-87074558D01*
X274963890Y-86929568D01*
X274712000Y-86878559D01*
X272912000Y-86878559D01*
X272676683Y-86922837D01*
X272460559Y-87061909D01*
X272315569Y-87274109D01*
X272264560Y-87525999D01*
X270510495Y-87525999D01*
X270110643Y-87125448D01*
X269546670Y-86891266D01*
X268936009Y-86890734D01*
X268371629Y-87123931D01*
X268203387Y-87291879D01*
X268203162Y-87290682D01*
X268064090Y-87074558D01*
X267851890Y-86929568D01*
X267600000Y-86878559D01*
X265800000Y-86878559D01*
X265564683Y-86922837D01*
X265348559Y-87061909D01*
X265203569Y-87274109D01*
X265152560Y-87525999D01*
X263507357Y-87525999D01*
X263107505Y-87125448D01*
X262543532Y-86891266D01*
X261932871Y-86890734D01*
X261368491Y-87123931D01*
X261200249Y-87291879D01*
X261200024Y-87290682D01*
X261060952Y-87074558D01*
X260848752Y-86929568D01*
X260596862Y-86878559D01*
X258796862Y-86878559D01*
X258561545Y-86922837D01*
X258345421Y-87061909D01*
X258200431Y-87274109D01*
X258149422Y-87525999D01*
X256504233Y-87525999D01*
X256104381Y-87125448D01*
X255540408Y-86891266D01*
X254929747Y-86890734D01*
X254365367Y-87123931D01*
X254197125Y-87291879D01*
X254196900Y-87290682D01*
X254057828Y-87074558D01*
X253845628Y-86929568D01*
X253593738Y-86878559D01*
X251793738Y-86878559D01*
X251558421Y-86922837D01*
X251342297Y-87061909D01*
X251197307Y-87274109D01*
X251146298Y-87525999D01*
X251146298Y-89325999D01*
X251190576Y-89561316D01*
X251329648Y-89777440D01*
X251541848Y-89922430D01*
X251793738Y-89973439D01*
X251982538Y-89973439D01*
X251982538Y-101341674D01*
X249825983Y-103498229D01*
X249737767Y-103054736D01*
X249426698Y-102589189D01*
X248961151Y-102278120D01*
X248412000Y-102168887D01*
X248088114Y-102233312D01*
X240245985Y-94391183D01*
X240246069Y-94294337D01*
X240097507Y-93934788D01*
X239822659Y-93659460D01*
X239463370Y-93510270D01*
X239074337Y-93509931D01*
X238714788Y-93658493D01*
X238439460Y-93933341D01*
X238290270Y-94292630D01*
X238289931Y-94681663D01*
X238438493Y-95041212D01*
X238713341Y-95316540D01*
X239072630Y-95465730D01*
X239171014Y-95465816D01*
X247032096Y-103326898D01*
X246977000Y-103603887D01*
X246977000Y-103660113D01*
X247086233Y-104209264D01*
X247397302Y-104674811D01*
X247862849Y-104985880D01*
X248259444Y-105064768D01*
X248039212Y-105285000D01*
X228727000Y-105285000D01*
X228436160Y-105342852D01*
X228189599Y-105507599D01*
X227517133Y-106180065D01*
X227217082Y-106179803D01*
X226799771Y-106352233D01*
X226480212Y-106671235D01*
X226307054Y-107088244D01*
X226306660Y-107539775D01*
X226479090Y-107957086D01*
X226798092Y-108276645D01*
X227215101Y-108449803D01*
X227576974Y-108450119D01*
X227576804Y-108645251D01*
X226284599Y-109937456D01*
X226119852Y-110184018D01*
X226062000Y-110474857D01*
X226062000Y-111580591D01*
X225577100Y-111379243D01*
X225021339Y-111378758D01*
X224507697Y-111590990D01*
X224114371Y-111983630D01*
X224028051Y-112191512D01*
X223943010Y-111985697D01*
X223550370Y-111592371D01*
X223037100Y-111379243D01*
X222481339Y-111378758D01*
X221967697Y-111590990D01*
X221574371Y-111983630D01*
X221488051Y-112191512D01*
X221403010Y-111985697D01*
X221010370Y-111592371D01*
X220497100Y-111379243D01*
X219941339Y-111378758D01*
X219708000Y-111475171D01*
X219708000Y-111236857D01*
X219650148Y-110946018D01*
X219485401Y-110699456D01*
X217431091Y-108645146D01*
X217431340Y-108360225D01*
X217413454Y-108316939D01*
X217439143Y-108291250D01*
X217439143Y-107442000D01*
X217693143Y-107442000D01*
X217693143Y-108291250D01*
X217851893Y-108450000D01*
X218192453Y-108450000D01*
X218425842Y-108353327D01*
X218604470Y-108174698D01*
X218701143Y-107941309D01*
X218701143Y-107600750D01*
X218542393Y-107442000D01*
X217693143Y-107442000D01*
X217439143Y-107442000D01*
X216589893Y-107442000D01*
X216564445Y-107467448D01*
X216522899Y-107450197D01*
X216161026Y-107449881D01*
X216161340Y-107090225D01*
X215995429Y-106688691D01*
X216431143Y-106688691D01*
X216431143Y-107029250D01*
X216589893Y-107188000D01*
X217439143Y-107188000D01*
X217439143Y-106338750D01*
X217693143Y-106338750D01*
X217693143Y-107188000D01*
X218542393Y-107188000D01*
X218701143Y-107029250D01*
X218701143Y-106688691D01*
X218604470Y-106455302D01*
X218425842Y-106276673D01*
X218192453Y-106180000D01*
X217851893Y-106180000D01*
X217693143Y-106338750D01*
X217439143Y-106338750D01*
X217280393Y-106180000D01*
X216939833Y-106180000D01*
X216706444Y-106276673D01*
X216527816Y-106455302D01*
X216431143Y-106688691D01*
X215995429Y-106688691D01*
X215988910Y-106672914D01*
X215669908Y-106353355D01*
X215252899Y-106180197D01*
X214801368Y-106179803D01*
X214468349Y-106317404D01*
X213217766Y-105066821D01*
X213360000Y-105095113D01*
X213909151Y-104985880D01*
X214374698Y-104674811D01*
X214685767Y-104209264D01*
X214795000Y-103660113D01*
X214795000Y-103603887D01*
X214685767Y-103054736D01*
X214374698Y-102589189D01*
X213909151Y-102278120D01*
X213360000Y-102168887D01*
X213036114Y-102233312D01*
X210273985Y-99471183D01*
X210274069Y-99374337D01*
X210125507Y-99014788D01*
X209856852Y-98745663D01*
X214413931Y-98745663D01*
X214562493Y-99105212D01*
X214837341Y-99380540D01*
X215196630Y-99529730D01*
X215295014Y-99529816D01*
X219092096Y-103326898D01*
X219037000Y-103603887D01*
X219037000Y-103660113D01*
X219146233Y-104209264D01*
X219457302Y-104674811D01*
X219922849Y-104985880D01*
X220472000Y-105095113D01*
X220973999Y-104995259D01*
X220973999Y-106194358D01*
X220591914Y-106352233D01*
X220272355Y-106671235D01*
X220099197Y-107088244D01*
X220098803Y-107539775D01*
X220271233Y-107957086D01*
X220590235Y-108276645D01*
X221007244Y-108449803D01*
X221369117Y-108450119D01*
X221368803Y-108809775D01*
X221541233Y-109227086D01*
X221860235Y-109546645D01*
X222277244Y-109719803D01*
X222728775Y-109720197D01*
X223146086Y-109547767D01*
X223465645Y-109228765D01*
X223638803Y-108811756D01*
X223639197Y-108360225D01*
X223621311Y-108316939D01*
X223647000Y-108291250D01*
X223647000Y-107442000D01*
X223901000Y-107442000D01*
X223901000Y-108291250D01*
X224059750Y-108450000D01*
X224400310Y-108450000D01*
X224633699Y-108353327D01*
X224812327Y-108174698D01*
X224909000Y-107941309D01*
X224909000Y-107600750D01*
X224750250Y-107442000D01*
X223901000Y-107442000D01*
X223647000Y-107442000D01*
X222797750Y-107442000D01*
X222772302Y-107467448D01*
X222730756Y-107450197D01*
X222368883Y-107449881D01*
X222369096Y-107206190D01*
X222436147Y-107105841D01*
X222493999Y-106815001D01*
X222493999Y-106688691D01*
X222639000Y-106688691D01*
X222639000Y-107029250D01*
X222797750Y-107188000D01*
X223647000Y-107188000D01*
X223647000Y-106338750D01*
X223901000Y-106338750D01*
X223901000Y-107188000D01*
X224750250Y-107188000D01*
X224909000Y-107029250D01*
X224909000Y-106688691D01*
X224812327Y-106455302D01*
X224633699Y-106276673D01*
X224400310Y-106180000D01*
X224059750Y-106180000D01*
X223901000Y-106338750D01*
X223647000Y-106338750D01*
X223488250Y-106180000D01*
X223147690Y-106180000D01*
X222914301Y-106276673D01*
X222735673Y-106455302D01*
X222639000Y-106688691D01*
X222493999Y-106688691D01*
X222493999Y-100124801D01*
X225696096Y-103326898D01*
X225641000Y-103603887D01*
X225641000Y-103660113D01*
X225750233Y-104209264D01*
X226061302Y-104674811D01*
X226526849Y-104985880D01*
X227076000Y-105095113D01*
X227625151Y-104985880D01*
X228090698Y-104674811D01*
X228401767Y-104209264D01*
X228511000Y-103660113D01*
X228511000Y-103603887D01*
X228401767Y-103054736D01*
X228090698Y-102589189D01*
X227625151Y-102278120D01*
X227076000Y-102168887D01*
X226752114Y-102233312D01*
X221957985Y-97439183D01*
X221958069Y-97342337D01*
X221809507Y-96982788D01*
X221540852Y-96713663D01*
X226097931Y-96713663D01*
X226246493Y-97073212D01*
X226521341Y-97348540D01*
X226880630Y-97497730D01*
X226979014Y-97497816D01*
X232808096Y-103326898D01*
X232753000Y-103603887D01*
X232753000Y-103660113D01*
X232862233Y-104209264D01*
X233173302Y-104674811D01*
X233638849Y-104985880D01*
X234188000Y-105095113D01*
X234737151Y-104985880D01*
X235202698Y-104674811D01*
X235513767Y-104209264D01*
X235623000Y-103660113D01*
X235623000Y-103603887D01*
X235513767Y-103054736D01*
X235202698Y-102589189D01*
X234737151Y-102278120D01*
X234188000Y-102168887D01*
X233864114Y-102233312D01*
X228053985Y-96423183D01*
X228054069Y-96326337D01*
X227905507Y-95966788D01*
X227636852Y-95697663D01*
X232193931Y-95697663D01*
X232342493Y-96057212D01*
X232617341Y-96332540D01*
X232976630Y-96481730D01*
X233075014Y-96481816D01*
X239920096Y-103326898D01*
X239865000Y-103603887D01*
X239865000Y-103660113D01*
X239974233Y-104209264D01*
X240285302Y-104674811D01*
X240750849Y-104985880D01*
X241300000Y-105095113D01*
X241849151Y-104985880D01*
X242314698Y-104674811D01*
X242625767Y-104209264D01*
X242735000Y-103660113D01*
X242735000Y-103603887D01*
X242625767Y-103054736D01*
X242314698Y-102589189D01*
X241849151Y-102278120D01*
X241300000Y-102168887D01*
X240976114Y-102233312D01*
X234149985Y-95407183D01*
X234150069Y-95310337D01*
X234001507Y-94950788D01*
X233726659Y-94675460D01*
X233367370Y-94526270D01*
X232978337Y-94525931D01*
X232618788Y-94674493D01*
X232343460Y-94949341D01*
X232194270Y-95308630D01*
X232193931Y-95697663D01*
X227636852Y-95697663D01*
X227630659Y-95691460D01*
X227271370Y-95542270D01*
X226882337Y-95541931D01*
X226522788Y-95690493D01*
X226247460Y-95965341D01*
X226098270Y-96324630D01*
X226097931Y-96713663D01*
X221540852Y-96713663D01*
X221534659Y-96707460D01*
X221175370Y-96558270D01*
X220786337Y-96557931D01*
X220724000Y-96583688D01*
X220724000Y-94608043D01*
X225218643Y-90113400D01*
X225312162Y-89973439D01*
X225581242Y-89973439D01*
X225816559Y-89929161D01*
X226032683Y-89790089D01*
X226177673Y-89577889D01*
X226181809Y-89557465D01*
X226316000Y-89691890D01*
X226316000Y-89693354D01*
X226264200Y-89714757D01*
X225860176Y-90118077D01*
X225641250Y-90645309D01*
X225640752Y-91216187D01*
X225858757Y-91743800D01*
X226262077Y-92147824D01*
X226789309Y-92366750D01*
X227360187Y-92367248D01*
X227887800Y-92149243D01*
X228291824Y-91745923D01*
X228510750Y-91218691D01*
X228511248Y-90647813D01*
X228293243Y-90120200D01*
X227956641Y-89783010D01*
X228089613Y-89728067D01*
X228521793Y-89296642D01*
X228755975Y-88732669D01*
X228756507Y-88122008D01*
X228523310Y-87557628D01*
X228491737Y-87525999D01*
X230136926Y-87525999D01*
X230136926Y-89325999D01*
X230181204Y-89561316D01*
X230320276Y-89777440D01*
X230532476Y-89922430D01*
X230784366Y-89973439D01*
X232584366Y-89973439D01*
X232819683Y-89929161D01*
X233035807Y-89790089D01*
X233180797Y-89577889D01*
X233184933Y-89557465D01*
X233353723Y-89726550D01*
X233361254Y-89729677D01*
X232972176Y-90118077D01*
X232753250Y-90645309D01*
X232752752Y-91216187D01*
X232970757Y-91743800D01*
X233374077Y-92147824D01*
X233901309Y-92366750D01*
X234472187Y-92367248D01*
X234999800Y-92149243D01*
X235403824Y-91745923D01*
X235622750Y-91218691D01*
X235623248Y-90647813D01*
X235405243Y-90120200D01*
X235036847Y-89751160D01*
X235092737Y-89728067D01*
X235524917Y-89296642D01*
X235759099Y-88732669D01*
X235759631Y-88122008D01*
X235526434Y-87557628D01*
X235494861Y-87525999D01*
X237140050Y-87525999D01*
X237140050Y-89325999D01*
X237184328Y-89561316D01*
X237323400Y-89777440D01*
X237535600Y-89922430D01*
X237787490Y-89973439D01*
X239587490Y-89973439D01*
X239822807Y-89929161D01*
X240038931Y-89790089D01*
X240183921Y-89577889D01*
X240188057Y-89557465D01*
X240356847Y-89726550D01*
X240441270Y-89761605D01*
X240084176Y-90118077D01*
X239865250Y-90645309D01*
X239864752Y-91216187D01*
X240082757Y-91743800D01*
X240486077Y-92147824D01*
X241013309Y-92366750D01*
X241584187Y-92367248D01*
X242111800Y-92149243D01*
X242515824Y-91745923D01*
X242734750Y-91218691D01*
X242735248Y-90647813D01*
X242517243Y-90120200D01*
X242113923Y-89716176D01*
X242109580Y-89714372D01*
X242528041Y-89296642D01*
X242762223Y-88732669D01*
X242762755Y-88122008D01*
X242529558Y-87557628D01*
X242497985Y-87525999D01*
X244143174Y-87525999D01*
X244143174Y-89325999D01*
X244187452Y-89561316D01*
X244326524Y-89777440D01*
X244538724Y-89922430D01*
X244790614Y-89973439D01*
X246590614Y-89973439D01*
X246825931Y-89929161D01*
X247042055Y-89790089D01*
X247187045Y-89577889D01*
X247191181Y-89557465D01*
X247359971Y-89726550D01*
X247521286Y-89793534D01*
X247196176Y-90118077D01*
X246977250Y-90645309D01*
X246976752Y-91216187D01*
X247194757Y-91743800D01*
X247598077Y-92147824D01*
X248125309Y-92366750D01*
X248696187Y-92367248D01*
X249223800Y-92149243D01*
X249627824Y-91745923D01*
X249846750Y-91218691D01*
X249847248Y-90647813D01*
X249629243Y-90120200D01*
X249225923Y-89716176D01*
X249172000Y-89693785D01*
X249172000Y-89655180D01*
X249531165Y-89296642D01*
X249765347Y-88732669D01*
X249765879Y-88122008D01*
X249532682Y-87557628D01*
X249101257Y-87125448D01*
X248537284Y-86891266D01*
X247926623Y-86890734D01*
X247362243Y-87123931D01*
X247194001Y-87291879D01*
X247193776Y-87290682D01*
X247054704Y-87074558D01*
X246842504Y-86929568D01*
X246590614Y-86878559D01*
X244790614Y-86878559D01*
X244555297Y-86922837D01*
X244339173Y-87061909D01*
X244194183Y-87274109D01*
X244143174Y-87525999D01*
X242497985Y-87525999D01*
X242098133Y-87125448D01*
X241534160Y-86891266D01*
X240923499Y-86890734D01*
X240359119Y-87123931D01*
X240190877Y-87291879D01*
X240190652Y-87290682D01*
X240051580Y-87074558D01*
X239839380Y-86929568D01*
X239587490Y-86878559D01*
X237787490Y-86878559D01*
X237552173Y-86922837D01*
X237336049Y-87061909D01*
X237191059Y-87274109D01*
X237140050Y-87525999D01*
X235494861Y-87525999D01*
X235095009Y-87125448D01*
X234531036Y-86891266D01*
X233920375Y-86890734D01*
X233355995Y-87123931D01*
X233187753Y-87291879D01*
X233187528Y-87290682D01*
X233048456Y-87074558D01*
X232836256Y-86929568D01*
X232584366Y-86878559D01*
X230784366Y-86878559D01*
X230549049Y-86922837D01*
X230332925Y-87061909D01*
X230187935Y-87274109D01*
X230136926Y-87525999D01*
X228491737Y-87525999D01*
X228091885Y-87125448D01*
X227527912Y-86891266D01*
X226917251Y-86890734D01*
X226352871Y-87123931D01*
X226184629Y-87291879D01*
X226184404Y-87290682D01*
X226045332Y-87074558D01*
X225833132Y-86929568D01*
X225581242Y-86878559D01*
X223781242Y-86878559D01*
X223545925Y-86922837D01*
X223329801Y-87061909D01*
X223184811Y-87274109D01*
X223133802Y-87525999D01*
X223133802Y-89325999D01*
X223178080Y-89561316D01*
X223317152Y-89777440D01*
X223369340Y-89813099D01*
X221866276Y-91316163D01*
X221906750Y-91218691D01*
X221907248Y-90647813D01*
X221689243Y-90120200D01*
X221285923Y-89716176D01*
X221153489Y-89661184D01*
X221518669Y-89296642D01*
X221752851Y-88732669D01*
X221753383Y-88122008D01*
X221520186Y-87557628D01*
X221088761Y-87125448D01*
X220524788Y-86891266D01*
X219914127Y-86890734D01*
X219349747Y-87123931D01*
X219181505Y-87291879D01*
X219181280Y-87290682D01*
X219042208Y-87074558D01*
X218830008Y-86929568D01*
X218578118Y-86878559D01*
X216778118Y-86878559D01*
X216542801Y-86922837D01*
X216326677Y-87061909D01*
X216181687Y-87274109D01*
X216130678Y-87525999D01*
X216130678Y-89325999D01*
X216174956Y-89561316D01*
X216314028Y-89777440D01*
X216526228Y-89922430D01*
X216778118Y-89973439D01*
X218578118Y-89973439D01*
X218813435Y-89929161D01*
X219029559Y-89790089D01*
X219174549Y-89577889D01*
X219178685Y-89557465D01*
X219347475Y-89726550D01*
X219458118Y-89772493D01*
X219458118Y-89916487D01*
X219256176Y-90118077D01*
X219037250Y-90645309D01*
X219036752Y-91216187D01*
X219254757Y-91743800D01*
X219658077Y-92147824D01*
X220185309Y-92366750D01*
X220756187Y-92367248D01*
X220856738Y-92325701D01*
X219426599Y-93755840D01*
X219261852Y-94002402D01*
X219204000Y-94293241D01*
X219204000Y-97438046D01*
X219261852Y-97728885D01*
X219426599Y-97975447D01*
X220973999Y-99522847D01*
X220973999Y-102268741D01*
X220472000Y-102168887D01*
X220148114Y-102233312D01*
X216369985Y-98455183D01*
X216370069Y-98358337D01*
X216221507Y-97998788D01*
X215946659Y-97723460D01*
X215587370Y-97574270D01*
X215198337Y-97573931D01*
X214838788Y-97722493D01*
X214563460Y-97997341D01*
X214414270Y-98356630D01*
X214413931Y-98745663D01*
X209856852Y-98745663D01*
X209850659Y-98739460D01*
X209491370Y-98590270D01*
X209102337Y-98589931D01*
X208742788Y-98738493D01*
X208467460Y-99013341D01*
X208318270Y-99372630D01*
X208317931Y-99761663D01*
X208466493Y-100121212D01*
X208741341Y-100396540D01*
X209100630Y-100545730D01*
X209199014Y-100545816D01*
X211980096Y-103326898D01*
X211925000Y-103603887D01*
X211925000Y-103660113D01*
X211953292Y-103802347D01*
X202944000Y-94793055D01*
X202944000Y-93079080D01*
X203012540Y-93010659D01*
X203161730Y-92651370D01*
X203162069Y-92262337D01*
X203013507Y-91902788D01*
X202738659Y-91627460D01*
X202379370Y-91478270D01*
X201990337Y-91477931D01*
X201630788Y-91626493D01*
X201355460Y-91901341D01*
X201206270Y-92260630D01*
X201205931Y-92649663D01*
X201354493Y-93009212D01*
X201424000Y-93078840D01*
X201424000Y-93789446D01*
X201363370Y-93764270D01*
X200974337Y-93763931D01*
X200614788Y-93912493D01*
X200339460Y-94187341D01*
X200198778Y-94526141D01*
X199958337Y-94525931D01*
X199598788Y-94674493D01*
X199323460Y-94949341D01*
X199174270Y-95308630D01*
X199174184Y-95407014D01*
X192347886Y-102233312D01*
X192024000Y-102168887D01*
X191474849Y-102278120D01*
X191009302Y-102589189D01*
X190698233Y-103054736D01*
X190589000Y-103603887D01*
X186855000Y-103603887D01*
X186799904Y-103326898D01*
X192628817Y-97497985D01*
X192725663Y-97498069D01*
X193085212Y-97349507D01*
X193360540Y-97074659D01*
X193509730Y-96715370D01*
X193510069Y-96326337D01*
X193361507Y-95966788D01*
X193086659Y-95691460D01*
X192727370Y-95542270D01*
X192338337Y-95541931D01*
X191978788Y-95690493D01*
X191703460Y-95965341D01*
X191554270Y-96324630D01*
X191554184Y-96423014D01*
X185743886Y-102233312D01*
X185420000Y-102168887D01*
X184870849Y-102278120D01*
X184405302Y-102589189D01*
X184094233Y-103054736D01*
X183985000Y-103603887D01*
X179743000Y-103603887D01*
X179687904Y-103326898D01*
X184564318Y-98450484D01*
X184716630Y-98513730D01*
X185105663Y-98514069D01*
X185465212Y-98365507D01*
X185740540Y-98090659D01*
X185889730Y-97731370D01*
X185890069Y-97342337D01*
X185741507Y-96982788D01*
X185466659Y-96707460D01*
X185107370Y-96558270D01*
X184718337Y-96557931D01*
X184358788Y-96706493D01*
X184260582Y-96804528D01*
X184113161Y-96833852D01*
X183866599Y-96998599D01*
X178631886Y-102233312D01*
X178308000Y-102168887D01*
X177758849Y-102278120D01*
X177293302Y-102589189D01*
X176982233Y-103054736D01*
X176873000Y-103603887D01*
X172631000Y-103603887D01*
X172575904Y-103326898D01*
X176372817Y-99529985D01*
X176469663Y-99530069D01*
X176829212Y-99381507D01*
X177104540Y-99106659D01*
X177253730Y-98747370D01*
X177254069Y-98358337D01*
X177105507Y-97998788D01*
X176830659Y-97723460D01*
X176471370Y-97574270D01*
X176082337Y-97573931D01*
X175722788Y-97722493D01*
X175447460Y-97997341D01*
X175298270Y-98356630D01*
X175298184Y-98455014D01*
X171519886Y-102233312D01*
X171196000Y-102168887D01*
X170646849Y-102278120D01*
X170181302Y-102589189D01*
X169870233Y-103054736D01*
X169761000Y-103603887D01*
X165519000Y-103603887D01*
X165463904Y-103326898D01*
X168244817Y-100545985D01*
X168341663Y-100546069D01*
X168701212Y-100397507D01*
X168976540Y-100122659D01*
X169125730Y-99763370D01*
X169126069Y-99374337D01*
X168977507Y-99014788D01*
X168702659Y-98739460D01*
X168343370Y-98590270D01*
X167954337Y-98589931D01*
X167594788Y-98738493D01*
X167319460Y-99013341D01*
X167170270Y-99372630D01*
X167170184Y-99471014D01*
X164407886Y-102233312D01*
X164084000Y-102168887D01*
X163534849Y-102278120D01*
X163069302Y-102589189D01*
X162758233Y-103054736D01*
X162649000Y-103603887D01*
X158407000Y-103603887D01*
X158297767Y-103054736D01*
X157986698Y-102589189D01*
X157521151Y-102278120D01*
X156972000Y-102168887D01*
X156422849Y-102278120D01*
X155957302Y-102589189D01*
X155646233Y-103054736D01*
X155537000Y-103603887D01*
X146125000Y-103603887D01*
X146125000Y-87525999D01*
X153102562Y-87525999D01*
X153102562Y-89325999D01*
X153146840Y-89561316D01*
X153285912Y-89777440D01*
X153498112Y-89922430D01*
X153750002Y-89973439D01*
X155550002Y-89973439D01*
X155785319Y-89929161D01*
X156001443Y-89790089D01*
X156146433Y-89577889D01*
X156150569Y-89557465D01*
X156212000Y-89619003D01*
X156212000Y-89693354D01*
X156160200Y-89714757D01*
X155756176Y-90118077D01*
X155537250Y-90645309D01*
X155536752Y-91216187D01*
X155754757Y-91743800D01*
X156158077Y-92147824D01*
X156685309Y-92366750D01*
X157256187Y-92367248D01*
X157783800Y-92149243D01*
X158187824Y-91745923D01*
X158406750Y-91218691D01*
X158407248Y-90647813D01*
X158189243Y-90120200D01*
X157873888Y-89804295D01*
X158058373Y-89728067D01*
X158490553Y-89296642D01*
X158724735Y-88732669D01*
X158725267Y-88122008D01*
X158492070Y-87557628D01*
X158460497Y-87525999D01*
X160105686Y-87525999D01*
X160105686Y-89325999D01*
X160149964Y-89561316D01*
X160289036Y-89777440D01*
X160501236Y-89922430D01*
X160753126Y-89973439D01*
X162553126Y-89973439D01*
X162788443Y-89929161D01*
X163004567Y-89790089D01*
X163149557Y-89577889D01*
X163153693Y-89557465D01*
X163299465Y-89703491D01*
X163272200Y-89714757D01*
X162868176Y-90118077D01*
X162649250Y-90645309D01*
X162648752Y-91216187D01*
X162866757Y-91743800D01*
X163270077Y-92147824D01*
X163797309Y-92366750D01*
X164368187Y-92367248D01*
X164895800Y-92149243D01*
X165299824Y-91745923D01*
X165518750Y-91218691D01*
X165519248Y-90647813D01*
X165301243Y-90120200D01*
X164954094Y-89772445D01*
X165061497Y-89728067D01*
X165493677Y-89296642D01*
X165727859Y-88732669D01*
X165728391Y-88122008D01*
X165495194Y-87557628D01*
X165463621Y-87525999D01*
X167108810Y-87525999D01*
X167108810Y-89325999D01*
X167153088Y-89561316D01*
X167292160Y-89777440D01*
X167504360Y-89922430D01*
X167756250Y-89973439D01*
X169556250Y-89973439D01*
X169791567Y-89929161D01*
X170007691Y-89790089D01*
X170152681Y-89577889D01*
X170156817Y-89557465D01*
X170325607Y-89726550D01*
X170358644Y-89740268D01*
X169980176Y-90118077D01*
X169761250Y-90645309D01*
X169760752Y-91216187D01*
X169978757Y-91743800D01*
X170382077Y-92147824D01*
X170909309Y-92366750D01*
X171480187Y-92367248D01*
X172007800Y-92149243D01*
X172411824Y-91745923D01*
X172630750Y-91218691D01*
X172631248Y-90647813D01*
X172413243Y-90120200D01*
X172034300Y-89740595D01*
X172064621Y-89728067D01*
X172496801Y-89296642D01*
X172730983Y-88732669D01*
X172731515Y-88122008D01*
X172498318Y-87557628D01*
X172466745Y-87525999D01*
X174003058Y-87525999D01*
X174003058Y-89325999D01*
X174047336Y-89561316D01*
X174186408Y-89777440D01*
X174398608Y-89922430D01*
X174650498Y-89973439D01*
X176450498Y-89973439D01*
X176685815Y-89929161D01*
X176901939Y-89790089D01*
X177046929Y-89577889D01*
X177051065Y-89557465D01*
X177219855Y-89726550D01*
X177330498Y-89772493D01*
X177330498Y-89880170D01*
X177092176Y-90118077D01*
X176873250Y-90645309D01*
X176872752Y-91216187D01*
X177090757Y-91743800D01*
X177494077Y-92147824D01*
X178021309Y-92366750D01*
X178592187Y-92367248D01*
X179119800Y-92149243D01*
X179523824Y-91745923D01*
X179742750Y-91218691D01*
X179743248Y-90647813D01*
X179525243Y-90120200D01*
X179121923Y-89716176D01*
X179015181Y-89671853D01*
X179391049Y-89296642D01*
X179625231Y-88732669D01*
X179625763Y-88122008D01*
X179392566Y-87557628D01*
X179360993Y-87525999D01*
X181115058Y-87525999D01*
X181115058Y-89325999D01*
X181159336Y-89561316D01*
X181298408Y-89777440D01*
X181510608Y-89922430D01*
X181762498Y-89973439D01*
X183562498Y-89973439D01*
X183797815Y-89929161D01*
X184013939Y-89790089D01*
X184158929Y-89577889D01*
X184163065Y-89557465D01*
X184331855Y-89726550D01*
X184518676Y-89804125D01*
X184204176Y-90118077D01*
X183985250Y-90645309D01*
X183984752Y-91216187D01*
X184202757Y-91743800D01*
X184606077Y-92147824D01*
X185133309Y-92366750D01*
X185704187Y-92367248D01*
X186231800Y-92149243D01*
X186635824Y-91745923D01*
X186854750Y-91218691D01*
X186855248Y-90647813D01*
X186637243Y-90120200D01*
X186233923Y-89716176D01*
X186180000Y-89693785D01*
X186180000Y-89619127D01*
X186503049Y-89296642D01*
X186737231Y-88732669D01*
X186737763Y-88122008D01*
X186504566Y-87557628D01*
X186472993Y-87525999D01*
X188118182Y-87525999D01*
X188118182Y-89325999D01*
X188162460Y-89561316D01*
X188301532Y-89777440D01*
X188513732Y-89922430D01*
X188765622Y-89973439D01*
X190565622Y-89973439D01*
X190800939Y-89929161D01*
X191017063Y-89790089D01*
X191162053Y-89577889D01*
X191166189Y-89557465D01*
X191264000Y-89655447D01*
X191264000Y-89693354D01*
X191212200Y-89714757D01*
X190808176Y-90118077D01*
X190589250Y-90645309D01*
X190588752Y-91216187D01*
X190806757Y-91743800D01*
X191210077Y-92147824D01*
X191737309Y-92366750D01*
X192308187Y-92367248D01*
X192835800Y-92149243D01*
X193239824Y-91745923D01*
X193458750Y-91218691D01*
X193459248Y-90647813D01*
X193241243Y-90120200D01*
X192915264Y-89793652D01*
X193073993Y-89728067D01*
X193506173Y-89296642D01*
X193740355Y-88732669D01*
X193740887Y-88122008D01*
X193507690Y-87557628D01*
X193476117Y-87525999D01*
X195121306Y-87525999D01*
X195121306Y-89325999D01*
X195165584Y-89561316D01*
X195304656Y-89777440D01*
X195516856Y-89922430D01*
X195768746Y-89973439D01*
X197568746Y-89973439D01*
X197804063Y-89929161D01*
X198020187Y-89790089D01*
X198165177Y-89577889D01*
X198169313Y-89557465D01*
X198325708Y-89714134D01*
X198324200Y-89714757D01*
X197920176Y-90118077D01*
X197701250Y-90645309D01*
X197700752Y-91216187D01*
X197918757Y-91743800D01*
X198322077Y-92147824D01*
X198849309Y-92366750D01*
X199420187Y-92367248D01*
X199947800Y-92149243D01*
X200351824Y-91745923D01*
X200570750Y-91218691D01*
X200571248Y-90647813D01*
X200353243Y-90120200D01*
X199995470Y-89761803D01*
X200077117Y-89728067D01*
X200509297Y-89296642D01*
X200743479Y-88732669D01*
X200744011Y-88122008D01*
X200510814Y-87557628D01*
X200479241Y-87525999D01*
X202160560Y-87525999D01*
X202160560Y-89325999D01*
X202204838Y-89561316D01*
X202343910Y-89777440D01*
X202556110Y-89922430D01*
X202808000Y-89973439D01*
X204608000Y-89973439D01*
X204843317Y-89929161D01*
X205059441Y-89790089D01*
X205204431Y-89577889D01*
X205208567Y-89557465D01*
X205377357Y-89726550D01*
X205410571Y-89740342D01*
X205032176Y-90118077D01*
X204813250Y-90645309D01*
X204812752Y-91216187D01*
X205030757Y-91743800D01*
X205434077Y-92147824D01*
X205961309Y-92366750D01*
X206532187Y-92367248D01*
X207059800Y-92149243D01*
X207463824Y-91745923D01*
X207682750Y-91218691D01*
X207683248Y-90647813D01*
X207465243Y-90120200D01*
X207086227Y-89740522D01*
X207116371Y-89728067D01*
X207548551Y-89296642D01*
X207782733Y-88732669D01*
X207783265Y-88122008D01*
X207550068Y-87557628D01*
X207518495Y-87525999D01*
X209127554Y-87525999D01*
X209127554Y-89325999D01*
X209171832Y-89561316D01*
X209310904Y-89777440D01*
X209523104Y-89922430D01*
X209774994Y-89973439D01*
X211574994Y-89973439D01*
X211810311Y-89929161D01*
X212026435Y-89790089D01*
X212171425Y-89577889D01*
X212175561Y-89557465D01*
X212344351Y-89726550D01*
X212454994Y-89772493D01*
X212454994Y-89807801D01*
X212144176Y-90118077D01*
X211925250Y-90645309D01*
X211924752Y-91216187D01*
X212142757Y-91743800D01*
X212546077Y-92147824D01*
X213073309Y-92366750D01*
X213644187Y-92367248D01*
X214171800Y-92149243D01*
X214575824Y-91745923D01*
X214794750Y-91218691D01*
X214795248Y-90647813D01*
X214577243Y-90120200D01*
X214173923Y-89716176D01*
X214118380Y-89693113D01*
X214515545Y-89296642D01*
X214749727Y-88732669D01*
X214750259Y-88122008D01*
X214517062Y-87557628D01*
X214085637Y-87125448D01*
X213521664Y-86891266D01*
X212911003Y-86890734D01*
X212346623Y-87123931D01*
X212178381Y-87291879D01*
X212178156Y-87290682D01*
X212039084Y-87074558D01*
X211826884Y-86929568D01*
X211574994Y-86878559D01*
X209774994Y-86878559D01*
X209539677Y-86922837D01*
X209323553Y-87061909D01*
X209178563Y-87274109D01*
X209127554Y-87525999D01*
X207518495Y-87525999D01*
X207118643Y-87125448D01*
X206554670Y-86891266D01*
X205944009Y-86890734D01*
X205379629Y-87123931D01*
X205211387Y-87291879D01*
X205211162Y-87290682D01*
X205072090Y-87074558D01*
X204859890Y-86929568D01*
X204608000Y-86878559D01*
X202808000Y-86878559D01*
X202572683Y-86922837D01*
X202356559Y-87061909D01*
X202211569Y-87274109D01*
X202160560Y-87525999D01*
X200479241Y-87525999D01*
X200079389Y-87125448D01*
X199515416Y-86891266D01*
X198904755Y-86890734D01*
X198340375Y-87123931D01*
X198172133Y-87291879D01*
X198171908Y-87290682D01*
X198032836Y-87074558D01*
X197820636Y-86929568D01*
X197568746Y-86878559D01*
X195768746Y-86878559D01*
X195533429Y-86922837D01*
X195317305Y-87061909D01*
X195172315Y-87274109D01*
X195121306Y-87525999D01*
X193476117Y-87525999D01*
X193076265Y-87125448D01*
X192512292Y-86891266D01*
X191901631Y-86890734D01*
X191337251Y-87123931D01*
X191169009Y-87291879D01*
X191168784Y-87290682D01*
X191029712Y-87074558D01*
X190817512Y-86929568D01*
X190565622Y-86878559D01*
X188765622Y-86878559D01*
X188530305Y-86922837D01*
X188314181Y-87061909D01*
X188169191Y-87274109D01*
X188118182Y-87525999D01*
X186472993Y-87525999D01*
X186073141Y-87125448D01*
X185509168Y-86891266D01*
X184898507Y-86890734D01*
X184334127Y-87123931D01*
X184165885Y-87291879D01*
X184165660Y-87290682D01*
X184026588Y-87074558D01*
X183814388Y-86929568D01*
X183562498Y-86878559D01*
X181762498Y-86878559D01*
X181527181Y-86922837D01*
X181311057Y-87061909D01*
X181166067Y-87274109D01*
X181115058Y-87525999D01*
X179360993Y-87525999D01*
X178961141Y-87125448D01*
X178397168Y-86891266D01*
X177786507Y-86890734D01*
X177222127Y-87123931D01*
X177053885Y-87291879D01*
X177053660Y-87290682D01*
X176914588Y-87074558D01*
X176702388Y-86929568D01*
X176450498Y-86878559D01*
X174650498Y-86878559D01*
X174415181Y-86922837D01*
X174199057Y-87061909D01*
X174054067Y-87274109D01*
X174003058Y-87525999D01*
X172466745Y-87525999D01*
X172066893Y-87125448D01*
X171502920Y-86891266D01*
X170892259Y-86890734D01*
X170327879Y-87123931D01*
X170159637Y-87291879D01*
X170159412Y-87290682D01*
X170020340Y-87074558D01*
X169808140Y-86929568D01*
X169556250Y-86878559D01*
X167756250Y-86878559D01*
X167520933Y-86922837D01*
X167304809Y-87061909D01*
X167159819Y-87274109D01*
X167108810Y-87525999D01*
X165463621Y-87525999D01*
X165063769Y-87125448D01*
X164499796Y-86891266D01*
X163889135Y-86890734D01*
X163324755Y-87123931D01*
X163156513Y-87291879D01*
X163156288Y-87290682D01*
X163017216Y-87074558D01*
X162805016Y-86929568D01*
X162553126Y-86878559D01*
X160753126Y-86878559D01*
X160517809Y-86922837D01*
X160301685Y-87061909D01*
X160156695Y-87274109D01*
X160105686Y-87525999D01*
X158460497Y-87525999D01*
X158060645Y-87125448D01*
X157496672Y-86891266D01*
X156886011Y-86890734D01*
X156321631Y-87123931D01*
X156153389Y-87291879D01*
X156153164Y-87290682D01*
X156014092Y-87074558D01*
X155801892Y-86929568D01*
X155550002Y-86878559D01*
X153750002Y-86878559D01*
X153514685Y-86922837D01*
X153298561Y-87061909D01*
X153153571Y-87274109D01*
X153102562Y-87525999D01*
X146125000Y-87525999D01*
X146125000Y-83210462D01*
X146524422Y-83210462D01*
X147031076Y-84436658D01*
X147968407Y-85375627D01*
X149193717Y-85884420D01*
X150520462Y-85885578D01*
X151746658Y-85378924D01*
X152685627Y-84441593D01*
X153194420Y-83216283D01*
X153194425Y-83210462D01*
X291050422Y-83210462D01*
X291557076Y-84436658D01*
X292494407Y-85375627D01*
X293719717Y-85884420D01*
X295046462Y-85885578D01*
X296272658Y-85378924D01*
X297211627Y-84441593D01*
X297720420Y-83216283D01*
X297721578Y-81889538D01*
X297214924Y-80663342D01*
X296277593Y-79724373D01*
X295052283Y-79215580D01*
X293725538Y-79214422D01*
X292499342Y-79721076D01*
X291560373Y-80658407D01*
X291051580Y-81883717D01*
X291050422Y-83210462D01*
X153194425Y-83210462D01*
X153195578Y-81889538D01*
X152688924Y-80663342D01*
X151751593Y-79724373D01*
X150526283Y-79215580D01*
X149199538Y-79214422D01*
X147973342Y-79721076D01*
X147034373Y-80658407D01*
X146525580Y-81883717D01*
X146524422Y-83210462D01*
X146125000Y-83210462D01*
X146125000Y-78809931D01*
X146228815Y-78288016D01*
X146484844Y-77904843D01*
X146868015Y-77648815D01*
X147389931Y-77545000D01*
X296856069Y-77545000D01*
X297377984Y-77648815D01*
X297377984Y-77648815D01*
G37*
X297377984Y-77648815D02*
X297761157Y-77904844D01*
X298017185Y-78288015D01*
X298121000Y-78809931D01*
X298121000Y-104705069D01*
X298017185Y-105226985D01*
X297761157Y-105610156D01*
X297377984Y-105866185D01*
X296856069Y-105970000D01*
X254025400Y-105970000D01*
X253950854Y-105984828D01*
X253158328Y-106129747D01*
X253037008Y-106180000D01*
X252902388Y-106235761D01*
X252284745Y-106648456D01*
X252235297Y-106697904D01*
X252177154Y-106736754D01*
X240085400Y-118828508D01*
X239643330Y-119123889D01*
X239121865Y-119227615D01*
X205124965Y-119227961D01*
X204603053Y-119124147D01*
X204160599Y-118828507D01*
X202404753Y-117072661D01*
X211940758Y-117072661D01*
X212152990Y-117586303D01*
X212545630Y-117979629D01*
X213058900Y-118192757D01*
X213614661Y-118193242D01*
X214128303Y-117981010D01*
X214521629Y-117588370D01*
X214734757Y-117075100D01*
X214735242Y-116519339D01*
X214523010Y-116005697D01*
X214130370Y-115612371D01*
X213617100Y-115399243D01*
X213061339Y-115398758D01*
X212547697Y-115610990D01*
X212154371Y-116003630D01*
X211941243Y-116516900D01*
X211940758Y-117072661D01*
X202404753Y-117072661D01*
X199022554Y-113690462D01*
X201642422Y-113690462D01*
X202149076Y-114916658D01*
X203086407Y-115855627D01*
X204311717Y-116364420D01*
X205638462Y-116365578D01*
X206864658Y-115858924D01*
X207803627Y-114921593D01*
X208312420Y-113696283D01*
X208313578Y-112369538D01*
X207806924Y-111143342D01*
X206869593Y-110204373D01*
X205644283Y-109695580D01*
X204317538Y-109694422D01*
X203091342Y-110201076D01*
X202152373Y-111138407D01*
X201643580Y-112363717D01*
X201642422Y-113690462D01*
X199022554Y-113690462D01*
X192068846Y-106736754D01*
X192015751Y-106701277D01*
X191962093Y-106647619D01*
X191344068Y-106234666D01*
X191194140Y-106172564D01*
X191088126Y-106128651D01*
X190359114Y-105983642D01*
X190289184Y-105983642D01*
X190220600Y-105970000D01*
X147389931Y-105970000D01*
X146868015Y-105866185D01*
X146484844Y-105610157D01*
X146228815Y-105226984D01*
X146125000Y-104705069D01*
X146125000Y-103603887D01*
X155537000Y-103603887D01*
X155537000Y-103660113D01*
X155646233Y-104209264D01*
X155957302Y-104674811D01*
X156422849Y-104985880D01*
X156972000Y-105095113D01*
X157521151Y-104985880D01*
X157986698Y-104674811D01*
X158297767Y-104209264D01*
X158407000Y-103660113D01*
X158407000Y-103603887D01*
X162649000Y-103603887D01*
X162649000Y-103660113D01*
X162758233Y-104209264D01*
X163069302Y-104674811D01*
X163534849Y-104985880D01*
X164084000Y-105095113D01*
X164633151Y-104985880D01*
X165098698Y-104674811D01*
X165409767Y-104209264D01*
X165519000Y-103660113D01*
X165519000Y-103603887D01*
X169761000Y-103603887D01*
X169761000Y-103660113D01*
X169870233Y-104209264D01*
X170181302Y-104674811D01*
X170646849Y-104985880D01*
X171196000Y-105095113D01*
X171745151Y-104985880D01*
X172210698Y-104674811D01*
X172521767Y-104209264D01*
X172631000Y-103660113D01*
X172631000Y-103603887D01*
X176873000Y-103603887D01*
X176873000Y-103660113D01*
X176982233Y-104209264D01*
X177293302Y-104674811D01*
X177758849Y-104985880D01*
X178308000Y-105095113D01*
X178857151Y-104985880D01*
X179322698Y-104674811D01*
X179633767Y-104209264D01*
X179743000Y-103660113D01*
X179743000Y-103603887D01*
X183985000Y-103603887D01*
X183985000Y-103660113D01*
X184094233Y-104209264D01*
X184405302Y-104674811D01*
X184870849Y-104985880D01*
X185420000Y-105095113D01*
X185969151Y-104985880D01*
X186434698Y-104674811D01*
X186745767Y-104209264D01*
X186855000Y-103660113D01*
X186855000Y-103603887D01*
X190589000Y-103603887D01*
X190589000Y-103660113D01*
X190698233Y-104209264D01*
X191009302Y-104674811D01*
X191474849Y-104985880D01*
X192024000Y-105095113D01*
X192573151Y-104985880D01*
X193038698Y-104674811D01*
X193349767Y-104209264D01*
X193459000Y-103660113D01*
X193459000Y-103603887D01*
X193403904Y-103326898D01*
X200248817Y-96481985D01*
X200345663Y-96482069D01*
X200408000Y-96456312D01*
X200408000Y-101285198D01*
X199459886Y-102233312D01*
X199136000Y-102168887D01*
X198586849Y-102278120D01*
X198121302Y-102589189D01*
X197810233Y-103054736D01*
X197701000Y-103603887D01*
X197701000Y-103660113D01*
X197810233Y-104209264D01*
X198121302Y-104674811D01*
X198586849Y-104985880D01*
X199136000Y-105095113D01*
X199685151Y-104985880D01*
X200150698Y-104674811D01*
X200461767Y-104209264D01*
X200571000Y-103660113D01*
X200571000Y-103603887D01*
X200515904Y-103326898D01*
X201705401Y-102137401D01*
X201870148Y-101890839D01*
X201928000Y-101600000D01*
X201928000Y-100777663D01*
X202221931Y-100777663D01*
X202370493Y-101137212D01*
X202645341Y-101412540D01*
X203004630Y-101561730D01*
X203103014Y-101561816D01*
X204868096Y-103326898D01*
X204813000Y-103603887D01*
X204813000Y-103660113D01*
X204922233Y-104209264D01*
X205233302Y-104674811D01*
X205698849Y-104985880D01*
X206248000Y-105095113D01*
X206797151Y-104985880D01*
X207262698Y-104674811D01*
X207573767Y-104209264D01*
X207683000Y-103660113D01*
X207683000Y-103603887D01*
X207573767Y-103054736D01*
X207262698Y-102589189D01*
X206797151Y-102278120D01*
X206248000Y-102168887D01*
X205924114Y-102233312D01*
X204177985Y-100487183D01*
X204178069Y-100390337D01*
X204029507Y-100030788D01*
X203754659Y-99755460D01*
X203395370Y-99606270D01*
X203006337Y-99605931D01*
X202646788Y-99754493D01*
X202371460Y-100029341D01*
X202222270Y-100388630D01*
X202221931Y-100777663D01*
X201928000Y-100777663D01*
X201928000Y-95926659D01*
X213853742Y-107852401D01*
X214100303Y-108017148D01*
X214129039Y-108022864D01*
X214382378Y-108276645D01*
X214799387Y-108449803D01*
X215161260Y-108450119D01*
X215160946Y-108809775D01*
X215333376Y-109227086D01*
X215652378Y-109546645D01*
X216069387Y-109719803D01*
X216356394Y-109720053D01*
X218057113Y-111420772D01*
X217957100Y-111379243D01*
X217401339Y-111378758D01*
X216887697Y-111590990D01*
X216494371Y-111983630D01*
X216408051Y-112191512D01*
X216323010Y-111985697D01*
X215930370Y-111592371D01*
X215417100Y-111379243D01*
X214861339Y-111378758D01*
X214347697Y-111590990D01*
X213954371Y-111983630D01*
X213741243Y-112496900D01*
X213740758Y-113052661D01*
X213952990Y-113566303D01*
X214345630Y-113959629D01*
X214858900Y-114172757D01*
X215414661Y-114173242D01*
X215928303Y-113961010D01*
X216321629Y-113568370D01*
X216407949Y-113360488D01*
X216492990Y-113566303D01*
X216885630Y-113959629D01*
X217398900Y-114172757D01*
X217954661Y-114173242D01*
X218363187Y-114004443D01*
X218384990Y-114037075D01*
X218157697Y-114130990D01*
X217764371Y-114523630D01*
X217678051Y-114731512D01*
X217593010Y-114525697D01*
X217200370Y-114132371D01*
X216687100Y-113919243D01*
X216131339Y-113918758D01*
X215617697Y-114130990D01*
X215224371Y-114523630D01*
X215011243Y-115036900D01*
X215010758Y-115592661D01*
X215222990Y-116106303D01*
X215615630Y-116499629D01*
X216128900Y-116712757D01*
X216684661Y-116713242D01*
X216717055Y-116699857D01*
X217394599Y-117377401D01*
X217641160Y-117542148D01*
X217689414Y-117551746D01*
X217932000Y-117600000D01*
X225044000Y-117600000D01*
X225334839Y-117542148D01*
X225581401Y-117377401D01*
X225835401Y-117123401D01*
X226000148Y-116876840D01*
X226052326Y-116614523D01*
X226288900Y-116712757D01*
X226844661Y-116713242D01*
X227358303Y-116501010D01*
X227751629Y-116108370D01*
X227837949Y-115900488D01*
X227922990Y-116106303D01*
X228315630Y-116499629D01*
X228828900Y-116712757D01*
X229384661Y-116713242D01*
X229511117Y-116660991D01*
X229510758Y-117072661D01*
X229722990Y-117586303D01*
X230115630Y-117979629D01*
X230628900Y-118192757D01*
X231184661Y-118193242D01*
X231698303Y-117981010D01*
X232091629Y-117588370D01*
X232304757Y-117075100D01*
X232305242Y-116519339D01*
X232093010Y-116005697D01*
X231700370Y-115612371D01*
X231187100Y-115399243D01*
X230631339Y-115398758D01*
X230504883Y-115451009D01*
X230505242Y-115039339D01*
X230293010Y-114525697D01*
X229900370Y-114132371D01*
X229387100Y-113919243D01*
X228831339Y-113918758D01*
X228317697Y-114130990D01*
X227924371Y-114523630D01*
X227838051Y-114731512D01*
X227753010Y-114525697D01*
X227360370Y-114132371D01*
X226960480Y-113966322D01*
X227224456Y-113702346D01*
X227330034Y-113808109D01*
X227843304Y-114021237D01*
X228399065Y-114021722D01*
X228912707Y-113809490D01*
X229031942Y-113690462D01*
X235932422Y-113690462D01*
X236439076Y-114916658D01*
X237376407Y-115855627D01*
X238601717Y-116364420D01*
X239928462Y-116365578D01*
X241154658Y-115858924D01*
X242093627Y-114921593D01*
X242602420Y-113696283D01*
X242603578Y-112369538D01*
X242096924Y-111143342D01*
X241159593Y-110204373D01*
X239934283Y-109695580D01*
X238607538Y-109694422D01*
X237381342Y-110201076D01*
X236442373Y-111138407D01*
X235933580Y-112363717D01*
X235932422Y-113690462D01*
X229031942Y-113690462D01*
X229306033Y-113416850D01*
X229519161Y-112903580D01*
X229519646Y-112347819D01*
X229307414Y-111834177D01*
X228914774Y-111440851D01*
X228401504Y-111227723D01*
X227845743Y-111227238D01*
X227582000Y-111336214D01*
X227582000Y-110789659D01*
X228651711Y-109719948D01*
X228936632Y-109720197D01*
X229353943Y-109547767D01*
X229673502Y-109228765D01*
X229846660Y-108811756D01*
X229847054Y-108360225D01*
X229829168Y-108316939D01*
X229854857Y-108291250D01*
X229854857Y-107442000D01*
X230108857Y-107442000D01*
X230108857Y-108291250D01*
X230267607Y-108450000D01*
X230608167Y-108450000D01*
X230841556Y-108353327D01*
X231020184Y-108174698D01*
X231116857Y-107941309D01*
X231116857Y-107600750D01*
X230958107Y-107442000D01*
X230108857Y-107442000D01*
X229854857Y-107442000D01*
X229005607Y-107442000D01*
X228980159Y-107467448D01*
X228938613Y-107450197D01*
X228576740Y-107449881D01*
X228576897Y-107269905D01*
X228846857Y-106999945D01*
X228846857Y-107029250D01*
X229005607Y-107188000D01*
X229854857Y-107188000D01*
X229854857Y-107168000D01*
X230108857Y-107168000D01*
X230108857Y-107188000D01*
X230958107Y-107188000D01*
X231116857Y-107029250D01*
X231116857Y-106805000D01*
X248285000Y-106805000D01*
X248575839Y-106747148D01*
X248822401Y-106582401D01*
X248961371Y-106374417D01*
X251731901Y-103603887D01*
X253581000Y-103603887D01*
X253581000Y-103660113D01*
X253690233Y-104209264D01*
X254001302Y-104674811D01*
X254466849Y-104985880D01*
X255016000Y-105095113D01*
X255565151Y-104985880D01*
X256030698Y-104674811D01*
X256341767Y-104209264D01*
X256451000Y-103660113D01*
X256451000Y-103603887D01*
X260693000Y-103603887D01*
X260693000Y-103660113D01*
X260802233Y-104209264D01*
X261113302Y-104674811D01*
X261578849Y-104985880D01*
X262128000Y-105095113D01*
X262677151Y-104985880D01*
X263142698Y-104674811D01*
X263453767Y-104209264D01*
X263563000Y-103660113D01*
X263563000Y-103603887D01*
X267805000Y-103603887D01*
X267805000Y-103660113D01*
X267914233Y-104209264D01*
X268225302Y-104674811D01*
X268690849Y-104985880D01*
X269240000Y-105095113D01*
X269789151Y-104985880D01*
X270254698Y-104674811D01*
X270565767Y-104209264D01*
X270675000Y-103660113D01*
X270675000Y-103603887D01*
X274917000Y-103603887D01*
X274917000Y-103660113D01*
X275026233Y-104209264D01*
X275337302Y-104674811D01*
X275802849Y-104985880D01*
X276352000Y-105095113D01*
X276901151Y-104985880D01*
X277366698Y-104674811D01*
X277677767Y-104209264D01*
X277787000Y-103660113D01*
X277787000Y-103603887D01*
X282029000Y-103603887D01*
X282029000Y-103660113D01*
X282138233Y-104209264D01*
X282449302Y-104674811D01*
X282914849Y-104985880D01*
X283464000Y-105095113D01*
X284013151Y-104985880D01*
X284478698Y-104674811D01*
X284789767Y-104209264D01*
X284899000Y-103660113D01*
X284899000Y-103603887D01*
X289141000Y-103603887D01*
X289141000Y-103660113D01*
X289250233Y-104209264D01*
X289561302Y-104674811D01*
X290026849Y-104985880D01*
X290576000Y-105095113D01*
X291125151Y-104985880D01*
X291590698Y-104674811D01*
X291901767Y-104209264D01*
X292011000Y-103660113D01*
X292011000Y-103603887D01*
X291901767Y-103054736D01*
X291590698Y-102589189D01*
X291125151Y-102278120D01*
X290576000Y-102168887D01*
X290026849Y-102278120D01*
X289561302Y-102589189D01*
X289250233Y-103054736D01*
X289141000Y-103603887D01*
X284899000Y-103603887D01*
X284789767Y-103054736D01*
X284478698Y-102589189D01*
X284013151Y-102278120D01*
X283464000Y-102168887D01*
X282914849Y-102278120D01*
X282449302Y-102589189D01*
X282138233Y-103054736D01*
X282029000Y-103603887D01*
X277787000Y-103603887D01*
X277677767Y-103054736D01*
X277366698Y-102589189D01*
X276901151Y-102278120D01*
X276352000Y-102168887D01*
X275802849Y-102278120D01*
X275337302Y-102589189D01*
X275026233Y-103054736D01*
X274917000Y-103603887D01*
X270675000Y-103603887D01*
X270565767Y-103054736D01*
X270254698Y-102589189D01*
X269789151Y-102278120D01*
X269240000Y-102168887D01*
X268690849Y-102278120D01*
X268225302Y-102589189D01*
X267914233Y-103054736D01*
X267805000Y-103603887D01*
X263563000Y-103603887D01*
X263453767Y-103054736D01*
X263142698Y-102589189D01*
X262677151Y-102278120D01*
X262128000Y-102168887D01*
X261578849Y-102278120D01*
X261113302Y-102589189D01*
X260802233Y-103054736D01*
X260693000Y-103603887D01*
X256451000Y-103603887D01*
X256341767Y-103054736D01*
X256030698Y-102589189D01*
X255565151Y-102278120D01*
X255016000Y-102168887D01*
X254466849Y-102278120D01*
X254001302Y-102589189D01*
X253690233Y-103054736D01*
X253581000Y-103603887D01*
X251731901Y-103603887D01*
X253196632Y-102139156D01*
X253350801Y-101908427D01*
X253359783Y-101863272D01*
X253404938Y-101636262D01*
X253404938Y-89973439D01*
X253593738Y-89973439D01*
X253829055Y-89929161D01*
X254045179Y-89790089D01*
X254190169Y-89577889D01*
X254194305Y-89557465D01*
X254256000Y-89619268D01*
X254256000Y-89693354D01*
X254204200Y-89714757D01*
X253800176Y-90118077D01*
X253581250Y-90645309D01*
X253580752Y-91216187D01*
X253798757Y-91743800D01*
X254202077Y-92147824D01*
X254729309Y-92366750D01*
X255300187Y-92367248D01*
X255827800Y-92149243D01*
X256231824Y-91745923D01*
X256450750Y-91218691D01*
X256451248Y-90647813D01*
X256233243Y-90120200D01*
X255917811Y-89804217D01*
X256102109Y-89728067D01*
X256534289Y-89296642D01*
X256768471Y-88732669D01*
X256769003Y-88122008D01*
X256535806Y-87557628D01*
X256504233Y-87525999D01*
X258149422Y-87525999D01*
X258149422Y-89325999D01*
X258193700Y-89561316D01*
X258332772Y-89777440D01*
X258544972Y-89922430D01*
X258796862Y-89973439D01*
X260596862Y-89973439D01*
X260832179Y-89929161D01*
X261048303Y-89790089D01*
X261193293Y-89577889D01*
X261197429Y-89557465D01*
X261343278Y-89703569D01*
X261316200Y-89714757D01*
X260912176Y-90118077D01*
X260693250Y-90645309D01*
X260692752Y-91216187D01*
X260910757Y-91743800D01*
X261314077Y-92147824D01*
X261841309Y-92366750D01*
X262412187Y-92367248D01*
X262939800Y-92149243D01*
X263343824Y-91745923D01*
X263562750Y-91218691D01*
X263563248Y-90647813D01*
X263345243Y-90120200D01*
X262998017Y-89772368D01*
X263105233Y-89728067D01*
X263537413Y-89296642D01*
X263771595Y-88732669D01*
X263772127Y-88122008D01*
X263538930Y-87557628D01*
X263507357Y-87525999D01*
X265152560Y-87525999D01*
X265152560Y-89325999D01*
X265196838Y-89561316D01*
X265335910Y-89777440D01*
X265548110Y-89922430D01*
X265800000Y-89973439D01*
X267600000Y-89973439D01*
X267835317Y-89929161D01*
X268051441Y-89790089D01*
X268196431Y-89577889D01*
X268200567Y-89557465D01*
X268369357Y-89726550D01*
X268402571Y-89740342D01*
X268024176Y-90118077D01*
X267805250Y-90645309D01*
X267804752Y-91216187D01*
X268022757Y-91743800D01*
X268426077Y-92147824D01*
X268953309Y-92366750D01*
X269524187Y-92367248D01*
X270051800Y-92149243D01*
X270455824Y-91745923D01*
X270674750Y-91218691D01*
X270675248Y-90647813D01*
X270457243Y-90120200D01*
X270078227Y-89740522D01*
X270108371Y-89728067D01*
X270540551Y-89296642D01*
X270774733Y-88732669D01*
X270775265Y-88122008D01*
X270542068Y-87557628D01*
X270510495Y-87525999D01*
X272264560Y-87525999D01*
X272264560Y-89325999D01*
X272308838Y-89561316D01*
X272447910Y-89777440D01*
X272660110Y-89922430D01*
X272912000Y-89973439D01*
X274712000Y-89973439D01*
X274947317Y-89929161D01*
X275163441Y-89790089D01*
X275308431Y-89577889D01*
X275312567Y-89557465D01*
X275481357Y-89726550D01*
X275514571Y-89740342D01*
X275136176Y-90118077D01*
X274917250Y-90645309D01*
X274916752Y-91216187D01*
X275134757Y-91743800D01*
X275538077Y-92147824D01*
X276065309Y-92366750D01*
X276636187Y-92367248D01*
X277163800Y-92149243D01*
X277567824Y-91745923D01*
X277786750Y-91218691D01*
X277787248Y-90647813D01*
X277569243Y-90120200D01*
X277190227Y-89740522D01*
X277220371Y-89728067D01*
X277652551Y-89296642D01*
X277886733Y-88732669D01*
X277887265Y-88122008D01*
X277654068Y-87557628D01*
X277622495Y-87525999D01*
X279376560Y-87525999D01*
X279376560Y-89325999D01*
X279420838Y-89561316D01*
X279559910Y-89777440D01*
X279772110Y-89922430D01*
X280024000Y-89973439D01*
X281824000Y-89973439D01*
X282059317Y-89929161D01*
X282275441Y-89790089D01*
X282420431Y-89577889D01*
X282424567Y-89557465D01*
X282593357Y-89726550D01*
X282626571Y-89740342D01*
X282248176Y-90118077D01*
X282029250Y-90645309D01*
X282028752Y-91216187D01*
X282246757Y-91743800D01*
X282650077Y-92147824D01*
X283177309Y-92366750D01*
X283748187Y-92367248D01*
X284275800Y-92149243D01*
X284679824Y-91745923D01*
X284898750Y-91218691D01*
X284899248Y-90647813D01*
X284681243Y-90120200D01*
X284302227Y-89740522D01*
X284332371Y-89728067D01*
X284764551Y-89296642D01*
X284998733Y-88732669D01*
X284999265Y-88122008D01*
X284766068Y-87557628D01*
X284734495Y-87525999D01*
X286488560Y-87525999D01*
X286488560Y-89325999D01*
X286532838Y-89561316D01*
X286671910Y-89777440D01*
X286884110Y-89922430D01*
X287136000Y-89973439D01*
X288936000Y-89973439D01*
X289171317Y-89929161D01*
X289387441Y-89790089D01*
X289532431Y-89577889D01*
X289536567Y-89557465D01*
X289705357Y-89726550D01*
X289738571Y-89740342D01*
X289360176Y-90118077D01*
X289141250Y-90645309D01*
X289140752Y-91216187D01*
X289358757Y-91743800D01*
X289762077Y-92147824D01*
X290289309Y-92366750D01*
X290860187Y-92367248D01*
X291387800Y-92149243D01*
X291791824Y-91745923D01*
X292010750Y-91218691D01*
X292011248Y-90647813D01*
X291793243Y-90120200D01*
X291414227Y-89740522D01*
X291444371Y-89728067D01*
X291876551Y-89296642D01*
X292110733Y-88732669D01*
X292111265Y-88122008D01*
X291878068Y-87557628D01*
X291446643Y-87125448D01*
X290882670Y-86891266D01*
X290272009Y-86890734D01*
X289707629Y-87123931D01*
X289539387Y-87291879D01*
X289539162Y-87290682D01*
X289400090Y-87074558D01*
X289187890Y-86929568D01*
X288936000Y-86878559D01*
X287136000Y-86878559D01*
X286900683Y-86922837D01*
X286684559Y-87061909D01*
X286539569Y-87274109D01*
X286488560Y-87525999D01*
X284734495Y-87525999D01*
X284334643Y-87125448D01*
X283770670Y-86891266D01*
X283160009Y-86890734D01*
X282595629Y-87123931D01*
X282427387Y-87291879D01*
X282427162Y-87290682D01*
X282288090Y-87074558D01*
X282075890Y-86929568D01*
X281824000Y-86878559D01*
X280024000Y-86878559D01*
X279788683Y-86922837D01*
X279572559Y-87061909D01*
X279427569Y-87274109D01*
X279376560Y-87525999D01*
X277622495Y-87525999D01*
X277222643Y-87125448D01*
X276658670Y-86891266D01*
X276048009Y-86890734D01*
X275483629Y-87123931D01*
X275315387Y-87291879D01*
X275315162Y-87290682D01*
X275176090Y-87074558D01*
X274963890Y-86929568D01*
X274712000Y-86878559D01*
X272912000Y-86878559D01*
X272676683Y-86922837D01*
X272460559Y-87061909D01*
X272315569Y-87274109D01*
X272264560Y-87525999D01*
X270510495Y-87525999D01*
X270110643Y-87125448D01*
X269546670Y-86891266D01*
X268936009Y-86890734D01*
X268371629Y-87123931D01*
X268203387Y-87291879D01*
X268203162Y-87290682D01*
X268064090Y-87074558D01*
X267851890Y-86929568D01*
X267600000Y-86878559D01*
X265800000Y-86878559D01*
X265564683Y-86922837D01*
X265348559Y-87061909D01*
X265203569Y-87274109D01*
X265152560Y-87525999D01*
X263507357Y-87525999D01*
X263107505Y-87125448D01*
X262543532Y-86891266D01*
X261932871Y-86890734D01*
X261368491Y-87123931D01*
X261200249Y-87291879D01*
X261200024Y-87290682D01*
X261060952Y-87074558D01*
X260848752Y-86929568D01*
X260596862Y-86878559D01*
X258796862Y-86878559D01*
X258561545Y-86922837D01*
X258345421Y-87061909D01*
X258200431Y-87274109D01*
X258149422Y-87525999D01*
X256504233Y-87525999D01*
X256104381Y-87125448D01*
X255540408Y-86891266D01*
X254929747Y-86890734D01*
X254365367Y-87123931D01*
X254197125Y-87291879D01*
X254196900Y-87290682D01*
X254057828Y-87074558D01*
X253845628Y-86929568D01*
X253593738Y-86878559D01*
X251793738Y-86878559D01*
X251558421Y-86922837D01*
X251342297Y-87061909D01*
X251197307Y-87274109D01*
X251146298Y-87525999D01*
X251146298Y-89325999D01*
X251190576Y-89561316D01*
X251329648Y-89777440D01*
X251541848Y-89922430D01*
X251793738Y-89973439D01*
X251982538Y-89973439D01*
X251982538Y-101341674D01*
X249825983Y-103498229D01*
X249737767Y-103054736D01*
X249426698Y-102589189D01*
X248961151Y-102278120D01*
X248412000Y-102168887D01*
X248088114Y-102233312D01*
X240245985Y-94391183D01*
X240246069Y-94294337D01*
X240097507Y-93934788D01*
X239822659Y-93659460D01*
X239463370Y-93510270D01*
X239074337Y-93509931D01*
X238714788Y-93658493D01*
X238439460Y-93933341D01*
X238290270Y-94292630D01*
X238289931Y-94681663D01*
X238438493Y-95041212D01*
X238713341Y-95316540D01*
X239072630Y-95465730D01*
X239171014Y-95465816D01*
X247032096Y-103326898D01*
X246977000Y-103603887D01*
X246977000Y-103660113D01*
X247086233Y-104209264D01*
X247397302Y-104674811D01*
X247862849Y-104985880D01*
X248259444Y-105064768D01*
X248039212Y-105285000D01*
X228727000Y-105285000D01*
X228436160Y-105342852D01*
X228189599Y-105507599D01*
X227517133Y-106180065D01*
X227217082Y-106179803D01*
X226799771Y-106352233D01*
X226480212Y-106671235D01*
X226307054Y-107088244D01*
X226306660Y-107539775D01*
X226479090Y-107957086D01*
X226798092Y-108276645D01*
X227215101Y-108449803D01*
X227576974Y-108450119D01*
X227576804Y-108645251D01*
X226284599Y-109937456D01*
X226119852Y-110184018D01*
X226062000Y-110474857D01*
X226062000Y-111580591D01*
X225577100Y-111379243D01*
X225021339Y-111378758D01*
X224507697Y-111590990D01*
X224114371Y-111983630D01*
X224028051Y-112191512D01*
X223943010Y-111985697D01*
X223550370Y-111592371D01*
X223037100Y-111379243D01*
X222481339Y-111378758D01*
X221967697Y-111590990D01*
X221574371Y-111983630D01*
X221488051Y-112191512D01*
X221403010Y-111985697D01*
X221010370Y-111592371D01*
X220497100Y-111379243D01*
X219941339Y-111378758D01*
X219708000Y-111475171D01*
X219708000Y-111236857D01*
X219650148Y-110946018D01*
X219485401Y-110699456D01*
X217431091Y-108645146D01*
X217431340Y-108360225D01*
X217413454Y-108316939D01*
X217439143Y-108291250D01*
X217439143Y-107442000D01*
X217693143Y-107442000D01*
X217693143Y-108291250D01*
X217851893Y-108450000D01*
X218192453Y-108450000D01*
X218425842Y-108353327D01*
X218604470Y-108174698D01*
X218701143Y-107941309D01*
X218701143Y-107600750D01*
X218542393Y-107442000D01*
X217693143Y-107442000D01*
X217439143Y-107442000D01*
X216589893Y-107442000D01*
X216564445Y-107467448D01*
X216522899Y-107450197D01*
X216161026Y-107449881D01*
X216161340Y-107090225D01*
X215995429Y-106688691D01*
X216431143Y-106688691D01*
X216431143Y-107029250D01*
X216589893Y-107188000D01*
X217439143Y-107188000D01*
X217439143Y-106338750D01*
X217693143Y-106338750D01*
X217693143Y-107188000D01*
X218542393Y-107188000D01*
X218701143Y-107029250D01*
X218701143Y-106688691D01*
X218604470Y-106455302D01*
X218425842Y-106276673D01*
X218192453Y-106180000D01*
X217851893Y-106180000D01*
X217693143Y-106338750D01*
X217439143Y-106338750D01*
X217280393Y-106180000D01*
X216939833Y-106180000D01*
X216706444Y-106276673D01*
X216527816Y-106455302D01*
X216431143Y-106688691D01*
X215995429Y-106688691D01*
X215988910Y-106672914D01*
X215669908Y-106353355D01*
X215252899Y-106180197D01*
X214801368Y-106179803D01*
X214468349Y-106317404D01*
X213217766Y-105066821D01*
X213360000Y-105095113D01*
X213909151Y-104985880D01*
X214374698Y-104674811D01*
X214685767Y-104209264D01*
X214795000Y-103660113D01*
X214795000Y-103603887D01*
X214685767Y-103054736D01*
X214374698Y-102589189D01*
X213909151Y-102278120D01*
X213360000Y-102168887D01*
X213036114Y-102233312D01*
X210273985Y-99471183D01*
X210274069Y-99374337D01*
X210125507Y-99014788D01*
X209856852Y-98745663D01*
X214413931Y-98745663D01*
X214562493Y-99105212D01*
X214837341Y-99380540D01*
X215196630Y-99529730D01*
X215295014Y-99529816D01*
X219092096Y-103326898D01*
X219037000Y-103603887D01*
X219037000Y-103660113D01*
X219146233Y-104209264D01*
X219457302Y-104674811D01*
X219922849Y-104985880D01*
X220472000Y-105095113D01*
X220973999Y-104995259D01*
X220973999Y-106194358D01*
X220591914Y-106352233D01*
X220272355Y-106671235D01*
X220099197Y-107088244D01*
X220098803Y-107539775D01*
X220271233Y-107957086D01*
X220590235Y-108276645D01*
X221007244Y-108449803D01*
X221369117Y-108450119D01*
X221368803Y-108809775D01*
X221541233Y-109227086D01*
X221860235Y-109546645D01*
X222277244Y-109719803D01*
X222728775Y-109720197D01*
X223146086Y-109547767D01*
X223465645Y-109228765D01*
X223638803Y-108811756D01*
X223639197Y-108360225D01*
X223621311Y-108316939D01*
X223647000Y-108291250D01*
X223647000Y-107442000D01*
X223901000Y-107442000D01*
X223901000Y-108291250D01*
X224059750Y-108450000D01*
X224400310Y-108450000D01*
X224633699Y-108353327D01*
X224812327Y-108174698D01*
X224909000Y-107941309D01*
X224909000Y-107600750D01*
X224750250Y-107442000D01*
X223901000Y-107442000D01*
X223647000Y-107442000D01*
X222797750Y-107442000D01*
X222772302Y-107467448D01*
X222730756Y-107450197D01*
X222368883Y-107449881D01*
X222369096Y-107206190D01*
X222436147Y-107105841D01*
X222493999Y-106815001D01*
X222493999Y-106688691D01*
X222639000Y-106688691D01*
X222639000Y-107029250D01*
X222797750Y-107188000D01*
X223647000Y-107188000D01*
X223647000Y-106338750D01*
X223901000Y-106338750D01*
X223901000Y-107188000D01*
X224750250Y-107188000D01*
X224909000Y-107029250D01*
X224909000Y-106688691D01*
X224812327Y-106455302D01*
X224633699Y-106276673D01*
X224400310Y-106180000D01*
X224059750Y-106180000D01*
X223901000Y-106338750D01*
X223647000Y-106338750D01*
X223488250Y-106180000D01*
X223147690Y-106180000D01*
X222914301Y-106276673D01*
X222735673Y-106455302D01*
X222639000Y-106688691D01*
X222493999Y-106688691D01*
X222493999Y-100124801D01*
X225696096Y-103326898D01*
X225641000Y-103603887D01*
X225641000Y-103660113D01*
X225750233Y-104209264D01*
X226061302Y-104674811D01*
X226526849Y-104985880D01*
X227076000Y-105095113D01*
X227625151Y-104985880D01*
X228090698Y-104674811D01*
X228401767Y-104209264D01*
X228511000Y-103660113D01*
X228511000Y-103603887D01*
X228401767Y-103054736D01*
X228090698Y-102589189D01*
X227625151Y-102278120D01*
X227076000Y-102168887D01*
X226752114Y-102233312D01*
X221957985Y-97439183D01*
X221958069Y-97342337D01*
X221809507Y-96982788D01*
X221540852Y-96713663D01*
X226097931Y-96713663D01*
X226246493Y-97073212D01*
X226521341Y-97348540D01*
X226880630Y-97497730D01*
X226979014Y-97497816D01*
X232808096Y-103326898D01*
X232753000Y-103603887D01*
X232753000Y-103660113D01*
X232862233Y-104209264D01*
X233173302Y-104674811D01*
X233638849Y-104985880D01*
X234188000Y-105095113D01*
X234737151Y-104985880D01*
X235202698Y-104674811D01*
X235513767Y-104209264D01*
X235623000Y-103660113D01*
X235623000Y-103603887D01*
X235513767Y-103054736D01*
X235202698Y-102589189D01*
X234737151Y-102278120D01*
X234188000Y-102168887D01*
X233864114Y-102233312D01*
X228053985Y-96423183D01*
X228054069Y-96326337D01*
X227905507Y-95966788D01*
X227636852Y-95697663D01*
X232193931Y-95697663D01*
X232342493Y-96057212D01*
X232617341Y-96332540D01*
X232976630Y-96481730D01*
X233075014Y-96481816D01*
X239920096Y-103326898D01*
X239865000Y-103603887D01*
X239865000Y-103660113D01*
X239974233Y-104209264D01*
X240285302Y-104674811D01*
X240750849Y-104985880D01*
X241300000Y-105095113D01*
X241849151Y-104985880D01*
X242314698Y-104674811D01*
X242625767Y-104209264D01*
X242735000Y-103660113D01*
X242735000Y-103603887D01*
X242625767Y-103054736D01*
X242314698Y-102589189D01*
X241849151Y-102278120D01*
X241300000Y-102168887D01*
X240976114Y-102233312D01*
X234149985Y-95407183D01*
X234150069Y-95310337D01*
X234001507Y-94950788D01*
X233726659Y-94675460D01*
X233367370Y-94526270D01*
X232978337Y-94525931D01*
X232618788Y-94674493D01*
X232343460Y-94949341D01*
X232194270Y-95308630D01*
X232193931Y-95697663D01*
X227636852Y-95697663D01*
X227630659Y-95691460D01*
X227271370Y-95542270D01*
X226882337Y-95541931D01*
X226522788Y-95690493D01*
X226247460Y-95965341D01*
X226098270Y-96324630D01*
X226097931Y-96713663D01*
X221540852Y-96713663D01*
X221534659Y-96707460D01*
X221175370Y-96558270D01*
X220786337Y-96557931D01*
X220724000Y-96583688D01*
X220724000Y-94608043D01*
X225218643Y-90113400D01*
X225312162Y-89973439D01*
X225581242Y-89973439D01*
X225816559Y-89929161D01*
X226032683Y-89790089D01*
X226177673Y-89577889D01*
X226181809Y-89557465D01*
X226316000Y-89691890D01*
X226316000Y-89693354D01*
X226264200Y-89714757D01*
X225860176Y-90118077D01*
X225641250Y-90645309D01*
X225640752Y-91216187D01*
X225858757Y-91743800D01*
X226262077Y-92147824D01*
X226789309Y-92366750D01*
X227360187Y-92367248D01*
X227887800Y-92149243D01*
X228291824Y-91745923D01*
X228510750Y-91218691D01*
X228511248Y-90647813D01*
X228293243Y-90120200D01*
X227956641Y-89783010D01*
X228089613Y-89728067D01*
X228521793Y-89296642D01*
X228755975Y-88732669D01*
X228756507Y-88122008D01*
X228523310Y-87557628D01*
X228491737Y-87525999D01*
X230136926Y-87525999D01*
X230136926Y-89325999D01*
X230181204Y-89561316D01*
X230320276Y-89777440D01*
X230532476Y-89922430D01*
X230784366Y-89973439D01*
X232584366Y-89973439D01*
X232819683Y-89929161D01*
X233035807Y-89790089D01*
X233180797Y-89577889D01*
X233184933Y-89557465D01*
X233353723Y-89726550D01*
X233361254Y-89729677D01*
X232972176Y-90118077D01*
X232753250Y-90645309D01*
X232752752Y-91216187D01*
X232970757Y-91743800D01*
X233374077Y-92147824D01*
X233901309Y-92366750D01*
X234472187Y-92367248D01*
X234999800Y-92149243D01*
X235403824Y-91745923D01*
X235622750Y-91218691D01*
X235623248Y-90647813D01*
X235405243Y-90120200D01*
X235036847Y-89751160D01*
X235092737Y-89728067D01*
X235524917Y-89296642D01*
X235759099Y-88732669D01*
X235759631Y-88122008D01*
X235526434Y-87557628D01*
X235494861Y-87525999D01*
X237140050Y-87525999D01*
X237140050Y-89325999D01*
X237184328Y-89561316D01*
X237323400Y-89777440D01*
X237535600Y-89922430D01*
X237787490Y-89973439D01*
X239587490Y-89973439D01*
X239822807Y-89929161D01*
X240038931Y-89790089D01*
X240183921Y-89577889D01*
X240188057Y-89557465D01*
X240356847Y-89726550D01*
X240441270Y-89761605D01*
X240084176Y-90118077D01*
X239865250Y-90645309D01*
X239864752Y-91216187D01*
X240082757Y-91743800D01*
X240486077Y-92147824D01*
X241013309Y-92366750D01*
X241584187Y-92367248D01*
X242111800Y-92149243D01*
X242515824Y-91745923D01*
X242734750Y-91218691D01*
X242735248Y-90647813D01*
X242517243Y-90120200D01*
X242113923Y-89716176D01*
X242109580Y-89714372D01*
X242528041Y-89296642D01*
X242762223Y-88732669D01*
X242762755Y-88122008D01*
X242529558Y-87557628D01*
X242497985Y-87525999D01*
X244143174Y-87525999D01*
X244143174Y-89325999D01*
X244187452Y-89561316D01*
X244326524Y-89777440D01*
X244538724Y-89922430D01*
X244790614Y-89973439D01*
X246590614Y-89973439D01*
X246825931Y-89929161D01*
X247042055Y-89790089D01*
X247187045Y-89577889D01*
X247191181Y-89557465D01*
X247359971Y-89726550D01*
X247521286Y-89793534D01*
X247196176Y-90118077D01*
X246977250Y-90645309D01*
X246976752Y-91216187D01*
X247194757Y-91743800D01*
X247598077Y-92147824D01*
X248125309Y-92366750D01*
X248696187Y-92367248D01*
X249223800Y-92149243D01*
X249627824Y-91745923D01*
X249846750Y-91218691D01*
X249847248Y-90647813D01*
X249629243Y-90120200D01*
X249225923Y-89716176D01*
X249172000Y-89693785D01*
X249172000Y-89655180D01*
X249531165Y-89296642D01*
X249765347Y-88732669D01*
X249765879Y-88122008D01*
X249532682Y-87557628D01*
X249101257Y-87125448D01*
X248537284Y-86891266D01*
X247926623Y-86890734D01*
X247362243Y-87123931D01*
X247194001Y-87291879D01*
X247193776Y-87290682D01*
X247054704Y-87074558D01*
X246842504Y-86929568D01*
X246590614Y-86878559D01*
X244790614Y-86878559D01*
X244555297Y-86922837D01*
X244339173Y-87061909D01*
X244194183Y-87274109D01*
X244143174Y-87525999D01*
X242497985Y-87525999D01*
X242098133Y-87125448D01*
X241534160Y-86891266D01*
X240923499Y-86890734D01*
X240359119Y-87123931D01*
X240190877Y-87291879D01*
X240190652Y-87290682D01*
X240051580Y-87074558D01*
X239839380Y-86929568D01*
X239587490Y-86878559D01*
X237787490Y-86878559D01*
X237552173Y-86922837D01*
X237336049Y-87061909D01*
X237191059Y-87274109D01*
X237140050Y-87525999D01*
X235494861Y-87525999D01*
X235095009Y-87125448D01*
X234531036Y-86891266D01*
X233920375Y-86890734D01*
X233355995Y-87123931D01*
X233187753Y-87291879D01*
X233187528Y-87290682D01*
X233048456Y-87074558D01*
X232836256Y-86929568D01*
X232584366Y-86878559D01*
X230784366Y-86878559D01*
X230549049Y-86922837D01*
X230332925Y-87061909D01*
X230187935Y-87274109D01*
X230136926Y-87525999D01*
X228491737Y-87525999D01*
X228091885Y-87125448D01*
X227527912Y-86891266D01*
X226917251Y-86890734D01*
X226352871Y-87123931D01*
X226184629Y-87291879D01*
X226184404Y-87290682D01*
X226045332Y-87074558D01*
X225833132Y-86929568D01*
X225581242Y-86878559D01*
X223781242Y-86878559D01*
X223545925Y-86922837D01*
X223329801Y-87061909D01*
X223184811Y-87274109D01*
X223133802Y-87525999D01*
X223133802Y-89325999D01*
X223178080Y-89561316D01*
X223317152Y-89777440D01*
X223369340Y-89813099D01*
X221866276Y-91316163D01*
X221906750Y-91218691D01*
X221907248Y-90647813D01*
X221689243Y-90120200D01*
X221285923Y-89716176D01*
X221153489Y-89661184D01*
X221518669Y-89296642D01*
X221752851Y-88732669D01*
X221753383Y-88122008D01*
X221520186Y-87557628D01*
X221088761Y-87125448D01*
X220524788Y-86891266D01*
X219914127Y-86890734D01*
X219349747Y-87123931D01*
X219181505Y-87291879D01*
X219181280Y-87290682D01*
X219042208Y-87074558D01*
X218830008Y-86929568D01*
X218578118Y-86878559D01*
X216778118Y-86878559D01*
X216542801Y-86922837D01*
X216326677Y-87061909D01*
X216181687Y-87274109D01*
X216130678Y-87525999D01*
X216130678Y-89325999D01*
X216174956Y-89561316D01*
X216314028Y-89777440D01*
X216526228Y-89922430D01*
X216778118Y-89973439D01*
X218578118Y-89973439D01*
X218813435Y-89929161D01*
X219029559Y-89790089D01*
X219174549Y-89577889D01*
X219178685Y-89557465D01*
X219347475Y-89726550D01*
X219458118Y-89772493D01*
X219458118Y-89916487D01*
X219256176Y-90118077D01*
X219037250Y-90645309D01*
X219036752Y-91216187D01*
X219254757Y-91743800D01*
X219658077Y-92147824D01*
X220185309Y-92366750D01*
X220756187Y-92367248D01*
X220856738Y-92325701D01*
X219426599Y-93755840D01*
X219261852Y-94002402D01*
X219204000Y-94293241D01*
X219204000Y-97438046D01*
X219261852Y-97728885D01*
X219426599Y-97975447D01*
X220973999Y-99522847D01*
X220973999Y-102268741D01*
X220472000Y-102168887D01*
X220148114Y-102233312D01*
X216369985Y-98455183D01*
X216370069Y-98358337D01*
X216221507Y-97998788D01*
X215946659Y-97723460D01*
X215587370Y-97574270D01*
X215198337Y-97573931D01*
X214838788Y-97722493D01*
X214563460Y-97997341D01*
X214414270Y-98356630D01*
X214413931Y-98745663D01*
X209856852Y-98745663D01*
X209850659Y-98739460D01*
X209491370Y-98590270D01*
X209102337Y-98589931D01*
X208742788Y-98738493D01*
X208467460Y-99013341D01*
X208318270Y-99372630D01*
X208317931Y-99761663D01*
X208466493Y-100121212D01*
X208741341Y-100396540D01*
X209100630Y-100545730D01*
X209199014Y-100545816D01*
X211980096Y-103326898D01*
X211925000Y-103603887D01*
X211925000Y-103660113D01*
X211953292Y-103802347D01*
X202944000Y-94793055D01*
X202944000Y-93079080D01*
X203012540Y-93010659D01*
X203161730Y-92651370D01*
X203162069Y-92262337D01*
X203013507Y-91902788D01*
X202738659Y-91627460D01*
X202379370Y-91478270D01*
X201990337Y-91477931D01*
X201630788Y-91626493D01*
X201355460Y-91901341D01*
X201206270Y-92260630D01*
X201205931Y-92649663D01*
X201354493Y-93009212D01*
X201424000Y-93078840D01*
X201424000Y-93789446D01*
X201363370Y-93764270D01*
X200974337Y-93763931D01*
X200614788Y-93912493D01*
X200339460Y-94187341D01*
X200198778Y-94526141D01*
X199958337Y-94525931D01*
X199598788Y-94674493D01*
X199323460Y-94949341D01*
X199174270Y-95308630D01*
X199174184Y-95407014D01*
X192347886Y-102233312D01*
X192024000Y-102168887D01*
X191474849Y-102278120D01*
X191009302Y-102589189D01*
X190698233Y-103054736D01*
X190589000Y-103603887D01*
X186855000Y-103603887D01*
X186799904Y-103326898D01*
X192628817Y-97497985D01*
X192725663Y-97498069D01*
X193085212Y-97349507D01*
X193360540Y-97074659D01*
X193509730Y-96715370D01*
X193510069Y-96326337D01*
X193361507Y-95966788D01*
X193086659Y-95691460D01*
X192727370Y-95542270D01*
X192338337Y-95541931D01*
X191978788Y-95690493D01*
X191703460Y-95965341D01*
X191554270Y-96324630D01*
X191554184Y-96423014D01*
X185743886Y-102233312D01*
X185420000Y-102168887D01*
X184870849Y-102278120D01*
X184405302Y-102589189D01*
X184094233Y-103054736D01*
X183985000Y-103603887D01*
X179743000Y-103603887D01*
X179687904Y-103326898D01*
X184564318Y-98450484D01*
X184716630Y-98513730D01*
X185105663Y-98514069D01*
X185465212Y-98365507D01*
X185740540Y-98090659D01*
X185889730Y-97731370D01*
X185890069Y-97342337D01*
X185741507Y-96982788D01*
X185466659Y-96707460D01*
X185107370Y-96558270D01*
X184718337Y-96557931D01*
X184358788Y-96706493D01*
X184260582Y-96804528D01*
X184113161Y-96833852D01*
X183866599Y-96998599D01*
X178631886Y-102233312D01*
X178308000Y-102168887D01*
X177758849Y-102278120D01*
X177293302Y-102589189D01*
X176982233Y-103054736D01*
X176873000Y-103603887D01*
X172631000Y-103603887D01*
X172575904Y-103326898D01*
X176372817Y-99529985D01*
X176469663Y-99530069D01*
X176829212Y-99381507D01*
X177104540Y-99106659D01*
X177253730Y-98747370D01*
X177254069Y-98358337D01*
X177105507Y-97998788D01*
X176830659Y-97723460D01*
X176471370Y-97574270D01*
X176082337Y-97573931D01*
X175722788Y-97722493D01*
X175447460Y-97997341D01*
X175298270Y-98356630D01*
X175298184Y-98455014D01*
X171519886Y-102233312D01*
X171196000Y-102168887D01*
X170646849Y-102278120D01*
X170181302Y-102589189D01*
X169870233Y-103054736D01*
X169761000Y-103603887D01*
X165519000Y-103603887D01*
X165463904Y-103326898D01*
X168244817Y-100545985D01*
X168341663Y-100546069D01*
X168701212Y-100397507D01*
X168976540Y-100122659D01*
X169125730Y-99763370D01*
X169126069Y-99374337D01*
X168977507Y-99014788D01*
X168702659Y-98739460D01*
X168343370Y-98590270D01*
X167954337Y-98589931D01*
X167594788Y-98738493D01*
X167319460Y-99013341D01*
X167170270Y-99372630D01*
X167170184Y-99471014D01*
X164407886Y-102233312D01*
X164084000Y-102168887D01*
X163534849Y-102278120D01*
X163069302Y-102589189D01*
X162758233Y-103054736D01*
X162649000Y-103603887D01*
X158407000Y-103603887D01*
X158297767Y-103054736D01*
X157986698Y-102589189D01*
X157521151Y-102278120D01*
X156972000Y-102168887D01*
X156422849Y-102278120D01*
X155957302Y-102589189D01*
X155646233Y-103054736D01*
X155537000Y-103603887D01*
X146125000Y-103603887D01*
X146125000Y-87525999D01*
X153102562Y-87525999D01*
X153102562Y-89325999D01*
X153146840Y-89561316D01*
X153285912Y-89777440D01*
X153498112Y-89922430D01*
X153750002Y-89973439D01*
X155550002Y-89973439D01*
X155785319Y-89929161D01*
X156001443Y-89790089D01*
X156146433Y-89577889D01*
X156150569Y-89557465D01*
X156212000Y-89619003D01*
X156212000Y-89693354D01*
X156160200Y-89714757D01*
X155756176Y-90118077D01*
X155537250Y-90645309D01*
X155536752Y-91216187D01*
X155754757Y-91743800D01*
X156158077Y-92147824D01*
X156685309Y-92366750D01*
X157256187Y-92367248D01*
X157783800Y-92149243D01*
X158187824Y-91745923D01*
X158406750Y-91218691D01*
X158407248Y-90647813D01*
X158189243Y-90120200D01*
X157873888Y-89804295D01*
X158058373Y-89728067D01*
X158490553Y-89296642D01*
X158724735Y-88732669D01*
X158725267Y-88122008D01*
X158492070Y-87557628D01*
X158460497Y-87525999D01*
X160105686Y-87525999D01*
X160105686Y-89325999D01*
X160149964Y-89561316D01*
X160289036Y-89777440D01*
X160501236Y-89922430D01*
X160753126Y-89973439D01*
X162553126Y-89973439D01*
X162788443Y-89929161D01*
X163004567Y-89790089D01*
X163149557Y-89577889D01*
X163153693Y-89557465D01*
X163299465Y-89703491D01*
X163272200Y-89714757D01*
X162868176Y-90118077D01*
X162649250Y-90645309D01*
X162648752Y-91216187D01*
X162866757Y-91743800D01*
X163270077Y-92147824D01*
X163797309Y-92366750D01*
X164368187Y-92367248D01*
X164895800Y-92149243D01*
X165299824Y-91745923D01*
X165518750Y-91218691D01*
X165519248Y-90647813D01*
X165301243Y-90120200D01*
X164954094Y-89772445D01*
X165061497Y-89728067D01*
X165493677Y-89296642D01*
X165727859Y-88732669D01*
X165728391Y-88122008D01*
X165495194Y-87557628D01*
X165463621Y-87525999D01*
X167108810Y-87525999D01*
X167108810Y-89325999D01*
X167153088Y-89561316D01*
X167292160Y-89777440D01*
X167504360Y-89922430D01*
X167756250Y-89973439D01*
X169556250Y-89973439D01*
X169791567Y-89929161D01*
X170007691Y-89790089D01*
X170152681Y-89577889D01*
X170156817Y-89557465D01*
X170325607Y-89726550D01*
X170358644Y-89740268D01*
X169980176Y-90118077D01*
X169761250Y-90645309D01*
X169760752Y-91216187D01*
X169978757Y-91743800D01*
X170382077Y-92147824D01*
X170909309Y-92366750D01*
X171480187Y-92367248D01*
X172007800Y-92149243D01*
X172411824Y-91745923D01*
X172630750Y-91218691D01*
X172631248Y-90647813D01*
X172413243Y-90120200D01*
X172034300Y-89740595D01*
X172064621Y-89728067D01*
X172496801Y-89296642D01*
X172730983Y-88732669D01*
X172731515Y-88122008D01*
X172498318Y-87557628D01*
X172466745Y-87525999D01*
X174003058Y-87525999D01*
X174003058Y-89325999D01*
X174047336Y-89561316D01*
X174186408Y-89777440D01*
X174398608Y-89922430D01*
X174650498Y-89973439D01*
X176450498Y-89973439D01*
X176685815Y-89929161D01*
X176901939Y-89790089D01*
X177046929Y-89577889D01*
X177051065Y-89557465D01*
X177219855Y-89726550D01*
X177330498Y-89772493D01*
X177330498Y-89880170D01*
X177092176Y-90118077D01*
X176873250Y-90645309D01*
X176872752Y-91216187D01*
X177090757Y-91743800D01*
X177494077Y-92147824D01*
X178021309Y-92366750D01*
X178592187Y-92367248D01*
X179119800Y-92149243D01*
X179523824Y-91745923D01*
X179742750Y-91218691D01*
X179743248Y-90647813D01*
X179525243Y-90120200D01*
X179121923Y-89716176D01*
X179015181Y-89671853D01*
X179391049Y-89296642D01*
X179625231Y-88732669D01*
X179625763Y-88122008D01*
X179392566Y-87557628D01*
X179360993Y-87525999D01*
X181115058Y-87525999D01*
X181115058Y-89325999D01*
X181159336Y-89561316D01*
X181298408Y-89777440D01*
X181510608Y-89922430D01*
X181762498Y-89973439D01*
X183562498Y-89973439D01*
X183797815Y-89929161D01*
X184013939Y-89790089D01*
X184158929Y-89577889D01*
X184163065Y-89557465D01*
X184331855Y-89726550D01*
X184518676Y-89804125D01*
X184204176Y-90118077D01*
X183985250Y-90645309D01*
X183984752Y-91216187D01*
X184202757Y-91743800D01*
X184606077Y-92147824D01*
X185133309Y-92366750D01*
X185704187Y-92367248D01*
X186231800Y-92149243D01*
X186635824Y-91745923D01*
X186854750Y-91218691D01*
X186855248Y-90647813D01*
X186637243Y-90120200D01*
X186233923Y-89716176D01*
X186180000Y-89693785D01*
X186180000Y-89619127D01*
X186503049Y-89296642D01*
X186737231Y-88732669D01*
X186737763Y-88122008D01*
X186504566Y-87557628D01*
X186472993Y-87525999D01*
X188118182Y-87525999D01*
X188118182Y-89325999D01*
X188162460Y-89561316D01*
X188301532Y-89777440D01*
X188513732Y-89922430D01*
X188765622Y-89973439D01*
X190565622Y-89973439D01*
X190800939Y-89929161D01*
X191017063Y-89790089D01*
X191162053Y-89577889D01*
X191166189Y-89557465D01*
X191264000Y-89655447D01*
X191264000Y-89693354D01*
X191212200Y-89714757D01*
X190808176Y-90118077D01*
X190589250Y-90645309D01*
X190588752Y-91216187D01*
X190806757Y-91743800D01*
X191210077Y-92147824D01*
X191737309Y-92366750D01*
X192308187Y-92367248D01*
X192835800Y-92149243D01*
X193239824Y-91745923D01*
X193458750Y-91218691D01*
X193459248Y-90647813D01*
X193241243Y-90120200D01*
X192915264Y-89793652D01*
X193073993Y-89728067D01*
X193506173Y-89296642D01*
X193740355Y-88732669D01*
X193740887Y-88122008D01*
X193507690Y-87557628D01*
X193476117Y-87525999D01*
X195121306Y-87525999D01*
X195121306Y-89325999D01*
X195165584Y-89561316D01*
X195304656Y-89777440D01*
X195516856Y-89922430D01*
X195768746Y-89973439D01*
X197568746Y-89973439D01*
X197804063Y-89929161D01*
X198020187Y-89790089D01*
X198165177Y-89577889D01*
X198169313Y-89557465D01*
X198325708Y-89714134D01*
X198324200Y-89714757D01*
X197920176Y-90118077D01*
X197701250Y-90645309D01*
X197700752Y-91216187D01*
X197918757Y-91743800D01*
X198322077Y-92147824D01*
X198849309Y-92366750D01*
X199420187Y-92367248D01*
X199947800Y-92149243D01*
X200351824Y-91745923D01*
X200570750Y-91218691D01*
X200571248Y-90647813D01*
X200353243Y-90120200D01*
X199995470Y-89761803D01*
X200077117Y-89728067D01*
X200509297Y-89296642D01*
X200743479Y-88732669D01*
X200744011Y-88122008D01*
X200510814Y-87557628D01*
X200479241Y-87525999D01*
X202160560Y-87525999D01*
X202160560Y-89325999D01*
X202204838Y-89561316D01*
X202343910Y-89777440D01*
X202556110Y-89922430D01*
X202808000Y-89973439D01*
X204608000Y-89973439D01*
X204843317Y-89929161D01*
X205059441Y-89790089D01*
X205204431Y-89577889D01*
X205208567Y-89557465D01*
X205377357Y-89726550D01*
X205410571Y-89740342D01*
X205032176Y-90118077D01*
X204813250Y-90645309D01*
X204812752Y-91216187D01*
X205030757Y-91743800D01*
X205434077Y-92147824D01*
X205961309Y-92366750D01*
X206532187Y-92367248D01*
X207059800Y-92149243D01*
X207463824Y-91745923D01*
X207682750Y-91218691D01*
X207683248Y-90647813D01*
X207465243Y-90120200D01*
X207086227Y-89740522D01*
X207116371Y-89728067D01*
X207548551Y-89296642D01*
X207782733Y-88732669D01*
X207783265Y-88122008D01*
X207550068Y-87557628D01*
X207518495Y-87525999D01*
X209127554Y-87525999D01*
X209127554Y-89325999D01*
X209171832Y-89561316D01*
X209310904Y-89777440D01*
X209523104Y-89922430D01*
X209774994Y-89973439D01*
X211574994Y-89973439D01*
X211810311Y-89929161D01*
X212026435Y-89790089D01*
X212171425Y-89577889D01*
X212175561Y-89557465D01*
X212344351Y-89726550D01*
X212454994Y-89772493D01*
X212454994Y-89807801D01*
X212144176Y-90118077D01*
X211925250Y-90645309D01*
X211924752Y-91216187D01*
X212142757Y-91743800D01*
X212546077Y-92147824D01*
X213073309Y-92366750D01*
X213644187Y-92367248D01*
X214171800Y-92149243D01*
X214575824Y-91745923D01*
X214794750Y-91218691D01*
X214795248Y-90647813D01*
X214577243Y-90120200D01*
X214173923Y-89716176D01*
X214118380Y-89693113D01*
X214515545Y-89296642D01*
X214749727Y-88732669D01*
X214750259Y-88122008D01*
X214517062Y-87557628D01*
X214085637Y-87125448D01*
X213521664Y-86891266D01*
X212911003Y-86890734D01*
X212346623Y-87123931D01*
X212178381Y-87291879D01*
X212178156Y-87290682D01*
X212039084Y-87074558D01*
X211826884Y-86929568D01*
X211574994Y-86878559D01*
X209774994Y-86878559D01*
X209539677Y-86922837D01*
X209323553Y-87061909D01*
X209178563Y-87274109D01*
X209127554Y-87525999D01*
X207518495Y-87525999D01*
X207118643Y-87125448D01*
X206554670Y-86891266D01*
X205944009Y-86890734D01*
X205379629Y-87123931D01*
X205211387Y-87291879D01*
X205211162Y-87290682D01*
X205072090Y-87074558D01*
X204859890Y-86929568D01*
X204608000Y-86878559D01*
X202808000Y-86878559D01*
X202572683Y-86922837D01*
X202356559Y-87061909D01*
X202211569Y-87274109D01*
X202160560Y-87525999D01*
X200479241Y-87525999D01*
X200079389Y-87125448D01*
X199515416Y-86891266D01*
X198904755Y-86890734D01*
X198340375Y-87123931D01*
X198172133Y-87291879D01*
X198171908Y-87290682D01*
X198032836Y-87074558D01*
X197820636Y-86929568D01*
X197568746Y-86878559D01*
X195768746Y-86878559D01*
X195533429Y-86922837D01*
X195317305Y-87061909D01*
X195172315Y-87274109D01*
X195121306Y-87525999D01*
X193476117Y-87525999D01*
X193076265Y-87125448D01*
X192512292Y-86891266D01*
X191901631Y-86890734D01*
X191337251Y-87123931D01*
X191169009Y-87291879D01*
X191168784Y-87290682D01*
X191029712Y-87074558D01*
X190817512Y-86929568D01*
X190565622Y-86878559D01*
X188765622Y-86878559D01*
X188530305Y-86922837D01*
X188314181Y-87061909D01*
X188169191Y-87274109D01*
X188118182Y-87525999D01*
X186472993Y-87525999D01*
X186073141Y-87125448D01*
X185509168Y-86891266D01*
X184898507Y-86890734D01*
X184334127Y-87123931D01*
X184165885Y-87291879D01*
X184165660Y-87290682D01*
X184026588Y-87074558D01*
X183814388Y-86929568D01*
X183562498Y-86878559D01*
X181762498Y-86878559D01*
X181527181Y-86922837D01*
X181311057Y-87061909D01*
X181166067Y-87274109D01*
X181115058Y-87525999D01*
X179360993Y-87525999D01*
X178961141Y-87125448D01*
X178397168Y-86891266D01*
X177786507Y-86890734D01*
X177222127Y-87123931D01*
X177053885Y-87291879D01*
X177053660Y-87290682D01*
X176914588Y-87074558D01*
X176702388Y-86929568D01*
X176450498Y-86878559D01*
X174650498Y-86878559D01*
X174415181Y-86922837D01*
X174199057Y-87061909D01*
X174054067Y-87274109D01*
X174003058Y-87525999D01*
X172466745Y-87525999D01*
X172066893Y-87125448D01*
X171502920Y-86891266D01*
X170892259Y-86890734D01*
X170327879Y-87123931D01*
X170159637Y-87291879D01*
X170159412Y-87290682D01*
X170020340Y-87074558D01*
X169808140Y-86929568D01*
X169556250Y-86878559D01*
X167756250Y-86878559D01*
X167520933Y-86922837D01*
X167304809Y-87061909D01*
X167159819Y-87274109D01*
X167108810Y-87525999D01*
X165463621Y-87525999D01*
X165063769Y-87125448D01*
X164499796Y-86891266D01*
X163889135Y-86890734D01*
X163324755Y-87123931D01*
X163156513Y-87291879D01*
X163156288Y-87290682D01*
X163017216Y-87074558D01*
X162805016Y-86929568D01*
X162553126Y-86878559D01*
X160753126Y-86878559D01*
X160517809Y-86922837D01*
X160301685Y-87061909D01*
X160156695Y-87274109D01*
X160105686Y-87525999D01*
X158460497Y-87525999D01*
X158060645Y-87125448D01*
X157496672Y-86891266D01*
X156886011Y-86890734D01*
X156321631Y-87123931D01*
X156153389Y-87291879D01*
X156153164Y-87290682D01*
X156014092Y-87074558D01*
X155801892Y-86929568D01*
X155550002Y-86878559D01*
X153750002Y-86878559D01*
X153514685Y-86922837D01*
X153298561Y-87061909D01*
X153153571Y-87274109D01*
X153102562Y-87525999D01*
X146125000Y-87525999D01*
X146125000Y-83210462D01*
X146524422Y-83210462D01*
X147031076Y-84436658D01*
X147968407Y-85375627D01*
X149193717Y-85884420D01*
X150520462Y-85885578D01*
X151746658Y-85378924D01*
X152685627Y-84441593D01*
X153194420Y-83216283D01*
X153194425Y-83210462D01*
X291050422Y-83210462D01*
X291557076Y-84436658D01*
X292494407Y-85375627D01*
X293719717Y-85884420D01*
X295046462Y-85885578D01*
X296272658Y-85378924D01*
X297211627Y-84441593D01*
X297720420Y-83216283D01*
X297721578Y-81889538D01*
X297214924Y-80663342D01*
X296277593Y-79724373D01*
X295052283Y-79215580D01*
X293725538Y-79214422D01*
X292499342Y-79721076D01*
X291560373Y-80658407D01*
X291051580Y-81883717D01*
X291050422Y-83210462D01*
X153194425Y-83210462D01*
X153195578Y-81889538D01*
X152688924Y-80663342D01*
X151751593Y-79724373D01*
X150526283Y-79215580D01*
X149199538Y-79214422D01*
X147973342Y-79721076D01*
X147034373Y-80658407D01*
X146525580Y-81883717D01*
X146524422Y-83210462D01*
X146125000Y-83210462D01*
X146125000Y-78809931D01*
X146228815Y-78288016D01*
X146484844Y-77904843D01*
X146868015Y-77648815D01*
X147389931Y-77545000D01*
X296856069Y-77545000D01*
X297377984Y-77648815D01*
G36*
X224112990Y-113566303D02*
X224505630Y-113959629D01*
X224735020Y-114054880D01*
X224718771Y-114079200D01*
X224235698Y-113906856D01*
X223680632Y-113934638D01*
X223296857Y-114093603D01*
X223227392Y-114335787D01*
X224028000Y-115136395D01*
X224042143Y-115122253D01*
X224221748Y-115301858D01*
X224207605Y-115316000D01*
X224221748Y-115330143D01*
X224042143Y-115509748D01*
X224028000Y-115495605D01*
X224013858Y-115509748D01*
X223834253Y-115330143D01*
X223848395Y-115316000D01*
X223047787Y-114515392D01*
X222805603Y-114584857D01*
X222755491Y-114725318D01*
X222673010Y-114525697D01*
X222280370Y-114132371D01*
X221767100Y-113919243D01*
X221211339Y-113918758D01*
X220697697Y-114130990D01*
X220656709Y-114171907D01*
X220610274Y-114125472D01*
X221008303Y-113961010D01*
X221401629Y-113568370D01*
X221487949Y-113360488D01*
X221572990Y-113566303D01*
X221965630Y-113959629D01*
X222478900Y-114172757D01*
X223034661Y-114173242D01*
X223548303Y-113961010D01*
X223941629Y-113568370D01*
X224027949Y-113360488D01*
X224112990Y-113566303D01*
X224112990Y-113566303D01*
G37*
X224112990Y-113566303D02*
X224505630Y-113959629D01*
X224735020Y-114054880D01*
X224718771Y-114079200D01*
X224235698Y-113906856D01*
X223680632Y-113934638D01*
X223296857Y-114093603D01*
X223227392Y-114335787D01*
X224028000Y-115136395D01*
X224042143Y-115122253D01*
X224221748Y-115301858D01*
X224207605Y-115316000D01*
X224221748Y-115330143D01*
X224042143Y-115509748D01*
X224028000Y-115495605D01*
X224013858Y-115509748D01*
X223834253Y-115330143D01*
X223848395Y-115316000D01*
X223047787Y-114515392D01*
X222805603Y-114584857D01*
X222755491Y-114725318D01*
X222673010Y-114525697D01*
X222280370Y-114132371D01*
X221767100Y-113919243D01*
X221211339Y-113918758D01*
X220697697Y-114130990D01*
X220656709Y-114171907D01*
X220610274Y-114125472D01*
X221008303Y-113961010D01*
X221401629Y-113568370D01*
X221487949Y-113360488D01*
X221572990Y-113566303D01*
X221965630Y-113959629D01*
X222478900Y-114172757D01*
X223034661Y-114173242D01*
X223548303Y-113961010D01*
X223941629Y-113568370D01*
X224027949Y-113360488D01*
X224112990Y-113566303D01*
M02*
