G04 #@! TF.FileFunction,Soldermask,Bot*
%FSLAX46Y46*%
G04 Gerber Fmt 4.6, Leading zero omitted, Abs format (unit mm)*
G04 Created by KiCad (PCBNEW 4.0.6) date 05/11/17 10:01:50*
%MOMM*%
%LPD*%
G01*
G04 APERTURE LIST*
%ADD10C,0.100000*%
%ADD11C,1.924000*%
%ADD12R,2.200000X2.200000*%
%ADD13C,2.200000*%
%ADD14C,1.400000*%
%ADD15R,1.400000X1.400000*%
%ADD16C,5.800000*%
%ADD17C,2.000000*%
%ADD18O,2.000000X2.000000*%
G04 APERTURE END LIST*
D10*
D11*
X229108000Y-115316000D03*
X228122404Y-112624480D03*
X226568000Y-115316000D03*
X225298000Y-112776000D03*
X224028000Y-115316000D03*
X222758000Y-112776000D03*
X221488000Y-115316000D03*
X220218000Y-112776000D03*
X218948000Y-115316000D03*
X217678000Y-112776000D03*
X216408000Y-115316000D03*
X215138000Y-112776000D03*
X213338000Y-116796000D03*
X230908000Y-116796000D03*
D12*
X238687490Y-90965999D03*
D13*
X241227490Y-90965999D03*
D12*
X196668746Y-90965999D03*
D13*
X199208746Y-90965999D03*
D12*
X154650002Y-90965999D03*
D13*
X157190002Y-90965999D03*
D12*
X161653126Y-90965999D03*
D13*
X164193126Y-90965999D03*
D12*
X168656250Y-90965999D03*
D13*
X171196250Y-90965999D03*
D12*
X175550498Y-90965999D03*
D13*
X178090498Y-90965999D03*
D12*
X182662498Y-90965999D03*
D13*
X185202498Y-90965999D03*
D12*
X189665622Y-90965999D03*
D13*
X192205622Y-90965999D03*
D12*
X203708000Y-90965999D03*
D13*
X206248000Y-90965999D03*
D12*
X210674994Y-90965999D03*
D13*
X213214994Y-90965999D03*
D12*
X217678118Y-90965999D03*
D13*
X220218118Y-90965999D03*
D12*
X224681242Y-90965999D03*
D13*
X227221242Y-90965999D03*
D12*
X231684366Y-90965999D03*
D13*
X234224366Y-90965999D03*
D12*
X245690614Y-90965999D03*
D13*
X248230614Y-90965999D03*
D12*
X252693738Y-90965999D03*
D13*
X255233738Y-90965999D03*
D12*
X259696862Y-90965999D03*
D13*
X262236862Y-90965999D03*
D12*
X266700000Y-90965999D03*
D13*
X269240000Y-90965999D03*
D14*
X216296143Y-108585000D03*
X215026143Y-107315000D03*
D15*
X217566143Y-107315000D03*
D14*
X222504000Y-108585000D03*
X221234000Y-107315000D03*
D15*
X223774000Y-107315000D03*
D14*
X228711857Y-108585000D03*
X227441857Y-107315000D03*
D15*
X229981857Y-107315000D03*
D16*
X294386000Y-85090000D03*
X149860000Y-85090000D03*
X239268000Y-113030000D03*
X204978000Y-113030000D03*
D12*
X273812000Y-90965999D03*
D13*
X276352000Y-90965999D03*
D12*
X280924000Y-90965999D03*
D13*
X283464000Y-90965999D03*
D12*
X288036000Y-90965999D03*
D13*
X290576000Y-90965999D03*
D17*
X156972000Y-93472000D03*
D18*
X156972000Y-103632000D03*
D17*
X164084000Y-93472000D03*
D18*
X164084000Y-103632000D03*
D17*
X171196000Y-93472000D03*
D18*
X171196000Y-103632000D03*
D17*
X178308000Y-93472000D03*
D18*
X178308000Y-103632000D03*
D17*
X185420000Y-93472000D03*
D18*
X185420000Y-103632000D03*
D17*
X192024000Y-93472000D03*
D18*
X192024000Y-103632000D03*
D17*
X199136000Y-93472000D03*
D18*
X199136000Y-103632000D03*
D17*
X206248000Y-93472000D03*
D18*
X206248000Y-103632000D03*
D17*
X213360000Y-93472000D03*
D18*
X213360000Y-103632000D03*
D17*
X220472000Y-93472000D03*
D18*
X220472000Y-103632000D03*
D17*
X227076000Y-93472000D03*
D18*
X227076000Y-103632000D03*
D17*
X234188000Y-93472000D03*
D18*
X234188000Y-103632000D03*
D17*
X241300000Y-93472000D03*
D18*
X241300000Y-103632000D03*
D17*
X248412000Y-93472000D03*
D18*
X248412000Y-103632000D03*
D17*
X255016000Y-93472000D03*
D18*
X255016000Y-103632000D03*
D17*
X262128000Y-93472000D03*
D18*
X262128000Y-103632000D03*
D17*
X269240000Y-93472000D03*
D18*
X269240000Y-103632000D03*
D17*
X276352000Y-93472000D03*
D18*
X276352000Y-103632000D03*
D17*
X283464000Y-93472000D03*
D18*
X283464000Y-103632000D03*
D17*
X290576000Y-93472000D03*
D18*
X290576000Y-103632000D03*
M02*
