M48
;DRILL file {KiCad 4.0.6} date 05/10/17 10:15:53
;FORMAT={-:-/ absolute / inch / decimal}
FMAT,2
INCH,TZ
T1C0.013
T2C0.024
T3C0.026
T4C0.031
T5C0.035
T6C0.106
%
G90
G05
M72
T1
X6.62Y-3.92
X6.94Y-3.88
X7.28Y-3.84
X7.58Y-3.8
X7.88Y-3.76
X7.92Y-3.73
X7.96Y-3.64
X8.Y-3.96
X8.24Y-3.92
X8.48Y-3.88
X8.7Y-3.84
X8.94Y-3.8
X9.18Y-3.76
X9.42Y-3.72
T2
X8.4656Y-4.225
X8.5156Y-4.275
X8.5656Y-4.225
X8.71Y-4.225
X8.76Y-4.275
X8.81Y-4.225
X8.9544Y-4.225
X9.0044Y-4.275
X9.0544Y-4.225
T3
X8.82Y-4.65
T4
X6.18Y-3.58
X6.18Y-4.08
X6.46Y-3.58
X6.46Y-4.08
X6.74Y-3.58
X6.74Y-4.08
X7.02Y-3.58
X7.02Y-4.08
X7.3Y-3.58
X7.3Y-4.08
X7.56Y-3.58
X7.56Y-4.08
X7.84Y-3.58
X7.84Y-4.08
X8.12Y-3.58
X8.12Y-4.08
X8.4Y-3.58
X8.4Y-4.08
X8.47Y-4.44
X8.52Y-4.54
X8.57Y-4.44
X8.62Y-4.54
X8.67Y-4.44
X8.68Y-3.58
X8.68Y-4.08
X8.72Y-4.54
X8.77Y-4.44
X8.82Y-4.54
X8.87Y-4.44
X8.92Y-4.54
X8.94Y-3.58
X8.94Y-4.08
X8.9812Y-4.434
X9.02Y-4.54
X9.22Y-3.58
X9.22Y-4.08
X9.5Y-3.58
X9.5Y-4.08
X9.78Y-3.58
X9.78Y-4.08
X10.04Y-3.58
X10.04Y-4.08
X10.32Y-3.58
X10.32Y-4.08
X10.6Y-3.58
X10.6Y-4.08
X10.88Y-3.58
X10.88Y-4.08
X11.16Y-3.58
X11.16Y-4.08
X11.44Y-3.58
X11.44Y-4.08
T5
X6.0886Y-3.4813
X6.1886Y-3.4813
X6.3643Y-3.4813
X6.4643Y-3.4813
X6.64Y-3.4813
X6.74Y-3.4813
X6.9114Y-3.4813
X7.0114Y-3.4813
X7.1914Y-3.4813
X7.2914Y-3.4813
X7.4672Y-3.4813
X7.5672Y-3.4813
X7.7429Y-3.4813
X7.8429Y-3.4813
X8.02Y-3.4813
X8.12Y-3.4813
X8.2943Y-3.4813
X8.3943Y-3.4813
X8.57Y-3.4813
X8.67Y-3.4813
X8.8457Y-3.4813
X8.9457Y-3.4813
X9.1214Y-3.4813
X9.2214Y-3.4813
X9.3971Y-3.4813
X9.4971Y-3.4813
X9.6729Y-3.4813
X9.7729Y-3.4813
X9.9486Y-3.4813
X10.0486Y-3.4813
X10.2243Y-3.4813
X10.3243Y-3.4813
X10.5Y-3.4813
X10.6Y-3.4813
X10.78Y-3.4813
X10.88Y-3.4813
X11.06Y-3.4813
X11.16Y-3.4813
X11.34Y-3.4813
X11.44Y-3.4813
T6
X5.9Y-3.25
X8.07Y-4.45
X9.42Y-4.45
X11.59Y-3.25
T0
M30
