M48
;DRILL file {KiCad 4.0.6} date 05/17/17 18:18:29
;FORMAT={-:-/ absolute / inch / decimal}
FMAT,2
INCH,TZ
T1C0.013
T2C0.024
T3C0.031
T4C0.035
T5C0.106
%
G90
G05
M72
T1
X3.76Y-3.88
X4.08Y-3.84
X4.39Y-3.8
X4.72Y-3.76
X5.02Y-3.72
X5.21Y-3.61
X5.3378Y-3.6815
X5.6Y-3.88
X5.8872Y-3.8385
X6.14Y-3.8
X6.42Y-3.76
X6.43Y-4.46
X6.59Y-3.52
X6.7Y-3.72
X6.87Y-3.68
T2
X5.6656Y-4.125
X5.7156Y-4.175
X5.7656Y-4.125
X5.91Y-4.125
X5.96Y-4.175
X6.01Y-4.125
X6.1544Y-4.125
X6.2044Y-4.175
X6.2544Y-4.125
T3
X3.38Y-3.58
X3.38Y-3.98
X3.66Y-3.58
X3.66Y-3.98
X3.94Y-3.58
X3.94Y-3.98
X4.22Y-3.58
X4.22Y-3.98
X4.5Y-3.58
X4.5Y-3.98
X4.76Y-3.58
X4.76Y-3.98
X5.04Y-3.58
X5.04Y-3.98
X5.32Y-3.58
X5.32Y-3.98
X5.6Y-3.58
X5.6Y-3.98
X5.67Y-4.34
X5.72Y-4.44
X5.77Y-4.34
X5.82Y-4.44
X5.87Y-4.34
X5.88Y-3.58
X5.88Y-3.98
X5.92Y-4.44
X5.97Y-4.34
X6.02Y-4.44
X6.07Y-4.34
X6.12Y-4.44
X6.14Y-3.58
X6.14Y-3.98
X6.1812Y-4.334
X6.22Y-4.44
X6.42Y-3.58
X6.42Y-3.98
X6.7Y-3.58
X6.7Y-3.98
X6.98Y-3.58
X6.98Y-3.98
X7.24Y-3.58
X7.24Y-3.98
X7.52Y-3.58
X7.52Y-3.98
X7.8Y-3.58
X7.8Y-3.98
X8.08Y-3.58
X8.08Y-3.98
X8.36Y-3.58
X8.36Y-3.98
X8.64Y-3.58
X8.64Y-3.98
T4
X3.2886Y-3.4313
X3.3886Y-3.4313
X3.5643Y-3.4313
X3.6643Y-3.4313
X3.84Y-3.4313
X3.94Y-3.4313
X4.1114Y-3.4313
X4.2114Y-3.4313
X4.3914Y-3.4313
X4.4914Y-3.4313
X4.6672Y-3.4313
X4.7672Y-3.4313
X4.9429Y-3.4313
X5.0429Y-3.4313
X5.22Y-3.4313
X5.32Y-3.4313
X5.4943Y-3.4313
X5.5943Y-3.4313
X5.77Y-3.4313
X5.87Y-3.4313
X6.0457Y-3.4313
X6.1457Y-3.4313
X6.3214Y-3.4313
X6.4214Y-3.4313
X6.5971Y-3.4313
X6.6971Y-3.4313
X6.8729Y-3.4313
X6.9729Y-3.4313
X7.1486Y-3.4313
X7.2486Y-3.4313
X7.4243Y-3.4313
X7.5243Y-3.4313
X7.7Y-3.4313
X7.8Y-3.4313
X7.98Y-3.4313
X8.08Y-3.4313
X8.26Y-3.4313
X8.36Y-3.4313
X8.54Y-3.4313
X8.64Y-3.4313
T5
X3.1Y-3.25
X5.3Y-4.45
X6.6Y-4.45
X8.8Y-3.25
T0
M30
