M48
;DRILL file {KiCad 4.0.6} date 03/09/17 13:47:04
;FORMAT={-:-/ absolute / inch / decimal}
FMAT,2
INCH,TZ
T1C0.013
T2C0.024
T3C0.030
T4C0.031
T5C0.035
T6C0.039
%
G90
G05
M72
T1
X3.325Y-5.15
X3.325Y-7.075
X3.6Y-3.1
X3.625Y-7.125
X3.9Y-3.15
X4.05Y-7.275
X4.075Y-4.675
X4.25Y-3.275
X4.3Y-7.325
X4.35Y-4.65
X4.4Y-3.3
X4.475Y-4.625
X4.5Y-7.375
X4.55Y-3.325
X4.55Y-4.6
X4.65Y-7.425
X4.72Y-4.7
X4.9Y-7.025
X4.925Y-4.8
X4.925Y-8.05
X4.95Y-8.3
X5.05Y-2.9
X5.05Y-4.85
X5.08Y-7.08
X5.2Y-3.
X5.26Y-4.96
X5.275Y-4.875
X5.28Y-7.12
X5.3Y-3.05
X5.35Y-4.9
X5.35Y-7.11
X5.5Y-3.2
X5.5959Y-7.325
X5.6Y-3.1
X5.62Y-3.18
X5.645Y-7.375
X5.65Y-7.42
X5.675Y-3.275
X5.675Y-4.975
X5.7Y-3.325
X5.75Y-3.05
X5.82Y-4.44
X5.85Y-3.1
X5.9Y-3.15
X5.9Y-4.95
X6.1Y-4.84
X6.15Y-4.957
X6.25Y-3.75
X6.325Y-7.025
X6.325Y-7.075
X6.34Y-5.18
X6.375Y-3.65
X6.5Y-4.54
X6.5Y-4.975
X7.Y-4.34
X7.98Y-5.22
X8.Y-3.84
X8.Y-4.55
X8.08Y-4.7
X8.1Y-4.275
X8.1Y-4.38
X8.14Y-4.1225
X8.2Y-3.575
X8.55Y-3.7
X8.55Y-7.05
X8.56Y-5.1
X8.72Y-3.84
X8.8Y-5.15
X8.84Y-3.26
X9.02Y-7.3
X9.025Y-5.2
X9.1Y-3.3
X9.2Y-7.35
X9.275Y-5.25
X9.35Y-7.4
X9.375Y-3.325
X9.6Y-7.45
X9.625Y-5.3
X9.675Y-3.35
X9.76Y-7.
X9.76Y-7.05
X9.78Y-5.34
X9.8Y-7.5
X9.825Y-3.375
X9.86Y-6.94
X9.9Y-3.44
X9.98Y-3.4
X10.04Y-8.3
X10.05Y-4.275
X10.075Y-4.45
X10.075Y-4.55
X10.12Y-7.
X10.16Y-7.04
X10.275Y-3.2
X10.35Y-4.95
X10.475Y-3.2775
X10.6Y-5.0095
X10.62Y-3.2975
X10.825Y-3.65
X10.88Y-3.32
X11.08Y-3.34
X11.325Y-4.65
X11.36Y-4.16
X11.42Y-3.58
X11.44Y-7.5
X11.46Y-3.96
X11.46Y-7.04
X11.48Y-7.
X11.48Y-7.38
X11.48Y-7.64
X11.5Y-4.2
X11.54Y-4.54
X11.6Y-4.24
X11.6Y-6.06
X11.6Y-6.9
X11.7Y-4.625
X11.8Y-3.94
X11.86Y-7.28
X12.12Y-7.28
X12.3Y-4.58
X12.5Y-4.15
X12.78Y-4.26
X12.8Y-3.6
X12.96Y-4.68
X12.98Y-4.82
X13.16Y-4.72
X13.24Y-3.84
X13.38Y-3.6
X13.54Y-3.48
T2
X2.85Y-4.85
X2.85Y-7.2
X2.9Y-4.85
X2.9Y-7.2
X2.95Y-3.1
X2.95Y-3.15
X2.95Y-3.2
X2.95Y-4.85
X2.95Y-7.2
X4.6004Y-4.85
X4.6004Y-7.2
X4.6504Y-4.85
X4.6504Y-7.2
X4.6887Y-3.1
X4.6887Y-3.15
X4.6887Y-3.2
X4.7004Y-4.85
X4.7004Y-7.2
X6.3391Y-4.85
X6.3391Y-7.2
X6.3891Y-4.85
X6.3891Y-7.2
X6.4275Y-3.1
X6.4275Y-3.15
X6.4275Y-3.2
X6.4391Y-4.85
X6.4391Y-7.2
X8.Y-4.85
X8.Y-7.17
X8.05Y-4.85
X8.05Y-7.17
X8.1Y-4.85
X8.1Y-7.17
X8.1662Y-3.1
X8.1662Y-3.15
X8.1662Y-3.2
X9.8166Y-4.85
X9.8166Y-7.17
X9.8666Y-4.85
X9.8666Y-7.17
X9.9049Y-3.1
X9.9049Y-3.15
X9.9049Y-3.2
X9.9166Y-4.85
X9.9166Y-7.17
X11.5553Y-4.85
X11.5553Y-7.17
X11.6053Y-4.85
X11.6053Y-7.17
X11.6437Y-3.1
X11.6437Y-3.15
X11.6437Y-3.2
X11.6553Y-4.85
X11.6553Y-7.17
T3
X10.76Y-8.475
X10.86Y-8.475
X10.96Y-8.475
X11.06Y-8.475
X11.16Y-8.475
X11.26Y-8.475
X11.36Y-8.475
X11.46Y-8.475
X11.59Y-7.9922
X11.59Y-8.13
X13.58Y-5.64
X13.68Y-5.64
X13.78Y-5.64
X13.88Y-5.64
X13.98Y-5.64
X14.08Y-5.64
X14.18Y-5.64
X14.28Y-5.64
T4
X2.95Y-2.45
X2.95Y-2.95
X2.95Y-6.45
X2.95Y-6.95
X2.975Y-5.05
X2.975Y-5.55
X3.2Y-2.45
X3.2Y-2.95
X3.2Y-5.05
X3.2Y-5.55
X3.2Y-6.45
X3.2Y-6.95
X3.45Y-2.45
X3.45Y-2.95
X3.45Y-5.05
X3.45Y-5.55
X3.45Y-6.45
X3.45Y-6.95
X3.7Y-2.45
X3.7Y-2.95
X3.7Y-5.05
X3.7Y-5.55
X3.7Y-6.45
X3.7Y-6.95
X3.95Y-2.45
X3.95Y-2.95
X3.95Y-5.05
X3.95Y-5.55
X3.95Y-6.45
X3.95Y-6.95
X4.2Y-2.45
X4.2Y-2.95
X4.2Y-5.05
X4.2Y-5.55
X4.2Y-6.45
X4.2Y-6.95
X4.45Y-2.45
X4.45Y-2.95
X4.45Y-5.05
X4.45Y-5.55
X4.45Y-6.45
X4.45Y-6.95
X4.75Y-2.45
X4.75Y-2.95
X4.75Y-5.05
X4.75Y-5.55
X4.75Y-6.45
X4.75Y-6.95
X5.Y-2.45
X5.Y-2.95
X5.Y-5.05
X5.Y-5.55
X5.Y-6.45
X5.Y-6.95
X5.25Y-2.45
X5.25Y-2.95
X5.25Y-5.05
X5.25Y-5.55
X5.25Y-6.45
X5.25Y-6.95
X5.4Y-7.55
X5.4Y-7.65
X5.4Y-7.75
X5.4Y-7.85
X5.4Y-7.95
X5.4Y-8.05
X5.4Y-8.15
X5.4Y-8.25
X5.4Y-8.35
X5.4Y-8.45
X5.4Y-8.55
X5.4Y-8.65
X5.4Y-8.75
X5.4Y-8.85
X5.45Y-3.45
X5.45Y-3.55
X5.45Y-3.65
X5.45Y-3.75
X5.45Y-3.85
X5.45Y-3.95
X5.45Y-4.05
X5.45Y-4.15
X5.45Y-4.25
X5.45Y-4.35
X5.45Y-4.45
X5.45Y-4.55
X5.45Y-4.65
X5.45Y-4.75
X5.5Y-2.45
X5.5Y-2.95
X5.5Y-5.05
X5.5Y-5.55
X5.5Y-6.45
X5.5Y-6.95
X5.7Y-7.55
X5.7Y-7.65
X5.7Y-7.75
X5.7Y-7.85
X5.7Y-7.95
X5.7Y-8.05
X5.7Y-8.15
X5.7Y-8.25
X5.7Y-8.35
X5.7Y-8.45
X5.7Y-8.55
X5.7Y-8.65
X5.7Y-8.75
X5.7Y-8.85
X5.75Y-2.45
X5.75Y-2.95
X5.75Y-3.45
X5.75Y-3.55
X5.75Y-3.65
X5.75Y-3.75
X5.75Y-3.85
X5.75Y-3.95
X5.75Y-4.05
X5.75Y-4.15
X5.75Y-4.25
X5.75Y-4.35
X5.75Y-4.45
X5.75Y-4.55
X5.75Y-4.65
X5.75Y-4.75
X5.75Y-5.05
X5.75Y-5.55
X5.75Y-6.45
X5.75Y-6.95
X5.9965Y-5.0535
X5.9965Y-5.5535
X6.Y-2.45
X6.Y-2.95
X6.Y-6.45
X6.Y-6.95
X6.2465Y-5.0535
X6.2465Y-5.5535
X6.25Y-2.45
X6.25Y-2.95
X6.25Y-6.45
X6.25Y-6.95
X6.5465Y-5.0535
X6.5465Y-5.5535
X6.55Y-2.45
X6.55Y-2.95
X6.55Y-6.45
X6.55Y-6.95
X6.7965Y-5.0535
X6.7965Y-5.5535
X6.8Y-2.45
X6.8Y-2.95
X6.8Y-6.45
X6.8Y-6.95
X7.0465Y-5.0535
X7.0465Y-5.5535
X7.05Y-2.45
X7.05Y-2.95
X7.05Y-6.45
X7.05Y-6.95
X7.35Y-2.45
X7.35Y-2.95
X7.35Y-5.05
X7.35Y-5.55
X7.35Y-6.45
X7.35Y-6.95
X7.6Y-2.45
X7.6Y-2.95
X7.6Y-5.05
X7.6Y-5.55
X7.6Y-6.45
X7.6Y-6.95
X7.85Y-2.45
X7.85Y-2.95
X7.85Y-5.05
X7.85Y-5.55
X7.85Y-6.45
X7.85Y-6.95
X8.2Y-2.45
X8.2Y-2.95
X8.2Y-5.05
X8.2Y-5.55
X8.2Y-6.45
X8.2Y-6.95
X8.45Y-2.45
X8.45Y-2.95
X8.45Y-5.05
X8.45Y-5.55
X8.45Y-6.45
X8.45Y-6.95
X8.7Y-2.45
X8.7Y-2.95
X8.7Y-5.05
X8.7Y-5.55
X8.7Y-6.45
X8.7Y-6.95
X8.95Y-2.45
X8.95Y-2.95
X8.95Y-5.05
X8.95Y-5.55
X8.95Y-6.45
X8.95Y-6.95
X9.2Y-2.45
X9.2Y-2.95
X9.2Y-5.05
X9.2Y-5.55
X9.2Y-6.45
X9.2Y-6.95
X9.45Y-2.45
X9.45Y-2.95
X9.45Y-5.05
X9.45Y-5.55
X9.45Y-6.45
X9.45Y-6.95
X9.7Y-2.45
X9.7Y-2.95
X9.7Y-5.05
X9.7Y-5.55
X9.7Y-6.45
X9.7Y-6.95
X10.Y-2.45
X10.Y-2.95
X10.Y-5.05
X10.Y-5.55
X10.Y-6.45
X10.Y-6.95
X10.25Y-2.45
X10.25Y-2.95
X10.25Y-5.05
X10.25Y-5.55
X10.25Y-6.45
X10.25Y-6.95
X10.35Y-3.45
X10.35Y-3.55
X10.35Y-3.65
X10.35Y-3.75
X10.35Y-3.85
X10.35Y-3.95
X10.35Y-4.05
X10.35Y-4.15
X10.35Y-4.25
X10.35Y-4.35
X10.35Y-4.45
X10.35Y-4.55
X10.35Y-4.65
X10.35Y-4.75
X10.5Y-2.45
X10.5Y-2.95
X10.5Y-5.05
X10.5Y-5.55
X10.5Y-6.45
X10.5Y-6.95
X10.65Y-3.45
X10.65Y-3.55
X10.65Y-3.65
X10.65Y-3.75
X10.65Y-3.85
X10.65Y-3.95
X10.65Y-4.05
X10.65Y-4.15
X10.65Y-4.25
X10.65Y-4.35
X10.65Y-4.45
X10.65Y-4.55
X10.65Y-4.65
X10.65Y-4.75
X10.75Y-2.45
X10.75Y-2.95
X10.75Y-5.05
X10.75Y-5.55
X10.75Y-6.45
X10.75Y-6.95
X11.Y-2.45
X11.Y-2.95
X11.Y-5.05
X11.Y-5.55
X11.Y-6.45
X11.Y-6.95
X11.25Y-2.45
X11.25Y-2.95
X11.25Y-5.05
X11.25Y-5.55
X11.25Y-6.45
X11.25Y-6.95
X11.5Y-2.45
X11.5Y-2.95
X11.5Y-5.05
X11.5Y-5.55
X11.5Y-6.45
X11.5Y-6.95
X11.675Y-8.925
X11.8Y-2.45
X11.8Y-2.95
X11.8Y-5.05
X11.8Y-5.55
X11.8Y-6.45
X11.8Y-6.95
X12.05Y-2.45
X12.05Y-2.95
X12.05Y-5.05
X12.05Y-5.55
X12.05Y-6.45
X12.05Y-6.95
X12.175Y-8.925
X12.3Y-2.45
X12.3Y-2.95
X12.3Y-5.05
X12.3Y-5.55
X12.3Y-6.45
X12.3Y-6.95
X12.6Y-2.45
X12.6Y-2.95
X12.6Y-5.05
X12.6Y-5.55
X12.6Y-6.45
X12.6Y-6.95
X12.85Y-2.45
X12.85Y-2.95
X12.85Y-5.05
X12.85Y-5.55
X12.85Y-6.45
X12.85Y-6.95
X12.96Y-3.44
X12.96Y-3.68
X13.1Y-2.45
X13.1Y-2.95
X13.1Y-5.05
X13.1Y-5.55
X13.1Y-6.45
X13.1Y-6.95
X13.46Y-3.44
X13.46Y-3.68
X13.6Y-4.3535
X13.6Y-4.5457
X13.68Y-3.3031
X13.68Y-3.5
X13.8678Y-3.65
X13.8678Y-3.75
X13.8678Y-3.85
X13.8678Y-3.95
X13.8678Y-4.05
X13.8678Y-4.15
X13.8678Y-4.25
X13.8678Y-4.35
X13.8678Y-4.45
X13.8678Y-4.55
X13.8678Y-4.65
X13.8678Y-4.75
X13.8678Y-4.85
X13.8678Y-4.95
X14.1678Y-3.65
X14.1678Y-3.75
X14.1678Y-3.85
X14.1678Y-3.95
X14.1678Y-4.05
X14.1678Y-4.15
X14.1678Y-4.25
X14.1678Y-4.35
X14.1678Y-4.45
X14.1678Y-4.55
X14.1678Y-4.65
X14.1678Y-4.75
X14.1678Y-4.85
X14.1678Y-4.95
T5
X2.85Y-2.2
X2.85Y-5.8
X2.85Y-6.2
X2.95Y-2.2
X2.95Y-5.8
X2.95Y-6.2
X3.1Y-2.2
X3.1Y-5.8
X3.1Y-6.2
X3.2Y-2.2
X3.2Y-5.8
X3.2Y-6.2
X3.35Y-2.2
X3.35Y-5.8
X3.35Y-6.2
X3.45Y-2.2
X3.45Y-5.8
X3.45Y-6.2
X3.6Y-2.2
X3.6Y-5.8
X3.6Y-6.2
X3.7Y-2.2
X3.7Y-5.8
X3.7Y-6.2
X3.85Y-2.2
X3.85Y-5.8
X3.85Y-6.2
X3.95Y-2.2
X3.95Y-5.8
X3.95Y-6.2
X4.1Y-2.2
X4.1Y-5.8
X4.1Y-6.2
X4.2Y-2.2
X4.2Y-5.8
X4.2Y-6.2
X4.35Y-2.2
X4.35Y-5.8
X4.35Y-6.2
X4.45Y-2.2
X4.45Y-5.8
X4.45Y-6.2
X4.65Y-2.2
X4.65Y-5.8
X4.65Y-6.2
X4.75Y-2.2
X4.75Y-5.8
X4.75Y-6.2
X4.9Y-2.2
X4.9Y-5.8
X4.9Y-6.2
X5.Y-2.2
X5.Y-5.8
X5.Y-6.2
X5.15Y-2.2
X5.15Y-5.8
X5.15Y-6.2
X5.25Y-2.2
X5.25Y-5.8
X5.25Y-6.2
X5.4Y-2.2
X5.4Y-5.8
X5.4Y-6.2
X5.5Y-2.2
X5.5Y-5.8
X5.5Y-6.2
X5.65Y-2.2
X5.65Y-5.8
X5.65Y-6.2
X5.75Y-2.2
X5.75Y-5.8
X5.75Y-6.2
X5.9Y-2.2
X5.9Y-5.8
X5.9Y-6.2
X6.Y-2.2
X6.Y-5.8
X6.Y-6.2
X6.15Y-2.2
X6.15Y-5.8
X6.15Y-6.2
X6.25Y-2.2
X6.25Y-5.8
X6.25Y-6.2
X6.45Y-2.2
X6.45Y-5.8
X6.45Y-6.2
X6.55Y-2.2
X6.55Y-5.8
X6.55Y-6.2
X6.7Y-2.2
X6.7Y-5.8
X6.7Y-6.2
X6.8Y-2.2
X6.8Y-5.8
X6.8Y-6.2
X6.95Y-2.2
X6.95Y-5.8
X6.95Y-6.2
X7.05Y-2.2
X7.05Y-5.8
X7.05Y-6.2
X7.25Y-2.2
X7.25Y-5.8
X7.25Y-6.2
X7.35Y-2.2
X7.35Y-5.8
X7.35Y-6.2
X7.5Y-2.2
X7.5Y-5.8
X7.5Y-6.2
X7.6Y-2.2
X7.6Y-5.8
X7.6Y-6.2
X7.75Y-2.2
X7.75Y-5.8
X7.75Y-6.2
X7.85Y-2.2
X7.85Y-5.8
X7.85Y-6.2
X8.1Y-2.2
X8.1Y-5.8
X8.1Y-6.2
X8.2Y-2.2
X8.2Y-5.8
X8.2Y-6.2
X8.35Y-2.2
X8.35Y-5.8
X8.35Y-6.2
X8.45Y-2.2
X8.45Y-5.8
X8.45Y-6.2
X8.6Y-2.2
X8.6Y-5.8
X8.6Y-6.2
X8.7Y-2.2
X8.7Y-5.8
X8.7Y-6.2
X8.85Y-2.2
X8.85Y-5.8
X8.85Y-6.2
X8.95Y-2.2
X8.95Y-5.8
X8.95Y-6.2
X9.1Y-2.2
X9.1Y-5.8
X9.1Y-6.2
X9.2Y-2.2
X9.2Y-5.8
X9.2Y-6.2
X9.35Y-2.2
X9.35Y-5.8
X9.35Y-6.2
X9.45Y-2.2
X9.45Y-5.8
X9.45Y-6.2
X9.6Y-2.2
X9.6Y-5.8
X9.6Y-6.2
X9.7Y-2.2
X9.7Y-5.8
X9.7Y-6.2
X9.9Y-2.2
X9.9Y-5.8
X9.9Y-6.2
X10.Y-2.2
X10.Y-5.8
X10.Y-6.2
X10.15Y-2.2
X10.15Y-5.8
X10.15Y-6.2
X10.25Y-2.2
X10.25Y-5.8
X10.25Y-6.2
X10.4Y-2.2
X10.4Y-5.8
X10.4Y-6.2
X10.5Y-2.2
X10.5Y-5.8
X10.5Y-6.2
X10.65Y-2.2
X10.65Y-5.8
X10.65Y-6.2
X10.75Y-2.2
X10.75Y-5.8
X10.75Y-6.2
X10.9Y-2.2
X10.9Y-5.8
X10.9Y-6.2
X11.Y-2.2
X11.Y-5.8
X11.Y-6.2
X11.15Y-2.2
X11.15Y-5.8
X11.15Y-6.2
X11.25Y-2.2
X11.25Y-5.8
X11.25Y-6.2
X11.4Y-2.2
X11.4Y-5.8
X11.4Y-6.2
X11.5Y-2.2
X11.5Y-5.8
X11.5Y-6.2
X11.7Y-2.2
X11.7Y-5.8
X11.7Y-6.2
X11.8Y-2.2
X11.8Y-5.8
X11.8Y-6.2
X11.95Y-2.2
X11.95Y-5.8
X11.95Y-6.2
X12.05Y-2.2
X12.05Y-5.8
X12.05Y-6.2
X12.2Y-2.2
X12.2Y-5.8
X12.2Y-6.2
X12.3Y-2.2
X12.3Y-5.8
X12.3Y-6.2
X12.5Y-2.2
X12.5Y-5.8
X12.5Y-6.2
X12.6Y-2.2
X12.6Y-5.8
X12.6Y-6.2
X12.75Y-2.2
X12.75Y-5.8
X12.75Y-6.2
X12.85Y-2.2
X12.85Y-5.8
X12.85Y-6.2
X13.Y-2.2
X13.Y-5.8
X13.Y-6.2
X13.1Y-2.2
X13.1Y-5.8
X13.1Y-6.2
X13.3Y-4.1781
X13.3Y-4.375
X13.3Y-4.525
X13.3Y-4.7219
T6
X10.76Y-9.02
X10.86Y-9.02
X10.96Y-9.02
X11.06Y-9.02
X11.16Y-9.02
X12.56Y-3.5
X12.56Y-3.6
X12.56Y-3.7
X12.56Y-3.8
X12.56Y-3.9
X12.56Y-4.
X12.56Y-4.1
X12.56Y-4.2
X12.56Y-4.3
X12.56Y-4.4
X12.56Y-4.5
X12.56Y-4.6
X12.66Y-3.5
X12.66Y-3.6
X12.66Y-3.7
X12.66Y-3.8
X12.66Y-3.9
X12.66Y-4.
X12.66Y-4.1
X12.66Y-4.2
X12.66Y-4.3
X12.66Y-4.4
X12.66Y-4.5
X12.66Y-4.6
X12.92Y-8.56
X12.92Y-8.66
X12.92Y-8.76
X12.92Y-8.86
X12.92Y-8.96
X13.68Y-3.1
X13.78Y-3.1
X13.88Y-3.1
X13.98Y-3.1
X14.08Y-3.1
X14.18Y-3.1
T0
M30
