M48
;DRILL file {KiCad 4.0.6} date 05/08/17 22:06:15
;FORMAT={-:-/ absolute / inch / decimal}
FMAT,2
INCH,TZ
T1C0.013
T2C0.030
T3C0.031
T4C0.039
T5C0.169
%
G90
G05
M72
T1
X3.36Y-3.15
X3.39Y-4.5525
X3.4Y-3.12
X3.45Y-3.0975
X3.52Y-4.5725
X3.75Y-5.96
X3.79Y-5.56
X3.83Y-5.93
X3.96Y-5.32
X4.11Y-5.36
X4.16Y-5.64
X4.22Y-5.62
X4.33Y-4.11
X4.43Y-4.19
X4.43Y-4.25
X4.57Y-5.13
X4.62Y-5.01
X4.64Y-5.58
X4.68Y-3.83
X5.09Y-4.5
X5.1Y-3.145
X5.16Y-5.6975
X5.19Y-5.65
X5.2Y-3.1225
X5.23Y-4.5375
X5.24Y-3.0975
X5.32Y-4.87
X5.36Y-4.57
X5.36Y-4.84
X5.4Y-4.8
X5.42Y-4.77
X5.62Y-4.88
X5.64Y-4.5925
X5.7059Y-5.0041
X5.73Y-4.6
X5.75Y-3.86
X5.78Y-4.44
X5.79Y-5.71
X5.8Y-5.93
X5.83Y-5.65
X5.85Y-4.51
X5.8605Y-4.5525
X5.87Y-4.17
X5.87Y-5.96
X6.Y-3.92
X6.02Y-5.92
X6.12Y-4.4375
X6.38Y-3.92
X6.44Y-4.37
X6.48Y-4.3
X6.51Y-4.08
X6.56Y-4.01
X6.66Y-4.05
X6.6641Y-4.3659
X6.67Y-4.15
X6.99Y-3.96
X7.04Y-4.9
X7.08Y-4.98
X7.12Y-3.92
X7.16Y-5.11
X7.18Y-5.18
X7.18Y-5.23
X7.42Y-4.54
X7.47Y-4.46
X7.56Y-4.33
X7.66Y-3.92
T2
X5.12Y-4.71
X5.22Y-4.71
X5.32Y-4.71
X5.42Y-4.71
X5.52Y-4.71
X5.62Y-4.71
X5.72Y-4.71
X5.82Y-4.71
X7.21Y-5.45
X7.31Y-5.45
X7.41Y-5.45
X7.51Y-5.45
X7.61Y-5.45
X7.71Y-5.45
X7.81Y-5.45
X7.91Y-5.45
X8.04Y-4.9672
X8.04Y-5.105
T3
X3.14Y-5.42
X3.14Y-5.72
X3.1512Y-3.304
X3.19Y-3.41
X3.19Y-3.71
X3.19Y-4.01
X3.19Y-4.32
X3.24Y-4.42
X3.24Y-5.42
X3.24Y-5.72
X3.2512Y-3.304
X3.29Y-3.71
X3.29Y-4.01
X3.29Y-4.32
X3.3012Y-3.404
X3.34Y-4.42
X3.34Y-5.42
X3.34Y-5.72
X3.3512Y-3.304
X3.39Y-3.71
X3.39Y-4.01
X3.39Y-4.32
X3.4012Y-3.404
X3.44Y-4.42
X3.44Y-5.42
X3.44Y-5.72
X3.4512Y-3.304
X3.49Y-3.71
X3.49Y-4.01
X3.49Y-4.32
X3.4979Y-5.23
X3.5Y-4.82
X3.5Y-5.0169
X3.5012Y-3.404
X3.54Y-4.42
X3.54Y-5.42
X3.54Y-5.72
X3.5512Y-3.304
X3.59Y-3.71
X3.59Y-4.01
X3.59Y-4.32
X3.6012Y-3.404
X3.64Y-4.42
X3.64Y-5.42
X3.64Y-5.72
X3.6512Y-3.304
X3.69Y-3.71
X3.69Y-4.01
X3.69Y-5.23
X3.7Y-4.82
X3.7Y-5.0169
X3.7012Y-3.404
X3.7012Y-4.314
X3.74Y-4.42
X3.74Y-5.42
X3.74Y-5.72
X3.79Y-3.71
X3.79Y-4.01
X3.84Y-5.42
X3.84Y-5.72
X3.89Y-3.71
X3.89Y-4.01
X3.94Y-5.42
X3.94Y-5.72
X3.99Y-3.71
X3.99Y-4.01
X4.04Y-4.44
X4.04Y-4.94
X4.04Y-5.42
X4.04Y-5.72
X4.09Y-3.71
X4.09Y-4.01
X4.14Y-5.42
X4.14Y-5.72
X4.19Y-3.71
X4.19Y-4.01
X4.24Y-5.42
X4.24Y-5.72
X4.28Y-4.44
X4.28Y-4.94
X4.29Y-3.71
X4.29Y-4.01
X4.34Y-5.42
X4.34Y-5.72
X4.39Y-3.71
X4.39Y-4.01
X4.44Y-5.42
X4.44Y-5.72
X4.49Y-3.71
X4.49Y-4.01
X4.51Y-4.44
X4.51Y-4.94
X4.77Y-5.36
X4.77Y-5.5569
X4.9512Y-3.304
X4.9688Y-4.326
X4.98Y-3.71
X4.98Y-4.01
X4.99Y-3.41
X5.0188Y-4.426
X5.0512Y-3.304
X5.0688Y-4.326
X5.08Y-3.71
X5.08Y-4.01
X5.1012Y-3.404
X5.1188Y-4.426
X5.1512Y-3.304
X5.1688Y-4.326
X5.18Y-3.71
X5.18Y-4.01
X5.2012Y-3.404
X5.2188Y-4.426
X5.2512Y-3.304
X5.2688Y-4.326
X5.28Y-3.71
X5.28Y-4.01
X5.3012Y-3.404
X5.3188Y-4.426
X5.3512Y-3.304
X5.3688Y-4.326
X5.38Y-3.71
X5.38Y-4.01
X5.4012Y-3.404
X5.4188Y-4.426
X5.4512Y-3.304
X5.48Y-3.71
X5.48Y-4.01
X5.48Y-4.32
X5.5012Y-3.404
X5.5188Y-4.426
X5.58Y-3.71
X5.58Y-4.01
X5.68Y-3.71
X5.68Y-4.01
X5.78Y-3.71
X5.78Y-4.01
X5.88Y-3.71
X5.88Y-4.01
X5.98Y-3.71
X5.98Y-4.01
X6.08Y-3.71
X6.08Y-4.01
X6.18Y-3.71
X6.18Y-4.01
X6.28Y-3.71
X6.28Y-4.01
X6.6188Y-4.326
X6.6688Y-4.426
X6.6712Y-3.304
X6.71Y-3.41
X6.7188Y-4.326
X6.72Y-3.71
X6.72Y-4.01
X6.7688Y-4.426
X6.7712Y-3.304
X6.8188Y-4.326
X6.82Y-3.71
X6.82Y-4.01
X6.8212Y-3.404
X6.8688Y-4.426
X6.8712Y-3.304
X6.9188Y-4.326
X6.92Y-3.71
X6.92Y-4.01
X6.9212Y-3.404
X6.9688Y-4.426
X6.9712Y-3.304
X7.0188Y-4.326
X7.02Y-3.71
X7.02Y-4.01
X7.0212Y-3.404
X7.0688Y-4.426
X7.0712Y-3.304
X7.12Y-3.71
X7.12Y-4.01
X7.1212Y-3.404
X7.13Y-4.32
X7.1688Y-4.426
X7.1712Y-3.304
X7.22Y-3.71
X7.22Y-4.01
X7.2212Y-3.404
X7.32Y-3.71
X7.32Y-4.01
X7.42Y-3.71
X7.42Y-4.01
X7.52Y-3.71
X7.52Y-4.01
X7.62Y-3.71
X7.62Y-4.01
X7.72Y-3.71
X7.72Y-4.01
X7.82Y-3.71
X7.82Y-4.01
X7.92Y-3.71
X7.92Y-4.01
X8.02Y-3.71
X8.02Y-4.01
T4
X5.23Y-4.98
X5.23Y-5.08
X5.23Y-5.18
X5.23Y-5.28
X5.23Y-5.38
X5.23Y-5.48
X5.94Y-4.35
X6.04Y-4.35
X6.12Y-4.61
X6.12Y-4.71
X6.12Y-4.81
X6.12Y-4.91
X6.12Y-5.01
X6.12Y-5.11
X6.12Y-5.21
X6.12Y-5.31
X6.12Y-5.41
X6.12Y-5.51
X6.12Y-5.61
X6.12Y-5.71
X6.14Y-4.35
X6.22Y-4.61
X6.22Y-4.71
X6.22Y-4.81
X6.22Y-4.91
X6.22Y-5.01
X6.22Y-5.11
X6.22Y-5.21
X6.22Y-5.31
X6.22Y-5.41
X6.22Y-5.51
X6.22Y-5.61
X6.22Y-5.71
X6.24Y-4.35
X6.34Y-4.35
X7.115Y-5.69
X7.215Y-5.69
X7.315Y-5.69
X7.415Y-5.69
X7.515Y-5.69
X7.615Y-5.69
T5
X3.Y-3.
X3.Y-6.
X8.Y-3.
X8.Y-6.
T0
M30
