G04 #@! TF.FileFunction,Legend,Top*
%FSLAX46Y46*%
G04 Gerber Fmt 4.6, Leading zero omitted, Abs format (unit mm)*
G04 Created by KiCad (PCBNEW 4.0.6) date 03/20/17 19:24:42*
%MOMM*%
%LPD*%
G01*
G04 APERTURE LIST*
%ADD10C,0.100000*%
%ADD11C,0.300000*%
%ADD12C,0.120000*%
%ADD13C,0.150000*%
G04 APERTURE END LIST*
D10*
D11*
X173395143Y-90594571D02*
X172895143Y-89880286D01*
X172538000Y-90594571D02*
X172538000Y-89094571D01*
X173109428Y-89094571D01*
X173252286Y-89166000D01*
X173323714Y-89237429D01*
X173395143Y-89380286D01*
X173395143Y-89594571D01*
X173323714Y-89737429D01*
X173252286Y-89808857D01*
X173109428Y-89880286D01*
X172538000Y-89880286D01*
X174323714Y-89094571D02*
X174609428Y-89094571D01*
X174752286Y-89166000D01*
X174895143Y-89308857D01*
X174966571Y-89594571D01*
X174966571Y-90094571D01*
X174895143Y-90380286D01*
X174752286Y-90523143D01*
X174609428Y-90594571D01*
X174323714Y-90594571D01*
X174180857Y-90523143D01*
X174038000Y-90380286D01*
X173966571Y-90094571D01*
X173966571Y-89594571D01*
X174038000Y-89308857D01*
X174180857Y-89166000D01*
X174323714Y-89094571D01*
X175609429Y-89094571D02*
X175609429Y-90308857D01*
X175680857Y-90451714D01*
X175752286Y-90523143D01*
X175895143Y-90594571D01*
X176180857Y-90594571D01*
X176323715Y-90523143D01*
X176395143Y-90451714D01*
X176466572Y-90308857D01*
X176466572Y-89094571D01*
X176966572Y-89094571D02*
X177823715Y-89094571D01*
X177395144Y-90594571D02*
X177395144Y-89094571D01*
X178323715Y-89808857D02*
X178823715Y-89808857D01*
X179038001Y-90594571D02*
X178323715Y-90594571D01*
X178323715Y-89094571D01*
X179038001Y-89094571D01*
X181466572Y-89094571D02*
X181180858Y-89094571D01*
X181038001Y-89166000D01*
X180966572Y-89237429D01*
X180823715Y-89451714D01*
X180752286Y-89737429D01*
X180752286Y-90308857D01*
X180823715Y-90451714D01*
X180895143Y-90523143D01*
X181038001Y-90594571D01*
X181323715Y-90594571D01*
X181466572Y-90523143D01*
X181538001Y-90451714D01*
X181609429Y-90308857D01*
X181609429Y-89951714D01*
X181538001Y-89808857D01*
X181466572Y-89737429D01*
X181323715Y-89666000D01*
X181038001Y-89666000D01*
X180895143Y-89737429D01*
X180823715Y-89808857D01*
X180752286Y-89951714D01*
X173395143Y-107358571D02*
X172895143Y-106644286D01*
X172538000Y-107358571D02*
X172538000Y-105858571D01*
X173109428Y-105858571D01*
X173252286Y-105930000D01*
X173323714Y-106001429D01*
X173395143Y-106144286D01*
X173395143Y-106358571D01*
X173323714Y-106501429D01*
X173252286Y-106572857D01*
X173109428Y-106644286D01*
X172538000Y-106644286D01*
X174323714Y-105858571D02*
X174609428Y-105858571D01*
X174752286Y-105930000D01*
X174895143Y-106072857D01*
X174966571Y-106358571D01*
X174966571Y-106858571D01*
X174895143Y-107144286D01*
X174752286Y-107287143D01*
X174609428Y-107358571D01*
X174323714Y-107358571D01*
X174180857Y-107287143D01*
X174038000Y-107144286D01*
X173966571Y-106858571D01*
X173966571Y-106358571D01*
X174038000Y-106072857D01*
X174180857Y-105930000D01*
X174323714Y-105858571D01*
X175609429Y-105858571D02*
X175609429Y-107072857D01*
X175680857Y-107215714D01*
X175752286Y-107287143D01*
X175895143Y-107358571D01*
X176180857Y-107358571D01*
X176323715Y-107287143D01*
X176395143Y-107215714D01*
X176466572Y-107072857D01*
X176466572Y-105858571D01*
X176966572Y-105858571D02*
X177823715Y-105858571D01*
X177395144Y-107358571D02*
X177395144Y-105858571D01*
X178323715Y-106572857D02*
X178823715Y-106572857D01*
X179038001Y-107358571D02*
X178323715Y-107358571D01*
X178323715Y-105858571D01*
X179038001Y-105858571D01*
X181538001Y-105858571D02*
X180823715Y-105858571D01*
X180752286Y-106572857D01*
X180823715Y-106501429D01*
X180966572Y-106430000D01*
X181323715Y-106430000D01*
X181466572Y-106501429D01*
X181538001Y-106572857D01*
X181609429Y-106715714D01*
X181609429Y-107072857D01*
X181538001Y-107215714D01*
X181466572Y-107287143D01*
X181323715Y-107358571D01*
X180966572Y-107358571D01*
X180823715Y-107287143D01*
X180752286Y-107215714D01*
X129453143Y-90594571D02*
X128953143Y-89880286D01*
X128596000Y-90594571D02*
X128596000Y-89094571D01*
X129167428Y-89094571D01*
X129310286Y-89166000D01*
X129381714Y-89237429D01*
X129453143Y-89380286D01*
X129453143Y-89594571D01*
X129381714Y-89737429D01*
X129310286Y-89808857D01*
X129167428Y-89880286D01*
X128596000Y-89880286D01*
X130381714Y-89094571D02*
X130667428Y-89094571D01*
X130810286Y-89166000D01*
X130953143Y-89308857D01*
X131024571Y-89594571D01*
X131024571Y-90094571D01*
X130953143Y-90380286D01*
X130810286Y-90523143D01*
X130667428Y-90594571D01*
X130381714Y-90594571D01*
X130238857Y-90523143D01*
X130096000Y-90380286D01*
X130024571Y-90094571D01*
X130024571Y-89594571D01*
X130096000Y-89308857D01*
X130238857Y-89166000D01*
X130381714Y-89094571D01*
X131667429Y-89094571D02*
X131667429Y-90308857D01*
X131738857Y-90451714D01*
X131810286Y-90523143D01*
X131953143Y-90594571D01*
X132238857Y-90594571D01*
X132381715Y-90523143D01*
X132453143Y-90451714D01*
X132524572Y-90308857D01*
X132524572Y-89094571D01*
X133024572Y-89094571D02*
X133881715Y-89094571D01*
X133453144Y-90594571D02*
X133453144Y-89094571D01*
X134381715Y-89808857D02*
X134881715Y-89808857D01*
X135096001Y-90594571D02*
X134381715Y-90594571D01*
X134381715Y-89094571D01*
X135096001Y-89094571D01*
X137524572Y-89594571D02*
X137524572Y-90594571D01*
X137167429Y-89023143D02*
X136810286Y-90094571D01*
X137738858Y-90094571D01*
X129453143Y-107358571D02*
X128953143Y-106644286D01*
X128596000Y-107358571D02*
X128596000Y-105858571D01*
X129167428Y-105858571D01*
X129310286Y-105930000D01*
X129381714Y-106001429D01*
X129453143Y-106144286D01*
X129453143Y-106358571D01*
X129381714Y-106501429D01*
X129310286Y-106572857D01*
X129167428Y-106644286D01*
X128596000Y-106644286D01*
X130381714Y-105858571D02*
X130667428Y-105858571D01*
X130810286Y-105930000D01*
X130953143Y-106072857D01*
X131024571Y-106358571D01*
X131024571Y-106858571D01*
X130953143Y-107144286D01*
X130810286Y-107287143D01*
X130667428Y-107358571D01*
X130381714Y-107358571D01*
X130238857Y-107287143D01*
X130096000Y-107144286D01*
X130024571Y-106858571D01*
X130024571Y-106358571D01*
X130096000Y-106072857D01*
X130238857Y-105930000D01*
X130381714Y-105858571D01*
X131667429Y-105858571D02*
X131667429Y-107072857D01*
X131738857Y-107215714D01*
X131810286Y-107287143D01*
X131953143Y-107358571D01*
X132238857Y-107358571D01*
X132381715Y-107287143D01*
X132453143Y-107215714D01*
X132524572Y-107072857D01*
X132524572Y-105858571D01*
X133024572Y-105858571D02*
X133881715Y-105858571D01*
X133453144Y-107358571D02*
X133453144Y-105858571D01*
X134381715Y-106572857D02*
X134881715Y-106572857D01*
X135096001Y-107358571D02*
X134381715Y-107358571D01*
X134381715Y-105858571D01*
X135096001Y-105858571D01*
X136738858Y-105858571D02*
X137667429Y-105858571D01*
X137167429Y-106430000D01*
X137381715Y-106430000D01*
X137524572Y-106501429D01*
X137596001Y-106572857D01*
X137667429Y-106715714D01*
X137667429Y-107072857D01*
X137596001Y-107215714D01*
X137524572Y-107287143D01*
X137381715Y-107358571D01*
X136953143Y-107358571D01*
X136810286Y-107287143D01*
X136738858Y-107215714D01*
X83733143Y-90594571D02*
X83233143Y-89880286D01*
X82876000Y-90594571D02*
X82876000Y-89094571D01*
X83447428Y-89094571D01*
X83590286Y-89166000D01*
X83661714Y-89237429D01*
X83733143Y-89380286D01*
X83733143Y-89594571D01*
X83661714Y-89737429D01*
X83590286Y-89808857D01*
X83447428Y-89880286D01*
X82876000Y-89880286D01*
X84661714Y-89094571D02*
X84947428Y-89094571D01*
X85090286Y-89166000D01*
X85233143Y-89308857D01*
X85304571Y-89594571D01*
X85304571Y-90094571D01*
X85233143Y-90380286D01*
X85090286Y-90523143D01*
X84947428Y-90594571D01*
X84661714Y-90594571D01*
X84518857Y-90523143D01*
X84376000Y-90380286D01*
X84304571Y-90094571D01*
X84304571Y-89594571D01*
X84376000Y-89308857D01*
X84518857Y-89166000D01*
X84661714Y-89094571D01*
X85947429Y-89094571D02*
X85947429Y-90308857D01*
X86018857Y-90451714D01*
X86090286Y-90523143D01*
X86233143Y-90594571D01*
X86518857Y-90594571D01*
X86661715Y-90523143D01*
X86733143Y-90451714D01*
X86804572Y-90308857D01*
X86804572Y-89094571D01*
X87304572Y-89094571D02*
X88161715Y-89094571D01*
X87733144Y-90594571D02*
X87733144Y-89094571D01*
X88661715Y-89808857D02*
X89161715Y-89808857D01*
X89376001Y-90594571D02*
X88661715Y-90594571D01*
X88661715Y-89094571D01*
X89376001Y-89094571D01*
X91090286Y-89237429D02*
X91161715Y-89166000D01*
X91304572Y-89094571D01*
X91661715Y-89094571D01*
X91804572Y-89166000D01*
X91876001Y-89237429D01*
X91947429Y-89380286D01*
X91947429Y-89523143D01*
X91876001Y-89737429D01*
X91018858Y-90594571D01*
X91947429Y-90594571D01*
X83733143Y-107358571D02*
X83233143Y-106644286D01*
X82876000Y-107358571D02*
X82876000Y-105858571D01*
X83447428Y-105858571D01*
X83590286Y-105930000D01*
X83661714Y-106001429D01*
X83733143Y-106144286D01*
X83733143Y-106358571D01*
X83661714Y-106501429D01*
X83590286Y-106572857D01*
X83447428Y-106644286D01*
X82876000Y-106644286D01*
X84661714Y-105858571D02*
X84947428Y-105858571D01*
X85090286Y-105930000D01*
X85233143Y-106072857D01*
X85304571Y-106358571D01*
X85304571Y-106858571D01*
X85233143Y-107144286D01*
X85090286Y-107287143D01*
X84947428Y-107358571D01*
X84661714Y-107358571D01*
X84518857Y-107287143D01*
X84376000Y-107144286D01*
X84304571Y-106858571D01*
X84304571Y-106358571D01*
X84376000Y-106072857D01*
X84518857Y-105930000D01*
X84661714Y-105858571D01*
X85947429Y-105858571D02*
X85947429Y-107072857D01*
X86018857Y-107215714D01*
X86090286Y-107287143D01*
X86233143Y-107358571D01*
X86518857Y-107358571D01*
X86661715Y-107287143D01*
X86733143Y-107215714D01*
X86804572Y-107072857D01*
X86804572Y-105858571D01*
X87304572Y-105858571D02*
X88161715Y-105858571D01*
X87733144Y-107358571D02*
X87733144Y-105858571D01*
X88661715Y-106572857D02*
X89161715Y-106572857D01*
X89376001Y-107358571D02*
X88661715Y-107358571D01*
X88661715Y-105858571D01*
X89376001Y-105858571D01*
X91947429Y-107358571D02*
X91090286Y-107358571D01*
X91518858Y-107358571D02*
X91518858Y-105858571D01*
X91376001Y-106072857D01*
X91233143Y-106215714D01*
X91090286Y-106287143D01*
X160012572Y-144212571D02*
X160012572Y-145426857D01*
X160084000Y-145569714D01*
X160155429Y-145641143D01*
X160298286Y-145712571D01*
X160584000Y-145712571D01*
X160726858Y-145641143D01*
X160798286Y-145569714D01*
X160869715Y-145426857D01*
X160869715Y-144212571D01*
X161441144Y-144212571D02*
X162369715Y-144212571D01*
X161869715Y-144784000D01*
X162084001Y-144784000D01*
X162226858Y-144855429D01*
X162298287Y-144926857D01*
X162369715Y-145069714D01*
X162369715Y-145426857D01*
X162298287Y-145569714D01*
X162226858Y-145641143D01*
X162084001Y-145712571D01*
X161655429Y-145712571D01*
X161512572Y-145641143D01*
X161441144Y-145569714D01*
X164084000Y-145284000D02*
X164798286Y-145284000D01*
X163941143Y-145712571D02*
X164441143Y-144212571D01*
X164941143Y-145712571D01*
X165298286Y-144212571D02*
X166298286Y-144212571D01*
X165655429Y-145712571D01*
X160012572Y-141672571D02*
X160012572Y-142886857D01*
X160084000Y-143029714D01*
X160155429Y-143101143D01*
X160298286Y-143172571D01*
X160584000Y-143172571D01*
X160726858Y-143101143D01*
X160798286Y-143029714D01*
X160869715Y-142886857D01*
X160869715Y-141672571D01*
X161441144Y-141672571D02*
X162369715Y-141672571D01*
X161869715Y-142244000D01*
X162084001Y-142244000D01*
X162226858Y-142315429D01*
X162298287Y-142386857D01*
X162369715Y-142529714D01*
X162369715Y-142886857D01*
X162298287Y-143029714D01*
X162226858Y-143101143D01*
X162084001Y-143172571D01*
X161655429Y-143172571D01*
X161512572Y-143101143D01*
X161441144Y-143029714D01*
X164655429Y-142386857D02*
X164869715Y-142458286D01*
X164941143Y-142529714D01*
X165012572Y-142672571D01*
X165012572Y-142886857D01*
X164941143Y-143029714D01*
X164869715Y-143101143D01*
X164726857Y-143172571D01*
X164155429Y-143172571D01*
X164155429Y-141672571D01*
X164655429Y-141672571D01*
X164798286Y-141744000D01*
X164869715Y-141815429D01*
X164941143Y-141958286D01*
X164941143Y-142101143D01*
X164869715Y-142244000D01*
X164798286Y-142315429D01*
X164655429Y-142386857D01*
X164155429Y-142386857D01*
X165512572Y-141672571D02*
X166512572Y-141672571D01*
X165869715Y-143172571D01*
X160012572Y-139132571D02*
X160012572Y-140346857D01*
X160084000Y-140489714D01*
X160155429Y-140561143D01*
X160298286Y-140632571D01*
X160584000Y-140632571D01*
X160726858Y-140561143D01*
X160798286Y-140489714D01*
X160869715Y-140346857D01*
X160869715Y-139132571D01*
X161441144Y-139132571D02*
X162369715Y-139132571D01*
X161869715Y-139704000D01*
X162084001Y-139704000D01*
X162226858Y-139775429D01*
X162298287Y-139846857D01*
X162369715Y-139989714D01*
X162369715Y-140346857D01*
X162298287Y-140489714D01*
X162226858Y-140561143D01*
X162084001Y-140632571D01*
X161655429Y-140632571D01*
X161512572Y-140561143D01*
X161441144Y-140489714D01*
X164155429Y-140632571D02*
X164155429Y-139132571D01*
X164869715Y-140632571D02*
X164869715Y-139132571D01*
X165726858Y-140632571D01*
X165726858Y-139132571D01*
X166226858Y-139132571D02*
X167084001Y-139132571D01*
X166655430Y-140632571D02*
X166655430Y-139132571D01*
X168084001Y-139846857D02*
X168298287Y-139918286D01*
X168369715Y-139989714D01*
X168441144Y-140132571D01*
X168441144Y-140346857D01*
X168369715Y-140489714D01*
X168298287Y-140561143D01*
X168155429Y-140632571D01*
X167584001Y-140632571D01*
X167584001Y-139132571D01*
X168084001Y-139132571D01*
X168226858Y-139204000D01*
X168298287Y-139275429D01*
X168369715Y-139418286D01*
X168369715Y-139561143D01*
X168298287Y-139704000D01*
X168226858Y-139775429D01*
X168084001Y-139846857D01*
X167584001Y-139846857D01*
X160012572Y-136592571D02*
X160012572Y-137806857D01*
X160084000Y-137949714D01*
X160155429Y-138021143D01*
X160298286Y-138092571D01*
X160584000Y-138092571D01*
X160726858Y-138021143D01*
X160798286Y-137949714D01*
X160869715Y-137806857D01*
X160869715Y-136592571D01*
X161441144Y-136592571D02*
X162369715Y-136592571D01*
X161869715Y-137164000D01*
X162084001Y-137164000D01*
X162226858Y-137235429D01*
X162298287Y-137306857D01*
X162369715Y-137449714D01*
X162369715Y-137806857D01*
X162298287Y-137949714D01*
X162226858Y-138021143D01*
X162084001Y-138092571D01*
X161655429Y-138092571D01*
X161512572Y-138021143D01*
X161441144Y-137949714D01*
X164155429Y-138092571D02*
X164155429Y-136592571D01*
X164869715Y-138092571D02*
X164869715Y-136592571D01*
X165726858Y-138092571D01*
X165726858Y-136592571D01*
X166226858Y-136592571D02*
X167084001Y-136592571D01*
X166655430Y-138092571D02*
X166655430Y-136592571D01*
X167512572Y-137664000D02*
X168226858Y-137664000D01*
X167369715Y-138092571D02*
X167869715Y-136592571D01*
X168369715Y-138092571D01*
X160012572Y-131512571D02*
X160012572Y-132726857D01*
X160084000Y-132869714D01*
X160155429Y-132941143D01*
X160298286Y-133012571D01*
X160584000Y-133012571D01*
X160726858Y-132941143D01*
X160798286Y-132869714D01*
X160869715Y-132726857D01*
X160869715Y-131512571D01*
X162226858Y-132012571D02*
X162226858Y-133012571D01*
X161869715Y-131441143D02*
X161512572Y-132512571D01*
X162441144Y-132512571D01*
X164655429Y-132226857D02*
X164869715Y-132298286D01*
X164941143Y-132369714D01*
X165012572Y-132512571D01*
X165012572Y-132726857D01*
X164941143Y-132869714D01*
X164869715Y-132941143D01*
X164726857Y-133012571D01*
X164155429Y-133012571D01*
X164155429Y-131512571D01*
X164655429Y-131512571D01*
X164798286Y-131584000D01*
X164869715Y-131655429D01*
X164941143Y-131798286D01*
X164941143Y-131941143D01*
X164869715Y-132084000D01*
X164798286Y-132155429D01*
X164655429Y-132226857D01*
X164155429Y-132226857D01*
X165512572Y-131512571D02*
X166512572Y-131512571D01*
X165869715Y-133012571D01*
X160012572Y-134052571D02*
X160012572Y-135266857D01*
X160084000Y-135409714D01*
X160155429Y-135481143D01*
X160298286Y-135552571D01*
X160584000Y-135552571D01*
X160726858Y-135481143D01*
X160798286Y-135409714D01*
X160869715Y-135266857D01*
X160869715Y-134052571D01*
X162226858Y-134552571D02*
X162226858Y-135552571D01*
X161869715Y-133981143D02*
X161512572Y-135052571D01*
X162441144Y-135052571D01*
X164084000Y-135124000D02*
X164798286Y-135124000D01*
X163941143Y-135552571D02*
X164441143Y-134052571D01*
X164941143Y-135552571D01*
X165298286Y-134052571D02*
X166298286Y-134052571D01*
X165655429Y-135552571D01*
X160012572Y-128972571D02*
X160012572Y-130186857D01*
X160084000Y-130329714D01*
X160155429Y-130401143D01*
X160298286Y-130472571D01*
X160584000Y-130472571D01*
X160726858Y-130401143D01*
X160798286Y-130329714D01*
X160869715Y-130186857D01*
X160869715Y-128972571D01*
X162226858Y-129472571D02*
X162226858Y-130472571D01*
X161869715Y-128901143D02*
X161512572Y-129972571D01*
X162441144Y-129972571D01*
X164155429Y-130472571D02*
X164155429Y-128972571D01*
X164869715Y-130472571D02*
X164869715Y-128972571D01*
X165726858Y-130472571D01*
X165726858Y-128972571D01*
X166226858Y-128972571D02*
X167084001Y-128972571D01*
X166655430Y-130472571D02*
X166655430Y-128972571D01*
X169226858Y-129686857D02*
X169441144Y-129758286D01*
X169512572Y-129829714D01*
X169584001Y-129972571D01*
X169584001Y-130186857D01*
X169512572Y-130329714D01*
X169441144Y-130401143D01*
X169298286Y-130472571D01*
X168726858Y-130472571D01*
X168726858Y-128972571D01*
X169226858Y-128972571D01*
X169369715Y-129044000D01*
X169441144Y-129115429D01*
X169512572Y-129258286D01*
X169512572Y-129401143D01*
X169441144Y-129544000D01*
X169369715Y-129615429D01*
X169226858Y-129686857D01*
X168726858Y-129686857D01*
X160012572Y-126432571D02*
X160012572Y-127646857D01*
X160084000Y-127789714D01*
X160155429Y-127861143D01*
X160298286Y-127932571D01*
X160584000Y-127932571D01*
X160726858Y-127861143D01*
X160798286Y-127789714D01*
X160869715Y-127646857D01*
X160869715Y-126432571D01*
X162226858Y-126932571D02*
X162226858Y-127932571D01*
X161869715Y-126361143D02*
X161512572Y-127432571D01*
X162441144Y-127432571D01*
X164155429Y-127932571D02*
X164155429Y-126432571D01*
X164869715Y-127932571D02*
X164869715Y-126432571D01*
X165726858Y-127932571D01*
X165726858Y-126432571D01*
X166226858Y-126432571D02*
X167084001Y-126432571D01*
X166655430Y-127932571D02*
X166655430Y-126432571D01*
X167512572Y-127504000D02*
X168226858Y-127504000D01*
X167369715Y-127932571D02*
X167869715Y-126432571D01*
X168369715Y-127932571D01*
X160012572Y-123892571D02*
X160012572Y-125106857D01*
X160084000Y-125249714D01*
X160155429Y-125321143D01*
X160298286Y-125392571D01*
X160584000Y-125392571D01*
X160726858Y-125321143D01*
X160798286Y-125249714D01*
X160869715Y-125106857D01*
X160869715Y-123892571D01*
X162298287Y-123892571D02*
X161584001Y-123892571D01*
X161512572Y-124606857D01*
X161584001Y-124535429D01*
X161726858Y-124464000D01*
X162084001Y-124464000D01*
X162226858Y-124535429D01*
X162298287Y-124606857D01*
X162369715Y-124749714D01*
X162369715Y-125106857D01*
X162298287Y-125249714D01*
X162226858Y-125321143D01*
X162084001Y-125392571D01*
X161726858Y-125392571D01*
X161584001Y-125321143D01*
X161512572Y-125249714D01*
X164084000Y-124964000D02*
X164798286Y-124964000D01*
X163941143Y-125392571D02*
X164441143Y-123892571D01*
X164941143Y-125392571D01*
X165298286Y-123892571D02*
X166298286Y-123892571D01*
X165655429Y-125392571D01*
X160012572Y-121352571D02*
X160012572Y-122566857D01*
X160084000Y-122709714D01*
X160155429Y-122781143D01*
X160298286Y-122852571D01*
X160584000Y-122852571D01*
X160726858Y-122781143D01*
X160798286Y-122709714D01*
X160869715Y-122566857D01*
X160869715Y-121352571D01*
X162298287Y-121352571D02*
X161584001Y-121352571D01*
X161512572Y-122066857D01*
X161584001Y-121995429D01*
X161726858Y-121924000D01*
X162084001Y-121924000D01*
X162226858Y-121995429D01*
X162298287Y-122066857D01*
X162369715Y-122209714D01*
X162369715Y-122566857D01*
X162298287Y-122709714D01*
X162226858Y-122781143D01*
X162084001Y-122852571D01*
X161726858Y-122852571D01*
X161584001Y-122781143D01*
X161512572Y-122709714D01*
X164655429Y-122066857D02*
X164869715Y-122138286D01*
X164941143Y-122209714D01*
X165012572Y-122352571D01*
X165012572Y-122566857D01*
X164941143Y-122709714D01*
X164869715Y-122781143D01*
X164726857Y-122852571D01*
X164155429Y-122852571D01*
X164155429Y-121352571D01*
X164655429Y-121352571D01*
X164798286Y-121424000D01*
X164869715Y-121495429D01*
X164941143Y-121638286D01*
X164941143Y-121781143D01*
X164869715Y-121924000D01*
X164798286Y-121995429D01*
X164655429Y-122066857D01*
X164155429Y-122066857D01*
X165512572Y-121352571D02*
X166512572Y-121352571D01*
X165869715Y-122852571D01*
X160012572Y-118812571D02*
X160012572Y-120026857D01*
X160084000Y-120169714D01*
X160155429Y-120241143D01*
X160298286Y-120312571D01*
X160584000Y-120312571D01*
X160726858Y-120241143D01*
X160798286Y-120169714D01*
X160869715Y-120026857D01*
X160869715Y-118812571D01*
X162298287Y-118812571D02*
X161584001Y-118812571D01*
X161512572Y-119526857D01*
X161584001Y-119455429D01*
X161726858Y-119384000D01*
X162084001Y-119384000D01*
X162226858Y-119455429D01*
X162298287Y-119526857D01*
X162369715Y-119669714D01*
X162369715Y-120026857D01*
X162298287Y-120169714D01*
X162226858Y-120241143D01*
X162084001Y-120312571D01*
X161726858Y-120312571D01*
X161584001Y-120241143D01*
X161512572Y-120169714D01*
X164155429Y-120312571D02*
X164155429Y-118812571D01*
X164869715Y-120312571D02*
X164869715Y-118812571D01*
X165726858Y-120312571D01*
X165726858Y-118812571D01*
X166226858Y-118812571D02*
X167084001Y-118812571D01*
X166655430Y-120312571D02*
X166655430Y-118812571D01*
X169226858Y-119526857D02*
X169441144Y-119598286D01*
X169512572Y-119669714D01*
X169584001Y-119812571D01*
X169584001Y-120026857D01*
X169512572Y-120169714D01*
X169441144Y-120241143D01*
X169298286Y-120312571D01*
X168726858Y-120312571D01*
X168726858Y-118812571D01*
X169226858Y-118812571D01*
X169369715Y-118884000D01*
X169441144Y-118955429D01*
X169512572Y-119098286D01*
X169512572Y-119241143D01*
X169441144Y-119384000D01*
X169369715Y-119455429D01*
X169226858Y-119526857D01*
X168726858Y-119526857D01*
X160012572Y-116526571D02*
X160012572Y-117740857D01*
X160084000Y-117883714D01*
X160155429Y-117955143D01*
X160298286Y-118026571D01*
X160584000Y-118026571D01*
X160726858Y-117955143D01*
X160798286Y-117883714D01*
X160869715Y-117740857D01*
X160869715Y-116526571D01*
X162298287Y-116526571D02*
X161584001Y-116526571D01*
X161512572Y-117240857D01*
X161584001Y-117169429D01*
X161726858Y-117098000D01*
X162084001Y-117098000D01*
X162226858Y-117169429D01*
X162298287Y-117240857D01*
X162369715Y-117383714D01*
X162369715Y-117740857D01*
X162298287Y-117883714D01*
X162226858Y-117955143D01*
X162084001Y-118026571D01*
X161726858Y-118026571D01*
X161584001Y-117955143D01*
X161512572Y-117883714D01*
X164155429Y-118026571D02*
X164155429Y-116526571D01*
X164869715Y-118026571D02*
X164869715Y-116526571D01*
X165726858Y-118026571D01*
X165726858Y-116526571D01*
X166226858Y-116526571D02*
X167084001Y-116526571D01*
X166655430Y-118026571D02*
X166655430Y-116526571D01*
X167512572Y-117598000D02*
X168226858Y-117598000D01*
X167369715Y-118026571D02*
X167869715Y-116526571D01*
X168369715Y-118026571D01*
X152376001Y-144212571D02*
X153376001Y-144212571D01*
X152733144Y-145712571D01*
X151876001Y-143172571D02*
X151018858Y-143172571D01*
X151447430Y-143172571D02*
X151447430Y-141672571D01*
X151304573Y-141886857D01*
X151161715Y-142029714D01*
X151018858Y-142101143D01*
X152376001Y-141672571D02*
X153304572Y-141672571D01*
X152804572Y-142244000D01*
X153018858Y-142244000D01*
X153161715Y-142315429D01*
X153233144Y-142386857D01*
X153304572Y-142529714D01*
X153304572Y-142886857D01*
X153233144Y-143029714D01*
X153161715Y-143101143D01*
X153018858Y-143172571D01*
X152590286Y-143172571D01*
X152447429Y-143101143D01*
X152376001Y-143029714D01*
X149090286Y-140632571D02*
X149090286Y-139132571D01*
X149804572Y-140632571D02*
X149804572Y-139132571D01*
X150661715Y-140632571D01*
X150661715Y-139132571D01*
X151161715Y-139132571D02*
X152018858Y-139132571D01*
X151590287Y-140632571D02*
X151590287Y-139132571D01*
X153304572Y-140632571D02*
X152447429Y-140632571D01*
X152876001Y-140632571D02*
X152876001Y-139132571D01*
X152733144Y-139346857D01*
X152590286Y-139489714D01*
X152447429Y-139561143D01*
X149090286Y-138092571D02*
X149090286Y-136592571D01*
X149804572Y-138092571D02*
X149804572Y-136592571D01*
X150661715Y-138092571D01*
X150661715Y-136592571D01*
X151161715Y-136592571D02*
X152018858Y-136592571D01*
X151590287Y-138092571D02*
X151590287Y-136592571D01*
X152804572Y-136592571D02*
X152947429Y-136592571D01*
X153090286Y-136664000D01*
X153161715Y-136735429D01*
X153233144Y-136878286D01*
X153304572Y-137164000D01*
X153304572Y-137521143D01*
X153233144Y-137806857D01*
X153161715Y-137949714D01*
X153090286Y-138021143D01*
X152947429Y-138092571D01*
X152804572Y-138092571D01*
X152661715Y-138021143D01*
X152590286Y-137949714D01*
X152518858Y-137806857D01*
X152447429Y-137521143D01*
X152447429Y-137164000D01*
X152518858Y-136878286D01*
X152590286Y-136735429D01*
X152661715Y-136664000D01*
X152804572Y-136592571D01*
X151161715Y-135124000D02*
X151876001Y-135124000D01*
X151018858Y-135552571D02*
X151518858Y-134052571D01*
X152018858Y-135552571D01*
X153304572Y-135552571D02*
X152447429Y-135552571D01*
X152876001Y-135552571D02*
X152876001Y-134052571D01*
X152733144Y-134266857D01*
X152590286Y-134409714D01*
X152447429Y-134481143D01*
X151161715Y-132584000D02*
X151876001Y-132584000D01*
X151018858Y-133012571D02*
X151518858Y-131512571D01*
X152018858Y-133012571D01*
X152447429Y-131655429D02*
X152518858Y-131584000D01*
X152661715Y-131512571D01*
X153018858Y-131512571D01*
X153161715Y-131584000D01*
X153233144Y-131655429D01*
X153304572Y-131798286D01*
X153304572Y-131941143D01*
X153233144Y-132155429D01*
X152376001Y-133012571D01*
X153304572Y-133012571D01*
X151161715Y-130044000D02*
X151876001Y-130044000D01*
X151018858Y-130472571D02*
X151518858Y-128972571D01*
X152018858Y-130472571D01*
X152376001Y-128972571D02*
X153304572Y-128972571D01*
X152804572Y-129544000D01*
X153018858Y-129544000D01*
X153161715Y-129615429D01*
X153233144Y-129686857D01*
X153304572Y-129829714D01*
X153304572Y-130186857D01*
X153233144Y-130329714D01*
X153161715Y-130401143D01*
X153018858Y-130472571D01*
X152590286Y-130472571D01*
X152447429Y-130401143D01*
X152376001Y-130329714D01*
X148018858Y-127932571D02*
X147518858Y-127218286D01*
X147161715Y-127932571D02*
X147161715Y-126432571D01*
X147733143Y-126432571D01*
X147876001Y-126504000D01*
X147947429Y-126575429D01*
X148018858Y-126718286D01*
X148018858Y-126932571D01*
X147947429Y-127075429D01*
X147876001Y-127146857D01*
X147733143Y-127218286D01*
X147161715Y-127218286D01*
X148661715Y-127146857D02*
X149161715Y-127146857D01*
X149376001Y-127932571D02*
X148661715Y-127932571D01*
X148661715Y-126432571D01*
X149376001Y-126432571D01*
X149947429Y-127861143D02*
X150161715Y-127932571D01*
X150518858Y-127932571D01*
X150661715Y-127861143D01*
X150733144Y-127789714D01*
X150804572Y-127646857D01*
X150804572Y-127504000D01*
X150733144Y-127361143D01*
X150661715Y-127289714D01*
X150518858Y-127218286D01*
X150233144Y-127146857D01*
X150090286Y-127075429D01*
X150018858Y-127004000D01*
X149947429Y-126861143D01*
X149947429Y-126718286D01*
X150018858Y-126575429D01*
X150090286Y-126504000D01*
X150233144Y-126432571D01*
X150590286Y-126432571D01*
X150804572Y-126504000D01*
X151447429Y-127146857D02*
X151947429Y-127146857D01*
X152161715Y-127932571D02*
X151447429Y-127932571D01*
X151447429Y-126432571D01*
X152161715Y-126432571D01*
X152590286Y-126432571D02*
X153447429Y-126432571D01*
X153018858Y-127932571D02*
X153018858Y-126432571D01*
X149661715Y-125321143D02*
X149876001Y-125392571D01*
X150233144Y-125392571D01*
X150376001Y-125321143D01*
X150447430Y-125249714D01*
X150518858Y-125106857D01*
X150518858Y-124964000D01*
X150447430Y-124821143D01*
X150376001Y-124749714D01*
X150233144Y-124678286D01*
X149947430Y-124606857D01*
X149804572Y-124535429D01*
X149733144Y-124464000D01*
X149661715Y-124321143D01*
X149661715Y-124178286D01*
X149733144Y-124035429D01*
X149804572Y-123964000D01*
X149947430Y-123892571D01*
X150304572Y-123892571D01*
X150518858Y-123964000D01*
X151161715Y-125392571D02*
X151161715Y-123892571D01*
X151518858Y-123892571D01*
X151733143Y-123964000D01*
X151876001Y-124106857D01*
X151947429Y-124249714D01*
X152018858Y-124535429D01*
X152018858Y-124749714D01*
X151947429Y-125035429D01*
X151876001Y-125178286D01*
X151733143Y-125321143D01*
X151518858Y-125392571D01*
X151161715Y-125392571D01*
X152590286Y-124964000D02*
X153304572Y-124964000D01*
X152447429Y-125392571D02*
X152947429Y-123892571D01*
X153447429Y-125392571D01*
X149733143Y-122781143D02*
X149947429Y-122852571D01*
X150304572Y-122852571D01*
X150447429Y-122781143D01*
X150518858Y-122709714D01*
X150590286Y-122566857D01*
X150590286Y-122424000D01*
X150518858Y-122281143D01*
X150447429Y-122209714D01*
X150304572Y-122138286D01*
X150018858Y-122066857D01*
X149876000Y-121995429D01*
X149804572Y-121924000D01*
X149733143Y-121781143D01*
X149733143Y-121638286D01*
X149804572Y-121495429D01*
X149876000Y-121424000D01*
X150018858Y-121352571D01*
X150376000Y-121352571D01*
X150590286Y-121424000D01*
X152090286Y-122709714D02*
X152018857Y-122781143D01*
X151804571Y-122852571D01*
X151661714Y-122852571D01*
X151447429Y-122781143D01*
X151304571Y-122638286D01*
X151233143Y-122495429D01*
X151161714Y-122209714D01*
X151161714Y-121995429D01*
X151233143Y-121709714D01*
X151304571Y-121566857D01*
X151447429Y-121424000D01*
X151661714Y-121352571D01*
X151804571Y-121352571D01*
X152018857Y-121424000D01*
X152090286Y-121495429D01*
X153447429Y-122852571D02*
X152733143Y-122852571D01*
X152733143Y-121352571D01*
X149590286Y-120312571D02*
X149590286Y-118812571D01*
X149947429Y-118812571D01*
X150161714Y-118884000D01*
X150304572Y-119026857D01*
X150376000Y-119169714D01*
X150447429Y-119455429D01*
X150447429Y-119669714D01*
X150376000Y-119955429D01*
X150304572Y-120098286D01*
X150161714Y-120241143D01*
X149947429Y-120312571D01*
X149590286Y-120312571D01*
X151590286Y-119526857D02*
X151090286Y-119526857D01*
X151090286Y-120312571D02*
X151090286Y-118812571D01*
X151804572Y-118812571D01*
X152376000Y-118812571D02*
X152376000Y-120026857D01*
X152447428Y-120169714D01*
X152518857Y-120241143D01*
X152661714Y-120312571D01*
X152947428Y-120312571D01*
X153090286Y-120241143D01*
X153161714Y-120169714D01*
X153233143Y-120026857D01*
X153233143Y-118812571D01*
X148447429Y-117344000D02*
X149161715Y-117344000D01*
X148304572Y-117772571D02*
X148804572Y-116272571D01*
X149304572Y-117772571D01*
X150661715Y-117772571D02*
X150161715Y-117058286D01*
X149804572Y-117772571D02*
X149804572Y-116272571D01*
X150376000Y-116272571D01*
X150518858Y-116344000D01*
X150590286Y-116415429D01*
X150661715Y-116558286D01*
X150661715Y-116772571D01*
X150590286Y-116915429D01*
X150518858Y-116986857D01*
X150376000Y-117058286D01*
X149804572Y-117058286D01*
X151304572Y-116986857D02*
X151804572Y-116986857D01*
X152018858Y-117772571D02*
X151304572Y-117772571D01*
X151304572Y-116272571D01*
X152018858Y-116272571D01*
X153161715Y-116986857D02*
X152661715Y-116986857D01*
X152661715Y-117772571D02*
X152661715Y-116272571D01*
X153376001Y-116272571D01*
X148614857Y-147720857D02*
X149114857Y-147720857D01*
X149329143Y-148506571D02*
X148614857Y-148506571D01*
X148614857Y-147006571D01*
X149329143Y-147006571D01*
X149829143Y-147006571D02*
X150829143Y-148506571D01*
X150829143Y-147006571D02*
X149829143Y-148506571D01*
X151400571Y-148506571D02*
X151400571Y-147006571D01*
X151971999Y-147006571D01*
X152114857Y-147078000D01*
X152186285Y-147149429D01*
X152257714Y-147292286D01*
X152257714Y-147506571D01*
X152186285Y-147649429D01*
X152114857Y-147720857D01*
X151971999Y-147792286D01*
X151400571Y-147792286D01*
X152829142Y-148078000D02*
X153543428Y-148078000D01*
X152686285Y-148506571D02*
X153186285Y-147006571D01*
X153686285Y-148506571D01*
X154186285Y-148506571D02*
X154186285Y-147006571D01*
X155043428Y-148506571D01*
X155043428Y-147006571D01*
X155686285Y-148435143D02*
X155900571Y-148506571D01*
X156257714Y-148506571D01*
X156400571Y-148435143D01*
X156472000Y-148363714D01*
X156543428Y-148220857D01*
X156543428Y-148078000D01*
X156472000Y-147935143D01*
X156400571Y-147863714D01*
X156257714Y-147792286D01*
X155972000Y-147720857D01*
X155829142Y-147649429D01*
X155757714Y-147578000D01*
X155686285Y-147435143D01*
X155686285Y-147292286D01*
X155757714Y-147149429D01*
X155829142Y-147078000D01*
X155972000Y-147006571D01*
X156329142Y-147006571D01*
X156543428Y-147078000D01*
X157186285Y-148506571D02*
X157186285Y-147006571D01*
X158186285Y-147006571D02*
X158471999Y-147006571D01*
X158614857Y-147078000D01*
X158757714Y-147220857D01*
X158829142Y-147506571D01*
X158829142Y-148006571D01*
X158757714Y-148292286D01*
X158614857Y-148435143D01*
X158471999Y-148506571D01*
X158186285Y-148506571D01*
X158043428Y-148435143D01*
X157900571Y-148292286D01*
X157829142Y-148006571D01*
X157829142Y-147506571D01*
X157900571Y-147220857D01*
X158043428Y-147078000D01*
X158186285Y-147006571D01*
X159472000Y-148506571D02*
X159472000Y-147006571D01*
X160329143Y-148506571D01*
X160329143Y-147006571D01*
X162186286Y-148506571D02*
X162186286Y-147006571D01*
X163972000Y-146935143D02*
X162686286Y-148863714D01*
X164757715Y-147006571D02*
X165043429Y-147006571D01*
X165186287Y-147078000D01*
X165329144Y-147220857D01*
X165400572Y-147506571D01*
X165400572Y-148006571D01*
X165329144Y-148292286D01*
X165186287Y-148435143D01*
X165043429Y-148506571D01*
X164757715Y-148506571D01*
X164614858Y-148435143D01*
X164472001Y-148292286D01*
X164400572Y-148006571D01*
X164400572Y-147506571D01*
X164472001Y-147220857D01*
X164614858Y-147078000D01*
X164757715Y-147006571D01*
X151554571Y-108715714D02*
X150054571Y-108715714D01*
X151554571Y-107858571D01*
X150054571Y-107858571D01*
X150054571Y-106858571D02*
X150054571Y-106572857D01*
X150126000Y-106429999D01*
X150268857Y-106287142D01*
X150554571Y-106215714D01*
X151054571Y-106215714D01*
X151340286Y-106287142D01*
X151483143Y-106429999D01*
X151554571Y-106572857D01*
X151554571Y-106858571D01*
X151483143Y-107001428D01*
X151340286Y-107144285D01*
X151054571Y-107215714D01*
X150554571Y-107215714D01*
X150268857Y-107144285D01*
X150126000Y-107001428D01*
X150054571Y-106858571D01*
X156634571Y-108715714D02*
X155134571Y-108715714D01*
X156634571Y-107858571D01*
X155134571Y-107858571D01*
X156491714Y-106287142D02*
X156563143Y-106358571D01*
X156634571Y-106572857D01*
X156634571Y-106715714D01*
X156563143Y-106929999D01*
X156420286Y-107072857D01*
X156277429Y-107144285D01*
X155991714Y-107215714D01*
X155777429Y-107215714D01*
X155491714Y-107144285D01*
X155348857Y-107072857D01*
X155206000Y-106929999D01*
X155134571Y-106715714D01*
X155134571Y-106572857D01*
X155206000Y-106358571D01*
X155277429Y-106287142D01*
X159174571Y-108064857D02*
X159174571Y-108779143D01*
X157674571Y-108779143D01*
X158388857Y-107564857D02*
X158388857Y-107064857D01*
X159174571Y-106850571D02*
X159174571Y-107564857D01*
X157674571Y-107564857D01*
X157674571Y-106850571D01*
X159174571Y-106207714D02*
X157674571Y-106207714D01*
X157674571Y-105850571D01*
X157746000Y-105636286D01*
X157888857Y-105493428D01*
X158031714Y-105422000D01*
X158317429Y-105350571D01*
X158531714Y-105350571D01*
X158817429Y-105422000D01*
X158960286Y-105493428D01*
X159103143Y-105636286D01*
X159174571Y-105850571D01*
X159174571Y-106207714D01*
X158603143Y-104707714D02*
X158603143Y-103564857D01*
X159174571Y-104136286D02*
X158031714Y-104136286D01*
X161714571Y-108001428D02*
X161714571Y-108715714D01*
X160214571Y-108715714D01*
X160928857Y-107501428D02*
X160928857Y-107001428D01*
X161714571Y-106787142D02*
X161714571Y-107501428D01*
X160214571Y-107501428D01*
X160214571Y-106787142D01*
X161714571Y-106144285D02*
X160214571Y-106144285D01*
X160214571Y-105787142D01*
X160286000Y-105572857D01*
X160428857Y-105429999D01*
X160571714Y-105358571D01*
X160857429Y-105287142D01*
X161071714Y-105287142D01*
X161357429Y-105358571D01*
X161500286Y-105429999D01*
X161643143Y-105572857D01*
X161714571Y-105787142D01*
X161714571Y-106144285D01*
X161143143Y-104644285D02*
X161143143Y-103501428D01*
X153951714Y-107858571D02*
X154023143Y-107930000D01*
X154094571Y-108144286D01*
X154094571Y-108287143D01*
X154023143Y-108501428D01*
X153880286Y-108644286D01*
X153737429Y-108715714D01*
X153451714Y-108787143D01*
X153237429Y-108787143D01*
X152951714Y-108715714D01*
X152808857Y-108644286D01*
X152666000Y-108501428D01*
X152594571Y-108287143D01*
X152594571Y-108144286D01*
X152666000Y-107930000D01*
X152737429Y-107858571D01*
X152594571Y-106930000D02*
X152594571Y-106644286D01*
X152666000Y-106501428D01*
X152808857Y-106358571D01*
X153094571Y-106287143D01*
X153594571Y-106287143D01*
X153880286Y-106358571D01*
X154023143Y-106501428D01*
X154094571Y-106644286D01*
X154094571Y-106930000D01*
X154023143Y-107072857D01*
X153880286Y-107215714D01*
X153594571Y-107287143D01*
X153094571Y-107287143D01*
X152808857Y-107215714D01*
X152666000Y-107072857D01*
X152594571Y-106930000D01*
X154094571Y-105644285D02*
X152594571Y-105644285D01*
X153666000Y-105144285D01*
X152594571Y-104644285D01*
X154094571Y-104644285D01*
X136088572Y-139743571D02*
X135588572Y-139029286D01*
X135231429Y-139743571D02*
X135231429Y-138243571D01*
X135802857Y-138243571D01*
X135945715Y-138315000D01*
X136017143Y-138386429D01*
X136088572Y-138529286D01*
X136088572Y-138743571D01*
X136017143Y-138886429D01*
X135945715Y-138957857D01*
X135802857Y-139029286D01*
X135231429Y-139029286D01*
X136731429Y-138957857D02*
X137231429Y-138957857D01*
X137445715Y-139743571D02*
X136731429Y-139743571D01*
X136731429Y-138243571D01*
X137445715Y-138243571D01*
X138017143Y-139672143D02*
X138231429Y-139743571D01*
X138588572Y-139743571D01*
X138731429Y-139672143D01*
X138802858Y-139600714D01*
X138874286Y-139457857D01*
X138874286Y-139315000D01*
X138802858Y-139172143D01*
X138731429Y-139100714D01*
X138588572Y-139029286D01*
X138302858Y-138957857D01*
X138160000Y-138886429D01*
X138088572Y-138815000D01*
X138017143Y-138672143D01*
X138017143Y-138529286D01*
X138088572Y-138386429D01*
X138160000Y-138315000D01*
X138302858Y-138243571D01*
X138660000Y-138243571D01*
X138874286Y-138315000D01*
X139517143Y-138957857D02*
X140017143Y-138957857D01*
X140231429Y-139743571D02*
X139517143Y-139743571D01*
X139517143Y-138243571D01*
X140231429Y-138243571D01*
X140660000Y-138243571D02*
X141517143Y-138243571D01*
X141088572Y-139743571D02*
X141088572Y-138243571D01*
X135017143Y-135703571D02*
X135874286Y-135703571D01*
X135445715Y-137203571D02*
X135445715Y-135703571D01*
X136231429Y-135703571D02*
X137231429Y-137203571D01*
X137231429Y-135703571D02*
X136231429Y-137203571D01*
X136088572Y-134663571D02*
X135588572Y-133949286D01*
X135231429Y-134663571D02*
X135231429Y-133163571D01*
X135802857Y-133163571D01*
X135945715Y-133235000D01*
X136017143Y-133306429D01*
X136088572Y-133449286D01*
X136088572Y-133663571D01*
X136017143Y-133806429D01*
X135945715Y-133877857D01*
X135802857Y-133949286D01*
X135231429Y-133949286D01*
X136588572Y-133163571D02*
X137588572Y-134663571D01*
X137588572Y-133163571D02*
X136588572Y-134663571D01*
X135017143Y-130623571D02*
X135517143Y-132123571D01*
X136017143Y-130623571D01*
X137374286Y-131980714D02*
X137302857Y-132052143D01*
X137088571Y-132123571D01*
X136945714Y-132123571D01*
X136731429Y-132052143D01*
X136588571Y-131909286D01*
X136517143Y-131766429D01*
X136445714Y-131480714D01*
X136445714Y-131266429D01*
X136517143Y-130980714D01*
X136588571Y-130837857D01*
X136731429Y-130695000D01*
X136945714Y-130623571D01*
X137088571Y-130623571D01*
X137302857Y-130695000D01*
X137374286Y-130766429D01*
X138874286Y-131980714D02*
X138802857Y-132052143D01*
X138588571Y-132123571D01*
X138445714Y-132123571D01*
X138231429Y-132052143D01*
X138088571Y-131909286D01*
X138017143Y-131766429D01*
X137945714Y-131480714D01*
X137945714Y-131266429D01*
X138017143Y-130980714D01*
X138088571Y-130837857D01*
X138231429Y-130695000D01*
X138445714Y-130623571D01*
X138588571Y-130623571D01*
X138802857Y-130695000D01*
X138874286Y-130766429D01*
X136017143Y-125615000D02*
X135874286Y-125543571D01*
X135660000Y-125543571D01*
X135445715Y-125615000D01*
X135302857Y-125757857D01*
X135231429Y-125900714D01*
X135160000Y-126186429D01*
X135160000Y-126400714D01*
X135231429Y-126686429D01*
X135302857Y-126829286D01*
X135445715Y-126972143D01*
X135660000Y-127043571D01*
X135802857Y-127043571D01*
X136017143Y-126972143D01*
X136088572Y-126900714D01*
X136088572Y-126400714D01*
X135802857Y-126400714D01*
X136731429Y-127043571D02*
X136731429Y-125543571D01*
X137588572Y-127043571D01*
X137588572Y-125543571D01*
X138302858Y-127043571D02*
X138302858Y-125543571D01*
X138660001Y-125543571D01*
X138874286Y-125615000D01*
X139017144Y-125757857D01*
X139088572Y-125900714D01*
X139160001Y-126186429D01*
X139160001Y-126400714D01*
X139088572Y-126686429D01*
X139017144Y-126829286D01*
X138874286Y-126972143D01*
X138660001Y-127043571D01*
X138302858Y-127043571D01*
X182566571Y-151975000D02*
X184066571Y-151475000D01*
X182566571Y-150975000D01*
X183280857Y-149975000D02*
X183352286Y-149760714D01*
X183423714Y-149689286D01*
X183566571Y-149617857D01*
X183780857Y-149617857D01*
X183923714Y-149689286D01*
X183995143Y-149760714D01*
X184066571Y-149903572D01*
X184066571Y-150475000D01*
X182566571Y-150475000D01*
X182566571Y-149975000D01*
X182638000Y-149832143D01*
X182709429Y-149760714D01*
X182852286Y-149689286D01*
X182995143Y-149689286D01*
X183138000Y-149760714D01*
X183209429Y-149832143D01*
X183280857Y-149975000D01*
X183280857Y-150475000D01*
X182566571Y-148975000D02*
X183780857Y-148975000D01*
X183923714Y-148903572D01*
X183995143Y-148832143D01*
X184066571Y-148689286D01*
X184066571Y-148403572D01*
X183995143Y-148260714D01*
X183923714Y-148189286D01*
X183780857Y-148117857D01*
X182566571Y-148117857D01*
X183995143Y-147475000D02*
X184066571Y-147260714D01*
X184066571Y-146903571D01*
X183995143Y-146760714D01*
X183923714Y-146689285D01*
X183780857Y-146617857D01*
X183638000Y-146617857D01*
X183495143Y-146689285D01*
X183423714Y-146760714D01*
X183352286Y-146903571D01*
X183280857Y-147189285D01*
X183209429Y-147332143D01*
X183138000Y-147403571D01*
X182995143Y-147475000D01*
X182852286Y-147475000D01*
X182709429Y-147403571D01*
X182638000Y-147332143D01*
X182566571Y-147189285D01*
X182566571Y-146832143D01*
X182638000Y-146617857D01*
X185947857Y-149403571D02*
X186019286Y-149189285D01*
X186090714Y-149117857D01*
X186233571Y-149046428D01*
X186447857Y-149046428D01*
X186590714Y-149117857D01*
X186662143Y-149189285D01*
X186733571Y-149332143D01*
X186733571Y-149903571D01*
X185233571Y-149903571D01*
X185233571Y-149403571D01*
X185305000Y-149260714D01*
X185376429Y-149189285D01*
X185519286Y-149117857D01*
X185662143Y-149117857D01*
X185805000Y-149189285D01*
X185876429Y-149260714D01*
X185947857Y-149403571D01*
X185947857Y-149903571D01*
X186305000Y-148475000D02*
X186305000Y-147760714D01*
X186733571Y-148617857D02*
X185233571Y-148117857D01*
X186733571Y-147617857D01*
X185233571Y-147332143D02*
X185233571Y-146475000D01*
X186733571Y-146903571D02*
X185233571Y-146903571D01*
X187773571Y-148903571D02*
X189273571Y-148403571D01*
X187773571Y-147903571D01*
X189202143Y-147475000D02*
X189273571Y-147260714D01*
X189273571Y-146903571D01*
X189202143Y-146760714D01*
X189130714Y-146689285D01*
X188987857Y-146617857D01*
X188845000Y-146617857D01*
X188702143Y-146689285D01*
X188630714Y-146760714D01*
X188559286Y-146903571D01*
X188487857Y-147189285D01*
X188416429Y-147332143D01*
X188345000Y-147403571D01*
X188202143Y-147475000D01*
X188059286Y-147475000D01*
X187916429Y-147403571D01*
X187845000Y-147332143D01*
X187773571Y-147189285D01*
X187773571Y-146832143D01*
X187845000Y-146617857D01*
X190385000Y-149760715D02*
X190313571Y-149903572D01*
X190313571Y-150117858D01*
X190385000Y-150332143D01*
X190527857Y-150475001D01*
X190670714Y-150546429D01*
X190956429Y-150617858D01*
X191170714Y-150617858D01*
X191456429Y-150546429D01*
X191599286Y-150475001D01*
X191742143Y-150332143D01*
X191813571Y-150117858D01*
X191813571Y-149975001D01*
X191742143Y-149760715D01*
X191670714Y-149689286D01*
X191170714Y-149689286D01*
X191170714Y-149975001D01*
X191813571Y-149046429D02*
X190313571Y-149046429D01*
X191813571Y-148189286D01*
X190313571Y-148189286D01*
X191813571Y-147475000D02*
X190313571Y-147475000D01*
X190313571Y-147117857D01*
X190385000Y-146903572D01*
X190527857Y-146760714D01*
X190670714Y-146689286D01*
X190956429Y-146617857D01*
X191170714Y-146617857D01*
X191456429Y-146689286D01*
X191599286Y-146760714D01*
X191742143Y-146903572D01*
X191813571Y-147117857D01*
X191813571Y-147475000D01*
X192853571Y-150475000D02*
X194353571Y-149975000D01*
X192853571Y-149475000D01*
X194210714Y-148117857D02*
X194282143Y-148189286D01*
X194353571Y-148403572D01*
X194353571Y-148546429D01*
X194282143Y-148760714D01*
X194139286Y-148903572D01*
X193996429Y-148975000D01*
X193710714Y-149046429D01*
X193496429Y-149046429D01*
X193210714Y-148975000D01*
X193067857Y-148903572D01*
X192925000Y-148760714D01*
X192853571Y-148546429D01*
X192853571Y-148403572D01*
X192925000Y-148189286D01*
X192996429Y-148117857D01*
X194210714Y-146617857D02*
X194282143Y-146689286D01*
X194353571Y-146903572D01*
X194353571Y-147046429D01*
X194282143Y-147260714D01*
X194139286Y-147403572D01*
X193996429Y-147475000D01*
X193710714Y-147546429D01*
X193496429Y-147546429D01*
X193210714Y-147475000D01*
X193067857Y-147403572D01*
X192925000Y-147260714D01*
X192853571Y-147046429D01*
X192853571Y-146903572D01*
X192925000Y-146689286D01*
X192996429Y-146617857D01*
D12*
X125102000Y-97044000D02*
G75*
G02X125102000Y-99044000I0J-1000000D01*
G01*
X125102000Y-99044000D02*
X125102000Y-100814000D01*
X125102000Y-100814000D02*
X160902000Y-100814000D01*
X160902000Y-100814000D02*
X160902000Y-95274000D01*
X160902000Y-95274000D02*
X125102000Y-95274000D01*
X125102000Y-95274000D02*
X125102000Y-97044000D01*
X125102000Y-103244000D02*
X160902000Y-103244000D01*
X160902000Y-103244000D02*
X160902000Y-92844000D01*
X160902000Y-92844000D02*
X125102000Y-92844000D01*
X125102000Y-92844000D02*
X125102000Y-103244000D01*
X122468000Y-135584000D02*
X122468000Y-141704000D01*
X119848000Y-135584000D02*
X119848000Y-141704000D01*
X122468000Y-135584000D02*
X122154000Y-135584000D01*
X120162000Y-135584000D02*
X119848000Y-135584000D01*
X122468000Y-141704000D02*
X122154000Y-141704000D01*
X120162000Y-141704000D02*
X119848000Y-141704000D01*
X131452000Y-127762000D02*
X131452000Y-140582000D01*
X131452000Y-140582000D02*
X134232000Y-140582000D01*
X134232000Y-140582000D02*
X134232000Y-127762000D01*
X134232000Y-127762000D02*
X131452000Y-127762000D01*
X131452000Y-126492000D02*
X131452000Y-125102000D01*
X131452000Y-125102000D02*
X132842000Y-125102000D01*
X192151000Y-143136000D02*
X181871000Y-143136000D01*
X181871000Y-143136000D02*
X181871000Y-145916000D01*
X181871000Y-145916000D02*
X192151000Y-145916000D01*
X192151000Y-145916000D02*
X192151000Y-143136000D01*
X193421000Y-143136000D02*
X194811000Y-143136000D01*
X194811000Y-143136000D02*
X194811000Y-144526000D01*
X159378000Y-143764000D02*
X159378000Y-115704000D01*
X159378000Y-115704000D02*
X154058000Y-115704000D01*
X154058000Y-115704000D02*
X154058000Y-146424000D01*
X154058000Y-146424000D02*
X156718000Y-146424000D01*
X156718000Y-146424000D02*
X156718000Y-143764000D01*
X156718000Y-143764000D02*
X159378000Y-143764000D01*
X159378000Y-145034000D02*
X159378000Y-146424000D01*
X159378000Y-146424000D02*
X157988000Y-146424000D01*
X82296000Y-113658000D02*
X95116000Y-113658000D01*
X95116000Y-113658000D02*
X95116000Y-108338000D01*
X95116000Y-108338000D02*
X79636000Y-108338000D01*
X79636000Y-108338000D02*
X79636000Y-110998000D01*
X79636000Y-110998000D02*
X82296000Y-110998000D01*
X82296000Y-110998000D02*
X82296000Y-113658000D01*
X81026000Y-113658000D02*
X79636000Y-113658000D01*
X79636000Y-113658000D02*
X79636000Y-112268000D01*
X92456000Y-82684000D02*
X79636000Y-82684000D01*
X79636000Y-82684000D02*
X79636000Y-88004000D01*
X79636000Y-88004000D02*
X95116000Y-88004000D01*
X95116000Y-88004000D02*
X95116000Y-85344000D01*
X95116000Y-85344000D02*
X92456000Y-85344000D01*
X92456000Y-85344000D02*
X92456000Y-82684000D01*
X93726000Y-82684000D02*
X95116000Y-82684000D01*
X95116000Y-82684000D02*
X95116000Y-84074000D01*
X127762000Y-113658000D02*
X140582000Y-113658000D01*
X140582000Y-113658000D02*
X140582000Y-108338000D01*
X140582000Y-108338000D02*
X125102000Y-108338000D01*
X125102000Y-108338000D02*
X125102000Y-110998000D01*
X125102000Y-110998000D02*
X127762000Y-110998000D01*
X127762000Y-110998000D02*
X127762000Y-113658000D01*
X126492000Y-113658000D02*
X125102000Y-113658000D01*
X125102000Y-113658000D02*
X125102000Y-112268000D01*
X137922000Y-82684000D02*
X125102000Y-82684000D01*
X125102000Y-82684000D02*
X125102000Y-88004000D01*
X125102000Y-88004000D02*
X140582000Y-88004000D01*
X140582000Y-88004000D02*
X140582000Y-85344000D01*
X140582000Y-85344000D02*
X137922000Y-85344000D01*
X137922000Y-85344000D02*
X137922000Y-82684000D01*
X139192000Y-82684000D02*
X140582000Y-82684000D01*
X140582000Y-82684000D02*
X140582000Y-84074000D01*
X171958000Y-113658000D02*
X184778000Y-113658000D01*
X184778000Y-113658000D02*
X184778000Y-108338000D01*
X184778000Y-108338000D02*
X169298000Y-108338000D01*
X169298000Y-108338000D02*
X169298000Y-110998000D01*
X169298000Y-110998000D02*
X171958000Y-110998000D01*
X171958000Y-110998000D02*
X171958000Y-113658000D01*
X170688000Y-113658000D02*
X169298000Y-113658000D01*
X169298000Y-113658000D02*
X169298000Y-112268000D01*
X182118000Y-82938000D02*
X169298000Y-82938000D01*
X169298000Y-82938000D02*
X169298000Y-88258000D01*
X169298000Y-88258000D02*
X184778000Y-88258000D01*
X184778000Y-88258000D02*
X184778000Y-85598000D01*
X184778000Y-85598000D02*
X182118000Y-85598000D01*
X182118000Y-85598000D02*
X182118000Y-82938000D01*
X183388000Y-82938000D02*
X184778000Y-82938000D01*
X184778000Y-82938000D02*
X184778000Y-84328000D01*
X100956000Y-123686000D02*
X104276000Y-123686000D01*
X104276000Y-123686000D02*
X104276000Y-114566000D01*
X104276000Y-114566000D02*
X100956000Y-114566000D01*
X100956000Y-114566000D02*
X100956000Y-123686000D01*
X102616000Y-124496000D02*
X102616000Y-123686000D01*
X102616000Y-113756000D02*
X102616000Y-114566000D01*
X112894000Y-123686000D02*
X116214000Y-123686000D01*
X116214000Y-123686000D02*
X116214000Y-114566000D01*
X116214000Y-114566000D02*
X112894000Y-114566000D01*
X112894000Y-114566000D02*
X112894000Y-123686000D01*
X114554000Y-124496000D02*
X114554000Y-123686000D01*
X114554000Y-113756000D02*
X114554000Y-114566000D01*
X107052000Y-123686000D02*
X110372000Y-123686000D01*
X110372000Y-123686000D02*
X110372000Y-114566000D01*
X110372000Y-114566000D02*
X107052000Y-114566000D01*
X107052000Y-114566000D02*
X107052000Y-123686000D01*
X108712000Y-124496000D02*
X108712000Y-123686000D01*
X108712000Y-113756000D02*
X108712000Y-114566000D01*
X152146000Y-111880000D02*
X162426000Y-111880000D01*
X162426000Y-111880000D02*
X162426000Y-109100000D01*
X162426000Y-109100000D02*
X152146000Y-109100000D01*
X152146000Y-109100000D02*
X152146000Y-111880000D01*
X150876000Y-111880000D02*
X149486000Y-111880000D01*
X149486000Y-111880000D02*
X149486000Y-110490000D01*
D13*
X206629000Y-119380000D02*
G75*
G03X204089000Y-116840000I-2540000J0D01*
G01*
X204089000Y-139700000D02*
G75*
G03X206629000Y-137160000I0J2540000D01*
G01*
X172847000Y-116840000D02*
G75*
G03X170307000Y-119380000I0J-2540000D01*
G01*
X170307000Y-137160000D02*
G75*
G03X172847000Y-139700000I2540000J0D01*
G01*
X172847000Y-116840000D02*
X204089000Y-116840000D01*
X170307000Y-119380000D02*
X170307000Y-137160000D01*
X172847000Y-139700000D02*
X204089000Y-139700000D01*
X206629000Y-119380000D02*
X206629000Y-137160000D01*
D12*
X79636000Y-97044000D02*
G75*
G02X79636000Y-99044000I0J-1000000D01*
G01*
X79636000Y-99044000D02*
X79636000Y-100814000D01*
X79636000Y-100814000D02*
X115436000Y-100814000D01*
X115436000Y-100814000D02*
X115436000Y-95274000D01*
X115436000Y-95274000D02*
X79636000Y-95274000D01*
X79636000Y-95274000D02*
X79636000Y-97044000D01*
X79636000Y-103244000D02*
X115436000Y-103244000D01*
X115436000Y-103244000D02*
X115436000Y-92844000D01*
X115436000Y-92844000D02*
X79636000Y-92844000D01*
X79636000Y-92844000D02*
X79636000Y-103244000D01*
X169298000Y-97044000D02*
G75*
G02X169298000Y-99044000I0J-1000000D01*
G01*
X169298000Y-99044000D02*
X169298000Y-100814000D01*
X169298000Y-100814000D02*
X205098000Y-100814000D01*
X205098000Y-100814000D02*
X205098000Y-95274000D01*
X205098000Y-95274000D02*
X169298000Y-95274000D01*
X169298000Y-95274000D02*
X169298000Y-97044000D01*
X169298000Y-103244000D02*
X205098000Y-103244000D01*
X205098000Y-103244000D02*
X205098000Y-92844000D01*
X205098000Y-92844000D02*
X169298000Y-92844000D01*
X169298000Y-92844000D02*
X169298000Y-103244000D01*
X114166000Y-143494000D02*
G75*
G02X114166000Y-141494000I0J1000000D01*
G01*
X114166000Y-141494000D02*
X114166000Y-139724000D01*
X114166000Y-139724000D02*
X78366000Y-139724000D01*
X78366000Y-139724000D02*
X78366000Y-145264000D01*
X78366000Y-145264000D02*
X114166000Y-145264000D01*
X114166000Y-145264000D02*
X114166000Y-143494000D01*
X114166000Y-137294000D02*
X78366000Y-137294000D01*
X78366000Y-137294000D02*
X78366000Y-147694000D01*
X78366000Y-147694000D02*
X114166000Y-147694000D01*
X114166000Y-147694000D02*
X114166000Y-137294000D01*
X94411000Y-130317000D02*
G75*
G02X94411000Y-135367000I0J-2525000D01*
G01*
X88161000Y-130317000D02*
G75*
G03X88161000Y-135367000I0J-2525000D01*
G01*
X94411000Y-135367000D02*
X88161000Y-135367000D01*
X94411000Y-130317000D02*
X88161000Y-130317000D01*
X95290000Y-121868000D02*
X95290000Y-127988000D01*
X92670000Y-121868000D02*
X92670000Y-127988000D01*
X95290000Y-121868000D02*
X94976000Y-121868000D01*
X92984000Y-121868000D02*
X92670000Y-121868000D01*
X95290000Y-127988000D02*
X94976000Y-127988000D01*
X92984000Y-127988000D02*
X92670000Y-127988000D01*
X90210000Y-121868000D02*
X90210000Y-127988000D01*
X87590000Y-121868000D02*
X87590000Y-127988000D01*
X90210000Y-121868000D02*
X89896000Y-121868000D01*
X87904000Y-121868000D02*
X87590000Y-121868000D01*
X90210000Y-127988000D02*
X89896000Y-127988000D01*
X87904000Y-127988000D02*
X87590000Y-127988000D01*
D13*
X123554381Y-98805905D02*
X124363905Y-98805905D01*
X124459143Y-98758286D01*
X124506762Y-98710667D01*
X124554381Y-98615429D01*
X124554381Y-98424952D01*
X124506762Y-98329714D01*
X124459143Y-98282095D01*
X124363905Y-98234476D01*
X123554381Y-98234476D01*
X123887714Y-97329714D02*
X124554381Y-97329714D01*
X123506762Y-97567810D02*
X124221048Y-97805905D01*
X124221048Y-97186857D01*
X123825143Y-138810666D02*
X123872762Y-138858285D01*
X123920381Y-139001142D01*
X123920381Y-139096380D01*
X123872762Y-139239238D01*
X123777524Y-139334476D01*
X123682286Y-139382095D01*
X123491810Y-139429714D01*
X123348952Y-139429714D01*
X123158476Y-139382095D01*
X123063238Y-139334476D01*
X122968000Y-139239238D01*
X122920381Y-139096380D01*
X122920381Y-139001142D01*
X122968000Y-138858285D01*
X123015619Y-138810666D01*
X123920381Y-137858285D02*
X123920381Y-138429714D01*
X123920381Y-138144000D02*
X122920381Y-138144000D01*
X123063238Y-138239238D01*
X123158476Y-138334476D01*
X123206095Y-138429714D01*
X132508667Y-123554381D02*
X132508667Y-124268667D01*
X132461047Y-124411524D01*
X132365809Y-124506762D01*
X132222952Y-124554381D01*
X132127714Y-124554381D01*
X133508667Y-124554381D02*
X132937238Y-124554381D01*
X133222952Y-124554381D02*
X133222952Y-123554381D01*
X133127714Y-123697238D01*
X133032476Y-123792476D01*
X132937238Y-123840095D01*
X195263381Y-144859333D02*
X195977667Y-144859333D01*
X196120524Y-144906953D01*
X196215762Y-145002191D01*
X196263381Y-145145048D01*
X196263381Y-145240286D01*
X195358619Y-144430762D02*
X195311000Y-144383143D01*
X195263381Y-144287905D01*
X195263381Y-144049809D01*
X195311000Y-143954571D01*
X195358619Y-143906952D01*
X195453857Y-143859333D01*
X195549095Y-143859333D01*
X195691952Y-143906952D01*
X196263381Y-144478381D01*
X196263381Y-143859333D01*
X156384667Y-114260381D02*
X156384667Y-114974667D01*
X156337047Y-115117524D01*
X156241809Y-115212762D01*
X156098952Y-115260381D01*
X156003714Y-115260381D01*
X156765619Y-114260381D02*
X157384667Y-114260381D01*
X157051333Y-114641333D01*
X157194191Y-114641333D01*
X157289429Y-114688952D01*
X157337048Y-114736571D01*
X157384667Y-114831810D01*
X157384667Y-115069905D01*
X157337048Y-115165143D01*
X157289429Y-115212762D01*
X157194191Y-115260381D01*
X156908476Y-115260381D01*
X156813238Y-115212762D01*
X156765619Y-115165143D01*
X78088381Y-111331333D02*
X78802667Y-111331333D01*
X78945524Y-111378953D01*
X79040762Y-111474191D01*
X79088381Y-111617048D01*
X79088381Y-111712286D01*
X78421714Y-110426571D02*
X79088381Y-110426571D01*
X78040762Y-110664667D02*
X78755048Y-110902762D01*
X78755048Y-110283714D01*
X95568381Y-85677333D02*
X96282667Y-85677333D01*
X96425524Y-85724953D01*
X96520762Y-85820191D01*
X96568381Y-85963048D01*
X96568381Y-86058286D01*
X95568381Y-84724952D02*
X95568381Y-85201143D01*
X96044571Y-85248762D01*
X95996952Y-85201143D01*
X95949333Y-85105905D01*
X95949333Y-84867809D01*
X95996952Y-84772571D01*
X96044571Y-84724952D01*
X96139810Y-84677333D01*
X96377905Y-84677333D01*
X96473143Y-84724952D01*
X96520762Y-84772571D01*
X96568381Y-84867809D01*
X96568381Y-85105905D01*
X96520762Y-85201143D01*
X96473143Y-85248762D01*
X123554381Y-111331333D02*
X124268667Y-111331333D01*
X124411524Y-111378953D01*
X124506762Y-111474191D01*
X124554381Y-111617048D01*
X124554381Y-111712286D01*
X123554381Y-110426571D02*
X123554381Y-110617048D01*
X123602000Y-110712286D01*
X123649619Y-110759905D01*
X123792476Y-110855143D01*
X123982952Y-110902762D01*
X124363905Y-110902762D01*
X124459143Y-110855143D01*
X124506762Y-110807524D01*
X124554381Y-110712286D01*
X124554381Y-110521809D01*
X124506762Y-110426571D01*
X124459143Y-110378952D01*
X124363905Y-110331333D01*
X124125810Y-110331333D01*
X124030571Y-110378952D01*
X123982952Y-110426571D01*
X123935333Y-110521809D01*
X123935333Y-110712286D01*
X123982952Y-110807524D01*
X124030571Y-110855143D01*
X124125810Y-110902762D01*
X141034381Y-85677333D02*
X141748667Y-85677333D01*
X141891524Y-85724953D01*
X141986762Y-85820191D01*
X142034381Y-85963048D01*
X142034381Y-86058286D01*
X141034381Y-85296381D02*
X141034381Y-84629714D01*
X142034381Y-85058286D01*
X167750381Y-111331333D02*
X168464667Y-111331333D01*
X168607524Y-111378953D01*
X168702762Y-111474191D01*
X168750381Y-111617048D01*
X168750381Y-111712286D01*
X168178952Y-110712286D02*
X168131333Y-110807524D01*
X168083714Y-110855143D01*
X167988476Y-110902762D01*
X167940857Y-110902762D01*
X167845619Y-110855143D01*
X167798000Y-110807524D01*
X167750381Y-110712286D01*
X167750381Y-110521809D01*
X167798000Y-110426571D01*
X167845619Y-110378952D01*
X167940857Y-110331333D01*
X167988476Y-110331333D01*
X168083714Y-110378952D01*
X168131333Y-110426571D01*
X168178952Y-110521809D01*
X168178952Y-110712286D01*
X168226571Y-110807524D01*
X168274190Y-110855143D01*
X168369429Y-110902762D01*
X168559905Y-110902762D01*
X168655143Y-110855143D01*
X168702762Y-110807524D01*
X168750381Y-110712286D01*
X168750381Y-110521809D01*
X168702762Y-110426571D01*
X168655143Y-110378952D01*
X168559905Y-110331333D01*
X168369429Y-110331333D01*
X168274190Y-110378952D01*
X168226571Y-110426571D01*
X168178952Y-110521809D01*
X185230381Y-85931333D02*
X185944667Y-85931333D01*
X186087524Y-85978953D01*
X186182762Y-86074191D01*
X186230381Y-86217048D01*
X186230381Y-86312286D01*
X186230381Y-85407524D02*
X186230381Y-85217048D01*
X186182762Y-85121809D01*
X186135143Y-85074190D01*
X185992286Y-84978952D01*
X185801810Y-84931333D01*
X185420857Y-84931333D01*
X185325619Y-84978952D01*
X185278000Y-85026571D01*
X185230381Y-85121809D01*
X185230381Y-85312286D01*
X185278000Y-85407524D01*
X185325619Y-85455143D01*
X185420857Y-85502762D01*
X185658952Y-85502762D01*
X185754190Y-85455143D01*
X185801810Y-85407524D01*
X185849429Y-85312286D01*
X185849429Y-85121809D01*
X185801810Y-85026571D01*
X185754190Y-84978952D01*
X185658952Y-84931333D01*
X102948381Y-119292666D02*
X102472190Y-119626000D01*
X102948381Y-119864095D02*
X101948381Y-119864095D01*
X101948381Y-119483142D01*
X101996000Y-119387904D01*
X102043619Y-119340285D01*
X102138857Y-119292666D01*
X102281714Y-119292666D01*
X102376952Y-119340285D01*
X102424571Y-119387904D01*
X102472190Y-119483142D01*
X102472190Y-119864095D01*
X102948381Y-118340285D02*
X102948381Y-118911714D01*
X102948381Y-118626000D02*
X101948381Y-118626000D01*
X102091238Y-118721238D01*
X102186476Y-118816476D01*
X102234095Y-118911714D01*
X114886381Y-119292666D02*
X114410190Y-119626000D01*
X114886381Y-119864095D02*
X113886381Y-119864095D01*
X113886381Y-119483142D01*
X113934000Y-119387904D01*
X113981619Y-119340285D01*
X114076857Y-119292666D01*
X114219714Y-119292666D01*
X114314952Y-119340285D01*
X114362571Y-119387904D01*
X114410190Y-119483142D01*
X114410190Y-119864095D01*
X113981619Y-118911714D02*
X113934000Y-118864095D01*
X113886381Y-118768857D01*
X113886381Y-118530761D01*
X113934000Y-118435523D01*
X113981619Y-118387904D01*
X114076857Y-118340285D01*
X114172095Y-118340285D01*
X114314952Y-118387904D01*
X114886381Y-118959333D01*
X114886381Y-118340285D01*
X109044381Y-119292666D02*
X108568190Y-119626000D01*
X109044381Y-119864095D02*
X108044381Y-119864095D01*
X108044381Y-119483142D01*
X108092000Y-119387904D01*
X108139619Y-119340285D01*
X108234857Y-119292666D01*
X108377714Y-119292666D01*
X108472952Y-119340285D01*
X108520571Y-119387904D01*
X108568190Y-119483142D01*
X108568190Y-119864095D01*
X108044381Y-118959333D02*
X108044381Y-118340285D01*
X108425333Y-118673619D01*
X108425333Y-118530761D01*
X108472952Y-118435523D01*
X108520571Y-118387904D01*
X108615810Y-118340285D01*
X108853905Y-118340285D01*
X108949143Y-118387904D01*
X108996762Y-118435523D01*
X109044381Y-118530761D01*
X109044381Y-118816476D01*
X108996762Y-118911714D01*
X108949143Y-118959333D01*
X148890762Y-111823333D02*
X148938381Y-111680476D01*
X148938381Y-111442380D01*
X148890762Y-111347142D01*
X148843143Y-111299523D01*
X148747905Y-111251904D01*
X148652667Y-111251904D01*
X148557429Y-111299523D01*
X148509810Y-111347142D01*
X148462190Y-111442380D01*
X148414571Y-111632857D01*
X148366952Y-111728095D01*
X148319333Y-111775714D01*
X148224095Y-111823333D01*
X148128857Y-111823333D01*
X148033619Y-111775714D01*
X147986000Y-111728095D01*
X147938381Y-111632857D01*
X147938381Y-111394761D01*
X147986000Y-111251904D01*
X147938381Y-110918571D02*
X148938381Y-110680476D01*
X148224095Y-110489999D01*
X148938381Y-110299523D01*
X147938381Y-110061428D01*
X148938381Y-109156666D02*
X148938381Y-109728095D01*
X148938381Y-109442381D02*
X147938381Y-109442381D01*
X148081238Y-109537619D01*
X148176476Y-109632857D01*
X148224095Y-109728095D01*
X187325095Y-128992381D02*
X187325095Y-129801905D01*
X187372714Y-129897143D01*
X187420333Y-129944762D01*
X187515571Y-129992381D01*
X187706048Y-129992381D01*
X187801286Y-129944762D01*
X187848905Y-129897143D01*
X187896524Y-129801905D01*
X187896524Y-128992381D01*
X188325095Y-129087619D02*
X188372714Y-129040000D01*
X188467952Y-128992381D01*
X188706048Y-128992381D01*
X188801286Y-129040000D01*
X188848905Y-129087619D01*
X188896524Y-129182857D01*
X188896524Y-129278095D01*
X188848905Y-129420952D01*
X188277476Y-129992381D01*
X188896524Y-129992381D01*
X181277475Y-124912381D02*
X181277475Y-123912381D01*
X181658428Y-123912381D01*
X181753666Y-123960000D01*
X181801285Y-124007619D01*
X181848904Y-124102857D01*
X181848904Y-124245714D01*
X181801285Y-124340952D01*
X181753666Y-124388571D01*
X181658428Y-124436190D01*
X181277475Y-124436190D01*
X182420332Y-124912381D02*
X182325094Y-124864762D01*
X182277475Y-124817143D01*
X182229856Y-124721905D01*
X182229856Y-124436190D01*
X182277475Y-124340952D01*
X182325094Y-124293333D01*
X182420332Y-124245714D01*
X182563190Y-124245714D01*
X182658428Y-124293333D01*
X182706047Y-124340952D01*
X182753666Y-124436190D01*
X182753666Y-124721905D01*
X182706047Y-124817143D01*
X182658428Y-124864762D01*
X182563190Y-124912381D01*
X182420332Y-124912381D01*
X183086999Y-124245714D02*
X183277475Y-124912381D01*
X183467952Y-124436190D01*
X183658428Y-124912381D01*
X183848904Y-124245714D01*
X184610809Y-124864762D02*
X184515571Y-124912381D01*
X184325094Y-124912381D01*
X184229856Y-124864762D01*
X184182237Y-124769524D01*
X184182237Y-124388571D01*
X184229856Y-124293333D01*
X184325094Y-124245714D01*
X184515571Y-124245714D01*
X184610809Y-124293333D01*
X184658428Y-124388571D01*
X184658428Y-124483810D01*
X184182237Y-124579048D01*
X185086999Y-124912381D02*
X185086999Y-124245714D01*
X185086999Y-124436190D02*
X185134618Y-124340952D01*
X185182237Y-124293333D01*
X185277475Y-124245714D01*
X185372714Y-124245714D01*
X185706047Y-124912381D02*
X185706047Y-123912381D01*
X185706047Y-124293333D02*
X185801285Y-124245714D01*
X185991762Y-124245714D01*
X186087000Y-124293333D01*
X186134619Y-124340952D01*
X186182238Y-124436190D01*
X186182238Y-124721905D01*
X186134619Y-124817143D01*
X186087000Y-124864762D01*
X185991762Y-124912381D01*
X185801285Y-124912381D01*
X185706047Y-124864762D01*
X186753666Y-124912381D02*
X186658428Y-124864762D01*
X186610809Y-124817143D01*
X186563190Y-124721905D01*
X186563190Y-124436190D01*
X186610809Y-124340952D01*
X186658428Y-124293333D01*
X186753666Y-124245714D01*
X186896524Y-124245714D01*
X186991762Y-124293333D01*
X187039381Y-124340952D01*
X187087000Y-124436190D01*
X187087000Y-124721905D01*
X187039381Y-124817143D01*
X186991762Y-124864762D01*
X186896524Y-124912381D01*
X186753666Y-124912381D01*
X187658428Y-124912381D02*
X187563190Y-124864762D01*
X187515571Y-124817143D01*
X187467952Y-124721905D01*
X187467952Y-124436190D01*
X187515571Y-124340952D01*
X187563190Y-124293333D01*
X187658428Y-124245714D01*
X187801286Y-124245714D01*
X187896524Y-124293333D01*
X187944143Y-124340952D01*
X187991762Y-124436190D01*
X187991762Y-124721905D01*
X187944143Y-124817143D01*
X187896524Y-124864762D01*
X187801286Y-124912381D01*
X187658428Y-124912381D01*
X188372714Y-124864762D02*
X188467952Y-124912381D01*
X188658428Y-124912381D01*
X188753667Y-124864762D01*
X188801286Y-124769524D01*
X188801286Y-124721905D01*
X188753667Y-124626667D01*
X188658428Y-124579048D01*
X188515571Y-124579048D01*
X188420333Y-124531429D01*
X188372714Y-124436190D01*
X188372714Y-124388571D01*
X188420333Y-124293333D01*
X188515571Y-124245714D01*
X188658428Y-124245714D01*
X188753667Y-124293333D01*
X189087000Y-124245714D02*
X189467952Y-124245714D01*
X189229857Y-123912381D02*
X189229857Y-124769524D01*
X189277476Y-124864762D01*
X189372714Y-124912381D01*
X189467952Y-124912381D01*
X191087001Y-124912381D02*
X190515572Y-124912381D01*
X190801286Y-124912381D02*
X190801286Y-123912381D01*
X190706048Y-124055238D01*
X190610810Y-124150476D01*
X190515572Y-124198095D01*
X191706048Y-123912381D02*
X191801287Y-123912381D01*
X191896525Y-123960000D01*
X191944144Y-124007619D01*
X191991763Y-124102857D01*
X192039382Y-124293333D01*
X192039382Y-124531429D01*
X191991763Y-124721905D01*
X191944144Y-124817143D01*
X191896525Y-124864762D01*
X191801287Y-124912381D01*
X191706048Y-124912381D01*
X191610810Y-124864762D01*
X191563191Y-124817143D01*
X191515572Y-124721905D01*
X191467953Y-124531429D01*
X191467953Y-124293333D01*
X191515572Y-124102857D01*
X191563191Y-124007619D01*
X191610810Y-123960000D01*
X191706048Y-123912381D01*
X192658429Y-123912381D02*
X192753668Y-123912381D01*
X192848906Y-123960000D01*
X192896525Y-124007619D01*
X192944144Y-124102857D01*
X192991763Y-124293333D01*
X192991763Y-124531429D01*
X192944144Y-124721905D01*
X192896525Y-124817143D01*
X192848906Y-124864762D01*
X192753668Y-124912381D01*
X192658429Y-124912381D01*
X192563191Y-124864762D01*
X192515572Y-124817143D01*
X192467953Y-124721905D01*
X192420334Y-124531429D01*
X192420334Y-124293333D01*
X192467953Y-124102857D01*
X192515572Y-124007619D01*
X192563191Y-123960000D01*
X192658429Y-123912381D01*
X193610810Y-123912381D02*
X193706049Y-123912381D01*
X193801287Y-123960000D01*
X193848906Y-124007619D01*
X193896525Y-124102857D01*
X193944144Y-124293333D01*
X193944144Y-124531429D01*
X193896525Y-124721905D01*
X193848906Y-124817143D01*
X193801287Y-124864762D01*
X193706049Y-124912381D01*
X193610810Y-124912381D01*
X193515572Y-124864762D01*
X193467953Y-124817143D01*
X193420334Y-124721905D01*
X193372715Y-124531429D01*
X193372715Y-124293333D01*
X193420334Y-124102857D01*
X193467953Y-124007619D01*
X193515572Y-123960000D01*
X193610810Y-123912381D01*
X194944144Y-124817143D02*
X194896525Y-124864762D01*
X194753668Y-124912381D01*
X194658430Y-124912381D01*
X194515572Y-124864762D01*
X194420334Y-124769524D01*
X194372715Y-124674286D01*
X194325096Y-124483810D01*
X194325096Y-124340952D01*
X194372715Y-124150476D01*
X194420334Y-124055238D01*
X194515572Y-123960000D01*
X194658430Y-123912381D01*
X194753668Y-123912381D01*
X194896525Y-123960000D01*
X194944144Y-124007619D01*
X78088381Y-98805905D02*
X78897905Y-98805905D01*
X78993143Y-98758286D01*
X79040762Y-98710667D01*
X79088381Y-98615429D01*
X79088381Y-98424952D01*
X79040762Y-98329714D01*
X78993143Y-98282095D01*
X78897905Y-98234476D01*
X78088381Y-98234476D01*
X78088381Y-97853524D02*
X78088381Y-97234476D01*
X78469333Y-97567810D01*
X78469333Y-97424952D01*
X78516952Y-97329714D01*
X78564571Y-97282095D01*
X78659810Y-97234476D01*
X78897905Y-97234476D01*
X78993143Y-97282095D01*
X79040762Y-97329714D01*
X79088381Y-97424952D01*
X79088381Y-97710667D01*
X79040762Y-97805905D01*
X78993143Y-97853524D01*
X167750381Y-98805905D02*
X168559905Y-98805905D01*
X168655143Y-98758286D01*
X168702762Y-98710667D01*
X168750381Y-98615429D01*
X168750381Y-98424952D01*
X168702762Y-98329714D01*
X168655143Y-98282095D01*
X168559905Y-98234476D01*
X167750381Y-98234476D01*
X167750381Y-97282095D02*
X167750381Y-97758286D01*
X168226571Y-97805905D01*
X168178952Y-97758286D01*
X168131333Y-97663048D01*
X168131333Y-97424952D01*
X168178952Y-97329714D01*
X168226571Y-97282095D01*
X168321810Y-97234476D01*
X168559905Y-97234476D01*
X168655143Y-97282095D01*
X168702762Y-97329714D01*
X168750381Y-97424952D01*
X168750381Y-97663048D01*
X168702762Y-97758286D01*
X168655143Y-97805905D01*
X114618381Y-143255905D02*
X115427905Y-143255905D01*
X115523143Y-143208286D01*
X115570762Y-143160667D01*
X115618381Y-143065429D01*
X115618381Y-142874952D01*
X115570762Y-142779714D01*
X115523143Y-142732095D01*
X115427905Y-142684476D01*
X114618381Y-142684476D01*
X114618381Y-141779714D02*
X114618381Y-141970191D01*
X114666000Y-142065429D01*
X114713619Y-142113048D01*
X114856476Y-142208286D01*
X115046952Y-142255905D01*
X115427905Y-142255905D01*
X115523143Y-142208286D01*
X115570762Y-142160667D01*
X115618381Y-142065429D01*
X115618381Y-141874952D01*
X115570762Y-141779714D01*
X115523143Y-141732095D01*
X115427905Y-141684476D01*
X115189810Y-141684476D01*
X115094571Y-141732095D01*
X115046952Y-141779714D01*
X114999333Y-141874952D01*
X114999333Y-142065429D01*
X115046952Y-142160667D01*
X115094571Y-142208286D01*
X115189810Y-142255905D01*
X90709809Y-129262190D02*
X90709809Y-129738381D01*
X90376476Y-128738381D02*
X90709809Y-129262190D01*
X91043143Y-128738381D01*
X91900286Y-129738381D02*
X91328857Y-129738381D01*
X91614571Y-129738381D02*
X91614571Y-128738381D01*
X91519333Y-128881238D01*
X91424095Y-128976476D01*
X91328857Y-129024095D01*
X96647143Y-125094666D02*
X96694762Y-125142285D01*
X96742381Y-125285142D01*
X96742381Y-125380380D01*
X96694762Y-125523238D01*
X96599524Y-125618476D01*
X96504286Y-125666095D01*
X96313810Y-125713714D01*
X96170952Y-125713714D01*
X95980476Y-125666095D01*
X95885238Y-125618476D01*
X95790000Y-125523238D01*
X95742381Y-125380380D01*
X95742381Y-125285142D01*
X95790000Y-125142285D01*
X95837619Y-125094666D01*
X95837619Y-124713714D02*
X95790000Y-124666095D01*
X95742381Y-124570857D01*
X95742381Y-124332761D01*
X95790000Y-124237523D01*
X95837619Y-124189904D01*
X95932857Y-124142285D01*
X96028095Y-124142285D01*
X96170952Y-124189904D01*
X96742381Y-124761333D01*
X96742381Y-124142285D01*
X91567143Y-125094666D02*
X91614762Y-125142285D01*
X91662381Y-125285142D01*
X91662381Y-125380380D01*
X91614762Y-125523238D01*
X91519524Y-125618476D01*
X91424286Y-125666095D01*
X91233810Y-125713714D01*
X91090952Y-125713714D01*
X90900476Y-125666095D01*
X90805238Y-125618476D01*
X90710000Y-125523238D01*
X90662381Y-125380380D01*
X90662381Y-125285142D01*
X90710000Y-125142285D01*
X90757619Y-125094666D01*
X90662381Y-124761333D02*
X90662381Y-124142285D01*
X91043333Y-124475619D01*
X91043333Y-124332761D01*
X91090952Y-124237523D01*
X91138571Y-124189904D01*
X91233810Y-124142285D01*
X91471905Y-124142285D01*
X91567143Y-124189904D01*
X91614762Y-124237523D01*
X91662381Y-124332761D01*
X91662381Y-124618476D01*
X91614762Y-124713714D01*
X91567143Y-124761333D01*
X74866667Y-71352381D02*
X74533333Y-70876190D01*
X74295238Y-71352381D02*
X74295238Y-70352381D01*
X74676191Y-70352381D01*
X74771429Y-70400000D01*
X74819048Y-70447619D01*
X74866667Y-70542857D01*
X74866667Y-70685714D01*
X74819048Y-70780952D01*
X74771429Y-70828571D01*
X74676191Y-70876190D01*
X74295238Y-70876190D01*
X75295238Y-70828571D02*
X75628572Y-70828571D01*
X75771429Y-71352381D02*
X75295238Y-71352381D01*
X75295238Y-70352381D01*
X75771429Y-70352381D01*
X76533334Y-70828571D02*
X76200000Y-70828571D01*
X76200000Y-71352381D02*
X76200000Y-70352381D01*
X76676191Y-70352381D01*
X77200000Y-70352381D02*
X77200000Y-70590476D01*
X76961905Y-70495238D02*
X77200000Y-70590476D01*
X77438096Y-70495238D01*
X77057143Y-70780952D02*
X77200000Y-70590476D01*
X77342858Y-70780952D01*
X77961905Y-70352381D02*
X77961905Y-70590476D01*
X77723810Y-70495238D02*
X77961905Y-70590476D01*
X78200001Y-70495238D01*
X77819048Y-70780952D02*
X77961905Y-70590476D01*
X78104763Y-70780952D01*
X74866667Y-147552381D02*
X74533333Y-147076190D01*
X74295238Y-147552381D02*
X74295238Y-146552381D01*
X74676191Y-146552381D01*
X74771429Y-146600000D01*
X74819048Y-146647619D01*
X74866667Y-146742857D01*
X74866667Y-146885714D01*
X74819048Y-146980952D01*
X74771429Y-147028571D01*
X74676191Y-147076190D01*
X74295238Y-147076190D01*
X75295238Y-147028571D02*
X75628572Y-147028571D01*
X75771429Y-147552381D02*
X75295238Y-147552381D01*
X75295238Y-146552381D01*
X75771429Y-146552381D01*
X76533334Y-147028571D02*
X76200000Y-147028571D01*
X76200000Y-147552381D02*
X76200000Y-146552381D01*
X76676191Y-146552381D01*
X77200000Y-146552381D02*
X77200000Y-146790476D01*
X76961905Y-146695238D02*
X77200000Y-146790476D01*
X77438096Y-146695238D01*
X77057143Y-146980952D02*
X77200000Y-146790476D01*
X77342858Y-146980952D01*
X77961905Y-146552381D02*
X77961905Y-146790476D01*
X77723810Y-146695238D02*
X77961905Y-146790476D01*
X78200001Y-146695238D01*
X77819048Y-146980952D02*
X77961905Y-146790476D01*
X78104763Y-146980952D01*
X201866667Y-147552381D02*
X201533333Y-147076190D01*
X201295238Y-147552381D02*
X201295238Y-146552381D01*
X201676191Y-146552381D01*
X201771429Y-146600000D01*
X201819048Y-146647619D01*
X201866667Y-146742857D01*
X201866667Y-146885714D01*
X201819048Y-146980952D01*
X201771429Y-147028571D01*
X201676191Y-147076190D01*
X201295238Y-147076190D01*
X202295238Y-147028571D02*
X202628572Y-147028571D01*
X202771429Y-147552381D02*
X202295238Y-147552381D01*
X202295238Y-146552381D01*
X202771429Y-146552381D01*
X203533334Y-147028571D02*
X203200000Y-147028571D01*
X203200000Y-147552381D02*
X203200000Y-146552381D01*
X203676191Y-146552381D01*
X204200000Y-146552381D02*
X204200000Y-146790476D01*
X203961905Y-146695238D02*
X204200000Y-146790476D01*
X204438096Y-146695238D01*
X204057143Y-146980952D02*
X204200000Y-146790476D01*
X204342858Y-146980952D01*
X204961905Y-146552381D02*
X204961905Y-146790476D01*
X204723810Y-146695238D02*
X204961905Y-146790476D01*
X205200001Y-146695238D01*
X204819048Y-146980952D02*
X204961905Y-146790476D01*
X205104763Y-146980952D01*
X201866667Y-71352381D02*
X201533333Y-70876190D01*
X201295238Y-71352381D02*
X201295238Y-70352381D01*
X201676191Y-70352381D01*
X201771429Y-70400000D01*
X201819048Y-70447619D01*
X201866667Y-70542857D01*
X201866667Y-70685714D01*
X201819048Y-70780952D01*
X201771429Y-70828571D01*
X201676191Y-70876190D01*
X201295238Y-70876190D01*
X202295238Y-70828571D02*
X202628572Y-70828571D01*
X202771429Y-71352381D02*
X202295238Y-71352381D01*
X202295238Y-70352381D01*
X202771429Y-70352381D01*
X203533334Y-70828571D02*
X203200000Y-70828571D01*
X203200000Y-71352381D02*
X203200000Y-70352381D01*
X203676191Y-70352381D01*
X204200000Y-70352381D02*
X204200000Y-70590476D01*
X203961905Y-70495238D02*
X204200000Y-70590476D01*
X204438096Y-70495238D01*
X204057143Y-70780952D02*
X204200000Y-70590476D01*
X204342858Y-70780952D01*
X204961905Y-70352381D02*
X204961905Y-70590476D01*
X204723810Y-70495238D02*
X204961905Y-70590476D01*
X205200001Y-70495238D01*
X204819048Y-70780952D02*
X204961905Y-70590476D01*
X205104763Y-70780952D01*
M02*
