G04 #@! TF.FileFunction,Legend,Bot*
%FSLAX46Y46*%
G04 Gerber Fmt 4.6, Leading zero omitted, Abs format (unit mm)*
G04 Created by KiCad (PCBNEW 4.0.6) date 03/20/17 19:24:42*
%MOMM*%
%LPD*%
G01*
G04 APERTURE LIST*
%ADD10C,0.100000*%
%ADD11C,0.150000*%
G04 APERTURE END LIST*
D10*
D11*
X130152285Y-122356571D02*
X130295142Y-122404190D01*
X130342761Y-122451810D01*
X130390380Y-122547048D01*
X130390380Y-122689905D01*
X130342761Y-122785143D01*
X130295142Y-122832762D01*
X130199904Y-122880381D01*
X129818951Y-122880381D01*
X129818951Y-121880381D01*
X130152285Y-121880381D01*
X130247523Y-121928000D01*
X130295142Y-121975619D01*
X130342761Y-122070857D01*
X130342761Y-122166095D01*
X130295142Y-122261333D01*
X130247523Y-122308952D01*
X130152285Y-122356571D01*
X129818951Y-122356571D01*
X130961808Y-122880381D02*
X130866570Y-122832762D01*
X130818951Y-122737524D01*
X130818951Y-121880381D01*
X131771333Y-122213714D02*
X131771333Y-122880381D01*
X131342761Y-122213714D02*
X131342761Y-122737524D01*
X131390380Y-122832762D01*
X131485618Y-122880381D01*
X131628476Y-122880381D01*
X131723714Y-122832762D01*
X131771333Y-122785143D01*
X132628476Y-122832762D02*
X132533238Y-122880381D01*
X132342761Y-122880381D01*
X132247523Y-122832762D01*
X132199904Y-122737524D01*
X132199904Y-122356571D01*
X132247523Y-122261333D01*
X132342761Y-122213714D01*
X132533238Y-122213714D01*
X132628476Y-122261333D01*
X132676095Y-122356571D01*
X132676095Y-122451810D01*
X132199904Y-122547048D01*
X132961809Y-122213714D02*
X133342761Y-122213714D01*
X133104666Y-122880381D02*
X133104666Y-122023238D01*
X133152285Y-121928000D01*
X133247523Y-121880381D01*
X133342761Y-121880381D01*
X133676095Y-122880381D02*
X133676095Y-122213714D01*
X133676095Y-122404190D02*
X133723714Y-122308952D01*
X133771333Y-122261333D01*
X133866571Y-122213714D01*
X133961810Y-122213714D01*
X134723715Y-122213714D02*
X134723715Y-122880381D01*
X134295143Y-122213714D02*
X134295143Y-122737524D01*
X134342762Y-122832762D01*
X134438000Y-122880381D01*
X134580858Y-122880381D01*
X134676096Y-122832762D01*
X134723715Y-122785143D01*
X135199905Y-122880381D02*
X135199905Y-122213714D01*
X135199905Y-121880381D02*
X135152286Y-121928000D01*
X135199905Y-121975619D01*
X135247524Y-121928000D01*
X135199905Y-121880381D01*
X135199905Y-121975619D01*
X135533238Y-122213714D02*
X135914190Y-122213714D01*
X135676095Y-121880381D02*
X135676095Y-122737524D01*
X135723714Y-122832762D01*
X135818952Y-122880381D01*
X135914190Y-122880381D01*
X137485620Y-122880381D02*
X137009429Y-122880381D01*
X137009429Y-121880381D01*
X137818953Y-122356571D02*
X138152287Y-122356571D01*
X138295144Y-122880381D02*
X137818953Y-122880381D01*
X137818953Y-121880381D01*
X138295144Y-121880381D01*
X139485620Y-121880381D02*
X139485620Y-122689905D01*
X139533239Y-122785143D01*
X139580858Y-122832762D01*
X139676096Y-122880381D01*
X139866573Y-122880381D01*
X139961811Y-122832762D01*
X140009430Y-122785143D01*
X140057049Y-122689905D01*
X140057049Y-121880381D01*
X140485620Y-122594667D02*
X140961811Y-122594667D01*
X140390382Y-122880381D02*
X140723715Y-121880381D01*
X141057049Y-122880381D01*
X141961811Y-122880381D02*
X141628477Y-122404190D01*
X141390382Y-122880381D02*
X141390382Y-121880381D01*
X141771335Y-121880381D01*
X141866573Y-121928000D01*
X141914192Y-121975619D01*
X141961811Y-122070857D01*
X141961811Y-122213714D01*
X141914192Y-122308952D01*
X141866573Y-122356571D01*
X141771335Y-122404190D01*
X141390382Y-122404190D01*
X142247525Y-121880381D02*
X142818954Y-121880381D01*
X142533239Y-122880381D02*
X142533239Y-121880381D01*
X144247526Y-122356571D02*
X143914192Y-122356571D01*
X143914192Y-122880381D02*
X143914192Y-121880381D01*
X144390383Y-121880381D01*
X144771335Y-122880381D02*
X144771335Y-122213714D01*
X144771335Y-122404190D02*
X144818954Y-122308952D01*
X144866573Y-122261333D01*
X144961811Y-122213714D01*
X145057050Y-122213714D01*
X145390383Y-122880381D02*
X145390383Y-122213714D01*
X145390383Y-121880381D02*
X145342764Y-121928000D01*
X145390383Y-121975619D01*
X145438002Y-121928000D01*
X145390383Y-121880381D01*
X145390383Y-121975619D01*
X146247526Y-122832762D02*
X146152288Y-122880381D01*
X145961811Y-122880381D01*
X145866573Y-122832762D01*
X145818954Y-122737524D01*
X145818954Y-122356571D01*
X145866573Y-122261333D01*
X145961811Y-122213714D01*
X146152288Y-122213714D01*
X146247526Y-122261333D01*
X146295145Y-122356571D01*
X146295145Y-122451810D01*
X145818954Y-122547048D01*
X146723716Y-122213714D02*
X146723716Y-122880381D01*
X146723716Y-122308952D02*
X146771335Y-122261333D01*
X146866573Y-122213714D01*
X147009431Y-122213714D01*
X147104669Y-122261333D01*
X147152288Y-122356571D01*
X147152288Y-122880381D01*
X148057050Y-122880381D02*
X148057050Y-121880381D01*
X148057050Y-122832762D02*
X147961812Y-122880381D01*
X147771335Y-122880381D01*
X147676097Y-122832762D01*
X147628478Y-122785143D01*
X147580859Y-122689905D01*
X147580859Y-122404190D01*
X147628478Y-122308952D01*
X147676097Y-122261333D01*
X147771335Y-122213714D01*
X147961812Y-122213714D01*
X148057050Y-122261333D01*
X130810000Y-148844000D02*
X147066000Y-148844000D01*
X128270000Y-117094000D02*
X128270000Y-146304000D01*
X149606000Y-117094000D02*
X128270000Y-117094000D01*
X130810000Y-148844000D02*
G75*
G02X128270000Y-146304000I0J2540000D01*
G01*
X149606000Y-146304000D02*
G75*
G02X147066000Y-148844000I-2540000J0D01*
G01*
X149606000Y-117094000D02*
X149606000Y-146304000D01*
X140715905Y-133310381D02*
X140715905Y-134119905D01*
X140668286Y-134215143D01*
X140620667Y-134262762D01*
X140525429Y-134310381D01*
X140334952Y-134310381D01*
X140239714Y-134262762D01*
X140192095Y-134215143D01*
X140144476Y-134119905D01*
X140144476Y-133310381D01*
X139144476Y-134310381D02*
X139715905Y-134310381D01*
X139430191Y-134310381D02*
X139430191Y-133310381D01*
X139525429Y-133453238D01*
X139620667Y-133548476D01*
X139715905Y-133596095D01*
M02*
