M48
;DRILL file {KiCad 4.0.6} date 03/20/17 19:24:29
;FORMAT={-:-/ absolute / inch / decimal}
FMAT,2
INCH,TZ
T1C0.013
T2C0.030
T3C0.031
T4C0.039
T5C0.169
%
G90
G05
M72
T1
X3.31Y-3.12
X3.39Y-4.52
X3.43Y-3.25
X3.49Y-3.21
X3.52Y-4.55
X3.53Y-3.18
X3.75Y-5.96
X3.79Y-5.56
X3.83Y-5.93
X3.96Y-5.32
X4.11Y-5.36
X4.16Y-5.7
X4.23Y-5.66
X4.33Y-4.11
X4.43Y-4.19
X4.43Y-4.25
X4.57Y-5.13
X4.62Y-5.01
X4.64Y-5.62
X4.66Y-3.54
X4.68Y-3.83
X4.9Y-4.47
X4.99Y-4.52
X5.0605Y-4.547
X5.16Y-5.71
X5.19Y-5.65
X5.23Y-3.25
X5.29Y-3.21
X5.32Y-4.87
X5.36Y-3.18
X5.36Y-4.84
X5.37Y-4.58
X5.4Y-4.8
X5.42Y-4.77
X5.62Y-4.88
X5.7059Y-5.0041
X5.73Y-4.6
X5.75Y-3.86
X5.76Y-4.56
X5.79Y-4.52
X5.79Y-5.71
X5.8Y-5.93
X5.82Y-4.48
X5.83Y-5.65
X5.87Y-4.17
X5.87Y-5.96
X6.Y-3.92
X6.02Y-5.92
X6.12Y-4.44
X6.32Y-3.81
X6.38Y-3.92
X6.49Y-3.7
X6.51Y-4.08
X6.51Y-4.37
X6.54Y-4.3
X6.56Y-4.01
X6.62Y-4.28
X6.66Y-4.05
X6.92Y-3.11
X6.99Y-3.96
X7.04Y-4.9
X7.08Y-4.98
X7.12Y-3.92
X7.16Y-5.11
X7.18Y-5.18
X7.18Y-5.23
X7.42Y-4.54
X7.47Y-4.46
X7.56Y-4.33
X7.66Y-3.92
T2
X5.12Y-4.71
X5.22Y-4.71
X5.32Y-4.71
X5.42Y-4.71
X5.52Y-4.71
X5.62Y-4.71
X5.72Y-4.71
X5.82Y-4.71
X7.21Y-5.45
X7.31Y-5.45
X7.41Y-5.45
X7.51Y-5.45
X7.61Y-5.45
X7.71Y-5.45
X7.81Y-5.45
X7.91Y-5.45
X8.04Y-4.9672
X8.04Y-5.105
T3
X3.14Y-5.46
X3.14Y-5.76
X3.19Y-3.71
X3.19Y-4.01
X3.24Y-5.46
X3.24Y-5.76
X3.29Y-3.71
X3.29Y-4.01
X3.34Y-5.46
X3.34Y-5.76
X3.39Y-3.71
X3.39Y-4.01
X3.44Y-5.46
X3.44Y-5.76
X3.49Y-3.71
X3.49Y-4.01
X3.4979Y-5.23
X3.5Y-4.82
X3.5Y-5.0169
X3.54Y-5.46
X3.54Y-5.76
X3.59Y-3.71
X3.59Y-4.01
X3.64Y-5.46
X3.64Y-5.76
X3.69Y-3.71
X3.69Y-4.01
X3.69Y-5.23
X3.7Y-4.82
X3.7Y-5.0169
X3.74Y-5.46
X3.74Y-5.76
X3.79Y-3.71
X3.79Y-4.01
X3.84Y-5.46
X3.84Y-5.76
X3.89Y-3.71
X3.89Y-4.01
X3.94Y-5.46
X3.94Y-5.76
X3.99Y-3.71
X3.99Y-4.01
X4.04Y-4.44
X4.04Y-4.94
X4.04Y-5.46
X4.04Y-5.76
X4.09Y-3.71
X4.09Y-4.01
X4.14Y-5.46
X4.14Y-5.76
X4.19Y-3.71
X4.19Y-4.01
X4.24Y-5.46
X4.24Y-5.76
X4.28Y-4.44
X4.28Y-4.94
X4.29Y-3.71
X4.29Y-4.01
X4.34Y-5.46
X4.34Y-5.76
X4.39Y-3.71
X4.39Y-4.01
X4.44Y-5.46
X4.44Y-5.76
X4.49Y-3.71
X4.49Y-4.01
X4.51Y-4.44
X4.51Y-4.94
X4.77Y-5.36
X4.77Y-5.5569
X4.98Y-3.71
X4.98Y-4.01
X5.08Y-3.71
X5.08Y-4.01
X5.18Y-3.71
X5.18Y-4.01
X5.28Y-3.71
X5.28Y-4.01
X5.38Y-3.71
X5.38Y-4.01
X5.48Y-3.71
X5.48Y-4.01
X5.58Y-3.71
X5.58Y-4.01
X5.68Y-3.71
X5.68Y-4.01
X5.78Y-3.71
X5.78Y-4.01
X5.88Y-3.71
X5.88Y-4.01
X5.98Y-3.71
X5.98Y-4.01
X6.08Y-3.71
X6.08Y-4.01
X6.18Y-3.71
X6.18Y-4.01
X6.28Y-3.71
X6.28Y-4.01
X6.72Y-3.71
X6.72Y-4.01
X6.82Y-3.71
X6.82Y-4.01
X6.92Y-3.71
X6.92Y-4.01
X7.02Y-3.71
X7.02Y-4.01
X7.12Y-3.71
X7.12Y-4.01
X7.22Y-3.71
X7.22Y-4.01
X7.32Y-3.71
X7.32Y-4.01
X7.42Y-3.71
X7.42Y-4.01
X7.52Y-3.71
X7.52Y-4.01
X7.62Y-3.71
X7.62Y-4.01
X7.72Y-3.71
X7.72Y-4.01
X7.82Y-3.71
X7.82Y-4.01
X7.92Y-3.71
X7.92Y-4.01
X8.02Y-3.71
X8.02Y-4.01
T4
X3.19Y-3.31
X3.19Y-3.41
X3.19Y-4.32
X3.19Y-4.42
X3.29Y-3.31
X3.29Y-3.41
X3.29Y-4.32
X3.29Y-4.42
X3.39Y-3.31
X3.39Y-3.41
X3.39Y-4.32
X3.39Y-4.42
X3.49Y-3.31
X3.49Y-3.41
X3.49Y-4.32
X3.49Y-4.42
X3.59Y-3.31
X3.59Y-3.41
X3.59Y-4.32
X3.59Y-4.42
X3.69Y-3.31
X3.69Y-3.41
X3.69Y-4.32
X3.69Y-4.42
X4.98Y-3.31
X4.98Y-3.41
X4.98Y-4.32
X4.98Y-4.42
X5.08Y-3.31
X5.08Y-3.41
X5.08Y-4.32
X5.08Y-4.42
X5.18Y-3.31
X5.18Y-3.41
X5.18Y-4.32
X5.18Y-4.42
X5.23Y-4.98
X5.23Y-5.08
X5.23Y-5.18
X5.23Y-5.28
X5.23Y-5.38
X5.23Y-5.48
X5.28Y-3.31
X5.28Y-3.41
X5.28Y-4.32
X5.28Y-4.42
X5.38Y-3.31
X5.38Y-3.41
X5.38Y-4.32
X5.38Y-4.42
X5.48Y-3.31
X5.48Y-3.41
X5.48Y-4.32
X5.48Y-4.42
X5.94Y-4.35
X6.04Y-4.35
X6.12Y-4.61
X6.12Y-4.71
X6.12Y-4.81
X6.12Y-4.91
X6.12Y-5.01
X6.12Y-5.11
X6.12Y-5.21
X6.12Y-5.31
X6.12Y-5.41
X6.12Y-5.51
X6.12Y-5.61
X6.12Y-5.71
X6.14Y-4.35
X6.22Y-4.61
X6.22Y-4.71
X6.22Y-4.81
X6.22Y-4.91
X6.22Y-5.01
X6.22Y-5.11
X6.22Y-5.21
X6.22Y-5.31
X6.22Y-5.41
X6.22Y-5.51
X6.22Y-5.61
X6.22Y-5.71
X6.24Y-4.35
X6.34Y-4.35
X6.72Y-3.32
X6.72Y-3.42
X6.72Y-4.32
X6.72Y-4.42
X6.82Y-3.32
X6.82Y-3.42
X6.82Y-4.32
X6.82Y-4.42
X6.92Y-3.32
X6.92Y-3.42
X6.92Y-4.32
X6.92Y-4.42
X7.02Y-3.32
X7.02Y-3.42
X7.02Y-4.32
X7.02Y-4.42
X7.12Y-3.32
X7.12Y-3.42
X7.12Y-4.32
X7.12Y-4.42
X7.215Y-5.69
X7.22Y-3.32
X7.22Y-3.42
X7.22Y-4.32
X7.22Y-4.42
X7.315Y-5.69
X7.415Y-5.69
X7.515Y-5.69
X7.615Y-5.69
T5
X3.Y-3.
X3.Y-6.
X8.Y-3.
X8.Y-6.
T0
M30
